<?xml version="1.0" encoding="utf-8"?>
<!-- Generator: Adobe Illustrator 19.1.0, SVG Export Plug-In . SVG Version: 6.00 Build 0)  -->
<!DOCTYPE svg PUBLIC "-//W3C//DTD SVG 1.1//EN" "http://www.w3.org/Graphics/SVG/1.1/DTD/svg11.dtd">
<svg version="1.1" id="Layer_1" xmlns="http://www.w3.org/2000/svg" xmlns:xlink="http://www.w3.org/1999/xlink" x="0px" y="0px"
	 viewBox="-136 134.2 86 93.8" style="enable-background:new -136 134.2 86 93.8;" xml:space="preserve">
<style type="text/css">
	.st0{fill:#EAEAEA;}
</style>
<g>
	<path d="M-607.1,737.7c0.1,0,0.2-0.1,0.3-0.2c0.1-0.1,0.1-0.1,0.2,0c-0.2,0.2-0.4,0.3-0.7,0.5c-0.2,0.2-0.5,0.4-0.7,0.5v0.1v0.1
		c0,0,0,0,0,0.1v0.2c-0.1,0-0.2,0-0.3-0.1c0,0.1,0,0.1-0.1,0.2c-0.1,0.1-0.1,0.1-0.1,0.2h0.1h0.1v0.1c-0.1,0-0.1,0-0.2,0
		c-0.1,0-0.1-0.1-0.2-0.2c-0.1,0.1-0.1,0.1-0.1,0.1s0,0.1-0.1,0.1l0.2-0.1c0,0.1,0,0.1,0,0.1h-0.1c0,0,0,0-0.1,0
		c-0.3,0.1-0.5,0.2-0.8,0.3c-0.3,0.1-0.5,0.2-0.7,0.3c-0.2,0.1-0.4,0.1-0.6,0.1s-0.4,0-0.6,0.1c-0.4,0.1-0.7,0.2-1,0.4
		c-0.1,0.1-0.2,0.1-0.3,0.2c-0.1,0-0.2,0.1-0.3,0.2c-1.1,0.5-2.1,0.7-3.1,0.7s-2-0.1-2.9-0.4c-0.9-0.3-1.9-0.7-2.8-1.3
		c-0.9-0.5-1.7-1.1-2.5-1.8c-0.4-0.3-0.9-0.6-1.3-1c-0.4-0.3-0.8-0.6-1.2-0.9c-0.1-0.1-0.3-0.2-0.4-0.3c-0.1,0-0.1-0.1-0.2-0.2
		c0.1,0,0.1-0.1,0.1-0.2h-0.2v0.2l-0.1-0.1c-0.1-0.1-0.2-0.1-0.3-0.2c-0.1-0.1-0.2-0.1-0.3-0.2c0.1-0.1,0.1-0.1,0.1-0.1
		s0-0.1,0.1-0.1c-0.2-0.2-0.5-0.4-0.8-0.4c0.1,0.1,0.2,0.1,0.3,0.2c0.1,0.1,0.2,0.1,0.3,0.2c-0.1,0.2-0.2,0.2-0.2,0.1
		c-0.3-0.1-0.5-0.3-0.8-0.4c-0.3-0.1-0.5-0.3-0.7-0.5c-0.2-0.1-0.4-0.2-0.6-0.3c-0.2-0.1-0.4-0.2-0.6-0.4c-0.2,0-0.3-0.1-0.4-0.2
		c-0.1-0.1-0.2-0.2-0.3-0.3s-0.1-0.1-0.2-0.2c0,0-0.1-0.1-0.2-0.2l-0.1-0.1l-0.1-0.1l-0.7-0.5c-0.1-0.1-0.2-0.2-0.2-0.3h-0.1h-0.1
		c-0.2-0.2-0.4-0.3-0.6-0.4c-0.1-0.1-0.2-0.2-0.3-0.3s-0.2-0.2-0.3-0.3s-0.2-0.2-0.4-0.3v-0.1l-0.1-0.5c0.1,0.1,0.2,0.1,0.2,0.1
		s0.1,0.1,0.2,0.1c0.1-0.1,0-0.2-0.2-0.3c-0.1-0.1-0.1-0.2-0.1-0.4c0.1-0.1,0-0.2-0.1-0.3c0,0-0.1,0-0.1-0.1c0.1,0,0.1,0,0.2,0
		c0.2,0,0.2-0.1,0.2-0.2h-0.1l-0.2,0.1c-0.1-0.1-0.2-0.2-0.2-0.3s0-0.2,0-0.4c-0.1-0.1-0.1-0.2-0.1-0.3s0-0.2-0.1-0.3l-0.1,0.3
		c-0.1,0-0.2-0.1-0.3-0.1c0,0-0.1,0.1-0.3,0.2c-0.1,0-0.2-0.1-0.1-0.2c0-0.1,0-0.1,0-0.2c0,0,0,0,0-0.1c-0.1,0-0.2-0.1-0.2-0.1
		c-0.1,0-0.1-0.1-0.2-0.2c0,0-0.1,0-0.1-0.1v-0.1c0,0,0,0,0-0.1l-0.1,0.1v0.1h-0.1h-0.1l-0.1,0.1c0,0.1,0,0.1,0.1,0.1c0,0,0,0,0,0.1
		v0.1l-0.1-0.1c-0.1-0.2-0.2-0.3-0.3-0.5c0-0.2-0.1-0.2-0.2-0.1l-0.3,0.1v-0.1c0.1,0,0.2,0,0.2,0l-0.1-0.5c0.1-0.1,0.1-0.2,0.1-0.4
		c-0.1,0-0.2,0.1-0.3,0.1v0.1c0,0,0,0.1,0,0.2c-0.2,0-0.3,0-0.3,0.2c0-0.2,0-0.2,0.1-0.3s0.1-0.1,0.1-0.1v-0.1
		c0.2,0,0.3-0.1,0.2-0.3c0,0-0.1,0-0.3,0.2l-0.3,0.1c-0.1-0.1-0.1-0.2-0.1-0.3c0.1-0.1,0.1-0.1,0.2,0s0.1,0.1,0.1,0.1
		c0.1,0,0.1-0.1,0-0.1c-0.1-0.1-0.3-0.1-0.6-0.1l-0.1,0.1c0,0-0.1,0,0,0.1c-0.1,0.1-0.1,0.1-0.1,0s0-0.1-0.1-0.1c0-0.1,0-0.1,0-0.2
		v-0.1h-0.1c0,0,0,0-0.1,0h-0.1c0,0,0,0-0.1,0c0.1,0.1,0.1,0.1,0.1,0.2c0,0,0,0.1,0.1,0.2c0,0,0.1-0.1,0.2-0.2l0.2,0.1l0.1-0.1
		c0.1,0,0.1,0,0.2,0.2c0,0.2,0,0.3-0.1,0.4c0-0.2-0.1-0.2-0.3-0.2c0,0-0.1,0-0.1-0.2l-0.2,0.1c0.1,0.1,0.1,0.2,0.2,0.3
		c0,0.1,0.1,0.2,0.2,0.3c0,0,0.1,0,0-0.1v-0.1c0,0.2,0.1,0.3,0.1,0.3c0,0.1-0.1,0.1-0.1,0.1s0,0,0,0.1c0-0.1,0-0.1,0.1-0.1l0.1,0.1
		c0.1,0.1,0.2,0.1,0.2,0.2c0.1,0,0.1,0.1,0.2,0.2c0-0.2,0-0.3,0-0.3c0.1-0.1,0.2-0.1,0.2,0s0,0.1,0.1,0.1h0.1c0,0,0,0.1,0,0.2
		c0,0-0.1,0-0.1-0.1c0,0,0-0.1-0.1,0c0,0-0.1,0,0,0.1v0.1c0,0,0.2,0.1,0.3,0.1c0,0.1,0,0.2,0.2,0.3c0-0.1,0.1-0.1,0.2-0.2
		c0-0.1-0.1-0.2-0.1-0.3h0.1c0.1,0.1,0.1,0.1,0.1,0.2c0,0.1,0.1,0.2,0.1,0.2v0.1v0.1c0.1,0.1,0.1,0.2,0.2,0.3s0.1,0.2,0.2,0.3
		s0.2,0.2,0.3,0.2l0.1,0.3h0.1v-0.1v-0.1h0.1c0,0.2,0,0.3,0,0.3c0.1,0,0.1,0,0.2,0.1c0.1,0.1,0.1,0.1,0.2,0v0.2h0.1
		c0,0,0.1,0,0.2,0.1c0,0,0,0.1,0.1,0.1c0.1,0.2,0.3,0.3,0.5,0.3h0.1c0,0,0,0,0.1,0h0.1c0.1,0.1,0.1,0.1,0.1,0.2c0,0.1,0,0.2,0.1,0.2
		h-0.1c-0.2-0.1-0.3-0.2-0.4-0.3s-0.3-0.2-0.5-0.3c-0.1-0.1-0.3-0.1-0.4-0.2c-0.1-0.1-0.2-0.2-0.3-0.2s-0.2-0.1-0.2-0.1
		c-0.1,0-0.2,0-0.2-0.1c-0.1,0-0.1-0.1-0.2-0.1c-0.1-0.1-0.3-0.3-0.7-0.5l-1.5-1.1c-0.1-0.1-0.2-0.1-0.2-0.2
		c-0.3-0.3-0.6-0.5-0.9-0.8s-0.6-0.5-1-0.8c-0.1-0.1-0.2-0.2-0.3-0.3c-0.1-0.1-0.2-0.1-0.3-0.2c-0.2-0.2-0.4-0.3-0.6-0.5
		c-0.2-0.2-0.4-0.3-0.6-0.5h-0.1c-0.1-0.1-0.3-0.2-0.4-0.3s-0.3-0.2-0.4-0.3c-0.2-0.2-0.4-0.3-0.6-0.5s-0.4-0.3-0.6-0.5
		c-0.1-0.1-0.3-0.1-0.4-0.2c-0.1-0.1-0.3-0.2-0.4-0.3c-0.2-0.2-0.3-0.4-0.5-0.5c-0.1-0.1-0.2-0.1-0.2-0.1c-0.3-0.1-0.5-0.4-0.5-0.7
		l-0.1-0.6c0-0.1-0.1-0.2-0.1-0.3c0,0.2,0,0.4,0.1,0.7l0.1,0.5v0.1c-0.1,0-0.1,0-0.2-0.2c0.1-0.1,0.1-0.2-0.1-0.2
		c-0.1,0-0.2,0-0.2-0.1c-0.1,0-0.2,0-0.2-0.1c0,0-0.1-0.1-0.2-0.1c0,0-0.1,0-0.1,0.1c-0.1-0.1-0.2-0.1-0.3-0.1
		c0-0.2-0.1-0.3-0.3-0.4c-0.1-0.1-0.3-0.2-0.5-0.2c0,0,0,0.1-0.1,0.2l-0.1-0.1c0,0,0-0.1-0.1-0.1c-0.1-0.1-0.1-0.1-0.2-0.2
		c0,0-0.1-0.1-0.1,0l-0.1-0.2l0.1,0.2c-0.1,0.3,0,0.5,0.1,0.8v0.2h-0.1c-0.1-0.1-0.2-0.1-0.2-0.1c-0.1,0-0.1,0-0.1-0.1v-0.1
		c0,0,0,0,0-0.1c-0.1,0.3,0,0.5,0.3,0.5c0,0.1,0,0.1,0,0.2c0,0.1,0,0.1,0,0.2c0,0.1,0,0.1,0,0.2c0,0,0,0.1,0.1,0.2
		c0-0.1,0-0.2,0-0.2c0.1,0.3,0.1,0.5,0.3,0.6c-0.1-0.1-0.2-0.1-0.2,0s-0.1,0.1-0.2,0.1c0-0.2-0.1-0.2-0.2-0.3l0.1,0.1
		c0,0,0,0,0.1,0.1v0.1l-0.1,0.1c0.1,0.1,0.1,0.1,0.2,0.1s0.1,0,0.1,0.2h-0.2c-0.2,0-0.2,0.1-0.1,0.2v-0.1v-0.1c0,0.1,0,0.2,0.1,0.2
		c0,0.1,0.1,0.2,0.1,0.2c-0.1,0-0.2,0.1-0.2,0.1c0.1,0.1,0.1,0.2,0.2,0.3c0.1,0.1,0.1,0.2,0.2,0.3c0-0.1,0-0.1,0-0.2V723
		c0.1,0,0.2,0.1,0.2,0.3c0,0,0,0.1-0.2,0.1l0.1,0.5c-0.2,0-0.3,0-0.3-0.1v0.2c0,0-0.1,0.1-0.2,0.1c-0.1,0.1,0,0.2,0.1,0.3
		s0.1,0.2,0.1,0.3c-0.1,0-0.1,0-0.2-0.1c-0.1-0.1-0.1-0.1-0.2-0.1c-0.1,0-0.2,0-0.2-0.1s-0.1-0.1-0.2-0.2c0,0.1-0.1,0.2-0.1,0.3
		c0,0,0-0.1-0.1,0c-0.1,0-0.1,0-0.1,0v0.1c0.1,0.2,0,0.4-0.1,0.4l0.1,0.2l0.2,0.2c0.1,0.1,0.1,0.3,0,0.4c0.2,0.1,0.3,0.3,0.2,0.4
		l0.1,0.4v0.2c0,0.1,0.1,0.2,0.2,0.1c0-0.1-0.1-0.2-0.1-0.3s0-0.2,0-0.4h0.1h0.1c0-0.2-0.1-0.3-0.3-0.2c0-0.1-0.1-0.2-0.1-0.4
		c0-0.1,0-0.2,0-0.3c0,0.1,0,0.1,0.1,0.2c0,0,0.1,0.1,0.1,0.2c0,0,0,0.1,0.2,0.1c0,0.1,0.1,0.1,0.1,0.2c0.1,0.1,0.1,0.1,0.2,0.2h0.1
		v0.2c0,0.1,0.1,0.2,0.2,0.3c-0.1,0-0.2,0.1-0.1,0.2h0.1c0,0,0.1,0,0.2,0c-0.1,0-0.1-0.1-0.2-0.2c0.2,0,0.3,0,0.3,0h0.1
		c0,0,0,0.1,0.1,0l-0.1,0.1c0,0,0,0-0.1,0.1h0.1l0.2-0.1c0.1,0.2,0.1,0.3,0,0.5c-0.1,0.1-0.1,0.3-0.1,0.4h-0.1v0.1
		c0,0.1,0,0.2-0.2,0.2c-0.1-0.1-0.2-0.1-0.3,0.1h-0.1V728c0,0,0-0.1,0.1-0.2c-0.1,0.1-0.2,0.1-0.3,0.1c0,0,0,0.1,0.1,0.1
		s0.1,0.1,0,0.2c0-0.1-0.1-0.2-0.2-0.2c-0.1,0-0.2,0-0.2-0.1c0.2-0.1,0.2-0.2-0.1-0.2l0.1,0.2v0.1c0,0.1,0,0.2,0,0.2s0,0.1,0,0.2
		v0.1c0,0,0,0,0.1,0.1v0.1c-0.1,0.4-0.1,0.7,0,0.9c0,0.1,0,0.1,0.1,0.2c0,0,0.1,0.1,0.1,0.2c0,0.1,0.1,0.1,0.2,0.1l-0.1-0.3
		c0-0.1-0.1-0.2-0.2-0.3c0-0.1,0-0.2,0.1-0.3c0,0.2,0.1,0.4,0.2,0.5c0.1,0.1,0.1,0.3,0,0.5c0,0-0.2,0-0.4,0l0.1,0.4l0.1,0.3
		c0,0.1,0,0.1-0.1,0.2c-0.1,0-0.1,0.1-0.1,0.1c0.1,0.1,0.1,0.1,0.1,0.1s0,0.1,0.1,0.1h-0.2c-0.1,0.1-0.1,0.2-0.1,0.4
		c0.1,0,0.1-0.1,0.1-0.2c0-0.1,0.1-0.2,0.2-0.1c0.1,0.1,0.1,0.2,0.1,0.2c-0.1,0-0.1,0.1-0.2,0.1c0,0.2,0.1,0.3,0.1,0.4
		c0.1,0,0.2,0,0.2,0s0,0.1,0.1,0.2c0.1,0.1,0.1,0.1,0.1,0.2v0.1c0,0-0.1,0-0.1,0.1s-0.1,0.2-0.3,0.2l0.1,0.3c0.1,0,0.2,0.1,0.2,0.1
		l-0.1-0.3h0.1c0.1,0.1,0.1,0.2,0.1,0.3h0.1c0,0,0.1,0,0.1-0.1c0.1,0.1,0.1,0.3,0,0.5c-0.1,0-0.1-0.1-0.1-0.1s0-0.1-0.1-0.2
		c0,0.1,0,0.2-0.1,0.2c0,0.1-0.1,0.1-0.1,0.2c0,0,0,0.1,0.1,0h0.1l0.1-0.1c0.1,0.1,0.1,0.2,0.1,0.3s0,0.2,0.1,0.3
		c0.1,0.2,0.1,0.4,0,0.5c-0.1,0.2-0.1,0.3-0.2,0.5c0,0-0.1,0-0.2-0.1c0,0.1,0,0.2,0,0.3h0.2c0,0.1,0,0.1,0,0.2c0,0.1,0,0.1,0,0.2
		l0.1,0.3h-0.1c0,0,0.1,0.1,0.1,0.2l-0.1,0.1c0.1,0.1,0.1,0.1,0.1,0.2c0,0.1,0,0.1,0,0.2c-0.1,0.2-0.1,0.5,0,0.7h-0.1
		c-0.2,0.2-0.2,0.3-0.2,0.3c0,0.1,0,0.1,0.1,0.2c0,0.1,0,0.1-0.1,0.2c0-0.1,0-0.2,0-0.2s-0.1,0.1-0.2,0.1c0.1,0.1,0.1,0.1,0.1,0.2
		c-0.1,0.1,0,0.2,0.2,0.2c-0.2,0.1-0.3,0.3-0.3,0.5v0.2c0,0.2,0,0.3,0,0.3s-0.1,0.1,0,0.1c0-0.1-0.1-0.2-0.2-0.1l0.1,0.4
		c-0.2,0.1-0.3,0.2-0.3,0.2c-0.1,0.1-0.1,0.1-0.1,0.3c0.1,0.1,0.1,0.1,0.1,0.2c0,0.1-0.1,0.2-0.1,0.3c-0.1,0.1-0.1,0.2-0.1,0.2
		c0,0.1,0,0.1-0.1,0.1c0,0-0.1,0-0.2,0c-0.1-0.3-0.1-0.5-0.2-0.8c-0.1-0.2-0.1-0.5-0.2-0.8c0,0.3,0.1,0.5,0.1,0.8
		c0.1,0.3,0.1,0.5,0.2,0.9c-0.1,0-0.2,0-0.2-0.1s0-0.2,0-0.2c0-0.1,0-0.2,0-0.2v-0.2c-0.1-0.2-0.2-0.3-0.4-0.3c0-0.1,0-0.2,0-0.3
		c0-0.2-0.1-0.3-0.2-0.4c-0.1-0.1-0.2-0.1-0.1-0.2l-0.1-0.4l-0.1-0.4c0-0.1,0-0.1-0.1-0.2c0,0,0-0.1-0.1-0.1
		c-0.1-0.4-0.1-0.9-0.2-1.2c-0.1-0.4-0.2-0.8-0.2-1.2c0-0.2,0-0.5-0.1-0.7c0-0.2-0.1-0.4-0.1-0.7c-0.1-0.4-0.1-0.8-0.1-1.1
		c-0.1-0.3-0.1-0.5-0.1-0.7s-0.1-0.5,0-0.8l0.6,2.8h0.1l-0.2-0.7V734c0-0.2,0-0.3-0.1-0.4c0-0.1-0.1-0.2-0.1-0.4c0,0,0-0.1,0-0.2
		c0-0.1,0-0.1-0.1-0.1l-0.2-0.8c-0.1-0.2-0.1-0.5-0.1-0.7s-0.1-0.4-0.1-0.7v-0.1c0,0,0-0.1,0-0.2c0-0.1,0-0.3,0-0.4
		c0-0.1,0-0.3,0-0.4c0-0.2-0.1-0.3-0.1-0.4c0-0.1,0-0.2,0-0.3c0-0.2,0-0.4,0-0.6s0-0.4,0-0.6s-0.1-0.4-0.1-0.5c0-0.2,0-0.3-0.1-0.5
		l-0.1-0.2c0-0.3-0.1-0.6-0.1-0.8c-0.1-0.3-0.1-0.6-0.1-0.9s-0.1-0.6-0.1-0.9s-0.1-0.6-0.1-0.9c0-0.2,0-0.4,0-0.6s0-0.4,0-0.6v-0.1
		c0-0.2-0.2-0.3-0.3-0.2s-0.2,0.3-0.4,0.3c-0.1,0-0.2,0.1-0.2,0.1c-0.2-0.1-0.3-0.3-0.4-0.5l-0.1-0.6h-0.1l0.2,0.9l0.1,0.4
		c0,0,0,0-0.1,0.2l-0.3,0.1c0,0.1-0.1,0.2-0.2,0.2s-0.2,0-0.3,0.1v-0.1c0,0,0,0,0-0.1h-0.1c0,0-0.1,0-0.1-0.1c0,0.1,0,0.1,0,0.2
		c0,0,0,0.1,0,0.2h-0.1v-0.1c0,0,0-0.1,0-0.2c-0.1,0.1-0.1,0.1-0.1,0.2c0,0.1,0,0.1-0.2,0.2c-0.1-0.1-0.2-0.3-0.3-0.4v0.2
		c-0.1,0.1-0.2,0.1-0.3,0.1s-0.2,0.1-0.2,0.1c0,0.1,0.1,0.1,0.1,0.1c0.1,0,0.1,0,0.1,0.2c-0.2-0.1-0.3-0.1-0.4,0.1
		c-0.1,0-0.1,0-0.2-0.2c0-0.1-0.1-0.1-0.2-0.2c-0.1,0-0.1,0.1-0.1,0.2c0,0.1-0.1,0.1-0.2,0.1c0.1-0.1,0.1-0.2,0.2-0.2l-0.1-0.1
		c-0.1-0.1-0.3-0.1-0.4-0.1s-0.3,0-0.4,0c-0.2,0-0.3,0-0.3-0.1h-0.1c-0.2,0-0.4,0-0.5-0.1h-0.1h-0.1c-0.2,0-0.3-0.1-0.3-0.2
		c0,0,0-0.1-0.1-0.1c-0.2-0.1-0.2-0.2-0.1-0.3h-0.1v-0.1c0.1-0.1,0.1-0.2,0-0.2c0,0-0.1-0.1-0.2-0.2l-0.1,0.1c0-0.1-0.1-0.2-0.3-0.3
		c-0.1-0.1-0.2-0.1-0.2-0.3c0-0.1-0.1-0.2-0.2-0.3c-0.1-0.2-0.3-0.3-0.4-0.3c0,0-0.1-0.1-0.2-0.1c-0.1,0-0.1-0.1-0.2-0.1l-0.1-0.1
		l-0.1-0.1c-0.1-0.1-0.1-0.1,0-0.2c-0.2,0-0.3-0.2-0.4-0.3c0-0.1-0.1-0.1-0.1-0.2c-0.1-0.1-0.1-0.1-0.1-0.2
		c-0.2-0.2-0.4-0.5-0.5-0.8c0-0.1,0-0.2-0.1-0.2c0-0.1-0.1-0.1-0.1-0.2c-0.1-0.1-0.1-0.2-0.1-0.3c-0.1-0.3-0.1-0.5-0.1-0.7
		c0,0,0,0.1,0.1,0h0.2c0-0.1-0.1-0.1-0.3-0.1c-0.1-0.1-0.1-0.3-0.1-0.5s-0.1-0.3-0.1-0.4c0-0.2-0.1-0.4-0.1-0.5s0-0.3,0-0.5
		s0.1-0.4,0.1-0.6s0.1-0.4,0.3-0.6l-0.1-0.2c-0.1-0.1-0.1-0.2-0.1-0.4s0.1-0.3,0.1-0.4v-0.1c0-0.1,0-0.2,0-0.3s0-0.2,0.1-0.3v-0.4
		c0-0.2,0.1-0.4,0.2-0.5c0.1-0.1,0.2-0.3,0.3-0.5c0.1-0.1,0.2-0.2,0.2-0.3l0.1,0.2c0.1,0,0.1,0,0.1-0.1c-0.1-0.2,0-0.3,0.2-0.5
		c0.1-0.1,0.2-0.2,0.2-0.3c0.1-0.1,0.1-0.2,0.2-0.2c0.1-0.1,0.2-0.2,0.3-0.3s0.2-0.2,0.4-0.3c0.2,0,0.3-0.1,0.4-0.1
		c0.1-0.1,0.2-0.2,0.2-0.3c0,0,0.1-0.1,0.2-0.2c0,0,0.1,0.1,0.1,0.2c0.1,0,0.1,0,0.2,0c0,0,0.1,0,0.2,0c0-0.1,0-0.2-0.1-0.1
		c-0.1,0-0.1,0-0.1-0.1c0.2-0.2,0.3-0.1,0.4,0h0.1h0.1c0,0-0.1-0.1-0.2-0.2l0.4-0.1h0.1c0,0,0.1,0,0.2,0v0.2c0,0.1,0.1,0.2,0.4,0.2
		c0.1,0.1,0.2,0.2,0.2,0.2h0.1c0,0,0,0,0.1,0v0.1c0,0.1,0,0.2,0,0.4c0,0.1,0.1,0.2,0.2,0.2c0.1,0.1,0.3,0.1,0.4,0.1
		c0.1,0,0.3,0.1,0.5,0.1l0.1,0.4h0.1v-0.1c0,0,0-0.1,0-0.2c0.1-0.1,0.2-0.1,0.2,0c0.1,0.2,0.2,0.3,0.4,0.3c0.1,0,0.1,0.1,0.2,0.1
		c0,0.1,0.1,0.1,0.2,0.1s0.2,0,0.2,0c0.1,0,0.2,0,0.3,0s0.2,0,0.3,0s0.2,0,0.3,0s0.2,0,0.2,0c0.1,0,0.1,0.1,0.2,0.2h0.1l0.3-0.1
		c0-0.2,0-0.4,0-0.7c-0.1-0.3-0.1-0.6-0.1-0.9s0-0.6,0-0.9c0-0.2,0-0.4,0-0.7c0-0.2,0-0.5-0.1-0.7c0-0.3,0-0.6,0-0.9s0-0.6,0-0.9
		c-0.1-0.2-0.1-0.6-0.1-1c0-0.2,0-0.4,0-0.6s-0.1-0.4-0.1-0.6c0-0.4,0-0.7-0.1-1c0-0.3-0.1-0.6-0.1-1s-0.1-0.8-0.1-1.3
		c-0.1-0.4-0.1-0.9,0-1.3c0-0.3-0.1-0.6-0.1-0.8s-0.1-0.5-0.1-0.7c-0.1-0.2-0.1-0.5-0.1-0.7c0-0.3-0.1-0.5-0.1-0.7
		c-0.1-0.3-0.2-0.6-0.2-1c0-0.3,0-0.7,0-1c0-0.2,0-0.4,0-0.6s0-0.4,0-0.6c0-0.3-0.1-0.5-0.1-0.8c-0.1-0.2-0.1-0.5,0-0.8
		c0-0.3-0.1-0.6-0.1-0.9s-0.1-0.6-0.1-0.9c-0.1-0.4-0.1-0.9-0.1-1.3c0-0.4-0.1-0.9-0.1-1.3c0-0.2,0-0.4-0.1-0.6s-0.1-0.4-0.2-0.6
		c0-0.1,0-0.1-0.1-0.2h-0.1c-0.1-0.1-0.1-0.2,0-0.4c0-0.1,0.1-0.1,0.1-0.1h0.1v-0.1c0-0.1,0-0.1,0.1-0.2c0.1,0,0.2-0.1,0.2-0.1
		c0.1-0.1,0.2-0.1,0.3-0.1h0.1c0.2-0.1,0.3-0.2,0.2-0.4c-0.1-0.1-0.1-0.2-0.1-0.2c0-0.2,0.1-0.2,0.2-0.1c0.1,0,0.1,0,0.2,0
		c0,0,0.1,0,0.2,0c0.1-0.1,0.1-0.1,0.1-0.2c0-0.1-0.1-0.1-0.1-0.1c0.1-0.1,0.2-0.2,0.4-0.3c0.1-0.1,0.1-0.1,0.2-0.2
		c0.1-0.1,0.2-0.2,0.3-0.2c0.1-0.1,0.2-0.1,0.4-0.1c0.1,0,0.3,0,0.4,0s0.3,0,0.3,0l0.5,0.1c0.1,0,0.2,0,0.4,0c0.1,0,0.2,0,0.4,0
		c0.2,0.1,0.3,0.2,0.3,0.4c0.1-0.1,0.1-0.1,0.2-0.2l0.4,0.1c0,0,0,0.1,0,0.2h-0.1h-0.1l0.1,0.2c0.3,0.1,0.4,0.2,0.5,0.4h0.1
		c0.2-0.1,0.3,0,0.3,0.2v0.1l-0.1,0.1c0.1,0.1,0.1,0.1,0.2-0.1l0.1,0.1c0,0.1,0.1,0.1,0.1,0.1c-0.1,0.1-0.2,0.2-0.1,0.2v0.1
		l-0.1,0.1c0.1,0,0.2,0,0.3,0s0.2,0.1,0.2,0.2v-0.1c0,0,0.1,0,0.2,0.1c0.1,0,0.1,0,0.2,0.1v-0.1c0,0.1,0.1,0.2,0.1,0.2h0.2
		c0.1,0.1,0.2,0.2,0.3,0.2s0.2,0,0.4,0.1v0.1c0,0.2,0,0.3-0.1,0.4c-0.1,0.1-0.1,0.2,0,0.2l0.2-0.1c0,0.2,0.1,0.2,0.1,0.2
		c0.1,0.1,0.3,0.1,0.4-0.1c-0.1,0-0.2,0-0.2-0.1c-0.1,0-0.1-0.1-0.2-0.1c0-0.2,0.1-0.4,0.4-0.5c0.1,0.1,0.1,0.1,0,0.2
		c0,0-0.1,0.1-0.1,0.2c0.1,0.1,0.1,0.1,0.3,0.1c0.1,0.1,0.1,0.1,0.1,0.2c0,0,0.1,0.1,0.2,0.1c0,0.2-0.1,0.3-0.3,0.5v0.1
		c0.1,0.1,0.2,0.2,0.2,0.3s0,0.2,0,0.3c-0.1,0-0.2,0-0.2,0c-0.1,0-0.1,0-0.2,0l-0.1,0.3c0,0,0-0.1-0.1-0.1c0-0.1,0-0.2,0-0.3
		s0-0.2,0-0.3c-0.1-0.1-0.2-0.1-0.2-0.3c0-0.1-0.1-0.2-0.1-0.3V685c0-0.1-0.1-0.1-0.1-0.2c-0.1,0-0.1,0-0.1,0
		c-0.1,0.1-0.1,0.1-0.2,0.2c0,0-0.1,0.1-0.2,0.1c0,0-0.1,0-0.1,0.1c0.1,0,0.2,0,0.2,0c0.1,0,0.2,0,0.2,0c0.1,0.1,0,0.3-0.1,0.4
		l-0.1-0.3c-0.1,0.1-0.2,0.1-0.3,0.1s-0.2-0.1-0.3-0.3l-0.4,0.1c-0.2,0-0.2,0.1-0.3,0.2c-0.1,0.1-0.1,0.1-0.2,0v-0.1h-0.1
		c0,0-0.1,0-0.1,0.1c0,0,0,0.1-0.1,0.1c0-0.2-0.1-0.4-0.2-0.5c0.1,0.1,0.3,0.1,0.4,0.2v0.1c0,0,0.1,0,0.2,0c0-0.1,0-0.2,0.1-0.2
		s0.1,0,0.2-0.1l0.1,0.1c0.2,0,0.3,0,0.4-0.1c0.2,0,0.3-0.1,0.4-0.2c-0.1-0.1-0.3-0.2-0.5-0.2c-0.1,0-0.2,0-0.2-0.1c0,0,0,0,0.1-0.2
		h-0.1c0,0,0-0.1-0.1-0.1c0,0-0.1,0-0.1-0.1h-0.1c0-0.2-0.1-0.3-0.1-0.4c0,0.1-0.1,0.2-0.1,0.2c-0.1,0.1-0.1,0.1-0.1,0.2
		c-0.1-0.1-0.1-0.1-0.1-0.1s0-0.1,0-0.2c-0.1,0.1-0.2,0.3-0.1,0.6c0,0,0.1,0,0.2,0.1v0.1c-0.1-0.1-0.2-0.1-0.3-0.1v0.1v0.1h-0.1
		l-0.1,0.1c-0.1,0.1-0.1,0.1,0,0.3c0.1,0,0.1,0.1,0,0.1s-0.2,0.1-0.2,0.1c0,0.1,0.1,0.1,0.1,0.1c0.1,0,0.1,0,0.1,0.1
		c0.1,0.1,0.1,0.1,0.2,0.1c0.1,0,0.1,0,0.2,0.1c0,0.1,0,0.2-0.1,0.3s-0.1,0.1,0,0.3c0.1,0,0.1,0,0.1-0.1c0,0,0,0,0.1,0
		c0.1-0.1,0.1-0.1,0.2-0.2c0.1-0.1,0.1-0.1,0.1-0.2c0-0.1,0-0.1,0.1-0.1c0.1,0.1,0.1,0.2,0.1,0.3c-0.1,0.1-0.1,0.2-0.1,0.2
		s0.1,0.1,0.2,0.2l-0.1,0.1c0.1,0.1,0.2,0.1,0.2,0.2c0,0,0.1,0.1,0.1,0.2c0,0,0.1,0,0.3,0v0.1l-0.3,0.1c-0.1-0.1-0.1-0.1-0.2-0.2
		c-0.1,0-0.2-0.1-0.2-0.2c0,0.1-0.1,0.2-0.1,0.3h-0.2h-0.1c0-0.2,0-0.3,0-0.4c0,0-0.1-0.1-0.3-0.1c0,0.2-0.1,0.3-0.3,0.3
		c0,0.1,0.1,0.1,0.3,0.1l0.1,0.2h0.2c0,0.1-0.1,0.1-0.2,0.1c0,0.1,0.1,0.2,0.2,0.3c-0.2,0.2-0.2,0.3,0,0.4l0.2-0.1v0.1v0.1
		c0,0,0,0,0,0.1c0-0.1,0-0.2,0-0.3c0,0,0.1,0,0.2,0c0.1,0,0.1,0,0.1-0.1v-0.1v-0.1h0.1c0.2,0,0.3,0.1,0.3,0.2l0.2,0.1v0.1
		c-0.1-0.1-0.2-0.1-0.3-0.1s-0.2,0-0.3-0.1c0,0.1,0,0.1,0,0.2v0.1h-0.1c-0.1,0.1-0.1,0.1-0.2,0.1c0,0-0.1,0.1-0.2,0.2
		c0,0.2-0.1,0.2-0.2,0.1c0,0.2,0,0.3,0.2,0.3c0.1,0.1,0.2,0.2,0.2,0.3c0,0,0,0-0.1,0.2c0.1-0.1,0.3-0.1,0.4,0h0.1l0.3-0.1
		c-0.1,0.1-0.1,0.2-0.1,0.2c0,0.1-0.1,0.1-0.1,0.2c-0.1-0.1-0.1-0.1-0.2-0.2c0,0-0.1-0.1-0.2-0.2c-0.1,0.1-0.1,0.2-0.2,0.3
		c-0.1,0-0.1,0.1-0.2,0.2v0.1c0,0,0,0.1,0.1,0.1c0.3,0.2,0.3,0.4-0.1,0.5c-0.1,0-0.2,0.1-0.3,0.2l0.1,0.2c0-0.1,0.1-0.2,0.3-0.2
		c0,0.1,0,0.1,0,0.2c0,0.1,0,0.1-0.1,0.2l0.3,0.1c0,0.1,0,0.2,0,0.2c0,0.1,0,0.1,0,0.2c0,0,0.1,0,0.1,0.1c0-0.2,0.1-0.3,0.1-0.5
		c0.1,0.1,0.2,0.2,0.2,0.3s0.1,0.2,0.1,0.3h0.1c0,0.2,0,0.3-0.1,0.3c0.2,0,0.3,0.2,0.3,0.3c0.1-0.1,0.2-0.2,0.3-0.2v-0.1v-0.1
		c0.1-0.1,0.2-0.1,0.3,0.1v0.1c0,0-0.1,0,0,0.1h0.1c0.1-0.1,0.1-0.1,0.2-0.1c0.1,0,0.1,0.1,0.2,0.1c0,0-0.1,0.1-0.1,0.2
		c-0.1,0-0.1,0-0.2-0.1v0.2c0,0,0,0.2,0,0.5v0.1h0.2c0,0,0.1,0,0-0.1c0.1,0.1,0.1,0.1,0.2,0l0.1-0.1c0.1,0.1,0.1,0.1,0.2,0.2
		c0,0.1,0,0.1,0,0.1s0,0,0,0.1s0,0.1,0,0.1h-0.1h-0.1c0,0.1,0,0.2-0.1,0.2c0,0.1,0.1,0.2,0.1,0.2h0.1c0.1-0.1,0.2-0.1,0.3-0.1
		c0,0.1,0,0.1,0.1,0.2c0,0.1-0.1,0.2-0.1,0.3c-0.1,0-0.1,0-0.2,0h-0.1l-0.2,0.4c0.1,0.1,0.2,0.1,0.2,0s0-0.1,0.1-0.1
		c0.1,0,0.1,0,0.1-0.1v-0.1c0.1,0,0.1,0,0.2,0.1c0,0.1,0.1,0.1,0.1,0.2c0,0,0.1,0,0.2-0.1c0.1-0.1,0.1,0,0.2,0.1
		c0,0.1,0,0.2-0.1,0.2c0,0.1-0.1,0.1-0.1,0.2l0.2-0.1c0-0.1,0-0.2,0.1-0.2h0.2c0.1,0.1,0.2,0.2,0.1,0.2c0,0.2,0,0.3,0,0.4l0.4,0.1
		c0,0.1-0.1,0.2-0.2,0.3l0.1,0.6h-0.2c0,0.2,0.1,0.2,0.2,0.3c-0.1,0.1-0.2,0.1-0.2,0l-0.1-0.1c0-0.1,0-0.1-0.1-0.1
		c0-0.1-0.1-0.1-0.2,0c0,0-0.1,0-0.1,0.1c-0.1,0-0.1,0.1-0.2,0.1l-0.3,0.1v-0.1v-0.1c-0.1-0.1-0.1-0.1-0.2-0.2
		c-0.1-0.1-0.1-0.1-0.2-0.2l-0.1,0.3c-0.1,0-0.2,0.1-0.2,0.1c0,0.1,0,0.1,0,0.2c-0.1-0.1-0.1-0.1-0.1-0.2c0-0.1,0-0.1,0-0.2l0.3,0.1
		c0-0.2,0-0.3-0.1-0.4c-0.1-0.1-0.1-0.3,0-0.5c-0.1,0-0.2,0-0.3,0s-0.1,0-0.2,0c0-0.1,0-0.2,0-0.2v-0.1c-0.1-0.1-0.2-0.1-0.2,0v0.2
		c-0.1,0.2-0.1,0.4-0.1,0.4s0,0.1,0.1,0.2c0,0.1,0,0.2,0,0.3s0,0.2,0,0.3c-0.1,0.1-0.1,0.1-0.2,0.1c0,0-0.1,0-0.2,0.1
		c0.1,0,0.1,0,0.2,0c0,0,0.1,0,0.2,0c-0.1,0.1-0.1,0.2-0.1,0.3l0.1,0.1c0.1-0.1,0.1-0.2,0.2-0.2s0.1,0,0.1,0s0,0.1,0.1,0l0.3-0.1
		v0.1l-0.1,0.1l-0.1,0.1l-0.1-0.1l-0.1-0.1v0.1v0.1v0.1h0.1c0,0,0.1,0,0.1-0.1v0.1c0,0-0.1,0.1-0.2,0.1c0,0.1,0,0.2-0.1,0.3
		c0.1,0,0.2,0,0.2,0c0-0.1-0.1-0.2-0.1-0.3c0.1,0,0.1,0,0.2,0c0,0,0.1,0,0.1-0.1c0.1,0,0.1,0.1,0.1,0.1s0,0.1,0.1,0.1h-0.2l0.1,0.2
		c0.1-0.1,0.1-0.1,0.1-0.1v-0.1l0.1-0.1v0.1c0,0,0,0,0,0.1v0.1c0,0,0,0.1,0,0.2c0.1,0,0.2,0,0.3-0.2c0,0.1,0,0.2,0,0.4
		c0,0,0,0.1,0.1,0.1c0,0.1,0,0.2,0,0.2c0.1-0.1,0.1-0.2,0.1-0.3c0.2,0,0.3-0.1,0.4-0.2c0,0,0,0.1,0.1,0.1v0.1c0,0.1,0,0.1-0.1,0
		c-0.1,0-0.1,0,0,0.1c0,0,0.1,0,0.2,0.1c0.1,0,0.1,0.1,0.2,0.3c-0.1,0-0.2,0-0.2,0.1c-0.1,0-0.2,0.1-0.3,0.2c0,0,0.1,0,0.2,0
		c0.1,0.1,0.1,0.3,0,0.4l0.2,0.3v-0.1v-0.1c0,0.2,0,0.2,0,0.2s0,0.1,0,0.2l-0.1,0.1c-0.1-0.1-0.1-0.1-0.1-0.2c0-0.1,0-0.1-0.1-0.1
		c-0.1,0.1-0.1,0.2,0,0.4c0,0.1,0,0.1,0.1,0.1l0.2,0.7h-0.2l0.2,0.2l0.1,0.3l-0.1,0.1c-0.1,0.1-0.1,0.1-0.2,0.2l0.1,0.5
		c-0.1-0.1-0.2-0.1-0.2-0.1c-0.1-0.1-0.1-0.1-0.2,0c0,0,0,0.1-0.1,0.1c0,0.1,0,0.1,0.1,0.1c0,0,0,0.1,0.1,0.1
		c-0.1-0.1-0.2-0.1-0.3-0.1c0,0.1,0,0.2,0,0.4c0.1,0,0.1,0,0.1,0l0.1,0.4c0-0.1,0-0.1,0.1-0.1c0,0,0,0,0.1-0.1c0,0.1,0,0.2,0,0.3
		s0,0.1,0,0.2l-0.2,0.1h-0.1h-0.1h-0.1l0.1,0.1c0,0.1,0,0.1,0.1,0.1s0.1,0.1,0.2,0.3c0,0.1,0,0.2-0.1,0.3c0.1,0.1,0.1,0.1,0.2,0.2
		v0.2c0,0,0,0.1,0,0.2h0.1h0.1v0.1v0.1v0.1c-0.1,0.1-0.1,0.2-0.1,0.2s0,0.1,0,0.2h-0.1c-0.1,0-0.1,0.1-0.1,0.1c0,0.1,0,0.1,0,0.2
		l0.4-0.1c0,0.1-0.1,0.2-0.3,0.1c-0.1,0-0.1,0.1-0.1,0.1l0.1,0.5v0.1c0.1,0.3,0.1,0.5,0,0.7c0,0-0.1,0-0.1,0.1c0,0.2,0,0.5-0.1,0.8
		c-0.2,0.1-0.2,0.2-0.2,0.3h0.1c0,0,0.1,0,0.1,0.1v0.1v0.1c0,0.1,0,0.2,0,0.2s0,0.1-0.1,0.2c-0.1,0.1-0.1,0.2-0.1,0.2
		c0,0.1,0,0.1,0,0.2c0,0.1,0,0.1,0,0.2c0,0.1,0,0.1,0,0.2c0,0,0,0.1,0,0.2c-0.1,0.1-0.1,0.2-0.2,0.2c-0.1,0-0.1,0-0.2-0.2v-0.1
		c-0.1-0.1-0.1-0.1-0.1,0v0.1h-0.1c-0.1,0.1-0.2,0.2-0.2,0.4v0.1l0.1-0.1c0.1,0,0.2,0.1,0.2,0.1c0,0.1,0,0.2,0.1,0.2l0.2-0.1h0.1
		c0,0.2,0,0.3,0,0.4c-0.1,0.1-0.1,0.2,0,0.4c0,0.2,0.1,0.2,0.1,0.1c0.1-0.1,0.1-0.2,0.2-0.2c0.1-0.1,0.1-0.1,0.2-0.2
		c0.1-0.1,0.3-0.2,0.4-0.4s0.3-0.3,0.4-0.5c0.2-0.2,0.4-0.3,0.5-0.5c0.1-0.1,0.2-0.2,0.3-0.2c0.1-0.1,0.2-0.1,0.3-0.2
		c0-0.1,0.1-0.2,0.2-0.2c0.2-0.2,0.3-0.3,0.4-0.5s0.2-0.3,0.3-0.4c0.1-0.1,0.2-0.3,0.3-0.4c0.1-0.1,0.2-0.3,0.3-0.5l0.1-0.1
		c0.2-0.2,0.3-0.4,0.4-0.5s0.2-0.3,0.3-0.5v-0.1c0,0,0.1,0.1,0.1,0.2v-0.1c0-0.2,0-0.3,0.2-0.4l0.1-0.1c0.1-0.1,0.1-0.2,0.2-0.3
		s0.1-0.2,0.2-0.3c0.2-0.2,0.3-0.4,0.3-0.6c0.2-0.1,0.3-0.2,0.3-0.4c0.1-0.1,0.2-0.2,0.2-0.3c0.1-0.1,0.1-0.2,0.2-0.3
		s0.1-0.2,0.2-0.2c0-0.1,0.1-0.1,0.2-0.2l0.2-0.2l0.1,0.2h0.1V703c-0.1-0.1,0-0.2,0-0.4c0.1-0.1,0.2-0.2,0.2-0.4
		c0.1-0.1,0.1-0.3,0.3-0.4c0-0.2,0.1-0.3,0.2-0.5c0.1-0.1,0.2-0.3,0.4-0.4c0.1-0.1,0.2-0.3,0.3-0.4c0.1-0.2,0.3-0.3,0.4-0.4V700
		c0.2-0.2,0.3-0.4,0.5-0.7c0.1-0.2,0.2-0.3,0.3-0.4c0.1-0.1,0.2-0.3,0.3-0.4l0.2-0.2c0,0.2,0.1,0.3,0.1,0.5s0.1,0.3,0.2,0.5
		c0-0.2-0.1-0.4-0.1-0.5c0-0.2,0-0.3-0.1-0.5c0-0.1,0-0.2,0-0.2c0.1-0.1,0.2-0.2,0.3-0.4c0.1-0.2,0.2-0.3,0.3-0.5
		c0.1-0.1,0.1-0.2,0.2-0.4c0.1-0.2,0.1-0.3,0.2-0.4c0.1-0.1,0.1-0.1,0.1-0.2c0-0.1,0.1-0.1,0.1-0.2c0-0.2,0.1-0.3,0.3-0.5
		c0.1-0.2,0.2-0.3,0.3-0.5c0.1-0.1,0.1-0.2,0.2-0.3c0.1-0.1,0.1-0.2,0.2-0.3v-0.1c0.2-0.2,0.4-0.5,0.5-0.7l0.1-0.1
		c0.1-0.1,0.3-0.3,0.4-0.5c0.1-0.2,0.2-0.4,0.3-0.6c0.1-0.1,0.1-0.2,0.2-0.3c0.1-0.1,0.1-0.2,0.2-0.3v-0.1c0,0,0,0,0-0.1v0.1
		l0.1,0.1c0.2,0,0.2,0,0.1-0.1h-0.2c0.1-0.1,0.1-0.1,0.1-0.2c0-0.1,0-0.1,0.1,0l0.2,0.1c0,0.1,0,0.2,0,0.3h0.1c0-0.1,0-0.2,0.1-0.3
		c0.1,0.1,0.2,0.1,0.3,0.2c0-0.1,0-0.1,0.1-0.2c0-0.1,0-0.1,0-0.2c-0.1,0-0.2,0-0.4,0h-0.1v-0.1c0,0,0,0,0-0.1l-0.1,0.1l-0.1,0.1
		c0.1-0.1,0.1-0.2,0.1-0.2s0-0.1,0.1-0.2l0.1-0.1c0,0,0-0.1,0.1-0.1l0.1,0.1v0.1c0.1-0.1,0.1-0.2,0.2-0.2c0.1,0,0.2-0.1,0.3-0.1
		c0,0-0.1,0-0.3-0.1h-0.1c0,0-0.1,0-0.1,0.1l0.1-0.1c0.1-0.2,0.2-0.4,0.4-0.5c0.1-0.1,0.2-0.3,0.4-0.5c0.1,0,0.3,0,0.5-0.1
		c0-0.1,0-0.1-0.1,0c-0.1,0-0.2,0-0.2-0.2c0.1,0.1,0.2,0.1,0.3,0.1s0.2,0,0.2,0c0-0.1,0-0.2,0.1-0.2c0,0,0-0.1,0-0.2v-0.1
		c0,0,0.1,0,0-0.1c-0.1,0-0.1,0-0.1,0.1c0,0,0,0.1,0,0.2c-0.1-0.1-0.2-0.1-0.2-0.1s-0.1-0.1,0-0.1c0.1-0.1,0.1-0.1,0.2-0.2
		c0-0.1,0.1-0.1,0.1-0.2c0.1,0,0.1-0.1,0.1-0.2h0.1l0.1-0.1c0,0.2,0,0.3,0,0.4c0.1,0,0.2,0,0.2,0c-0.1-0.1-0.1-0.1-0.1-0.2
		c0-0.1,0-0.2,0-0.2s0.1-0.1,0.2-0.1c0,0.1,0,0.1,0,0.2c0,0.1,0,0.1,0.1,0.2c0-0.1,0-0.2,0.1-0.2c0,0,0.1-0.1,0.1-0.2
		c-0.2,0-0.2,0-0.2,0s0.1,0,0-0.1l0.2-0.1c0-0.1,0-0.1-0.1,0c-0.1,0-0.2,0-0.2-0.1c0-0.2,0.2-0.3,0.4-0.3c0,0-0.1-0.1-0.1-0.3
		c0,0,0-0.1,0.1-0.3h0.1c0,0,0,0,0.1,0c0-0.4,0.2-0.7,0.5-0.8c0.2-0.2,0.3-0.3,0.3-0.4c0.1-0.3,0.2-0.5,0.4-0.6c0,0,0.1-0.1,0.3-0.3
		h0.1v-0.1c0.1,0,0.1-0.1,0.2-0.1c0.1-0.1,0.1-0.1,0.2-0.1l0.4-0.1v0.1c0,0,0,0.1,0.1,0.1c0-0.1,0-0.2,0.1-0.2l0.3,0.2
		c-0.1,0.1-0.1,0.2-0.1,0.3c0.1,0.1,0.2,0.2,0.2,0.4l0.1,0.2l0.1,0.1c-0.1,0.1-0.1,0.2,0,0.3c0,0.1,0,0.2,0,0.3v0.1
		c0.1,0.1,0.2,0.2,0.2,0.3c-0.1,0.1-0.1,0.2-0.1,0.2s0,0.1-0.1,0.2l-0.2,0.2c0.1,0,0.2,0,0.2,0c-0.1,0.2-0.2,0.4-0.3,0.5
		c0,0.2-0.2,0.3-0.3,0.4c0,0.2,0,0.3,0,0.4c-0.2,0.3-0.3,0.6-0.2,0.9v0.1c0,0,0,0,0,0.1c-0.1,0.1-0.2,0.3-0.2,0.4
		c-0.1,0.1-0.1,0.2-0.2,0.4c-0.1,0.1-0.2,0.2-0.2,0.3c-0.1,0.1-0.1,0.2-0.2,0.3c0,0,0,0.1-0.1,0.2l0.4,0.2v0.1
		c-0.1,0.1-0.2,0.2-0.3,0.4c-0.1,0.2-0.1,0.3-0.2,0.5c-0.1,0.3-0.3,0.5-0.5,0.7c-0.1,0.1-0.2,0.2-0.2,0.4c0,0-0.1,0-0.1,0.1
		c0,0-0.1,0-0.2,0v0.1v0.1c0,0.2,0,0.2-0.2,0.2c-0.1,0-0.2,0.1-0.2,0.2c-0.1,0.1-0.1,0.2-0.2,0.2l0.1,0.1c-0.1,0.1-0.2,0.3-0.2,0.4
		c-0.1,0.1-0.2,0.2-0.4,0.3v0.1c0,0.1-0.1,0.2-0.2,0.2c-0.1,0.1-0.1,0.2-0.2,0.3h-0.1c0-0.2-0.1-0.2-0.2,0l0.1,0.1
		c-0.2,0.2-0.3,0.3-0.3,0.5s-0.1,0.4-0.3,0.6l-0.1-0.2l0.1-0.1l-0.2,0.1l0.1,0.1c-0.1,0-0.1,0.1-0.1,0.1c0,0.1,0,0.1-0.1,0.2
		c-0.1,0-0.2,0.1-0.2,0.2v0.1c-0.1,0.1-0.2,0.2-0.1,0.2c0,0,0.1,0.1,0.1,0.2l-0.2,0.2c0,0.1,0,0.1,0,0.2c0,0,0,0.1,0,0.2
		c-0.1,0-0.1,0-0.2,0c0,0-0.1,0-0.2,0l0.1,0.2c0,0-0.1,0-0.1,0.1c0,0,0,0.1-0.1,0.1c0-0.1,0-0.1-0.1-0.2c-0.1,0.3-0.3,0.4-0.5,0.5
		c-0.1,0-0.1,0.1-0.1,0.3c0,0.1,0,0.2-0.1,0.2c-0.1,0-0.2,0.1-0.2,0.2c0,0,0,0.1-0.1,0.2c0,0.1-0.1,0.1-0.2,0.1v0.1v0.2
		c-0.1,0-0.1,0-0.1,0.1v0.1c-0.1,0.1-0.1,0.2-0.1,0.2c0,0.1,0,0.1-0.1,0.2c-0.1,0.1-0.1,0.2-0.1,0.2c-0.2,0-0.3,0.2-0.2,0.4
		c0,0.1,0,0.1-0.1,0.2c-0.1,0-0.1,0-0.1,0.1v0.1c-0.1,0.1-0.1,0.2-0.2,0.3s-0.1,0.3-0.1,0.5c-0.1,0.1-0.1,0.1-0.2,0
		c0,0-0.1-0.1-0.2-0.1c0.1,0,0.1,0.1,0.2,0.2l-0.2,0.4c0-0.1,0-0.1-0.1-0.1c0,0,0-0.1-0.1-0.1c0,0.2,0,0.3,0,0.5
		c0,0.1,0.1,0.3,0.1,0.4c-0.1,0-0.2,0.1-0.3,0.2c0-0.2-0.1-0.2-0.1-0.3c-0.1,0.1-0.1,0.1-0.1,0.2c0,0.1-0.1,0.1-0.2,0.1v0.1
		c-0.2,0.2-0.3,0.4-0.3,0.7c0,0,0,0.1-0.1,0.2c0,0.1-0.1,0.1-0.2,0.2v0.1l-0.3-0.1c-0.1,0.1-0.1,0.1-0.2,0.2c0,0.1,0.1,0.2,0.1,0.3
		c-0.1,0-0.2,0-0.2-0.1c0,0-0.1-0.1-0.2-0.1c0,0.2,0.1,0.3,0.2,0.4c0,0.1,0,0.2-0.1,0.3c-0.1-0.1-0.1-0.1-0.1-0.2c0,0,0-0.1-0.1-0.2
		l-0.1,0.1c0,0,0,0-0.1,0.1c0,0.1,0,0.1-0.1,0.2c0,0.1-0.1,0.1-0.2,0.2c-0.1,0.1-0.1,0.2,0,0.3v0.1h-0.1c-0.1,0.1-0.1,0.1-0.1,0.1
		v0.1h-0.1c0,0.2,0.1,0.3,0.1,0.4h-0.1c0,0,0,0-0.1,0c0,0-0.1,0-0.1,0.1h-0.1v-0.1c0.1-0.1,0.1-0.1-0.1-0.1c0,0.2-0.1,0.2-0.1,0.2
		c0,0.1-0.1,0.2-0.3,0.2c0,0.1,0.1,0.2,0.1,0.2s-0.1,0,0,0.1c-0.1,0-0.1-0.1-0.1-0.1s0-0.1-0.1-0.2c0,0.1,0,0.2,0,0.2
		c-0.1,0-0.1,0-0.2,0.1c0,0-0.1,0.1-0.2,0.1c-0.1,0.1-0.1,0.2-0.1,0.2c-0.1,0.1-0.2,0.2-0.2,0.2c0,0.1,0,0.3,0,0.4l-0.1,0.1
		l-0.2,0.2c0,0.1,0,0.2-0.1,0.2c-0.1,0.1-0.1,0.2-0.2,0.2v-0.1c-0.1,0.1-0.1,0.1-0.1,0.3c0,0-0.1,0-0.1,0.1c0,0,0,0-0.1,0
		c0,0.1,0,0.1-0.1,0.2c-0.3,0.1-0.4,0.2-0.3,0.4c-0.1,0-0.1,0-0.2,0c0,0-0.1,0,0,0.1l-0.2,0.1c0,0,0,0.1,0,0.2
		c-0.1,0-0.1,0.1-0.2,0.2c0,0,0.1,0,0.2,0v0.1h-0.1c-0.1,0-0.2,0-0.2,0c-0.1,0-0.2,0-0.2,0.1c-0.1,0.1-0.1,0.1-0.1,0.2
		c0,0.1-0.1,0.1-0.1,0.2h-0.1l-0.1,0.1c-0.1,0-0.1,0.1-0.1,0.1c-0.1,0-0.1,0.1-0.1,0.2c0,0.1,0,0.2-0.1,0.2c0,0,0,0.1,0,0.2
		c-0.1,0-0.2,0-0.2,0h-0.1c0,0.1-0.1,0.1-0.1,0.1c-0.1,0-0.1,0-0.2,0c0,0.1,0,0.2-0.1,0.2c0,0,0,0.1-0.1,0.2c-0.1,0-0.1,0-0.1,0.1
		c0,0,0,0-0.1,0l-0.1,0.1c-0.1,0.2-0.2,0.3-0.3,0.3c0,0-0.1,0-0.1,0.1v0.2c-0.2,0.1-0.3,0.3-0.3,0.5c0.1,0.1,0.1,0.3,0,0.4
		c-0.1,0.1-0.1,0.1-0.2,0.2c0,0-0.1,0.1-0.2,0.1v0.1c0,0,0,0,0,0.1c0,0-0.1,0.1-0.3,0c0,0.2-0.1,0.3-0.2,0.4
		c-0.1,0.1-0.2,0.3-0.2,0.5l0.3,0.1l0.1,0.3c0,0,0.1,0,0.2,0.1c0.1,0,0.1,0,0.2,0c0,0,0.1-0.1,0.1-0.2c0.2,0.1,0.3,0.2,0.3,0.4
		c0.2,0,0.3,0.1,0.4,0c0.1,0.1,0.1,0.2,0.1,0.3s0.1,0.2,0.2,0.2l0.1,0.1c0,0.1,0,0.1,0.1,0.2v-0.1v-0.1h0.1c0-0.1-0.1-0.2-0.1-0.2
		c-0.1,0-0.1,0,0-0.1c0.1,0.1,0.2,0.2,0.2,0.3v0.1c0,0,0,0,0,0.1c0.1,0,0.1,0.1,0.2,0.1c0,0.1,0.1,0.1,0.2,0.2v-0.1l0.1,0.3l0.1,0.3
		c0.1-0.1,0.1-0.2,0.1-0.2v-0.2c-0.1,0-0.1-0.1-0.1-0.1v-0.1c0,0,0,0.1,0.1,0h0.1c0,0,0.1,0.1,0.2,0.2l0.2,0.1
		c0.1,0,0.1,0.1,0.2,0.2c0.2,0,0.3,0,0.3,0.2c0.1,0.1,0.2,0.2,0.3,0.1c0,0.2,0.1,0.3,0.1,0.3s0,0,0.1,0.1c-0.1,0.1-0.1,0.2,0,0.3
		v-0.1v-0.1c0.1,0,0.1,0.1,0.2,0.1l0.1,0.1c0-0.2-0.1-0.3-0.1-0.3c-0.1-0.1-0.2-0.2-0.1-0.3c0.1-0.1,0.1-0.2,0.1-0.2
		c0.1,0,0.2,0.2,0.2,0.4l0.1-0.2c0.1,0.1,0,0.3-0.1,0.3c0.1,0,0.2,0,0.3-0.1c0.1,0.1,0.1,0.1,0.1,0.2c0,0.1,0,0.2,0,0.2h-0.1
		c0,0,0,0-0.1,0c-0.1,0-0.1,0.1-0.1,0.2c0,0.1,0,0.3,0.1,0.4c0-0.1,0-0.1,0-0.2v-0.1c0.2,0.1,0.3,0.2,0.3,0.3h-0.1
		c-0.2,0-0.2,0.1-0.1,0.2h0.1c0.1,0.1,0.2,0.1,0.3,0.2c0.1,0.1,0.2,0.1,0.3,0.2c0.1-0.1,0.2-0.1,0.3,0l-0.1,0.2c0,0,0.1,0.1,0.3,0.1
		c0.2,0,0.3,0,0.4-0.1c0,0.2,0,0.3,0,0.4v0.1c0,0,0,0.1,0.1,0.1v-0.1c0,0,0,0,0-0.1v-0.1c0.2,0.2,0.3,0.3,0.4,0.3h-0.1
		c0,0,0,0-0.1,0v0.1l0.4-0.1c0.2,0.1,0.3,0.2,0.2,0.4c0.1,0,0.2-0.1,0.2-0.2c-0.1-0.1-0.1-0.2,0.1-0.3h0.1l0.1,0.1
		c-0.1,0.1-0.1,0.2,0,0.3c0,0.1,0,0.2,0,0.3c0.3,0,0.3-0.1,0.2-0.4c0.1,0,0.2,0,0.2,0c0,0.2,0.1,0.2,0.1,0.2l0.1,0.2h0.2
		c0,0,0-0.1,0.2,0c0,0,0.1,0.1,0.1,0.2c0,0.1,0.1,0.2,0.1,0.3v0.1l0.1,0.4c0.1-0.1,0.1-0.2,0-0.2c-0.1,0,0-0.1,0-0.2
		c0.1,0,0.1,0.1,0.1,0.1s0,0.1,0.1,0.1c0-0.1,0-0.1,0.1-0.2h0.1v0.2c0,0.1-0.1,0.2-0.2,0.4c0.3-0.1,0.4,0.1,0.4,0.4
		c0,0.1,0.1,0.2,0.1,0.3c0-0.1,0.1-0.1,0.2-0.1c0.1,0,0.2,0,0.2-0.1c-0.1-0.1-0.1-0.2-0.1-0.3l0.2,0.1c-0.1,0.1-0.1,0.2,0,0.3
		s0.1,0.2,0,0.3c0.1,0.1,0.2,0.1,0.2,0.2c0,0,0-0.1,0.1-0.2c0.1,0,0.2,0.1,0.3,0.2c0,0.1,0,0.1,0,0.2c0,0,0,0.1,0,0.2l0.2-0.1
		c0,0,0.1,0.1,0.1,0.2c-0.1,0.1-0.1,0.1-0.1,0.1s0,0.1,0.1,0.1c0,0,0.1,0,0.2,0.1l-0.1-0.3c0.2,0.1,0.3,0.2,0.3,0.3
		c0,0,0.1,0,0.1,0.1h-0.1l0.1,0.4l0.1,0.1c0,0,0,0,0.1,0.1h0.2c0.2,0,0.3,0,0.3,0.1c0,0.2,0.1,0.3,0.2,0.3s0.2,0.1,0.3,0.1l0.1,0.1
		c-0.1,0-0.2,0-0.2,0v0.1c0.1,0.1,0.2,0.1,0.3,0.2c0.1,0.1,0.2,0.1,0.4,0.1h0.1c0,0.1,0.1,0.2,0.1,0.2c0.1,0,0.1,0,0.2,0.1l0.1,0.1
		c0,0.1,0,0.2,0,0.3c0.1-0.1,0.1-0.2,0-0.3c0.1,0.1,0.1,0.1,0.1,0.1h0.1c0.1,0.1,0.2,0.1,0.2,0.2c0,0.1,0.1,0.1,0.2,0.2
		c0.2,0.1,0.3,0.3,0.3,0.5s0.1,0.3,0.1,0.4c0-0.2-0.1-0.3,0-0.4v0.1c0,0,0,0,0,0.1c0,0.2,0.2,0.3,0.4,0.3c0,0,0.1,0,0.2,0.1
		c0.1,0.1,0.1,0.2,0.2,0.3c0.1,0.1,0.2,0.1,0.3,0.2c0.2,0.2,0.4,0.3,0.6,0.4c0.2,0.1,0.4,0.3,0.6,0.4c0.2,0.2,0.4,0.2,0.5,0.3
		c0.2,0.1,0.4,0.2,0.5,0.4c0.1,0.2,0.3,0.3,0.5,0.4h0.1h0.1c0,0.1,0.1,0.2,0.1,0.2c0.1,0,0.2,0.1,0.2,0.2c0.2,0.1,0.4,0.2,0.5,0.3
		c0.2,0.1,0.3,0.2,0.5,0.3v0.1h0.1c0.1,0,0.2,0.1,0.2,0.3s0.2,0.4,0.4,0.5h0.1c0.1,0,0.2,0,0.3,0.1c0.1,0,0.2,0.1,0.2,0.2
		c0,0.1,0,0.1,0.1,0.2c0.2,0,0.3,0.1,0.4,0.2c0.1,0.1,0.2,0.2,0.3,0.3c0.2,0.2,0.4,0.3,0.5,0.5c0.2,0.2,0.3,0.3,0.5,0.4
		c0.1,0.1,0.1,0.1,0.2,0.2c0.2,0.1,0.3,0.2,0.3,0.3c0.1,0.1,0.2,0.1,0.4,0.2c0.1,0.1,0.3,0.1,0.4,0.2c0.1,0.1,0.2,0.1,0.3,0.2
		c0.2,0.1,0.3,0.2,0.4,0.3s0.3,0.1,0.4,0.3c0.2,0.2,0.3,0.3,0.5,0.4c0.2,0.1,0.3,0.2,0.5,0.3c0.1,0,0.2,0,0.2,0.1c0,0,0.1,0,0.2,0
		c0.1,0,0.1,0,0.1,0c0.4,0.2,0.6,0.3,0.7,0.3c0.2,0,0.3,0.1,0.5,0.1s0.3,0.1,0.4,0.1c0.1,0.1,0.2,0.1,0.2,0.1c0.1,0,0.1,0.1,0.2,0.1
		c0.1,0,0.2,0,0.2,0.1c0,0,0.1,0,0.2-0.1h0.1c0.1,0.1,0.2,0.1,0.3,0.1s0.2,0,0.3,0c0.2,0,0.3,0,0.4,0c0.1,0,0.2,0,0.4,0s0.3,0,0.3,0
		h0.2c0.3-0.1,0.5,0,0.6,0c0.4,0.1,0.8,0.1,1.1-0.1c0.1,0,0.2-0.1,0.3-0.2c0.1,0,0.2,0,0.2,0c0.1,0,0.1,0,0.2,0
		c0.1,0.1,0.2,0.2,0.2,0.2s0.1,0,0.3,0c0.2,0,0.4,0,0.6-0.1c0.2,0,0.3-0.1,0.5,0c0.2,0,0.5,0,0.8,0c0.3,0,0.5,0,0.7-0.1
		c0.1-0.1,0.3-0.1,0.5-0.1l0.1,0.3l0.5-0.1c0.1,0,0.2-0.1,0.3-0.1c0-0.1,0.1-0.1,0.2-0.1L-607.1,737.7z M-664,718.5L-664,718.5v0.2
		h0.1L-664,718.5z M-664.2,712.8L-664.2,712.8C-664.2,712.7-664.3,712.7-664.2,712.8C-664.3,712.8-664.2,712.8-664.2,712.8z
		 M-662.8,717.1c0,0,0-0.1,0.1-0.3c-0.1,0-0.2,0-0.3,0C-662.9,716.9-662.9,716.9-662.8,717.1C-663,717-663,717.1-662.8,717.1
		L-662.8,717.1z M-654.5,716.9c0-0.2,0-0.4-0.1-0.5c0-0.2,0-0.3,0-0.5l-0.1-0.4c-0.1-0.2-0.2-0.3-0.1-0.5h-0.1c0,0-0.1,0-0.2,0h-0.1
		c-0.1-0.1-0.2-0.2-0.3-0.3s-0.2-0.2-0.3-0.2h0.1c0.2,0,0.2-0.1,0.2-0.2c-0.1-0.1-0.2-0.2-0.2-0.2c0-0.1,0-0.2,0-0.2h0.1
		c0.1,0.1,0.1,0.2,0.2,0.1c0.2,0.1,0.3,0.1,0.3,0.1c0.1-0.3-0.1-0.4-0.4-0.3c0-0.1-0.1-0.2-0.1-0.2c0-0.1,0-0.1,0-0.1s0,0,0-0.1
		c0.2,0.1,0.4,0.2,0.6,0.2v-0.1c0-0.1,0-0.2,0-0.3s0-0.3-0.1-0.4v-0.1h-0.1c0,0-0.1-0.1-0.1,0c-0.1,0-0.2-0.1-0.3-0.4l-0.2,0.1
		l-0.1,0.1c-0.1-0.1-0.2-0.1-0.2-0.2c-0.1,0-0.1-0.1,0-0.2c0-0.1,0-0.1-0.1-0.1h-0.1c-0.2,0-0.3-0.1-0.3-0.4h-0.1l-0.2,0.2
		c0,0.2,0,0.3-0.1,0.3c0-0.2,0-0.3-0.1-0.3s-0.2-0.1-0.3-0.1h-0.1c0,0.1,0,0.2,0,0.3s0.1,0.3,0,0.5h0.1h0.1l-0.1,0.1
		c0,0,0,0.1-0.1,0.2c0,0.1,0,0.1-0.1,0.2h-0.1c0,0,0-0.1,0-0.2c0.1-0.1,0.1-0.1,0-0.1c0,0,0-0.1,0-0.2c-0.1-0.1-0.1-0.1-0.2-0.2
		v-0.1c-0.1-0.1-0.1-0.3-0.1-0.4c0-0.1,0-0.3-0.1-0.4v-0.2c0,0.1,0,0.2,0,0.3c-0.1-0.1-0.2-0.1-0.2-0.1s-0.1,0-0.2,0
		c-0.1-0.1-0.2-0.1-0.2,0s0.2,0.2,0.4,0.3c0,0,0.1,0,0.1-0.1c0,0,0-0.1,0.1-0.1c0.1,0.1,0.1,0.3,0,0.4c0,0.1-0.1,0.2-0.1,0.3
		l-0.1-0.1l-0.5,0.1v0.1c0,0,0,0.1,0.1,0.1l0.4-0.1c0.1,0,0.1,0,0.1,0c0.1,0,0.1,0.1,0.1,0.2c0,0.1-0.1,0.2-0.1,0.2h-0.1
		c-0.1,0-0.2,0-0.2,0s-0.1-0.1-0.2-0.1c-0.1-0.1-0.2-0.1-0.3-0.1s-0.1,0-0.2,0c0,0-0.1,0-0.1-0.1c-0.1-0.1-0.1-0.1-0.2-0.1
		s-0.1,0-0.2-0.1c0,0-0.2,0-0.4,0s-0.3,0.1-0.4,0.1c0,0-0.1,0-0.1,0.1v0.1h-0.1h-0.1c-0.1,0-0.1,0-0.1,0.1c0,0-0.1,0-0.1,0.1
		s0,0.1,0.1,0.1c0,0,0,0,0,0.1l-0.4,0.1v0.2c-0.1-0.1-0.3,0-0.3,0.2c-0.1-0.1-0.3-0.1-0.4-0.1c0,0-0.1,0,0,0.1
		c0,0.2-0.2,0.2-0.4,0.2h-0.1c0,0-0.1,0-0.2,0c0,0.2,0,0.3,0,0.3c0,0.1-0.1,0.2-0.1,0.3c0-0.1-0.1-0.2-0.2-0.1
		c-0.1,0-0.1,0.1-0.1,0.2c0,0.1,0,0.2-0.1,0.2c-0.1-0.1-0.1-0.1-0.1-0.2c0-0.1,0.1-0.1,0.1-0.2l-0.1-0.1c0,0,0,0-0.1-0.1
		c0,0.1,0,0.2,0,0.2c0,0.1,0,0.1-0.1,0.2h-0.1h-0.1c-0.1,0.3,0,0.6,0.3,0.7l0.1-0.1c0.1,0.1,0.2,0.2,0.3,0.3l0.3-0.1
		c0-0.2-0.1-0.2-0.2-0.3h-0.1h-0.1c-0.1,0-0.2,0-0.2-0.1c-0.1,0-0.2,0-0.2,0v-0.2h0.1c0.2,0,0.3-0.1,0.3-0.1l0.1,0.1
		c0,0.1,0.1,0.1,0.2,0.1l0.1-0.1c0,0,0-0.1,0.1-0.1l0.1,0.3l0.2-0.1c0,0,0,0.1-0.1,0.1s-0.1,0.1-0.1,0.1c0.1,0.1,0.1,0.1,0.1,0.2
		c0,0.1,0,0.1,0,0.2c0,0.4-0.1,0.7-0.2,0.9c0.1,0.1,0.2,0.2,0.2,0.3c-0.1,0-0.1,0.1-0.1,0.2c0,0.1,0,0.2-0.1,0.2c0,0.1,0,0.2,0,0.4
		c0,0.1,0,0.2,0,0.4c0,0,0.1,0,0.2,0.1v0.1v0.1l0.1,0.1c0,0,0,0,0.1,0.1c0,0.1-0.1,0.2-0.1,0.3s0,0.2,0.2,0.3h0.2c0,0.1,0,0.2,0,0.2
		c-0.1,0.1-0.1,0.2,0,0.2v0.1c0,0.2,0.1,0.3,0.2,0.6h-0.1c-0.2,0-0.2,0.1,0,0.2c0,0,0.1,0,0.2,0c0,0,0.1-0.1,0.2-0.1l0.1,0.2
		c0.3,0,0.4,0.1,0.4,0.3l0.1,0.2c0,0.1,0.1,0.1,0.1,0.1v-0.1c-0.1-0.1-0.1-0.2,0.1-0.3c0.1,0,0.2,0,0.2,0.1l0.1,0.1
		c0,0,0.1,0.1,0.2,0.1l0.2-0.1c0.2,0,0.4,0,0.5,0s0.3-0.1,0.4-0.2c0.2,0,0.4-0.1,0.5-0.2c0.1-0.1,0.3-0.2,0.5-0.3
		c0.1-0.1,0.1-0.1,0.2-0.2c0,0,0.1,0,0.2-0.1c0.1-0.1,0.3-0.2,0.5-0.3s0.3-0.2,0.5-0.4c0.1-0.1,0.1-0.1,0.2-0.1s0.1-0.1,0.2-0.1
		l0.1,0.6h0.1l-0.1-0.4c0-0.1,0-0.2,0.2-0.3c0.1-0.1,0.2-0.1,0.3-0.2c0.1,0,0.2-0.1,0.3-0.2c0.1-0.1,0.2-0.2,0.3-0.3
		s0.2-0.1,0.3-0.3h0.1c0,0,0,0,0.1,0C-654.5,717.2-654.4,717.1-654.5,716.9z M-662.2,718.5C-662.2,718.5-662.1,718.4-662.2,718.5
		C-662.2,718.4-662.3,718.4-662.2,718.5L-662.2,718.5z M-663.2,713.2c0,0,0,0.1-0.1,0.2c0.1,0,0.2,0.1,0.5,0.1
		C-662.9,713.3-663,713.2-663.2,713.2z M-662.8,714.8C-662.8,714.8-662.9,714.8-662.8,714.8C-662.9,714.7-662.9,714.7-662.8,714.8
		L-662.8,714.8z M-661.8,717.9c0-0.1,0-0.1,0-0.2c0,0,0-0.1,0-0.2C-661.8,717.7-661.8,717.8-661.8,717.9z M-662.8,713.2
		c0.1,0,0.2,0,0.2,0c0.1,0,0.1-0.1,0.2-0.1c0.2,0,0.3-0.1,0.3-0.1c-0.1-0.1-0.2-0.1-0.2,0.1h-0.1C-662.5,713-662.6,713-662.8,713.2z
		 M-661.6,718.6c0,0.1,0,0.1,0.1,0.2h-0.1V718.6z M-661,720.1c-0.1,0.2-0.1,0.3,0.1,0.3L-661,720.1z M-661.8,714.1
		c-0.1,0.1-0.1,0.2-0.1,0.2s-0.1,0.1-0.2,0.1h-0.1c0-0.2-0.1-0.3,0-0.4h-0.1c0,0-0.1,0-0.1,0.1V714v-0.1c0.1,0,0.2,0,0.3,0.1
		C-662.1,714.1-662,714.1-661.8,714.1z M-663.1,710.3c0,0.2,0.1,0.3,0.1,0.3h0.1v-0.1C-662.9,710.4-662.9,710.4-663.1,710.3
		C-663,710.4-663,710.3-663.1,710.3z M-662.3,712.7c0-0.1-0.1-0.1-0.2,0C-662.4,712.8-662.3,712.8-662.3,712.7z M-661.9,713.5
		l0.1,0.2C-662,713.7-662.1,713.6-661.9,713.5L-661.9,713.5z M-662.1,712.7L-662.1,712.7l0.2,0.2l-0.1-0.4L-662.1,712.7z
		 M-660.5,720.4c0.1,0.1,0.2,0.1,0.2,0.1C-660.3,720.4-660.4,720.3-660.5,720.4z M-659.8,723.3
		C-659.7,723.3-659.7,723.3-659.8,723.3L-659.8,723.3z M-662.2,710L-662.2,710c-0.1-0.2-0.2-0.1-0.3,0
		C-662.3,710-662.2,710-662.2,710z M-661.5,713.5c-0.1,0-0.1-0.1-0.2-0.2h0.1L-661.5,713.5z M-661.8,710c-0.1,0.1-0.2,0.1-0.3,0.1
		s-0.1,0.1-0.1,0.1v0.2c0.2-0.1,0.4,0,0.4,0.1c0.3-0.1,0.6-0.2,0.9-0.2c0.1,0,0.1,0,0.2,0c0.1,0,0.1,0,0.2,0.1h0.1
		c0.1,0,0.1,0,0.1,0c0.1,0.1,0.2,0.1,0.4,0c0.1,0,0.2,0,0.3-0.1s0.1-0.2,0.1-0.3s-0.1-0.1-0.1-0.1c-0.1,0-0.2-0.1-0.3-0.2
		c0-0.1-0.1-0.1-0.1-0.1c0,0.1,0,0.2,0,0.2c-0.2-0.2-0.5-0.2-0.7-0.2s-0.4,0.1-0.5,0.1s-0.3,0-0.4,0h-0.1
		C-661.7,709.9-661.7,709.9-661.8,710L-661.8,710z M-659.6,722.2c0,0,0.1,0.1,0.2,0.2c0.2,0,0.3,0,0.4-0.1c-0.2,0-0.3-0.1-0.3-0.1
		C-659.6,722-659.6,722-659.6,722.2z M-659.3,723.5C-659.2,723.4-659.2,723.4-659.3,723.5c0.1-0.1,0.1-0.2,0.2-0.2
		c0,0.1,0.1,0.2,0.2,0.3c-0.1,0-0.2,0-0.2-0.1C-659.2,723.5-659.2,723.5-659.3,723.5z M-661.5,713L-661.5,713L-661.5,713L-661.5,713
		L-661.5,713z M-659.1,722.8c0,0,0.1-0.1,0.2-0.2c0,0-0.1-0.1-0.1-0.3c-0.1,0.1-0.1,0.2-0.1,0.2S-659.2,722.6-659.1,722.8
		L-659.1,722.8L-659.1,722.8z M-659.4,720.7c0,0.2,0,0.2,0.1,0.2c0,0,0.1,0.1,0.2,0.1s0.1,0.1,0.2,0.1c0.1-0.1,0-0.2-0.1-0.3
		c0-0.1-0.1-0.1-0.1-0.1C-659.2,720.8-659.3,720.8-659.4,720.7z M-656.4,722.1c0.1-0.1,0.2-0.2,0.1-0.3l-0.3,0.1
		c-0.2,0-0.4,0-0.5,0.1c-0.2,0.2-0.4,0.3-0.6,0.2c-0.1,0-0.2,0-0.3,0s-0.2,0-0.3,0h-0.1c-0.1,0-0.2,0-0.2,0c-0.1,0-0.1,0-0.2,0
		c0,0-0.1,0-0.2,0.1c0.2,0.2,0.3,0.3,0.2,0.5c0.1,0,0.1,0,0.2,0.1c0,0.1,0.1,0.1,0.1,0.2l0.1-0.3c-0.1-0.1-0.1-0.1-0.2-0.2h0.2
		c0.2,0,0.3,0,0.4,0c0.1,0,0.2,0,0.3,0h0.1c0.1,0,0.2,0,0.2,0c0.1,0,0.1,0,0.2,0c0.3,0,0.5-0.1,0.7-0.3
		C-656.5,722.2-656.4,722.1-656.4,722.1z M-657.8,723.3c0-0.1,0-0.2,0.1-0.2s0.1-0.1,0.1-0.1c-0.1-0.1-0.1-0.1-0.2-0.1
		s-0.1-0.1-0.2-0.1h-0.1v0.1C-658,723-657.9,723.1-657.8,723.3z M-657.3,723.6c0-0.1,0.1-0.1,0.1-0.2v-0.1h0.1
		C-657.1,723.3-657.2,723.4-657.3,723.6z M-660.4,708.4c0.1,0.1,0.2,0.1,0.2,0H-660.4z M-659.9,708.3L-659.9,708.3
		c0-0.2,0.1-0.2,0.2-0.1L-659.9,708.3z M-658.9,710.6c-0.1-0.2-0.3-0.3-0.4-0.2c0,0-0.1,0,0,0.1v0.1c0,0,0,0.1,0.1,0.1
		C-659.2,710.8-659,710.7-658.9,710.6z M-657.8,712.2c0.1,0,0.2,0,0.2,0.1v0.1v0.1v0.1c0.1,0.1,0.1,0.2,0.1,0.3
		c-0.1,0.1-0.2,0.1-0.3,0h-0.1v-0.1c0.2-0.1,0.3-0.2,0.2-0.2C-657.8,712.5-657.8,712.3-657.8,712.2z M-651.9,739.1
		c0-0.1,0-0.3,0-0.4c0-0.1-0.1-0.2-0.2-0.3L-651.9,739.1z M-657.3,713.2c0.2,0,0.3,0.1,0.3,0.2C-657,713.4-657.1,713.3-657.3,713.2
		C-657.2,713.4-657.3,713.3-657.3,713.2z M-655.4,721.5c0.1-0.1,0.1-0.2,0.1-0.2C-655.4,721.3-655.4,721.4-655.4,721.5z M-657.1,713
		c0.1,0,0.2,0,0.3,0.2l-0.1-0.1C-657,713.1-657,713-657.1,713z M-656.8,713.6C-656.9,713.7-656.9,713.7-656.8,713.6
		c-0.1-0.1-0.1-0.1-0.2-0.1C-656.9,713.4-656.8,713.5-656.8,713.6z M-651,741.3c0-0.1,0-0.2-0.1-0.2C-651,741.1-651,741.2-651,741.3
		z M-656.1,713.6c0.2,0.2,0.3,0.4,0.2,0.6v0.2l-0.1-0.1l-0.1-0.1c0,0,0.1,0,0.1-0.1s0-0.1-0.1-0.2
		C-656.1,713.9-656.2,713.8-656.1,713.6c-0.1,0.2-0.1,0.3-0.2,0.4c0,0,0-0.1-0.1-0.1l-0.1-0.1c-0.1-0.2-0.2-0.4-0.4-0.5
		c0.2-0.2,0.4-0.1,0.5,0.2C-656.2,713.6-656.2,713.6-656.1,713.6z M-656.7,713.7L-656.7,713.7L-656.7,713.7z M-656.9,712.1
		c0.1,0.1,0.1,0.1,0.1,0.2c0,0-0.1,0.1-0.2,0.2c0.1-0.1,0.1-0.2,0.1-0.2C-656.9,712.2-656.9,712.2-656.9,712.1z M-650.7,740.6
		C-650.8,740.6-650.7,740.5-650.7,740.6C-650.7,740.5-650.7,740.5-650.7,740.6L-650.7,740.6L-650.7,740.6z M-656.3,712.8
		C-656.3,712.8-656.4,712.9-656.3,712.8h-0.2c-0.1-0.1,0-0.2,0.2-0.3C-656.3,712.7-656.3,712.8-656.3,712.8z M-656.6,711.4
		L-656.6,711.4C-656.5,711.3-656.6,711.3-656.6,711.4c0-0.1,0-0.2-0.1-0.2L-656.6,711.4z M-650,738.7L-650,738.7h-0.2v0.1
		L-650,738.7L-650,738.7z M-655,711.6c0-0.2,0-0.4-0.1-0.5c-0.2,0-0.4-0.1-0.5-0.2c-0.1-0.1-0.3-0.2-0.5-0.2c0.1,0.2,0.1,0.4,0,0.6
		l0.2-0.1v0.1h0.1l0.2,0.1C-655.4,711.7-655.2,711.7-655,711.6z M-655,714.7C-655,714.7-655,714.8-655,714.7L-655,714.7L-655,714.7z
		 M-650.7,733.7c0,0,0-0.1,0-0.3c0,0-0.1,0.1-0.2,0.1C-650.8,733.7-650.8,733.7-650.7,733.7z M-649.9,737.2l-0.1-0.4
		c-0.1,0.1-0.1,0.1-0.1,0.2c0,0.1,0,0.2,0,0.2H-649.9L-649.9,737.2z M-651,731.6c0.1-0.1,0.1-0.3,0.2-0.3l-0.1-0.1
		c-0.1,0.1-0.1,0.2-0.1,0.2C-651,731.5-651,731.5-651,731.6L-651,731.6L-651,731.6z M-649.9,735.1c0,0,0,0.1,0.2,0.2
		c0,0,0-0.1,0.1-0.2C-649.7,735.1-649.8,735.1-649.9,735.1z M-651.5,727.5c0.1,0,0.1,0.1,0.2,0.2v-0.1v-0.1L-651.5,727.5
		L-651.5,727.5z M-650.7,731l0.1-0.3h-0.1C-650.8,730.8-650.8,730.9-650.7,731z M-651.6,726.6L-651.6,726.6L-651.6,726.6
		L-651.6,726.6L-651.6,726.6z M-650.6,730.3h-0.2C-650.8,730.3-650.8,730.4-650.6,730.3C-650.7,730.6-650.6,730.6-650.6,730.3
		L-650.6,730.3z M-650.2,732.6c0.1-0.1,0.2-0.1,0.3-0.1C-650,732.7-650.1,732.7-650.2,732.6z M-651.3,727c-0.1,0.1-0.1,0.2,0,0.2
		C-651.3,727.1-651.3,727.1-651.3,727z M-650.8,728.1L-650.8,728.1l-0.2,0.1C-650.9,728.3-650.8,728.2-650.8,728.1z M-650.2,732
		c0-0.1,0-0.2,0.1-0.2c0-0.1,0-0.2,0-0.3c0.1,0.1,0.1,0.3,0.2,0.5H-650.2z M-651.2,726.4c-0.1,0.1-0.1,0.2-0.1,0.3
		C-651.3,726.6-651.3,726.6-651.2,726.4C-651.2,726.5-651.2,726.4-651.2,726.4z M-650.7,729.1C-650.7,729.1-650.6,729.1-650.7,729.1
		C-650.6,729.1-650.6,729.1-650.7,729.1l0.1-0.2h-0.1V729.1C-650.8,729-650.8,729-650.7,729.1L-650.7,729.1z M-650.8,728.5
		L-650.8,728.5v-0.2h-0.1L-650.8,728.5z M-651.7,723.6L-651.7,723.6C-651.7,723.7-651.7,723.7-651.7,723.6
		C-651.7,723.7-651.7,723.7-651.7,723.6L-651.7,723.6z M-649.6,732.9c0,0,0-0.1,0-0.2h0.1l0.1,0.6c0,0-0.1,0-0.2,0
		c0-0.1,0-0.1-0.1-0.2C-649.7,733-649.7,733-649.6,732.9z M-650.9,726.6c-0.1-0.1-0.1-0.1-0.2-0.2L-650.9,726.6
		C-651,726.7-651,726.7-650.9,726.6C-651,726.6-651,726.6-650.9,726.6z M-649.5,733.6c0.1,0.1,0.1,0.1,0,0.2
		C-649.5,733.7-649.5,733.7-649.5,733.6z M-649.8,731.7c-0.1-0.1-0.1-0.3-0.1-0.4L-649.8,731.7z M-650.2,728.7
		C-650.2,728.7-650.2,728.8-650.2,728.7L-650.2,728.7L-650.2,728.7L-650.2,728.7L-650.2,728.7z M-649.7,730.8L-649.7,730.8
		c0.1,0.1,0.1,0.2,0.1,0.4c0,0.1,0,0.3,0.1,0.4v0.1v0.1h-0.1c0-0.1-0.1-0.2-0.2-0.3c-0.1-0.1-0.1-0.2,0.1-0.3c0-0.1,0-0.1-0.1-0.2
		c0,0,0-0.1-0.1-0.1L-649.7,730.8z M-650.7,725.8L-650.7,725.8L-650.7,725.8c-0.2-0.1-0.2-0.2-0.2-0.3c0,0,0.1-0.1,0.2-0.2
		c0,0,0.1,0,0.2,0s0.1,0,0.2,0.1c0,0.1,0,0.2,0,0.2s0.1,0.2,0.1,0.4c0-0.1,0-0.1,0-0.2l0.1,0.1v0.1c0,0,0,0,0,0.1v0.1
		c-0.1,0.1,0,0.2,0.1,0.3s0.1,0.2,0.1,0.2l-0.1-0.1c0-0.2-0.1-0.3-0.3-0.3c0,0-0.1,0-0.1-0.1s0-0.2,0-0.3c0,0,0.1,0,0-0.1
		s0-0.2,0.1-0.3c-0.1,0.1-0.1,0.1-0.2,0.1C-650.8,725.6-650.8,725.6-650.7,725.8z M-649.8,730.2c0-0.2,0.1-0.3,0.1-0.5s0-0.3,0-0.5
		c0.2,0,0.3-0.1,0.4-0.1c-0.1,0.1-0.2,0.3-0.3,0.4l0.1,0.3l0.1,0.2c0,0.1,0,0.2-0.1,0.2c0,0.1-0.1,0.1-0.1,0.2
		C-649.6,730.4-649.7,730.4-649.8,730.2c0.1,0,0,0.1,0,0.2l-0.1-0.4C-649.8,730.1-649.8,730.1-649.8,730.2
		C-649.8,730.1-649.8,730.1-649.8,730.2z M-650,729.8C-650,729.7-650,729.7-650,729.8c0-0.1,0-0.1,0-0.2V729.8L-650,729.8
		L-650,729.8z M-650.4,727.2c0.1-0.1,0.2-0.2,0.2-0.3c-0.1,0-0.2,0.1-0.2,0.1V727.2z M-649.8,729.1
		C-649.9,729.1-649.9,729.1-649.8,729.1L-649.8,729.1z M-650.4,725.2L-650.4,725.2C-650.4,725.1-650.4,725.1-650.4,725.2
		L-650.4,725.2L-650.4,725.2C-650.3,725.3-650.3,725.3-650.4,725.2z M-649.6,727.4L-649.6,727.4c-0.1,0.1-0.2,0.1-0.3,0.2
		C-649.7,727.6-649.6,727.5-649.6,727.4z M-649.6,728.8c0.1,0,0.1,0,0.2,0c0,0,0.1,0,0.2,0c-0.1,0.1-0.1,0.1-0.1,0.1l-0.1,0.1
		L-649.6,728.8z M-651.2,720.1c-0.1,0.1-0.1,0.2-0.1,0.3C-651.2,720.3-651.1,720.2-651.2,720.1z M-651.1,721.3
		c0.1,0,0.2-0.1,0.1-0.2h-0.1C-651,721.2-651,721.3-651.1,721.3L-651.1,721.3z M-649.7,727c-0.1-0.1-0.2-0.2-0.2-0.2
		s0.1-0.1,0.2-0.2c0,0.1,0,0.2,0,0.2C-649.6,726.9-649.6,726.9-649.7,727z M-650.9,721.5c0.1,0.1,0.2,0.2,0.3,0.2
		c-0.1-0.1-0.2-0.1-0.2-0.1C-650.8,721.5-650.8,721.5-650.9,721.5L-650.9,721.5z M-650.3,724.1L-650.3,724.1
		C-650.3,724-650.3,724-650.3,724.1L-650.3,724.1L-650.3,724.1z M-650.1,723.7c-0.1-0.1-0.1-0.1-0.1-0.2c0-0.1-0.1-0.1-0.1-0.1
		C-650.3,723.5-650.3,723.6-650.1,723.7c-0.1,0.1,0,0.2,0,0.3C-650.1,723.8-650.1,723.8-650.1,723.7z M-650.5,721L-650.5,721
		c-0.2-0.1-0.2-0.2-0.1-0.4h-0.1h-0.1v0.1l0.1,0.4c0,0.1,0.1,0.1,0.1,0.1L-650.5,721L-650.5,721z M-649.7,725.2
		c-0.1,0-0.2,0-0.2-0.1c0-0.2-0.1-0.3-0.1-0.3h0.1h0.1C-649.8,724.8-649.7,725-649.7,725.2z M-649.5,725.5c0.1,0.1,0.1,0.2,0.1,0.3
		s0,0.2,0,0.3h0.2v0.1c0,0,0,0,0,0.1c-0.1-0.1-0.2,0-0.3,0.1c0.1,0.1,0.1,0.2-0.1,0.3c-0.1-0.1-0.1-0.2,0.1-0.3
		c-0.1-0.1-0.1-0.1-0.2-0.2c0,0,0-0.1-0.1-0.1V726c0.1-0.1,0.1-0.2,0.1-0.3C-649.6,725.5-649.5,725.5-649.5,725.5z M-649.5,724.3
		L-649.5,724.3v-0.2c0.1,0.2,0.2,0.4,0.2,0.7c0,0.2,0,0.4-0.1,0.7c-0.3-0.1-0.4-0.3-0.3-0.6C-649.6,724.6-649.6,724.4-649.5,724.3
		c-0.1,0-0.2,0-0.2-0.1c0,0,0,0-0.1-0.1c0-0.2,0.1-0.2,0.1-0.2s0,0.1,0.1,0.1C-649.6,724.1-649.5,724.2-649.5,724.3z M-649.6,723.2
		c-0.2-0.1-0.3-0.1-0.4-0.2c0,0-0.1-0.1-0.1-0.2l0.4-0.1L-649.6,723.2z M-649.8,722.2C-649.8,722.2-649.9,722.1-649.8,722.2
		L-649.8,722.2z M-649.1,724.4c0.1,0,0.2,0,0.2,0.1L-649.1,724.4C-648.9,724.5-649,724.4-649.1,724.4z M-651.9,710.5
		C-651.8,710.4-651.8,710.4-651.9,710.5c0.1-0.1,0.1-0.1,0.2-0.2c0-0.2-0.1-0.2-0.2-0.1V710.5z M-653.2,701.9L-653.2,701.9
		L-653.2,701.9L-653.2,701.9L-653.2,701.9z M-653.8,697.2c0,0.1,0,0.2,0.1,0.2v-0.1C-653.8,697.3-653.8,697.3-653.8,697.2
		L-653.8,697.2z M-654.5,694C-654.5,693.9-654.4,693.9-654.5,694c0.2-0.1,0.2-0.2,0.3-0.3l-0.3,0.1l-0.1-0.2h-0.1L-654.5,694
		L-654.5,694z M-654,695L-654,695c-0.1,0.1-0.1,0.2-0.2,0.2c0.1,0.1,0.2,0.1,0.2,0.1L-654,695L-654,695z M-654.4,692.3
		c0-0.1-0.1-0.1-0.3-0.1c0.1,0.1,0.2,0.1,0.2,0.2c0,0.1,0,0.2,0,0.3c0.1,0,0.1,0,0.1,0.1c0,0,0,0,0.1,0.1c0-0.1-0.1-0.2-0.1-0.3
		S-654.4,692.4-654.4,692.3z M-648.1,720.9c0,0,0.1,0,0.2-0.1l0.1,0.2c-0.1,0-0.1,0-0.1,0C-648,721-648.1,720.9-648.1,720.9z
		 M-643.3,722.9L-643.3,722.9c0.1,0,0.2,0,0.3,0.1c0,0.1,0,0.1,0.1,0l0.1-0.1c0.2,0,0.3,0.1,0.4,0.3h0.1c0,0,0,0,0.1,0h0.1
		c0,0,0-0.1-0.1-0.2c-0.1-0.1-0.1-0.1-0.1-0.2c0,0-0.1-0.1-0.1-0.2h-0.1c-0.1,0.1-0.2,0.1-0.3,0c0-0.1,0.1-0.2,0.1-0.3
		c-0.1,0-0.1,0-0.2-0.1c0,0-0.1,0-0.2-0.1c-0.1,0.1-0.1,0.1,0.1,0.2h-0.1c-0.1,0-0.1,0-0.2,0c0,0-0.1,0-0.2,0.1
		c-0.1,0-0.1,0-0.2-0.2c0,0,0.1-0.1,0.2-0.1h0.1c0.1,0,0.1-0.1,0.1-0.1c0-0.1,0-0.1-0.1-0.1s-0.1-0.1-0.1-0.1s0-0.1-0.1-0.1v-0.2
		c0,0,0-0.1-0.1-0.1c0,0-0.1-0.1-0.1-0.2c-0.2,0-0.3,0-0.3-0.1s0-0.2-0.1-0.2c-0.2,0.1-0.3,0-0.5-0.1l-0.1,0.1l-0.2-0.1
		c-0.1,0-0.1,0-0.1-0.1v-0.1l-0.3-0.2c-0.1,0-0.2,0-0.3,0c0,0,0.1,0.1,0.1,0.2h-0.1c0-0.2-0.1-0.4-0.1-0.5s-0.2-0.3-0.3-0.5
		c0,0.1,0,0.2,0,0.4h-0.1c0-0.1,0-0.2,0-0.3c-0.2,0-0.2-0.2-0.2-0.4c-0.1,0-0.1,0-0.2,0.1c0,0-0.1,0-0.1,0.1c0.1-0.1,0-0.2-0.1-0.2
		c-0.1-0.1-0.1-0.1-0.2-0.2c-0.1,0.2-0.2,0.3-0.3,0.5c0-0.2-0.1-0.3-0.1-0.4c0-0.1,0-0.2,0-0.4l-0.3-0.1v-0.1v-0.1l0.1-0.1
		c0-0.1-0.1-0.2-0.3-0.4c-0.1-0.1-0.1-0.1-0.1,0c0,0-0.1,0.1-0.1,0c-0.1-0.1-0.1-0.1,0-0.2c0,0,0-0.1-0.1-0.1
		c-0.1-0.1-0.2-0.1-0.3-0.1c0,0.2,0,0.3,0,0.3l0.1,0.5c0.1,0.2,0.1,0.4,0.1,0.7c0,0,0,0.1,0.1,0.1c0,0,0,0.1,0.1,0.1h-0.1
		c0,0-0.1,0-0.1,0.1l0.1,0.2c0.2,0.1,0.3,0,0.3-0.2c0-0.1,0-0.2,0-0.2v-0.1c0.1-0.1,0.1-0.1,0.1-0.3c0.1,0.2,0.1,0.3,0.2,0.3
		c0.2,0,0.4,0.2,0.5,0.4c0,0,0,0.1,0.1,0.1c-0.2,0.1-0.3,0.1-0.3,0.2c0,0,0,0.1,0,0.2c0.1,0.1,0.2,0.1,0.4,0c0.2,0.1,0.3,0,0.3-0.2
		v-0.1v-0.1c0.1,0.1,0.1,0.2,0.2,0.2c0,0-0.1,0.2-0.2,0.5c0.1,0,0.2,0.1,0.2,0.1c0,0.1,0,0.2,0.1,0.2l0.5-0.1c0,0.1,0,0.1,0.1,0.1
		c0,0,0,0.1,0.1,0.1c-0.1,0.1-0.1,0.1-0.1,0s-0.1-0.1-0.2-0.1c-0.1,0.1-0.1,0.1-0.2,0.2c0,0,0,0.1,0,0.2c0.1-0.1,0.2-0.1,0.2,0
		l0.1,0.4l0.3,0.1c0.2,0,0.3,0.1,0.4,0c0.2,0,0.2,0.1,0.2,0.3v0.1c0.1,0,0.1,0.1,0.1,0.1c0,0.1,0,0.1,0.1,0.2l0.1,0.1
		c0.1-0.1,0.1-0.3,0.1-0.3c0.1,0.1,0.2,0.1,0.2,0.1s0.1,0,0.2,0c0.1,0.1,0.1,0.2,0.2,0.3c0,0.1,0.1,0.2,0.2,0.3
		c0.1-0.1,0.1-0.2,0.2-0.2v0.1c0,0,0,0,0,0.1C-643.4,722.7-643.3,722.7-643.3,722.9c0.1,0,0.2-0.1,0.3-0.2
		C-643.4,722.8-643.4,722.9-643.3,722.9z M-653.9,692.2L-653.9,692.2c-0.1,0.1-0.1,0.2-0.2,0.2c0.1,0.1,0.2,0.1,0.2,0.3
		c0,0.1,0,0.2,0,0.3c0,0,0.1,0,0-0.1l-0.1-0.2v-0.1v-0.1C-653.7,692.5-653.8,692.4-653.9,692.2z M-655,687.4c0,0.1,0,0.2,0.1,0.2
		c0,0.1,0.1,0.2,0.1,0.2h0.1c0-0.1-0.1-0.2-0.1-0.3C-654.9,687.5-654.9,687.5-655,687.4L-655,687.4z M-654.4,688.7
		c-0.1,0-0.2,0-0.2,0v0.1C-654.5,688.8-654.5,688.8-654.4,688.7z M-649.8,711.2c0-0.1-0.1-0.2-0.1-0.2L-649.8,711.2L-649.8,711.2z
		 M-648.3,718c0,0,0-0.1,0.2-0.1v0.1v0.1C-648.2,718.1-648.2,718.1-648.3,718z M-648.1,718.7c-0.1,0.1,0,0.2,0.2,0.2v0.2
		C-648.1,719-648.1,718.9-648.1,718.7z M-648.9,711.5c-0.1-0.1-0.3-0.2-0.4-0.2s-0.2-0.1-0.3-0.1h-0.1v0.1c0.1,0,0.2,0.1,0.3,0.1
		C-649.2,711.5-649.1,711.6-648.9,711.5c0,0.2,0.1,0.2,0.2,0.2h0.1c0.1,0.1,0.2,0.2,0.2,0.2s0.1,0,0.2,0.1c0.1,0,0.1-0.1,0.2-0.2
		c-0.1-0.1-0.2-0.1-0.2-0.1c-0.1,0-0.1-0.1-0.2-0.1v-0.1v-0.1c-0.1,0-0.1,0-0.2,0c0,0-0.1,0-0.1,0.1
		C-648.8,711.5-648.8,711.6-648.9,711.5z M-647.5,720.5L-647.5,720.5L-647.5,720.5h-0.2H-647.5L-647.5,720.5L-647.5,720.5z
		 M-647.6,719.9c0.1,0,0.2-0.1,0.2-0.1L-647.6,719.9C-647.5,719.8-647.6,719.8-647.6,719.9L-647.6,719.9z M-654.2,688
		c0,0.1,0.1,0.2,0.2,0.1C-654,688-654.1,687.9-654.2,688z M-646.8,721L-646.8,721c-0.1-0.2-0.2-0.3-0.1-0.4v-0.1h-0.1
		c0,0.1,0,0.1-0.1,0.1c-0.1,0-0.1,0-0.1,0.1c0.1,0.1,0.2,0.1,0.2,0.2v0.1C-646.9,721.1-646.9,721.1-646.8,721z M-646.6,720.2
		c0-0.1,0-0.2,0-0.2V720.2C-646.6,720.1-646.6,720.2-646.6,720.2C-646.4,720.3-646.5,720.3-646.6,720.2z M-646.3,721.4L-646.3,721.4
		L-646.3,721.4L-646.3,721.4L-646.3,721.4z M-648.2,711.5c0-0.1,0-0.2,0-0.2c0-0.1,0-0.1,0.1-0.2V711h-0.1l-0.1,0.2
		C-648.3,711.3-648.3,711.4-648.2,711.5z M-645.7,722.2C-645.7,722.2-645.7,722.1-645.7,722.2L-645.7,722.2L-645.7,722.2z
		 M-650.7,698.4C-650.7,698.5-650.6,698.5-650.7,698.4c0.1,0.1,0.1,0.1,0.2,0.1c0-0.1,0-0.2,0-0.2L-650.7,698.4z M-645.6,721
		c-0.1,0.2-0.2,0.2-0.3,0.1V721c0-0.1,0-0.1,0-0.1C-645.7,720.9-645.7,720.9-645.6,721z M-648.1,708.6
		C-648.1,708.7-648.1,708.7-648.1,708.6c0,0.1,0,0.2,0,0.2h-0.1c0,0-0.1,0-0.2,0c0.1,0.1,0.2,0.2,0.3,0.3l0.1-0.1l0.1-0.1
		C-647.9,708.8-648,708.7-648.1,708.6L-648.1,708.6z M-648.1,710.5c0.1,0,0.2,0,0.2,0.1v0.1C-647.9,710.6-647.9,710.6-648.1,710.5
		C-648,710.6-648.1,710.6-648.1,710.5z M-646.8,716.5C-646.8,716.5-646.7,716.6-646.8,716.5l0.1,0.1l0.1-0.1H-646.8z M-644.9,721.5
		c-0.1,0.1-0.1,0.2-0.1,0.3c0.1,0,0.1-0.1,0.2-0.2c0,0.1,0,0.2,0,0.2l-0.1,0.1c0,0.1,0,0.1,0,0.1c-0.2-0.1-0.3-0.4-0.6-0.7
		c0.1,0,0.1,0,0.2,0c0,0,0.1,0,0.2,0L-644.9,721.5C-645,721.5-645,721.5-644.9,721.5z M-648.5,707.4L-648.5,707.4L-648.5,707.4
		L-648.5,707.4L-648.5,707.4L-648.5,707.4z M-650.6,695.7l-0.3,0.2c0,0.1,0,0.1,0.1,0.2c0,0,0.1,0.1,0.1,0.2h0.1l-0.1-0.3h0.1h0.1
		c0,0,0,0,0.1,0L-650.6,695.7z M-645.9,717.6c-0.1,0-0.2-0.1-0.3-0.3C-646.2,717.5-646,717.6-645.9,717.6z M-653.7,682.3
		c-0.1,0.1,0,0.2,0.1,0.2L-653.7,682.3L-653.7,682.3z M-648.1,708.2c0.1-0.1,0.2-0.2,0.3-0.2c-0.1,0-0.2-0.1-0.3-0.1
		c0,0,0-0.1-0.1-0.1c-0.1-0.1-0.1-0.1-0.1-0.2c0,0.3,0,0.4,0.2,0.3C-648,707.9-648,708.1-648.1,708.2z M-650.7,695.3
		c0-0.2,0-0.3-0.1-0.3l-0.1,0.1C-650.9,695.1-650.8,695.2-650.7,695.3C-650.8,695.2-650.7,695.2-650.7,695.3z M-650.8,694.2
		c-0.1,0-0.1,0-0.2,0.1C-650.9,694.2-650.8,694.2-650.8,694.2z M-645.9,717.1c-0.1,0.1-0.1,0.1,0,0.2c0,0.1,0.1,0.1,0.1,0
		L-645.9,717.1L-645.9,717.1L-645.9,717.1z M-651.5,691.2L-651.5,691.2c0.1,0.2,0.1,0.2,0.2,0.3c0.1,0,0.2,0,0.3,0
		c0,0,0,0.1,0.1,0.1c0,0,0.1,0.1,0.1,0.2h0.1v0.1c0,0,0,0.1,0.1,0.1c0,0,0,0.1,0.1,0.1v0.1h-0.1h-0.1v0.1c0.1,0.1,0.1,0.1,0.2,0
		c0.1-0.1,0.1,0,0.2,0c0-0.3,0.1-0.4,0.1-0.5h-0.1v-0.1c-0.1-0.1-0.2-0.1-0.2,0c0-0.1-0.1-0.2-0.2-0.3c0-0.2-0.1-0.2-0.2-0.2
		c-0.1,0-0.2,0-0.2,0C-651.3,691.3-651.4,691.3-651.5,691.2z M-650.5,695.6C-650.5,695.5-650.5,695.5-650.5,695.6
		C-650.5,695.5-650.5,695.5-650.5,695.6L-650.5,695.6C-650.5,695.5-650.6,695.5-650.5,695.6C-650.6,695.5-650.6,695.6-650.5,695.6
		L-650.5,695.6z M-645.8,717.7L-645.8,717.7L-645.8,717.7C-645.8,717.8-645.7,717.8-645.8,717.7L-645.8,717.7L-645.8,717.7z
		 M-648.8,703.1L-648.8,703.1C-648.7,703.1-648.7,703.1-648.8,703.1L-648.8,703.1L-648.8,703.1L-648.8,703.1z M-648,706.6
		c0.1-0.1,0-0.2-0.2-0.2C-648.1,706.5-648.1,706.5-648,706.6L-648,706.6z M-646.1,715.6c0.1-0.1,0.2-0.1,0.2-0.1v0.1
		C-646,715.6-646.1,715.6-646.1,715.6z M-644.4,721.7c0,0.1,0,0.2,0,0.2c0,0.1,0,0.2-0.1,0.3c0-0.1,0-0.1,0-0.2
		C-644.5,722-644.5,721.9-644.4,721.7c-0.1,0-0.1-0.1-0.2-0.2c-0.1,0-0.1,0-0.2-0.2C-644.6,721.4-644.5,721.5-644.4,721.7z
		 M-648.4,703.1c-0.1,0.1-0.1,0.1-0.2,0.2c0,0.1,0,0.2,0.1,0.2l0.1-0.1c0.1,0.1,0.1,0.1,0.1,0.1s0,0.1,0,0.2c0.1,0.1,0.1,0.1,0.2,0
		l-0.1-0.3C-648.3,703.3-648.3,703.3-648.4,703.1L-648.4,703.1z M-647.6,706.4C-647.6,706.4-647.6,706.3-647.6,706.4
		c-0.1-0.1-0.1-0.2-0.2-0.3c0,0,0,0.1,0,0.2c-0.1-0.1-0.2-0.1-0.2-0.2l0.1,0.2L-647.6,706.4z M-651.2,690.1
		c-0.1,0.1-0.1,0.2-0.1,0.3h0.1C-651.2,690.3-651.2,690.2-651.2,690.1L-651.2,690.1z M-649.1,699.6L-649.1,699.6
		C-649.2,699.6-649.2,699.6-649.1,699.6C-649.2,699.6-649.2,699.6-649.1,699.6L-649.1,699.6z M-648,704.7L-648,704.7v0.3
		C-648,704.9-648,704.9-648,704.7C-648.1,704.8-648,704.8-648,704.7z M-644.3,721.9c-0.1-0.1-0.1-0.3-0.2-0.5l0.3-0.1
		c-0.1,0.1-0.1,0.2-0.1,0.3S-644.3,721.8-644.3,721.9L-644.3,721.9z M-644.2,722.4c0.2-0.1,0.3-0.1,0.4-0.1c0,0-0.1,0-0.1,0.1
		C-644.1,722.5-644.1,722.5-644.2,722.4z M-652.8,681.8c0.1,0.1,0.1,0.2,0.2,0.3s0.1,0.1,0,0.1c-0.1,0.1-0.1,0-0.1,0l-0.1-0.1
		c0,0,0,0-0.1-0.1C-652.9,681.9-652.8,681.8-652.8,681.8S-652.7,681.8-652.8,681.8z M-651.1,689.9c0.1,0,0.2,0,0.2,0H-651.1z
		 M-648.1,703l-0.2,0.2c0.1,0.1,0.2,0.1,0.3,0.2C-648,703.2-648.1,703.1-648.1,703z M-647.8,704.4
		C-647.9,704.4-647.9,704.4-647.8,704.4c0,0.1-0.1,0.2-0.1,0.2c0.1,0,0.2,0,0.2,0C-647.7,704.5-647.8,704.5-647.8,704.4z
		 M-650.8,690.5c0-0.2,0-0.3-0.1-0.3C-650.9,690.2-650.9,690.3-650.8,690.5z M-648.8,699.9L-648.8,699.9c0-0.2,0-0.2,0-0.2V699.9z
		 M-644.8,717.4c-0.1,0-0.1,0-0.2,0h-0.1c0,0.1,0.1,0.1,0.2,0.1C-644.8,717.5-644.8,717.5-644.8,717.4z M-643.7,723.4
		c0-0.1,0-0.2,0.1-0.2c0,0,0-0.1-0.1-0.2C-643.8,723.2-643.8,723.3-643.7,723.4z M-651,689.5C-650.8,689.5-650.9,689.4-651,689.5
		L-651,689.5z M-649.9,690.4h0.4c0,0-0.1,0-0.1,0.1h-0.1c0,0.1,0,0.1-0.1,0.1c0,0,0,0-0.1,0.1l-0.1,0.1v0.1c0,0.1,0,0.2,0,0.2
		s-0.1,0.1-0.1,0.2c0,0-0.1-0.1-0.1-0.3h-0.1c-0.2,0-0.3-0.1-0.3-0.2h0.1c0,0,0,0,0.1,0c0.1,0.1,0.2,0.1,0.2,0.1s0.1,0,0.2,0v-0.1
		h-0.1c0,0,0,0-0.1,0s-0.1,0-0.2-0.2v-0.2c-0.1-0.1-0.1-0.1-0.1-0.2c0,0,0.1-0.1,0.2-0.1h0.1c0,0,0,0,0.1,0l0.1,0.1
		C-650,690.3-650,690.4-649.9,690.4z M-647.9,702.2c-0.1,0-0.2,0-0.3,0.2C-648.1,702.4-648,702.3-647.9,702.2z M-647.2,706.3
		c-0.1-0.1-0.1-0.2,0-0.3c0,0,0,0.1,0.1,0.2C-647.1,706.2-647.1,706.3-647.2,706.3z M-645.1,715.9c0.1,0,0.2,0,0.2,0.1
		s0,0.1,0.1,0.2c-0.1,0.1-0.1,0.1-0.2,0.1c-0.1-0.1-0.1-0.1-0.1-0.2C-645.1,716-645.1,716-645.1,715.9z M-651.6,685.1
		c0,0.1,0,0.2-0.1,0.2s-0.1,0.1-0.1,0.2c0,0,0.1-0.1,0.2-0.1c0.1,0.1,0,0.1,0,0.1c-0.1,0-0.1,0.1-0.2,0.2c0.1,0.1,0.1,0.1,0.2,0
		c0.1-0.1,0.1,0,0.2,0c0-0.1,0-0.1-0.1-0.1c0,0,0,0,0-0.1h0.1c0,0,0,0,0.1,0C-651.3,685.3-651.4,685.2-651.6,685.1L-651.6,685.1z
		 M-652,682.3c-0.2,0-0.3,0-0.3,0.2c0.1-0.1,0.1-0.1,0.2-0.1L-652,682.3z M-648,701.8c-0.1,0.1-0.1,0.2-0.1,0.3c0.1,0,0.1,0,0.2,0
		h0.1l0.1-0.1c0,0,0.1-0.1,0-0.1h-0.2C-647.9,701.9-647.9,701.9-648,701.8C-648,701.8-648,701.7-648,701.8z M-644.9,716.7
		L-644.9,716.7l0.2,0.1v-0.1H-644.9z M-643.3,723.7c0.1-0.1,0-0.3,0-0.4h-0.1h-0.1c0,0,0,0-0.1,0
		C-643.5,723.4-643.4,723.5-643.3,723.7z M-647.2,703.4c0,0.1,0,0.1-0.1,0.2l-0.1,0.1l0.1,0.1c0,0,0,0,0.1,0.1c-0.1,0-0.1,0.1,0,0.2
		v0.1c0,0,0,0.1,0,0.2c-0.1-0.1-0.2-0.2-0.1-0.3h-0.1c0,0-0.1,0-0.1-0.1c0,0,0.1,0,0-0.1c0,0,0.1-0.1,0.1-0.3
		S-647.4,703.3-647.2,703.4z M-644.4,715.7L-644.4,715.7v0.2c-0.1,0-0.2,0-0.3-0.1c-0.1,0-0.2,0-0.3-0.1c0.1-0.1,0.1-0.2,0.2-0.1
		C-644.7,715.7-644.6,715.7-644.4,715.7z M-649.5,694.2c-0.1,0.1-0.1,0.2,0,0.2s0.1,0.1,0.2,0.1l0.1-0.1l0.1-0.1
		C-649.3,694.2-649.4,694.2-649.5,694.2z M-651.1,687.2L-651.1,687.2L-651.1,687.2L-651.1,687.2z M-650.5,689.8
		c0.1,0,0.2,0.1,0.2,0.3c-0.1,0-0.1-0.1-0.1-0.1C-650.4,689.9-650.4,689.9-650.5,689.8z M-649.1,696.3c0-0.1,0-0.2,0-0.3
		s0-0.2-0.1-0.3v-0.1c0,0.1,0,0.1,0.1,0.2l0.1,0.3c0.1,0.1,0.1,0.3,0,0.4C-649,696.3-649,696.3-649.1,696.3z M-643,723.9
		C-643.1,723.8-643.1,723.8-643,723.9c0-0.1-0.1-0.1-0.2-0.2C-643.2,723.7-643.1,723.8-643,723.9
		C-643.1,723.8-643.1,723.8-643,723.9z M-649.9,691.7L-649.9,691.7L-649.9,691.7L-649.9,691.7L-649.9,691.7L-649.9,691.7z
		 M-649.3,694.9L-649.3,694.9L-649.3,694.9L-649.3,694.9L-649.3,694.9L-649.3,694.9z M-644.2,716.4c-0.1,0.1-0.1,0.2-0.2,0.1
		c-0.1-0.1-0.1-0.1-0.2,0c0-0.1,0-0.1-0.1-0.2c0,0,0-0.1-0.1-0.2C-644.5,716.3-644.4,716.4-644.2,716.4z M-650,691.4
		c0,0,0-0.1,0-0.2C-649.9,691.3-649.9,691.4-650,691.4z M-648,700.6L-648,700.6L-648,700.6l0.2,0.1h0.1l-0.2-0.2
		c0-0.1-0.1-0.1-0.2-0.1L-648,700.6z M-643,723.6C-643,723.6-643,723.5-643,723.6L-643,723.6L-643,723.6z M-647.8,701.2
		c0.1-0.1,0.1-0.2,0.1-0.3C-647.8,701-647.8,701.1-647.8,701.2z M-650.4,688.8h0.2v0.1L-650.4,688.8L-650.4,688.8z M-649.8,691.9
		c0-0.1,0.1-0.1,0.2-0.2v-0.1c0.1-0.1,0.1-0.2,0-0.3c0-0.1,0-0.2,0-0.3v-0.1c0,0,0.1,0,0-0.1c0.1,0.1,0.1,0.2,0.2,0.3
		c0.1,0.1,0.1,0.2,0,0.2v0.1c0,0,0,0.1,0.1,0.1c-0.1,0.1-0.2,0.2-0.3,0.2S-649.7,691.8-649.8,691.9
		C-649.6,691.9-649.7,691.9-649.8,691.9z M-648.1,698.4c0,0.1-0.1,0.2-0.2,0.3c0.2,0.1,0.3,0.1,0.3,0.1c0,0.2,0.2,0.3,0.4,0.5
		l0.1-0.1c0,0,0,0,0.1-0.1l-0.1-0.1c0,0,0-0.1-0.1-0.1c-0.1-0.1-0.1-0.2-0.1-0.3c-0.1,0-0.2-0.1-0.2-0.1
		C-648,698.4-648.1,698.4-648.1,698.4z M-651.2,684.9c-0.1,0.1-0.1,0.2-0.1,0.2s0.1,0.1,0.3,0.2C-651,685-651,684.9-651.2,684.9z
		 M-646.7,703c-0.1-0.1-0.2-0.1-0.3-0.1l-0.1,0.1c0,0,0,0.1,0.1,0.1v0.1v0.1h-0.1c0,0,0-0.1-0.1-0.1c-0.1-0.1-0.2-0.2-0.1-0.3h0.1
		v-0.1l-0.2-0.2c0-0.1,0-0.2,0.1-0.2c0.1,0.1,0.1,0.2,0.1,0.3c0.1,0,0.2,0,0.2,0c0.1,0,0.1,0,0.2-0.1c0,0.1,0,0.2,0,0.2
		S-646.7,702.9-646.7,703z M-649.4,692.7c0,0.1,0,0.2,0,0.2S-649.4,692.8-649.4,692.7z M-647.6,701.4c0,0.1,0.1,0.1,0.3,0.1h-0.1
		C-647.5,701.4-647.6,701.4-647.6,701.4z M-647.9,699.3c0,0,0-0.1-0.1-0.2C-648.1,699.2-648.1,699.3-647.9,699.3L-647.9,699.3z
		 M-649.5,689.8c0.1,0,0.2,0,0.2,0c0.1,0,0.1,0,0.2,0.1c-0.1,0-0.1,0-0.2,0.1c0,0-0.1,0.1-0.2,0.2c-0.1,0-0.2,0-0.2,0
		c-0.1-0.1-0.2-0.1-0.2-0.1c-0.1,0-0.1,0-0.2-0.1c0-0.1,0-0.1,0-0.2C-649.9,689.9-649.8,689.9-649.5,689.8L-649.5,689.8z
		 M-648.4,697.2c0,0-0.1,0-0.1-0.2l0.2-0.1C-648.3,697.1-648.3,697.1-648.4,697.2z M-644.6,713.4c0.1,0.1,0,0.2-0.2,0.4
		c0-0.1,0-0.1-0.1-0.2c0,0,0-0.1-0.1-0.1h0.2h0.1C-644.7,713.4-644.7,713.4-644.6,713.4z M-642.6,724L-642.6,724
		c-0.1,0-0.1-0.1-0.1-0.2v0.1L-642.6,724C-642.7,724.1-642.7,724.1-642.6,724L-642.6,724L-642.6,724z M-650,688.8
		c-0.1-0.1-0.1-0.1-0.2-0.1s-0.1-0.1,0-0.3c0.1,0.1,0.1,0.1,0.3,0.1C-649.9,688.6-649.9,688.6-650,688.8
		C-650,688.7-650,688.8-650,688.8z M-647.7,699.7c0.1,0,0.1-0.1,0.1-0.3c-0.1,0.1-0.2,0.2-0.3,0.2
		C-647.8,699.8-647.8,699.8-647.7,699.7z M-648.9,694.2C-649,694.1-649,694.2-648.9,694.2c-0.2,0.2-0.1,0.2,0,0.2c0,0,0.1,0,0.1-0.1
		c0,0,0.1,0,0.1-0.1C-648.8,694.2-648.8,694.2-648.9,694.2z M-651.1,683.9c0,0.1,0,0.1,0,0.2h0.1L-651.1,683.9L-651.1,683.9
		L-651.1,683.9z M-649.1,690.6C-649.2,690.6-649.2,690.6-649.1,690.6c-0.1,0-0.2,0.1-0.2,0.1l-0.1,0.1l-0.2,0.1
		c0-0.1,0.1-0.1,0.1-0.1c0.1,0,0,0,0-0.1l0.1-0.2c0.1-0.1,0.2-0.1,0.2-0.1S-649.1,690.5-649.1,690.6L-649.1,690.6z M-642.5,724.5
		c0.1-0.1,0.2-0.2,0-0.2C-642.5,724.3-642.5,724.4-642.5,724.5C-642.5,724.4-642.5,724.4-642.5,724.5z M-648.2,695.3
		c-0.1,0.1-0.2,0.3-0.3,0.6c0.1,0,0.2,0,0.2,0s0.1,0,0.2,0v-0.1c-0.1-0.1-0.1-0.2-0.1-0.3C-648.1,695.4-648.1,695.4-648.2,695.3
		L-648.2,695.3z M-646.8,701.9L-646.8,701.9c0,0.1,0,0.1-0.1,0.1l-0.3,0.1l-0.1-0.2c0.1,0,0.1,0,0.2,0h0.1
		C-646.8,701.8-646.8,701.8-646.8,701.9z M-642.4,723.4l-0.1,0.2C-642.4,723.6-642.4,723.5-642.4,723.4z M-649,691.7
		c-0.1,0.1-0.1,0.1-0.2,0H-649L-649,691.7z M-650.6,685.4c0-0.1,0-0.2,0.2-0.2C-650.5,685.3-650.5,685.4-650.6,685.4z M-649.5,688.5
		c-0.1,0-0.1,0.1-0.2,0.1c0,0.1-0.1,0-0.2,0c0.1-0.1,0.1-0.1,0.2-0.1C-649.7,688.5-649.6,688.5-649.5,688.5L-649.5,688.5z
		 M-649.7,689.3c0.1,0.1,0.1,0.1,0,0.2V689.3z M-649.1,692.1c0.1,0,0.1,0.1,0.2,0.2C-648.9,692.3-649,692.2-649.1,692.1z
		 M-643.7,716.5C-643.8,716.4-643.8,716.4-643.7,716.5c-0.1-0.1-0.1-0.1-0.2-0.2C-643.8,716.3-643.7,716.3-643.7,716.5z
		 M-641.9,724.7c0.1-0.1,0.1-0.1,0.1-0.2c0-0.1-0.1-0.1-0.1-0.1C-642.1,724.6-642.1,724.7-641.9,724.7z M-642,724.4L-642,724.4h0.2
		l0.1-0.1c0,0,0.1,0,0.1-0.1c0,0,0-0.1-0.1-0.1c0-0.1-0.1-0.1-0.1-0.1s-0.1-0.1-0.1-0.3l0.3-0.1v-0.2c-0.1,0-0.2,0-0.2-0.1
		s0-0.1-0.1-0.2V723c0,0,0,0,0-0.1h-0.1c0,0.1-0.1,0.2-0.3,0.3l0.1,0.3c0.1,0,0.1,0,0.1-0.1c0.1-0.1,0.2-0.2,0.3-0.2
		c0,0.1,0,0.2,0,0.4c0,0.1,0,0.2-0.2,0.3C-642.1,724.1-642.1,724.2-642,724.4z M-650.7,683C-650.7,682.9-650.7,682.9-650.7,683
		c-0.2-0.1-0.2-0.1-0.3-0.2c0.3,0,0.5,0,0.6,0.1c0.1,0,0.1,0.1,0.1,0.2c-0.1,0.1-0.1,0.1-0.2,0.1
		C-650.5,683.1-650.5,683.1-650.7,683L-650.7,683z M-647.8,697.3C-647.8,697.4-647.7,697.4-647.8,697.3c0.2,0.1,0.2,0.1,0.2,0.1
		c0,0.1,0.1,0.1,0.2,0.1c-0.1,0.1-0.2,0.2-0.2,0.1c-0.1,0-0.1,0-0.2-0.1C-647.8,697.6-647.8,697.5-647.8,697.3z M-650.1,684.7
		c-0.1,0.1-0.1,0.1-0.1,0.2c0,0.1,0,0.2-0.1,0.3c0,0,0-0.1-0.1-0.1c0,0-0.1,0-0.1-0.1c-0.1-0.1,0-0.3,0.1-0.3
		C-650.2,684.7-650.2,684.7-650.1,684.7C-650.2,684.8-650.1,684.8-650.1,684.7z M-647.9,695.8c-0.1,0.1-0.2,0.2-0.1,0.3
		C-647.9,696.1-647.9,696-647.9,695.8z M-647,700.5c0.2,0.2,0.1,0.3,0,0.4c0.1-0.1,0.1-0.2,0-0.2C-647,700.6-647,700.6-647,700.5z
		 M-642,723.8C-642,723.8-642,723.7-642,723.8C-642,723.7-641.9,723.7-642,723.8L-642,723.8C-642,723.7-642,723.7-642,723.8
		C-642.1,723.7-642.1,723.8-642,723.8L-642,723.8z M-649.7,687.8C-649.6,687.8-649.6,687.8-649.7,687.8c0.1-0.1,0.1-0.1,0.2-0.2
		l0.1,0.2C-649.5,688-649.6,687.9-649.7,687.8z M-648.8,691.1L-648.8,691.1l-0.2,0.1C-648.9,691.1-648.9,691.1-648.8,691.1z
		 M-643.4,717L-643.4,717l0.1,0.1L-643.4,717L-643.4,717z M-649.2,689.8c-0.1-0.2-0.1-0.3-0.1-0.3l0.1-0.1c0.1,0.1,0.1,0.1,0,0.1
		C-649.2,689.6-649.2,689.6-649.2,689.8C-649.2,689.7-649.2,689.7-649.2,689.8z M-640.5,725c-0.1-0.1-0.2-0.1-0.3-0.1v-0.1
		c-0.1-0.1-0.2-0.1-0.2-0.1c-0.1,0-0.1,0-0.2,0s-0.2,0-0.2,0.1s-0.1,0.1-0.2,0c0-0.1,0-0.1,0-0.2c-0.1,0.1-0.1,0.3,0,0.4
		c0.2,0,0.4,0,0.5-0.2h0.1v0.1c0,0,0,0.1,0.1,0.1c-0.1-0.1-0.1-0.1-0.1-0.2v0.1c0,0,0,0,0,0.1L-640.5,725L-640.5,725z M-648.8,690.5
		c0,0.1-0.1,0.1-0.2,0H-648.8z M-647.7,696.3C-647.7,696.4-647.7,696.4-647.7,696.3C-647.6,696.3-647.6,696.2-647.7,696.3
		L-647.7,696.3z M-647.6,696.1C-647.4,696-647.4,696-647.6,696.1L-647.6,696.1z M-648,694.1c0.1,0,0.2,0.1,0.2,0.2
		C-648,694.2-648,694.1-648,694.1z M-646.8,697c0,0.2,0,0.4,0,0.5c0,0.2-0.1,0.3-0.1,0.4h-0.1l-0.1-0.1l-0.1-0.1l0.1-0.1
		c0.1,0,0.1-0.1,0-0.2c-0.1,0-0.1,0-0.2,0c0,0-0.1,0-0.2,0c0-0.1,0-0.1,0.1-0.2v-0.1h0.1c0.1,0.1,0.2,0.1,0.2,0
		C-646.9,697-646.9,697-646.8,697z M-648,692c-0.1,0.1-0.2,0.1-0.3,0.1c-0.1-0.1-0.1-0.2,0-0.3l0.1,0.1
		C-648.2,691.9-648.1,692-648,692C-648.1,691.9-648.1,691.9-648,692z M-642.8,717.6c-0.2-0.1-0.2-0.2-0.1-0.4L-642.8,717.6z
		 M-649.8,685.2c0,0,0.1,0.1,0.1,0.2h-0.1V685.2z M-649.4,687C-649.4,687-649.4,686.9-649.4,687C-649.4,686.9-649.4,686.9-649.4,687
		c0.1,0,0.2,0,0.2,0.1v0.1L-649.4,687L-649.4,687z M-648.6,690.3c0,0-0.1-0.1,0-0.2V690.3z M-649,688.9c0-0.1,0-0.2,0.1-0.2
		c0,0,0.1,0,0.2,0.1L-649,688.9z M-649.4,686.3c-0.1-0.1-0.2-0.2-0.1-0.3L-649.4,686.3z M-646.9,698c0,0,0.1,0,0.1,0.1
		c0,0-0.1,0,0,0.1h-0.1V698z M-648.6,689.8c-0.1-0.2-0.1-0.3,0.1-0.4c0,0.1,0,0.1,0.1,0.1c0,0,0,0.1,0.1,0
		C-648.5,689.6-648.6,689.7-648.6,689.8z M-648,692.4c0.1,0.1,0.2,0.2,0.2,0.3h-0.1c-0.1,0-0.1,0-0.1,0
		C-648.1,692.6-648.1,692.5-648,692.4z M-648.4,690.5c0-0.1,0-0.2,0-0.3s0.1-0.2,0.3-0.3c0,0.2,0,0.5-0.2,0.7
		C-648.4,690.6-648.4,690.6-648.4,690.5z M-648.3,691.1c0,0,0-0.1,0-0.2C-648.2,691-648.2,691-648.3,691.1l0.1,0.2h-0.1V691.1z
		 M-647.5,694.4C-647.4,694.5-647.4,694.5-647.5,694.4c0,0.1,0,0.1,0,0.2V694.4C-647.6,694.4-647.6,694.3-647.5,694.4L-647.5,694.4z
		 M-641.1,724.6c0,0,0.1-0.1,0.2-0.1c-0.1-0.1-0.2-0.1-0.3-0.1L-641.1,724.6z M-640.9,725.5C-640.9,725.4-640.9,725.4-640.9,725.5
		C-640.9,725.4-640.9,725.4-640.9,725.5z M-648.7,689.1c0.1,0.1,0.1,0.1,0.1,0.2v0.1C-648.7,689.3-648.7,689.2-648.7,689.1z
		 M-647.5,694.7L-647.5,694.7L-647.5,694.7L-647.5,694.7C-647.4,694.8-647.4,694.8-647.5,694.7z M-647.5,688.2
		c0.2,0.1,0.3,0.2,0.1,0.4c-0.1,0.1-0.1,0.2,0,0.2c0,0.1,0.1,0.1,0.1,0.2c0.1,0.1,0.1,0.2,0.1,0.3s0,0.2,0,0.2s0,0-0.1,0.2v0.1
		c0,0,0,0,0,0.1c-0.2,0.2-0.2,0.3,0,0.5c0.1,0.1,0.2,0.1,0.2,0.2c0,0,0.1,0,0.1,0.1v0.1c0,0.1,0,0.2,0.1,0.3c0,0.1,0,0.2,0,0.3
		c-0.1,0-0.2,0.1-0.2,0.1v0.1c0,0,0,0.1,0.1,0c0.1,0.1,0.2,0.2,0.2,0.4l0.1,0.5c-0.1,0.1-0.1,0.1-0.2,0.2c0,0-0.1,0.1-0.1,0.2v0.2
		c0.1,0.1,0.2,0.1,0.1,0.2c0,0.1-0.1,0.2-0.1,0.3s0,0.2-0.1,0.3c-0.1,0-0.1,0-0.2,0.1c0-0.2-0.1-0.2-0.2-0.3c0,0,0.1-0.1,0.2-0.1
		c0.2,0,0.2-0.1,0.1-0.2c0-0.2-0.1-0.2-0.1-0.3c0-0.2-0.1-0.2-0.2,0l-0.1,0.1c0-0.1-0.1-0.2-0.1-0.3h-0.1h-0.1h0.2
		c-0.1-0.1-0.1-0.3-0.2-0.5c0.1,0,0.2-0.1,0.2-0.1c-0.1-0.1-0.1-0.2-0.1-0.4h-0.1c-0.2-0.1-0.2-0.2-0.1-0.3c0,0,0.1-0.1,0.3-0.2
		c0.1,0.1,0.2,0.1,0.3,0.1c-0.1-0.1-0.1-0.3,0-0.5c-0.1-0.1-0.2-0.1-0.3-0.1c0-0.1,0-0.1,0.1-0.2c0.1,0,0.1-0.1,0-0.2l0.1-0.1
		c-0.1,0.1-0.1,0-0.1-0.1s-0.1-0.1-0.1,0c0-0.1,0.1-0.2,0.2-0.2s0.2-0.1,0.2-0.2c0,0-0.1-0.1-0.2-0.1s-0.1-0.1-0.2-0.1
		c0.1-0.1,0.1-0.1,0-0.2c0-0.1,0-0.2,0.1-0.2c-0.1-0.1-0.1-0.1-0.1-0.2c0,0,0-0.1,0.1-0.2c0-0.2,0-0.3-0.1-0.5l-0.1-0.2
		c-0.1,0.1-0.2,0.1-0.4,0.1c0-0.1,0-0.2,0.1-0.3h-0.1v0.1c-0.1,0-0.1,0-0.2,0c0,0-0.1,0-0.2,0c0-0.1,0-0.2,0.1-0.2s0.1,0,0.2-0.1
		c0-0.1,0-0.1,0-0.2v-0.1c0,0,0,0.1,0.1,0.1h0.1v-0.1c0-0.2-0.1-0.2-0.1-0.3l0.4-0.1c0.2,0.2,0.2,0.4,0.3,0.6
		C-647.5,687.9-647.5,688.1-647.5,688.2L-647.5,688.2z M-647.6,693.1c0,0.1,0.1,0.1,0.1,0.2c0.1,0.1,0.1,0.1,0,0.2
		C-647.6,693.3-647.7,693.2-647.6,693.1z M-647.4,694.2c0-0.1,0-0.2,0.1-0.2c0,0,0-0.1,0-0.2h0.1l0.1,0.4H-647.4L-647.4,694.2z
		 M-648.9,686.5L-648.9,686.5L-648.9,686.5L-648.9,686.5L-648.9,686.5L-648.9,686.5z M-647.1,694.9c-0.1,0-0.1,0-0.2-0.2
		c0,0,0.1,0,0.1-0.1C-647,694.8-647,694.8-647.1,694.9z M-642.1,717.6c-0.1,0-0.1,0-0.2-0.2L-642.1,717.6z M-647.4,692.5
		c0.1,0.1,0.2,0.1,0.2,0.1s0.1,0,0.1-0.1C-647.2,692.5-647.3,692.5-647.4,692.5z M-640.3,726c0.1-0.1,0.1-0.2-0.1-0.2L-640.3,726z
		 M-647.8,689c-0.1,0-0.2,0-0.2-0.1C-648,689-647.9,689-647.8,689z M-648.2,685.4c-0.1,0.1-0.1,0.2-0.1,0.3
		C-648.1,685.6-648.1,685.5-648.2,685.4z M-640.8,719.5c-0.1-0.1-0.1-0.1-0.1-0.1v-0.1C-640.8,719.4-640.8,719.5-640.8,719.5
		c0.2,0.2,0.2,0.3,0.3,0.4c-0.1-0.1-0.2-0.1-0.2-0.1C-640.7,719.6-640.7,719.6-640.8,719.5z M-647.1,687.9c0.2-0.2,0.2-0.4,0-0.7
		v-0.1c-0.2-0.1-0.2-0.2-0.1-0.4h-0.1h-0.1c0.1,0,0.2-0.1,0.1-0.2v-0.1c0.1,0.1,0.2,0.3,0.3,0.4c0.1,0.1,0.2,0.3,0.2,0.4
		c0,0.2,0.1,0.4,0,0.5c0,0.1,0,0.3,0,0.5s0,0.4,0,0.5c-0.1,0.1-0.1,0.3-0.2,0.5v-0.1c0-0.1,0-0.2,0-0.3s-0.1-0.1-0.2-0.1
		c0-0.1,0-0.2,0-0.3C-647.1,688.1-647.1,688-647.1,687.9z M-643.1,706.8L-643.1,706.8L-643.1,706.8L-643.1,706.8L-643.1,706.8z
		 M-638.6,727.6L-638.6,727.6L-638.6,727.6z M-640.2,720.1C-640.2,720.1-640.2,720-640.2,720.1c0-0.2,0-0.2,0.2-0.1
		c0.1,0.1,0.1,0.1,0,0.2C-640,720.1-640.1,720.1-640.2,720.1L-640.2,720.1z M-642.1,710.9L-642.1,710.9L-642.1,710.9L-642.1,710.9z
		 M-639.8,720.2c0-0.2,0-0.2,0-0.2V720.2L-639.8,720.2z M-639,720.6c0.1,0,0.2,0.1,0.3,0.2c0,0.1,0,0.1-0.1,0.1h-0.1
		c-0.1,0-0.1,0-0.1,0.1c0,0-0.1,0-0.1,0.1c-0.1-0.1-0.1-0.1-0.1-0.2c0-0.1,0-0.1-0.1-0.2v-0.1h0.1c0.1,0,0.1,0.1,0.2,0.2h0.1
		c0,0,0,0.1,0.1,0.1L-639,720.6z M-637.4,727.4c0-0.2,0-0.3-0.1-0.3C-637.5,727.3-637.5,727.3-637.4,727.4z M-637.1,728.4
		C-637.2,728.5-637.3,728.5-637.1,728.4L-637.1,728.4z M-636.7,728.2c-0.2,0.1-0.2,0.3-0.1,0.6c-0.2-0.2-0.3-0.4-0.3-0.9
		c0.1,0.1,0.2,0.1,0.2,0.2C-636.8,728.2-636.7,728.2-636.7,728.2z M-640.9,709L-640.9,709L-640.9,709L-640.9,709z M-636.2,729.1
		c0,0.1,0,0.2-0.1,0.2l-0.1-0.1v-0.1c-0.2-0.1-0.2-0.2-0.1-0.4v-0.1v-0.1C-636.4,728.7-636.3,728.9-636.2,729.1z M-635.8,729.4
		c-0.2,0.1-0.4,0.1-0.5,0v-0.1h-0.1h0.1h0.1C-636.1,729.3-635.9,729.3-635.8,729.4z M-636.3,728.4c0-0.1,0.1-0.2,0.3-0.1
		L-636.3,728.4L-636.3,728.4z M-635.8,728.9C-635.8,729-635.8,729-635.8,728.9c0.1,0.1,0.1,0.1,0.1,0.2
		C-635.8,729.1-635.8,729-635.8,728.9z M-635.5,729.9L-635.5,729.9L-635.5,729.9L-635.5,729.9z M-635.6,729.1c0.2,0,0.3,0.2,0.3,0.4
		c-0.1-0.1-0.1-0.1-0.2-0.1c-0.1,0-0.1-0.1-0.2-0.1h0.1C-635.6,729.2-635.6,729.2-635.6,729.1L-635.6,729.1z M-635.6,728.1
		c0,0.1,0,0.1,0.1,0.2c0,0,0.1,0.1,0.1,0.2l-0.1,0.1l-0.1,0.1c-0.1-0.1-0.1-0.2-0.2-0.3c0-0.1,0-0.2,0-0.3H-635.6L-635.6,728.1z
		 M-636.4,722.9C-636.4,723-636.4,723-636.4,722.9c-0.1,0.1-0.1,0.1-0.2,0.2c0-0.2,0-0.3,0-0.3L-636.4,722.9z M-636.6,723.2
		c0.1,0,0.1,0.1,0,0.2V723.2L-636.6,723.2z M-639.6,707.8c0,0,0.1,0.1,0.1,0.2c-0.1,0-0.2,0-0.3-0.1
		C-639.7,707.8-639.6,707.8-639.6,707.8z M-633.5,731.2c0.2,0,0.3-0.1,0.3-0.2c-0.1-0.1-0.1-0.1-0.1-0.2c0-0.1-0.1-0.1-0.2-0.2
		c0,0,0,0.1,0,0.2c-0.1-0.1-0.1-0.2-0.1-0.2s0-0.1,0.1-0.2c-0.1-0.1-0.2-0.1-0.5-0.1c0,0.2,0,0.3,0,0.4l-0.2-0.1
		c-0.1,0-0.2,0.1-0.2,0.1c0,0.2,0.1,0.3,0.3,0.3c0.1,0.1,0.1,0.1,0.2,0.2c0,0,0,0.1,0.1,0.1c0.2,0.1,0.3,0.1,0.4,0.1L-633.5,731.2z
		 M-634.3,730.3L-634.3,730.3C-634.2,730.3-634.2,730.3-634.3,730.3L-634.3,730.3z M-634.2,730.2L-634.2,730.2L-634.2,730.2z
		 M-633.2,731.3C-633.2,731.4-633.1,731.4-633.2,731.3C-633.1,731.3-633.1,731.3-633.2,731.3C-633.1,731.3-633.1,731.2-633.2,731.3z
		 M-638.4,706.2L-638.4,706.2L-638.4,706.2l-0.1-0.2L-638.4,706.2L-638.4,706.2z M-634.3,725.2
		C-634.3,725.3-634.3,725.3-634.3,725.2l-0.1,0.1L-634.3,725.2L-634.3,725.2C-634.4,725.2-634.3,725.2-634.3,725.2z M-632.1,731.5
		c0-0.2,0-0.3-0.1-0.3c-0.2,0.1-0.4,0-0.5,0c-0.1,0.1-0.2,0.2-0.2,0.3c0.1-0.1,0.2-0.1,0.2,0c0,0,0,0.1,0.1,0.2h0.1c0,0,0.1,0,0.2,0
		l-0.2,0.2h-0.2c0,0.1,0.1,0.1,0.1,0.1c0.1,0.1,0.2,0.1,0.3,0.1l-0.1-0.6C-632.3,731.4-632.2,731.5-632.1,731.5z M-638.3,705.2
		L-638.3,705.2L-638.3,705.2C-638.3,705.1-638.3,705.1-638.3,705.2z M-636.8,704.2V704h0.1C-636.8,704.1-636.8,704.1-636.8,704.2z
		 M-630.5,731L-630.5,731C-630.5,730.9-630.6,730.9-630.5,731C-630.6,730.9-630.6,731-630.5,731c0,0.2,0,0.3,0.1,0.4
		c0,0.1,0.1,0.3,0.1,0.4L-630.5,731z M-629.9,734.1L-629.9,734.1L-629.9,734.1l0.1,0.1L-629.9,734.1z M-630.3,732.1
		c0,0.1,0,0.1,0,0.2V732.1z M-637,697.9c0,0.2,0,0.2-0.1,0.3c-0.1,0-0.1,0.1-0.1,0.3l0.2-0.2c0.1,0,0.1,0,0.2,0c0,0,0.1,0,0.2,0
		c-0.1-0.1-0.2-0.1-0.2-0.2C-636.8,697.9-636.8,697.9-637,697.9z M-636.6,697.7c0,0,0,0.1,0,0.2c0.1,0,0.1,0,0.2,0
		c0-0.1,0-0.1,0-0.2C-636.4,697.7-636.4,697.6-636.6,697.7l0.1-0.2h-0.1V697.7L-636.6,697.7z M-635.2,701.4c0.1,0,0.1,0.1,0.1,0.2
		L-635.2,701.4z M-635,701.4c0-0.2,0.1-0.4,0.3-0.4l-0.1,0.1c-0.1,0-0.1,0-0.1,0.1C-634.9,701.3-634.9,701.4-635,701.4z
		 M-627.6,735.5L-627.6,735.5v-0.2C-627.6,735.4-627.6,735.4-627.6,735.5C-627.7,735.4-627.7,735.4-627.6,735.5L-627.6,735.5z
		 M-635.8,696.5C-635.8,696.5-635.7,696.4-635.8,696.5l-0.1-0.1L-635.8,696.5z M-627.8,733.2C-627.8,733.1-627.8,733.1-627.8,733.2
		c0-0.1,0-0.1,0-0.2h-0.1L-627.8,733.2L-627.8,733.2C-627.9,733.2-627.9,733.2-627.8,733.2z M-634.4,700.5c0,0.1,0,0.2-0.1,0.4
		c0,0-0.1,0.1-0.2,0.2c0,0,0-0.1,0-0.3C-634.7,700.7-634.6,700.6-634.4,700.5z M-635.6,696.2L-635.6,696.2c0-0.2,0-0.3-0.1-0.3
		L-635.6,696.2z M-634,699.8L-634,699.8c0,0.1,0,0.1,0,0.2c0,0,0-0.1-0.1,0L-634,699.8z M-633.9,699.7c-0.1-0.1,0-0.2,0.1-0.3
		c0.1,0.1,0.1,0.1,0,0.1C-633.9,699.6-633.9,699.7-633.9,699.7z M-634.8,694.7c0,0.1,0.1,0.1,0.1,0.1l0.1-0.1H-634.8z M-634.8,694.3
		C-634.8,694.4-634.8,694.4-634.8,694.3C-634.8,694.4-634.8,694.4-634.8,694.3L-634.8,694.3L-634.8,694.3z M-624.8,737.1
		c0.1,0,0.1,0.1,0.2,0.1h0.1C-624.6,737.1-624.6,737.1-624.8,737.1c0.1-0.1,0-0.2-0.1-0.3c0,0.1,0,0.1,0,0.1
		C-624.8,737-624.8,737-624.8,737.1L-624.8,737.1z M-633.7,692.8c0.1,0.1,0.1,0.2,0.1,0.2L-633.7,692.8z M-623.8,737.7
		c0.1-0.1,0-0.2-0.1-0.2c-0.1,0-0.2-0.1-0.2-0.1v0.1L-623.8,737.7z M-633.5,693.2c0.1-0.1,0.1-0.1,0.2,0s0.1,0,0.1-0.1l-0.2-0.1
		h-0.1V693.2z M-632,694.9L-632,694.9C-632,695-632,695-632,694.9C-632,695-632,695-632,694.9z M-631.5,690.4L-631.5,690.4
		L-631.5,690.4L-631.5,690.4C-631.4,690.4-631.5,690.4-631.5,690.4z M-630.9,689.5c-0.1,0.1-0.1,0.2-0.1,0.3s0,0.2,0.1,0.2
		C-630.8,689.9-630.8,689.7-630.9,689.5z M-630.8,688.4c-0.1,0-0.2,0.1-0.2,0.2h-0.1v-0.1c0,0,0-0.1,0.1-0.2L-630.8,688.4z
		 M-630.5,689.6C-630.6,689.6-630.6,689.6-630.5,689.6c-0.1,0.1-0.1,0.2-0.2,0.2c0,0,0.1,0.1,0.1,0.2h0.1
		C-630.5,689.8-630.5,689.7-630.5,689.6z M-629.7,693.3C-629.7,693.4-629.7,693.4-629.7,693.3c0,0.1,0,0.1,0.1,0.2h0.1
		C-629.5,693.5-629.5,693.4-629.7,693.3C-629.7,693.4-629.7,693.4-629.7,693.3z M-629.6,693.2C-629.6,693.3-629.6,693.3-629.6,693.2
		L-629.6,693.2L-629.6,693.2z M-630,690.6l0.2-0.2C-630,690.5-630.1,690.5-630,690.6z M-629.5,693v0.2c0.1,0,0.1,0,0.1-0.1
		c0,0,0,0,0.1,0C-629.3,693-629.4,693-629.5,693z M-630,687.4l0.1-0.2h-0.1h-0.1L-630,687.4z M-627.6,688c-0.2,0-0.3,0-0.3,0.1
		C-627.8,688.1-627.7,688-627.6,688z M-627.8,687.2L-627.8,687.2c0.1-0.1,0.1-0.2,0-0.2V687.2z M-627.8,685.5L-627.8,685.5
		L-627.8,685.5l-0.1-0.1L-627.8,685.5z M-615.3,738L-615.3,738l-0.1,0.2h0.1V738z M-613.5,738.7L-613.5,738.7l-0.1-0.2h-0.1v0.2
		L-613.5,738.7L-613.5,738.7z M-613.2,738.6c0,0,0-0.1,0.1-0.2C-613.2,738.5-613.2,738.5-613.2,738.6L-613.2,738.6L-613.2,738.6z
		 M-609.5,739.7c-0.1-0.1-0.1-0.1-0.2-0.2c-0.1-0.1-0.1-0.1-0.2-0.2l-0.1,0.1l-0.1-0.1c-0.1,0-0.2,0-0.2,0.1s0,0.1,0,0.2
		c0,0,0,0,0,0.1s0.1,0.1,0.1,0.2h0.1c0.1-0.1,0.1-0.1,0.1-0.1s0-0.1,0.1-0.1c0,0,0.1,0,0-0.1c0,0,0,0,0.1,0l0.1,0.1H-609.5z
		 M-609.8,739.9L-609.8,739.9L-609.8,739.9L-609.8,739.9C-609.9,739.8-609.9,739.8-609.8,739.9z M-609.3,738.9c0,0-0.1,0-0.1,0.1
		h-0.1c0.1,0.1,0.1,0.1,0.1,0.1h0.1C-609.3,739.1-609.2,739.1-609.3,738.9C-609.2,739-609.2,738.9-609.3,738.9
		C-609.2,738.9-609.3,738.9-609.3,738.9z M-609,739.2c-0.1,0.1-0.1,0.1-0.1,0.3l-0.2,0.1c0.1,0.1,0.2,0.1,0.2,0.1c0.1,0,0.1,0,0.2,0
		L-609,739.2z M-609,738.8c0.1,0,0.1-0.1,0.2-0.2C-608.9,738.6-609,738.7-609,738.8z M-608.2,738.8L-608.2,738.8
		c-0.2-0.1-0.2-0.2-0.2-0.2s0.1-0.1,0.1-0.2c-0.1-0.1-0.2-0.1-0.3,0v0.2c0,0.1,0,0.2,0.1,0.2S-608.4,738.9-608.2,738.8L-608.2,738.8
		z M-607.7,738.3c0.1-0.1,0.1-0.1,0-0.2c-0.1,0-0.1,0-0.2-0.1h-0.1l0.1,0.3H-607.7C-607.8,738.4-607.8,738.4-607.7,738.3z
		 M-607.5,738.1C-607.5,738.1-607.5,738.1-607.5,738.1L-607.5,738.1z"/>
	<path d="M-643.8,751.1c0-0.1,0.1-0.2,0.3-0.2C-643.7,751-643.8,751.1-643.8,751.1z M-643.7,750.3l0.1-0.1c0,0,0-0.1,0.1-0.1
		c0,0,0.1-0.1,0.3-0.3C-643.4,750.2-643.5,750.3-643.7,750.3z M-643.1,749.6c-0.1,0.1-0.1,0.1-0.2,0
		C-643.2,749.7-643.2,749.7-643.1,749.6C-643.2,749.6-643.2,749.6-643.1,749.6L-643.1,749.6z M-643,749.4c0,0,0.1,0.1,0,0.2h-0.1
		C-643.2,749.5-643.1,749.4-643,749.4z M-641.5,748c0,0.2-0.1,0.3-0.3,0.4c-0.1,0.1-0.1,0.2-0.3,0.3c-0.1,0.1-0.2,0.2-0.4,0.4
		c-0.1,0.1-0.1,0.1-0.2,0.2l-0.1,0.1c0,0-0.1,0.1-0.1,0h-0.1c0.1-0.1,0.1-0.1,0.2-0.2v-0.1c0-0.1,0-0.1,0.1-0.2
		c0.1,0,0.1-0.1,0.1-0.2c0,0,0.1,0,0.1-0.1c0.2-0.1,0.4-0.3,0.6-0.7L-641.5,748z M-641.5,747.9
		C-641.5,747.8-641.5,747.8-641.5,747.9c0.1-0.1,0.1-0.1,0.2-0.2v0.1C-641.3,747.9-641.4,747.9-641.5,747.9z M-614.3,687.2
		c0,0.2,0,0.3,0,0.4c0,0.2,0,0.3,0.1,0.5l0.2,0.7c0,0.2,0.1,0.3,0.1,0.5s0,0.3,0,0.6c0,0-0.1,0.1,0,0.1c0,0.2,0,0.3,0,0.5
		c0,0.1,0,0.3-0.1,0.5c0,0.1,0,0.2,0,0.4s0,0.3,0,0.4c0,0.3,0,0.7-0.1,1.1c0,0.1,0,0.1,0,0.2c0,0.1,0,0.1,0,0.2c0,0.1,0,0.2,0,0.3
		s0,0.2,0,0.3s0,0.2,0,0.3s0,0.2,0,0.2c0,0.1,0,0.2-0.1,0.3c-0.1,0.3-0.2,0.7-0.3,1s-0.3,0.6-0.4,0.9c-0.1,0.1-0.1,0.3-0.1,0.4
		c0,0.1,0,0.3-0.1,0.5v0.1c-0.1,0.1-0.1,0.3-0.2,0.4c0,0.1,0,0.3-0.1,0.5l-0.1,0.1c-0.1,0.1-0.1,0.2-0.1,0.3s0,0.2-0.1,0.3l-0.2,0.4
		c0,0.1,0,0.2-0.1,0.4c0,0.1-0.1,0.2-0.1,0.3c-0.1,0.3-0.2,0.4-0.3,0.5c-0.2,0.3-0.4,0.6-0.6,0.7c-0.1,0.1-0.2,0.1-0.3,0.2
		c-0.1,0.1-0.2,0.2-0.4,0.3c-0.2,0.2-0.5,0.4-0.9,0.6c-0.1,0.1-0.1,0.1-0.2,0.2c-0.2,0.2-0.4,0.3-0.7,0.2c-0.1-0.1-0.2-0.1-0.2-0.1
		c-0.1,0-0.1,0-0.2,0c-0.1,0-0.2,0-0.4-0.1c-0.1-0.1-0.2-0.1-0.3-0.1c-0.2,0-0.3-0.1-0.3-0.1c-0.1,0-0.1-0.1-0.2-0.1
		c0-0.1-0.1-0.1-0.1-0.2c-0.1-0.1-0.1-0.1-0.2-0.2c-0.1-0.1-0.1-0.1-0.2-0.2c0,0-0.1,0-0.1-0.2c-0.1-0.4-0.1-0.6-0.1-0.8
		c0-0.1,0-0.2,0-0.3s0.1-0.2,0.1-0.3c0-0.2,0.1-0.3,0.2-0.5c0.1-0.1,0.1-0.3,0.2-0.5c0.1-0.3,0.2-0.4,0.2-0.5
		c0.1-0.5,0.2-0.9,0.4-1.4c0.1-0.3,0.2-0.7,0.2-1c0.1-0.3,0.1-0.6,0.2-1c0.1-0.1,0.1-0.2,0.1-0.3s0-0.2,0-0.3
		c0.1-0.2,0.1-0.4,0.2-0.6c0-0.2,0.1-0.4,0.1-0.6c0.1-0.1,0.1-0.2,0.1-0.3s0-0.2,0.1-0.3c0-0.2,0.1-0.3,0.1-0.4c0-0.1,0-0.3,0.1-0.4
		c0-0.2,0.1-0.4,0.1-0.6s0.1-0.4,0.1-0.6s0.1-0.3,0.1-0.5s0.1-0.3,0.1-0.5c0.1-0.4,0.1-0.7,0.1-1.1c0-0.1,0-0.1,0-0.2
		c0-0.6-0.1-1.2-0.3-1.7l-0.2-0.2v-0.1c-0.1-0.2-0.2-0.3-0.4-0.5c-0.1-0.1-0.3-0.3-0.4-0.5c-0.1-0.1-0.2-0.3-0.5-0.6
		c-0.1-0.1-0.1-0.1-0.2,0s-0.1,0.1-0.2,0.1c0,0-0.1,0-0.1,0.1c-0.1,0-0.1,0-0.1,0.1l-0.1,0.1c0,0-0.1,0-0.1,0.1
		c-0.1,0.1-0.2,0.3-0.3,0.6c-0.1,0.1-0.3,0.2-0.4,0.3c-0.1,0.1-0.1,0.2-0.2,0.3c-0.1,0.1-0.2,0.2-0.2,0.3c-0.1,0.1-0.2,0.3-0.2,0.4
		c-0.1,0.1-0.2,0.3-0.3,0.4c-0.1,0-0.1,0-0.2,0.1l-0.3,0.4c-0.1,0.1-0.1,0.1-0.1,0.1l-0.1,0.1c-0.1,0.1-0.1,0.1-0.1,0.1
		s0,0.1-0.1,0.2c-0.1,0.1-0.1,0.2-0.2,0.3c-0.1,0.1-0.2,0.2-0.3,0.3l-0.1,0.1l-0.1,0.1v0.1c-0.1,0-0.2,0.1-0.2,0.2
		c0,0.1-0.1,0.2-0.2,0.2c-0.1,0.1-0.2,0.2-0.2,0.3c-0.1,0.1-0.1,0.2-0.2,0.2c0,0.1-0.1,0.2-0.2,0.2c-0.1,0.1-0.2,0.2-0.3,0.3
		s-0.2,0.2-0.2,0.3s-0.1,0.1-0.1,0.2c0,0-0.1,0.1-0.1,0.2c-0.1,0.1-0.2,0.2-0.2,0.3c-0.1,0.1-0.1,0.2-0.2,0.3
		c-0.1,0.1-0.2,0.2-0.2,0.3c-0.1,0.2-0.2,0.4-0.3,0.5s-0.1,0.2-0.2,0.3c-0.1,0.1-0.1,0.1-0.2,0.2c-0.1,0.1-0.1,0.1-0.1,0.1
		s0,0.1-0.1,0.1c-0.1,0.1-0.1,0.3-0.2,0.4c-0.1,0.1-0.2,0.3-0.2,0.4c0,0-0.1,0.2-0.2,0.4c0,0.2-0.1,0.4-0.3,0.5
		c-0.1,0.1-0.1,0.2-0.1,0.2s-0.1,0.1-0.1,0.2c0,0.1-0.1,0.3-0.2,0.5v0.1c0,0,0,0,0,0.1c0,0.3-0.1,0.7-0.4,1.2
		c-0.1,0.1-0.2,0.3-0.2,0.6s0.1,0.5,0.2,0.8l0.1,0.5c0,0.2,0,0.5,0.1,0.8c0.1,0.1,0.1,0.2,0.1,0.3s0,0.2,0,0.3l0.1,0.4
		c0.1,0.1,0.1,0.1,0.1,0.2c0,0.1,0,0.1,0.1,0.2c0,0,0.1,0.2,0.2,0.4c0,0.1,0.1,0.2,0.1,0.3c0.1,0.1,0.1,0.2,0.2,0.2
		c0.1,0.1,0.2,0.1,0.2,0.3c0.1,0.1,0.1,0.2,0.3,0.3c0.1,0.1,0.2,0.1,0.2,0.1l0.1,0.1c0.1,0.1,0.1,0.1,0.1,0.2c0,0,0.1,0.1,0.1,0.2
		c0.1,0.1,0.2,0.2,0.5,0.4c0.2,0.1,0.3,0.2,0.4,0.3c0.1,0.1,0.2,0.2,0.3,0.3c0.1,0.1,0.2,0.2,0.2,0.3c0.1,0.1,0.1,0.1,0.2,0.2
		c0.1,0.1,0.1,0.1,0.2,0.2c0,0,0.1,0.1,0.2,0.1c0.3,0.3,0.5,0.4,0.7,0.5c0.2,0.1,0.4,0.3,0.7,0.6c0.1,0.1,0.2,0.3,0.4,0.3
		c0.1,0.1,0.3,0.2,0.4,0.2c0.1,0.1,0.3,0.2,0.4,0.2v0.1c0,0,0,0,0,0.1c0.2,0.1,0.4,0.2,0.6,0.3c0.2,0.1,0.4,0.2,0.6,0.4
		c0.1,0.1,0.3,0.2,0.6,0.3c0.2,0.1,0.4,0.3,0.7,0.5l0.8,0.4c0.1,0.1,0.2,0.1,0.3,0.2c0.1,0.1,0.2,0.2,0.3,0.2c0.1,0,0.2,0.1,0.3,0.2
		l0.2,0.1c0.2,0.1,0.3,0.2,0.5,0.4c0.2,0.1,0.4,0.2,0.6,0.3l0.2,0.1l0.2,0.1c0.1,0,0.1,0,0.2,0.1c0,0,0.1,0,0.2,0.1s0.3,0.2,0.5,0.3
		s0.3,0.2,0.5,0.4c0.1,0.1,0.2,0.2,0.3,0.4c0.2,0.2,0.3,0.3,0.5,0.4c0.1,0.1,0.3,0.2,0.4,0.4c0.1,0.1,0.2,0.2,0.3,0.2
		c0.1,0.1,0.2,0.2,0.2,0.3c0.2,0.2,0.3,0.4,0.4,0.6s0.2,0.4,0.4,0.6c0.2,0.2,0.4,0.4,0.6,0.6s0.3,0.4,0.5,0.6
		c0.1,0.1,0.2,0.3,0.2,0.4c0,0.1,0.1,0.3,0.3,0.5c0,0.1,0,0.1,0.1,0.2c0,0,0.1,0.1,0.1,0.2c0.1,0.2,0.2,0.4,0.2,0.6
		c0.1,0.2,0.1,0.4,0.1,0.6c0,0.1,0,0.2,0.1,0.3c0,0.1,0.1,0.2,0.1,0.3l0.1,0.5c0.1,0.3,0.1,0.6,0.1,0.7v0.1v1.1c0,0.3,0,0.6,0,0.7
		c0,0.1-0.1,0.3-0.2,0.5c-0.1,0.3-0.2,0.6-0.4,0.9c-0.2,0.2-0.3,0.4-0.4,0.6c-0.1,0.3-0.4,0.5-0.7,0.8c-0.1,0.1-0.1,0.1-0.2,0.1
		c-0.1,0-0.2,0.1-0.2,0.1c-0.1,0.1-0.3,0.3-0.5,0.5c-0.1,0.1-0.2,0.2-0.3,0.2s-0.2,0-0.3,0.1s-0.1,0.2-0.2,0.2
		c-0.1,0-0.2,0.1-0.3,0.1c-0.2,0.1-0.4,0.1-0.6,0.1s-0.4,0.1-0.5,0.2h-0.2c-0.1,0-0.2,0-0.3,0.1c-0.1,0-0.2,0.1-0.3,0.1h-0.1
		c0,0,0,0-0.1,0c-0.1,0.1-0.2,0.2-0.3,0.3c-0.1,0.1-0.1,0.2-0.2,0.3l-0.1,0.1c-0.1,0-0.2,0-0.3,0.1s-0.2,0.1-0.2,0.2
		c-0.1,0.1-0.2,0.2-0.4,0.2s-0.3,0.1-0.5,0.2c-0.1,0-0.2,0.1-0.2,0.1l-0.5,0.3c-0.1,0.1-0.2,0.2-0.3,0.3s-0.1,0.1-0.2,0.1
		c-0.2,0.1-0.4,0.2-0.5,0.4s-0.2,0.3-0.4,0.3c-0.1,0-0.1,0-0.2,0.1c-0.1,0.1-0.2,0.2-0.3,0.3c-0.1,0.1-0.2,0.1-0.3,0.2v0.1l-0.3,0.3
		c-0.1,0.1-0.2,0.2-0.3,0.2s-0.2,0.1-0.3,0.2c0,0-0.2,0.1-0.4,0.3l-0.3,0.3c-0.2,0.2-0.3,0.3-0.3,0.3h-0.1c0,0,0,0-0.1,0
		c-0.1,0.1-0.3,0.2-0.4,0.3c-0.1,0.1-0.2,0.2-0.3,0.3s-0.3,0.2-0.5,0.4v-0.1c0,0,0,0-0.1,0v0.1c0.1,0.1,0,0.2-0.1,0.2
		c-0.1,0.2-0.2,0.3-0.3,0.4c0-0.2,0-0.3,0.1-0.3s0.1-0.1,0.1-0.2c-0.1,0-0.2,0.1-0.3,0.2c0,0.2-0.1,0.2-0.3,0.2
		c0-0.1,0.1-0.2,0.1-0.2c0.1-0.1,0.1-0.1,0.1-0.2c-0.1,0-0.2,0-0.2,0c-0.1,0-0.2,0-0.2,0.1c-0.1,0.1-0.1,0.2-0.2,0.3
		c-0.1,0.1-0.2,0.2-0.3,0.3l-0.1,0.2c0,0-0.1,0-0.1,0.1c0,0-0.1,0.1-0.2,0.1v-0.1c0,0,0,0,0-0.1c-0.1,0.1-0.3,0.2-0.4,0.3
		s-0.2,0.2-0.4,0.3v0.1c0,0,0,0,0,0.1l-0.1,0.2c0,0-0.1,0.1-0.2,0.2c-0.1,0.1-0.1,0.1-0.2,0.2c0,0-0.1,0.1-0.2,0.2l-0.2,0.2
		l-0.5,0.5l-0.1,0.1c0,0-0.1,0.1-0.1,0c0,0-0.1,0,0,0.1c0,0-0.1,0-0.2,0.2c0,0-0.1,0.1,0,0.1v0.1c-0.1,0-0.2,0-0.2,0.1
		c-0.1,0.1-0.1,0.1-0.2,0.1s-0.2,0.1-0.2,0.1c-0.1,0.1-0.1,0.1-0.1,0.1s0,0.1-0.1,0.1c0,0.1,0,0.2-0.1,0.2v0.1v0.1
		c-0.2,0-0.3,0-0.4,0.1l-0.3,0.3v0.1c0,0-0.1,0.1-0.2,0.1v0.2c-0.1,0.1-0.1,0.2-0.2,0.2s-0.1,0.1-0.2,0.2c-0.1,0.1-0.2,0.3-0.3,0.4
		c-0.1,0.1-0.2,0.2-0.4,0.4c-0.1,0.1-0.2,0.2-0.3,0.3c-0.1,0.1-0.2,0.2-0.3,0.3v0.1h-0.1c0-0.2,0.1-0.3,0.1-0.3l0.1-0.1l0.1-0.1
		l0.1-0.1h-0.1c0-0.1,0-0.1-0.1-0.2c0.1-0.1,0.1-0.2,0.1-0.2c0.1-0.1,0.1-0.1,0.2-0.2c0,0,0.1-0.1,0.2-0.2v-0.1c0,0,0,0,0-0.1
		c0.1,0,0.2-0.1,0.2-0.1v-0.1c-0.1,0.1-0.3,0.2-0.4,0.3c0,0,0.1,0,0.2,0c-0.1,0.1-0.1,0.2-0.1,0.2s-0.1,0.1-0.2,0.2v-0.2
		c0.1,0,0.1,0,0.2-0.1h-0.1c0,0.1-0.1,0.2-0.1,0.2c-0.1,0.1-0.1,0.1-0.1,0.2l-0.1,0.1c-0.1,0-0.1,0-0.1,0s0,0.1-0.1,0.1v-0.1
		c0.1-0.2,0-0.3-0.1-0.5c-0.1,0.1-0.1,0.1-0.2,0.2c0,0-0.1,0.1-0.2,0.2c0,0,0.1,0,0.2,0v0.1h-0.1c-0.2,0-0.3,0.1-0.3,0.3
		c-0.1,0.1-0.1,0.1-0.2,0.2c-0.1,0.1-0.2,0.1-0.3,0.1c0,0.1,0,0.2,0,0.2c0.3-0.2,0.6-0.4,0.8-0.7c0.1,0.1,0.1,0.1,0.1,0.2l-0.1,0.1
		c0.1,0,0.1,0.1,0.2,0.2h-0.1v-0.1h-0.1c0,0,0,0-0.1,0v0.1v0.1c0,0-0.1,0.1-0.2,0h-0.1l-0.3,0.3v-0.2c0,0-0.1,0.1-0.3,0.2h-0.1
		c0,0-0.1,0-0.2,0.1l0.1,0.1h-0.1c-0.1,0-0.1,0.1-0.1,0.1l-0.1,0.1c0,0,0,0-0.1,0.1l-0.1,0.2h-0.1c0,0,0,0-0.1,0h-0.1
		c-0.1,0.1-0.1,0.1-0.1,0.2c0,0.1-0.1,0.1-0.1,0.1l-0.1,0.1l-0.1,0.1h-0.1c0,0,0,0-0.1,0l0.1,0.1l-0.1,0.1c-0.2,0-0.3,0.1-0.4,0.3
		v0.1h0.1h0.1c0,0.1-0.1,0.1-0.1,0.1l-0.1,0.1h-0.1V743c0,0,0,0,0-0.1h-0.1c-0.1,0-0.1,0-0.2,0.1c-0.1,0.2-0.2,0.3-0.3,0.4
		c0,0-0.1,0.1-0.3,0.2c0.1-0.1,0.1-0.3,0.1-0.4c0-0.1,0-0.2,0.1-0.3l-0.1-0.1h-0.1c-0.3,0.3-0.4,0.5-0.5,0.7
		c-0.2,0.2-0.3,0.4-0.3,0.6c0,0-0.1,0.1,0,0.1c-0.2,0-0.3,0.1-0.3,0.2v0.1c-0.1,0.1-0.1,0.2-0.1,0.2s-0.1,0.1-0.1,0.2
		c0,0,0-0.1-0.1-0.1c-0.1,0.1-0.1,0.1-0.2,0.2c-0.1,0.1-0.1,0.1-0.2,0.2c-0.2,0.3-0.5,0.6-0.8,1v0.1v0.1c-0.2,0.2-0.3,0.3-0.3,0.3
		c-0.1,0.1-0.1,0.2-0.3,0.2c-0.1,0-0.2,0.1-0.3,0.2c0,0-0.1,0.1-0.2,0.1v-0.1l0.1-0.1c0,0,0.1,0,0.1-0.1l0.3-0.3l0.1-0.2
		c0.1-0.1,0.2-0.2,0.3-0.4c0.1-0.1,0.2-0.3,0.3-0.4c0.1-0.1,0.2-0.2,0.3-0.3s0.2-0.2,0.3-0.3l0.1-0.2c0.2-0.2,0.3-0.3,0.3-0.5
		c0.2-0.2,0.3-0.3,0.3-0.3c0.1-0.2,0.3-0.3,0.4-0.4c0.1-0.1,0.2-0.3,0.3-0.4c0.1-0.2,0.2-0.3,0.3-0.5s0.2-0.3,0.3-0.5
		c0.1-0.1,0.1-0.2,0.2-0.2c0.1-0.1,0.1-0.1,0.2-0.2c0.1,0,0.2-0.1,0.3-0.2l0.1-0.1c0.1-0.1,0.1-0.1,0.2-0.2c0.3-0.4,0.6-0.9,0.9-1.4
		c0.2-0.2,0.3-0.4,0.5-0.6c0.1-0.1,0.1-0.2,0.3-0.3c0.1-0.1,0.2-0.2,0.2-0.3c0.1-0.1,0.2-0.2,0.3-0.3c0.1-0.1,0.1-0.2,0.2-0.3
		s0.1-0.2,0.2-0.2c0.2-0.2,0.3-0.4,0.4-0.5c0.1-0.2,0.2-0.3,0.4-0.5s0.4-0.4,0.6-0.6c0.2-0.2,0.4-0.4,0.6-0.7
		c0.3-0.3,0.4-0.5,0.5-0.7l0.1-0.1c0.2-0.1,0.3-0.2,0.4-0.3s0.2-0.2,0.2-0.3c0.2-0.3,0.4-0.5,0.6-0.7c0.2-0.2,0.4-0.4,0.6-0.6
		s0.3-0.5,0.5-0.7s0.4-0.4,0.6-0.7c0.1-0.1,0.2-0.2,0.3-0.3s0.2-0.2,0.3-0.3c0.2-0.2,0.4-0.3,0.6-0.5s0.4-0.4,0.6-0.6
		c0.1-0.1,0.2-0.2,0.3-0.3s0.2-0.2,0.4-0.3c0.1-0.1,0.2-0.3,0.5-0.5c0.1-0.1,0.1-0.1,0.2-0.2c0,0,0.1-0.1,0.2-0.2l0.1-0.2
		c0.1,0,0.2-0.1,0.4-0.3s0.4-0.4,0.6-0.6c0.2-0.2,0.4-0.4,0.7-0.5c0.2-0.2,0.4-0.4,0.6-0.6s0.4-0.4,0.6-0.6c0.2-0.1,0.3-0.3,0.4-0.4
		c0.1-0.1,0.2-0.3,0.4-0.5c0.2-0.2,0.3-0.3,0.5-0.5c0.2-0.2,0.3-0.3,0.5-0.5c0.4-0.4,0.8-0.8,1.1-1.3c0.2-0.3,0.2-0.7,0.1-1.1
		c0-0.2,0-0.4-0.1-0.6c0-0.2-0.1-0.4-0.1-0.6c-0.1-0.5-0.3-1-0.5-1.5c-0.1-0.1-0.1-0.1-0.1-0.2c0-0.1-0.1-0.2-0.1-0.2
		c0-0.2-0.1-0.4-0.2-0.5c-0.1-0.2-0.2-0.3-0.4-0.5c-0.1-0.1-0.1-0.1-0.1-0.1l-0.1-0.1c-0.1-0.2-0.2-0.3-0.4-0.4
		c-0.1-0.1-0.2-0.2-0.3-0.3l-0.5-0.5c-0.2-0.2-0.4-0.3-0.6-0.5s-0.4-0.3-0.7-0.5c-0.3-0.1-0.6-0.3-0.9-0.5c-0.3-0.2-0.6-0.4-0.9-0.5
		c-0.3-0.2-0.6-0.4-0.8-0.6c-0.3-0.2-0.6-0.4-0.8-0.6c-0.4-0.2-0.7-0.5-1-0.8c-0.1-0.1-0.3-0.1-0.4-0.2c-0.1-0.1-0.3-0.2-0.4-0.3
		s-0.2-0.2-0.3-0.3c-0.1-0.1-0.2-0.1-0.3-0.2c-0.2-0.2-0.4-0.3-0.5-0.4c-0.2-0.1-0.3-0.3-0.5-0.4c-0.3-0.2-0.5-0.5-0.8-0.7
		s-0.5-0.5-0.8-0.7c-0.3-0.3-0.7-0.6-1-1c-0.1-0.2-0.3-0.3-0.4-0.5c-0.2-0.1-0.3-0.3-0.4-0.5c-0.1-0.1-0.1-0.2-0.2-0.3
		s-0.1-0.2-0.2-0.3s-0.1-0.2-0.2-0.3s-0.2-0.3-0.3-0.4c-0.4-0.6-0.8-1.3-1.1-2.2c-0.1-0.2-0.2-0.5-0.2-0.7c-0.1-0.2-0.1-0.5-0.2-0.8
		c0-0.2-0.1-0.3-0.1-0.4c0-0.1,0-0.3,0-0.5c0-0.3,0-0.7,0-1c0-0.1,0-0.2,0-0.4s0.1-0.3,0.1-0.4c0-0.1,0-0.1,0-0.2
		c0.1-0.4,0.1-0.7,0.1-0.9c0.1-0.2,0.1-0.4,0.2-0.7c0-0.2,0.1-0.5,0.2-0.7c0.2-0.4,0.3-0.8,0.3-1.2c0.1-0.2,0.2-0.4,0.2-0.6
		c0.1-0.2,0.2-0.3,0.2-0.5c0.1-0.3,0.2-0.5,0.3-0.8s0.3-0.5,0.4-0.8c0.2-0.2,0.3-0.4,0.3-0.6c0.1-0.1,0.2-0.3,0.3-0.5
		s0.2-0.3,0.3-0.4c0.1-0.1,0.1-0.3,0.2-0.4c0.1-0.1,0.1-0.2,0.2-0.4c0.1-0.1,0.1-0.2,0.1-0.2l0.1-0.1c0.1-0.2,0.2-0.4,0.3-0.5
		c0.1-0.2,0.2-0.3,0.3-0.5c0.1-0.1,0.2-0.2,0.3-0.4c0.1-0.1,0.2-0.3,0.3-0.4l0.1-0.1l0.1-0.1c0.2-0.2,0.3-0.4,0.4-0.6
		s0.3-0.4,0.4-0.5c0.1-0.1,0.2-0.2,0.2-0.3c0.1-0.1,0.1-0.2,0.2-0.3c0.1-0.1,0.3-0.2,0.4-0.4c0.1-0.1,0.2-0.3,0.3-0.4
		c0.2-0.2,0.3-0.4,0.4-0.5c0.1-0.1,0.2-0.3,0.3-0.4c0.1-0.2,0.2-0.4,0.4-0.6c0.1-0.1,0.2-0.2,0.3-0.2c0.1-0.1,0.1-0.3,0.2-0.4
		c0.1-0.1,0.1-0.2,0.2-0.4c0.1-0.1,0.1-0.2,0.1-0.2s0.1-0.1,0.1-0.2c0.1-0.2,0.2-0.4,0.4-0.5c0.1-0.1,0.2-0.3,0.4-0.5
		s0.3-0.3,0.3-0.3c0.1-0.1,0.2-0.2,0.3-0.2s0.2-0.1,0.3-0.2c0,0,0.1-0.1,0.2-0.1s0.2,0,0.3,0c0.1,0,0.3,0,0.4,0h0.1c0,0,0.1,0,0.2,0
		c0.2,0,0.3,0.1,0.3,0.1h0.1c0,0,0,0,0.1,0c0.1-0.1,0.1-0.1,0.2-0.2c0.1-0.1,0.2-0.1,0.3,0s0.1,0.1,0.2,0.2c0.1,0.1,0.2,0.1,0.2,0
		c0.2,0,0.3,0,0.4,0c0.2,0,0.3,0.1,0.4,0.2c0.1,0.1,0.2,0.1,0.3,0.1s0.2,0.1,0.3,0.1l0.4,0.1c0.1,0.1,0.4,0.1,0.7,0.2
		c0,0,0.1,0.1,0.1,0c0.1,0,0.2,0,0.3,0c0.1,0,0.2,0.1,0.2,0.2c0.2,0.2,0.5,0.4,0.8,0.4l0.4,0.1c0.2,0,0.3,0.1,0.5,0.3h0.1h0.1h0.1
		c0.2,0.2,0.3,0.4,0.5,0.6c0.1,0.1,0.2,0.2,0.4,0.3c0.1,0.1,0.3,0.2,0.5,0.4l0.1,0.1c0.1,0.1,0.2,0.3,0.2,0.4c0,0.1,0.1,0.2,0.2,0.4
		v0.1c0,0.2,0,0.3,0.1,0.4c0.1,0.1,0.1,0.3,0.2,0.4c0.1,0.3,0.2,0.6,0.4,0.8c0.1,0.1,0.2,0.3,0.2,0.4
		C-614.5,687-614.4,687.1-614.3,687.2z M-639.7,746.4c0-0.1,0.1-0.1,0.2-0.2C-639.6,746.2-639.6,746.3-639.7,746.4z M-639.4,746
		c0-0.2,0.1-0.3,0.3-0.5c0.1,0.1,0.1,0.2,0,0.2l-0.1,0.2L-639.4,746L-639.4,746z M-638.3,745c0.1-0.1,0.1-0.2,0.2-0.2
		C-638.2,745-638.3,745-638.3,745z M-637.6,744.3L-637.6,744.3C-637.6,744.4-637.6,744.4-637.6,744.3L-637.6,744.3L-637.6,744.3z
		 M-636.7,743l0.1-0.1L-636.7,743C-636.7,742.9-636.7,742.9-636.7,743L-636.7,743L-636.7,743z M-634.3,740.8c0,0.2-0.1,0.3-0.3,0.3
		C-634.5,741-634.4,740.9-634.3,740.8z M-633.3,740.1L-633.3,740.1c0,0.1,0,0.1-0.1,0.1L-633.3,740.1z M-632.9,741
		c-0.1-0.1,0-0.2,0.1-0.3C-632.7,740.8-632.7,740.9-632.9,741z M-632.5,740c0,0.1,0,0.2-0.2,0.2C-632.8,740.1-632.7,740-632.5,740z
		 M-631.7,738.6c0-0.1,0.1-0.1,0.1-0.2v-0.1l-0.1,0.1C-631.7,738.5-631.7,738.5-631.7,738.6C-631.8,738.6-631.8,738.6-631.7,738.6
		L-631.7,738.6L-631.7,738.6L-631.7,738.6C-631.6,738.7-631.6,738.7-631.7,738.6z M-631.3,738.4L-631.3,738.4v-0.2
		c0,0-0.1,0.1-0.3,0.2C-631.4,738.4-631.3,738.4-631.3,738.4z M-630.8,737.8c-0.1-0.1-0.2-0.1-0.2-0.2c-0.1,0.1-0.1,0.2-0.1,0.3
		L-630.8,737.8z M-628.2,736.4C-628.2,736.4-628.1,736.4-628.2,736.4L-628.2,736.4C-628.1,736.5-628.1,736.5-628.2,736.4
		L-628.2,736.4z M-627.8,736.1c0-0.1,0.1-0.2,0.3-0.3C-627.5,735.9-627.6,735.9-627.8,736.1C-627.8,736-627.8,736-627.8,736.1z
		 M-626.9,735L-626.9,735l0.1,0.1c-0.1,0.1-0.1,0.2-0.2,0.2s-0.1,0.1-0.2,0.2l-0.2,0.1c0-0.1,0-0.1,0-0.2c0.1-0.1,0.1-0.1,0.2-0.2
		C-627,735.1-626.9,735-626.9,735z M-626,734c-0.1,0.1-0.2,0.1-0.1,0.2L-626,734z"/>
</g>
<g>
	<path class="st0" d="M-92.6,139.8l-8.4,3.6v-1.7l8.1-3.2l0,0h-8.1V137h16v1.5h-7.3l0,0l7.3,3.2v1.7L-92.6,139.8z"/>
	<path class="st0" d="M-101,158v-1.6l3.3-0.6v-3.4l-3.3-0.6v-1.6l16.1,3.2v1.4L-101,158z M-96.4,155.6l6.2-1.1
		c1.1-0.2,2.2-0.3,3.3-0.4V154c-1.1-0.1-2.2-0.3-3.3-0.4l-6.2-0.9V155.6z"/>
	<path class="st0" d="M-86.3,170.9v-3.6H-92v3.5h-1.4v-3.5h-6.3v3.6h-1.4v-5H-85v5H-86.3z"/>
	<path class="st0" d="M-87.5,185.3c0.7-0.6,1.3-1.3,1.3-2.4c0-1.5-1.2-2.3-2.6-2.3c-1.9,0-2.7,1.4-3.7,2.7c-1,1.4-2,2.7-4.2,2.7
		c-2.3,0-4.6-1.5-4.6-4c0-0.9,0.3-1.8,0.8-2.5h1.9c-0.7,0.7-1.3,1.6-1.3,2.6c0,1.6,1.4,2.4,2.8,2.4c1.9,0,2.7-1.4,3.7-2.7
		c0.9-1.4,2-2.7,4.3-2.7c2.2,0,4.3,1.3,4.3,3.7c0,1-0.3,1.8-0.9,2.5H-87.5z"/>
	<path class="st0" d="M-101,196.1v-1.5h16v1.5H-101z"/>
	<path class="st0" d="M-86.3,210.5V208H-101v-1.5h14.7v-2.4h1.4v6.3L-86.3,210.5L-86.3,210.5z"/>
	<path class="st0" d="M-95.9,225.2c-3,0-5.3-0.2-5.3-3.4s2.4-3.4,5.3-3.4h11v1.5h-10.9c-2.7,0-3.9,0.1-3.9,1.9
		c0,1.7,1.3,1.9,3.9,1.9H-85v1.5H-95.9z"/>
</g>
</svg>
