<?xml version="1.0" encoding="utf-8"?>
<!-- Generator: Adobe Illustrator 19.1.0, SVG Export Plug-In . SVG Version: 6.00 Build 0)  -->
<!DOCTYPE svg PUBLIC "-//W3C//DTD SVG 1.1//EN" "http://www.w3.org/Graphics/SVG/1.1/DTD/svg11.dtd">
<svg version="1.1" id="Layer_1" xmlns="http://www.w3.org/2000/svg" xmlns:xlink="http://www.w3.org/1999/xlink" x="0px" y="0px"
	 viewBox="-246 309 226 103" style="enable-background:new -246 309 226 103;" xml:space="preserve">
<style type="text/css">
	.st0{fill:#FFFFFF;}
</style>
<path class="st0" d="M-182.4,378.3c0.1,0,0.2,0.1,0.2,0.2c0.1,0,0.1,0,0.2-0.1C-182.1,378.4-182.2,378.3-182.4,378.3z M-85.8,325.4
	L-85.8,325.4L-85.8,325.4C-85.8,325.5-85.8,325.4-85.8,325.4z M-154.4,367c-0.2,0.1-0.4,0.2-0.6,0.3c0.1,0.1,0.1,0.1,0.2,0.1
	c0.1-0.1,0.2-0.1,0.3-0.2C-154.4,367.1-154.4,367.1-154.4,367C-154.3,367-154.4,367-154.4,367z M-84.1,331.1L-84.1,331.1l-0.1-0.1
	c-0.1-0.1-0.1-0.2-0.2-0.3c-0.1,0-0.1,0.1-0.2,0.1c0,0.1,0.1,0.2,0.1,0.4c0,0,0-0.1-0.1-0.1c0,0.1,0.1,0.2,0.1,0.4
	C-84.3,331.3-84.2,331.3-84.1,331.1L-84.1,331.1z M-84.6,330.8L-84.6,330.8C-84.6,330.8-84.6,330.8-84.6,330.8
	C-84.6,330.8-84.6,330.8-84.6,330.8z M-84.3,332c0-0.1-0.1-0.1-0.2-0.1c0,0.2-0.1,0.4-0.1,0.6h0.3l0-0.1c0,0,0,0,0,0
	c0-0.1,0-0.1,0-0.2C-84.2,332.1-84.3,332-84.3,332z M-87.5,325.7c0,0.2,0.1,0.3,0.2,0.5v-0.5H-87.5z M-87.8,340
	c0,0.1-0.1,0.1-0.1,0.2C-87.9,340-87.9,340-87.8,340l-0.1-0.1l-0.1-0.1c0,0.1-0.1,0.1-0.1,0.2c-0.1,0.1-0.2,0.3-0.3,0.4
	c0,0.1,0.1,0.1,0.1,0.1c0.1,0.1,0.1,0.1,0.1,0.1c0.2-0.1,0.3-0.3,0.4-0.4C-87.8,340.2-87.6,340.2-87.8,340z M-87.9,344.3
	c0-0.1-0.1-0.3-0.1-0.4c-0.1,0-0.1,0-0.2,0c0,0.1,0,0.1,0,0.1v0.3c-0.1,0.1-0.1,0.2-0.1,0.3c0,0,0.1,0.1,0.1,0.1
	c0-0.1,0-0.2,0.1-0.3c0,0.1,0,0.2-0.1,0.3c0,0,0.1,0,0.1,0C-87.9,344.7-87.8,344.6-87.9,344.3z M-89.3,348.8
	c0.1-0.1,0.2-0.2,0.2-0.3C-89.2,348.6-89.2,348.7-89.3,348.8z M-89.7,343.7c0,0.1,0.1,0.3,0.1,0.4c0.1,0,0.2,0,0.2,0v-0.4H-89.7z
	 M-90.8,345c-0.1,0.3-0.2,0.5-0.3,0.8c0.1,0.1,0.1,0.1,0.2,0.1c0.1-0.3,0.2-0.5,0.3-0.8C-90.6,345-90.8,345-90.8,345z M-84.1,331.2
	c0-0.1,0-0.1-0.1-0.2l0,0c-0.1-0.1-0.1-0.2-0.2-0.3c-0.1,0-0.1,0.1-0.2,0.1c0,0.1,0.1,0.2,0.1,0.4c0,0,0-0.1-0.1-0.1
	c0,0.1,0.1,0.2,0.1,0.4C-84.3,331.3-84.2,331.3-84.1,331.2L-84.1,331.2C-84.1,331.1-84.1,331.2-84.1,331.2z M-84.3,332
	c0-0.1-0.1-0.1-0.2-0.1c0,0.2-0.1,0.4-0.1,0.6h0.3l0-0.1c0,0,0,0,0,0c0-0.1,0-0.1,0-0.2C-84.2,332.1-84.3,332-84.3,332z
	 M-84.6,330.7c0,0,0,0.1,0,0.1C-84.6,330.8-84.6,330.8-84.6,330.7C-84.6,330.7-84.6,330.7-84.6,330.7z M-84.6,330.8L-84.6,330.8
	C-84.6,330.8-84.6,330.8-84.6,330.8C-84.6,330.8-84.6,330.8-84.6,330.8z M-85.8,325.4L-85.8,325.4L-85.8,325.4
	C-85.8,325.5-85.8,325.4-85.8,325.4z M-87.5,325.7c0,0.2,0.1,0.3,0.2,0.5v-0.5H-87.5z M-87.6,325.7c0,0.3,0,0.3,0.1,0.5
	C-87.5,326-87.6,325.9-87.6,325.7z M-87.8,340c0,0.1-0.1,0.1-0.1,0.2C-87.9,340-87.9,340-87.8,340l-0.1-0.1l-0.1-0.1
	c0,0.1-0.1,0.1-0.1,0.2c-0.1,0.1-0.2,0.3-0.3,0.4c0,0.1,0.1,0.1,0.1,0.1c0.1,0.1,0.1,0.1,0.1,0.1c0.2-0.1,0.3-0.3,0.4-0.4
	C-87.8,340.2-87.6,340.2-87.8,340z M-87.9,344.3c0-0.1-0.1-0.3-0.1-0.4c-0.1,0-0.1,0-0.2,0c0,0.1,0,0.1,0,0.1v0.3
	c-0.1,0.1-0.1,0.2-0.1,0.3c0,0,0.1,0.1,0.1,0.1c0-0.1,0-0.2,0.1-0.3c0,0.1,0,0.2-0.1,0.3c0,0,0.1,0,0.1,0
	C-87.9,344.7-87.8,344.6-87.9,344.3z M-88.2,344.7L-88.2,344.7C-88.2,344.7-88.2,344.7-88.2,344.7
	C-88.2,344.7-88.2,344.7-88.2,344.7z M-89.3,348.8c0.1-0.1,0.2-0.2,0.2-0.3C-89.2,348.6-89.2,348.7-89.3,348.8z M-89.7,343.7
	c0,0.1,0.1,0.3,0.1,0.4c0.1,0,0.2,0,0.2,0v-0.4H-89.7z M-90.8,345c-0.1,0.3-0.2,0.5-0.3,0.8c0.1,0.1,0.1,0.1,0.2,0.1
	c0.1-0.3,0.2-0.5,0.3-0.8C-90.6,345-90.8,345-90.8,345z M-98.3,390.6h-0.6c-0.3,0-0.6,0.1-0.8,0.1h-0.2c-0.2,0.1-0.5,0.1-0.7,0.2
	c-0.2,0.1-0.3,0.1-0.5,0.2c-0.2,0-0.3,0.1-0.4,0.1c-0.3,0.1-0.6,0.2-0.9,0.3c-0.1,0-0.3,0.1-0.5,0.2v0c0,0,0,0,0,0s0,0,0,0
	c0.4-0.1,0.7-0.1,1.1-0.2c0.4-0.1,0.8,0.2,1.4-0.1c0.7-0.4,1.4-0.5,2.2-0.7C-98.2,390.7-98.2,390.7-98.3,390.6
	c0.1,0.1,0.2,0,0.2-0.1C-98.1,390.5-98.2,390.5-98.3,390.6z M-102.8,391.9h0.3C-102.6,391.7-102.8,391.7-102.8,391.9z M-102.3,389.7
	v0.3c0.2-0.1,0.5-0.1,0.7-0.2v-0.1c0,0,0,0,0,0v-0.1C-101.8,389.6-102.1,389.6-102.3,389.7z M-103.4,390c-0.8,0.1-1.7,0.3-2.5,0.5
	c0.1,0,0.1,0.1,0.1,0.2c0.9-0.1,1.7-0.4,2.5-0.4C-103.3,390.2-103.4,390.1-103.4,390z M-107.2,392.6L-107.2,392.6
	C-107.1,392.7-107.1,392.6-107.2,392.6z M-109,390.9C-109,390.8-109,390.8-109,390.9l-0.1-0.1c0,0.1-0.1,0.1-0.2,0.1
	c0,0.1,0.1,0.2,0.1,0.2h0.1C-109,391.1-109,391-109,390.9C-108.9,391-108.9,391-109,390.9z M-112.2,393.2L-112.2,393.2
	c0.5-0.1,0.9-0.1,1.4-0.2C-111.9,392.6-111.9,392.6-112.2,393.2z M-88.4,378.6c-0.1,0.2-0.1,0.3-0.2,0.4c0.1,0,0.1,0.1,0.2,0.1
	c0,0.2,0.1,0.4,0.3,0.5C-87.8,379.2-88.3,379-88.4,378.6z M-90.8,377c-0.1,0-0.1-0.1-0.2-0.1c0-0.1-0.1-0.1-0.1-0.2l-0.1,0.1
	c0,0,0,0.1-0.1,0.1c0.1,0.1,0.2,0.3,0.3,0.4C-91,377.3-90.9,377.2-90.8,377L-90.8,377z M-93.3,376.1c-0.1,0.1-0.1,0.1-0.2,0.2
	c0.1,0.1,0.2,0.2,0.4,0.3c0.2,0.1,0.3,0.2,0.5,0.3C-92.6,376.2-92.6,376.2-93.3,376.1z M-94.7,375.4c-0.1,0.1-0.3,0.1-0.4,0.2
	c0,0,0,0,0,0.1c0,0,0.1,0.1,0.2,0.1C-94.8,375.7-94.7,375.6-94.7,375.4L-94.7,375.4C-94.6,375.4-94.6,375.4-94.7,375.4
	C-94.6,375.3-94.6,375.2-94.7,375.4z M-95.2,374.1v0.1c0,0,0,0,0,0.1c0.1,0.2,0.1,0.2,0.2,0.1c0.1-0.1,0.1-0.1,0.1-0.2
	C-95,374.2-95.1,374.1-95.2,374.1z M-98,369.1c-0.3-0.1-0.6-0.2-0.9-0.2c0.6,0.6,0.6,0.6,1.3,0.2C-97.8,369.1-97.8,369-98,369.1z
	 M-98.4,371.6c-0.1,0.1-0.1,0.1-0.2,0.1c0,0.2,0.1,0.3,0.1,0.3c0.1,0,0.2-0.1,0.2-0.1L-98.4,371.6z M-98.2,372.8
	c-0.2-0.1-0.4-0.3-0.7-0.4c-0.1,0.3-0.2,0.4-0.3,0.6c0.2,0,0.4,0.1,0.5,0.1c0.3,0.1,0.4,0.1,0.5,0C-98.1,373.1-98.1,373-98.2,372.8z
	 M-99.7,372C-99.7,372-99.6,372-99.7,372C-99.6,371.9-99.6,371.9-99.7,372z M-99.8,371.9c-0.1,0-0.2-0.1-0.2-0.1
	c-0.4-0.3-0.8-0.5-1.2-0.7c0,0.2,0.1,0.3,0.1,0.4c0.1,0.2,0.1,0.4,0.2,0.5c0.1,0,0.1,0.1,0.2,0.1c0.1,0,0.1,0,0.1,0s0.1,0,0.2,0
	C-100.2,372.1-100,372.1-99.8,371.9C-99.8,372-99.8,372-99.8,371.9C-99.8,372-99.8,372-99.8,371.9C-99.7,372-99.7,372-99.8,371.9
	C-99.7,371.9-99.8,371.9-99.8,371.9z M-102.1,370c0-0.1-0.1-0.1-0.1-0.2c0,0,0,0-0.1,0c-0.1,0-0.3,0-0.6,0c0.2,0.2,0.3,0.3,0.4,0.5
	c0.1,0.1,0.2,0.3,0.3,0.4c0.1,0,0.2-0.1,0.3-0.1C-102,370.3-102,370.1-102.1,370z M-104,367.5c0,0.1,0,0.1,0,0.1
	c0,0.1,0,0.1-0.1,0.2c0.2,0.1,0.3,0.1,0.5,0.2c0,0,0-0.1,0-0.2C-103.7,367.7-103.9,367.6-104,367.5z M-113.6,341.8
	c0,0.2-0.1,0.4-0.2,0.6c0.1,0,0.1,0.1,0.2,0.1c0-0.3,0-0.4,0.2-0.6C-113.5,341.8-113.5,341.8-113.6,341.8z M-115.6,346.6
	c0,0.3-0.1,0.7-0.2,1c0,0.1,0.1,0.1,0.2,0.1c0.1-0.3,0.1-0.6,0.2-1C-115.6,346.7-115.6,346.7-115.6,346.6z M-105.1,332.5
	c-0.1,0.4-0.3,0.5-0.6,0.7c0.2,0.1,0.3,0.1,0.3,0.1c0.1-0.2,0.3-0.5,0.5-0.7C-105,332.6-105,332.5-105.1,332.5z M-87.4,379.3
	l-0.1-0.1c0,0.3-0.1,0.4-0.1,0.5c0,0,0.1,0,0.1,0c0.1,0,0.1,0,0.1,0c0.1,0,0.1-0.1,0.1-0.2C-87.3,379.4-87.3,379.4-87.4,379.3z
	 M-87.7,379.8C-87.7,379.8-87.6,379.8-87.7,379.8C-87.6,379.8-87.6,379.7-87.7,379.8C-87.6,379.7-87.6,379.7-87.7,379.8z
	 M-87.8,380.6c0.1,0,0.1,0,0.2-0.1L-87.8,380.6z M-88.4,378.6c-0.1,0.2-0.1,0.3-0.2,0.4c0.1,0,0.1,0.1,0.2,0.1
	c0,0.2,0.1,0.4,0.3,0.5C-87.8,379.2-88.3,379-88.4,378.6z M-90.9,376.9c0,0.1,0,0.1,0,0.1c-0.1,0-0.1-0.1-0.2-0.1
	c0-0.1-0.1-0.1-0.1-0.2l-0.1,0.1c0,0,0,0.1-0.1,0.1c0.1,0.1,0.2,0.3,0.3,0.4c0.1,0,0.2-0.1,0.3-0.2C-90.8,377-90.9,377-90.9,376.9z
	 M-93.3,376.1c-0.1,0.1-0.1,0.1-0.2,0.2c0.1,0.1,0.2,0.2,0.4,0.3c0.2,0.1,0.3,0.2,0.5,0.3C-92.6,376.2-92.6,376.2-93.3,376.1z
	 M-94.6,375.4C-94.6,375.3-94.6,375.2-94.6,375.4c-0.2,0.1-0.4,0.1-0.5,0.2c0,0,0,0,0,0.1c0,0,0.1,0.1,0.2,0.1
	C-94.8,375.7-94.7,375.6-94.6,375.4L-94.6,375.4c0,0,0.1,0,0.1,0C-94.5,375.4-94.6,375.4-94.6,375.4z M-95.2,374.1v0.1
	c0,0,0,0,0,0.1c0.1,0.2,0.1,0.2,0.2,0.1c0.1-0.1,0.1-0.1,0.1-0.2C-95,374.2-95.1,374.1-95.2,374.1z M-98,369.1
	c-0.3-0.1-0.6-0.2-0.9-0.2c0.6,0.6,0.6,0.6,1.3,0.2C-97.8,369.1-97.8,369-98,369.1z M-98.2,372.8c-0.2-0.1-0.4-0.3-0.7-0.4
	c-0.1,0.3-0.2,0.4-0.3,0.6c0.2,0,0.4,0.1,0.5,0.1c0.3,0.1,0.4,0.1,0.5,0C-98.1,373.1-98.1,373-98.2,372.8z M-98.3,390.6h-0.6
	c-0.3,0-0.6,0.1-0.8,0.1h-0.2c-0.2,0.1-0.5,0.1-0.7,0.2c-0.2,0.1-0.3,0.1-0.5,0.2c-0.2,0-0.3,0.1-0.4,0.1c-0.3,0.1-0.6,0.2-0.9,0.3
	c-0.1,0-0.3,0.1-0.5,0.2v0c0,0,0,0,0,0s0,0,0,0c0.4-0.1,0.7-0.1,1.1-0.2c0.4-0.1,0.8,0.2,1.4-0.1c0.7-0.4,1.4-0.5,2.2-0.7
	C-98.2,390.7-98.2,390.7-98.3,390.6c0.1,0.1,0.2,0,0.2-0.1C-98.1,390.5-98.2,390.5-98.3,390.6z M-98.4,371.6
	c-0.1,0.1-0.1,0.1-0.2,0.1c0,0.2,0.1,0.3,0.1,0.3c0.1,0,0.2-0.1,0.2-0.1L-98.4,371.6z M-98.8,373.2c0.3,0.1,0.4,0,0.5,0H-98.8z
	 M-98.4,372.2c0,0,0.1,0,0.2-0.1C-98.3,372.1-98.3,372.1-98.4,372.2z M-99.7,372C-99.7,372-99.6,372-99.7,372
	C-99.6,371.9-99.6,371.9-99.7,372z M-99.8,371.9c-0.1,0-0.2-0.1-0.2-0.1c-0.4-0.3-0.8-0.5-1.2-0.7c0,0.2,0.1,0.3,0.1,0.4
	c0.1,0.2,0.1,0.4,0.2,0.5c0.1,0,0.1,0.1,0.2,0.1c0.1,0,0.1,0,0.1,0s0.1,0,0.2,0C-100.2,372.1-100,372.1-99.8,371.9
	C-99.8,372-99.8,372-99.8,371.9C-99.8,372-99.8,372-99.8,371.9C-99.7,372-99.7,372-99.8,371.9l0.2,0
	C-99.7,371.9-99.8,371.9-99.8,371.9z M-101.6,389.7v-0.1c-0.2,0-0.5,0-0.7,0.1v0.3C-102.1,389.9-101.8,389.9-101.6,389.7
	L-101.6,389.7c0,0,0.1,0,0.1,0C-101.5,389.7-101.6,389.7-101.6,389.7z M-102.1,370c0-0.1-0.1-0.1-0.1-0.2c0,0,0,0-0.1,0
	c-0.1,0-0.3,0-0.6,0c0.2,0.2,0.3,0.3,0.4,0.5c0.1,0.1,0.2,0.3,0.3,0.4c0.1,0,0.2-0.1,0.3-0.1C-102,370.3-102,370.1-102.1,370z
	 M-102.6,370.2c0.1,0.2,0.2,0.2,0.2,0.3C-102.4,370.4-102.5,370.3-102.6,370.2z M-103.4,390c-0.8,0.1-1.7,0.3-2.5,0.5
	c0.1,0,0.1,0.1,0.1,0.2c0.9-0.1,1.7-0.4,2.5-0.4C-103.3,390.2-103.4,390.1-103.4,390z M-104,367.5c0,0.1,0,0.1,0,0.1
	c0,0.1,0,0.1-0.1,0.2c0.2,0.1,0.3,0.1,0.5,0.2c0,0,0-0.1,0-0.2C-103.7,367.7-103.9,367.6-104,367.5z M-105.1,332.5
	c-0.1,0.4-0.3,0.5-0.6,0.7c0.2,0.1,0.3,0.1,0.3,0.1c0.1-0.2,0.3-0.5,0.5-0.7C-105,332.6-105,332.5-105.1,332.5z M-106.9,392.3
	C-106.9,392.3-106.9,392.4-106.9,392.3L-106.9,392.3C-106.9,392.4-106.9,392.3-106.9,392.3z M-109,390.9
	C-109,390.8-109,390.8-109,390.9l-0.1-0.1c0,0.1-0.1,0.1-0.2,0.1c0,0.1,0.1,0.2,0.1,0.2h0.1C-109,391.1-109,391-109,390.9
	C-108.9,391-108.9,391-109,390.9z M-112.2,393.2L-112.2,393.2c0.5-0.1,0.9-0.1,1.4-0.2C-111.9,392.6-111.9,392.6-112.2,393.2z
	 M-111.9,340.2L-111.9,340.2L-111.9,340.2c-0.2,0.1-0.3,0.3-0.4,0.5l-0.1,0.1l0,0l-0.1,0.1c0,0,0,0,0,0c0,0-0.1,0.1-0.2,0.1h-0.1
	c0,0.1-0.1,0.2-0.1,0.3h0.4c0.1-0.2,0.2-0.3,0.3-0.5c0.1-0.2,0.2-0.4,0.3-0.5h0.1C-111.8,340.3-111.8,340.3-111.9,340.2z
	 M-113.6,341.8c0,0.2-0.1,0.4-0.2,0.6c0.1,0,0.1,0.1,0.2,0.1c0-0.3,0-0.4,0.2-0.6C-113.5,341.8-113.5,341.8-113.6,341.8z
	 M-115.6,346.6c0,0.3-0.1,0.7-0.2,1c0,0.1,0.1,0.1,0.2,0.1c0.1-0.3,0.1-0.6,0.2-1C-115.6,346.7-115.6,346.7-115.6,346.6z
	 M-40.6,365.8c-0.1,0-0.2,0-0.2,0v0.4c0.2,0,0.3,0,0.3,0C-40.5,366.1-40.6,365.9-40.6,365.8z M-40.6,365.8c-0.1,0-0.2,0-0.2,0v0.4
	c0.2,0,0.3,0,0.3,0C-40.5,366.1-40.6,365.9-40.6,365.8z M-224.6,386.5c0,0.1-0.1,0.2-0.1,0.3h0.4
	C-224.4,386.7-224.5,386.6-224.6,386.5z M-112.5,340.9C-112.5,340.9-112.5,340.9-112.5,340.9c-0.1,0.1-0.1,0.2-0.1,0.2
	C-112.5,341-112.4,341-112.5,340.9c0.1-0.1,0.1-0.2,0.1-0.2C-112.4,340.8-112.5,340.8-112.5,340.9z M-111.9,340.2L-111.9,340.2
	L-111.9,340.2c-0.2,0.1-0.3,0.3-0.4,0.5l-0.1,0.1l0,0c0,0,0-0.1,0-0.1c0,0.1-0.1,0.2-0.1,0.2c0,0,0,0,0,0c0,0-0.1,0.1-0.2,0.1h-0.1
	c0,0.1-0.1,0.2-0.1,0.3h0.4c0.1-0.2,0.2-0.3,0.3-0.5c0.1-0.2,0.2-0.4,0.3-0.5h0.1C-111.8,340.3-111.8,340.3-111.9,340.2z
	 M-88.2,344.7L-88.2,344.7C-88.2,344.7-88.2,344.7-88.2,344.7C-88.2,344.7-88.2,344.7-88.2,344.7z M-87.6,325.7c0,0.3,0,0.3,0.1,0.5
	C-87.5,326-87.6,325.9-87.6,325.7z M-84.6,330.7c0,0,0,0.1,0,0.1C-84.6,330.8-84.6,330.8-84.6,330.7
	C-84.6,330.7-84.6,330.7-84.6,330.7z M-84.2,331L-84.2,331c0.1,0.1,0.1,0.1,0.1,0.2C-84.1,331.1-84.1,331.1-84.2,331z M-107.2,392.6
	C-107.2,392.7-107.2,392.7-107.2,392.6L-107.2,392.6z M-106.9,392.3C-106.9,392.3-106.9,392.4-106.9,392.3L-106.9,392.3
	C-106.9,392.4-106.9,392.3-106.9,392.3z M-102.8,391.9h0.3C-102.6,391.7-102.8,391.7-102.8,391.9z M-102.6,370.2
	c0.1,0.2,0.2,0.2,0.2,0.3C-102.4,370.4-102.5,370.3-102.6,370.2z M-101.6,389.7c-0.2,0-0.3,0.1-0.4,0.1
	C-101.9,389.8-101.7,389.8-101.6,389.7c0,0,0.1,0,0.1,0C-101.5,389.7-101.6,389.7-101.6,389.7z M-99.8,371.9
	C-99.8,371.9-99.8,372-99.8,371.9C-99.8,372-99.8,372-99.8,371.9C-99.7,372-99.7,372-99.8,371.9l0.2,0
	C-99.7,371.9-99.8,371.9-99.8,371.9z M-98.8,373.2c0.3,0.1,0.4,0,0.5,0H-98.8z M-98.4,372.2c0,0,0.1,0,0.2-0.1
	C-98.3,372.1-98.3,372.1-98.4,372.2z M-94.6,375.4c-0.2,0.1-0.2,0.1-0.2,0.2C-94.8,375.6-94.7,375.5-94.6,375.4c0,0,0.1,0,0.1,0
	C-94.5,375.4-94.6,375.4-94.6,375.4z M-90.9,376.9c0,0.1,0,0.1,0,0.1l0.1,0.1C-90.8,377-90.9,377-90.9,376.9z M-87.8,380.6
	c0.1,0,0.1,0,0.2-0.1L-87.8,380.6z M-169.9,369.1c-0.9,0.1-1.7,0.2-2.5,0.3c-0.4,0-0.8,0.1-1.2,0.1c-0.4,0-0.8,0.1-1.2,0.1
	c0.2,0.2,0.5,0.3,0.7,0.5c0.4,0.4,0.9,0.7,1.4,1c0.2,0.2,0.5,0.3,0.8,0.5c0.2,0.2,0.4,0.3,0.6,0.4c0.2,0.1,0.4,0.2,0.6,0.3
	c0.1,0,0.1,0,0.1,0s0.1,0.1,0.2,0.1c0.1,0,0.2,0.1,0.3,0.1c0.2,0.1,0.3,0.2,0.5,0.2h0.1c0.2,0.1,0.4,0.1,0.6,0.2
	c0-0.1,0.1-0.1,0.1-0.2c0,0,0.2-0.1,0.3-0.1C-168.9,371.5-169.4,370.3-169.9,369.1z M-170.5,362.3c-0.1-0.6-0.2-1.2-0.3-1.8h-0.1
	c-0.1,0-0.2,0-0.2,0c-0.5,0.7-0.8,1.6-1.3,2.4h2C-170.4,362.7-170.5,362.5-170.5,362.3z M-176.8,379.2c-0.2-0.1-0.3-0.1-0.5-0.2
	c0,0-0.1,0.1-0.1,0.2c0,0,0.1,0,0.1,0c0.1,0,0.2,0.1,0.4,0.2c0,0,0,0,0,0c0.1,0.1,0.3,0.2,0.5,0.3c0.1-0.1,0.1-0.2,0.1-0.2v-0.1
	C-176.5,379.3-176.6,379.3-176.8,379.2z M-185,374.4c-0.3-0.1-0.5-0.2-0.8-0.3c-0.1,0-0.3-0.1-0.4-0.1c-0.3-0.1-0.5-0.1-0.8-0.2
	c-0.4-0.1-0.7-0.2-1.1-0.2c0,0.1-0.1,0.2-0.1,0.3c1.3,0.4,2.7,0.9,4.1,1.3c0,0,0.2-0.1,0.2-0.4C-184.3,374.7-184.6,374.5-185,374.4z
	 M-185.2,376c-0.1,0-0.2-0.1-0.3-0.2c0,0.1,0,0.1,0,0.2c0.3,0.1,0.6,0.1,0.9,0.2C-184.8,376.1-185,376-185.2,376z M-187.2,375.4
	c-0.4-0.1-0.8-0.2-1.3-0.3c0,0.1,0,0.1,0,0.2c0.5,0.1,0.9,0.2,1.3,0.3C-187.1,375.5-187.1,375.5-187.2,375.4
	C-187.1,375.5-187.1,375.4-187.2,375.4z M-191.6,373.9v0.5c0.1,0,0.1,0,0.2,0v-0.5H-191.6z M-194.1,372.1c-0.1,0-0.2,0.1-0.3,0.1
	l-0.1,0.1v0.1c-0.1,0.1-0.1,0.2-0.1,0.3l0.2-0.1c0.2-0.2,0.3-0.3,0.5-0.4C-193.9,372.2-194.1,372.2-194.1,372.1z M-195.7,372
	c-0.1,0-0.3-0.1-0.5-0.1c-0.1,0-0.3-0.1-0.5-0.1c0,0.1,0,0.1,0,0.2c0.4,0.1,0.7,0.2,1.1,0.3C-195.6,372.2-195.6,372.2-195.7,372z
	 M-197.2,374.3L-197.2,374.3C-197.2,374.2-197.2,374.2-197.2,374.3C-197.2,374.2-197.2,374.2-197.2,374.3z M-196.5,374.1
	c0,0,0,0-0.1,0c0,0.1,0,0-0.2,0h0.1c-0.1-0.1-0.3-0.1-0.4-0.1c0,0.1,0,0.1-0.1,0.2c0-0.1,0.1-0.1,0.1-0.1c0,0.1,0,0.1,0,0.2
	c0.2,0,0.2,0.2,0.3,0.2h0.1c0.1-0.1,0.1-0.1,0.3-0.2C-196.4,374.2-196.4,374.2-196.5,374.1z M-200.1,371.5c-0.2,0.2-0.3,0.2-0.5,0.2
	C-200.5,371.6-200.3,371.5-200.1,371.5c-0.3,0.1-0.5,0.1-0.7,0.2c0,0.1,0.1,0.1,0.1,0.2C-200.5,371.8-200.3,371.7-200.1,371.5
	C-200.1,371.5-200.1,371.5-200.1,371.5z M-200.8,372.5c-0.2-0.1-0.4-0.1-0.6-0.1c0.2,0.3,0.5,0.3,0.8,0.4c0.1,0,0.1,0,0.1,0
	s0-0.1,0.1-0.1c0,0,0-0.1,0.1-0.1C-200.6,372.5-200.8,372.5-200.8,372.5z M-201.1,374.3c0,0.1,0,0.2,0,0.2c0,0.1,0,0.1,0,0.1v0.1
	h0.2c0.1-0.1,0.1-0.2,0.1-0.4H-201.1z M-203.6,374.4c0-0.1-0.1-0.2-0.2-0.2c-0.3-0.1-0.5-0.2-0.9-0.3c-0.1,0.1-0.4,0.3-0.7,0.6
	c0.6,0.1,1,0.2,1.5,0.3c0.2,0,0.3,0,0.5-0.1C-203.5,374.6-203.5,374.5-203.6,374.4z M-206.3,368.6c0,0.2-0.1,0.4-0.3,0.5
	c0.2-0.1,0.3-0.2,0.4-0.4C-206.2,368.6-206.3,368.6-206.3,368.6z M-206.4,368.5c-0.3,0.2-0.5,0.4-0.8,0.6c0,0,0.1,0.1,0.2,0.2
	c0.2-0.2,0.5-0.4,0.7-0.7C-206.3,368.6-206.4,368.5-206.4,368.5z M-204.3,365.9c-0.2,0.1-0.3,0.2-0.4,0.3c0.1,0.1,0.2,0.1,0.3,0.3
	h0.3l0.1-0.1c0.1,0,0.1,0,0.1-0.1c0-0.1,0-0.1,0-0.1c0-0.1,0-0.1,0-0.2v-0.4C-204.1,365.7-204.2,365.8-204.3,365.9z M-202.1,363.9
	l-0.5,0.4c-0.3,0.4-0.5,0.6-0.8,0.9c0.3-0.1,0.4-0.1,0.6-0.2h0.1c0.3-0.1,0.4-0.3,0.6-0.5c0-0.1,0.1-0.1,0.1-0.2
	c0.1-0.2,0.2-0.5,0.3-0.8C-201.9,363.7-202,363.8-202.1,363.9z M-217.3,378.6c-0.1,0.2-0.2,0.3-0.3,0.4c0.1,0,0.1,0.1,0.2,0.1
	c0.1-0.2,0.2-0.3,0.3-0.4C-217.1,378.6-217.2,378.6-217.3,378.6z M-217.6,384.8c-0.2,0.3-0.3,0.7-0.4,1c0.1,0,0.1,0,0.2,0.1
	c0.1-0.3,0.2-0.7,0.5-0.9C-217.4,384.9-217.5,384.9-217.6,384.8z M-218.1,381.7c-0.1,0.2-0.3,0.4-0.4,0.5h0l-0.1,0.1
	c0.1,0,0.1,0.1,0.2,0.2c0,0,0,0,0,0c0,0,0,0,0.1,0c0,0,0-0.1,0-0.1c0,0,0,0,0,0c0-0.1,0-0.1,0.1-0.1v0c0-0.1,0.1-0.1,0.1-0.1
	c0.1-0.1,0.1-0.2,0.2-0.3C-218,381.8-218.1,381.7-218.1,381.7z M-218.7,388.4C-218.7,388.4-218.7,388.4-218.7,388.4h-0.2
	c0,0.2-0.1,0.5-0.1,0.7c0.1,0,0.2,0,0.2,0c0-0.2,0.1-0.3,0.1-0.4C-218.6,388.5-218.6,388.3-218.7,388.4z M-219.3,389.9
	c-0.1,0.6-0.3,1.2-0.4,1.7c0,0,0,0,0,0c0.2,0.1,0.3,0.1,0.4,0.1c0.1-0.5,0.1-1,0.2-1.8C-219.1,389.9-219.2,389.9-219.3,389.9z
	 M-209.2,360.7c-0.1,0.2-0.1,0.3-0.2,0.3c0,0,0.1,0,0.1,0c0,0,0,0,0,0c0.2,0,0.3,0.1,0.5,0.1c0.1-0.1,0.1-0.1,0.1-0.2L-209.2,360.7z
	 M-200.6,362.2c-0.3,0.3-0.5,0.5-0.9,0.9c0.5,0.1,0.8,0,0.9-0.2c0.1,0,0.1-0.1,0.1-0.2c0.1-0.1,0.1-0.2,0.1-0.3
	C-200.4,362.4-200.5,362.3-200.6,362.2z M-193.4,354.1c-0.2,0.2-0.3,0.5-0.5,0.7c-0.1,0.2-0.3,0.4-0.4,0.7c0.4-0.3,0.8-0.7,1.2-1.1
	c0.2-0.2,0.4-0.5,0.6-0.7c0.1-0.2,0.3-0.5,0.5-0.7C-192.5,353.3-193,353.7-193.4,354.1z M-194.4,355.6
	C-194.4,355.6-194.4,355.6-194.4,355.6c0,0.1,0,0,0.1,0c0,0,0-0.1,0-0.1C-194.3,355.5-194.3,355.5-194.4,355.6z M-194.7,355.8
	c-0.1,0-0.2,0.1-0.3,0.2c-1.5,1.7-3,3.3-4.5,5c-0.1,0.2-0.2,0.4-0.3,0.6c-0.1,0-0.1,0.1-0.1,0.1c0,0-0.1,0.1-0.2,0.1
	c0.1,0,0.1,0.1,0.2,0.1c1.8-2.1,3.7-4.1,5.4-6.2C-194.5,355.7-194.6,355.7-194.7,355.8z M-193.1,357.4c0,0,0,0.1,0,0.2
	c0.4,0,0.7-0.1,1-0.1v-0.2C-192.4,357.3-192.8,357.4-193.1,357.4z M-193.6,356.8c-0.1,0.2-0.2,0.3-0.3,0.4c0.1-0.1,0.3-0.2,0.4-0.3
	C-193.5,356.8-193.6,356.8-193.6,356.8z M-194.6,357.7c0,0,0,0.1-0.1,0.1l0.1,0.1l0.1,0.1c0.1-0.1,0.1-0.2,0.2-0.3
	c0.1-0.2,0.2-0.4,0.3-0.5C-194.2,357.4-194.4,357.5-194.6,357.7z M-196.8,359.9c0,0-0.1,0.1-0.1,0.1c-0.3,0.4-0.6,0.6-0.9,1
	c0.1,0.1,0.1,0.1,0.1,0.1c0.2-0.2,0.3-0.2,0.4-0.4c0,0.2-0.2,0.3-0.4,0.4c0,0,0,0,0.1,0.1c0.2-0.1,0.3-0.3,0.5-0.5
	c0.1-0.1,0.3-0.3,0.5-0.5C-196.8,360.1-196.8,360.1-196.8,359.9z M-198.5,362.1c-0.5,0.1-0.8,0.4-0.8,1h0.3c0.1,0,0.1,0,0.1,0
	s0,0,0.1-0.1c0.3-0.2,0.4-0.4,0.4-0.6C-198.4,362.3-198.5,362.2-198.5,362.1z M-154.4,367c-0.2,0.1-0.4,0.2-0.6,0.3
	c0.1,0.1,0.1,0.1,0.2,0.1c0.1-0.1,0.2-0.1,0.3-0.2C-154.4,367.1-154.4,367.1-154.4,367C-154.3,367-154.4,367-154.4,367z
	 M-172.4,369.4c-0.4,0-0.8,0.1-1.2,0.1c-0.4,0-0.8,0.1-1.2,0.1c0.2,0.2,0.5,0.3,0.7,0.5c0.4,0.4,0.9,0.7,1.4,1
	c0.2,0.2,0.5,0.3,0.8,0.5c0.2,0.2,0.4,0.3,0.6,0.4c0.2,0.1,0.4,0.2,0.6,0.3c0.1,0,0.1,0,0.1,0s0.1,0.1,0.2,0.1
	c0.1,0,0.2,0.1,0.3,0.1c0.2,0.1,0.3,0.2,0.5,0.2h0.1c0.2,0.1,0.4,0.1,0.6,0.2c0-0.1,0.1-0.1,0.1-0.2c0,0,0.2-0.1,0.3-0.1
	c-0.4-1.1-0.9-2.3-1.4-3.5C-170.8,369.2-171.6,369.3-172.4,369.4z M-170.5,362.3c-0.1-0.6-0.2-1.2-0.3-1.8h-0.1c-0.1,0-0.2,0-0.2,0
	c-0.5,0.7-0.8,1.6-1.3,2.4h2C-170.4,362.7-170.5,362.5-170.5,362.3z M-177.3,379c0,0-0.1,0.1-0.1,0.2c0.2,0,0.3,0.1,0.5,0.2
	c0,0,0,0,0,0c0.1,0.1,0.3,0.2,0.5,0.3c0.1-0.1,0.1-0.2,0.1-0.2v-0.1c-0.2-0.1-0.3-0.1-0.5-0.2C-177,379.1-177.1,379.1-177.3,379z
	 M-182.2,378.5c0.1,0,0.1,0,0.2-0.1c-0.1-0.1-0.3-0.1-0.4-0.1C-182.3,378.3-182.2,378.4-182.2,378.5z M-184,375.3
	c0-0.1,0.1-0.2,0.1-0.2C-184,375.1-184.1,375.2-184,375.3z M-185.8,374.1c-0.1,0-0.3-0.1-0.4-0.1c-0.3-0.1-0.5-0.1-0.8-0.2
	c-0.4-0.1-0.7-0.2-1.1-0.2c0,0.1-0.1,0.2-0.1,0.3c1.3,0.4,2.7,0.9,4.1,1.3c0,0,0.2-0.1,0.2-0.4c-0.4-0.1-0.7-0.3-1.1-0.4
	C-185.3,374.3-185.5,374.2-185.8,374.1z M-185.2,376c0.2,0.1,0.4,0.2,0.7,0.2C-184.7,376.1-185,376-185.2,376z M-185.5,376
	c0.3,0.1,0.6,0.1,0.9,0.2c-0.2-0.1-0.4-0.1-0.6-0.2c-0.1,0-0.2-0.1-0.3-0.2C-185.5,375.9-185.5,375.9-185.5,376z M-188.5,375.1
	c0,0.1,0,0.1,0,0.2c0.5,0.1,0.9,0.2,1.3,0.3c0,0,0.1-0.1,0.1-0.1c0,0,0,0-0.1-0.1C-187.6,375.3-188,375.2-188.5,375.1z
	 M-187.1,375.4c-0.5-0.2-0.8-0.2-1.3-0.3C-187.9,375.2-187.5,375.3-187.1,375.4z M-191.6,374.4c0.1,0,0.1,0,0.2,0v-0.5h-0.2V374.4z
	 M-193.1,357.6c0.4,0,0.7-0.1,1-0.1v-0.2c-0.3,0-0.7,0.1-1,0.1C-193.1,357.4-193.1,357.5-193.1,357.6z M-192.3,353.8
	c0.2-0.2,0.3-0.5,0.5-0.7C-192.1,353.2-192.2,353.5-192.3,353.8z M-193.1,354.4c0.2-0.2,0.4-0.5,0.6-0.7c0.1-0.2,0.3-0.5,0.5-0.7
	c-0.5,0.3-1,0.7-1.4,1.1c-0.2,0.2-0.3,0.5-0.5,0.7c-0.1,0.2-0.3,0.4-0.4,0.7C-193.8,355.2-193.5,354.7-193.1,354.4z M-193.6,356.8
	c-0.1,0.2-0.2,0.3-0.3,0.4c0.1-0.1,0.3-0.2,0.4-0.3C-193.5,356.8-193.6,356.8-193.6,356.8z M-194.1,372.1c-0.1,0-0.2,0.1-0.3,0.1
	l-0.1,0.1v0.1c-0.1,0.1-0.1,0.2-0.1,0.3l0.2-0.1c0.2-0.2,0.3-0.3,0.5-0.4C-193.9,372.2-194.1,372.2-194.1,372.1z M-194.5,358
	c0.1-0.1,0.1-0.2,0.2-0.3c0.1-0.2,0.2-0.4,0.3-0.5c-0.2,0.2-0.4,0.3-0.6,0.5c0,0,0,0.1-0.1,0.1c0,0-0.1-0.1-0.1-0.1l0.1,0.2
	c0,0,0.1,0,0.1,0c0,0,0,0,0,0L-194.5,358z M-194.2,355.5c0,0-0.1,0.1-0.1,0.1c0,0,0,0.1-0.1,0.1c0.1,0,0.1,0,0.2-0.1
	C-194.3,355.5-194.3,355.5-194.2,355.5z M-194.7,355.8c-0.1,0-0.2,0.1-0.3,0.2c-1.5,1.7-3,3.3-4.5,5c-0.1,0.2-0.2,0.4-0.3,0.6
	c-0.1,0-0.1,0.1-0.1,0.1c0,0-0.1,0.1-0.2,0.1c0.1,0,0.1,0.1,0.2,0.1c1.8-2.1,3.7-4.1,5.4-6.2C-194.5,355.7-194.6,355.7-194.7,355.8z
	 M-196.2,371.9c-0.1,0-0.3-0.1-0.5-0.1c0,0.1,0,0.1,0,0.2c0.4,0.1,0.7,0.2,1.1,0.3c0-0.1,0-0.1-0.1-0.3
	C-195.8,372-196,371.9-196.2,371.9z M-196.6,374.1c0,0.1,0,0-0.2,0H-196.6c-0.2-0.1-0.4-0.1-0.5-0.1c0,0.1,0,0.1-0.1,0.2
	c0-0.1,0.1-0.1,0.1-0.1c0,0.1,0,0.1,0,0.2c0.2,0,0.2,0.2,0.3,0.2h0.1c0.1-0.1,0.1-0.1,0.3-0.2c0-0.1,0-0.1-0.1-0.2
	C-196.5,374.1-196.5,374.1-196.6,374.1z M-196.6,360.2c-0.2-0.1-0.2-0.1-0.2-0.3c0,0-0.1,0.1-0.1,0.1c-0.3,0.4-0.6,0.6-0.9,1
	c0.1,0.1,0.1,0.1,0.1,0.1c0.2-0.2,0.3-0.2,0.4-0.4c0,0.2-0.2,0.3-0.4,0.4c0,0,0,0,0.1,0.1c0.2-0.1,0.3-0.3,0.5-0.5
	C-197,360.6-196.8,360.4-196.6,360.2z M-197.2,374.4C-197.2,374.3-197.1,374.3-197.2,374.4C-197.1,374.3-197.2,374.3-197.2,374.4
	C-197.2,374.3-197.2,374.3-197.2,374.4z M-197.2,374.3L-197.2,374.3C-197.2,374.2-197.2,374.2-197.2,374.3
	C-197.2,374.2-197.2,374.2-197.2,374.3z M-197.8,361.2c0,0,0.1,0,0.1-0.1c0,0,0,0,0,0C-197.7,361.1-197.8,361.1-197.8,361.2z
	 M-199.3,363.1h0.3c0.1,0,0.1,0,0.1,0s0,0,0.1-0.1c0.3-0.2,0.4-0.4,0.4-0.6c0-0.1,0-0.2-0.1-0.3C-199,362.2-199.3,362.5-199.3,363.1
	z M-200.2,371.5C-200.1,371.5-200.1,371.5-200.2,371.5c0.1,0,0.2,0,0.2-0.1C-200.1,371.4-200.1,371.5-200.2,371.5z M-200.2,371.5
	c-0.2,0.1-0.4,0.1-0.6,0.2c0,0.1,0.1,0.1,0.1,0.2c0.2-0.1,0.4-0.2,0.6-0.3C-200.1,371.5-200.1,371.5-200.2,371.5
	c-0.1,0.2-0.2,0.2-0.4,0.2C-200.5,371.6-200.3,371.5-200.2,371.5z M-201.4,372.4c0.2,0.3,0.5,0.3,0.8,0.4c0.1,0,0.1,0,0.1,0
	s0-0.1,0.1-0.1c0,0,0-0.1,0.1-0.1c-0.3-0.1-0.5-0.1-0.5-0.1C-201,372.4-201.2,372.4-201.4,372.4z M-200.6,362.9
	c0.1,0,0.1-0.1,0.1-0.2c0.1-0.1,0.1-0.2,0.1-0.3c0,0-0.1-0.1-0.2-0.2c-0.3,0.3-0.5,0.5-0.9,0.9C-201,363.2-200.7,363.1-200.6,362.9z
	 M-201.1,374.5c0,0.1,0,0.1,0,0.1v0.1h0.2c0.1-0.1,0.1-0.2,0.1-0.4h-0.3C-201.1,374.4-201.1,374.5-201.1,374.5z M-202.6,364.3
	c-0.3,0.4-0.5,0.6-0.8,0.9c0.3-0.1,0.4-0.1,0.6-0.2h0.1c0.3-0.1,0.4-0.3,0.6-0.5c0-0.1,0.1-0.1,0.1-0.2c0.1-0.2,0.2-0.5,0.3-0.8
	c-0.2,0.2-0.3,0.3-0.5,0.4L-202.6,364.3z M-203.8,374.2c-0.3-0.1-0.5-0.2-0.9-0.3c-0.1,0.1-0.4,0.3-0.7,0.6c0.6,0.1,1,0.2,1.5,0.3
	c0.2,0,0.3,0,0.5-0.1c-0.1-0.1-0.1-0.2-0.2-0.3C-203.6,374.3-203.7,374.2-203.8,374.2z M-204.4,366.5h0.3l0.1-0.1
	c0.1,0,0.1,0,0.1-0.1c0-0.1,0-0.1,0-0.1c0-0.1,0-0.1,0-0.2v-0.4c-0.2,0.1-0.3,0.2-0.4,0.3c-0.2,0.1-0.3,0.2-0.4,0.3
	C-204.6,366.3-204.5,366.3-204.4,366.5z M-206.6,369.1c0.2-0.1,0.3-0.2,0.4-0.4c0,0-0.1-0.1-0.1-0.1
	C-206.3,368.8-206.4,369-206.6,369.1z M-206.4,368.5c-0.3,0.2-0.5,0.4-0.8,0.6c0,0,0.1,0.1,0.2,0.2c0.2-0.2,0.5-0.4,0.7-0.7
	C-206.3,368.6-206.4,368.5-206.4,368.5z M-209.4,361c0,0,0.1,0,0.1,0c0,0,0,0.1,0,0.1c0,0,0-0.1,0-0.1c0.2,0,0.3,0.1,0.5,0.1
	c0.1-0.1,0.1-0.1,0.1-0.2l-0.5-0.2C-209.3,360.9-209.3,361-209.4,361z M-217.3,378.6c-0.1,0.2-0.2,0.3-0.3,0.4
	c0.1,0,0.1,0.1,0.2,0.1c0.1-0.2,0.2-0.3,0.3-0.4C-217.1,378.6-217.2,378.6-217.3,378.6z M-218,385.8c0.1,0,0.1,0,0.2,0.1
	c0.1-0.3,0.2-0.7,0.5-0.9c-0.1-0.1-0.2-0.1-0.3-0.2C-217.8,385.1-217.9,385.5-218,385.8z M-218.1,381.7c-0.1,0.2-0.3,0.4-0.4,0.5h0
	l-0.1,0.1c0.1,0,0.1,0.1,0.2,0.2c0,0,0,0,0,0c0,0,0,0,0,0c0,0,0,0,0.1,0c0,0,0-0.1,0-0.1c0,0,0,0,0,0c0-0.1,0-0.1,0.1-0.1v0
	c0-0.1,0.1-0.1,0.1-0.1c0.1-0.1,0.1-0.2,0.2-0.3C-218,381.8-218.1,381.7-218.1,381.7z M-218.7,388.4
	C-218.7,388.4-218.7,388.4-218.7,388.4h-0.2c0,0.2-0.1,0.5-0.1,0.7c0.1,0,0.2,0,0.2,0c0-0.2,0.1-0.3,0.1-0.4
	C-218.6,388.5-218.6,388.3-218.7,388.4z M-219.7,391.6C-219.7,391.6-219.7,391.6-219.7,391.6c0.2,0.1,0.3,0.1,0.4,0.1
	c0.1-0.5,0.1-1,0.2-1.8c0,0-0.1,0-0.2,0C-219.4,390.5-219.6,391.1-219.7,391.6z M-224.7,386.8h0.4c-0.1-0.1-0.2-0.2-0.3-0.3
	C-224.6,386.6-224.7,386.7-224.7,386.8z M-218.4,382.4C-218.4,382.5-218.4,382.5-218.4,382.4C-218.4,382.5-218.4,382.5-218.4,382.4
	C-218.3,382.4-218.3,382.4-218.4,382.4C-218.3,382.3-218.3,382.3-218.4,382.4c0.1-0.2,0.1-0.2,0.2-0.2v0c0,0,0-0.1,0-0.1
	C-218.2,382.2-218.3,382.3-218.4,382.4z M-209.3,361C-209.3,361-209.3,361-209.3,361C-209.3,361-209.3,361-209.3,361
	c0-0.1,0.1-0.1,0.1-0.2C-209.3,360.8-209.3,360.9-209.3,361z M-200.2,371.5C-200.1,371.5-200.1,371.5-200.2,371.5
	c0.1,0,0.2,0,0.2-0.1C-200.1,371.4-200.1,371.5-200.2,371.5z M-197.7,361.1c0,0-0.1,0-0.1,0.1C-197.8,361.2-197.7,361.1-197.7,361.1
	C-197.7,361.1-197.7,361.1-197.7,361.1z M-197.2,374.3C-197.2,374.3-197.2,374.3-197.2,374.3C-197.2,374.3-197.1,374.3-197.2,374.3
	C-197.1,374.3-197.2,374.3-197.2,374.3z M-194.6,357.8L-194.6,357.8c-0.1-0.1-0.1-0.1-0.2-0.2L-194.6,357.8
	C-194.7,357.9-194.6,357.9-194.6,357.8C-194.6,357.9-194.6,357.9-194.6,357.8z M-192.3,353.8c0.2-0.2,0.3-0.5,0.5-0.7
	C-192.1,353.2-192.2,353.5-192.3,353.8z M-188.4,375.1c0.5,0.1,0.9,0.2,1.3,0.3C-187.6,375.2-187.9,375.2-188.4,375.1z M-185.2,376
	c0.2,0.1,0.4,0.2,0.7,0.2C-184.7,376.1-185,376-185.2,376z M-184,375.3c0-0.1,0.1-0.2,0.1-0.2C-184,375.1-184.1,375.2-184,375.3z
	 M-177.3,379.2c0,0-0.1,0-0.1,0c0.2,0,0.3,0.1,0.5,0.2c0,0,0,0,0,0c0.2,0.1,0.3,0.1,0.5,0.2C-176.7,379.3-177,379.2-177.3,379.2z
	 M-115.6,346.6c0,0.3-0.1,0.7-0.2,1c0,0.1,0.1,0.1,0.2,0.1c0.1-0.3,0.1-0.6,0.2-1C-115.6,346.7-115.6,346.7-115.6,346.6z
	 M-113.6,341.8c0,0.2-0.1,0.4-0.2,0.6c0.1,0,0.1,0.1,0.2,0.1c0-0.3,0-0.4,0.2-0.6C-113.5,341.8-113.5,341.8-113.6,341.8z
	 M-111.9,340.2L-111.9,340.2L-111.9,340.2c-0.2,0.1-0.3,0.3-0.4,0.5l-0.1,0.1l0,0c0,0,0-0.1,0-0.1c0,0.1-0.1,0.2-0.1,0.2
	c0,0,0,0,0,0c0,0-0.1,0.1-0.2,0.1h-0.1c0,0.1-0.1,0.2-0.1,0.3h0.4c0.1-0.2,0.2-0.3,0.3-0.5c0.1-0.2,0.2-0.4,0.3-0.5h0.1
	C-111.8,340.3-111.8,340.3-111.9,340.2z M-109,390.9C-109,390.8-109,390.8-109,390.9l-0.1-0.1c0,0.1-0.1,0.1-0.2,0.1
	c0,0.1,0.1,0.2,0.1,0.2h0.1C-109,391.1-109,391-109,390.9C-108.9,391-108.9,391-109,390.9z M-106.9,392.3
	C-106.9,392.3-106.9,392.4-106.9,392.3L-106.9,392.3C-106.9,392.4-106.9,392.3-106.9,392.3z M-105.1,332.5c-0.1,0.4-0.3,0.5-0.6,0.7
	c0.2,0.1,0.3,0.1,0.3,0.1c0.1-0.2,0.3-0.5,0.5-0.7C-105,332.6-105,332.5-105.1,332.5z M-104,367.5c0,0.1,0,0.1,0,0.1
	c0,0.1,0,0.1-0.1,0.2c0.2,0.1,0.3,0.1,0.5,0.2c0,0,0-0.1,0-0.2C-103.7,367.7-103.9,367.6-104,367.5z M-103.4,390
	c-0.8,0.1-1.7,0.3-2.5,0.5c0.1,0,0.1,0.1,0.1,0.2c0.9-0.1,1.7-0.4,2.5-0.4C-103.3,390.2-103.4,390.1-103.4,390z M-102.6,370.2
	c0.1,0.2,0.2,0.2,0.2,0.3C-102.4,370.4-102.5,370.3-102.6,370.2z M-102.8,391.9h0.3C-102.6,391.7-102.8,391.7-102.8,391.9z
	 M-102.1,370c0-0.1-0.1-0.1-0.1-0.2c0,0,0,0-0.1,0c-0.1,0-0.3,0-0.6,0c0.2,0.2,0.3,0.3,0.4,0.5c0.1,0.1,0.2,0.3,0.3,0.4
	c0.1,0,0.2-0.1,0.3-0.1C-102,370.3-102,370.1-102.1,370z M-101.6,389.7v-0.1c-0.2,0-0.5,0-0.7,0.1v0.3
	C-102.1,389.9-101.8,389.9-101.6,389.7L-101.6,389.7c0,0,0.1,0,0.1,0C-101.5,389.7-101.6,389.7-101.6,389.7z M-99.8,371.9
	c-0.1,0-0.2-0.1-0.2-0.1c-0.4-0.3-0.8-0.5-1.2-0.7c0,0.2,0.1,0.3,0.1,0.4c0.1,0.2,0.1,0.4,0.2,0.5c0.1,0,0.1,0.1,0.2,0.1
	c0.1,0,0.1,0,0.1,0s0.1,0,0.2,0C-100.2,372.1-100,372.1-99.8,371.9C-99.8,372-99.8,372-99.8,371.9C-99.8,372-99.8,372-99.8,371.9
	C-99.7,372-99.7,372-99.8,371.9l0.2,0C-99.7,371.9-99.8,371.9-99.8,371.9z M-99.7,372C-99.7,372-99.6,372-99.7,372
	C-99.6,371.9-99.6,371.9-99.7,372z M-98.4,372.2c0,0,0.1,0,0.2-0.1C-98.3,372.1-98.3,372.1-98.4,372.2z M-98.8,373.2
	c0.3,0.1,0.4,0,0.5,0H-98.8z M-98.4,371.6c-0.1,0.1-0.1,0.1-0.2,0.1c0,0.2,0.1,0.3,0.1,0.3c0.1,0,0.2-0.1,0.2-0.1L-98.4,371.6z
	 M-98.3,390.6h-0.6c-0.3,0-0.6,0.1-0.8,0.1h-0.2c-0.2,0.1-0.5,0.1-0.7,0.2c-0.2,0.1-0.3,0.1-0.5,0.2c-0.2,0-0.3,0.1-0.4,0.1
	c-0.3,0.1-0.6,0.2-0.9,0.3c-0.1,0-0.3,0.1-0.5,0.2v0c0,0,0,0,0,0s0,0,0,0c0.4-0.1,0.7-0.1,1.1-0.2c0.4-0.1,0.8,0.2,1.4-0.1
	c0.7-0.4,1.4-0.5,2.2-0.7C-98.2,390.7-98.2,390.7-98.3,390.6c0.1,0.1,0.2,0,0.2-0.1C-98.1,390.5-98.2,390.5-98.3,390.6z
	 M-98.2,372.8c-0.2-0.1-0.4-0.3-0.7-0.4c-0.1,0.3-0.2,0.4-0.3,0.6c0.2,0,0.4,0.1,0.5,0.1c0.3,0.1,0.4,0.1,0.5,0
	C-98.1,373.1-98.1,373-98.2,372.8z M-98,369.1c-0.3-0.1-0.6-0.2-0.9-0.2c0.6,0.6,0.6,0.6,1.3,0.2C-97.8,369.1-97.8,369-98,369.1z
	 M-95.2,374.1v0.1c0,0,0,0,0,0.1c0.1,0.2,0.1,0.2,0.2,0.1c0.1-0.1,0.1-0.1,0.1-0.2C-95,374.2-95.1,374.1-95.2,374.1z M-94.6,375.4
	C-94.6,375.3-94.6,375.2-94.6,375.4c-0.2,0.1-0.4,0.1-0.5,0.2c0,0,0,0,0,0.1c0,0,0.1,0.1,0.2,0.1C-94.8,375.7-94.7,375.6-94.6,375.4
	L-94.6,375.4c0,0,0.1,0,0.1,0C-94.5,375.4-94.6,375.4-94.6,375.4z M-93.3,376.1c-0.1,0.1-0.1,0.1-0.2,0.2c0.1,0.1,0.2,0.2,0.4,0.3
	c0.2,0.1,0.3,0.2,0.5,0.3C-92.6,376.2-92.6,376.2-93.3,376.1z M-90.9,376.9c0,0.1,0,0.1,0,0.1c-0.1,0-0.1-0.1-0.2-0.1
	c0-0.1-0.1-0.1-0.1-0.2l-0.1,0.1c0,0,0,0.1-0.1,0.1c0.1,0.1,0.2,0.3,0.3,0.4c0.1,0,0.2-0.1,0.3-0.2C-90.8,377-90.9,377-90.9,376.9z
	 M-88.4,378.6c-0.1,0.2-0.1,0.3-0.2,0.4c0.1,0,0.1,0.1,0.2,0.1c0,0.2,0.1,0.4,0.3,0.5C-87.8,379.2-88.3,379-88.4,378.6z
	 M-87.8,380.6c0.1,0,0.1,0,0.2-0.1L-87.8,380.6z M-87.7,379.8C-87.7,379.8-87.6,379.8-87.7,379.8C-87.6,379.8-87.6,379.7-87.7,379.8
	C-87.6,379.7-87.6,379.7-87.7,379.8z M-87.4,379.3l-0.1-0.1c0,0.3-0.1,0.4-0.1,0.5c0,0,0.1,0,0.1,0c0.1,0,0.1,0,0.1,0
	c0.1,0,0.1-0.1,0.1-0.2C-87.3,379.4-87.3,379.4-87.4,379.3z M-87.4,379.3l-0.1-0.1c0,0.3-0.1,0.4-0.1,0.5c0,0,0.1,0,0.1,0
	c0.1,0,0.1,0,0.1,0c0.1,0,0.1-0.1,0.1-0.2C-87.3,379.4-87.3,379.4-87.4,379.3z M-87.7,379.8C-87.7,379.8-87.6,379.8-87.7,379.8
	C-87.6,379.8-87.6,379.7-87.7,379.8C-87.6,379.7-87.6,379.7-87.7,379.8z M-87.8,380.6c0.1,0,0.1,0,0.2-0.1L-87.8,380.6z
	 M-88.4,378.6c-0.1,0.2-0.1,0.3-0.2,0.4c0.1,0,0.1,0.1,0.2,0.1c0,0.2,0.1,0.4,0.3,0.5C-87.8,379.2-88.3,379-88.4,378.6z
	 M-90.9,376.9c0,0.1,0,0.1,0,0.1c-0.1,0-0.1-0.1-0.2-0.1c0-0.1-0.1-0.1-0.1-0.2l-0.1,0.1c0,0,0,0.1-0.1,0.1c0.1,0.1,0.2,0.3,0.3,0.4
	c0.1,0,0.2-0.1,0.3-0.2C-90.8,377-90.9,377-90.9,376.9z M-93.3,376.1c-0.1,0.1-0.1,0.1-0.2,0.2c0.1,0.1,0.2,0.2,0.4,0.3
	c0.2,0.1,0.3,0.2,0.5,0.3C-92.6,376.2-92.6,376.2-93.3,376.1z M-94.6,375.4C-94.6,375.3-94.6,375.2-94.6,375.4
	c-0.2,0.1-0.4,0.1-0.5,0.2c0,0,0,0,0,0.1c0,0,0.1,0.1,0.2,0.1C-94.8,375.7-94.7,375.6-94.6,375.4L-94.6,375.4c0,0,0.1,0,0.1,0
	C-94.5,375.4-94.6,375.4-94.6,375.4z M-95.2,374.1v0.1c0,0,0,0,0,0.1c0.1,0.2,0.1,0.2,0.2,0.1c0.1-0.1,0.1-0.1,0.1-0.2
	C-95,374.2-95.1,374.1-95.2,374.1z M-98,369.1c-0.3-0.1-0.6-0.2-0.9-0.2c0.6,0.6,0.6,0.6,1.3,0.2C-97.8,369.1-97.8,369-98,369.1z
	 M-98.2,372.8c-0.2-0.1-0.4-0.3-0.7-0.4c-0.1,0.3-0.2,0.4-0.3,0.6c0.2,0,0.4,0.1,0.5,0.1c0.3,0.1,0.4,0.1,0.5,0
	C-98.1,373.1-98.1,373-98.2,372.8z M-98.3,390.6h-0.6c-0.3,0-0.6,0.1-0.8,0.1h-0.2c-0.2,0.1-0.5,0.1-0.7,0.2
	c-0.2,0.1-0.3,0.1-0.5,0.2c-0.2,0-0.3,0.1-0.4,0.1c-0.3,0.1-0.6,0.2-0.9,0.3c-0.1,0-0.3,0.1-0.5,0.2v0c0,0,0,0,0,0s0,0,0,0
	c0.4-0.1,0.7-0.1,1.1-0.2c0.4-0.1,0.8,0.2,1.4-0.1c0.7-0.4,1.4-0.5,2.2-0.7C-98.2,390.7-98.2,390.7-98.3,390.6
	c0.1,0.1,0.2,0,0.2-0.1C-98.1,390.5-98.2,390.5-98.3,390.6z M-98.4,371.6c-0.1,0.1-0.1,0.1-0.2,0.1c0,0.2,0.1,0.3,0.1,0.3
	c0.1,0,0.2-0.1,0.2-0.1L-98.4,371.6z M-98.8,373.2c0.3,0.1,0.4,0,0.5,0H-98.8z M-98.4,372.2c0,0,0.1,0,0.2-0.1
	C-98.3,372.1-98.3,372.1-98.4,372.2z M-99.7,372C-99.7,372-99.6,372-99.7,372C-99.6,371.9-99.6,371.9-99.7,372z M-99.8,371.9
	c-0.1,0-0.2-0.1-0.2-0.1c-0.4-0.3-0.8-0.5-1.2-0.7c0,0.2,0.1,0.3,0.1,0.4c0.1,0.2,0.1,0.4,0.2,0.5c0.1,0,0.1,0.1,0.2,0.1
	c0.1,0,0.1,0,0.1,0s0.1,0,0.2,0C-100.2,372.1-100,372.1-99.8,371.9C-99.8,372-99.8,372-99.8,371.9C-99.8,372-99.8,372-99.8,371.9
	C-99.7,372-99.7,372-99.8,371.9l0.2,0C-99.7,371.9-99.8,371.9-99.8,371.9z M-101.6,389.7v-0.1c-0.2,0-0.5,0-0.7,0.1v0.3
	C-102.1,389.9-101.8,389.9-101.6,389.7L-101.6,389.7c0,0,0.1,0,0.1,0C-101.5,389.7-101.6,389.7-101.6,389.7z M-102.1,370
	c0-0.1-0.1-0.1-0.1-0.2c0,0,0,0-0.1,0c-0.1,0-0.3,0-0.6,0c0.2,0.2,0.3,0.3,0.4,0.5c0.1,0.1,0.2,0.3,0.3,0.4c0.1,0,0.2-0.1,0.3-0.1
	C-102,370.3-102,370.1-102.1,370z M-102.8,391.9h0.3C-102.6,391.7-102.8,391.7-102.8,391.9z M-102.6,370.2c0.1,0.2,0.2,0.2,0.2,0.3
	C-102.4,370.4-102.5,370.3-102.6,370.2z M-103.4,390c-0.8,0.1-1.7,0.3-2.5,0.5c0.1,0,0.1,0.1,0.1,0.2c0.9-0.1,1.7-0.4,2.5-0.4
	C-103.3,390.2-103.4,390.1-103.4,390z M-104,367.5c0,0.1,0,0.1,0,0.1c0,0.1,0,0.1-0.1,0.2c0.2,0.1,0.3,0.1,0.5,0.2c0,0,0-0.1,0-0.2
	C-103.7,367.7-103.9,367.6-104,367.5z M-105.1,332.5c-0.1,0.4-0.3,0.5-0.6,0.7c0.2,0.1,0.3,0.1,0.3,0.1c0.1-0.2,0.3-0.5,0.5-0.7
	C-105,332.6-105,332.5-105.1,332.5z M-106.9,392.3C-106.9,392.3-106.9,392.4-106.9,392.3L-106.9,392.3
	C-106.9,392.4-106.9,392.3-106.9,392.3z M-107.2,392.6L-107.2,392.6C-107.1,392.7-107.1,392.6-107.2,392.6z M-109,390.9
	C-109,390.8-109,390.8-109,390.9l-0.1-0.1c0,0.1-0.1,0.1-0.2,0.1c0,0.1,0.1,0.2,0.1,0.2h0.1C-109,391.1-109,391-109,390.9
	C-108.9,391-108.9,391-109,390.9z M-111.9,340.2L-111.9,340.2L-111.9,340.2c-0.2,0.1-0.3,0.3-0.4,0.5l-0.1,0.1l0,0c0,0,0-0.1,0-0.1
	c0,0.1-0.1,0.2-0.1,0.2c0,0,0,0,0,0c0,0-0.1,0.1-0.2,0.1h-0.1c0,0.1-0.1,0.2-0.1,0.3h0.4c0.1-0.2,0.2-0.3,0.3-0.5
	c0.1-0.2,0.2-0.4,0.3-0.5h0.1C-111.8,340.3-111.8,340.3-111.9,340.2z M-113.6,341.8c0,0.2-0.1,0.4-0.2,0.6c0.1,0,0.1,0.1,0.2,0.1
	c0-0.3,0-0.4,0.2-0.6C-113.5,341.8-113.5,341.8-113.6,341.8z M-115.6,346.6c0,0.3-0.1,0.7-0.2,1c0,0.1,0.1,0.1,0.2,0.1
	c0.1-0.3,0.1-0.6,0.2-1C-115.6,346.7-115.6,346.7-115.6,346.6z M-115.6,346.6c0,0.3-0.1,0.7-0.2,1c0,0.1,0.1,0.1,0.2,0.1
	c0.1-0.3,0.1-0.6,0.2-1C-115.6,346.7-115.6,346.7-115.6,346.6z M-113.6,341.8c0,0.2-0.1,0.4-0.2,0.6c0.1,0,0.1,0.1,0.2,0.1
	c0-0.3,0-0.4,0.2-0.6C-113.5,341.8-113.5,341.8-113.6,341.8z M-111.9,340.2L-111.9,340.2L-111.9,340.2c-0.2,0.1-0.3,0.3-0.4,0.5
	l-0.1,0.1l0,0c0,0,0-0.1,0-0.1c0,0.1-0.1,0.2-0.1,0.2c0,0,0,0,0,0c0,0-0.1,0.1-0.2,0.1h-0.1c0,0.1-0.1,0.2-0.1,0.3h0.4
	c0.1-0.2,0.2-0.3,0.3-0.5c0.1-0.2,0.2-0.4,0.3-0.5h0.1C-111.8,340.3-111.8,340.3-111.9,340.2z M-109,390.9
	C-109,390.8-109,390.8-109,390.9l-0.1-0.1c0,0.1-0.1,0.1-0.2,0.1c0,0.1,0.1,0.2,0.1,0.2h0.1C-109,391.1-109,391-109,390.9
	C-108.9,391-108.9,391-109,390.9z M-106.9,392.3C-106.9,392.3-106.9,392.4-106.9,392.3L-106.9,392.3
	C-106.9,392.4-106.9,392.3-106.9,392.3z M-105.1,332.5c-0.1,0.4-0.3,0.5-0.6,0.7c0.2,0.1,0.3,0.1,0.3,0.1c0.1-0.2,0.3-0.5,0.5-0.7
	C-105,332.6-105,332.5-105.1,332.5z M-104,367.5c0,0.1,0,0.1,0,0.1c0,0.1,0,0.1-0.1,0.2c0.2,0.1,0.3,0.1,0.5,0.2c0,0,0-0.1,0-0.2
	C-103.7,367.7-103.9,367.6-104,367.5z M-103.4,390c-0.8,0.1-1.7,0.3-2.5,0.5c0.1,0,0.1,0.1,0.1,0.2c0.9-0.1,1.7-0.4,2.5-0.4
	C-103.3,390.2-103.4,390.1-103.4,390z M-102.6,370.2c0.1,0.2,0.2,0.2,0.2,0.3C-102.4,370.4-102.5,370.3-102.6,370.2z M-102.8,391.9
	h0.3C-102.6,391.7-102.8,391.7-102.8,391.9z M-102.1,370c0-0.1-0.1-0.1-0.1-0.2c0,0,0,0-0.1,0c-0.1,0-0.3,0-0.6,0
	c0.2,0.2,0.3,0.3,0.4,0.5c0.1,0.1,0.2,0.3,0.3,0.4c0.1,0,0.2-0.1,0.3-0.1C-102,370.3-102,370.1-102.1,370z M-101.6,389.7v-0.1
	c-0.2,0-0.5,0-0.7,0.1v0.3C-102.1,389.9-101.8,389.9-101.6,389.7L-101.6,389.7c0,0,0.1,0,0.1,0
	C-101.5,389.7-101.6,389.7-101.6,389.7z M-99.8,371.9c-0.1,0-0.2-0.1-0.2-0.1c-0.4-0.3-0.8-0.5-1.2-0.7c0,0.2,0.1,0.3,0.1,0.4
	c0.1,0.2,0.1,0.4,0.2,0.5c0.1,0,0.1,0.1,0.2,0.1c0.1,0,0.1,0,0.1,0s0.1,0,0.2,0C-100.2,372.1-100,372.1-99.8,371.9
	C-99.8,372-99.8,372-99.8,371.9C-99.8,372-99.8,372-99.8,371.9C-99.7,372-99.7,372-99.8,371.9l0.2,0
	C-99.7,371.9-99.8,371.9-99.8,371.9z M-99.7,372C-99.7,372-99.6,372-99.7,372C-99.6,371.9-99.6,371.9-99.7,372z M-98.4,372.2
	c0,0,0.1,0,0.2-0.1C-98.3,372.1-98.3,372.1-98.4,372.2z M-98.8,373.2c0.3,0.1,0.4,0,0.5,0H-98.8z M-98.4,371.6
	c-0.1,0.1-0.1,0.1-0.2,0.1c0,0.2,0.1,0.3,0.1,0.3c0.1,0,0.2-0.1,0.2-0.1L-98.4,371.6z M-98.3,390.6h-0.6c-0.3,0-0.6,0.1-0.8,0.1
	h-0.2c-0.2,0.1-0.5,0.1-0.7,0.2c-0.2,0.1-0.3,0.1-0.5,0.2c-0.2,0-0.3,0.1-0.4,0.1c-0.3,0.1-0.6,0.2-0.9,0.3c-0.1,0-0.3,0.1-0.5,0.2
	v0c0,0,0,0,0,0s0,0,0,0c0.4-0.1,0.7-0.1,1.1-0.2c0.4-0.1,0.8,0.2,1.4-0.1c0.7-0.4,1.4-0.5,2.2-0.7
	C-98.2,390.7-98.2,390.7-98.3,390.6c0.1,0.1,0.2,0,0.2-0.1C-98.1,390.5-98.2,390.5-98.3,390.6z M-98.2,372.8
	c-0.2-0.1-0.4-0.3-0.7-0.4c-0.1,0.3-0.2,0.4-0.3,0.6c0.2,0,0.4,0.1,0.5,0.1c0.3,0.1,0.4,0.1,0.5,0C-98.1,373.1-98.1,373-98.2,372.8z
	 M-98,369.1c-0.3-0.1-0.6-0.2-0.9-0.2c0.6,0.6,0.6,0.6,1.3,0.2C-97.8,369.1-97.8,369-98,369.1z M-95.2,374.1v0.1c0,0,0,0,0,0.1
	c0.1,0.2,0.1,0.2,0.2,0.1c0.1-0.1,0.1-0.1,0.1-0.2C-95,374.2-95.1,374.1-95.2,374.1z M-94.6,375.4
	C-94.6,375.3-94.6,375.2-94.6,375.4c-0.2,0.1-0.4,0.1-0.5,0.2c0,0,0,0,0,0.1c0,0,0.1,0.1,0.2,0.1C-94.8,375.7-94.7,375.6-94.6,375.4
	L-94.6,375.4c0,0,0.1,0,0.1,0C-94.5,375.4-94.6,375.4-94.6,375.4z M-93.3,376.1c-0.1,0.1-0.1,0.1-0.2,0.2c0.1,0.1,0.2,0.2,0.4,0.3
	c0.2,0.1,0.3,0.2,0.5,0.3C-92.6,376.2-92.6,376.2-93.3,376.1z M-90.9,376.9c0,0.1,0,0.1,0,0.1c-0.1,0-0.1-0.1-0.2-0.1
	c0-0.1-0.1-0.1-0.1-0.2l-0.1,0.1c0,0,0,0.1-0.1,0.1c0.1,0.1,0.2,0.3,0.3,0.4c0.1,0,0.2-0.1,0.3-0.2C-90.8,377-90.9,377-90.9,376.9z
	 M-90.8,345c-0.1,0.3-0.2,0.5-0.3,0.8c0.1,0.1,0.1,0.1,0.2,0.1c0.1-0.3,0.2-0.5,0.3-0.8C-90.6,345-90.8,345-90.8,345z M-89.7,343.7
	c0,0.1,0.1,0.3,0.1,0.4c0.1,0,0.2,0,0.2,0v-0.4H-89.7z M-89.3,348.8c0.1-0.1,0.2-0.2,0.2-0.3C-89.2,348.6-89.2,348.7-89.3,348.8z
	 M-88.2,344.7L-88.2,344.7C-88.2,344.7-88.2,344.7-88.2,344.7C-88.2,344.7-88.2,344.7-88.2,344.7z M-88.4,378.6
	c-0.1,0.2-0.1,0.3-0.2,0.4c0.1,0,0.1,0.1,0.2,0.1c0,0.2,0.1,0.4,0.3,0.5C-87.8,379.2-88.3,379-88.4,378.6z M-87.9,344.3
	c0-0.1-0.1-0.3-0.1-0.4c-0.1,0-0.1,0-0.2,0c0,0.1,0,0.1,0,0.1v0.3c-0.1,0.1-0.1,0.2-0.1,0.3c0,0,0.1,0.1,0.1,0.1
	c0-0.1,0-0.2,0.1-0.3c0,0.1,0,0.2-0.1,0.3c0,0,0.1,0,0.1,0C-87.9,344.7-87.8,344.6-87.9,344.3z M-87.8,340c0,0.1-0.1,0.1-0.1,0.2
	C-87.9,340-87.9,340-87.8,340l-0.1-0.1l-0.1-0.1c0,0.1-0.1,0.1-0.1,0.2c-0.1,0.1-0.2,0.3-0.3,0.4c0,0.1,0.1,0.1,0.1,0.1
	c0.1,0.1,0.1,0.1,0.1,0.1c0.2-0.1,0.3-0.3,0.4-0.4C-87.8,340.2-87.6,340.2-87.8,340z M-87.8,380.6c0.1,0,0.1,0,0.2-0.1L-87.8,380.6z
	 M-87.7,379.8C-87.7,379.8-87.6,379.8-87.7,379.8C-87.6,379.8-87.6,379.7-87.7,379.8C-87.6,379.7-87.6,379.7-87.7,379.8z
	 M-87.6,325.7c0,0.3,0,0.3,0.1,0.5C-87.5,326-87.6,325.9-87.6,325.7z M-87.4,379.3l-0.1-0.1c0,0.3-0.1,0.4-0.1,0.5c0,0,0.1,0,0.1,0
	c0.1,0,0.1,0,0.1,0c0.1,0,0.1-0.1,0.1-0.2C-87.3,379.4-87.3,379.4-87.4,379.3z M-87.5,325.7c0,0.2,0.1,0.3,0.2,0.5v-0.5H-87.5z
	 M-85.8,325.4L-85.8,325.4L-85.8,325.4C-85.8,325.5-85.8,325.4-85.8,325.4z M-84.6,330.8L-84.6,330.8
	C-84.6,330.8-84.6,330.8-84.6,330.8C-84.6,330.8-84.6,330.8-84.6,330.8z M-84.6,330.7c0,0,0,0.1,0,0.1
	C-84.6,330.8-84.6,330.8-84.6,330.7C-84.6,330.7-84.6,330.7-84.6,330.7z M-84.3,332c0-0.1-0.1-0.1-0.2-0.1c0,0.2-0.1,0.4-0.1,0.6
	h0.3l0-0.1c0,0,0,0,0,0c0-0.1,0-0.1,0-0.2C-84.2,332.1-84.3,332-84.3,332z M-84.1,331.2c0-0.1,0-0.1-0.1-0.2l0,0
	c-0.1-0.1-0.1-0.2-0.2-0.3c-0.1,0-0.1,0.1-0.2,0.1c0,0.1,0.1,0.2,0.1,0.4c0,0,0-0.1-0.1-0.1c0,0.1,0.1,0.2,0.1,0.4
	C-84.3,331.3-84.2,331.3-84.1,331.2L-84.1,331.2C-84.1,331.1-84.1,331.2-84.1,331.2z M-40.6,365.8c-0.1,0-0.2,0-0.2,0v0.4
	c0.2,0,0.3,0,0.3,0C-40.5,366.1-40.6,365.9-40.6,365.8z M-40.6,365.8c-0.1,0-0.2,0-0.2,0v0.4c0.2,0,0.3,0,0.3,0
	C-40.5,366.1-40.6,365.9-40.6,365.8z M-87.4,379.3l-0.1-0.1c0,0.3-0.1,0.4-0.1,0.5c0,0,0.1,0,0.1,0c0.1,0,0.1,0,0.1,0
	c0.1,0,0.1-0.1,0.1-0.2C-87.3,379.4-87.3,379.4-87.4,379.3z M-87.6,379.8C-87.6,379.8-87.6,379.7-87.6,379.8
	C-87.6,379.7-87.6,379.7-87.6,379.8C-87.7,379.8-87.6,379.8-87.6,379.8z M-87.6,380.5l-0.2,0.1C-87.7,380.6-87.7,380.6-87.6,380.5z
	 M-88.5,379c0.1,0,0.1,0.1,0.2,0.1c0,0.2,0.1,0.4,0.3,0.5c0.3-0.4-0.2-0.6-0.3-1C-88.5,378.8-88.5,378.9-88.5,379z M-90.8,377
	c-0.1,0-0.1-0.1-0.2-0.1c0-0.1-0.1-0.1-0.1-0.2l-0.1,0.1c0,0,0,0.1-0.1,0.1c0.1,0.1,0.2,0.3,0.3,0.4C-91,377.3-90.9,377.2-90.8,377
	c0.1,0,0,0,0-0.1C-90.9,377-90.9,377-90.8,377z M-93.3,376.1c-0.1,0.1-0.1,0.1-0.2,0.2c0.1,0.1,0.2,0.2,0.4,0.3
	c0.2,0.1,0.3,0.2,0.5,0.3C-92.6,376.2-92.6,376.2-93.3,376.1z M-94.7,375.4c-0.1,0.1-0.3,0.1-0.4,0.2c0,0,0,0,0,0.1
	c0,0,0.1,0.1,0.2,0.1C-94.8,375.7-94.7,375.6-94.7,375.4L-94.7,375.4c0.1,0,0.2,0,0.2,0C-94.5,375.4-94.6,375.4-94.7,375.4
	C-94.6,375.3-94.6,375.2-94.7,375.4z M-95,374.4c0.1-0.1,0.1-0.1,0.1-0.2c-0.1,0-0.2-0.1-0.3-0.1v0.1c0,0,0,0,0,0.1
	C-95.1,374.5-95.1,374.5-95,374.4z M-98,369.1c-0.3-0.1-0.6-0.2-0.9-0.2c0.6,0.6,0.6,0.6,1.3,0.2C-97.8,369.1-97.8,369-98,369.1z
	 M-98.2,373.1c0.1,0,0.1-0.1,0-0.3c-0.2-0.1-0.4-0.3-0.7-0.4c-0.1,0.3-0.2,0.4-0.3,0.6c0.2,0,0.4,0.1,0.5,0.1
	C-98.4,373.2-98.3,373.2-98.2,373.1z M-98.9,390.6c-0.3,0-0.6,0.1-0.8,0.1h-0.2c-0.2,0.1-0.5,0.1-0.7,0.2c-0.2,0.1-0.3,0.1-0.5,0.2
	c-0.2,0-0.3,0.1-0.4,0.1c-0.3,0.1-0.6,0.2-0.9,0.3c-0.1,0-0.3,0.1-0.5,0.2v0c0,0,0,0,0,0s0,0,0,0c0.4-0.1,0.7-0.1,1.1-0.2
	c0.4-0.1,0.8,0.2,1.4-0.1c0.7-0.4,1.4-0.5,2.2-0.7c0,0,0,0,0,0c0,0,0.1-0.1,0.1-0.2c0,0-0.1,0-0.2,0.1H-98.9z M-98.6,371.7
	c0,0.2,0.1,0.3,0.1,0.3c0.1,0,0.2-0.1,0.2-0.1l-0.1-0.3C-98.5,371.7-98.5,371.7-98.6,371.7z M-98.3,373.2h-0.5
	C-98.5,373.3-98.4,373.2-98.3,373.2z M-98.4,372.2c0,0,0.1,0,0.2-0.1C-98.3,372.1-98.3,372.1-98.4,372.2z M-99.6,372
	C-99.6,371.9-99.6,371.9-99.6,372C-99.7,372-99.6,372-99.6,372z M-100.8,372c0.1,0,0.1,0.1,0.2,0.1c0.1,0,0.1,0,0.1,0s0.1,0,0.2,0
	c0.2,0,0.4,0,0.6-0.1c0,0,0,0,0,0c0,0,0,0,0,0c0,0,0,0,0,0l0.1-0.1c-0.1,0-0.2,0-0.2,0c-0.1,0-0.2-0.1-0.2-0.1
	c-0.4-0.3-0.8-0.5-1.2-0.7c0,0.2,0.1,0.3,0.1,0.4C-101,371.7-101,371.8-100.8,372z M-102.3,389.7v0.3c0.2-0.1,0.5-0.1,0.7-0.2v-0.1
	c0,0,0.1,0,0.1,0c0,0-0.1,0-0.1,0v-0.1C-101.8,389.6-102.1,389.6-102.3,389.7z M-102.2,370.7c0.1,0,0.2-0.1,0.3-0.1
	c-0.1-0.3-0.1-0.5-0.2-0.6c0-0.1-0.1-0.1-0.1-0.2c0,0,0,0-0.1,0c-0.1,0-0.3,0-0.6,0c0.2,0.2,0.3,0.3,0.4,0.5
	C-102.4,370.4-102.3,370.6-102.2,370.7z M-102.8,391.9h0.3C-102.6,391.7-102.8,391.7-102.8,391.9z M-102.4,370.5
	c0-0.1-0.1-0.2-0.2-0.3C-102.5,370.3-102.4,370.4-102.4,370.5z M-105.9,390.5c0.1,0,0.1,0.1,0.1,0.2c0.9-0.1,1.7-0.4,2.5-0.4
	c0-0.1-0.1-0.2-0.1-0.3C-104.2,390.1-105.1,390.3-105.9,390.5z M-103.6,367.8c-0.1-0.1-0.3-0.2-0.4-0.3c0,0.1,0,0.1,0,0.1
	c0,0.1,0,0.1-0.1,0.2c0.2,0.1,0.3,0.1,0.5,0.2C-103.6,368-103.6,367.9-103.6,367.8z M-104.9,332.6c-0.1,0-0.1-0.1-0.2-0.1
	c-0.1,0.4-0.3,0.5-0.6,0.7c0.2,0.1,0.3,0.1,0.3,0.1C-105.3,333.1-105.1,332.8-104.9,332.6z M-106.9,392.4L-106.9,392.4
	C-106.9,392.4-106.9,392.3-106.9,392.4C-106.9,392.3-106.9,392.4-106.9,392.4z M-107.2,392.6L-107.2,392.6
	C-107.1,392.7-107.1,392.6-107.2,392.6z M-109,390.8h-0.1c0,0.1-0.1,0.1-0.2,0.1c0,0.1,0.1,0.2,0.1,0.2h0.1c0.1,0,0.1-0.1,0.2-0.1
	C-108.9,391-108.9,391-109,390.8C-109,390.8-109,390.8-109,390.8z M-111.9,340.1L-111.9,340.1c-0.2,0.2-0.3,0.4-0.4,0.6l-0.1,0.1
	l0,0c0,0,0-0.1,0-0.1c0,0.1-0.1,0.2-0.1,0.2c0,0,0,0,0,0c0,0-0.1,0.1-0.2,0.1h-0.1c0,0.1-0.1,0.2-0.1,0.3h0.4
	c0.1-0.2,0.2-0.3,0.3-0.5c0.1-0.2,0.2-0.4,0.3-0.5h0.1C-111.8,340.3-111.8,340.3-111.9,340.1L-111.9,340.1z M-113.8,342.4
	c0.1,0,0.1,0.1,0.2,0.1c0-0.3,0-0.4,0.2-0.6c-0.1-0.1-0.1-0.1-0.2-0.1C-113.6,342-113.7,342.2-113.8,342.4z M-115.6,346.6
	c0,0.3-0.1,0.7-0.2,1c0,0.1,0.1,0.1,0.2,0.1c0.1-0.3,0.1-0.6,0.2-1C-115.6,346.7-115.6,346.7-115.6,346.6z M-84.1,331.2
	c0-0.1,0-0.1-0.1-0.2l0,0c-0.1-0.1-0.1-0.2-0.2-0.3c-0.1,0-0.1,0.1-0.2,0.1c0,0.1,0.1,0.2,0.1,0.4c0,0,0-0.1-0.1-0.1
	c0,0.1,0.1,0.2,0.1,0.4C-84.3,331.3-84.2,331.3-84.1,331.2L-84.1,331.2C-84.1,331.1-84.1,331.2-84.1,331.2z M-84.5,331.9
	c0,0.2-0.1,0.4-0.1,0.6h0.3l0-0.1c0,0,0,0,0,0c0-0.1,0-0.1,0-0.2c0-0.1,0-0.1,0-0.2C-84.3,331.9-84.4,331.9-84.5,331.9z
	 M-84.6,330.8C-84.6,330.8-84.6,330.8-84.6,330.8c0,0,0-0.1,0-0.1C-84.6,330.7-84.6,330.8-84.6,330.8z M-84.6,330.8
	C-84.6,330.8-84.6,330.8-84.6,330.8L-84.6,330.8C-84.6,330.8-84.6,330.8-84.6,330.8z M-85.8,325.5L-85.8,325.5
	C-85.8,325.5-85.8,325.4-85.8,325.5L-85.8,325.5z M-87.3,326.2v-0.5h-0.2C-87.5,325.9-87.4,326-87.3,326.2z M-87.5,326.2
	c0-0.2-0.1-0.3-0.1-0.5C-87.6,326-87.6,326-87.5,326.2z M-87.9,340.2c0-0.2,0-0.2,0.1-0.2l-0.1-0.1l-0.1-0.1c0,0.1-0.1,0.1-0.1,0.2
	c-0.1,0.1-0.2,0.3-0.3,0.4c0,0.1,0.1,0.1,0.1,0.1c0.1,0.1,0.1,0.1,0.1,0.1c0.2-0.1,0.3-0.3,0.4-0.4c0,0,0.2,0,0-0.2
	C-87.8,340.1-87.9,340.1-87.9,340.2z M-88,343.9c-0.1,0-0.1,0-0.2,0c0,0.1,0,0.1,0,0.1v0.3c-0.1,0.1-0.1,0.2-0.1,0.3
	c0,0,0.1,0.1,0.1,0.1c0-0.1,0-0.2,0.1-0.3c0,0.1,0,0.2-0.1,0.3c0,0,0.1,0,0.1,0c0.2,0,0.3-0.1,0.2-0.4C-87.9,344.2-88,344-88,343.9z
	 M-88.2,344.7C-88.2,344.7-88.2,344.7-88.2,344.7C-88.2,344.7-88.2,344.7-88.2,344.7L-88.2,344.7z M-89.1,348.5
	c-0.1,0.1-0.1,0.2-0.2,0.3C-89.2,348.7-89.1,348.6-89.1,348.5z M-89.6,344.1c0.1,0,0.2,0,0.2,0v-0.4h-0.3
	C-89.7,343.8-89.6,344-89.6,344.1z M-90.8,345c-0.1,0.3-0.2,0.5-0.3,0.8c0.1,0.1,0.1,0.1,0.2,0.1c0.1-0.3,0.2-0.5,0.3-0.8
	C-90.6,345-90.8,345-90.8,345z M-246,308.7v103h226v-103H-246z M-38,357.9c0.2,0.1,0.2,0.2,0.2,0.3c-0.1,0-0.1,0.1-0.2,0.1
	c-0.1-0.1-0.1-0.2-0.2-0.3C-38.2,358-38.1,358-38,357.9z M-39,357.1c-0.1,0.5-0.1,1.1-0.2,1.7H-40c0.3-0.6,0.6-1.1,0.8-1.7
	C-39.3,357-39.1,357-39,357.1z M-91.1,324c-0.2,0-0.3,0.1-0.6,0.1c-0.1-0.4-0.2-0.7-0.3-1.2C-91.4,323-91.2,323.5-91.1,324z
	 M-93.4,323.6h0.2c0,0.1,0,0.4,0,0.4h-0.3C-93.5,323.9-93.5,323.7-93.4,323.6z M-92.3,324.7c-0.3,0.5-0.4,0.8-0.7,1.3
	c-0.3-0.4-0.4-0.6-0.6-1C-93.2,325-92.9,324.9-92.3,324.7z M-94,351.7c0.4-2.2,1-4.3,1.9-6.3c0.3-0.7,0.6-1.4,0.9-2.1
	c0.2-0.7,0.5-1.5,0.6-2.3c0.4-2,0.7-4.1,1.3-6.1c0.5-1.8,0.7-3.6,1-5.4c0-0.2,0-0.3-0.1-0.5c-0.3-0.8-0.3-1.6-0.1-2.4
	c0.1,0,0.3,0.1,0.5,0.1c-0.2-0.3-0.3-0.5-0.5-0.8c-0.2,0.3-0.2,0.4-0.3,0.5c-0.8-0.3-1.5-0.5-2.3-0.8c0.3-1,0.6-1.8,0.9-2.8
	c0.1,0.1,0.4,0.2,0.7,0.4c-0.1,0.5-0.2,0.9-0.4,1.5h1.1c-0.1-0.4-0.1-0.8-0.1-1.1c0.7-1,1.4,0.2,2.1,0c0.8,0.9-0.8,1.8,0.2,2.7
	c0.3-0.3,0.6-0.6,0.8-0.9v-0.7c0.1,0,0.1,0,0.2,0v0.8h-0.2c0.3,0.8,0.7,1.4,0.5,2.3c0,0.1,0.2,0.4,0.4,0.7c0.1-0.6,0.2-1.1,0.2-1.6
	v-1.2c0.1,0.4,0.2,0.7,0.3,1c0.4,0.5,0.8,0.9,1.2,1.4c-0.4,0.4-1.4,0.4-0.9,1.3c0.2-0.1,0.5-0.3,0.7-0.5c0.3,0.1,0.2,1.1-0.4,1.5
	c0,1.1,0.1,2.2,0.2,3.4c0,0.1-0.2,0.2-0.4,0.3c0,0.9-0.1,1.7-0.2,2.5c0,0.5-0.2,1-0.3,1.5c-0.2,1.1-0.5,2.2-0.8,3.2
	c-0.3,0.9-0.5,1.8-0.8,2.7c-0.1,0.6-0.4,1.3-0.6,2.1c-0.1-0.3-0.2-0.5-0.3-0.8c-0.1,0-0.2,0.1-0.3,0.1c-0.1,1.2,0.7,2.7-0.4,3.5
	c-0.5,1.4-0.8,2.6-1.2,3.8c0-0.1-0.1-0.1-0.2-0.1c0.1-0.4,0.1-0.8,0.1-1.2h-0.3c-0.1,0.7-0.3,1.5-0.4,2.3c0,0.1,0.1,0.1,0.2,0.1
	c0.1-0.1,0.2-0.2,0.2-0.3c0.1-0.1,0.1-0.2,0.2-0.5c0.4,0.7,0.1,1.1,0,1.5c-0.5,1.4-1.2,2.7-1.4,4.1c-0.2,1.4-1,2.4-1.3,3.7
	c-0.1,0.3-0.3,0.5-0.5,0.7c-0.2,0.2-0.5,0.4-0.6,0.6c-0.5,1.2-1.6,1.7-2.7,2.1c-1.3-0.2-2.1-0.9-2.5-2.2c0-1.6,0.9-3.1,1.4-4.7
	c0.3-1,0.9-1.9,1-3.1c0.1-1.1,0.9-2,1.3-3C-94.3,352.4-94,352-94,351.7z M-97.8,326c1.1-0.2,2.1-0.4,3-0.6c-0.5,0.5-0.8,0.6-2.3,1.1
	c0,0.2,0.1,0.4,0.2,0.8c-0.2,0.1-0.3,0.2-0.5,0.3C-97.6,327-98.2,326.5-97.8,326z M-98.8,324.4c0.2,0.1,0.2,0.1,0.2,0.1
	c0,0.1-0.1,0.3-0.1,0.4c-0.1,0-0.1,0-0.2-0.1C-98.9,324.7-98.8,324.6-98.8,324.4z M-100.2,327.3c0.4,0,0.7,0,1.1-0.1
	c-0.1-0.2-0.1-0.5-0.2-0.7c0.1-0.2,0.2-0.3,0.4-0.6c0.2,0.5,0.4,0.8,0.6,1.2c-0.2,0.1-0.4,0.1-0.6,0.2v0.1c0.1,0.1,0.3,0.3,0.8,0.5
	c-0.5,0.4-0.9,0.6-1.2,0.9c0,0-0.1-0.1-0.2-0.1c0.1-0.2,0.2-0.4,0.2-0.6c-0.4,0.1-0.7,0.3-1.1,0.4c-0.1-0.3-0.2-0.6-0.4-1
	C-100.6,327.4-100.4,327.4-100.2,327.3z M-104.6,329.5c-0.2,0.2-0.3,0.5-0.5,0.7C-105.3,329.7-105.2,329.5-104.6,329.5z
	 M-106.6,330.9c0.2-0.1,0.3-0.3,0.4-0.4l0.2,0.2c-0.2,0.1-0.4,0.2-0.5,0.3c0.4,0.2,0.7,0.5,0.9,0.7c-0.8,0.7-1.1,0.2-1.6-0.3
	C-107,331.2-106.8,331-106.6,330.9z M-112.9,337.9c-0.5,0.9-0.9,1.8-1.5,2.8C-114.6,339.3-114.4,339-112.9,337.9z M-192.4,346
	C-192.6,345.9-192.4,345.9-192.4,346c0,0.1-0.1,0.2-0.1,0.4c-0.1,0-0.1-0.1-0.2-0.1C-192.6,346.1-192.6,346-192.4,346z M-195.3,376
	c-0.1,0-0.2,0.1-0.3,0.1c-0.1,0-0.2-0.1-0.6-0.2c0.5,0,0.7-0.1,0.9-0.1C-195.3,375.9-195.3,376-195.3,376z M-184.3,378.6
	c-0.3-0.1-0.6-0.2-0.9-0.3c0-0.1,0.1-0.2,0.1-0.2c0.2,0.1,0.5,0.1,0.8,0.2V378.6z M-183.5,378.9c0.6-0.3,0.7,0,1.1,0.3
	C-182.8,379.1-183.2,379-183.5,378.9z M-179.8,380.2c-0.2,0-0.4,0-0.6-0.1c0-0.1,0-0.1,0-0.2c0.3,0.1,0.3,0.1,0.6,0.1
	C-179.8,380.1-179.8,380.2-179.8,380.2z M-173.9,383.1c-0.2-0.1-0.3-0.1-0.7-0.3c0.4-0.2,0.5-0.2,0.8-0.2
	C-173.8,382.8-173.8,382.9-173.9,383.1z M-144.7,367.8c0,0-0.1,0.2-0.1,0.3c-0.3,1.3-0.5,2.5-0.8,3.8c-0.1,0.6-0.3,1.2-0.5,1.8
	c-0.3,0.9-0.7,1.8-0.8,2.8c0,0.6,0.2,1.3,0,2c-0.2,0.8-0.5,1.4-1.2,1.9c-0.5,0.4-1,0.9-1.6,1.4c-0.6-0.3-1.2-0.5-1.7-0.9
	c-1.2-0.9-1.5-2.1-1.3-3.6c0.2-1.4,0.6-2.8,1.1-4.1c0.6-1.6,0.9-3.3,1.4-5c0.2-0.6,0.3-1.1,0.4-1.7c-0.5,0-0.9,0.1-1.3,0.1
	c0.1,0,0.1,0.1,0.1,0.1c-0.5,0.3-1,0.6-1.6,0.9c-0.5-0.6-1.2-0.9-1.8-0.5c0.1,0.1,0.2,0.1,0.2,0.1c-0.2,0.1-0.4,0.2-0.6,0.3
	c0,0,0-0.1,0-0.1c-1.1,0.7-2.4,0.7-3.7,0.8c-0.8,0-1.6,0.1-2.5,0c-1-0.1-2,0.3-3.1,0.5c0.1,0.2,0.3,0.5,0.4,0.7
	c0.2,0.3,0.5,0.7,0.5,1c-0.1,1.4,0.8,2.5,1.2,4c-0.1,0.3-0.5,0.9,0.1,1.3c0.1,0.1,0.2,0.1,0.3,0.2c-0.1,0.4-0.3,0.8-0.4,1.2
	c-0.3,0-0.6-0.1-0.9-0.2c-0.3,0.6,0.4,1.4-0.4,1.9c-1.5,0-2.4-1.3-3.8-1.7c0.1-0.5,0.1-0.7,0.2-1.1c-0.6-0.4-1.3-0.8-1.8-1.1
	c-0.5-0.7-0.8-1.2-1.2-1.8c-0.1,0.1-0.1,0.1-0.2,0.2c-0.4-0.3-0.8-0.5-1.2-0.7c-0.8-0.4-1.5-0.8-2.3-1.2c-0.4-0.2-0.9-0.3-1.4-0.5
	c-0.1,0.1-0.2,0.3-0.4,0.5c-0.1-0.3-0.3-0.5-0.5-0.7c-0.2,0.1-0.4,0.1-0.5,0.3c-0.5,0.8-1,1.5-1.5,2.3c-0.4,0.6-0.7,1.2-1.2,1.9
	c1.6,0.7,3.5,0.9,4.9,2.3c0.5-0.1,1-0.1,1.5-0.2c0.6,0.6,1.3,1.2,2.3,1.1c0.1,0,0.3,0.1,0.4,0.2c0.7,0.5,1.4,0.9,2.2,1.2
	c0.7,0.3,1.5,0.7,2.3,0.9c0.4,0.2,0.8,0.6,1.2,0.8c1,0.5,2,1,2.9,1.4c0.5,1,0.1,1.7-0.2,2.5c-0.4,1.1-1.2,1.1-2,1.1
	c-0.1,0.2-0.2,0.4-0.4,0.8c-1.9-0.5-3.6-1.1-5.2-2.2c0.3-0.1,0.6-0.1,1.2-0.1c-1.1-0.6-1.9-1.5-3.3-1.2c0.3,0.2,0.6,0.4,0.8,0.6
	c-1,0-1.8-0.4-2.5-1c0.3,0,0.6,0.1,1.1,0.1c-0.4-0.4-0.6-0.7-0.8-1c-0.3,0-0.6,0.1-0.9,0.1c-0.1-0.6-0.4-0.9-1.1-0.7
	c-0.1-0.2-0.1-0.4-0.2-0.6c-0.3,0.1-0.6,0.1-0.9,0.1c-1.1-1.4-2.9-1.3-4.3-2.1c-0.3-1-0.6-1.2-1.9-0.9c0.1,0,0.1,0.1,0.2,0.1
	c0,0.1-0.1,0.2-0.1,0.2c-0.1,0-0.2-0.1-0.3-0.2c0,0,0,0,0,0c-0.5,0-1,0-1.1-0.6c-0.6,0-1.2,0.1-1.8,0.1v-1c-1.4-0.3-2.6-0.6-3.9-0.9
	c0,0.1-0.1,0.2-0.2,0.3c0.5,0.4,1,0.7,1.4,1c0.3-0.1,0.7-0.2,1.3-0.4c-0.2,0.5-0.3,0.7-0.5,1.1c-0.5-0.1-1-0.2-1.4-0.4
	c-0.3-0.1-0.3-0.6-0.8-0.8c-0.4-0.1-0.7-0.7-1-1.2c-0.3,0-0.7-0.1-1.2-0.1c0.1,0.3,0.1,0.5,0.2,0.7c-0.7-0.1-1.2-0.2-1.8-0.2
	c-0.1,0-0.3,0.1-0.4,0.1c0.6,0.2,1.2,0.4,1.8,0.6c-0.1,0.1-0.1,0.2-0.1,0.3c-0.8,0.3-1.5-0.3-2.3-0.3c-0.1-0.4-0.2-0.8-0.3-1.2
	c0.3-0.1,0.6-0.2,0.8-0.2c-0.1-0.6-1.1-0.6-2.2-0.1c-1.4-0.1-2.8-0.2-4.2-0.3c0,0,0,0.1,0,0.2c0.9,0.2,1.7,0.4,2.6,0.6
	c-1.2,0-2.3,0.5-3.4-0.2c-0.2-0.1-0.4-0.1-0.6-0.1h-5.8c-0.2,0-0.4-0.1-0.5,0c-0.8,0.3-1.7,0.6-2.5,1.1c-0.6,0.4-1.1,1-1.6,1.4
	c0.5,2.1-1.1,3.3-1.8,4.9c0.4-0.1,0.6-0.1,1-0.2c-0.5,0.6-0.8,1.1-1.1,1.4c0.1,0.7,0.1,1.2,0.1,1.7c0.1,0.5,0.2,1,0.3,1.7
	c-0.4,1.2-1,2.6-1.4,4.1c-0.3,1.2-0.5,2.4-0.9,3.6c-0.3,0.7-0.8,1.3-1.3,1.9c-0.1,0.2-0.3,0.3-0.5,0.5c-0.8,0.1-1.1-0.5-1.3-1.1
	c-1,0.7-1.2,0.7-2.7,0c0-1.8,0.3-3.6,0.8-5.4c0.5-1.7,0.9-3.3,1.4-5c0.1-0.3,0-0.6,0-0.9c-0.9,0.2-1.7,0.3-2.4,0.5
	c-0.2,0.4-0.4,0.8-0.5,1.1h-2.3c0.3,0.3,0.7,0.5,1.1,0.9c-0.7,0-1.2,0.9-2,0.3c0.1-0.5,0.1-1,0.2-1.6h0.3c0,0,0.1,0.1,0.1,0.1
	c0.2-0.4,0.4-0.8,0.7-1.2c0.3-0.4,0.7-0.6,1-0.9c-0.1-0.2-0.3-0.5-0.6-0.8c1-1.1,2.2-1.9,3.3-2.8c0.8-0.8,1.6-1.5,2.4-2.3
	c0.5-0.5,1-1,1.4-1.6c0.2-0.1,0.1-0.5,0.1-0.9c-1.4,0.3-2.6,0.6-3.8,0.8c-1.6,0.2-3.1,0.3-4.7,0.5c-0.8,0.1-1.6,0.3-2.5,0.5
	c-0.2,0.1-0.5,0.1-0.8,0.1c-0.3-1-1-1.8-0.7-2.9c1.1-0.5,2.1-1.5,3.5-1.4c0.3,0,0.7-0.5,1-0.8c0.9,0.6,1,0.6,1.8-0.2
	c1.5-0.4,2.6-0.8,3.8-1s2.5-0.1,3.6-0.8c0.2-1.2,0.9-2.3,0.8-3.7c-0.1-0.5,0.4-1.1,0.5-1.6c0.2-0.6,0.3-1.3,0.3-1.9
	c0.1-0.8,0.3-1.5,0.7-2.3c0.2-0.5,0-1.3,0.1-1.9s0.1-1.1,0.2-1.6c0.3-1.4,0.6-2.9,0.8-4.4s0.3-2.9,0.6-4.3c0.3-1.2,1.2-1.9,2.2-2.5
	c0.5-0.2,1-0.4,1.3-0.4c0.4,0.3,0.8,0.5,1.1,0.8c0.6,0.8,1.3,1.6,1,2.8c-0.3,0.9-0.2,1.8-0.6,2.8c-0.4,0.8-0.5,1.8-0.5,2.9
	c0.1,1-0.6,2-0.9,3.1c0.5,0.6,0.3,1.4,0.1,2.2c-0.3,1-0.5,1.9-0.5,2.9c0,0.9-0.4,1.9-0.7,2.8c-0.3,0.8-0.6,1.5-0.8,2
	c0.1,0.7,0.2,1.1,0.2,1.6c0.7-0.2,1.2-0.6,1.6-1.1c1.1-1.3,2.1-2.7,3.3-3.8c0.6-0.5,1.3-0.9,1.9-1.6c2-2.3,4.1-4.6,6.1-6.9
	c0.1-0.1,0.1-0.2,0.2-0.3c2.6-2.2,4.3-5.2,6.5-7.7c1-1.1,1.6-2.4,2.3-3.6c0.2-0.4,0.4-0.7-0.2-1.1c-0.1,0.5-0.2,0.8-0.3,1.1
	c-1.1,0.4-2.1,0.8-3.1,1.2l-0.1-0.1c-0.4-1.1-0.4-1.1,0.4-1.8c0.3-0.3,0.5-0.8,0.8-1.2c0.5-0.7,1-1.3,1.6-2
	c-0.1-0.1-0.3-0.3-0.7-0.6h1.3c0.3-0.2,0.5-0.4,0.9-0.7c-0.3-0.2-0.5-0.4-0.7-0.6c0-0.1,0.1-0.2,0.1-0.2c0.2,0.1,0.5,0.1,0.8,0.2
	c0-0.4,0.1-0.7,0.1-1c1.5-1.2,2.2-1.6,3.4-1.8c1,0.2,1.7,0.9,2.8,1.5c0.2,0.6,0.4,1.4,0.5,2.1c-0.2,0.5-0.4,0.8-0.5,1.2
	c-0.2,1.8-0.8,3.3-1.8,4.8c-0.5,0.7-0.9,1.6-1.4,2.3c-0.3,0.4-0.8,0.8-1.3,1.4c0,0.1,0,0.5-0.2,0.8c-0.9,1.3-1.7,2.5-2.7,3.7
	c-1,1.1-2,2.1-3,3.2c-1.2,1.3-2,2.9-3.6,3.8c-0.1,0.1-0.1,0.2-0.2,0.3c-0.6,1.5-2,2.2-3.2,3.1c-0.8,0.6-1.5,1.4-2,2.3
	c-0.5,1-1.4,1.3-2.1,2c-0.4,0.4-0.8,0.8-1.2,1.2h-0.6c0,0.1,0,0.1,0,0.2c0.2,0,0.4-0.1,0.6-0.1c0.6,0.1,1.2,0.3,2,0.5
	c0.1,0,0.4-0.2,0.7-0.3c1.6,0.4,3.3,0.9,5,0.3c0.3,0.2,0.5,0.4,0.8,0.6c0.3-0.1,0.6-0.2,1-0.3c0.5,1.4,2.1,0,2.6,0.9
	c1,0.2,1.8,0.2,2.6,0.4c0.7,0.2,1.3,0.7,1.9,1.1c0.3-0.2,0.5-0.4,0.7-0.6c0.5,0.2,0.9,0.4,1.3,0.6c0.1-0.8,0.2-1.5,0.3-2.2
	c-1.4-0.4-2.7-0.7-4.1-1.1c0.1-0.5,0.2-0.9,0.3-1.1c-0.2-1-0.5-1.9-0.7-2.8c1.1-1.4,2.8-1.4,4.3-1.6c1.5-0.1,2.9-0.3,4.4-0.5
	c0.9-0.1,1.4-0.7,1.8-1.4c0.8-1.5,1.6-3,2.5-4.4c0.5-0.7,1.1-1.3,1.6-2c0.1-0.2,0.2-0.3,0.3-0.5c0.7-2,2.2-3.5,3-5.4
	c0.5-1,1.5-1.1,2.8-0.2c0.2-0.1,0.5-0.1,0.7-0.1c0.9-0.1,1.6,0.6,1.5,1.5c-0.3,2.1-0.5,4.1-0.4,6.2c0,0.5-0.1,0.9-0.2,1.2
	c0.4,0.9,0.7,1.7,1.2,2.8c1.2,0.7,2.7,1.2,4.5,0.7c0.4-0.1,0.9,0.2,1.3,0.2c3.3,0,6.6-0.4,9.7-1.3c0.3-0.1,0.7-0.4,0.8-0.7
	c0.9-2.6,1.7-5.1,2.5-7.7c0-0.1,0-0.2-0.1-0.3c-0.6,0-1.2,0.1-1.9,0.1c-0.1,0.1-0.3,0.4-0.5,0.5c-0.9,0.4-1.7,0.6-2.6,0.9
	c-0.2,0.1-0.4,0.1-0.5,0.2c-1,0.5-1.8,1.2-2.8,1.6c-1.4,0.7-2.7,1.6-4,2.6c-0.3,0.2-0.6,0.4-0.7,0.7c-0.5,1-1.5,1.1-2.4,1.3
	c-1,0.2-1.6-0.4-2-1.4c0.1-0.1,0.2-0.4,0.1-0.7c-0.4-1.6,0.4-2.6,1.4-3.7c1.2-1.4,2.8-2.2,4.2-3.1c1.3-0.9,3-1.4,4.6-2
	c2.2-0.8,4.3-1.6,6.5-2.4c1.3-0.4,2.6-0.8,3.9-1.3c1-0.4,1.9-0.8,2.9-1.2c1.2-0.5,2.3-1,3.5-1.4c0.4-0.1,0.8-0.1,1.2-0.2l0.1-0.2
	c0.7,0.1,1.4,0.2,2.2,0.3c-0.3,0.3-0.5,0.6-0.7,1h1.9c0.1,0.1,0.1,0.3,0.1,0.5h0.5c0,0.1,0.1,0.2,0.3,0.5c-0.6,0.4-1.3,0.7-1.7,1.3
	c-0.6,0.8-1.4,1.2-2.2,1.7c-0.7,0.5-1.5,0.8-2.3,1.1c-0.9,0.4-1.7,0.8-2.1,1.8c-0.7,1.7-1.4,3.4-1.9,5.1c-0.5,1.6-1.3,3-1.5,4.7
	c0,0.3-0.4,0.6-0.6,0.9c0.2,0.7,0.5,1.2-0.3,1.8c-0.4,0.3-0.4,1.2-0.5,1.8C-144.1,366.4-144.1,367.2-144.7,367.8z M-191.6,346.3
	l0.5-0.3c-0.1,0.2-0.2,0.3-0.3,0.5C-191.5,346.5-191.5,346.4-191.6,346.3z M-188.8,368.7c0.2,0,0.4,0.2,0.6,0.2c0,0.1,0,0.1-0.1,0.2
	c-0.2-0.1-0.3-0.1-0.5-0.2C-188.8,368.9-188.8,368.8-188.8,368.7z M-136.8,373.1c-0.2,0.9-0.5,1.7-0.6,2.6c-0.2,1.4-0.2,2.8-0.4,4.2
	c-0.2,1.5-0.9,2.3-2.4,2.6c-0.4,0.1-0.9,0.4-1.3,0.3c-0.7-0.1-1.2-0.5-1.6-1.2c-1-1.9-0.4-3.7,0-5.5c0.6-2.7,1.5-5.3,1.5-8.1
	c0-0.2,0-0.5,0.1-0.7c0.7-1.7,1-3.5,1.2-5.3c0.2-1.9,0.6-3.8,1-5.7c0.2-0.8,0.6-1.6,1-2.4c0.4-0.8,0.9-1.3,1.9-0.9
	c0.2,0.1,0.5,0,0.8,0c0.3,0.8,1.1,0.7,1.8,1.1c0.4,1.4,0.2,2.9-0.1,4.4c-0.6,2.4-1.1,4.7-1.1,7.2c0,0.1,0,0.2-0.1,0.4
	c-0.4,1.7-0.7,3.4-1.2,5.1c-0.1,0.5-0.5,0.9-0.8,1.5C-137.1,372.7-136.9,372.9-136.8,373.1z M-72.1,363c-0.1,0.4-0.2,0.9-0.5,1.2
	c-0.6,0.6-0.7,1.5-0.8,2.3c-0.3,2.5-1.7,4.7-2.1,7.1c-0.2,1-0.8,1.9-0.4,3c-0.9,1.6-0.5,3.4-1.3,4.9l-3,0.6
	c-0.1-0.1-0.2-0.3-0.4-0.6c-1.3,2.6-3,4.5-5.8,5.5c0,0.1-0.1,0.2-0.1,0.5c-1-0.3-1.6,1.5-2.9,0.5c-0.2,0.3-0.2,0.6-0.3,0.8
	c-0.5-0.1-1-0.2-1.4-0.3c-0.3,0.6-0.2,1.8-1.3,0.9c-0.7,0.6-1.9-0.3-2.5,0.7c0,0-0.2,0-0.3,0c-0.7-0.2-1.2,0.2-1.6,0.7
	c-0.3,0-0.5-0.2-0.7-0.2c-0.2,0-0.5,0.1-0.7,0.1c0,0.1-0.1,0.1-0.1,0.2c-0.1,0.1-0.2,0.1-0.3,0.2c-0.2,0.1-0.5,0.1-0.7,0.1
	c-0.1,0-0.1,0-0.2,0c-0.1,0-0.1,0-0.2,0.1c0,0,0,0-0.1,0.1v0.1c-0.5,0.1-1,0.1-1.4,0.2c-0.2,0-0.3,0-0.5,0.1c-0.3,0-0.6,0.1-0.8,0.1
	c-0.1,0-0.2,0-0.4,0.1v-0.3c-1.1,0.2-2.3,0.4-3.4,0.6c-0.2,0-0.4,0.1-0.6,0.1c0,0,0,0.1,0,0.1c0,0,0,0-0.1-0.1c0,0,0,0,0,0
	c0,0.1,0.1,0.1,0.1,0.2c-0.1,0-0.2,0.1-0.3,0.1c0,0,0-0.1-0.1-0.1c0.1-0.1,0.2-0.1,0.3-0.2c-0.8,0.1-1.7,0.2-2.6,0.4
	c-0.4,0.1-0.9,0.1-1.3,0.2c0.1,0,0.2,0.1,0.3,0.1c-0.6,0.1-1.3,0.1-1.7,0.1c0.5-0.1,0.9-0.1,1.4-0.2c-1.1-0.4-1.1-0.3-1.4,0.2
	c-0.4,0.1-0.9,0.1-1.3,0.2c-0.3,0-0.6,0.3-1,0.6c-0.1-0.1-0.3-0.3-0.3-0.3h-3c-0.1,0.3-0.1,0.5-0.2,0.7c-1,0-2-0.1-3.1-0.2
	c-0.2-0.2-0.3-0.5-0.5-0.8c-0.6-0.3-1.3-0.6-2.1-0.9c0.5-0.7,1.5-0.1,1.7-1c-0.3-0.2-0.7-0.3-1.3-0.7c0.6-0.1,0.8-0.2,1.1-0.3
	c-0.1-0.1-0.1-0.3-0.2-0.5c0.6-0.3,1.2-0.6,1.9-1c0,0.2,0.1,0.4,0.2,0.7c0.4-0.1,0.8-0.2,1.1-0.3c0.4,0.5,0.9,0.9,1.3,1.4
	c0.6-0.3,1.1-0.7,1.7-0.8c1.1-0.3,2.1-0.3,3.2-0.5c1-0.2,2.1-0.4,3.2-0.6c0.3-0.1,0.5-0.4,0.8-0.6c0.2,0.1,0.4,0.4,0.7,0.6
	c0.7-0.4,1.4-0.8,2.2-1.2c0.9,0.4,1.9-0.1,3-0.4c0.6-0.1,1.1-0.3,1.7-0.5c0.6-0.1,1.1-0.3,1.6-0.3s0.5-0.6,1-0.6
	c0.8-0.1,1.6-0.5,2.4-0.8c0.9-0.3,1.8-0.6,2.7-0.9c1-0.4,2.1-0.8,3.1-1.2c0.5-0.3,0.9-0.7,1.2-1.2h0.8c-0.1-0.2-0.1-0.3-0.2-0.5
	c0.4-0.5,1.3-0.6,1.1-1.5l0,0c-0.2,0-0.3-0.1-0.5-0.2c0,0,0,0.1-0.1,0.1c-0.1,0-0.1,0.1-0.2,0.2c-0.1-0.2-0.2-0.5-0.2-0.8
	c0,0,0-0.1,0-0.1c-0.2-0.1-0.4-0.2-0.5-0.4c-1.1,0.1-1.9-0.8-2.7-1.3c-0.3-0.1-0.5-0.3-0.8-0.5v0.2c-0.2-0.2-0.3-0.3-0.5-0.4
	c-0.1-0.1-0.2-0.1-0.4-0.2c-0.5-0.2-1-0.3-1.4-0.6c0,0,0,0-0.1,0c-0.1-0.1-0.1-0.1-0.1-0.1c-0.3-0.2-0.6-0.5-0.8-1
	c-0.1-0.1-0.4-0.2-0.6-0.3c0.1-0.2,0.2-0.5,0.3-0.8c-0.3-0.5-0.6-1-1-1.7c-0.3,1,0.8,1.8-0.4,2.5c-0.2-0.2-0.3-0.4-0.5-0.6
	c0.3-0.4,0.3-0.4-0.1-0.7v0.6c-0.3-0.1-0.6-0.1-0.8-0.3c-0.5-0.5-1.1-0.9-1.7-1.3c0,0,0,0,0,0c-0.1,0-0.1-0.1-0.2-0.1
	c-0.8-0.5-1.6-1-2.4-1.4c-0.7-0.3-1.2-0.8-1.4-1.5h1.3c-0.3-0.5-0.5-0.8-0.8-1.3c-0.4-0.1-1-0.2-1.5-0.3c-0.1,0-0.1-0.1-0.1-0.1
	c-0.1-0.2-0.1-0.3-0.2-0.4c0-0.1-0.1-0.1-0.1-0.1c0-0.1-0.1-0.1-0.1-0.1h-0.1c-0.1,0-0.1,0-0.2,0c-0.1,0-0.2,0-0.2,0
	c0.3,0.2,0.5,0.5,0.8,0.7c0.2,0.4,0.4,0.8,0.5,1.2c-0.3-0.1-0.6,0-0.8-0.2c-1.3-1.1-2.7-2-3.8-3.4c-0.6-0.8-1.5-1.3-2.3-1.9
	c-0.3-0.2-0.7-0.5-0.9-0.8c-0.9-1.7-2.2-3.1-2.7-5c-0.2-0.7-0.6-1-1.4-1.1c-0.2,0.3-0.3,0.5-0.5,0.8c-0.1-0.1-0.3-0.2-0.5-0.4
	c-1,0.9-2.1,1.9-3.3,3.1c-1.2,0.4-4.7,3.4-5.2,4.7c1.1,0.1,2.2,0.2,3.3,0.3c0.6,1,1,2.1,0.7,3.3c-0.1,0.2-0.1,0.4-0.2,0.6
	c-0.5,1-3,2-4,1.7c-0.3-0.1-0.7-0.2-1.2-0.3c-0.4,1.4-0.9,2.7-1.3,4c-0.1,0.3,0.1,0.7,0.1,1c1,0.4,1.2-0.3,1.7-0.8v0.8
	c0.9,0.1,1.5-0.4,2.3-0.7c0.5-0.2,1-0.4,1.5-0.5c0.9-0.3,1.8-0.7,2.4-1.5c0.1-0.2,0.2-0.3,0.4-0.4c0.4-0.3,0.8-0.5,1.2-0.7
	c0.7-0.2,1.4-0.4,2.3-0.7c-0.1,0.1-0.1,0.3-0.1,0.5c0.6-0.1,1.2-0.1,1.7-0.2c0.6,0.7-0.3,0.7-0.4,1.3c0.5-0.1,1-0.2,1.6-0.3
	c0.2,0.2,0.4,0.5,0.8,0.9c-0.5,0.2-0.9,0.3-1.3,0.5c-0.1,0.4-0.1,0.9-0.2,1.6c-1.4,0.6-2.8,1.3-4.2,2c-1,0.6-1.9,1.4-3,1.9
	c-1.7,0.8-3.3,1.7-4.9,2.6c-0.8,0.5-1.7,0.7-2.6,1.1c-1.5,0.6-2.8,0.8-4.2-0.1c-0.8-0.5-0.9-0.7-0.6-1.8c-1.7-1-0.8-2.5-0.7-3.8
	c0-0.5,0.3-1,0.5-1.5c1-3.1,0.9-2.6,0.5-5.2c0.3-0.4,0.5-0.8,0.8-1.3c0-0.3-0.1-0.5-0.2-0.8c0.1,0,0.1,0,0.2,0
	c0.2-0.8,0.3-1.7,0.4-2.5c0.1-0.2,0.2-0.5,0.2-0.8c0.1-0.8,0.2-1.6,0.2-2.4c0-1.2,0.3-1.7,1.5-1.9c0.3-0.6,0.7-1.1,1-1.6
	c0.4-0.5,0.8-0.8,1.5-0.7c0.3,0,0.7-0.1,1-0.3c1-0.5,1.8-1.1,2.8-1.5c2.3-0.9,4.1-2.5,6-4c0.2-0.2,0.3-0.3,0.5-0.4
	c1.5-1.1,1.4-1.1,1.5-3.1c0.2-2.3,0.3-4.6,1.2-6.8c0.3-0.7,0.8-1,1.6-1.5c-0.5,1.1-0.2,2.3-1.4,2.8c-0.1,0.3-0.2,0.7-0.3,1
	c0,0.1,0.1,0.1,0.2,0.1c0-0.3,0.1-0.7,0.1-1c0.2,0.2,0.4,0.3,0.4,0.5c0,0.3-0.1,0.7,0,1c0.7-0.7,0.4-1.7,0.8-2.5
	c0.5-0.8,0.9-1.6,1.3-2.5c0.6,0.3-0.4,1,0.4,1.1h0.2c0.1-0.3,0.2-0.6,0.2-0.9c0-0.2-0.1-0.4-0.2-0.9c0.9-1.3,1.9-2.8,3-4.2h0.7
	c-0.1,0.3-0.2,0.6-0.3,0.8c-0.4,0.7-0.8,1.3-1.2,2c-0.5,0.1-0.4,0.6-0.4,1c-0.1,0.1-0.1,0.3-0.2,0.4c0,0.1-0.1,0.3-0.1,0.4
	c-0.1,0.2-0.1,0.5-0.2,0.7h-0.3c0.1,0.1,0.2,0.1,0.2,0.1h0.1c0.1,0,0.1,0,0.1,0c0-0.1,0-0.1,0-0.1c0.2-0.4,0.3-0.7,0.5-1.1
	c0.2-0.4,0.3-0.7,0.5-1.1c0.7-0.9,1.4-1.8,2.2-2.8c-0.3-0.4-0.6-0.6-0.9-0.9c-0.1-0.2-0.2-0.5-0.3-0.8h0.8c0.1-0.2,0.2-0.5,0.3-0.7
	c0.1,0,0.2,0.1,0.3,0.1c0,0.2-0.1,0.5-0.1,0.7c0.1,0.1,0.2,0.1,0.2,0.2c0,0.3-0.1,0.6-0.1,0.8c0.1,0,0.1,0,0.2,0
	c0.2-0.2,0.3-0.4,0.4-0.6c1.1-0.5,1.7-1.5,2.4-2.3c0.5-0.6,1-1.2,1.7-2c0.3,0.5,0.4,0.6,0.5,0.9c0.5-0.9,0.8-1.9,1.9-2.3
	c0.5,0.7-0.4,0.8-0.4,1.3c0,0.2,0.1,0.4,0.1,0.5c-0.6,0.4-1.1,0.7-1.7,1.1c0.1,0.1,0.2,0.3,0.3,0.4c-0.5,0.5-0.9,1.1-1.4,1.3
	c-0.8,0.3-0.3,0.9-0.8,1.3c-0.8,0.5-1.3,1.4-2,2.2c-0.2-0.1-0.4-0.1-0.7-0.1c-0.5,0.6-1,1.3-1.5,1.9c0.1,0.1,0.1,0.1,0.2,0.2
	l0.6-0.6c0.1,0,0.1,0.1,0.2,0.1c-0.5,1-1,1.9-1.5,2.8c-0.5,0.8-1,1.5-1.5,2.3c-0.1,0.2-0.1,0.4-0.1,0.6c0,0.3,0,0.7-0.1,0.9
	c-0.8,1.4-0.7,3-0.7,4.6c0.1,2,0.3,4,1.2,5.8c0.8,1.7,1.7,3.4,3,4.8c0.4,0.5,0.8,1,1.3,1.7c0.8,0.5,2.3,1.4,2.5,2.4
	c1.1,0.1,1.4,0.1,1.8,1.5c0.7-0.1,1.3,0.3,1.7,0.8c0.4,0.5,0.8,1.1,1.3,1.7c0.1-0.1,0.3-0.2,0.7-0.5c0.4,0.5,0.8,1,1.3,1.5
	c1.8,0.4,1.8,0.4,2.4,1.4c0.2-0.1,0.5-0.1,0.7-0.2c0.1,0.2,0.2,0.4,0.3,0.6l0.1-0.1c0.4,0.2,0.9,0.4,1.4,0.7
	c1.1,0.6,2.1,1.3,3.1,1.9h0.4c0.2,0,0.5,0,0.6,0.1c0.7,0.5,1.3,1.3,2,1.7c0.8,0.5,1.7,0.8,2.2,1.6c0.4,0.6,1,0.9,1.6,1.5
	c0.2-0.7,0.5-1.3,0.6-2c0.1-1.6,0.6-3,1.2-4.4c0.5-1.2,0.7-2.4,1-3.6c0.7-2.3,1.3-4.7,1.9-7c0.5-2.1,1-4.3,1.5-6.5
	c0.4-1.6,1.1-3.1,2.2-4.5c1.7-0.3,2.5,1.3,3.6,1.9c0.1,0.7,0.3,1.4,0.2,2c-0.2,1-0.3,2-0.3,2.3c-0.2,0.5-0.3,0.9,0,1.4l-0.1,0.1
	c-0.1,0.2-0.4,0.4-0.5,0.7C-71.4,360-71.7,361.5-72.1,363z M-37.3,365.3c-0.1,0.9-0.2,1.8-0.4,2.8c-0.2,0.1-0.5,0.3-0.8,0.5
	c0,0.7,0,1.3-0.1,2c-0.1,0.3-0.1,0.7-0.3,0.9c-1.1,1.2-1.1,2.9-1.8,4.3c-0.7,1.5-1.5,2.9-2.6,4.1c-0.7,0.8-1.2,1.7-2,2.5
	c-1.2,1.3-2.5,2.6-4.5,3c-0.1-0.2-0.3-0.4-0.5-0.6c-0.6,0-1.1-0.1-1.6-0.1c-0.5-1.4-2.1-2.3-1.4-4c-0.7-1.5-0.8-3.1-0.9-4.6
	c-0.2-1.5,0-3.1-0.1-4.6c0-0.9-0.3-1.7-0.4-2.7c-0.4,0.1-0.7,0.1-1.1,0.2c0.3-0.7,0.5-1.3,0.8-2.1c-0.5,0.3-0.7,0.3-0.9,0.5
	c-1,1.1-2,2.3-3,3.4c-0.1,0.2-0.3,0.5-0.3,0.7c0,1-0.6,1.9-0.9,2.8c0,0-0.1,0.1-0.1,0.2c0.1,1.5-0.7,2.5-1.4,3.6
	c-0.2,0.3-0.2,0.7-0.3,1.1c-1.1,1.1-2.1,2.3-3.2,3.5c-0.1,0.1-0.3,0.3-0.5,0.3c-0.9-0.1-1.6,0.3-2.4,0.8c-0.1-0.2-0.2-0.4-0.3-0.5
	c-0.3,0.1-0.7,0.1-1.2,0.2c0.1-0.5,0.1-0.9,0.2-1.4c-1-0.8-1-1.7-0.4-2.8c0.7-1.3,1.3-2.5,1.9-3.8c0.3-0.5,0.5-1,0.7-1.5
	c0.3-0.6,0.6-1.2,0.9-1.9c0.5-1.2,1-2.3,1.5-3.5c0.4-0.9,0.8-1.9,1.1-2.8c0.5-1.5,1.1-3,1.7-4.7c-0.7,0.2-1.3,0.3-1.8,0.4
	c-0.6,0.2-1.2,0.3-1.8,0.4c-0.7,0.1-1.3,0.1-2,0.1h-2c-0.3-0.3-0.8-0.7-1.3-1.1c0-0.9,0.1-1.8,0.1-2.7l0.1-0.1
	c0.3-0.6,0.7-1.2,1.1-2c2.6-0.7,5.4-1.3,8.3-1.5c0.8,0,1.7-0.4,2.6-0.6c0.8-0.2,1.6-0.3,2.4-0.6s1.6-0.7,2.4-1
	c0.3-0.1,0.6-0.1,1.1-0.2c0,0,0.1-0.1,0.1-0.2c0.8,0.2,1.5,0.3,2.3,0.4c-0.2,0.4-0.4,0.6-0.7,1h2.2v0.7h0.6
	c-0.1,0.1-0.1,0.2-0.1,0.2c-0.5,0.4-1,0.8-1.5,1.2c-0.1,0.2-0.3,0.3-0.4,0.4c-0.6,0.4-1.2,0.9-1.8,1.3c-0.4,0.4-0.7,0.7-1.1,1
	c0,0,0.1,0.1,0.1,0.2c-0.6,0.2-1.2,0.3-1.9,0.5c-1.1,3.4-2.1,6.8-3.3,10.5c0.5-0.6,0.9-1,1.2-1.4c0.8-1,1.6-2,2.4-3.1
	c0.1-0.2,0.2-0.5,0.3-0.7c0.2-0.5,0.5-0.7,1-0.8c0.6-0.4,0.8,0,1,0.5c0.6,0.4,1,0.2,1.4-0.5c0.1,0.4,0.3,0.5,0.3,0.7
	c0.1,0.6,0.2,1.2,0.8,1.8c0.5,0.4,0.6,1.3,0.6,2c0.1,1.2,0,2.4,0,3.8c0,0,0.2,0,0.5,0.2c0,1.5-0.1,3.1-0.2,4.7
	c0.5,0.5,0.9,0.2,1.3-0.1c1-1,1.6-2.2,2-3.6v-0.4c0.7-1.6,1.4-3.1,2.2-4.7c0.4-0.8,0.9-1.4,1.2-2.2c0.2-0.5,0.2-1,0.2-1.5
	c0-0.7,0-1.5,0.5-2.1c0-0.1,0.1-0.2,0.1-0.3c-0.1-1.2,0.9-2,1.3-3.1c0.1,0.6,0.2,1.2,0.3,1.6C-37.6,361.3-36.8,363.1-37.3,365.3z
	 M-40.8,365.8v0.4c0.2,0,0.3,0,0.3,0c0-0.1-0.1-0.3-0.1-0.4C-40.7,365.8-40.8,365.8-40.8,365.8z M-84.5,331c0,0.1,0.1,0.2,0.1,0.4
	c0.1-0.1,0.2-0.1,0.3-0.2l0-0.1c0,0,0,0.1,0.1,0.1c0-0.1,0-0.1-0.1-0.2l0,0c-0.1-0.1-0.1-0.2-0.2-0.3c-0.1,0-0.1,0.1-0.2,0.1
	c0,0.1,0.1,0.2,0.1,0.4C-84.5,331.1-84.5,331-84.5,331z M-84.3,332.3C-84.3,332.3-84.3,332.3-84.3,332.3c0-0.1,0-0.1,0-0.2
	c0-0.1,0-0.1,0-0.2c0-0.1-0.1-0.1-0.2-0.1c0,0.2-0.1,0.4-0.1,0.6h0.3L-84.3,332.3z M-84.6,330.7c0,0,0,0.1,0,0.1
	C-84.6,330.8-84.6,330.8-84.6,330.7C-84.6,330.7-84.6,330.7-84.6,330.7z M-84.6,330.8C-84.6,330.8-84.6,330.8-84.6,330.8
	L-84.6,330.8C-84.6,330.8-84.6,330.8-84.6,330.8z M-85.8,325.5C-85.8,325.5-85.8,325.4-85.8,325.5L-85.8,325.5L-85.8,325.5z
	 M-87.3,325.7h-0.2c0,0.2,0.1,0.3,0.2,0.5V325.7z M-87.4,379.7c0.1,0,0.1-0.1,0.1-0.2c0-0.1,0-0.1-0.1-0.2l-0.1-0.1
	c0,0.3-0.1,0.4-0.1,0.5C-87.5,379.7-87.5,379.7-87.4,379.7C-87.4,379.7-87.4,379.7-87.4,379.7z M-87.6,325.7c0,0.3,0,0.3,0.1,0.5
	C-87.5,326-87.6,325.9-87.6,325.7z M-87.6,379.7C-87.6,379.7-87.6,379.7-87.6,379.7C-87.7,379.8-87.6,379.8-87.6,379.7
	C-87.6,379.8-87.6,379.7-87.6,379.7z M-87.6,380.5l-0.2,0.1C-87.7,380.6-87.7,380.6-87.6,380.5z M-88.3,340.5
	c0.1,0.1,0.1,0.1,0.1,0.1c0.2-0.1,0.3-0.3,0.4-0.4c0,0,0.2,0,0-0.2c0,0.1-0.1,0.1-0.1,0.2c0-0.2,0-0.2,0.1-0.2l-0.1-0.1l-0.1-0.1
	c0,0.1-0.1,0.1-0.1,0.2c-0.1,0.1-0.2,0.3-0.3,0.4C-88.4,340.5-88.3,340.5-88.3,340.5z M-88,343.9c-0.1,0-0.1,0-0.2,0
	c0,0.1,0,0.1,0,0.1v0.3c-0.1,0.1-0.1,0.2-0.1,0.3c0,0,0.1,0.1,0.1,0.1c0-0.1,0-0.2,0.1-0.3c0,0.1,0,0.2-0.1,0.3c0,0,0.1,0,0.1,0
	c0.2,0,0.3-0.1,0.2-0.4C-87.9,344.2-88,344-88,343.9z M-88.4,378.6c-0.1,0.2-0.1,0.3-0.2,0.4c0.1,0,0.1,0.1,0.2,0.1
	c0,0.2,0.1,0.4,0.3,0.5C-87.8,379.2-88.3,379-88.4,378.6z M-88.2,344.7C-88.2,344.7-88.2,344.7-88.2,344.7
	C-88.2,344.7-88.2,344.7-88.2,344.7L-88.2,344.7z M-89.3,348.8c0.1-0.1,0.2-0.2,0.2-0.3C-89.2,348.6-89.2,348.7-89.3,348.8z
	 M-89.4,344.1v-0.4h-0.3c0,0.1,0.1,0.3,0.1,0.4C-89.5,344.1-89.4,344.1-89.4,344.1z M-90.6,345.1c0-0.1-0.2-0.1-0.2-0.1
	c-0.1,0.3-0.2,0.5-0.3,0.8c0.1,0.1,0.1,0.1,0.2,0.1C-90.8,345.6-90.7,345.4-90.6,345.1z M-90.8,377c-0.1,0-0.1-0.1-0.2-0.1
	c0-0.1-0.1-0.1-0.1-0.2l-0.1,0.1c0,0,0,0.1-0.1,0.1c0.1,0.1,0.2,0.3,0.3,0.4C-91,377.3-90.9,377.2-90.8,377c0.1,0,0,0,0-0.1
	C-90.9,377-90.9,377-90.8,377z M-93.3,376.1c-0.1,0.1-0.1,0.1-0.2,0.2c0.1,0.1,0.2,0.2,0.4,0.3c0.2,0.1,0.3,0.2,0.5,0.3
	C-92.6,376.2-92.6,376.2-93.3,376.1z M-94.6,375.4c0,0,0.1,0,0.1-0.1C-94.5,375.4-94.6,375.4-94.6,375.4
	C-94.6,375.3-94.6,375.2-94.6,375.4c-0.2,0-0.4,0-0.5,0.1c0,0,0,0,0,0.1c0,0,0.1,0.1,0.2,0.1C-94.8,375.7-94.7,375.6-94.6,375.4
	L-94.6,375.4z M-95.2,374.2C-95.2,374.2-95.2,374.2-95.2,374.2c0.1,0.3,0.1,0.3,0.2,0.2c0.1-0.1,0.1-0.1,0.1-0.2
	c-0.1,0-0.2-0.1-0.3-0.1V374.2z M-98,369.1c-0.3-0.1-0.6-0.2-0.9-0.2c0.6,0.6,0.6,0.6,1.3,0.2C-97.8,369.1-97.8,369-98,369.1z
	 M-98.2,372.8c-0.2-0.1-0.4-0.3-0.7-0.4c-0.1,0.3-0.2,0.4-0.3,0.6c0.2,0,0.4,0.1,0.5,0.1c0.3,0.1,0.4,0.1,0.5,0
	C-98.1,373.1-98.1,373-98.2,372.8z M-98.1,390.5c0,0-0.1,0-0.2,0.1h-0.6c-0.3,0-0.6,0.1-0.8,0.1h-0.2c-0.2,0.1-0.5,0.1-0.7,0.2
	c-0.2,0.1-0.3,0.1-0.5,0.2c-0.2,0-0.3,0.1-0.4,0.1c-0.3,0.1-0.6,0.2-0.9,0.3c-0.1,0-0.3,0.1-0.5,0.2v0c0,0,0,0,0,0s0,0,0,0
	c0.4-0.1,0.7-0.1,1.1-0.2c0.4-0.1,0.8,0.2,1.4-0.1c0.7-0.4,1.4-0.5,2.2-0.7c0,0,0,0,0,0C-98.2,390.7-98.1,390.6-98.1,390.5z
	 M-98.4,371.6c-0.1,0.1-0.1,0.1-0.2,0.1c0,0.2,0.1,0.3,0.1,0.3c0.1,0,0.2-0.1,0.2-0.1L-98.4,371.6z M-98.3,373.2h-0.5
	C-98.5,373.3-98.4,373.2-98.3,373.2z M-98.2,372.1c-0.1,0-0.1,0-0.2,0.1C-98.4,372.2-98.3,372.2-98.2,372.1z M-99.7,372
	C-99.7,372-99.6,372-99.7,372C-99.6,371.9-99.6,371.9-99.7,372z M-100.4,372.1c0.2,0,0.4,0,0.6-0.1c0,0,0,0,0,0c0,0,0,0,0,0
	c0,0,0,0,0,0l0.1-0.1c-0.1,0-0.2,0-0.2,0c-0.1,0-0.2-0.1-0.2-0.1c-0.4-0.3-0.8-0.5-1.2-0.7c0,0.2,0.1,0.3,0.1,0.4
	c0.1,0.2,0.1,0.4,0.2,0.5c0.1,0,0.1,0.1,0.2,0.1c0.1,0,0.1,0,0.1,0S-100.5,372.1-100.4,372.1z M-101.6,389.6c-0.2,0-0.5,0-0.7,0.1
	v0.3c0.2-0.1,0.5-0.1,0.7-0.2v-0.1c0,0,0.1,0,0.1,0c0,0-0.1,0-0.1,0V389.6z M-102.2,369.8C-102.2,369.8-102.2,369.7-102.2,369.8
	c-0.2,0-0.4,0-0.7,0c0.2,0.2,0.3,0.3,0.4,0.5c0.1,0.1,0.2,0.3,0.3,0.4c0.1,0,0.2-0.1,0.3-0.1c-0.1-0.3-0.1-0.5-0.2-0.6
	C-102.1,369.9-102.2,369.9-102.2,369.8z M-102.8,391.9h0.3C-102.6,391.7-102.8,391.7-102.8,391.9z M-102.4,370.5
	c0-0.1-0.1-0.2-0.2-0.3C-102.5,370.3-102.4,370.4-102.4,370.5z M-105.9,390.5c0.1,0,0.1,0.1,0.1,0.2c0.9-0.1,1.7-0.4,2.5-0.4
	c0-0.1-0.1-0.2-0.1-0.3C-104.2,390.1-105.1,390.3-105.9,390.5z M-104,367.6c0,0.1,0,0.1-0.1,0.2c0.2,0.1,0.3,0.1,0.5,0.2
	c0,0,0-0.1,0-0.2c-0.1-0.1-0.3-0.2-0.4-0.3C-104,367.6-104,367.6-104,367.6z M-104.9,332.6c-0.1,0-0.1-0.1-0.2-0.1
	c-0.1,0.4-0.3,0.5-0.6,0.7c0.2,0.1,0.3,0.1,0.3,0.1C-105.3,333.1-105.1,332.8-104.9,332.6z M-106.9,392.4L-106.9,392.4
	C-106.9,392.4-106.9,392.3-106.9,392.4C-106.9,392.3-106.9,392.4-106.9,392.4z M-109,390.8h-0.1c0,0.1-0.1,0.1-0.2,0.1
	c0,0.1,0.1,0.2,0.1,0.2h0.1c0.1,0,0.1-0.1,0.2-0.1C-108.9,391-108.9,391-109,390.8C-109,390.8-109,390.8-109,390.8z M-112.5,341.3
	c0.1-0.2,0.2-0.3,0.3-0.5c0.1-0.2,0.2-0.4,0.3-0.5h0.1c0,0,0,0-0.1-0.1v-0.1h-0.1c-0.1,0.2-0.2,0.4-0.3,0.6l-0.1,0.1l0,0
	c0,0,0-0.1,0-0.1c0,0.1-0.1,0.2-0.1,0.2c0,0,0,0,0,0c0,0-0.1,0.1-0.2,0.1h-0.1c0,0.1-0.1,0.2-0.1,0.3H-112.5z M-113.8,342.4
	c0.1,0,0.1,0.1,0.2,0.1c0-0.3,0-0.4,0.2-0.6c-0.1-0.1-0.1-0.1-0.2-0.1C-113.6,342-113.7,342.2-113.8,342.4z M-115.6,346.6
	c0,0.3-0.1,0.7-0.2,1c0,0.1,0.1,0.1,0.2,0.1c0.1-0.3,0.1-0.6,0.2-1C-115.6,346.7-115.6,346.7-115.6,346.6z M-155,367.3
	c0.1,0.1,0.1,0.1,0.2,0.1c0.1-0.1,0.2-0.1,0.3-0.2c0,0,0.1-0.1,0.1-0.1c0,0,0,0,0-0.1C-154.6,367.1-154.8,367.2-155,367.3z
	 M-172.4,369.4c-0.4,0-0.8,0.1-1.2,0.1c-0.4,0-0.8,0.1-1.2,0.1c0.2,0.2,0.5,0.3,0.7,0.5c0.4,0.4,0.9,0.7,1.4,1
	c0.2,0.2,0.5,0.3,0.8,0.5c0.2,0.2,0.4,0.3,0.6,0.4c0.2,0.1,0.4,0.2,0.6,0.3c0.1,0,0.1,0,0.1,0s0.1,0.1,0.2,0.1
	c0.1,0,0.2,0.1,0.3,0.1c0.2,0.1,0.3,0.2,0.5,0.2h0.1c0.2,0.1,0.4,0.1,0.6,0.2c0-0.1,0.1-0.1,0.1-0.2c0,0,0.2-0.1,0.3-0.1
	c-0.4-1.1-0.9-2.3-1.4-3.5C-170.8,369.2-171.6,369.3-172.4,369.4z M-170.5,362.3c-0.1-0.6-0.2-1.2-0.3-1.8h-0.1c-0.1,0-0.2,0-0.2,0
	c-0.5,0.7-0.8,1.6-1.3,2.4h2C-170.4,362.7-170.5,362.5-170.5,362.3z M-176.9,379.4c0.1,0.1,0.3,0.2,0.5,0.3c0.1-0.1,0.1-0.2,0.1-0.2
	v-0.1c-0.2-0.1-0.3-0.1-0.5-0.2c-0.2-0.1-0.3-0.1-0.5-0.2c0,0-0.1,0.1-0.1,0.2C-177.2,379.2-177.1,379.3-176.9,379.4
	C-176.9,379.4-176.9,379.4-176.9,379.4z M-182.2,378.5c0.1,0,0.1,0,0.2-0.1c-0.1-0.1-0.3-0.1-0.4-0.1
	C-182.3,378.3-182.2,378.4-182.2,378.5z M-184,375.3c0-0.1,0.1-0.2,0.1-0.2C-184,375.1-184.1,375.2-184,375.3z M-185.8,374.1
	c-0.1,0-0.3-0.1-0.4-0.1c-0.3-0.1-0.5-0.1-0.8-0.2c-0.4-0.1-0.7-0.2-1.1-0.2c0,0.1-0.1,0.2-0.1,0.3c1.3,0.4,2.7,0.9,4.1,1.3
	c0,0,0.2-0.1,0.2-0.4c-0.4-0.1-0.7-0.3-1.1-0.4C-185.3,374.3-185.5,374.2-185.8,374.1z M-185.2,376c0.2,0.1,0.4,0.2,0.7,0.2
	C-184.7,376.1-185,376-185.2,376z M-185.5,376c0.3,0.1,0.6,0.1,0.9,0.2c-0.2-0.1-0.4-0.1-0.6-0.2c-0.1,0-0.2-0.1-0.3-0.2
	C-185.5,375.9-185.5,375.9-185.5,376z M-188.5,375.1c0,0.1,0,0.1,0,0.2c0.5,0.1,0.9,0.2,1.3,0.3c0,0,0.1-0.1,0.1-0.1
	c0,0,0,0-0.1-0.1C-187.6,375.3-188,375.2-188.5,375.1z M-187.1,375.4c-0.5-0.2-0.8-0.2-1.3-0.3
	C-187.9,375.2-187.5,375.3-187.1,375.4z M-191.6,374.4c0.1,0,0.1,0,0.2,0v-0.5h-0.2V374.4z M-193.1,357.6c0.4,0,0.7-0.1,1-0.1v-0.2
	c-0.3,0-0.7,0.1-1,0.1C-193.1,357.4-193.1,357.5-193.1,357.6z M-191.8,353.1c-0.3,0.1-0.4,0.4-0.5,0.7
	C-192.1,353.6-192,353.3-191.8,353.1z M-193.1,354.4c0.2-0.2,0.4-0.5,0.6-0.7c0.1-0.2,0.3-0.5,0.5-0.7c-0.5,0.3-1,0.7-1.4,1.1
	c-0.2,0.2-0.3,0.5-0.5,0.7c-0.1,0.2-0.3,0.4-0.4,0.7C-193.8,355.2-193.5,354.7-193.1,354.4z M-193.6,356.8c-0.1,0.2-0.2,0.3-0.3,0.4
	c0.1-0.1,0.3-0.2,0.4-0.3C-193.5,356.8-193.6,356.8-193.6,356.8z M-194.1,372.1c-0.1,0-0.2,0.1-0.3,0.1l-0.1,0.1v0.1
	c-0.1,0.1-0.1,0.2-0.1,0.3l0.2-0.1c0.2-0.2,0.3-0.3,0.5-0.4C-193.9,372.2-194.1,372.2-194.1,372.1z M-194.7,357.8
	c0,0-0.1-0.1-0.1-0.1L-194.7,357.8C-194.7,357.9-194.6,357.9-194.7,357.8C-194.6,357.9-194.6,357.9-194.7,357.8l0.2,0.2
	c0.1-0.1,0.1-0.2,0.2-0.3c0.1-0.2,0.2-0.4,0.3-0.5c-0.2,0.2-0.4,0.3-0.6,0.5C-194.6,357.7-194.6,357.8-194.7,357.8z M-194.2,355.5
	c0,0-0.1,0.1-0.1,0.1c0,0,0,0.1-0.1,0.1c0.1,0,0.1,0,0.2-0.1C-194.3,355.5-194.3,355.5-194.2,355.5z M-194.5,355.7
	c-0.1,0-0.2,0.1-0.2,0.1c-0.1,0-0.2,0.1-0.3,0.2c-1.5,1.7-3,3.3-4.5,5c-0.1,0.2-0.2,0.4-0.3,0.6c-0.1,0-0.1,0.1-0.1,0.1
	c0,0-0.1,0.1-0.2,0.1c0.1,0,0.1,0.1,0.2,0.1C-198.1,359.8-196.2,357.7-194.5,355.7z M-196.2,371.9c-0.1,0-0.3-0.1-0.5-0.1
	c0,0.1,0,0.1,0,0.2c0.4,0.1,0.7,0.2,1.1,0.3c0-0.1,0-0.1-0.1-0.3C-195.8,372-196,371.9-196.2,371.9z M-196.6,374.1c0,0.1,0,0-0.2,0
	H-196.6c-0.2-0.1-0.4-0.1-0.5-0.1c0,0.1,0,0.1-0.1,0.2c0-0.1,0.1-0.1,0.1-0.1c0,0.1,0,0.1,0,0.2c0.2,0,0.2,0.2,0.3,0.2h0.1
	c0.1-0.1,0.1-0.1,0.3-0.2c0-0.1,0-0.1-0.1-0.2C-196.5,374.1-196.5,374.1-196.6,374.1z M-196.8,359.9c0,0-0.1,0.1-0.1,0.1
	c-0.3,0.4-0.6,0.6-0.9,1c0.1,0.1,0.1,0.1,0.1,0.1c0.2-0.2,0.3-0.2,0.4-0.4c0,0.2-0.2,0.3-0.4,0.4c0,0,0,0,0.1,0.1
	c0.2-0.1,0.3-0.3,0.5-0.5c0.1-0.1,0.3-0.3,0.5-0.5C-196.8,360.1-196.8,360.1-196.8,359.9z M-197.2,374.4
	C-197.2,374.3-197.1,374.3-197.2,374.4C-197.1,374.3-197.2,374.3-197.2,374.4C-197.2,374.3-197.2,374.3-197.2,374.4z M-197.2,374.3
	L-197.2,374.3C-197.2,374.2-197.2,374.2-197.2,374.3C-197.2,374.2-197.2,374.2-197.2,374.3z M-197.8,361.2c0,0,0.1,0,0.1-0.1
	c0,0,0,0,0,0C-197.7,361.1-197.8,361.1-197.8,361.2z M-199.3,363.1h0.3c0.1,0,0.1,0,0.1,0s0,0,0.1-0.1c0.3-0.2,0.4-0.4,0.4-0.6
	c0-0.1,0-0.2-0.1-0.3C-199,362.2-199.3,362.5-199.3,363.1z M-200.2,371.5C-200.1,371.5-200.1,371.5-200.2,371.5c0.1,0,0.2,0,0.2-0.1
	C-200.1,371.4-200.1,371.5-200.2,371.5z M-200.2,371.5c-0.2,0.1-0.4,0.1-0.6,0.2c0,0.1,0.1,0.1,0.1,0.2c0.2-0.1,0.4-0.2,0.6-0.3
	C-200.1,371.5-200.1,371.5-200.2,371.5c-0.1,0.2-0.2,0.2-0.4,0.2C-200.5,371.6-200.3,371.5-200.2,371.5z M-201.4,372.4
	c0.2,0.3,0.5,0.3,0.8,0.4c0.1,0,0.1,0,0.1,0s0-0.1,0.1-0.1c0,0,0-0.1,0.1-0.1c-0.3-0.1-0.5-0.1-0.5-0.1
	C-201,372.4-201.2,372.4-201.4,372.4z M-200.6,362.9c0.1,0,0.1-0.1,0.1-0.2c0.1-0.1,0.1-0.2,0.1-0.3c0,0-0.1-0.1-0.2-0.2
	c-0.3,0.3-0.5,0.5-0.9,0.9C-201,363.2-200.7,363.1-200.6,362.9z M-201.1,374.5c0,0.1,0,0.1,0,0.1v0.1h0.2c0.1-0.1,0.1-0.2,0.1-0.4
	h-0.3C-201.1,374.4-201.1,374.5-201.1,374.5z M-202.7,365c0.3-0.1,0.4-0.3,0.6-0.5c0-0.1,0.1-0.1,0.1-0.2c0.1-0.2,0.2-0.5,0.3-0.8
	c-0.2,0.2-0.3,0.3-0.5,0.4l-0.5,0.4c-0.3,0.4-0.5,0.6-0.8,0.9C-203.1,365.1-203,365.1-202.7,365L-202.7,365z M-203.8,374.2
	c-0.3-0.1-0.5-0.2-0.9-0.3c-0.1,0.1-0.4,0.3-0.7,0.6c0.6,0.1,1,0.2,1.5,0.3c0.2,0,0.3,0,0.5-0.1c-0.1-0.1-0.1-0.2-0.2-0.3
	C-203.6,374.3-203.7,374.2-203.8,374.2z M-204.4,366.5h0.3l0.1-0.1c0.1,0,0.1,0,0.1-0.1c0-0.1,0-0.1,0-0.1c0-0.1,0-0.1,0-0.2v-0.4
	c-0.2,0.1-0.3,0.2-0.4,0.3c-0.2,0.1-0.3,0.2-0.4,0.3C-204.6,366.3-204.5,366.3-204.4,366.5z M-206.6,369.1c0.2-0.1,0.3-0.2,0.4-0.4
	c0,0-0.1-0.1-0.1-0.1C-206.3,368.8-206.4,369-206.6,369.1z M-206.4,368.5c-0.3,0.2-0.5,0.4-0.8,0.6c0,0,0.1,0.1,0.2,0.2
	c0.2-0.2,0.5-0.4,0.7-0.7C-206.3,368.6-206.4,368.5-206.4,368.5z M-209.3,361.1C-209.3,361-209.3,361-209.3,361.1
	c0.2-0.1,0.3,0,0.5,0c0.1-0.1,0.1-0.1,0.1-0.2l-0.5-0.2c-0.1,0.2-0.1,0.3-0.2,0.3C-209.3,361-209.3,361-209.3,361.1
	C-209.3,361-209.3,361-209.3,361.1z M-217.3,378.6c-0.1,0.2-0.2,0.3-0.3,0.4c0.1,0,0.1,0.1,0.2,0.1c0.1-0.2,0.2-0.3,0.3-0.4
	C-217.1,378.6-217.2,378.6-217.3,378.6z M-218,385.8c0.1,0,0.1,0,0.2,0.1c0.1-0.3,0.2-0.7,0.5-0.9c-0.1-0.1-0.2-0.1-0.3-0.2
	C-217.8,385.1-217.9,385.5-218,385.8z M-218.1,381.7c-0.1,0.2-0.3,0.4-0.4,0.5h0l-0.1,0.1c0.1,0,0.1,0.1,0.2,0.2c0,0,0,0,0,0
	c0,0,0,0,0,0c0,0,0,0,0.1,0c0,0,0-0.1,0-0.1c0,0,0,0,0,0c0-0.1,0-0.1,0.1-0.1v0c0-0.1,0.1-0.1,0.1-0.1c0.1-0.1,0.1-0.2,0.2-0.3
	C-218,381.8-218.1,381.7-218.1,381.7z M-218.7,388.4C-218.7,388.4-218.7,388.4-218.7,388.4h-0.2c0,0.2-0.1,0.5-0.1,0.7
	c0.1,0,0.2,0,0.2,0c0-0.2,0.1-0.3,0.1-0.4C-218.6,388.5-218.6,388.3-218.7,388.4z M-219.7,391.6
	C-219.7,391.6-219.7,391.6-219.7,391.6c0.2,0.1,0.3,0.1,0.4,0.1c0.1-0.5,0.1-1,0.2-1.8c0,0-0.1,0-0.2,0
	C-219.4,390.5-219.6,391.1-219.7,391.6z M-224.7,386.8h0.4c-0.1-0.1-0.2-0.2-0.3-0.3C-224.6,386.6-224.7,386.7-224.7,386.8z
	 M-90.8,345c-0.1,0.3-0.2,0.5-0.3,0.8c0.1,0.1,0.1,0.1,0.2,0.1c0.1-0.3,0.2-0.5,0.3-0.8C-90.6,345-90.8,345-90.8,345z M-89.7,343.7
	c0,0.1,0.1,0.3,0.1,0.4c0.1,0,0.2,0,0.2,0v-0.4H-89.7z M-89.3,348.8c0.1-0.1,0.2-0.2,0.2-0.3C-89.2,348.6-89.2,348.7-89.3,348.8z
	 M-88.2,344.7L-88.2,344.7C-88.2,344.7-88.2,344.7-88.2,344.7C-88.2,344.7-88.2,344.7-88.2,344.7z M-87.9,344.3
	c0-0.1-0.1-0.3-0.1-0.4c-0.1,0-0.1,0-0.2,0c0,0.1,0,0.1,0,0.1v0.3c-0.1,0.1-0.1,0.2-0.1,0.3c0,0,0.1,0.1,0.1,0.1
	c0-0.1,0-0.2,0.1-0.3c0,0.1,0,0.2-0.1,0.3c0,0,0.1,0,0.1,0C-87.9,344.7-87.8,344.6-87.9,344.3z M-87.8,340c0,0.1-0.1,0.1-0.1,0.2
	C-87.9,340-87.9,340-87.8,340l-0.1-0.1l-0.1-0.1c0,0.1-0.1,0.1-0.1,0.2c-0.1,0.1-0.2,0.3-0.3,0.4c0,0.1,0.1,0.1,0.1,0.1
	c0.1,0.1,0.1,0.1,0.1,0.1c0.2-0.1,0.3-0.3,0.4-0.4C-87.8,340.2-87.6,340.2-87.8,340z M-87.6,325.7c0,0.3,0,0.3,0.1,0.5
	C-87.5,326-87.6,325.9-87.6,325.7z M-87.5,325.7c0,0.2,0.1,0.3,0.2,0.5v-0.5H-87.5z M-85.8,325.4L-85.8,325.4L-85.8,325.4
	C-85.8,325.5-85.8,325.4-85.8,325.4z M-84.6,330.8L-84.6,330.8C-84.6,330.8-84.6,330.8-84.6,330.8
	C-84.6,330.8-84.6,330.8-84.6,330.8z M-84.6,330.7c0,0,0,0.1,0,0.1C-84.6,330.8-84.6,330.8-84.6,330.7
	C-84.6,330.7-84.6,330.7-84.6,330.7z M-84.3,332c0-0.1-0.1-0.1-0.2-0.1c0,0.2-0.1,0.4-0.1,0.6h0.3l0-0.1c0,0,0,0,0,0
	c0-0.1,0-0.1,0-0.2C-84.2,332.1-84.3,332-84.3,332z M-84.1,331.2c0-0.1,0-0.1-0.1-0.2l0,0c-0.1-0.1-0.1-0.2-0.2-0.3
	c-0.1,0-0.1,0.1-0.2,0.1c0,0.1,0.1,0.2,0.1,0.4c0,0,0-0.1-0.1-0.1c0,0.1,0.1,0.2,0.1,0.4C-84.3,331.3-84.2,331.3-84.1,331.2
	L-84.1,331.2C-84.1,331.1-84.1,331.2-84.1,331.2z M-115.6,346.6c0,0.3-0.1,0.7-0.2,1c0,0.1,0.1,0.1,0.2,0.1c0.1-0.3,0.1-0.6,0.2-1
	C-115.6,346.7-115.6,346.7-115.6,346.6z M-113.6,341.8c0,0.2-0.1,0.4-0.2,0.6c0.1,0,0.1,0.1,0.2,0.1c0-0.3,0-0.4,0.2-0.6
	C-113.5,341.8-113.5,341.8-113.6,341.8z M-111.9,340.2L-111.9,340.2L-111.9,340.2c-0.2,0.1-0.3,0.3-0.4,0.5l-0.1,0.1l0,0
	c0,0,0-0.1,0-0.1c0,0.1-0.1,0.2-0.1,0.2c0,0,0,0,0,0c0,0-0.1,0.1-0.2,0.1h-0.1c0,0.1-0.1,0.2-0.1,0.3h0.4c0.1-0.2,0.2-0.3,0.3-0.5
	c0.1-0.2,0.2-0.4,0.3-0.5h0.1C-111.8,340.3-111.8,340.3-111.9,340.2z M-109,390.9C-109,390.8-109,390.8-109,390.9l-0.1-0.1
	c0,0.1-0.1,0.1-0.2,0.1c0,0.1,0.1,0.2,0.1,0.2h0.1C-109,391.1-109,391-109,390.9C-108.9,391-108.9,391-109,390.9z M-107.2,392.6
	L-107.2,392.6C-107.1,392.7-107.1,392.6-107.2,392.6z M-106.9,392.3C-106.9,392.3-106.9,392.4-106.9,392.3L-106.9,392.3
	C-106.9,392.4-106.9,392.3-106.9,392.3z M-105.1,332.5c-0.1,0.4-0.3,0.5-0.6,0.7c0.2,0.1,0.3,0.1,0.3,0.1c0.1-0.2,0.3-0.5,0.5-0.7
	C-105,332.6-105,332.5-105.1,332.5z M-104,367.5c0,0.1,0,0.1,0,0.1c0,0.1,0,0.1-0.1,0.2c0.2,0.1,0.3,0.1,0.5,0.2c0,0,0-0.1,0-0.2
	C-103.7,367.7-103.9,367.6-104,367.5z M-103.4,390c-0.8,0.1-1.7,0.3-2.5,0.5c0.1,0,0.1,0.1,0.1,0.2c0.9-0.1,1.7-0.4,2.5-0.4
	C-103.3,390.2-103.4,390.1-103.4,390z M-102.6,370.2c0.1,0.2,0.2,0.2,0.2,0.3C-102.4,370.4-102.5,370.3-102.6,370.2z M-102.8,391.9
	h0.3C-102.6,391.7-102.8,391.7-102.8,391.9z M-102.1,370c0-0.1-0.1-0.1-0.1-0.2c0,0,0,0-0.1,0c-0.1,0-0.3,0-0.6,0
	c0.2,0.2,0.3,0.3,0.4,0.5c0.1,0.1,0.2,0.3,0.3,0.4c0.1,0,0.2-0.1,0.3-0.1C-102,370.3-102,370.1-102.1,370z M-101.6,389.7v-0.1
	c-0.2,0-0.5,0-0.7,0.1v0.3C-102.1,389.9-101.8,389.9-101.6,389.7L-101.6,389.7c0,0,0.1,0,0.1,0
	C-101.5,389.7-101.6,389.7-101.6,389.7z M-99.8,371.9c-0.1,0-0.2-0.1-0.2-0.1c-0.4-0.3-0.8-0.5-1.2-0.7c0,0.2,0.1,0.3,0.1,0.4
	c0.1,0.2,0.1,0.4,0.2,0.5c0.1,0,0.1,0.1,0.2,0.1c0.1,0,0.1,0,0.1,0s0.1,0,0.2,0C-100.2,372.1-100,372.1-99.8,371.9
	C-99.8,372-99.8,372-99.8,371.9C-99.8,372-99.8,372-99.8,371.9C-99.7,372-99.7,372-99.8,371.9l0.2,0
	C-99.7,371.9-99.8,371.9-99.8,371.9z M-99.7,372C-99.7,372-99.6,372-99.7,372C-99.6,371.9-99.6,371.9-99.7,372z M-98.4,372.2
	c0,0,0.1,0,0.2-0.1C-98.3,372.1-98.3,372.1-98.4,372.2z M-98.8,373.2c0.3,0.1,0.4,0,0.5,0H-98.8z M-98.4,371.6
	c-0.1,0.1-0.1,0.1-0.2,0.1c0,0.2,0.1,0.3,0.1,0.3c0.1,0,0.2-0.1,0.2-0.1L-98.4,371.6z M-98.3,390.6h-0.6c-0.3,0-0.6,0.1-0.8,0.1
	h-0.2c-0.2,0.1-0.5,0.1-0.7,0.2c-0.2,0.1-0.3,0.1-0.5,0.2c-0.2,0-0.3,0.1-0.4,0.1c-0.3,0.1-0.6,0.2-0.9,0.3c-0.1,0-0.3,0.1-0.5,0.2
	v0c0,0,0,0,0,0s0,0,0,0c0.4-0.1,0.7-0.1,1.1-0.2c0.4-0.1,0.8,0.2,1.4-0.1c0.7-0.4,1.4-0.5,2.2-0.7
	C-98.2,390.7-98.2,390.7-98.3,390.6c0.1,0.1,0.2,0,0.2-0.1C-98.1,390.5-98.2,390.5-98.3,390.6z M-98.2,372.8
	c-0.2-0.1-0.4-0.3-0.7-0.4c-0.1,0.3-0.2,0.4-0.3,0.6c0.2,0,0.4,0.1,0.5,0.1c0.3,0.1,0.4,0.1,0.5,0C-98.1,373.1-98.1,373-98.2,372.8z
	 M-98,369.1c-0.3-0.1-0.6-0.2-0.9-0.2c0.6,0.6,0.6,0.6,1.3,0.2C-97.8,369.1-97.8,369-98,369.1z M-95.2,374.1v0.1c0,0,0,0,0,0.1
	c0.1,0.2,0.1,0.2,0.2,0.1c0.1-0.1,0.1-0.1,0.1-0.2C-95,374.2-95.1,374.1-95.2,374.1z M-94.6,375.4
	C-94.6,375.3-94.6,375.2-94.6,375.4c-0.2,0.1-0.4,0.1-0.5,0.2c0,0,0,0,0,0.1c0,0,0.1,0.1,0.2,0.1C-94.8,375.7-94.7,375.6-94.6,375.4
	L-94.6,375.4c0,0,0.1,0,0.1,0C-94.5,375.4-94.6,375.4-94.6,375.4z M-93.3,376.1c-0.1,0.1-0.1,0.1-0.2,0.2c0.1,0.1,0.2,0.2,0.4,0.3
	c0.2,0.1,0.3,0.2,0.5,0.3C-92.6,376.2-92.6,376.2-93.3,376.1z M-90.9,376.9c0,0.1,0,0.1,0,0.1c-0.1,0-0.1-0.1-0.2-0.1
	c0-0.1-0.1-0.1-0.1-0.2l-0.1,0.1c0,0,0,0.1-0.1,0.1c0.1,0.1,0.2,0.3,0.3,0.4c0.1,0,0.2-0.1,0.3-0.2C-90.8,377-90.9,377-90.9,376.9z
	 M-88.4,378.6c-0.1,0.2-0.1,0.3-0.2,0.4c0.1,0,0.1,0.1,0.2,0.1c0,0.2,0.1,0.4,0.3,0.5C-87.8,379.2-88.3,379-88.4,378.6z
	 M-87.8,380.6c0.1,0,0.1,0,0.2-0.1L-87.8,380.6z M-87.7,379.8C-87.7,379.8-87.6,379.8-87.7,379.8C-87.6,379.8-87.6,379.7-87.7,379.8
	C-87.6,379.7-87.6,379.7-87.7,379.8z M-87.4,379.3l-0.1-0.1c0,0.3-0.1,0.4-0.1,0.5c0,0,0.1,0,0.1,0c0.1,0,0.1,0,0.1,0
	c0.1,0,0.1-0.1,0.1-0.2C-87.3,379.4-87.3,379.4-87.4,379.3z M-84.1,331.2c0-0.1,0-0.1-0.1-0.2l0,0c-0.1-0.1-0.1-0.2-0.2-0.3
	c-0.1,0-0.1,0.1-0.2,0.1c0,0.1,0.1,0.2,0.1,0.4c0,0,0-0.1-0.1-0.1c0,0.1,0.1,0.2,0.1,0.4C-84.3,331.3-84.2,331.3-84.1,331.2
	L-84.1,331.2C-84.1,331.1-84.1,331.2-84.1,331.2z M-84.3,332c0-0.1-0.1-0.1-0.2-0.1c0,0.2-0.1,0.4-0.1,0.6h0.3l0-0.1c0,0,0,0,0,0
	c0-0.1,0-0.1,0-0.2C-84.2,332.1-84.3,332-84.3,332z M-84.6,330.7c0,0,0,0.1,0,0.1C-84.6,330.8-84.6,330.8-84.6,330.7
	C-84.6,330.7-84.6,330.7-84.6,330.7z M-84.6,330.8L-84.6,330.8C-84.6,330.8-84.6,330.8-84.6,330.8
	C-84.6,330.8-84.6,330.8-84.6,330.8z M-85.8,325.4L-85.8,325.4L-85.8,325.4C-85.8,325.5-85.8,325.4-85.8,325.4z M-87.5,325.7
	c0,0.2,0.1,0.3,0.2,0.5v-0.5H-87.5z M-87.4,379.3l-0.1-0.1c0,0.3-0.1,0.4-0.1,0.5c0,0,0.1,0,0.1,0c0.1,0,0.1,0,0.1,0
	c0.1,0,0.1-0.1,0.1-0.2C-87.3,379.4-87.3,379.4-87.4,379.3z M-87.6,325.7c0,0.3,0,0.3,0.1,0.5C-87.5,326-87.6,325.9-87.6,325.7z
	 M-87.7,379.8C-87.7,379.8-87.6,379.8-87.7,379.8C-87.6,379.8-87.6,379.7-87.7,379.8C-87.6,379.7-87.6,379.7-87.7,379.8z
	 M-87.8,380.6c0.1,0,0.1,0,0.2-0.1L-87.8,380.6z M-87.8,340c0,0.1-0.1,0.1-0.1,0.2C-87.9,340-87.9,340-87.8,340l-0.1-0.1l-0.1-0.1
	c0,0.1-0.1,0.1-0.1,0.2c-0.1,0.1-0.2,0.3-0.3,0.4c0,0.1,0.1,0.1,0.1,0.1c0.1,0.1,0.1,0.1,0.1,0.1c0.2-0.1,0.3-0.3,0.4-0.4
	C-87.8,340.2-87.6,340.2-87.8,340z M-87.9,344.3c0-0.1-0.1-0.3-0.1-0.4c-0.1,0-0.1,0-0.2,0c0,0.1,0,0.1,0,0.1v0.3
	c-0.1,0.1-0.1,0.2-0.1,0.3c0,0,0.1,0.1,0.1,0.1c0-0.1,0-0.2,0.1-0.3c0,0.1,0,0.2-0.1,0.3c0,0,0.1,0,0.1,0
	C-87.9,344.7-87.8,344.6-87.9,344.3z M-88.4,378.6c-0.1,0.2-0.1,0.3-0.2,0.4c0.1,0,0.1,0.1,0.2,0.1c0,0.2,0.1,0.4,0.3,0.5
	C-87.8,379.2-88.3,379-88.4,378.6z M-88.2,344.7L-88.2,344.7C-88.2,344.7-88.2,344.7-88.2,344.7C-88.2,344.7-88.2,344.7-88.2,344.7z
	 M-89.3,348.8c0.1-0.1,0.2-0.2,0.2-0.3C-89.2,348.6-89.2,348.7-89.3,348.8z M-89.7,343.7c0,0.1,0.1,0.3,0.1,0.4c0.1,0,0.2,0,0.2,0
	v-0.4H-89.7z M-90.8,345c-0.1,0.3-0.2,0.5-0.3,0.8c0.1,0.1,0.1,0.1,0.2,0.1c0.1-0.3,0.2-0.5,0.3-0.8C-90.6,345-90.8,345-90.8,345z
	 M-90.9,376.9c0,0.1,0,0.1,0,0.1c-0.1,0-0.1-0.1-0.2-0.1c0-0.1-0.1-0.1-0.1-0.2l-0.1,0.1c0,0,0,0.1-0.1,0.1c0.1,0.1,0.2,0.3,0.3,0.4
	c0.1,0,0.2-0.1,0.3-0.2C-90.8,377-90.9,377-90.9,376.9z M-93.3,376.1c-0.1,0.1-0.1,0.1-0.2,0.2c0.1,0.1,0.2,0.2,0.4,0.3
	c0.2,0.1,0.3,0.2,0.5,0.3C-92.6,376.2-92.6,376.2-93.3,376.1z M-94.6,375.4C-94.6,375.3-94.6,375.2-94.6,375.4
	c-0.2,0.1-0.4,0.1-0.5,0.2c0,0,0,0,0,0.1c0,0,0.1,0.1,0.2,0.1C-94.8,375.7-94.7,375.6-94.6,375.4L-94.6,375.4c0,0,0.1,0,0.1,0
	C-94.5,375.4-94.6,375.4-94.6,375.4z M-95.2,374.1v0.1c0,0,0,0,0,0.1c0.1,0.2,0.1,0.2,0.2,0.1c0.1-0.1,0.1-0.1,0.1-0.2
	C-95,374.2-95.1,374.1-95.2,374.1z M-98,369.1c-0.3-0.1-0.6-0.2-0.9-0.2c0.6,0.6,0.6,0.6,1.3,0.2C-97.8,369.1-97.8,369-98,369.1z
	 M-98.2,372.8c-0.2-0.1-0.4-0.3-0.7-0.4c-0.1,0.3-0.2,0.4-0.3,0.6c0.2,0,0.4,0.1,0.5,0.1c0.3,0.1,0.4,0.1,0.5,0
	C-98.1,373.1-98.1,373-98.2,372.8z M-98.3,390.6h-0.6c-0.3,0-0.6,0.1-0.8,0.1h-0.2c-0.2,0.1-0.5,0.1-0.7,0.2
	c-0.2,0.1-0.3,0.1-0.5,0.2c-0.2,0-0.3,0.1-0.4,0.1c-0.3,0.1-0.6,0.2-0.9,0.3c-0.1,0-0.3,0.1-0.5,0.2v0c0,0,0,0,0,0s0,0,0,0
	c0.4-0.1,0.7-0.1,1.1-0.2c0.4-0.1,0.8,0.2,1.4-0.1c0.7-0.4,1.4-0.5,2.2-0.7C-98.2,390.7-98.2,390.7-98.3,390.6
	c0.1,0.1,0.2,0,0.2-0.1C-98.1,390.5-98.2,390.5-98.3,390.6z M-98.4,371.6c-0.1,0.1-0.1,0.1-0.2,0.1c0,0.2,0.1,0.3,0.1,0.3
	c0.1,0,0.2-0.1,0.2-0.1L-98.4,371.6z M-98.8,373.2c0.3,0.1,0.4,0,0.5,0H-98.8z M-98.4,372.2c0,0,0.1,0,0.2-0.1
	C-98.3,372.1-98.3,372.1-98.4,372.2z M-99.7,372C-99.7,372-99.6,372-99.7,372C-99.6,371.9-99.6,371.9-99.7,372z M-99.8,371.9
	c-0.1,0-0.2-0.1-0.2-0.1c-0.4-0.3-0.8-0.5-1.2-0.7c0,0.2,0.1,0.3,0.1,0.4c0.1,0.2,0.1,0.4,0.2,0.5c0.1,0,0.1,0.1,0.2,0.1
	c0.1,0,0.1,0,0.1,0s0.1,0,0.2,0C-100.2,372.1-100,372.1-99.8,371.9C-99.8,372-99.8,372-99.8,371.9C-99.8,372-99.8,372-99.8,371.9
	C-99.7,372-99.7,372-99.8,371.9l0.2,0C-99.7,371.9-99.8,371.9-99.8,371.9z M-101.6,389.7v-0.1c-0.2,0-0.5,0-0.7,0.1v0.3
	C-102.1,389.9-101.8,389.9-101.6,389.7L-101.6,389.7c0,0,0.1,0,0.1,0C-101.5,389.7-101.6,389.7-101.6,389.7z M-102.1,370
	c0-0.1-0.1-0.1-0.1-0.2c0,0,0,0-0.1,0c-0.1,0-0.3,0-0.6,0c0.2,0.2,0.3,0.3,0.4,0.5c0.1,0.1,0.2,0.3,0.3,0.4c0.1,0,0.2-0.1,0.3-0.1
	C-102,370.3-102,370.1-102.1,370z M-102.8,391.9h0.3C-102.6,391.7-102.8,391.7-102.8,391.9z M-102.6,370.2c0.1,0.2,0.2,0.2,0.2,0.3
	C-102.4,370.4-102.5,370.3-102.6,370.2z M-103.4,390c-0.8,0.1-1.7,0.3-2.5,0.5c0.1,0,0.1,0.1,0.1,0.2c0.9-0.1,1.7-0.4,2.5-0.4
	C-103.3,390.2-103.4,390.1-103.4,390z M-104,367.5c0,0.1,0,0.1,0,0.1c0,0.1,0,0.1-0.1,0.2c0.2,0.1,0.3,0.1,0.5,0.2c0,0,0-0.1,0-0.2
	C-103.7,367.7-103.9,367.6-104,367.5z M-105.1,332.5c-0.1,0.4-0.3,0.5-0.6,0.7c0.2,0.1,0.3,0.1,0.3,0.1c0.1-0.2,0.3-0.5,0.5-0.7
	C-105,332.6-105,332.5-105.1,332.5z M-106.9,392.3C-106.9,392.3-106.9,392.4-106.9,392.3L-106.9,392.3
	C-106.9,392.4-106.9,392.3-106.9,392.3z M-109,390.9C-109,390.8-109,390.8-109,390.9l-0.1-0.1c0,0.1-0.1,0.1-0.2,0.1
	c0,0.1,0.1,0.2,0.1,0.2h0.1C-109,391.1-109,391-109,390.9C-108.9,391-108.9,391-109,390.9z M-111.9,340.2L-111.9,340.2L-111.9,340.2
	c-0.2,0.1-0.3,0.3-0.4,0.5l-0.1,0.1l0,0c0,0,0-0.1,0-0.1c0,0.1-0.1,0.2-0.1,0.2c0,0,0,0,0,0c0,0-0.1,0.1-0.2,0.1h-0.1
	c0,0.1-0.1,0.2-0.1,0.3h0.4c0.1-0.2,0.2-0.3,0.3-0.5c0.1-0.2,0.2-0.4,0.3-0.5h0.1C-111.8,340.3-111.8,340.3-111.9,340.2z
	 M-113.6,341.8c0,0.2-0.1,0.4-0.2,0.6c0.1,0,0.1,0.1,0.2,0.1c0-0.3,0-0.4,0.2-0.6C-113.5,341.8-113.5,341.8-113.6,341.8z
	 M-115.6,346.6c0,0.3-0.1,0.7-0.2,1c0,0.1,0.1,0.1,0.2,0.1c0.1-0.3,0.1-0.6,0.2-1C-115.6,346.7-115.6,346.7-115.6,346.6z
	 M-115.6,346.6c0,0.3-0.1,0.7-0.2,1c0,0.1,0.1,0.1,0.2,0.1c0.1-0.3,0.1-0.6,0.2-1C-115.6,346.7-115.6,346.7-115.6,346.6z
	 M-113.6,341.8c0,0.2-0.1,0.4-0.2,0.6c0.1,0,0.1,0.1,0.2,0.1c0-0.3,0-0.4,0.2-0.6C-113.5,341.8-113.5,341.8-113.6,341.8z
	 M-111.9,340.2L-111.9,340.2L-111.9,340.2c-0.2,0.1-0.3,0.3-0.4,0.5l-0.1,0.1l0,0c0,0,0-0.1,0-0.1c0,0.1-0.1,0.2-0.1,0.2
	c0,0,0,0,0,0c0,0-0.1,0.1-0.2,0.1h-0.1c0,0.1-0.1,0.2-0.1,0.3h0.4c0.1-0.2,0.2-0.3,0.3-0.5c0.1-0.2,0.2-0.4,0.3-0.5h0.1
	C-111.8,340.3-111.8,340.3-111.9,340.2z M-109,390.9C-109,390.8-109,390.8-109,390.9l-0.1-0.1c0,0.1-0.1,0.1-0.2,0.1
	c0,0.1,0.1,0.2,0.1,0.2h0.1C-109,391.1-109,391-109,390.9C-108.9,391-108.9,391-109,390.9z M-107.2,392.6L-107.2,392.6
	C-107.1,392.7-107.1,392.6-107.2,392.6z M-106.9,392.3C-106.9,392.3-106.9,392.4-106.9,392.3L-106.9,392.3
	C-106.9,392.4-106.9,392.3-106.9,392.3z M-105.1,332.5c-0.1,0.4-0.3,0.5-0.6,0.7c0.2,0.1,0.3,0.1,0.3,0.1c0.1-0.2,0.3-0.5,0.5-0.7
	C-105,332.6-105,332.5-105.1,332.5z M-104,367.5c0,0.1,0,0.1,0,0.1c0,0.1,0,0.1-0.1,0.2c0.2,0.1,0.3,0.1,0.5,0.2c0,0,0-0.1,0-0.2
	C-103.7,367.7-103.9,367.6-104,367.5z M-103.4,390c-0.8,0.1-1.7,0.3-2.5,0.5c0.1,0,0.1,0.1,0.1,0.2c0.9-0.1,1.7-0.4,2.5-0.4
	C-103.3,390.2-103.4,390.1-103.4,390z M-102.6,370.2c0.1,0.2,0.2,0.2,0.2,0.3C-102.4,370.4-102.5,370.3-102.6,370.2z M-102.8,391.9
	h0.3C-102.6,391.7-102.8,391.7-102.8,391.9z M-102.1,370c0-0.1-0.1-0.1-0.1-0.2c0,0,0,0-0.1,0c-0.1,0-0.3,0-0.6,0
	c0.2,0.2,0.3,0.3,0.4,0.5c0.1,0.1,0.2,0.3,0.3,0.4c0.1,0,0.2-0.1,0.3-0.1C-102,370.3-102,370.1-102.1,370z M-101.6,389.7v-0.1
	c-0.2,0-0.5,0-0.7,0.1v0.3C-102.1,389.9-101.8,389.9-101.6,389.7L-101.6,389.7c0,0,0.1,0,0.1,0
	C-101.5,389.7-101.6,389.7-101.6,389.7z M-99.8,371.9c-0.1,0-0.2-0.1-0.2-0.1c-0.4-0.3-0.8-0.5-1.2-0.7c0,0.2,0.1,0.3,0.1,0.4
	c0.1,0.2,0.1,0.4,0.2,0.5c0.1,0,0.1,0.1,0.2,0.1c0.1,0,0.1,0,0.1,0s0.1,0,0.2,0C-100.2,372.1-100,372.1-99.8,371.9
	C-99.8,372-99.8,372-99.8,371.9C-99.8,372-99.8,372-99.8,371.9C-99.7,372-99.7,372-99.8,371.9l0.2,0
	C-99.7,371.9-99.8,371.9-99.8,371.9z M-99.7,372C-99.7,372-99.6,372-99.7,372C-99.6,371.9-99.6,371.9-99.7,372z M-98.4,372.2
	c0,0,0.1,0,0.2-0.1C-98.3,372.1-98.3,372.1-98.4,372.2z M-98.8,373.2c0.3,0.1,0.4,0,0.5,0H-98.8z M-98.4,371.6
	c-0.1,0.1-0.1,0.1-0.2,0.1c0,0.2,0.1,0.3,0.1,0.3c0.1,0,0.2-0.1,0.2-0.1L-98.4,371.6z M-98.3,390.6h-0.6c-0.3,0-0.6,0.1-0.8,0.1
	h-0.2c-0.2,0.1-0.5,0.1-0.7,0.2c-0.2,0.1-0.3,0.1-0.5,0.2c-0.2,0-0.3,0.1-0.4,0.1c-0.3,0.1-0.6,0.2-0.9,0.3c-0.1,0-0.3,0.1-0.5,0.2
	v0c0,0,0,0,0,0s0,0,0,0c0.4-0.1,0.7-0.1,1.1-0.2c0.4-0.1,0.8,0.2,1.4-0.1c0.7-0.4,1.4-0.5,2.2-0.7
	C-98.2,390.7-98.2,390.7-98.3,390.6c0.1,0.1,0.2,0,0.2-0.1C-98.1,390.5-98.2,390.5-98.3,390.6z M-98.2,372.8
	c-0.2-0.1-0.4-0.3-0.7-0.4c-0.1,0.3-0.2,0.4-0.3,0.6c0.2,0,0.4,0.1,0.5,0.1c0.3,0.1,0.4,0.1,0.5,0C-98.1,373.1-98.1,373-98.2,372.8z
	 M-98,369.1c-0.3-0.1-0.6-0.2-0.9-0.2c0.6,0.6,0.6,0.6,1.3,0.2C-97.8,369.1-97.8,369-98,369.1z M-95.2,374.1v0.1c0,0,0,0,0,0.1
	c0.1,0.2,0.1,0.2,0.2,0.1c0.1-0.1,0.1-0.1,0.1-0.2C-95,374.2-95.1,374.1-95.2,374.1z M-94.6,375.4
	C-94.6,375.3-94.6,375.2-94.6,375.4c-0.2,0.1-0.4,0.1-0.5,0.2c0,0,0,0,0,0.1c0,0,0.1,0.1,0.2,0.1C-94.8,375.7-94.7,375.6-94.6,375.4
	L-94.6,375.4c0,0,0.1,0,0.1,0C-94.5,375.4-94.6,375.4-94.6,375.4z M-93.3,376.1c-0.1,0.1-0.1,0.1-0.2,0.2c0.1,0.1,0.2,0.2,0.4,0.3
	c0.2,0.1,0.3,0.2,0.5,0.3C-92.6,376.2-92.6,376.2-93.3,376.1z M-90.9,376.9c0,0.1,0,0.1,0,0.1c-0.1,0-0.1-0.1-0.2-0.1
	c0-0.1-0.1-0.1-0.1-0.2l-0.1,0.1c0,0,0,0.1-0.1,0.1c0.1,0.1,0.2,0.3,0.3,0.4c0.1,0,0.2-0.1,0.3-0.2C-90.8,377-90.9,377-90.9,376.9z
	 M-88.4,378.6c-0.1,0.2-0.1,0.3-0.2,0.4c0.1,0,0.1,0.1,0.2,0.1c0,0.2,0.1,0.4,0.3,0.5C-87.8,379.2-88.3,379-88.4,378.6z
	 M-87.8,380.6c0.1,0,0.1,0,0.2-0.1L-87.8,380.6z M-87.7,379.8C-87.7,379.8-87.6,379.8-87.7,379.8C-87.6,379.8-87.6,379.7-87.7,379.8
	C-87.6,379.7-87.6,379.7-87.7,379.8z M-87.4,379.3l-0.1-0.1c0,0.3-0.1,0.4-0.1,0.5c0,0,0.1,0,0.1,0c0.1,0,0.1,0,0.1,0
	c0.1,0,0.1-0.1,0.1-0.2C-87.3,379.4-87.3,379.4-87.4,379.3z M-87.4,379.3l-0.1-0.1c0,0.3-0.1,0.4-0.1,0.5c0,0,0.1,0,0.1,0
	c0.1,0,0.1,0,0.1,0c0.1,0,0.1-0.1,0.1-0.2C-87.3,379.4-87.3,379.4-87.4,379.3z M-87.7,379.8C-87.7,379.8-87.6,379.8-87.7,379.8
	C-87.6,379.8-87.6,379.7-87.7,379.8C-87.6,379.7-87.6,379.7-87.7,379.8z M-87.8,380.6c0.1,0,0.1,0,0.2-0.1L-87.8,380.6z
	 M-88.4,378.6c-0.1,0.2-0.1,0.3-0.2,0.4c0.1,0,0.1,0.1,0.2,0.1c0,0.2,0.1,0.4,0.3,0.5C-87.8,379.2-88.3,379-88.4,378.6z
	 M-90.9,376.9c0,0.1,0,0.1,0,0.1c-0.1,0-0.1-0.1-0.2-0.1c0-0.1-0.1-0.1-0.1-0.2l-0.1,0.1c0,0,0,0.1-0.1,0.1c0.1,0.1,0.2,0.3,0.3,0.4
	c0.1,0,0.2-0.1,0.3-0.2C-90.8,377-90.9,377-90.9,376.9z M-93.3,376.1c-0.1,0.1-0.1,0.1-0.2,0.2c0.1,0.1,0.2,0.2,0.4,0.3
	c0.2,0.1,0.3,0.2,0.5,0.3C-92.6,376.2-92.6,376.2-93.3,376.1z M-94.6,375.4C-94.6,375.3-94.6,375.2-94.6,375.4
	c-0.2,0.1-0.4,0.1-0.5,0.2c0,0,0,0,0,0.1c0,0,0.1,0.1,0.2,0.1C-94.8,375.7-94.7,375.6-94.6,375.4L-94.6,375.4c0,0,0.1,0,0.1,0
	C-94.5,375.4-94.6,375.4-94.6,375.4z M-95.2,374.1v0.1c0,0,0,0,0,0.1c0.1,0.2,0.1,0.2,0.2,0.1c0.1-0.1,0.1-0.1,0.1-0.2
	C-95,374.2-95.1,374.1-95.2,374.1z M-98,369.1c-0.3-0.1-0.6-0.2-0.9-0.2c0.6,0.6,0.6,0.6,1.3,0.2C-97.8,369.1-97.8,369-98,369.1z
	 M-98.2,372.8c-0.2-0.1-0.4-0.3-0.7-0.4c-0.1,0.3-0.2,0.4-0.3,0.6c0.2,0,0.4,0.1,0.5,0.1c0.3,0.1,0.4,0.1,0.5,0
	C-98.1,373.1-98.1,373-98.2,372.8z M-98.3,390.6h-0.6c-0.3,0-0.6,0.1-0.8,0.1h-0.2c-0.2,0.1-0.5,0.1-0.7,0.2
	c-0.2,0.1-0.3,0.1-0.5,0.2c-0.2,0-0.3,0.1-0.4,0.1c-0.3,0.1-0.6,0.2-0.9,0.3c-0.1,0-0.3,0.1-0.5,0.2v0c0,0,0,0,0,0s0,0,0,0
	c0.4-0.1,0.7-0.1,1.1-0.2c0.4-0.1,0.8,0.2,1.4-0.1c0.7-0.4,1.4-0.5,2.2-0.7C-98.2,390.7-98.2,390.7-98.3,390.6
	c0.1,0.1,0.2,0,0.2-0.1C-98.1,390.5-98.2,390.5-98.3,390.6z M-98.4,371.6c-0.1,0.1-0.1,0.1-0.2,0.1c0,0.2,0.1,0.3,0.1,0.3
	c0.1,0,0.2-0.1,0.2-0.1L-98.4,371.6z M-98.8,373.2c0.3,0.1,0.4,0,0.5,0H-98.8z M-98.4,372.2c0,0,0.1,0,0.2-0.1
	C-98.3,372.1-98.3,372.1-98.4,372.2z M-99.7,372C-99.7,372-99.6,372-99.7,372C-99.6,371.9-99.6,371.9-99.7,372z M-99.8,371.9
	c-0.1,0-0.2-0.1-0.2-0.1c-0.4-0.3-0.8-0.5-1.2-0.7c0,0.2,0.1,0.3,0.1,0.4c0.1,0.2,0.1,0.4,0.2,0.5c0.1,0,0.1,0.1,0.2,0.1
	c0.1,0,0.1,0,0.1,0s0.1,0,0.2,0C-100.2,372.1-100,372.1-99.8,371.9C-99.8,372-99.8,372-99.8,371.9C-99.8,372-99.8,372-99.8,371.9
	C-99.7,372-99.7,372-99.8,371.9l0.2,0C-99.7,371.9-99.8,371.9-99.8,371.9z M-101.6,389.7v-0.1c-0.2,0-0.5,0-0.7,0.1v0.3
	C-102.1,389.9-101.8,389.9-101.6,389.7L-101.6,389.7c0,0,0.1,0,0.1,0C-101.5,389.7-101.6,389.7-101.6,389.7z M-102.1,370
	c0-0.1-0.1-0.1-0.1-0.2c0,0,0,0-0.1,0c-0.1,0-0.3,0-0.6,0c0.2,0.2,0.3,0.3,0.4,0.5c0.1,0.1,0.2,0.3,0.3,0.4c0.1,0,0.2-0.1,0.3-0.1
	C-102,370.3-102,370.1-102.1,370z M-102.6,370.2c0.1,0.2,0.2,0.2,0.2,0.3C-102.4,370.4-102.5,370.3-102.6,370.2z M-102.8,391.9h0.3
	C-102.6,391.7-102.8,391.7-102.8,391.9z M-103.4,390c-0.8,0.1-1.7,0.3-2.5,0.5c0.1,0,0.1,0.1,0.1,0.2c0.9-0.1,1.7-0.4,2.5-0.4
	C-103.3,390.2-103.4,390.1-103.4,390z M-104,367.5c0,0.1,0,0.1,0,0.1c0,0.1,0,0.1-0.1,0.2c0.2,0.1,0.3,0.1,0.5,0.2c0,0,0-0.1,0-0.2
	C-103.7,367.7-103.9,367.6-104,367.5z M-105.1,332.5c-0.1,0.4-0.3,0.5-0.6,0.7c0.2,0.1,0.3,0.1,0.3,0.1c0.1-0.2,0.3-0.5,0.5-0.7
	C-105,332.6-105,332.5-105.1,332.5z M-106.9,392.3C-106.9,392.3-106.9,392.4-106.9,392.3L-106.9,392.3
	C-106.9,392.4-106.9,392.3-106.9,392.3z M-109,390.9C-109,390.8-109,390.8-109,390.9l-0.1-0.1c0,0.1-0.1,0.1-0.2,0.1
	c0,0.1,0.1,0.2,0.1,0.2h0.1C-109,391.1-109,391-109,390.9C-108.9,391-108.9,391-109,390.9z M-111.9,340.2L-111.9,340.2L-111.9,340.2
	c-0.2,0.1-0.3,0.3-0.4,0.5l-0.1,0.1l0,0c0,0,0-0.1,0-0.1c0,0.1-0.1,0.2-0.1,0.2c0,0,0,0,0,0c0,0-0.1,0.1-0.2,0.1h-0.1
	c0,0.1-0.1,0.2-0.1,0.3h0.4c0.1-0.2,0.2-0.3,0.3-0.5c0.1-0.2,0.2-0.4,0.3-0.5h0.1C-111.8,340.3-111.8,340.3-111.9,340.2z
	 M-113.6,341.8c0,0.2-0.1,0.4-0.2,0.6c0.1,0,0.1,0.1,0.2,0.1c0-0.3,0-0.4,0.2-0.6C-113.5,341.8-113.5,341.8-113.6,341.8z
	 M-115.6,346.6c0,0.3-0.1,0.7-0.2,1c0,0.1,0.1,0.1,0.2,0.1c0.1-0.3,0.1-0.6,0.2-1C-115.6,346.7-115.6,346.7-115.6,346.6z"/>
</svg>
