<?xml version="1.0" encoding="utf-8"?>
<!-- Generator: Adobe Illustrator 18.1.1, SVG Export Plug-In . SVG Version: 6.00 Build 0)  -->
<!DOCTYPE svg PUBLIC "-//W3C//DTD SVG 1.1//EN" "http://www.w3.org/Graphics/SVG/1.1/DTD/svg11.dtd">
<svg version="1.1" id="Layer_1" xmlns="http://www.w3.org/2000/svg" xmlns:xlink="http://www.w3.org/1999/xlink" x="0px" y="0px"
	 viewBox="-282 129 226 103" enable-background="new -282 129 226 103" xml:space="preserve">
<g>
	<g>
		<polygon points="-267.4,131.6 -267.4,135.1 -275.5,135.1 -275.5,143.2 -278.9,143.2 -278.9,131.6 		"/>
	</g>
	<g>
		<polygon points="-267.4,226 -267.4,229.4 -278.9,229.4 -278.9,218.4 -275.5,218.4 -275.5,226 		"/>
	</g>
	<g>
		<polygon points="-59.1,218.4 -59.1,229.4 -71.8,229.4 -71.8,226 -62.6,226 -62.6,218.4 		"/>
	</g>
	<g>
		<polygon points="-59.1,131.6 -59.1,143.2 -62.6,143.2 -62.6,135.1 -71.8,135.1 -71.8,131.6 		"/>
	</g>
	<g id="wordmark01_2_">
		<g>
			<path d="M-213.2,193.1L-213.2,193.1c0.3,0.1,0.7,0.3,1,0.4C-212.6,193.2-212.9,193.1-213.2,193.1z M-219.7,188.9
				c0,0.1-0.1,0.2-0.1,0.3C-219.9,189.1-219.7,189-219.7,188.9L-219.7,188.9z M-221.2,189.8L-221.2,189.8c0.3,0.1,0.6,0.2,0.9,0.3
				C-220.7,190-220.9,189.9-221.2,189.8z M-224.2,189L-224.2,189c0.5,0.1,0.9,0.2,1.3,0.3C-223.4,189.1-223.7,189.1-224.2,189z
				 M-227.4,187.8h0.1l0,0H-227.4z M-227.4,188.2L-227.4,188.2c0.1,0,0.1,0,0.2,0l0,0C-227.4,188.2-227.4,188.2-227.4,188.2z
				 M-227.6,167c-0.2,0.2-0.3,0.5-0.5,0.7C-228,167.4-227.9,167.1-227.6,167L-227.6,167z M-229.9,186.1h0.2l0,0
				C-229.7,186.1-229.9,186.1-229.9,186.1z M-230.6,171.6L-230.6,171.6l0.1,0.2l0,0C-230.4,171.8-230.4,171.8-230.6,171.6z
				 M-231.4,186.1c0,0.1,0,0.1,0,0.2C-231.4,186.1-231.4,186.1-231.4,186.1L-231.4,186.1z M-232.4,188.2
				C-232.2,188.2-232.2,188.2-232.4,188.2L-232.4,188.2C-232.2,188.2-232.2,188.2-232.4,188.2z M-232.6,188c0.1,0,0.2,0,0.2,0l0,0
				C-232.4,188.1-232.4,188-232.6,188z M-232.7,173.9l0.2,0.2l0,0C-232.6,174-232.6,174-232.7,173.9z M-232.9,188
				c0,0.1,0,0.2-0.1,0.3C-233,188.1-232.9,188-232.9,188L-232.9,188z M-233.6,175.1L-233.6,175.1c0.2-0.2,0.4-0.3,0.5-0.5
				C-233.1,174.8-233.4,175-233.6,175.1z M-235.7,175.6L-235.7,175.6c0-0.1,0.1-0.1,0.1-0.2C-235.7,175.6-235.7,175.6-235.7,175.6z
				 M-236.4,185.6L-236.4,185.6c0.2-0.1,0.4-0.2,0.6-0.3l0,0C-236,185.6-236.2,185.6-236.4,185.6z M-236.6,188.2c0,0.1,0,0.2,0,0.3
				C-236.6,188.5-236.6,188.4-236.6,188.2L-236.6,188.2z M-236.9,188.5C-236.9,188.5-236.9,188.6-236.9,188.5L-236.9,188.5
				C-236.9,188.6-236.9,188.5-236.9,188.5z M-238.4,178.2c0.3-0.3,0.6-0.5,0.9-0.8l0,0C-237.9,177.8-238.2,178-238.4,178.2z
				 M-240.2,180.4L-240.2,180.4L-240.2,180.4L-240.2,180.4z M-242.8,183.2L-242.8,183.2c0.2-0.2,0.5-0.4,0.7-0.7
				C-242.2,182.9-242.4,183.1-242.8,183.2z M-245.1,175L-245.1,175c0-0.1,0.1-0.2,0.1-0.3C-245.1,174.8-245.1,174.9-245.1,175z
				 M-253.8,199.8C-253.8,199.8-253.8,199.8-253.8,199.8L-253.8,199.8C-253.8,199.8-253.8,199.8-253.8,199.8z M-253.8,195.6
				c0.1,0,0.1,0.1,0.2,0.1l0,0C-253.8,195.6-253.8,195.6-253.8,195.6z M-254.2,196.4L-254.2,196.4L-254.2,196.4
				c0.1-0.1,0.2-0.2,0.2-0.4C-254,196.1-254.1,196.2-254.2,196.4z M-254.4,196.1L-254.4,196.1L-254.4,196.1c0,0,0.1,0.1,0.2,0.1
				C-254.3,196.2-254.4,196.1-254.4,196.1z M-255.5,205.6L-255.5,205.6c0.1-0.5,0.3-1.1,0.4-1.7
				C-255.2,204.6-255.4,205.1-255.5,205.6z"/>
			<path d="M-167.1,158.8h-0.5c0-0.2,0-0.4-0.1-0.5h-1.9c0.2-0.4,0.4-0.7,0.7-1c-0.8-0.1-1.5-0.2-2.2-0.3l-0.1,0.2
				c-0.4,0.1-0.8,0.1-1.2,0.2c-1.2,0.4-2.3,0.9-3.5,1.4c-1,0.4-1.9,0.8-2.9,1.2c-1.3,0.5-2.6,0.9-3.9,1.3c-2.2,0.8-4.3,1.6-6.5,2.4
				c-1.6,0.6-3.3,1.1-4.6,2c-1.4,0.9-3,1.7-4.2,3.1c-1,1.1-1.8,2.1-1.4,3.7c0.1,0.3,0,0.6-0.1,0.7c0.4,1,1,1.6,2,1.4
				c0.9-0.2,1.9-0.3,2.4-1.3c0.1-0.3,0.4-0.5,0.7-0.7c1.3-1,2.6-1.9,4-2.6c1-0.4,1.8-1.1,2.8-1.6c0.1-0.1,0.3-0.1,0.5-0.2
				c0.9-0.3,1.7-0.5,2.6-0.9c0.2-0.1,0.4-0.4,0.5-0.5c0.7,0,1.3-0.1,1.9-0.1c0.1,0.1,0.1,0.2,0.1,0.3c-0.8,2.6-1.6,5.1-2.5,7.7
				c-0.1,0.3-0.5,0.6-0.8,0.7c-3.1,0.9-6.4,1.3-9.7,1.3c-0.4,0-0.9-0.3-1.3-0.2c-1.8,0.5-3.3,0-4.5-0.7c-0.5-1.1-0.8-1.9-1.2-2.8
				c0.1-0.3,0.2-0.7,0.2-1.2c-0.1-2.1,0.1-4.1,0.4-6.2c0.1-0.9-0.6-1.6-1.5-1.5c-0.2,0-0.5,0-0.7,0.1c-1.3-0.9-2.3-0.8-2.8,0.2
				c-0.8,1.9-2.3,3.4-3,5.4c-0.1,0.2-0.2,0.3-0.3,0.5c-0.5,0.7-1.1,1.3-1.6,2c-0.9,1.4-1.7,2.9-2.5,4.4c-0.4,0.7-0.9,1.3-1.8,1.4
				c-1.5,0.2-2.9,0.4-4.4,0.5c-1.5,0.2-3.2,0.2-4.3,1.6c0.2,0.9,0.5,1.8,0.7,2.8c-0.1,0.2-0.2,0.6-0.3,1.1c1.4,0.4,2.7,0.7,4.1,1.1
				c-0.1,0.7-0.2,1.4-0.3,2.2c-0.4-0.2-0.8-0.4-1.3-0.6c-0.2,0.2-0.4,0.4-0.7,0.6c-0.6-0.4-1.2-0.9-1.9-1.1
				c-0.8-0.2-1.6-0.2-2.6-0.4c-0.5-0.9-2.1,0.5-2.6-0.9c-0.4,0.1-0.7,0.2-1,0.3c-0.3-0.2-0.5-0.4-0.8-0.6c-1.7,0.6-3.4,0.1-5-0.3
				c-0.3,0.1-0.6,0.3-0.7,0.3c-0.8-0.2-1.4-0.4-2-0.5c-0.2,0-0.4,0.1-0.6,0.1c0-0.1,0-0.1,0-0.2c0.2,0,0.4,0,0.6,0
				c0.4-0.4,0.8-0.8,1.2-1.2c0.7-0.7,1.6-1,2.1-2c0.5-0.9,1.2-1.7,2-2.3c1.2-0.9,2.6-1.6,3.2-3.1c0.1-0.1,0.1-0.2,0.2-0.3
				c1.6-0.9,2.4-2.5,3.6-3.8c1-1.1,2-2.1,3-3.2c1-1.2,1.8-2.4,2.7-3.7c0.2-0.3,0.2-0.7,0.2-0.8c0.5-0.6,1-1,1.3-1.4
				c0.5-0.7,0.9-1.6,1.4-2.3c1-1.5,1.6-3,1.8-4.8c0.1-0.4,0.3-0.7,0.5-1.2c-0.1-0.7-0.3-1.5-0.5-2.1c-1.1-0.6-1.8-1.3-2.8-1.5
				c-1.2,0.2-1.9,0.6-3.4,1.8c0,0.3-0.1,0.6-0.1,1c-0.3-0.1-0.6-0.1-0.8-0.2c0,0-0.1,0.1-0.1,0.2c0.2,0.2,0.4,0.4,0.7,0.6
				c-0.4,0.3-0.6,0.5-0.9,0.7h-1.3c0.4,0.3,0.6,0.5,0.7,0.6c-0.6,0.7-1.1,1.3-1.6,2c-0.3,0.4-0.5,0.9-0.8,1.2
				c-0.8,0.7-0.8,0.7-0.4,1.8l0.1,0.1c1-0.4,2-0.8,3.1-1.2c0.1-0.3,0.2-0.6,0.3-1.1c0.6,0.4,0.4,0.7,0.2,1.1
				c-0.7,1.2-1.3,2.5-2.3,3.6c-2.2,2.5-3.9,5.5-6.5,7.7c-0.1,0.1-0.1,0.2-0.2,0.3c-2,2.3-4.1,4.6-6.1,6.9c-0.6,0.7-1.3,1.1-1.9,1.6
				c-1.2,1.1-2.2,2.5-3.3,3.8c-0.4,0.5-0.9,0.9-1.6,1.1c0-0.5-0.1-0.9-0.2-1.6c0.2-0.5,0.5-1.2,0.8-2c0.3-0.9,0.7-1.9,0.7-2.8
				c0-1,0.2-1.9,0.5-2.9c0.2-0.8,0.4-1.6-0.1-2.2c0.3-1.1,1-2.1,0.9-3.1c0-1.1,0.1-2.1,0.5-2.9c0.4-1,0.3-1.9,0.6-2.8
				c0.3-1.2-0.4-2-1-2.8c-0.3-0.3-0.7-0.5-1.1-0.8c-0.3,0-0.8,0.2-1.3,0.4c-1,0.6-1.9,1.3-2.2,2.5c-0.3,1.4-0.4,2.8-0.6,4.3
				s-0.5,3-0.8,4.4c-0.1,0.5-0.1,1-0.2,1.6c-0.1,0.6,0.1,1.4-0.1,1.9c-0.4,0.8-0.6,1.5-0.7,2.3c0,0.6-0.1,1.3-0.3,1.9
				c-0.1,0.5-0.6,1.1-0.5,1.6c0.1,1.4-0.6,2.5-0.8,3.7c-1.1,0.7-2.4,0.6-3.6,0.8s-2.3,0.6-3.8,1c-0.8,0.8-0.9,0.8-1.8,0.2
				c-0.3,0.3-0.7,0.8-1,0.8c-1.4-0.1-2.4,0.9-3.5,1.4c-0.3,1.1,0.4,1.9,0.7,2.9c0.3,0,0.6,0,0.8-0.1c0.9-0.2,1.7-0.4,2.5-0.5
				c1.6-0.2,3.1-0.3,4.7-0.5c1.2-0.2,2.4-0.5,3.8-0.8c0,0.4,0.1,0.8-0.1,0.9c-0.4,0.6-0.9,1.1-1.4,1.6c-0.8,0.8-1.6,1.5-2.4,2.3
				c0.3,0,0.5,0.1,0.9,0.1c-0.1,0.7-0.6,0.9-1.1,0.9c-0.3,0.4-0.6,0.7-0.9,1.1l0,0l0,0c-0.1-0.1-0.1-0.1-0.2-0.2
				c0.2-0.5,0.6-0.8,1.1-0.9c0.1-0.3,0.2-0.6,0.2-1c-1.1,0.9-2.3,1.7-3.3,2.8c0.3,0.3,0.5,0.6,0.6,0.8c-0.3,0.3-0.7,0.5-1,0.9
				c-0.3,0.5-0.6,1-0.8,1.5h2.7c0.1-0.3,0.3-0.7,0.5-1.1c0.7-0.2,1.5-0.3,2.4-0.5c0,0.3,0.1,0.6,0,0.9c-0.5,1.7-0.9,3.3-1.4,5
				c-0.5,1.8-0.8,3.6-0.8,5.4c1.5,0.7,1.7,0.7,2.7,0c0.2,0.6,0.5,1.2,1.3,1.1c0.2-0.2,0.4-0.3,0.5-0.5c0.5-0.6,1-1.2,1.3-1.9
				c0.4-1.2,0.6-2.4,0.9-3.6c0.4-1.5,1-2.9,1.4-4.1c-0.1-0.7-0.2-1.2-0.3-1.7c0-0.5,0-1-0.1-1.7c0.3-0.3,0.6-0.8,1.1-1.4
				c-0.4,0.1-0.6,0.1-1,0.2c0.7-1.6,2.3-2.8,1.8-4.9c0.5-0.4,1-1,1.6-1.4c0.8-0.5,1.7-0.8,2.5-1.1c0.1-0.1,0.3,0,0.5,0h5.8
				c0.2,0,0.4,0,0.6,0.1c1.1,0.7,2.2,0.2,3.4,0.2c-0.9-0.2-1.7-0.4-2.6-0.6c0-0.1,0-0.2,0-0.2c1.4,0.1,2.8,0.2,4.2,0.3
				c1.1-0.5,2.1-0.5,2.2,0.1c-0.2,0-0.5,0.1-0.8,0.2c0.1,0.4,0.2,0.8,0.3,1.2c0.8,0,1.5,0.6,2.3,0.3c0-0.1,0-0.2,0.1-0.3
				c-0.6-0.2-1.2-0.4-1.8-0.6c0.1,0,0.3-0.1,0.4-0.1c0.6,0,1.1,0.1,1.8,0.2c-0.1-0.2-0.1-0.4-0.2-0.7c0.5,0,0.9,0.1,1.2,0.1
				c0.3,0.5,0.6,1.1,1,1.2c0.5,0.2,0.5,0.7,0.8,0.8c0.4,0.2,0.9,0.3,1.4,0.4c0.2-0.4,0.3-0.6,0.5-1.1c-0.6,0.2-1,0.3-1.3,0.4
				c-0.4-0.3-0.9-0.6-1.4-1c0.1-0.1,0.2-0.2,0.2-0.3c1.3,0.3,2.5,0.6,3.9,0.9v1c0.6,0,1.2-0.1,1.8-0.1c0.1,0.6,0.6,0.6,1.1,0.6l0,0
				c1.4-0.4,1.8-0.3,2.1,0.8c1.4,0.8,3.2,0.7,4.3,2.1c0.3,0,0.6,0,0.9-0.1c0.1,0.2,0.1,0.4,0.2,0.6c0.7-0.2,1,0.1,1.1,0.7
				c0.3,0,0.6-0.1,0.9-0.1c0.2,0.3,0.4,0.6,0.8,1c-0.5,0-0.8-0.1-1.1-0.1c0.7,0.6,1.5,1,2.5,1c-0.2-0.2-0.5-0.4-0.8-0.6
				c1.4-0.3,2.2,0.6,3.3,1.2c-0.6,0-0.9,0-1.2,0.1c1.6,1.1,3.3,1.7,5.2,2.2c0.2-0.4,0.3-0.6,0.4-0.8c0.8,0,1.6,0,2-1.1
				c0.3-0.8,0.7-1.5,0.2-2.5c-0.9-0.4-1.9-0.9-2.9-1.4c-0.4-0.2-0.8-0.6-1.2-0.8c-0.8-0.2-1.6-0.6-2.3-0.9c-0.8-0.3-1.5-0.7-2.2-1.2
				c-0.1-0.1-0.3-0.2-0.4-0.2c-1,0.1-1.7-0.5-2.3-1.1c-0.5,0.1-1,0.1-1.5,0.2c-1.4-1.4-3.3-1.6-4.9-2.3c0.5-0.7,0.8-1.3,1.2-1.9
				c0.5-0.8,1-1.5,1.5-2.3c0.1-0.2,0.3-0.2,0.5-0.3c0.2,0.2,0.4,0.4,0.5,0.7c0.2-0.2,0.3-0.4,0.4-0.5c0.5,0.2,1,0.3,1.4,0.5
				c0.8,0.4,1.5,0.8,2.3,1.2c0.4,0.2,0.8,0.4,1.2,0.7c0.1-0.1,0.1-0.1,0.2-0.2c0.4,0.6,0.7,1.1,1.2,1.8c0.5,0.3,1.2,0.7,1.8,1.1
				c-0.1,0.4-0.1,0.6-0.2,1.1c1.4,0.4,2.3,1.7,3.8,1.7c0.8-0.5,0.1-1.3,0.4-1.9c0.3,0.1,0.6,0.2,0.9,0.2c0.1-0.4,0.3-0.8,0.4-1.2
				c-0.1-0.1-0.2-0.1-0.3-0.2c-0.6-0.4-0.2-1-0.1-1.3c-0.4-1.5-1.3-2.6-1.2-4c0-0.3-0.3-0.7-0.5-1c-0.1-0.2-0.3-0.5-0.4-0.7
				c1.1-0.2,2.1-0.6,3.1-0.5c0.9,0.1,1.7,0,2.5,0c1.4-0.1,2.8-0.1,4-1c0.6-0.5,1.3-0.3,1.9,0.4c0.6-0.3,1.1-0.6,1.6-0.9
				c0,0,0-0.1-0.1-0.1c0.4,0,0.8-0.1,1.3-0.1c-0.1,0.6-0.2,1.1-0.4,1.7c-0.5,1.7-0.8,3.4-1.4,5c-0.5,1.3-0.9,2.7-1.1,4.1
				c-0.2,1.5,0.1,2.7,1.3,3.6c0.5,0.4,1.1,0.6,1.7,0.9c0.6-0.5,1.1-1,1.6-1.4c0.7-0.5,1-1.1,1.2-1.9c0.2-0.7,0-1.4,0-2
				c0.1-1,0.5-1.9,0.8-2.8c0.2-0.6,0.4-1.2,0.5-1.8c0.3-1.3,0.5-2.5,0.8-3.8c0-0.1,0.1-0.3,0.1-0.3c0.6-0.6,0.6-1.4,0.6-2.2
				c0.1-0.6,0.1-1.5,0.5-1.8c0.8-0.6,0.5-1.1,0.3-1.8c0.2-0.3,0.6-0.6,0.6-0.9c0.2-1.7,1-3.1,1.5-4.7c0.5-1.7,1.2-3.4,1.9-5.1
				c0.4-1,1.2-1.4,2.1-1.8c0.8-0.3,1.6-0.6,2.3-1.1c0.8-0.5,1.6-0.9,2.2-1.7c0.4-0.6,1.1-0.9,1.7-1.3
				C-167,159-167.1,158.9-167.1,158.8z M-234.6,176.9L-234.6,176.9c-0.1,0.1-0.1,0.1-0.1,0.1s0,0-0.1,0s-0.2,0-0.3,0
				c0-0.6,0.3-0.9,0.8-1C-234.2,176.4-234.2,176.6-234.6,176.9z M-232.4,174.1c-0.2,0.2-0.4,0.4-0.5,0.5c-0.2,0.2-0.3,0.4-0.5,0.5
				l0,0c-0.1-0.1-0.1-0.1-0.2-0.2c0.3-0.4,0.7-0.7,1-1.1l0,0C-232.6,174-232.6,174-232.4,174.1L-232.4,174.1z M-230.1,171.6
				c-0.1,0.1-0.1,0.2-0.2,0.3l0,0l-0.2-0.2l0,0c0.1,0,0.1-0.1,0.1-0.1c0.2-0.2,0.4-0.3,0.6-0.5C-229.9,171.2-230,171.4-230.1,171.6z
				 M-229.7,171.1c0.1-0.1,0.2-0.2,0.3-0.4c0,0,0.1,0,0.1,0.1C-229.4,170.9-229.6,171-229.7,171.1z M-227.9,171.4
				c-0.3,0-0.6,0.1-1,0.1c0-0.1,0-0.2,0-0.2c0.3,0,0.7-0.1,1-0.1C-227.9,171.1-227.9,171.2-227.9,171.4L-227.9,171.4z M-235.6,175.5
				c0.1-0.2,0.2-0.4,0.3-0.6c1.5-1.7,3-3.3,4.5-5c0.1-0.1,0.2-0.2,0.3-0.2c0.1-0.1,0.3-0.1,0.4-0.2c0.1-0.3,0.3-0.6,0.4-0.8
				c0.2-0.2,0.3-0.5,0.5-0.7c0.4-0.4,0.9-0.8,1.4-1.1l0,0c-0.2,0.2-0.4,0.5-0.5,0.7c-0.2,0.2-0.4,0.5-0.6,0.7
				c-0.4,0.4-0.8,0.9-1.3,1.2c-1.8,2.1-3.7,4.2-5.5,6.3c-0.1,0-0.1-0.1-0.2-0.1l0,0C-235.7,175.6-235.7,175.6-235.6,175.5z
				 M-236.4,176.1L-236.4,176.1c0.1,0.1,0.2,0.2,0.2,0.2c0,0.1,0,0.2-0.1,0.3c0,0.1,0,0.2-0.1,0.2c-0.1,0.2-0.4,0.3-0.9,0.2
				C-236.9,176.6-236.7,176.4-236.4,176.1z M-245,174.6l0.5,0.2c0,0.1,0,0.1-0.1,0.2c-0.2,0-0.4-0.1-0.6-0.1l0,0
				C-245.1,174.9-245.1,174.8-245,174.6z M-255.1,205.6c-0.1,0-0.2,0-0.4-0.1l0,0c0.1-0.5,0.3-1.1,0.4-1.7c0.1,0,0.2,0,0.2,0
				C-255,204.6-255,205.1-255.1,205.6z M-254.5,202.6c0,0.1-0.1,0.2-0.1,0.4l0,0c0,0-0.1,0-0.2,0c0-0.2,0.1-0.5,0.1-0.7l0,0h0.1
				c0.1,0,0.1,0,0.1,0l0,0C-254.4,202.2-254.4,202.4-254.5,202.6z M-254.1,196.4L-254.1,196.4C-254.1,196.4-254.2,196.4-254.1,196.4
				L-254.1,196.4c-0.2-0.1-0.2-0.2-0.3-0.2l0,0c0.2-0.2,0.4-0.4,0.5-0.6l0,0l0,0c0,0,0.1,0.1,0.2,0.1l0,0c-0.1,0.1-0.1,0.2-0.2,0.3
				C-254,196.1-254.1,196.2-254.1,196.4z M-253.6,199.8L-253.6,199.8C-253.6,199.8-253.8,199.8-253.6,199.8
				c-0.1-0.1-0.1-0.1-0.2-0.1l0,0c0.1-0.3,0.2-0.7,0.4-1c0.1,0.1,0.2,0.1,0.3,0.2C-253.4,199.1-253.5,199.5-253.6,199.8z
				 M-252.9,192.6c-0.1,0.1-0.2,0.2-0.3,0.4c-0.1,0-0.1-0.1-0.2-0.1c0.1-0.1,0.2-0.2,0.3-0.4C-253,192.5-252.9,192.5-252.9,192.6
				L-252.9,192.6z M-238.4,178.2c0.3-0.3,0.6-0.5,0.9-0.8l0,0c-0.1,0.3-0.2,0.6-0.3,0.8c0,0.1-0.1,0.1-0.1,0.2
				c-0.2,0.2-0.3,0.4-0.6,0.5h-0.1c-0.2,0.1-0.3,0.1-0.6,0.2C-238.9,178.8-238.7,178.6-238.4,178.2z M-240.5,180.1
				c0.1-0.1,0.2-0.2,0.4-0.3c0.1-0.1,0.2-0.2,0.4-0.3c0,0.1,0,0.2,0,0.4c0,0.1,0,0.1,0,0.2c0,0,0,0,0,0.1c0,0.1,0,0.1-0.1,0.1
				l-0.1,0.1l0,0h-0.1h-0.1l0,0l0,0h-0.1l0,0C-240.3,180.2-240.4,180.2-240.5,180.1L-240.5,180.1z M-242.8,183.2L-242.8,183.2
				c-0.1-0.1-0.2-0.2-0.2-0.2l0,0c0.3-0.2,0.5-0.4,0.8-0.6c0,0.1,0.1,0.1,0.2,0.2C-242.2,182.9-242.4,183.1-242.8,183.2z
				 M-239.2,188.6L-239.2,188.6c-0.2,0.1-0.3,0.1-0.5,0.1c-0.5-0.1-0.9-0.2-1.5-0.3c0.3-0.3,0.6-0.5,0.7-0.6
				c0.4,0.1,0.6,0.2,0.9,0.3c0.1,0,0.2,0.1,0.2,0.2c0.1,0.1,0.1,0.2,0.2,0.2l0,0C-239.2,188.5-239.2,188.6-239.2,188.6z
				 M-236.7,188.6h-0.2v-0.1c0,0,0,0,0-0.1c0,0,0-0.1,0-0.2h0.3C-236.6,188.4-236.6,188.5-236.7,188.6z M-236.1,186.5
				c-0.1,0-0.1,0.1-0.1,0.1l0,0c-0.1,0-0.1,0.1-0.1,0.1l0,0c0,0,0,0-0.1,0c-0.3-0.1-0.6-0.1-0.8-0.4c0.2,0,0.4,0,0.6,0.1
				C-236.6,186.4-236.4,186.4-236.1,186.5L-236.1,186.5z M-235.9,185.5c-0.2,0.1-0.4,0.2-0.6,0.3l0,0c0-0.1-0.1-0.1-0.1-0.2l0,0
				c0.2-0.1,0.4-0.1,0.6-0.2C-235.9,185.4-235.9,185.4-235.9,185.5L-235.9,185.5z M-232.2,188.2L-232.2,188.2
				c-0.2,0.1-0.2,0.1-0.3,0.2h-0.1c-0.1,0-0.2-0.2-0.4-0.2c0-0.1,0.1-0.2,0.1-0.3l0,0c0.1,0,0.3,0,0.4,0.1c0.1,0,0.2,0,0.2,0l0,0
				C-232.2,188.1-232.2,188.1-232.2,188.2L-232.2,188.2z M-231.4,186.2c-0.4-0.1-0.7-0.2-1.1-0.3c0-0.1,0-0.1,0-0.2l0,0
				c0.2,0,0.4,0.1,0.5,0.1c0.2,0,0.4,0.1,0.5,0.1l0,0C-231.4,186.1-231.4,186.1-231.4,186.2z M-229.7,186.1
				c-0.2,0.1-0.3,0.2-0.5,0.4l-0.2,0.1l0,0c0-0.1,0-0.2,0.1-0.3v-0.1l0.1-0.1c0.1,0,0.2-0.1,0.3-0.1
				C-229.9,186.1-229.7,186.1-229.7,186.1L-229.7,186.1z M-227.2,187.8c0,0.2,0,0.4,0,0.5l0,0l0,0c-0.1,0-0.1,0-0.2,0l0,0
				c0-0.2,0-0.4,0-0.5l0,0H-227.2L-227.2,187.8L-227.2,187.8z M-223,189.5L-223,189.5c-0.4-0.1-0.8-0.2-1.3-0.3l0,0
				c0-0.1,0-0.1,0-0.2l0,0c0.5,0.1,0.9,0.2,1.3,0.3C-222.9,189.4-222.9,189.4-223,189.5z M-220.4,190.1c-0.3-0.1-0.6-0.1-0.9-0.2
				c0-0.1,0-0.1,0-0.2l0,0C-221,189.9-220.7,190-220.4,190.1C-220.4,190.1-220.4,190.1-220.4,190.1z M-219.9,189.1
				c-1.4-0.4-2.8-0.9-4.1-1.3c0-0.1,0.1-0.2,0.1-0.3c0.4,0,0.7,0.1,1.1,0.2c0.3,0.1,0.5,0.1,0.8,0.2c0.1,0,0.3,0.1,0.4,0.1
				c0.3,0.1,0.5,0.2,0.8,0.3c0.4,0.1,0.7,0.3,1.1,0.4l0,0C-219.7,189-219.9,189.1-219.9,189.1z M-213.2,193.1c0-0.1,0.1-0.2,0.1-0.2
				l0,0c0.2,0.1,0.3,0.1,0.5,0.2s0.3,0.1,0.5,0.2l0,0v0.1c0,0,0,0.1-0.1,0.2C-212.6,193.4-212.9,193.1-213.2,193.1L-213.2,193.1z
				 M-206.9,174.4c0,0,0.1,0,0.2,0h0.1l0,0c0.1,0.6,0.2,1.2,0.3,1.8c0,0.2,0.1,0.4,0.1,0.6h-2C-207.7,176-207.4,175.1-206.9,174.4z
				 M-204.6,186.6c0,0.1-0.1,0.1-0.1,0.2c-0.2-0.1-0.4-0.1-0.6-0.2h-0.1c-0.2,0-0.3-0.1-0.5-0.2c-0.1,0-0.2-0.1-0.3-0.1
				s-0.2-0.1-0.2-0.1s0,0-0.1,0c-0.2-0.1-0.4-0.2-0.6-0.3c-0.2-0.1-0.4-0.2-0.6-0.4c-0.3-0.2-0.6-0.3-0.8-0.5c-0.5-0.3-1-0.6-1.4-1
				c-0.2-0.2-0.5-0.3-0.7-0.5l0,0l0,0c0.4,0,0.8-0.1,1.2-0.1s0.8-0.1,1.2-0.1c0.8-0.1,1.6-0.2,2.5-0.3c0.5,1.2,1,2.4,1.4,3.5l0,0
				C-204.4,186.5-204.6,186.6-204.6,186.6z"/>
			<path d="M-123.6,194.5L-123.6,194.5c0.1,0,0.1,0,0.2-0.1C-123.4,194.4-123.6,194.5-123.6,194.5z M-126.7,190.8
				c0,0.1,0.1,0.1,0.1,0.2l0,0C-126.7,190.9-126.7,190.9-126.7,190.8z M-130.7,189.6c0.1-0.1,0.2-0.2,0.4-0.3l0,0
				C-130.6,189.4-130.6,189.5-130.7,189.6z M-131,188.2L-131,188.2c0,0,0.1,0,0.2,0.1C-130.9,188.2-131,188.2-131,188.2z
				 M-131,188.1C-131,188.1-131,188.1-131,188.1C-131,188.1-131,188.1-131,188.1L-131,188.1z M-134.2,186.1L-134.2,186.1
				c0,0,0.1,0,0.2-0.1C-134.1,186-134.1,186-134.2,186.1z M-134.6,187.1c0.3,0.1,0.4,0,0.5,0S-134.2,187.1-134.6,187.1z
				 M-135.4,185.8c-0.1,0-0.2,0-0.2,0.1L-135.4,185.8L-135.4,185.8z M-138,203.8L-138,203.8c0.2,0,0.5-0.1,0.7-0.2
				C-137.6,203.6-137.7,203.8-138,203.8z M-138.4,184.1c0.1,0.2,0.2,0.3,0.3,0.4l0,0C-138.1,184.5-138.2,184.4-138.4,184.1z
				 M-138.6,205.8c0-0.1,0-0.2-0.1-0.2C-138.6,205.6-138.6,205.6-138.6,205.8c0.1,0,0.2,0,0.3,0
				C-138.4,205.6-138.6,205.6-138.6,205.8z M-139.7,181.5C-139.7,181.5-139.9,181.5-139.7,181.5
				C-139.9,181.5-139.7,181.5-139.7,181.5L-139.7,181.5z M-142.7,206.2c0,0.1,0.1,0.2,0.1,0.2l0,0
				C-142.6,206.4-142.7,206.4-142.7,206.2z M-143,206.5L-143,206.5c0,0.1,0,0.1,0.1,0.1L-143,206.5z M-144.7,204.8L-144.7,204.8
				L-144.7,204.8C-144.7,204.9-144.7,204.9-144.7,204.8z M-144.7,204.8C-144.7,204.8-144.9,204.8-144.7,204.8
				C-144.9,204.8-144.7,204.8-144.7,204.8L-144.7,204.8z"/>
			<path d="M-76.6,179.6c0,0,0.1,0,0.2,0l0,0C-76.3,179.6-76.4,179.6-76.6,179.6z M-76.6,180.1L-76.6,180.1c0.1,0,0.2,0,0.3,0
				C-76.3,180.1-76.4,180.1-76.6,180.1z"/>
			<path d="M-120,144.9c0.1,0.1,0.1,0.2,0.2,0.3l0,0C-119.9,145.1-120,144.9-120,144.9z M-120.1,146.4L-120.1,146.4
				c0-0.2,0.1-0.4,0.1-0.6C-120,146.1-120.1,146.2-120.1,146.4z M-120.4,144.6c0.1,0.2,0.1,0.4,0.2,0.6l0,0
				C-120.2,145.1-120.4,144.9-120.4,144.6z M-123.2,140.1L-123.2,140.1h0.1H-123.2z M-123.1,139.6h-0.1
				C-123.2,139.6-123.2,139.6-123.1,139.6c0,0.1,0,0.2,0,0.3C-123.1,139.9-123.1,139.8-123.1,139.6z M-123.4,139.6L-123.4,139.6
				c0,0.2,0.1,0.3,0.1,0.5C-123.4,139.9-123.4,139.9-123.4,139.6z M-123.6,153.9c0,0.1-0.1,0.1-0.1,0.2
				C-123.7,153.9-123.7,153.9-123.6,153.9L-123.6,153.9L-123.6,153.9z M-124,158.6L-124,158.6c0-0.1,0-0.2,0.1-0.3
				C-123.9,158.4-123.9,158.5-124,158.6z M-125,162.4c0,0.1-0.1,0.2-0.1,0.3l0,0l0,0C-125.1,162.6-125,162.5-125,162.4z"/>
			<path d="M-169.7,172.4c-0.6,2.4-1.1,4.7-1.1,7.2c0,0.1,0,0.2-0.1,0.4c-0.4,1.7-0.7,3.4-1.2,5.1c-0.1,0.5-0.5,0.9-0.8,1.5
				c0,0,0.2,0.2,0.3,0.4c-0.2,0.9-0.5,1.7-0.6,2.6c-0.2,1.4-0.2,2.8-0.4,4.2c-0.2,1.5-0.9,2.3-2.4,2.6c-0.4,0.1-0.9,0.4-1.3,0.3
				c-0.7-0.1-1.2-0.5-1.6-1.2c-1-1.9-0.4-3.7,0-5.5c0.6-2.7,1.5-5.3,1.5-8.1c0-0.2,0-0.5,0.1-0.7c0.7-1.7,1-3.5,1.2-5.3
				c0.2-1.9,0.6-3.8,1-5.7c0.2-0.8,0.6-1.6,1-2.4s0.9-1.3,1.9-0.9c0.2,0.1,0.5,0,0.8,0c0.3,0.8,1.1,0.7,1.8,1.1
				C-169.2,169.4-169.4,170.9-169.7,172.4z"/>
			<path d="M-144.9,148.9c-0.1,0.3-0.2,0.6-0.3,0.8c-0.4,0.7-0.8,1.3-1.2,2l0,0c-0.5,0.1-0.4,0.6-0.4,1c-0.1,0.1-0.1,0.3-0.2,0.4
				c0,0.1-0.1,0.3-0.1,0.4c-0.1,0.2-0.1,0.5-0.2,0.7h-0.1c-0.1,0-0.2,0-0.3,0l0,0l0,0c-0.1,0.1-0.2,0.3-0.3,0.5
				c-0.1,0.2-0.2,0.3-0.3,0.5h-0.4c0.1-0.4,0.3-0.8,0.3-1.2c0-0.2-0.1-0.4-0.2-0.9c0.9-1.3,1.9-2.8,3-4.2
				C-145.4,148.9-145.2,148.9-144.9,148.9z"/>
			<path d="M-148.2,154.6c-0.1,0.2-0.2,0.3-0.2,0.5l0,0C-148.4,154.9-148.2,154.9-148.2,154.6z"/>
			<path d="M-132.9,140.4c0,0.2,0.1,0.4,0.2,0.8c-0.2,0.1-0.3,0.2-0.5,0.3c-0.2-0.6-0.8-1.1-0.4-1.6c1.1-0.2,2.1-0.4,3-0.6
				C-131.1,139.8-131.4,139.9-132.9,140.4z"/>
			<path d="M-259,201.6c-0.7,0-1.2,0.9-2,0.3c0.1-0.5,0.1-1,0.2-1.6c0.1,0,0.2,0,0.3,0C-260,200.8-259.6,201.1-259,201.6z"/>
			<path d="M-148.7,151.8c-0.5,0.9-0.9,1.8-1.5,2.8C-150.4,153.2-150.2,152.9-148.7,151.8z"/>
			<path d="M-133.9,141.8c-0.5,0.4-0.9,0.6-1.2,0.9c0,0-0.1-0.1-0.2-0.1c0.1-0.2,0.2-0.4,0.2-0.6c-0.4,0.1-0.7,0.3-1.1,0.4
				c-0.1-0.3-0.2-0.6-0.4-1c0.2-0.1,0.4-0.1,0.6-0.2c0.4,0,0.7,0,1.1-0.1c-0.1-0.2-0.1-0.5-0.2-0.7c0.1-0.2,0.2-0.3,0.4-0.6
				c0.2,0.5,0.4,0.8,0.6,1.2c-0.2,0.1-0.4,0.1-0.6,0.2v0.1C-134.6,141.4-134.4,141.6-133.9,141.8z"/>
			<path d="M-141.4,145.6c-0.8,0.7-1.1,0.2-1.6-0.3c0.2-0.2,0.4-0.4,0.6-0.5c0.2-0.1,0.3-0.3,0.4-0.4l0.2,0.2
				c-0.2,0.1-0.4,0.2-0.5,0.3C-141.9,145.1-141.6,145.4-141.4,145.6z"/>
			<path d="M-74.8,171c-0.1,0.5-0.1,1.1-0.2,1.7c-0.4,0-0.6,0-0.8,0l0,0c0.3-0.6,0.6-1.1,0.8-1.7C-75.1,170.9-74.9,170.9-74.8,171z"
				/>
			<path d="M-128.1,138.6c-0.3,0.5-0.4,0.8-0.7,1.3c-0.3-0.4-0.4-0.6-0.6-1C-129,138.9-128.7,138.8-128.1,138.6z"/>
			<path d="M-126.9,137.9c-0.2,0-0.3,0.1-0.6,0.1c-0.1-0.4-0.2-0.7-0.3-1.2C-127.2,136.9-127,137.4-126.9,137.9z"/>
			<path d="M-218.2,193.1c-0.4-0.1-0.8-0.2-1.1-0.3C-218.7,192.5-218.6,192.8-218.2,193.1z"/>
			<path d="M-75.6,174.1c-0.1-0.4-0.2-1-0.3-1.6l0,0c-0.4,1.1-1.4,1.9-1.3,3.1c0,0.1-0.1,0.2-0.1,0.3c-0.5,0.6-0.5,1.4-0.5,2.1
				c0,0.5,0,1-0.2,1.5c-0.3,0.8-0.8,1.4-1.2,2.2c-0.8,1.6-1.5,3.1-2.2,4.7c0,0.1,0,0.2,0,0.4c-0.4,1.4-1,2.6-2,3.6
				c-0.4,0.3-0.8,0.6-1.3,0.1c0.1-1.6,0.2-3.2,0.2-4.7c-0.3-0.2-0.5-0.2-0.5-0.2c0-1.4,0.1-2.6,0-3.8c0-0.7-0.1-1.6-0.6-2
				c-0.6-0.6-0.7-1.2-0.8-1.8c0-0.2-0.2-0.3-0.3-0.7c-0.4,0.7-0.8,0.9-1.4,0.5c-0.2-0.5-0.4-0.9-1-0.5c-0.5,0.1-0.8,0.3-1,0.8
				c-0.1,0.2-0.2,0.5-0.3,0.7c-0.8,1.1-1.6,2.1-2.4,3.1c-0.3,0.4-0.7,0.8-1.2,1.4c1.2-3.7,2.2-7.1,3.3-10.5c0.7-0.2,1.3-0.3,1.9-0.5
				c0-0.1-0.1-0.2-0.1-0.2c0.4-0.3,0.7-0.6,1.1-1c0.6-0.4,1.2-0.9,1.8-1.3c0.1-0.1,0.3-0.2,0.4-0.4c0.5-0.4,1-0.8,1.5-1.2
				c0,0,0-0.1,0.1-0.2c-0.2,0-0.4,0-0.6,0v-0.7h-2.2c0.3-0.4,0.5-0.6,0.7-1c-0.8-0.1-1.5-0.2-2.3-0.4c0,0.1-0.1,0.2-0.1,0.2
				c-0.5,0.1-0.8,0.1-1.1,0.2c-0.8,0.3-1.6,0.7-2.4,1c-0.8,0.3-1.6,0.4-2.4,0.6c-0.9,0.2-1.8,0.6-2.6,0.6c-2.9,0.2-5.7,0.8-8.3,1.5
				c-0.4,0.8-0.8,1.4-1.1,2l-0.1,0.1c0,0.9-0.1,1.8-0.1,2.7c0.5,0.4,1,0.8,1.3,1.1c0.8,0,1.4,0,2,0c0.7,0,1.3,0,2-0.1
				c0.6-0.1,1.2-0.2,1.8-0.4c0.5-0.1,1.1-0.2,1.8-0.4c-0.6,1.7-1.2,3.2-1.7,4.7c-0.3,0.9-0.7,1.9-1.1,2.8c-0.5,1.2-1,2.3-1.5,3.5
				c-0.3,0.7-0.6,1.3-0.9,1.9c-0.2,0.5-0.4,1-0.7,1.5c-0.6,1.3-1.2,2.5-1.9,3.8c-0.6,1.1-0.6,2,0.4,2.8c-0.1,0.5-0.1,0.9-0.2,1.4
				c0.5-0.1,0.9-0.1,1.2-0.2c0.1,0.1,0.2,0.3,0.3,0.5c0.8-0.5,1.5-0.9,2.4-0.8c0.2,0,0.4-0.2,0.5-0.3c1.1-1.2,2.1-2.4,3.2-3.5
				c0.1-0.4,0.1-0.8,0.3-1.1c0.7-1.1,1.5-2.1,1.4-3.6c0-0.1,0.1-0.2,0.1-0.2c0.3-0.9,0.9-1.8,0.9-2.8c0-0.2,0.2-0.5,0.3-0.7
				c1-1.1,2-2.3,3-3.4c0.2-0.2,0.4-0.2,0.9-0.5c-0.3,0.8-0.5,1.4-0.8,2.1c0.4-0.1,0.7-0.1,1.1-0.2c0.1,1,0.4,1.8,0.4,2.7
				c0.1,1.5-0.1,3.1,0.1,4.6c0.1,1.5,0.2,3.1,0.9,4.6c-0.7,1.7,0.9,2.6,1.4,4c0.5,0,1,0.1,1.6,0.1c0.2,0.2,0.4,0.4,0.5,0.6
				c2-0.4,3.3-1.7,4.5-3c0.8-0.8,1.3-1.7,2-2.5c1.1-1.2,1.9-2.6,2.6-4.1c0.7-1.4,0.7-3.1,1.8-4.3c0.2-0.2,0.2-0.6,0.3-0.9
				c0.1-0.7,0.1-1.3,0.1-2c0.3-0.2,0.6-0.4,0.8-0.5c0.2-1,0.3-1.9,0.4-2.8C-72.6,177-73.4,175.2-75.6,174.1z M-76.6,180.1v-0.4
				c0,0,0.1,0,0.2,0l0,0c0,0.1,0.1,0.3,0.1,0.4C-76.3,180.1-76.4,180.1-76.6,180.1z"/>
			<path d="M-140.4,143.4c-0.2,0.2-0.3,0.5-0.5,0.7C-141.1,143.6-141,143.4-140.4,143.4z"/>
			<path d="M-220.1,192.2c0,0.1,0,0.2,0,0.3c-0.3-0.1-0.6-0.2-0.9-0.3c0-0.1,0.1-0.2,0.1-0.2C-220.7,192.1-220.4,192.1-220.1,192.2z
				"/>
			<path d="M-105.9,167.9c0.1-0.6-0.1-1.3-0.2-2c-1.1-0.6-1.9-2.2-3.6-1.9c-1.1,1.4-1.8,2.9-2.2,4.5c-0.5,2.2-1,4.4-1.5,6.5
				c-0.6,2.3-1.2,4.7-1.9,7c-0.3,1.2-0.5,2.4-1,3.6c-0.6,1.4-1.1,2.8-1.2,4.4c-0.1,0.7-0.4,1.3-0.6,2c-0.6-0.6-1.2-0.9-1.6-1.5
				c-0.5-0.8-1.4-1.1-2.2-1.6c-0.7-0.4-1.3-1.2-2-1.7c-0.1-0.1-0.4-0.1-0.6-0.1c-0.1,0-0.3,0-0.4,0c-1-0.6-2-1.3-3.1-1.9
				c-0.5-0.3-1-0.5-1.4-0.7l-0.1,0.1c-0.1-0.2-0.2-0.4-0.3-0.6c-0.2,0.1-0.5,0.1-0.7,0.2c-0.6-1-0.6-1-2.4-1.4
				c-0.5-0.5-0.9-1-1.3-1.5c-0.4,0.3-0.6,0.4-0.7,0.5c-0.5-0.6-0.9-1.2-1.3-1.7c-0.4-0.5-1-0.9-1.7-0.8c-0.4-1.4-0.7-1.4-1.8-1.5
				c-0.2-1-1.7-1.9-2.5-2.4c-0.5-0.7-0.9-1.2-1.3-1.7c-1.3-1.4-2.2-3.1-3-4.8c-0.9-1.8-1.1-3.8-1.2-5.8c0-1.6-0.1-3.2,0.7-4.6
				c0.1-0.2,0.1-0.6,0.1-0.9c0-0.2,0-0.4,0.1-0.6c0.5-0.8,1-1.5,1.5-2.3c0.5-0.9,1-1.8,1.5-2.8c-0.1,0-0.1-0.1-0.2-0.1
				c-0.2,0.2-0.4,0.4-0.6,0.6c-0.1-0.1-0.1-0.1-0.2-0.2c0.5-0.6,1-1.3,1.5-1.9c0.3,0,0.5,0,0.7,0.1c0.7-0.8,1.2-1.7,2-2.2
				c0.5-0.4,0-1,0.8-1.3c0.5-0.2,0.9-0.8,1.4-1.3c-0.1-0.1-0.2-0.3-0.3-0.4c0.6-0.4,1.1-0.7,1.7-1.1c0-0.1-0.1-0.3-0.1-0.5
				c0-0.5,0.9-0.6,0.4-1.3c-1.1,0.4-1.4,1.4-1.9,2.3c-0.1-0.3-0.2-0.4-0.5-0.9c-0.7,0.8-1.2,1.4-1.7,2c-0.7,0.8-1.3,1.8-2.4,2.3
				c-0.1,0.2-0.2,0.4-0.4,0.6c-0.1,0-0.1,0-0.2,0c0-0.2,0.1-0.5,0.1-0.8c0-0.1-0.1-0.1-0.2-0.2c0-0.2,0.1-0.5,0.1-0.7
				c-0.1,0-0.2-0.1-0.3-0.1c-0.1,0.2-0.2,0.5-0.3,0.7h-0.8c0.1,0.3,0.2,0.6,0.3,0.8c0.3,0.3,0.6,0.5,0.9,0.9c-0.8,1-1.5,1.9-2.2,2.8
				c-0.2,0.4-0.3,0.7-0.5,1.1c-0.2,0.4-0.3,0.7-0.5,1.1c0,0,0,0,0,0.1c0,0,0,0-0.1,0h-0.1c0,0-0.1,0-0.2-0.1c0,0,0,0-0.1-0.1v-0.1
				h-0.1c-0.1,0.2-0.2,0.4-0.3,0.6l-0.1,0.1l-0.1,0.1c0,0-0.1,0.1-0.2,0.1s-0.1,0-0.2,0h-0.1c-0.8-0.1,0.2-0.8-0.4-1.1
				c-0.4,0.9-0.8,1.7-1.3,2.5c-0.4,0.8-0.1,1.8-0.8,2.5c-0.1-0.3,0-0.7,0-1c0-0.2-0.2-0.3-0.4-0.5c0,0.3-0.1,0.7-0.1,1
				c-0.1,0-0.2,0-0.2-0.1c0.1-0.3,0.2-0.7,0.3-1c1.2-0.5,0.9-1.7,1.4-2.8c-0.8,0.5-1.3,0.8-1.6,1.5c-0.9,2.2-1,4.5-1.2,6.8
				c-0.1,2,0,2-1.5,3.1c-0.2,0.1-0.3,0.2-0.5,0.4c-1.9,1.5-3.7,3.1-6,4c-1,0.4-1.8,1-2.8,1.5c-0.3,0.2-0.7,0.3-1,0.3
				c-0.7-0.1-1.1,0.2-1.5,0.7c-0.3,0.5-0.7,1-1,1.6c-1.2,0.2-1.5,0.7-1.5,1.9c0,0.8-0.1,1.6-0.2,2.4c0,0.3-0.1,0.6-0.2,0.8
				c-0.1,0.8-0.2,1.7-0.4,2.5c-0.1,0-0.1,0-0.2,0c0.1,0.3,0.2,0.5,0.2,0.8c-0.3,0.5-0.5,0.9-0.8,1.3c0.4,2.6,0.5,2.1-0.5,5.2
				c-0.2,0.5-0.5,1-0.5,1.5c-0.1,1.3-1,2.8,0.7,3.8c-0.3,1.1-0.2,1.3,0.6,1.8c1.4,0.9,2.7,0.7,4.2,0.1c0.9-0.4,1.8-0.6,2.6-1.1
				c1.6-0.9,3.2-1.8,4.9-2.6c1.1-0.5,2-1.3,3-1.9c1.4-0.7,2.8-1.4,4.2-2c0.1-0.7,0.1-1.2,0.2-1.6c0.4-0.2,0.8-0.3,1.3-0.5
				c-0.4-0.4-0.6-0.7-0.8-0.9c-0.6,0.1-1.1,0.2-1.6,0.3c0.1-0.6,1-0.6,0.4-1.3c-0.5,0.1-1.1,0.1-1.7,0.2c0-0.2,0-0.4,0.1-0.5
				c-0.9,0.3-1.6,0.5-2.3,0.7c-0.4,0.2-0.8,0.4-1.2,0.7c-0.2,0.1-0.3,0.2-0.4,0.4c-0.6,0.8-1.5,1.2-2.4,1.5c-0.5,0.1-1,0.3-1.5,0.5
				c-0.8,0.3-1.4,0.8-2.3,0.7c0-0.3,0-0.5,0-0.8c-0.5,0.5-0.7,1.2-1.7,0.8c0-0.3-0.2-0.7-0.1-1c0.4-1.3,0.9-2.6,1.3-4
				c0.5,0.1,0.9,0.2,1.2,0.3c1,0.3,3.5-0.7,4-1.7c0.1-0.2,0.1-0.4,0.2-0.6c0.3-1.2-0.1-2.3-0.7-3.3c-1.1-0.1-2.2-0.2-3.3-0.3
				c0.5-1.3,4-4.3,5.2-4.7c1.2-1.2,2.3-2.2,3.3-3.1c0.2,0.2,0.4,0.3,0.5,0.4c0.2-0.3,0.3-0.5,0.5-0.8c0.8,0.1,1.2,0.4,1.4,1.1
				c0.5,1.9,1.8,3.3,2.7,5c0.2,0.3,0.6,0.6,0.9,0.8c0.8,0.6,1.7,1.1,2.3,1.9c1.1,1.4,2.5,2.3,3.8,3.4c0.2,0.2,0.5,0.1,0.8,0.2
				c-0.1-0.4-0.3-0.8-0.5-1.2c-0.3-0.2-0.5-0.5-0.8-0.7c0,0,0.1,0,0.2,0c0.1,0,0.1,0,0.2,0h0.1c0,0,0.1,0,0.1,0.1c0,0,0.1,0,0.1,0.1
				c0.1,0.1,0.1,0.2,0.2,0.4c0,0,0,0.1,0.1,0.1c0.5,0.1,1.1,0.2,1.5,0.3c0.3,0.5,0.5,0.8,0.8,1.3h-1.3c0.2,0.7,0.7,1.2,1.4,1.5
				c1.6,0.7,3,1.7,4.3,2.8c0.2,0.2,0.5,0.2,0.8,0.3c0-0.2,0-0.4,0-0.6c0.4,0.3,0.4,0.3,0.1,0.7c0.2,0.2,0.3,0.4,0.5,0.6
				c1.2-0.7,0.1-1.5,0.4-2.5c0.4,0.7,0.7,1.2,1,1.7c-0.1,0.3-0.2,0.6-0.3,0.8c0.2,0.1,0.5,0.2,0.6,0.3c0.5,1,1.4,1.4,2.4,1.7
				c0.6,0.2,1.1,0.6,1.7,0.9c0.8,0.5,1.6,1.4,2.7,1.3c0.2,0.2,0.5,0.3,0.7,0.5c0.1,0.4,0.3,0.7,0.8,0.7c0-0.2,0.1-0.3,0.1-0.6l0,0
				l0.1,0.1c0.1,0.1,0.1,0.1,0.1,0.2s0,0.2-0.1,0.2c0,0,0,0-0.1,0c0,0-0.1,0-0.2,0.1c0.2,0.9-0.7,1-1.1,1.5c0.1,0.2,0.1,0.3,0.2,0.5
				h-0.8c-0.3,0.5-0.7,0.9-1.2,1.2c-1,0.4-2.1,0.8-3.1,1.2c-0.9,0.3-1.8,0.6-2.7,0.9c-0.8,0.3-1.6,0.7-2.4,0.8c-0.5,0-0.5,0.6-1,0.6
				s-1,0.2-1.6,0.3c-0.6,0.2-1.1,0.4-1.7,0.5c-1.1,0.3-2.1,0.8-3,0.4c-0.8,0.4-1.5,0.8-2.2,1.2c-0.3-0.2-0.5-0.5-0.7-0.6
				c-0.3,0.2-0.5,0.5-0.8,0.6c-1.1,0.2-2.2,0.4-3.2,0.6c-1.1,0.2-2.1,0.2-3.2,0.5c-0.6,0.1-1.1,0.5-1.7,0.8
				c-0.4-0.5-0.9-0.9-1.3-1.4c-0.3,0.1-0.7,0.2-1.1,0.3c-0.1-0.3-0.2-0.5-0.2-0.7c-0.7,0.4-1.3,0.7-1.9,1c0.1,0.2,0.1,0.4,0.2,0.5
				c-0.3,0.1-0.5,0.2-1.1,0.3c0.6,0.4,1,0.5,1.3,0.7c-0.2,0.9-1.2,0.3-1.7,1c0.8,0.3,1.5,0.6,2.1,0.9c0.2,0.3,0.3,0.6,0.5,0.8
				c1.1,0.1,2.1,0.2,3.1,0.2c0.1-0.2,0.1-0.4,0.2-0.7h3c0,0,0.2,0.2,0.3,0.3c0.4-0.3,0.7-0.6,1-0.6c1.3-0.2,2.7-0.4,4-0.6
				c1.1-0.2,2.2-0.3,3.2-0.5c1.5-0.2,3-0.5,4.5-0.8c0.4-0.1,0.8,0.2,1.4-0.1c0.9-0.5,1.9-0.6,2.9-0.8c0.2,0,0.4,0.2,0.7,0.2
				c0.4-0.5,0.9-0.9,1.6-0.7c0.1,0,0.3,0,0.3,0c0.6-1,1.8-0.1,2.5-0.7c1.1,0.9,1-0.3,1.3-0.9c0.4,0.1,0.9,0.2,1.4,0.3
				c0.1-0.2,0.1-0.5,0.3-0.8c1.3,1,1.9-0.8,2.9-0.5c0-0.3,0.1-0.4,0.1-0.5c2.8-1,4.5-2.9,5.8-5.5c0.2,0.3,0.3,0.5,0.4,0.6
				c1-0.2,2-0.4,3-0.6c0.8-1.5,0.4-3.3,1.3-4.9c-0.4-1.1,0.2-2,0.4-3c0.4-2.4,1.8-4.6,2.1-7.1c0.1-0.8,0.2-1.7,0.8-2.3
				c0.3-0.3,0.4-0.8,0.5-1.2c0.4-1.5,0.7-3,1.1-4.5c0.1-0.3,0.4-0.5,0.5-0.7l0.1-0.1c-0.3-0.5-0.2-0.9,0-1.4
				C-106.2,169.9-106.1,168.9-105.9,167.9z M-140.9,146.4c0.1,0,0.1,0.1,0.2,0.1l0,0c-0.2,0.2-0.4,0.5-0.5,0.7c0,0-0.1,0-0.3-0.1
				C-141.2,146.9-141,146.8-140.9,146.4z M-151.2,160.6c-0.1,0.4-0.1,0.7-0.2,1c-0.1,0-0.2,0-0.2-0.1c0.1-0.3,0.2-0.7,0.2-1l0,0
				C-151.4,160.6-151.4,160.6-151.2,160.6L-151.2,160.6z M-149.4,156.4c-0.1,0-0.1-0.1-0.2-0.1l0,0c0.1-0.2,0.2-0.4,0.2-0.6
				c0.1,0,0.1,0,0.2,0.1C-149.4,156-149.4,156.1-149.4,156.4z M-139.4,181.9L-139.4,181.9c-0.2-0.1-0.3-0.1-0.5-0.2
				c0.1-0.1,0.1-0.1,0.1-0.2c0,0,0,0,0-0.1l0,0c0.1,0.1,0.3,0.2,0.4,0.3C-139.4,181.8-139.4,181.9-139.4,181.9z M-137.7,184.5
				c-0.1,0-0.2,0.1-0.3,0.1l0,0c-0.1-0.1-0.2-0.3-0.3-0.4c-0.1-0.2-0.2-0.3-0.4-0.5c0.4,0,0.7-0.1,0.7,0l0,0c0,0.1,0.1,0.1,0.1,0.2
				c0.1,0.1,0.1,0.3,0.2,0.5C-137.9,184.4-137.9,184.5-137.7,184.5L-137.7,184.5z M-135.6,185.9c-0.2,0.1-0.4,0.1-0.6,0.1
				c-0.1,0-0.2,0-0.2,0l0,0c0,0,0,0-0.1,0c-0.2-0.1-0.3-0.3-0.4-0.6c0-0.1-0.1-0.2-0.1-0.4c0.4,0.2,0.8,0.4,1.2,0.7
				c0.1,0.1,0.3,0.2,0.4,0.2l0,0C-135.4,185.8-135.6,185.9-135.6,185.9z M-134,187c-0.1,0.1-0.2,0.1-0.5,0c-0.1,0-0.3-0.1-0.5-0.1
				c0.1-0.2,0.2-0.3,0.3-0.6c0.3,0.1,0.5,0.3,0.7,0.4C-133.9,186.9-133.9,187-134,187z M-134.4,185.6c0.1,0,0.1,0,0.2-0.1l0.1,0.3
				c0,0-0.1,0.1-0.2,0.1l0,0C-134.2,185.9-134.4,185.9-134.4,185.6z M-133.4,183L-133.4,183c-0.7,0.4-0.7,0.4-1.3-0.2
				c0.3,0,0.6,0.1,0.9,0.2C-133.6,182.9-133.6,183-133.4,183L-133.4,183z M-131,188.2C-131,188.1-131,188.1-131,188.2
				c0-0.1,0-0.1,0-0.2l0,0c0.1,0,0.2,0.1,0.3,0.1c0,0.1,0,0.1-0.1,0.2C-130.9,188.4-130.9,188.4-131,188.2
				C-130.9,188.2-131,188.2-131,188.2L-131,188.2z M-130.4,189.4c-0.1,0.1-0.2,0.2-0.4,0.3c-0.1-0.1-0.1-0.1-0.1-0.2
				c0.1-0.1,0.3-0.1,0.4-0.2l0,0C-130.4,189.1-130.4,189.2-130.4,189.4L-130.4,189.4z M-128.4,190.9c-0.3-0.3-0.6-0.5-0.9-0.7
				c0.1-0.1,0.1-0.1,0.2-0.2C-128.4,190.1-128.4,190.1-128.4,190.9z M-126.6,191c-0.1,0.1-0.2,0.2-0.3,0.2c-0.1-0.1-0.2-0.3-0.3-0.4
				l0,0c0.1,0,0.1-0.1,0.1-0.1l0.1-0.1l0,0c0,0.1,0.1,0.1,0.1,0.2C-126.7,190.9-126.7,190.9-126.6,191L-126.6,191z M-124,193.6
				c-0.1,0-0.1,0.1-0.2,0.2l0,0c-0.1-0.2-0.2-0.5-0.2-0.8c0-0.1,0.1-0.2,0.2-0.5C-124.1,192.9-123.6,193.1-124,193.6z M-148,207.1
				c0.3-0.6,0.3-0.6,1.7-0.1C-146.9,207.1-147.6,207.1-148,207.1z M-144.7,204.9c-0.1,0-0.1,0.1-0.2,0.1h-0.1l0,0
				c0,0-0.1-0.1-0.1-0.2c0.1,0,0.2,0,0.2-0.1h0.1l0,0c0,0,0,0,0,0.1C-144.7,204.9-144.7,204.9-144.7,204.9L-144.7,204.9z
				 M-142.6,206.5c-0.1,0-0.2,0.1-0.3,0.1c0,0,0-0.1-0.1-0.1l0,0c0.1-0.1,0.2-0.1,0.3-0.2C-142.7,206.4-142.6,206.4-142.6,206.5
				L-142.6,206.5z M-141.6,204.6c0-0.1,0-0.2-0.1-0.2c0.8-0.2,1.7-0.4,2.5-0.5c0,0.1,0.1,0.2,0.1,0.3
				C-139.9,204.2-140.7,204.5-141.6,204.6z M-137.4,203.5c0,0.1,0,0.1,0,0.2c-0.2,0.1-0.5,0.1-0.7,0.2l0,0c0-0.1,0-0.2,0-0.3
				C-137.9,203.5-137.6,203.5-137.4,203.5z M-133.9,204.4c0,0.1-0.1,0.2-0.1,0.2c0,0.1-0.1,0.1-0.1,0.2c-0.1,0.1-0.2,0.1-0.3,0.2
				c-0.2,0.1-0.5,0.1-0.7,0.1c-0.1,0-0.1,0-0.2,0s-0.1,0-0.2,0.1c0,0,0,0-0.1,0.1v0.1l0,0c-0.5,0.1-1,0.1-1.4,0.2
				c-0.2,0-0.3,0-0.5,0.1c-0.3,0-0.6,0.1-0.8,0.1c-0.1,0-0.2,0-0.4,0.1c0-0.1,0-0.2,0-0.3l0,0c0.2-0.1,0.4-0.2,0.5-0.2
				c0.3-0.1,0.6-0.2,0.9-0.3c0.1,0,0.2-0.1,0.4-0.1c0.2-0.1,0.3-0.1,0.5-0.2c0.2-0.1,0.5-0.1,0.7-0.2h0.2c0.2,0,0.5-0.1,0.8-0.1
				c0.2,0,0.4,0,0.6,0C-134,204.4-133.9,204.4-133.9,204.4L-133.9,204.4z"/>
			<path d="M-215.6,193.9c0,0.1,0,0.2,0,0.2c-0.2,0-0.4,0-0.6-0.1c0-0.1,0-0.1,0-0.2C-215.9,193.9-215.9,193.9-215.6,193.9z"/>
			<path d="M-119.2,142.8c-0.2,0.2-0.5,0.4-0.7,0.5c-0.5-0.9,0.5-0.9,0.9-1.3c-0.4-0.5-0.8-0.9-1.2-1.4c-0.1-0.3-0.2-0.6-0.3-1v1.2
				c0,0.5-0.1,1-0.2,1.6c-0.2-0.3-0.4-0.6-0.4-0.7c0.2-0.9-0.2-1.6-0.5-2.4c-0.2,0.3-0.5,0.6-0.8,0.9c-1-0.9,0.6-1.8-0.2-2.7
				c-0.7,0.2-1.4-1-2.1,0c0,0.3,0,0.7,0.1,1.1h-1.1c0.2-0.6,0.3-1,0.4-1.5c-0.3-0.2-0.6-0.3-0.7-0.4c-0.3,1-0.6,1.8-0.9,2.8
				c0.8,0.3,1.5,0.5,2.3,0.8c0.1-0.1,0.1-0.2,0.3-0.5c0.2,0.3,0.3,0.5,0.5,0.8c-0.2,0-0.4-0.1-0.5-0.1c-0.2,0.8-0.2,1.6,0.1,2.4
				c0.1,0.2,0.1,0.3,0.1,0.5c-0.3,1.8-0.5,3.6-1,5.4c-0.6,2-0.9,4.1-1.3,6.1c-0.1,0.8-0.4,1.6-0.6,2.3c-0.3,0.7-0.6,1.4-0.9,2.1
				c-0.9,2-1.5,4.1-1.9,6.3c0,0.3-0.3,0.7-0.4,1c-0.4,1-1.2,1.9-1.3,3c-0.1,1.2-0.7,2.1-1,3.1c-0.5,1.6-1.4,3.1-1.4,4.7
				c0.4,1.3,1.2,2,2.5,2.2c1.1-0.4,2.2-0.9,2.7-2.1c0.1-0.2,0.4-0.4,0.6-0.6c0.2-0.2,0.4-0.4,0.5-0.7c0.3-1.3,1.1-2.3,1.3-3.7
				c0.2-1.4,0.9-2.7,1.4-4.1c0.1-0.4,0.4-0.8,0-1.5c-0.1,0.3-0.1,0.4-0.2,0.5c0,0.1-0.1,0.2-0.2,0.3c-0.1,0-0.2,0-0.2-0.1
				c0.1-0.8,0.3-1.6,0.4-2.3c0.1,0,0.2,0,0.3,0c0,0.4,0,0.8-0.1,1.2c0.1,0,0.2,0,0.2,0.1c0.4-1.2,0.7-2.4,1.2-3.8
				c1.1-0.8,0.3-2.3,0.4-3.5c0.1,0,0.2-0.1,0.3-0.1c0.1,0.3,0.2,0.5,0.3,0.8c0.2-0.8,0.5-1.5,0.6-2.1c0.3-0.9,0.5-1.8,0.8-2.7
				c0.3-1,0.6-2.1,0.8-3.2c0.1-0.5,0.3-1,0.3-1.5c0.1-0.8,0.2-1.6,0.2-2.5c0.2-0.1,0.4-0.2,0.4-0.3c-0.1-1.2-0.2-2.3-0.2-3.4
				C-119,143.9-118.9,142.9-119.2,142.8z M-126.4,159c-0.1,0.3-0.2,0.5-0.3,0.8c-0.1,0-0.1,0-0.2-0.1c0.1-0.3,0.2-0.5,0.3-0.8
				C-126.6,158.9-126.4,158.9-126.4,159L-126.4,159z M-125.2,158c0,0-0.1,0-0.2,0c0-0.1-0.1-0.3-0.1-0.4l0,0c0.1,0,0.2,0,0.3,0V158z
				 M-124.9,162.4c-0.1,0.1-0.1,0.2-0.2,0.3l0,0l0,0C-125,162.6-124.9,162.5-124.9,162.4C-125,162.4-124.9,162.4-124.9,162.4
				L-124.9,162.4z M-123.9,158.6c0,0-0.1,0-0.2-0.1l0,0c0-0.1,0-0.2,0.1-0.3c0-0.1,0-0.2,0-0.3c0,0,0,0,0-0.1l0,0c0.1,0,0.1,0,0.2,0
				l0,0c0,0.1,0.1,0.3,0.1,0.4C-123.6,158.5-123.7,158.6-123.9,158.6z M-123.6,154.1c-0.1,0.1-0.2,0.3-0.4,0.4l0,0c0,0,0,0-0.1-0.1
				c0,0-0.1,0-0.1-0.1c0.1-0.1,0.2-0.3,0.3-0.4c0-0.1,0.1-0.1,0.1-0.2l0,0l0,0l0.1,0.1l0.1,0.1l0,0
				C-123.4,154.1-123.6,154.1-123.6,154.1z M-123.1,140.1h-0.1l0,0c0-0.2-0.1-0.3-0.1-0.5l0,0h0.1h0.1c0,0.1,0,0.2,0,0.3l0,0
				C-123.1,139.9-123.1,140.1-123.1,140.1L-123.1,140.1z M-120.1,146.4L-120.1,146.4c-0.1,0-0.2,0-0.3,0l0,0c0-0.2,0.1-0.4,0.1-0.6
				c0.1,0,0.2,0,0.2,0.1C-120,146.1-120.1,146.2-120.1,146.4z M-119.9,145.1c-0.1,0.1-0.2,0.1-0.3,0.2l0,0c-0.1-0.2-0.1-0.4-0.2-0.6
				c0.1,0,0.1-0.1,0.2-0.1l0,0c0.1,0.1,0.1,0.2,0.2,0.3C-120,144.9-119.9,145.1-119.9,145.1L-119.9,145.1z"/>
			<path d="M-190,181.1c-0.2,0.1-0.4,0.2-0.6,0.3c0-0.1-0.1-0.1-0.2-0.2c0.2-0.1,0.4-0.2,0.6-0.3C-190.1,181.1-190,181.1-190,181.1z
				"/>
			<path d="M-121.4,139.4h-0.2c0-0.3,0-0.5,0-0.8c0.1,0,0.1,0,0.2,0C-121.4,138.9-121.4,139.1-121.4,139.4z"/>
			<path d="M-209.6,196.5c0,0.2,0,0.3-0.1,0.5c-0.2-0.1-0.3-0.1-0.7-0.3C-210,196.5-209.9,196.5-209.6,196.5z"/>
			<path d="M-134.4,138.4c0,0.1-0.1,0.3-0.1,0.4c-0.1,0-0.1,0-0.2-0.1c0-0.1,0.1-0.2,0.1-0.4C-134.4,138.4-134.4,138.4-134.4,138.4z
				"/>
			<path d="M-129,137.9c-0.1,0-0.2,0-0.3,0c0-0.1,0-0.3,0.1-0.4h0.2C-129,137.6-129,137.9-129,137.9z"/>
			<path d="M-228.2,159.9c0,0.1-0.1,0.2-0.1,0.4c-0.1,0-0.1-0.1-0.2-0.1C-228.4,160-228.4,159.9-228.2,159.9
				C-228.4,159.8-228.2,159.8-228.2,159.9z"/>
			<path d="M-226.9,159.9c-0.1,0.2-0.2,0.3-0.3,0.5c-0.1,0-0.1-0.1-0.2-0.2L-226.9,159.9L-226.9,159.9z"/>
			<path d="M-73.6,172.1c-0.1,0-0.1,0.1-0.2,0.1c-0.1-0.1-0.1-0.2-0.2-0.3c0,0,0.1,0,0.2-0.1C-73.6,171.9-73.6,172-73.6,172.1z"/>
			<path d="M-217.6,192.4c0,0.1-0.1,0.2-0.1,0.2c-0.2-0.1-0.3-0.3-0.5-0.4l0,0C-217.9,192.2-217.7,192.4-217.6,192.4z"/>
			<path d="M-231.1,189.9c-0.1,0-0.2,0.1-0.3,0.1s-0.2-0.1-0.6-0.2c0.5,0,0.7-0.1,0.9-0.1C-231.1,189.8-231.1,189.9-231.1,189.9z"/>
			<path d="M-224,182.8c0,0.1,0,0.1-0.1,0.2c-0.2-0.1-0.3-0.1-0.5-0.2c0,0,0-0.1,0-0.2C-224.4,182.6-224.2,182.8-224,182.8z"/>
		</g>
	</g>
</g>
</svg>
