<?xml version="1.0" encoding="utf-8"?>
<!-- Generator: Adobe Illustrator 20.1.0, SVG Export Plug-In . SVG Version: 6.00 Build 0)  -->
<svg version="1.1" id="Layer_1" xmlns="http://www.w3.org/2000/svg" xmlns:xlink="http://www.w3.org/1999/xlink" x="0px" y="0px"
	 viewBox="0 0 557 547" style="enable-background:new 0 0 557 547;" xml:space="preserve">
<style type="text/css">
	.st0{fill:#070707;}
</style>
<g>
	<path class="st0" d="M392,239.5c0,0.4-0.1,0.7-0.2,1c-0.1,0.5-0.3,0.9-0.2,1.5c0,0.4-0.3,0.9-0.5,1.4s-0.4,1-0.7,1.5
		c-0.1,0.3-0.3,0.6-0.4,0.9c-0.1,0.1-0.2,0.2-0.2,0.3c-0.1,1.4-1.3,2.2-1.7,3.5c-0.4,1.2-1.2,2.4-1.9,3.5c-0.9,1.3-2,2.5-3,3.7
		c-1.8,2.2-3.8,4.1-5.9,5.9c-1.9,1.7-3.9,3.2-5.9,4.8c-1.1,0.9-2.3,1.7-3.5,2.5c-0.1,0.1-0.3,0.1-0.6,0.2c0.1-0.4,0.1-0.6,0.4-0.9
		c0.7-1.7,1.4-3.3,2-4.9c0.6-1.9,1.3-3.6,2-5.4c0.3-0.6,0.7-1.3,1-2c0.5-1,0.9-2.1,1.4-3.1c0.2-0.5,0.4-0.9,0.7-1.4
		c0.4-0.8,0.8-1.7,1.2-2.5c0.6-1.1,1.3-2.2,2-3.2c0.2-0.3,0.4-0.6,0.6-0.8c1-1.1,2.1-2.1,3.2-3c0.4-0.4,1.1-0.5,1.6-0.8
		c0.9-0.6,2-0.8,3.1-1.2c0.2-0.1,0.4-0.2,0.6-0.4c0.8-0.6,1.7-1.1,2.7-1.3c0.5-0.2,0.9-0.4,1.4-0.5C391.5,238.7,392,239,392,239.5z"
		/>
	<path class="st0" d="M278.5,101.3c-95.1,0-172.2,77.1-172.2,172.2s77.1,172.2,172.2,172.2s172.2-77.1,172.2-172.2
		S373.6,101.3,278.5,101.3z M349.2,271.2c-0.9,2.4-2,4.8-3,7.1c-0.1,0.4-0.3,0.8-0.4,1.2c-0.2,0.7-0.5,1.4-0.7,2.1
		c-0.4,1.2-0.8,2.4-1.2,3.5c-0.5,1.3-1,2.6-1.4,3.9c-0.3,0.9-0.6,1.7-0.9,2.5c-0.3,0.9-0.7,1.7-1,2.5c-0.3,0.9-0.6,1.7-0.9,2.6
		c-0.3,0.8-0.6,1.7-0.9,2.5c-0.1,0.4-0.4,0.7-0.7,0.9c-0.3,0.4-0.7,0.7-1,0.9c-0.3,0.4-0.6,0.6-1,0.3c-0.1-0.1-0.4-0.1-0.4,0
		c-0.6,0.7-1.3-0.1-1.9,0.1c-0.1,0-0.1,0-0.1-0.1c-0.8-0.8-1.9-0.8-2.8-1.2c-0.9-0.4-1.7-0.9-1.7-2.4c-0.1-1.1,0.4-2,0.6-3.1
		c0-0.1,0.1-0.2,0.1-0.2c1.2-1.1,1.4-2.7,2-4c0.7-1.5,1.2-3.1,1.7-4.6c0.2-0.6,0.4-1.2,0.5-1.8c0.1-0.5,0.2-1,0.5-1.4
		c0.1-0.2,0-0.4,0-0.5c-0.1,0.1-0.4,0-0.5,0.2c-0.4,0.5-0.8,1-1.4,1.3c-0.1,0.1-0.1,0.2-0.2,0.4c-0.1,0.2-0.3,0.4-0.4,0.7
		c-0.7,0.7-1.4,1.4-2,2.2c-0.2,0.2-0.4,0.5-0.5,0.7c-0.2,0.2-0.4,0.5-0.6,0.7c-0.4,0.3-0.8,0.5-0.9,1c-0.1,0.1-0.1,0.2-0.3,0.4
		c-0.7,0.6-1.4,1.1-2.1,1.7c-0.2,0.1-0.3,0.3-0.4,0.4c-1,1.4-2.5,2-3.9,2.5c-0.4,0.2-0.9,0.5-1.4,0.6c-1,0.2-2,0.5-3.1,0.6
		c-0.8,0.1-1.5-0.2-2.2-0.7c-0.4-0.3-0.8-0.4-1.1-0.7c-1.1-0.9-1.7-2-2.4-3.3c-0.1-0.1-0.1-0.2-0.2-0.4c-0.2-0.5-0.6-0.6-1.1-0.6
		c-1,0.1-2,0.1-3,0.1c-2.9-0.1-5.7-0.5-8.5-1.1c-0.9-0.1-2-0.1-3-0.3c-0.9-0.1-1.7-0.2-2.6-0.4c-2-0.3-4-0.6-6.1-0.8
		c-2.8-0.4-5.5-0.7-8.2-1.2c-1.7-0.2-3.3-0.5-5.1-0.6c-1.2-0.1-2.5-0.2-3.8-0.3H269c-0.9-0.4-2-0.2-3-0.4c-0.4-0.1-0.9-0.2-1.3-0.3
		c-1.3-0.2-2.7-0.4-4-0.5c-1.2-0.1-2.5-0.2-3.7-0.3h-0.5c-1.3-0.4-2.6-0.4-3.9-0.5c-0.9-0.1-1.7-0.3-2.6-0.4
		c-0.3-0.1-0.7-0.1-0.9-0.1c-1.9,0-3.8-0.5-5.6-0.7c-1.6-0.2-3-0.6-4.7-0.6c-0.9,0.1-1.8-0.3-2.8-0.4c-0.7-0.1-1.3-0.1-2-0.2
		c-1.3-0.1-2.5-0.4-3.8-0.5c-0.4-0.1-0.7-0.1-1.1-0.1c-0.9-0.1-1.9-0.2-2.8-0.4c-0.5-0.1-1-0.2-1.6-0.2c-1.7-0.2-3.4-0.7-5.2-0.7
		c-0.9,0-1.7,0-2.6-0.3c-0.6-0.1-1.2-0.1-1.7-0.1c-1.7,0.3-3.3-0.2-5-0.1h-0.4c-0.8,0-0.9,0.1-1.1,0.9c-0.4,1.7-0.7,3.5-1.1,5.2
		c-0.5,2.3-1,4.7-1.5,7c-0.3,1.1-0.6,2.3-0.9,3.5c-0.3,1.3-0.6,2.5-0.9,3.8c-0.2,0.9-0.4,1.7-0.6,2.7c-0.2,1.2-0.4,2.4-0.7,3.6
		c-0.1,0.5-0.3,1-0.4,1.5c-0.1,0.4-0.1,0.9-0.2,1.3c-0.3,1.4-0.6,2.8-0.9,4.1c-0.3,1.5-0.6,2.8-0.9,4.3c-0.3,1.6-0.9,3-1.5,4.5
		c-0.1,0.4-0.2,1-0.8,1.2c-0.1,0-0.1,0.2-0.1,0.3c-0.1,1-0.8,1.7-1.2,2.5c-0.1,0.1-0.2,0.3-0.4,0.4c-0.9,0.4-2,0.9-2.9,1.4
		c-0.4,0.2-0.9,0.3-1.4,0.2c-0.4-0.1-0.9,0.1-1.3,0.3c-0.9,0.4-1.5-0.3-2.2-0.4c-0.2-0.5-0.6-1-0.6-1.5c-0.1-1.5,0.1-3,0.9-4.3
		c0.2-0.2,0.2-0.5,0.3-0.7c0.1-0.4,0.1-0.8,0.5-1.1c0.2-0.2,0.3-0.7,0.4-1.1c0.4-1.2,0.7-2.4,1-3.6c0.3-1.1,0.4-2.2,0.6-3.2
		c0-0.1,0-0.2,0.1-0.3c0.3-0.9,0.6-1.7,0.9-2.5c0.2-0.4,0.2-0.9,0.3-1.4c0.3-1.7,0.6-3.5,0.9-5.1c0.1-0.8,0.5-1.6,0.7-2.4
		c0.2-0.7,0.3-1.5,0.4-2.2c0.1-0.7,0.4-1.3,0.4-2c0.2-1.2,0.7-2.4,0.9-3.6c0.1-0.6,0.1-1.2,0.3-1.8c0.4-1.1,0.6-2.1,0.7-3.2
		c0.1-0.8,0.4-1.6,0.7-2.5c0.1-0.5,0.2-1,0.3-1.5s0.3-1.1,0.4-1.6c0.2-0.5,0.2-1,0.3-1.5c0.1-0.4-0.1-0.6-0.6-0.7
		c-0.1,0-0.1-0.1-0.3-0.1c-1.1,0.1-2.2,0.2-3.3,0.2c-0.4,0-0.9,0.1-1.4,0.1c-0.6,0.1-1.2,0.2-1.8,0.4c-1.5,0.6-3,1.1-4.4,1.7
		c-1.3,0.6-2.5,1.2-3.8,1.9c-1.4,0.6-2.8,1.3-4.1,2c-0.9,0.4-1.9,0.9-2.7,1.3c-2,1-4,2.2-6.1,2.9c-0.1,0.1-0.2,0.1-0.3,0.1
		c-1.2,0.6-2.2,1.2-3.4,1.8c-0.1,0.1-0.1,0.1-0.2,0.1c-1.3,0.1-2.3,0.9-3.5,1.2c-0.4,0.1-0.7,0.4-1,0.6c-1.1,0.7-2.2,1.2-3.5,1.3
		c-0.3,0-0.6,0-0.9-0.1c-0.9-0.3-1.7-0.6-2.5-1c-1-0.5-1.4-1.5-2-2.5c-0.1-0.1-0.1-0.3-0.1-0.4c-0.1-1.1,0.6-3.5,1.7-4.3
		c0.4,0.2,0.9,0.1,1.4-0.1c0.7-0.1,1.6-0.1,2.3-0.1s1.4-0.2,2.1,0.1c0.1,0.1,0.3-0.1,0.4-0.1c1.1-0.5,2.2-1.1,3.3-1.6
		c1.5-0.8,3-1.5,4.5-2.3c0.1-0.1,0.3-0.1,0.4-0.3c0.9-0.6,1-0.7,0.6-1.7c-0.1-0.1-0.1-0.2-0.1-0.4c0.1-0.7,0.2-1.4,0.3-2.2
		c0.1-1.1,0.7-1.8,1.4-2.6c0.4-0.5,0.7-1.2,1.3-1.6c0.1-0.1,0.1-0.2,0.3-0.2c1.1-0.4,1.9-1.4,2.7-2.3c0.2-0.2,0.4-0.5,0.4-0.7
		c0.2-0.5,0.6-0.8,1.1-1c0.4-0.2,0.7-0.1,0.9,0.3c0.1,0.1,0.1,0.4,0.3,0.6c0.4,0.5,0.9,0.9,1.7,0.7c1.2-0.3,2.3-0.4,3.5-0.7
		c0.6-0.1,1.1-0.4,1.7-0.4c0.4-0.1,0.7-0.1,1.1-0.1c0.5-0.6,1.2-0.6,1.9-0.4c0.5,0.1,0.9,0.1,1.4-0.3c0.1-0.1,0.2-0.1,0.4-0.2
		c1.1-0.4,2.2-0.7,3.4-0.7c0.4,0,0.9,0.1,1.3-0.4c0.7,0.2,1.2-0.6,1.9-0.6s1.3-0.2,2-0.2c0.2,0,0.4,0.3,0.7,0.4
		c0.6-0.2,0-1.2,0.9-1.2c0.1,0.1,0.3,0.3,0.5,0.5c0.5-0.6,0.9-1.1,1.3-1.6c0.1-0.1,0.1-0.2,0.2-0.4c0.1-0.8,0.4-1.5,0.7-2.2
		c0.2-0.6,0.1-1.2,0.2-1.9c0.2-1,0.4-1.9,0.5-2.9c0.1-1.2,0.6-2.2,0.7-3.3c0.1-0.4,0.2-0.9,0.4-1.3c0.4-0.9,0.1-1.8,0.5-2.7
		c0.1-0.3,0.1-0.7,0.1-1c0.1-0.4,0.1-0.7,0.3-1c0.1-0.2,0.2-0.4,0.2-0.6c0.1-0.9,0.3-1.9,0.6-2.8c0.3-0.9,0.3-1.8,0.4-2.7
		c0.1-0.4,0.2-0.7,0.3-1.1c0.4-1.3,0.7-2.6,0.8-3.9c0-0.2,0-0.4-0.2-0.5c-0.4-0.4-0.6-0.9-1-1.3c-0.3-0.3-0.3-1.4-0.1-1.7
		c0.8-1.3,2.3-2,3.8-1.7c0.4,0.1,0.7,0.3,1.2,0.4c0.2,0.1,0.4,0.3,0.5,0.3c0.9,0.1,1.1,0.9,1.5,1.5c0.8,1.5,1.1,3.1,1.3,4.8
		c0.1,0.8,0.1,1.6,0.3,2.5c0,0.1-0.1,0.4-0.1,0.5c0,0.4-0.1,0.7,0,1c0.3,0.7,0.2,1.3,0,2c-0.1,0.6-0.1,1.2-0.2,1.8
		c-0.1,0.6-0.2,1.1-0.4,1.6c-0.4,1.4-0.8,2.8-0.9,4.3c-0.2,1.2-0.3,2.5-0.6,3.7c-0.2,0.7-0.2,1.3-0.3,2c-0.2,1.1-0.4,2.2-0.6,3.2
		c-0.1,0.3,0,0.6,0,1c0.9-0.4,1.8-0.7,2.6-1c1.1-0.4,2.2-0.7,3.2-1.1c1.3-0.4,2.5-0.9,3.8-1.3c2.2-0.8,4.3-1.6,6.4-2.4
		c1.5-0.5,3-0.9,4.5-1.4s3-1.1,4.5-1.6c0.9-0.3,1.9-0.5,2.8-0.9c1-0.4,2-0.7,3-1.1c0.4-0.2,0.7-0.2,1.1-0.3c1-0.4,2-0.7,3-1.1
		c0.1-0.1,0.3-0.1,0.4-0.1c1.8-0.6,3.6-1.2,5.4-1.8c1.5-0.5,3-0.9,4.5-1.4c0.1,0,0.1-0.1,0.2-0.1c1.3-0.6,2.7-0.9,4.1-1.4
		c1.5-0.4,3-1,4.5-1.4c0.9-0.2,1.7-0.7,2.6-0.8c0.5-0.1,0.9-0.4,1.4-0.5c0.5-0.2,1-0.4,1.6-0.5c0.7-0.1,1.2-0.2,1.8-0.5
		c0.4-0.2,0.9-0.6,1.5,0V241c-0.1-0.2-0.1-0.2-0.2-0.3c0.6-0.2,1.2-0.4,2-0.6c0.2,0.1,0.4,0.2,0.7,0.4c0.5-0.9,1-1.2,2.1-1.2
		c0.4,0,0.8,0,1-0.5c0.1-0.2,0.5-0.4,0.8-0.5c0.9-0.2,1.8-0.4,2.8-0.5c0.3-0.2,0.7-0.4,1.1-0.5c0.9-0.4,1.9-0.7,2.8-0.9
		c0.7-0.2,1.3-0.4,2-0.5c0.7-0.2,1.2-0.4,1.9-0.7c0.1,0,0.1-0.1,0.1-0.1c0.9,0.1,1.6-0.7,2.5-0.9c1.5-0.4,3.1-0.9,4.7-0.3
		c0.4,0.1,0.8,0.2,1.2,0.3c1.1,0.1,2.1,0.4,3.1,0.7c1.5,0.5,3,0.9,4.7,0.8c0.5-0.1,1,0.3,1.5,0.2c1.1-0.1,2,0.5,3,0.6
		c0.5,0.1,0.9,0.5,1.4,0.7c0.7,0.3,1.2,0.8,1.7,1.3c0.3,0.3,0.4,0.7,0.6,1.2c0.3,0.8-0.2,1.9-0.9,2.5c-1.1,0.8-2.3,1.1-3.6,1.2
		c-2.2,0.1-4.6,0.3-6.8,0.7c-0.9,0.1-1.9,0.2-2.7,0.4c-0.7,0.1-1.2,0.3-1.9,0.4c-1.8,0.3-3.6,0.6-5.4,0.8c-1.6,0.1-3.3,0.6-4.8,0.9
		c-0.9,0.2-2,0.4-2.9,0.5c-0.1,0-0.2,0-0.4,0.1c-1.3,0.7-2.8,0.6-4.2,1.1c-1.9,0.6-3.9,0.9-5.8,1.5c-2.2,0.7-4.4,1.5-6.6,2.2
		c-0.1,0.1-0.4,0.1-0.5,0.1c-0.7,0.1-1.4,0.4-2.2,0.7c-1.2,0.4-2.5,0.8-3.8,1.2c-0.4,0.1-0.9,0.4-1.3,0.4c-0.7,0.2-1.2,0.2-1.9,0.4
		c-0.7,0.2-1.4,0.5-2,0.7c-1.1,0.4-2.2,0.7-3.3,1.1c-0.9,0.3-1.9,0.5-2.8,0.8c-0.9,0.3-1.9,0.7-2.8,1c-1.4,0.5-3,0.9-4.4,1.4
		c-1.5,0.5-3.1,1-4.6,1.5c-1.7,0.5-3.2,1.1-4.9,1.6c-1,0.4-2,0.7-3,1c-1.4,0.4-2.7,0.9-4,1.3c-0.2,0.1-0.5,0.1-0.7,0.2
		c-0.9,0.6-2,0.7-3,0.9c-0.8,0.2-1.6,0.5-2.3,0.7c-1,0.4-2,0.8-3,1.2c-1.9,0.7-3.8,1.4-5.7,2.1c-0.9,0.3-1.7,0.6-2.6,0.9
		c-0.5-0.1-0.6,0.1-0.7,0.3c0.5,0.1,0.8,0.2,1.2,0.2c1.5,0.1,2.9,0.3,4.3,0.2c1.4,0,2.8,0.1,4.2,0.2c0.7,0,1.4,0.1,2.2,0.2
		c0.9,0.1,1.8,0.2,2.7,0.2c1.5,0.1,2.9,0.1,4.3,0.2c1.4,0.1,2.7,0.3,4.2,0.4c1,0.1,2.1,0.1,3.1,0.2c0.8,0.1,1.7,0.1,2.5,0.2
		c0.9,0.1,2,0.1,2.9,0.3c1.4,0.2,2.8,0.4,4.2,0.5c1.8,0.2,3.5,0.5,5.3,0.7c0.6,0.1,1.2,0.1,1.8,0c0.9-0.1,1.7-0.1,2.6,0.1
		c1,0.2,2.1,0.2,3.1,0.3c0.9,0.1,1.8,0.2,2.7,0.3c0.8,0.1,1.6,0.2,2.5,0.2c0.5,0.1,1,0.1,1.6,0.2c1.3,0.1,2.6,0.4,3.9,0.6
		c1.1,0.1,2.4,0.2,3.5,0.4c1.2,0.1,2.4,0.4,3.5,0.5c0.8,0.2,1.6,0.2,2.4,0.4c1.2,0.1,2.5,0.4,3.7,0.5c1.5,0.2,3,0.4,4.6,0.7
		c1.3,0.2,2.6,0.5,3.9,0.7c1,0.2,2,0.4,3.1,0.4c0.6,0,1.2,0.2,1.8,0.4c1.5,0.3,2.9,0.6,4.4,0.9c2.5,0.4,4.9,1.1,7.3,1.8
		c0.2,0.1,0.4,0.2,0.7,0.3c0.1-0.4,0.3-0.8,0.4-1.2c0.1-1.7,0.6-3.4,1.2-5c0.7-1.7,1.2-3.4,1.8-5c0.6-1.5,1.4-2.9,2.1-4.3
		c0.1-0.1,0.1-0.1,0.1-0.2c0.4-1.5,1.2-2.7,2.1-3.8c0.4-0.5,0.6-1.2,0.9-1.7c0.3-1,0.9-1.8,1.5-2.7c0.4-0.5,0.6-1.2,1-1.7
		c0.1-0.1,0.1-0.3,0.1-0.3c0.7-0.4,0.7-1.2,1.2-1.7c0.4-0.6,0.9-1.2,1.2-1.8c0.4-0.9,1.2-1.4,1.7-2.2c0.2-0.2,0.3-0.5,0.4-0.7
		s0.3-0.4,0.4-0.5c0.4-0.3,0.9-0.4,0.8-1.1c0-0.1,0.1-0.2,0.3-0.3c0.9-0.7,1.5-1.7,2.2-2.5c0.3-0.3,0.6-0.6,0.9-0.8
		c0.8-0.7,1.5-1.5,2.3-2.1c0.7-0.6,1.5-1.2,2.5-1.6c0.3-0.1,0.4-0.4,0.7-0.5c0.4-0.3,0.6-0.6,1.1-0.7c0.9-0.3,1.5-0.9,2.2-1.5
		c0.6-0.6,1.2-1.2,1.7-1.9c0.5-0.6,1.1-1.2,1.7-1.7c0.1-0.1,0.3-0.2,0.3-0.3c0.5-0.9,1.3-0.9,2.2-1.1c0.5-0.1,1-0.1,1.4-0.3
		c1.2-0.4,2.4-0.2,3.5-0.1c0.1,0,0.2,0.1,0.3,0c0.9-0.3,1.7-0.7,2.5-0.9c1-0.3,1.9-0.9,2.7-1.5c1.3-1,2.8-1.3,4.3-1.7
		c0.7-0.1,1.4-0.2,2.1-0.1c1.1,0.2,2.2,0.7,3.2,1.3c0.1,0.4,0,0.8,0.2,1.2c0.3,0.6,0.1,1.1-0.4,1.5c-0.4,0.4-0.6,0.8-0.8,1.2
		c-0.8,2.2-1.7,4.3-2.5,6.4c-0.5,1.4-1,2.8-1.6,4.2c-0.4,1.1-0.7,2.2-1.5,3.2c-0.4,0.4-0.4,1-0.7,1.5c-0.4,0.8-0.7,1.5-1,2.3
		c0,0.1-0.1,0.1-0.1,0.2c-0.2,1.8-1.2,3.4-1.7,5.1c-0.2,0.7-0.4,1.2-0.6,1.9c-0.4,1.3-0.8,2.7-1.3,4c-0.5,1.5-1.2,2.8-1.8,4.2
		C350,269.2,349.6,270.2,349.2,271.2z M402.6,240.9c0,0.1-0.1,0.1-0.1,0.2c0.1,1.5,0.1,1.5-0.4,2.8c-0.1,0.4-0.2,0.9-0.3,1.4
		c-0.1,0.8-0.3,1.6-0.8,2.3c-0.3,0.5-0.5,1.1-0.6,1.7c-0.1,1.1-0.6,2-1,3c-0.2,0.7-0.5,1.4-0.7,2c-0.1,0.1-0.1,0.4-0.2,0.5
		c-0.9,1.4-1.8,2.8-2.8,4c-1.1,1.5-2.2,2.8-3.5,4c-0.6,0.6-1.2,1.1-1.9,1.7c-0.7,0.7-1.5,1.3-2.2,2c-0.6,0.5-1.2,0.9-1.7,1.4
		c-0.1,0.1-0.4,0.3-0.5,0.5c-0.2,0.1-0.3,0.4-0.5,0.5c-0.9,0.7-1.7,1.2-2.6,1.9c-0.1,0.1-0.3,0.1-0.4,0.3c-1,0.6-2,1.2-3,1.9
		c-0.8,0.5-1.7,1-2.5,1.5s-1.7,1.1-2.5,1.6c-0.4,0.3-0.9,0.6-1.5,0.8c-0.9,0.5-1.9,1-3,1.4c-1.2,0.4-2.4,0.7-3.6,0.9
		c-0.7,0.1-1.4,0.3-2,0.4c-0.1,0-0.3,0.2-0.4,0.2c-1-0.1-1.2,0.6-1.5,1.3c-0.6,1.5-1.2,3-1.7,4.5c-0.2,0.5-0.3,1-0.4,1.5
		c-0.4,2.3-1.2,4.5-1.3,6.9c-0.1,1.2-0.1,2.5-0.1,3.8c0,0.4,0.1,0.9,0.3,1.2c0.4,0.9,0.6,1.9,0.7,2.9c0.1,0.7,0.2,0.9,0.9,0.6
		c0.6-0.2,1.2-0.5,1.7-0.7c1-0.5,1.9-0.1,2.2,1.1c0.1,0.2,0.2,0.5,0.4,0.7c0.9,0.6,1.4,1.4,1.4,2.2c-0.2,0.4-0.3,0.8-0.4,1.2
		c-0.2,0.9-0.7,1.5-1.4,1.8c-0.4,0.2-0.9,0.4-1.3,0.6c-0.1,0.1-0.2,0.1-0.4,0.1c-0.9,0-2,0.1-2.8-0.2c-1.7-0.8-3.4-1.6-4.6-3
		c-0.1-0.1-0.3-0.4-0.4-0.6c-0.3-0.4-0.5-0.7-0.8-1c-0.2-0.3-0.4-0.6-0.6-0.9c-0.6-1.6-1.6-3.1-1.9-4.8c-0.3-1.5-0.3-3.1-0.5-4.6
		c-0.1-1.2,0-2.4,0.1-3.5c0.2-0.9,0.4-2,0.6-2.9c0.1-0.7,0.4-1.4,0.5-2.1c0.1-1,0.5-2,1.1-2.9c0.1-0.1,0.1-0.3,0.1-0.4
		c-0.1-0.4,0.4-0.7,0.4-0.9c-0.1-0.5,0.1-0.7,0.4-0.9c0.1-0.1,0.1-0.2,0.1-0.4c0.1-0.7,0.3-1.3,0.4-2c0.2-0.6,0.2-0.7-0.4-1
		c-1.2-0.7-2.1-1.7-2.9-2.8c-0.4-0.5-0.3-1.2-0.3-1.7c0-0.4,0.5-0.6,0.9-0.3c0.6,0.4,1,0.9,1.6,1.4c0.5,0.4,1,0.7,1.6,1
		s1.1,0,1.3-0.6c0.4-1.1,0.7-2.2,1.4-3.2c0.2-0.2,0.2-0.6,0.2-0.8c0.4-0.8,0.7-1.6,1.2-2.4c0.7-1.4,1.4-2.7,2.2-4
		c0.1-0.1,0.1-0.2,0.1-0.2c0.1-0.6,0.1-1.4,0.8-1.7c0-0.8,0.6-1.3,0.9-2c0.4-0.9,1-1.9,1.4-2.8c0.4-1,1.2-1.8,1.5-2.9
		c0.1-0.4,0.3-0.9,1-0.6c0-0.3-0.1-0.5,0-0.6c0.6-0.7,0.6-1.6,1.2-2.3c0.7-0.8,1.1-1.7,1.7-2.6c0.4-0.5,0.9-0.9,1.2-1.6
		c0.5-1.2,1.4-2.2,2.2-3.2c0.7-0.7,1.3-1.5,2-2.2s1.5-1.5,2.3-2.2c1-0.8,1.7-1.7,2.2-2.9c0.4-0.9,1.1-1.9,1.7-2.8
		c0.3-0.4,0.8-0.7,1.2-0.9c0.4-0.2,0.8-0.4,1.2-0.6c0.3-0.1,0.6-0.3,0.9-0.3c1.3,0,2.5-0.4,3.7-0.7c1.6-0.4,3.2-0.8,4.9-0.7
		c1.1,0,2.2,0.2,3.3,0.3c0.4,0.1,0.9,0.1,1.4,0.2c0.8,0.1,1.4,0.6,2,1c0.6,0.5,1.2,0.9,1.8,1.4c0.5,0.4,0.9,0.8,1.1,1.3
		c0.2,0.4,0.4,0.8,0.3,1.2C403.5,237.6,403.3,239.3,402.6,240.9z M348.2,243.7c-0.8,0.2-1.6,0.4-2.4,0.6c-0.2,0.1-0.5,0.1-0.7,0
		c-1-0.4-2.2-0.4-3.2-0.5c-0.3,0-0.6,0.1-0.9,0.3c-0.3,0.1-0.6,0.3-0.9,0.4c-0.9,0.2-1.8,0.5-2.5,1.2c-0.6,0.5-1.2,0.9-1.8,1.4
		c-0.9,0.8-1.9,1.6-2.5,2.6c-0.6,0.9-1.2,1.7-1.8,2.5c-0.6,0.9-1.3,1.7-1.7,2.5c-0.7,1.5-1.6,2.8-2.4,4.1c-0.4,0.6-0.8,1.2-1.2,1.9
		c-0.4,0.7-0.8,1.5-1.2,2.2c-0.2,0.4-0.6,0.8-0.8,1.3c-0.9,1.8-2,3.6-2.8,5.4c-0.9,1.8-1.7,3.7-2.5,5.5c-0.7,1.7-1.2,3.6-1.8,5.4
		c-0.2,0.6-0.3,1.3-0.4,2c-0.1,0.3-0.1,0.6-0.2,0.9c-0.5,1.2-0.6,2.3-0.5,3.5c0,0.2,0.1,0.4,0.1,0.6c1.4-0.2,2.3-1.1,3.3-1.8
		c1.4-0.9,2.4-2.2,3.7-3.3c0.9-0.7,1.6-1.7,2.4-2.5c0.9-1,1.9-2,2.8-3c0.4-0.4,0.7-0.8,1.1-1.2c0.4-0.6,0.9-1.2,1.4-1.8
		c0.6-0.7,1.3-1.2,1.7-2c0.1-0.2,0.3-0.4,0.5-0.5c0.6-0.6,1.4-0.9,1.5-1.9c0-0.1,0.1-0.2,0.1-0.2c0.7-0.5,1.1-1.3,1.5-2.1
		c0.5-0.8,1.2-1.5,1.7-2.2c0-0.1,0.1-0.1,0.1-0.1c0.4-0.2,0.6-0.6,0.7-0.9c0.2-0.7,0.5-1.2,1.1-1.5c0.1-0.1,0.2-0.2,0.2-0.2
		c-0.1-0.6,0.5-0.9,0.7-1.4c0.4-0.8,0.7-1.6,1.1-2.3c0.4-0.7,1.1-1.4,1.3-2.2l0.1-0.1c0.4-0.7,0.8-1.4,1.2-2.1
		c0.4-0.9,0.7-1.7,1.5-2.4c0.1-0.1,0.1-0.2,0.2-0.4c0.7-1.7,1.2-3.3,1.9-5c0.1-0.4,0.2-0.8,0.4-1.2c0.3-0.4,0.3-0.8,0.2-1.3
		C348.4,243.8,348.2,243.7,348.2,243.7z"/>
	<path class="st0" d="M391.7,240.5c-0.1,0.5-0.3,0.9-0.2,1.5c0,0.4-0.3,0.9-0.5,1.4s-0.4,1-0.7,1.5c-0.1,0.3-0.3,0.6-0.4,0.9
		c-0.1,0.1-0.2,0.2-0.2,0.3c-0.1,1.4-1.3,2.2-1.7,3.5c-0.4,1.2-1.2,2.4-1.9,3.5c-0.9,1.3-2,2.5-3,3.7c-1.8,2.2-3.8,4.1-5.9,5.9
		c-1.9,1.7-3.9,3.2-5.9,4.8c-1.1,0.9-2.3,1.7-3.5,2.5c-0.1,0.1-0.3,0.1-0.6,0.2c0.1-0.4,0.1-0.6,0.4-0.9c0.7-1.7,1.4-3.3,2-4.9
		c0.6-1.9,1.3-3.6,2-5.4c0.3-0.6,0.7-1.3,1-2c0.5-1,0.9-2.1,1.4-3.1c0.2-0.5,0.4-0.9,0.7-1.4c0.4-0.8,0.8-1.7,1.2-2.5
		c0.6-1.1,1.3-2.2,2-3.2c0.2-0.3,0.4-0.6,0.6-0.8c1-1.1,2.1-2.1,3.2-3c0.4-0.4,1.1-0.5,1.6-0.8c0.9-0.6,2-0.8,3.1-1.2
		c0.2-0.1,0.4-0.2,0.6-0.4c0.8-0.6,1.7-1.1,2.7-1.3c0.5-0.2,0.9-0.4,1.4-0.5c0.4-0.2,0.9,0.1,0.9,0.6
		C392,239.8,391.8,240.1,391.7,240.5z"/>
	<path class="st0" d="M348.5,243.8c-0.2,0-0.3-0.1-0.4-0.1c-0.8,0.2-1.6,0.4-2.4,0.6c-0.2,0.1-0.5,0.1-0.7,0c-1-0.4-2.2-0.4-3.2-0.5
		c-0.3,0-0.6,0.1-0.9,0.3c-0.3,0.1-0.6,0.3-0.9,0.4c-0.9,0.2-1.8,0.5-2.5,1.2c-0.6,0.5-1.2,0.9-1.8,1.4c-0.9,0.8-1.9,1.6-2.5,2.6
		c-0.6,0.9-1.2,1.7-1.8,2.5c-0.6,0.9-1.3,1.7-1.7,2.5c-0.7,1.5-1.6,2.8-2.4,4.1c-0.4,0.6-0.8,1.2-1.2,1.9c-0.4,0.7-0.8,1.5-1.2,2.2
		c-0.2,0.4-0.6,0.8-0.8,1.3c-0.9,1.8-2,3.6-2.8,5.4c-0.9,1.8-1.7,3.7-2.5,5.5c-0.7,1.7-1.2,3.6-1.8,5.4c-0.2,0.6-0.3,1.3-0.4,2
		c-0.1,0.3-0.1,0.6-0.2,0.9c-0.5,1.2-0.6,2.3-0.5,3.5c0,0.2,0.1,0.4,0.1,0.6c1.4-0.2,2.3-1.1,3.3-1.8c1.4-0.9,2.4-2.2,3.7-3.3
		c0.9-0.7,1.6-1.7,2.4-2.5c0.9-1,1.9-2,2.8-3c0.4-0.4,0.7-0.8,1.1-1.2c0.4-0.6,0.9-1.2,1.4-1.8c0.6-0.7,1.3-1.2,1.7-2
		c0.1-0.2,0.3-0.4,0.5-0.5c0.6-0.6,1.4-0.9,1.5-1.9c0-0.1,0.1-0.2,0.1-0.2c0.7-0.5,1.1-1.3,1.5-2.1c0.5-0.8,1.2-1.5,1.7-2.2
		c0-0.1,0.1-0.1,0.1-0.1c0.4-0.2,0.6-0.6,0.7-0.9c0.2-0.7,0.5-1.2,1.1-1.5c0.1-0.1,0.2-0.2,0.2-0.2c-0.1-0.6,0.5-0.9,0.7-1.4
		c0.4-0.8,0.7-1.6,1.1-2.3c0.4-0.7,1.1-1.4,1.3-2.2l0.1-0.1c0.4-0.7,0.8-1.4,1.2-2.1c0.4-0.9,0.7-1.7,1.5-2.4
		c0.1-0.1,0.1-0.2,0.2-0.4c0.7-1.7,1.2-3.3,1.9-5c0.1-0.4,0.2-0.8,0.4-1.2C348.6,244.7,348.6,244.3,348.5,243.8z M348.5,243.8
		c-0.2,0-0.3-0.1-0.4-0.1c-0.8,0.2-1.6,0.4-2.4,0.6c-0.2,0.1-0.5,0.1-0.7,0c-1-0.4-2.2-0.4-3.2-0.5c-0.3,0-0.6,0.1-0.9,0.3
		c-0.3,0.1-0.6,0.3-0.9,0.4c-0.9,0.2-1.8,0.5-2.5,1.2c-0.6,0.5-1.2,0.9-1.8,1.4c-0.9,0.8-1.9,1.6-2.5,2.6c-0.6,0.9-1.2,1.7-1.8,2.5
		c-0.6,0.9-1.3,1.7-1.7,2.5c-0.7,1.5-1.6,2.8-2.4,4.1c-0.4,0.6-0.8,1.2-1.2,1.9c-0.4,0.7-0.8,1.5-1.2,2.2c-0.2,0.4-0.6,0.8-0.8,1.3
		c-0.9,1.8-2,3.6-2.8,5.4c-0.9,1.8-1.7,3.7-2.5,5.5c-0.7,1.7-1.2,3.6-1.8,5.4c-0.2,0.6-0.3,1.3-0.4,2c-0.1,0.3-0.1,0.6-0.2,0.9
		c-0.5,1.2-0.6,2.3-0.5,3.5c0,0.2,0.1,0.4,0.1,0.6c1.4-0.2,2.3-1.1,3.3-1.8c1.4-0.9,2.4-2.2,3.7-3.3c0.9-0.7,1.6-1.7,2.4-2.5
		c0.9-1,1.9-2,2.8-3c0.4-0.4,0.7-0.8,1.1-1.2c0.4-0.6,0.9-1.2,1.4-1.8c0.6-0.7,1.3-1.2,1.7-2c0.1-0.2,0.3-0.4,0.5-0.5
		c0.6-0.6,1.4-0.9,1.5-1.9c0-0.1,0.1-0.2,0.1-0.2c0.7-0.5,1.1-1.3,1.5-2.1c0.5-0.8,1.2-1.5,1.7-2.2c0-0.1,0.1-0.1,0.1-0.1
		c0.4-0.2,0.6-0.6,0.7-0.9c0.2-0.7,0.5-1.2,1.1-1.5c0.1-0.1,0.2-0.2,0.2-0.2c-0.1-0.6,0.5-0.9,0.7-1.4c0.4-0.8,0.7-1.6,1.1-2.3
		c0.4-0.7,1.1-1.4,1.3-2.2l0.1-0.1c0.4-0.7,0.8-1.4,1.2-2.1c0.4-0.9,0.7-1.7,1.5-2.4c0.1-0.1,0.1-0.2,0.2-0.4c0.7-1.7,1.2-3.3,1.9-5
		c0.1-0.4,0.2-0.8,0.4-1.2C348.6,244.7,348.6,244.3,348.5,243.8z M348.5,243.8c-0.2,0-0.3-0.1-0.4-0.1c-0.8,0.2-1.6,0.4-2.4,0.6
		c-0.2,0.1-0.5,0.1-0.7,0c-1-0.4-2.2-0.4-3.2-0.5c-0.3,0-0.6,0.1-0.9,0.3c-0.3,0.1-0.6,0.3-0.9,0.4c-0.9,0.2-1.8,0.5-2.5,1.2
		c-0.6,0.5-1.2,0.9-1.8,1.4c-0.9,0.8-1.9,1.6-2.5,2.6c-0.6,0.9-1.2,1.7-1.8,2.5c-0.6,0.9-1.3,1.7-1.7,2.5c-0.7,1.5-1.6,2.8-2.4,4.1
		c-0.4,0.6-0.8,1.2-1.2,1.9c-0.4,0.7-0.8,1.5-1.2,2.2c-0.2,0.4-0.6,0.8-0.8,1.3c-0.9,1.8-2,3.6-2.8,5.4c-0.9,1.8-1.7,3.7-2.5,5.5
		c-0.7,1.7-1.2,3.6-1.8,5.4c-0.2,0.6-0.3,1.3-0.4,2c-0.1,0.3-0.1,0.6-0.2,0.9c-0.5,1.2-0.6,2.3-0.5,3.5c0,0.2,0.1,0.4,0.1,0.6
		c1.4-0.2,2.3-1.1,3.3-1.8c1.4-0.9,2.4-2.2,3.7-3.3c0.9-0.7,1.6-1.7,2.4-2.5c0.9-1,1.9-2,2.8-3c0.4-0.4,0.7-0.8,1.1-1.2
		c0.4-0.6,0.9-1.2,1.4-1.8c0.6-0.7,1.3-1.2,1.7-2c0.1-0.2,0.3-0.4,0.5-0.5c0.6-0.6,1.4-0.9,1.5-1.9c0-0.1,0.1-0.2,0.1-0.2
		c0.7-0.5,1.1-1.3,1.5-2.1c0.5-0.8,1.2-1.5,1.7-2.2c0-0.1,0.1-0.1,0.1-0.1c0.4-0.2,0.6-0.6,0.7-0.9c0.2-0.7,0.5-1.2,1.1-1.5
		c0.1-0.1,0.2-0.2,0.2-0.2c-0.1-0.6,0.5-0.9,0.7-1.4c0.4-0.8,0.7-1.6,1.1-2.3c0.4-0.7,1.1-1.4,1.3-2.2l0.1-0.1
		c0.4-0.7,0.8-1.4,1.2-2.1c0.4-0.9,0.7-1.7,1.5-2.4c0.1-0.1,0.1-0.2,0.2-0.4c0.7-1.7,1.2-3.3,1.9-5c0.1-0.4,0.2-0.8,0.4-1.2
		C348.6,244.7,348.6,244.3,348.5,243.8z"/>
	<g>
		<g>
			<path class="st0" d="M278.5,101.3c-95.1,0-172.2,77.1-172.2,172.2s77.1,172.2,172.2,172.2s172.2-77.1,172.2-172.2
				S373.6,101.3,278.5,101.3z M349.2,271.2c-0.9,2.4-2,4.8-3,7.1c-0.1,0.4-0.3,0.8-0.4,1.2c-0.2,0.7-0.5,1.4-0.7,2.1
				c-0.4,1.2-0.8,2.4-1.2,3.5c-0.5,1.3-1,2.6-1.4,3.9c-0.3,0.9-0.6,1.7-0.9,2.5c-0.3,0.9-0.7,1.7-1,2.5c-0.3,0.9-0.6,1.7-0.9,2.6
				c-0.3,0.8-0.6,1.7-0.9,2.5c-0.1,0.4-0.4,0.7-0.7,0.9c-0.3,0.4-0.7,0.7-1,0.9c-0.3,0.4-0.6,0.6-1,0.3c-0.1-0.1-0.4-0.1-0.4,0
				c-0.6,0.7-1.3-0.1-1.9,0.1c-0.1,0-0.1,0-0.1-0.1c-0.8-0.8-1.9-0.8-2.8-1.2c-0.9-0.4-1.7-0.9-1.7-2.4c-0.1-1.1,0.4-2,0.6-3.1
				c0-0.1,0.1-0.2,0.1-0.2c1.2-1.1,1.4-2.7,2-4c0.7-1.5,1.2-3.1,1.7-4.6c0.2-0.6,0.4-1.2,0.5-1.8c0.1-0.5,0.2-1,0.5-1.4
				c0.1-0.2,0-0.4,0-0.5c-0.1,0.1-0.4,0-0.5,0.2c-0.4,0.5-0.8,1-1.4,1.3c-0.1,0.1-0.1,0.2-0.2,0.4c-0.1,0.2-0.3,0.4-0.4,0.7
				c-0.7,0.7-1.4,1.4-2,2.2c-0.2,0.2-0.4,0.5-0.5,0.7c-0.2,0.2-0.4,0.5-0.6,0.7c-0.4,0.3-0.8,0.5-0.9,1c-0.1,0.1-0.1,0.2-0.3,0.4
				c-0.7,0.6-1.4,1.1-2.1,1.7c-0.2,0.1-0.3,0.3-0.4,0.4c-1,1.4-2.5,2-3.9,2.5c-0.4,0.2-0.9,0.5-1.4,0.6c-1,0.2-2,0.5-3.1,0.6
				c-0.8,0.1-1.5-0.2-2.2-0.7c-0.4-0.3-0.8-0.4-1.1-0.7c-1.1-0.9-1.7-2-2.4-3.3c-0.1-0.1-0.1-0.2-0.2-0.4c-0.2-0.5-0.6-0.6-1.1-0.6
				c-1,0.1-2,0.1-3,0.1c-2.9-0.1-5.7-0.5-8.5-1.1c-0.9-0.1-2-0.1-3-0.3c-0.9-0.1-1.7-0.2-2.6-0.4c-2-0.3-4-0.6-6.1-0.8
				c-2.8-0.4-5.5-0.7-8.2-1.2c-1.7-0.2-3.3-0.5-5.1-0.6c-1.2-0.1-2.5-0.2-3.8-0.3H269c-0.9-0.4-2-0.2-3-0.4
				c-0.4-0.1-0.9-0.2-1.3-0.3c-1.3-0.2-2.7-0.4-4-0.5c-1.2-0.1-2.5-0.2-3.7-0.3h-0.5c-1.3-0.4-2.6-0.4-3.9-0.5
				c-0.9-0.1-1.7-0.3-2.6-0.4c-0.3-0.1-0.7-0.1-0.9-0.1c-1.9,0-3.8-0.5-5.6-0.7c-1.6-0.2-3-0.6-4.7-0.6c-0.9,0.1-1.8-0.3-2.8-0.4
				c-0.7-0.1-1.3-0.1-2-0.2c-1.3-0.1-2.5-0.4-3.8-0.5c-0.4-0.1-0.7-0.1-1.1-0.1c-0.9-0.1-1.9-0.2-2.8-0.4c-0.5-0.1-1-0.2-1.6-0.2
				c-1.7-0.2-3.4-0.7-5.2-0.7c-0.9,0-1.7,0-2.6-0.3c-0.6-0.1-1.2-0.1-1.7-0.1c-1.7,0.3-3.3-0.2-5-0.1h-0.4c-0.8,0-0.9,0.1-1.1,0.9
				c-0.4,1.7-0.7,3.5-1.1,5.2c-0.5,2.3-1,4.7-1.5,7c-0.3,1.1-0.6,2.3-0.9,3.5c-0.3,1.3-0.6,2.5-0.9,3.8c-0.2,0.9-0.4,1.7-0.6,2.7
				c-0.2,1.2-0.4,2.4-0.7,3.6c-0.1,0.5-0.3,1-0.4,1.5c-0.1,0.4-0.1,0.9-0.2,1.3c-0.3,1.4-0.6,2.8-0.9,4.1c-0.3,1.5-0.6,2.8-0.9,4.3
				c-0.3,1.6-0.9,3-1.5,4.5c-0.1,0.4-0.2,1-0.8,1.2c-0.1,0-0.1,0.2-0.1,0.3c-0.1,1-0.8,1.7-1.2,2.5c-0.1,0.1-0.2,0.3-0.4,0.4
				c-0.9,0.4-2,0.9-2.9,1.4c-0.4,0.2-0.9,0.3-1.4,0.2c-0.4-0.1-0.9,0.1-1.3,0.3c-0.9,0.4-1.5-0.3-2.2-0.4c-0.2-0.5-0.6-1-0.6-1.5
				c-0.1-1.5,0.1-3,0.9-4.3c0.2-0.2,0.2-0.5,0.3-0.7c0.1-0.4,0.1-0.8,0.5-1.1c0.2-0.2,0.3-0.7,0.4-1.1c0.4-1.2,0.7-2.4,1-3.6
				c0.3-1.1,0.4-2.2,0.6-3.2c0-0.1,0-0.2,0.1-0.3c0.3-0.9,0.6-1.7,0.9-2.5c0.2-0.4,0.2-0.9,0.3-1.4c0.3-1.7,0.6-3.5,0.9-5.1
				c0.1-0.8,0.5-1.6,0.7-2.4c0.2-0.7,0.3-1.5,0.4-2.2c0.1-0.7,0.4-1.3,0.4-2c0.2-1.2,0.7-2.4,0.9-3.6c0.1-0.6,0.1-1.2,0.3-1.8
				c0.4-1.1,0.6-2.1,0.7-3.2c0.1-0.8,0.4-1.6,0.7-2.5c0.1-0.5,0.2-1,0.3-1.5s0.3-1.1,0.4-1.6c0.2-0.5,0.2-1,0.3-1.5
				c0.1-0.4-0.1-0.6-0.6-0.7c-0.1,0-0.1-0.1-0.3-0.1c-1.1,0.1-2.2,0.2-3.3,0.2c-0.4,0-0.9,0.1-1.4,0.1c-0.6,0.1-1.2,0.2-1.8,0.4
				c-1.5,0.6-3,1.1-4.4,1.7c-1.3,0.6-2.5,1.2-3.8,1.9c-1.4,0.6-2.8,1.3-4.1,2c-0.9,0.4-1.9,0.9-2.7,1.3c-2,1-4,2.2-6.1,2.9
				c-0.1,0.1-0.2,0.1-0.3,0.1c-1.2,0.6-2.2,1.2-3.4,1.8c-0.1,0.1-0.1,0.1-0.2,0.1c-1.3,0.1-2.3,0.9-3.5,1.2c-0.4,0.1-0.7,0.4-1,0.6
				c-1.1,0.7-2.2,1.2-3.5,1.3c-0.3,0-0.6,0-0.9-0.1c-0.9-0.3-1.7-0.6-2.5-1c-1-0.5-1.4-1.5-2-2.5c-0.1-0.1-0.1-0.3-0.1-0.4
				c-0.1-1.1,0.6-3.5,1.7-4.3c0.4,0.2,0.9,0.1,1.4-0.1c0.7-0.1,1.6-0.1,2.3-0.1s1.4-0.2,2.1,0.1c0.1,0.1,0.3-0.1,0.4-0.1
				c1.1-0.5,2.2-1.1,3.3-1.6c1.5-0.8,3-1.5,4.5-2.3c0.1-0.1,0.3-0.1,0.4-0.3c0.9-0.6,1-0.7,0.6-1.7c-0.1-0.1-0.1-0.2-0.1-0.4
				c0.1-0.7,0.2-1.4,0.3-2.2c0.1-1.1,0.7-1.8,1.4-2.6c0.4-0.5,0.7-1.2,1.3-1.6c0.1-0.1,0.1-0.2,0.3-0.2c1.1-0.4,1.9-1.4,2.7-2.3
				c0.2-0.2,0.4-0.5,0.4-0.7c0.2-0.5,0.6-0.8,1.1-1c0.4-0.2,0.7-0.1,0.9,0.3c0.1,0.1,0.1,0.4,0.3,0.6c0.4,0.5,0.9,0.9,1.7,0.7
				c1.2-0.3,2.3-0.4,3.5-0.7c0.6-0.1,1.1-0.4,1.7-0.4c0.4-0.1,0.7-0.1,1.1-0.1c0.5-0.6,1.2-0.6,1.9-0.4c0.5,0.1,0.9,0.1,1.4-0.3
				c0.1-0.1,0.2-0.1,0.4-0.2c1.1-0.4,2.2-0.7,3.4-0.7c0.4,0,0.9,0.1,1.3-0.4c0.7,0.2,1.2-0.6,1.9-0.6s1.3-0.2,2-0.2
				c0.2,0,0.4,0.3,0.7,0.4c0.6-0.2,0-1.2,0.9-1.2c0.1,0.1,0.3,0.3,0.5,0.5c0.5-0.6,0.9-1.1,1.3-1.6c0.1-0.1,0.1-0.2,0.2-0.4
				c0.1-0.8,0.4-1.5,0.7-2.2c0.2-0.6,0.1-1.2,0.2-1.9c0.2-1,0.4-1.9,0.5-2.9c0.1-1.2,0.6-2.2,0.7-3.3c0.1-0.4,0.2-0.9,0.4-1.3
				c0.4-0.9,0.1-1.8,0.5-2.7c0.1-0.3,0.1-0.7,0.1-1c0.1-0.4,0.1-0.7,0.3-1c0.1-0.2,0.2-0.4,0.2-0.6c0.1-0.9,0.3-1.9,0.6-2.8
				c0.3-0.9,0.3-1.8,0.4-2.7c0.1-0.4,0.2-0.7,0.3-1.1c0.4-1.3,0.7-2.6,0.8-3.9c0-0.2,0-0.4-0.2-0.5c-0.4-0.4-0.6-0.9-1-1.3
				c-0.3-0.3-0.3-1.4-0.1-1.7c0.8-1.3,2.3-2,3.8-1.7c0.4,0.1,0.7,0.3,1.2,0.4c0.2,0.1,0.4,0.3,0.5,0.3c0.9,0.1,1.1,0.9,1.5,1.5
				c0.8,1.5,1.1,3.1,1.3,4.8c0.1,0.8,0.1,1.6,0.3,2.5c0,0.1-0.1,0.4-0.1,0.5c0,0.4-0.1,0.7,0,1c0.3,0.7,0.2,1.3,0,2
				c-0.1,0.6-0.1,1.2-0.2,1.8c-0.1,0.6-0.2,1.1-0.4,1.6c-0.4,1.4-0.8,2.8-0.9,4.3c-0.2,1.2-0.3,2.5-0.6,3.7c-0.2,0.7-0.2,1.3-0.3,2
				c-0.2,1.1-0.4,2.2-0.6,3.2c-0.1,0.3,0,0.6,0,1c0.9-0.4,1.8-0.7,2.6-1c1.1-0.4,2.2-0.7,3.2-1.1c1.3-0.4,2.5-0.9,3.8-1.3
				c2.2-0.8,4.3-1.6,6.4-2.4c1.5-0.5,3-0.9,4.5-1.4s3-1.1,4.5-1.6c0.9-0.3,1.9-0.5,2.8-0.9c1-0.4,2-0.7,3-1.1
				c0.4-0.2,0.7-0.2,1.1-0.3c1-0.4,2-0.7,3-1.1c0.1-0.1,0.3-0.1,0.4-0.1c1.8-0.6,3.6-1.2,5.4-1.8c1.5-0.5,3-0.9,4.5-1.4
				c0.1,0,0.1-0.1,0.2-0.1c1.3-0.6,2.7-0.9,4.1-1.4c1.5-0.4,3-1,4.5-1.4c0.9-0.2,1.7-0.7,2.6-0.8c0.5-0.1,0.9-0.4,1.4-0.5
				c0.5-0.2,1-0.4,1.6-0.5c0.7-0.1,1.2-0.2,1.8-0.5c0.4-0.2,0.9-0.6,1.5,0V241c-0.1-0.2-0.1-0.2-0.2-0.3c0.6-0.2,1.2-0.4,2-0.6
				c0.2,0.1,0.4,0.2,0.7,0.4c0.5-0.9,1-1.2,2.1-1.2c0.4,0,0.8,0,1-0.5c0.1-0.2,0.5-0.4,0.8-0.5c0.9-0.2,1.8-0.4,2.8-0.5
				c0.3-0.2,0.7-0.4,1.1-0.5c0.9-0.4,1.9-0.7,2.8-0.9c0.7-0.2,1.3-0.4,2-0.5c0.7-0.2,1.2-0.4,1.9-0.7c0.1,0,0.1-0.1,0.1-0.1
				c0.9,0.1,1.6-0.7,2.5-0.9c1.5-0.4,3.1-0.9,4.7-0.3c0.4,0.1,0.8,0.2,1.2,0.3c1.1,0.1,2.1,0.4,3.1,0.7c1.5,0.5,3,0.9,4.7,0.8
				c0.5-0.1,1,0.3,1.5,0.2c1.1-0.1,2,0.5,3,0.6c0.5,0.1,0.9,0.5,1.4,0.7c0.7,0.3,1.2,0.8,1.7,1.3c0.3,0.3,0.4,0.7,0.6,1.2
				c0.3,0.8-0.2,1.9-0.9,2.5c-1.1,0.8-2.3,1.1-3.6,1.2c-2.2,0.1-4.6,0.3-6.8,0.7c-0.9,0.1-1.9,0.2-2.7,0.4c-0.7,0.1-1.2,0.3-1.9,0.4
				c-1.8,0.3-3.6,0.6-5.4,0.8c-1.6,0.1-3.3,0.6-4.8,0.9c-0.9,0.2-2,0.4-2.9,0.5c-0.1,0-0.2,0-0.4,0.1c-1.3,0.7-2.8,0.6-4.2,1.1
				c-1.9,0.6-3.9,0.9-5.8,1.5c-2.2,0.7-4.4,1.5-6.6,2.2c-0.1,0.1-0.4,0.1-0.5,0.1c-0.7,0.1-1.4,0.4-2.2,0.7
				c-1.2,0.4-2.5,0.8-3.8,1.2c-0.4,0.1-0.9,0.4-1.3,0.4c-0.7,0.2-1.2,0.2-1.9,0.4c-0.7,0.2-1.4,0.5-2,0.7c-1.1,0.4-2.2,0.7-3.3,1.1
				c-0.9,0.3-1.9,0.5-2.8,0.8c-0.9,0.3-1.9,0.7-2.8,1c-1.4,0.5-3,0.9-4.4,1.4c-1.5,0.5-3.1,1-4.6,1.5c-1.7,0.5-3.2,1.1-4.9,1.6
				c-1,0.4-2,0.7-3,1c-1.4,0.4-2.7,0.9-4,1.3c-0.2,0.1-0.5,0.1-0.7,0.2c-0.9,0.6-2,0.7-3,0.9c-0.8,0.2-1.6,0.5-2.3,0.7
				c-1,0.4-2,0.8-3,1.2c-1.9,0.7-3.8,1.4-5.7,2.1c-0.9,0.3-1.7,0.6-2.6,0.9c-0.5-0.1-0.6,0.1-0.7,0.3c0.5,0.1,0.8,0.2,1.2,0.2
				c1.5,0.1,2.9,0.3,4.3,0.2c1.4,0,2.8,0.1,4.2,0.2c0.7,0,1.4,0.1,2.2,0.2c0.9,0.1,1.8,0.2,2.7,0.2c1.5,0.1,2.9,0.1,4.3,0.2
				c1.4,0.1,2.7,0.3,4.2,0.4c1,0.1,2.1,0.1,3.1,0.2c0.8,0.1,1.7,0.1,2.5,0.2c0.9,0.1,2,0.1,2.9,0.3c1.4,0.2,2.8,0.4,4.2,0.5
				c1.8,0.2,3.5,0.5,5.3,0.7c0.6,0.1,1.2,0.1,1.8,0c0.9-0.1,1.7-0.1,2.6,0.1c1,0.2,2.1,0.2,3.1,0.3c0.9,0.1,1.8,0.2,2.7,0.3
				c0.8,0.1,1.6,0.2,2.5,0.2c0.5,0.1,1,0.1,1.6,0.2c1.3,0.1,2.6,0.4,3.9,0.6c1.1,0.1,2.4,0.2,3.5,0.4c1.2,0.1,2.4,0.4,3.5,0.5
				c0.8,0.2,1.6,0.2,2.4,0.4c1.2,0.1,2.5,0.4,3.7,0.5c1.5,0.2,3,0.4,4.6,0.7c1.3,0.2,2.6,0.5,3.9,0.7c1,0.2,2,0.4,3.1,0.4
				c0.6,0,1.2,0.2,1.8,0.4c1.5,0.3,2.9,0.6,4.4,0.9c2.5,0.4,4.9,1.1,7.3,1.8c0.2,0.1,0.4,0.2,0.7,0.3c0.1-0.4,0.3-0.8,0.4-1.2
				c0.1-1.7,0.6-3.4,1.2-5c0.7-1.7,1.2-3.4,1.8-5c0.6-1.5,1.4-2.9,2.1-4.3c0.1-0.1,0.1-0.1,0.1-0.2c0.4-1.5,1.2-2.7,2.1-3.8
				c0.4-0.5,0.6-1.2,0.9-1.7c0.3-1,0.9-1.8,1.5-2.7c0.4-0.5,0.6-1.2,1-1.7c0.1-0.1,0.1-0.3,0.1-0.3c0.7-0.4,0.7-1.2,1.2-1.7
				c0.4-0.6,0.9-1.2,1.2-1.8c0.4-0.9,1.2-1.4,1.7-2.2c0.2-0.2,0.3-0.5,0.4-0.7s0.3-0.4,0.4-0.5c0.4-0.3,0.9-0.4,0.8-1.1
				c0-0.1,0.1-0.2,0.3-0.3c0.9-0.7,1.5-1.7,2.2-2.5c0.3-0.3,0.6-0.6,0.9-0.8c0.8-0.7,1.5-1.5,2.3-2.1c0.7-0.6,1.5-1.2,2.5-1.6
				c0.3-0.1,0.4-0.4,0.7-0.5c0.4-0.3,0.6-0.6,1.1-0.7c0.9-0.3,1.5-0.9,2.2-1.5c0.6-0.6,1.2-1.2,1.7-1.9c0.5-0.6,1.1-1.2,1.7-1.7
				c0.1-0.1,0.3-0.2,0.3-0.3c0.5-0.9,1.3-0.9,2.2-1.1c0.5-0.1,1-0.1,1.4-0.3c1.2-0.4,2.4-0.2,3.5-0.1c0.1,0,0.2,0.1,0.3,0
				c0.9-0.3,1.7-0.7,2.5-0.9c1-0.3,1.9-0.9,2.7-1.5c1.3-1,2.8-1.3,4.3-1.7c0.7-0.1,1.4-0.2,2.1-0.1c1.1,0.2,2.2,0.7,3.2,1.3
				c0.1,0.4,0,0.8,0.2,1.2c0.3,0.6,0.1,1.1-0.4,1.5c-0.4,0.4-0.6,0.8-0.8,1.2c-0.8,2.2-1.7,4.3-2.5,6.4c-0.5,1.4-1,2.8-1.6,4.2
				c-0.4,1.1-0.7,2.2-1.5,3.2c-0.4,0.4-0.4,1-0.7,1.5c-0.4,0.8-0.7,1.5-1,2.3c0,0.1-0.1,0.1-0.1,0.2c-0.2,1.8-1.2,3.4-1.7,5.1
				c-0.2,0.7-0.4,1.2-0.6,1.9c-0.4,1.3-0.8,2.7-1.3,4c-0.5,1.5-1.2,2.8-1.8,4.2C350,269.2,349.6,270.2,349.2,271.2z M402.6,240.9
				c0,0.1-0.1,0.1-0.1,0.2c0.1,1.5,0.1,1.5-0.4,2.8c-0.1,0.4-0.2,0.9-0.3,1.4c-0.1,0.8-0.3,1.6-0.8,2.3c-0.3,0.5-0.5,1.1-0.6,1.7
				c-0.1,1.1-0.6,2-1,3c-0.2,0.7-0.5,1.4-0.7,2c-0.1,0.1-0.1,0.4-0.2,0.5c-0.9,1.4-1.8,2.8-2.8,4c-1.1,1.5-2.2,2.8-3.5,4
				c-0.6,0.6-1.2,1.1-1.9,1.7c-0.7,0.7-1.5,1.3-2.2,2c-0.6,0.5-1.2,0.9-1.7,1.4c-0.1,0.1-0.4,0.3-0.5,0.5c-0.2,0.1-0.3,0.4-0.5,0.5
				c-0.9,0.7-1.7,1.2-2.6,1.9c-0.1,0.1-0.3,0.1-0.4,0.3c-1,0.6-2,1.2-3,1.9c-0.8,0.5-1.7,1-2.5,1.5s-1.7,1.1-2.5,1.6
				c-0.4,0.3-0.9,0.6-1.5,0.8c-0.9,0.5-1.9,1-3,1.4c-1.2,0.4-2.4,0.7-3.6,0.9c-0.7,0.1-1.4,0.3-2,0.4c-0.1,0-0.3,0.2-0.4,0.2
				c-1-0.1-1.2,0.6-1.5,1.3c-0.6,1.5-1.2,3-1.7,4.5c-0.2,0.5-0.3,1-0.4,1.5c-0.4,2.3-1.2,4.5-1.3,6.9c-0.1,1.2-0.1,2.5-0.1,3.8
				c0,0.4,0.1,0.9,0.3,1.2c0.4,0.9,0.6,1.9,0.7,2.9c0.1,0.7,0.2,0.9,0.9,0.6c0.6-0.2,1.2-0.5,1.7-0.7c1-0.5,1.9-0.1,2.2,1.1
				c0.1,0.2,0.2,0.5,0.4,0.7c0.9,0.6,1.4,1.4,1.4,2.2c-0.2,0.4-0.3,0.8-0.4,1.2c-0.2,0.9-0.7,1.5-1.4,1.8c-0.4,0.2-0.9,0.4-1.3,0.6
				c-0.1,0.1-0.2,0.1-0.4,0.1c-0.9,0-2,0.1-2.8-0.2c-1.7-0.8-3.4-1.6-4.6-3c-0.1-0.1-0.3-0.4-0.4-0.6c-0.3-0.4-0.5-0.7-0.8-1
				c-0.2-0.3-0.4-0.6-0.6-0.9c-0.6-1.6-1.6-3.1-1.9-4.8c-0.3-1.5-0.3-3.1-0.5-4.6c-0.1-1.2,0-2.4,0.1-3.5c0.2-0.9,0.4-2,0.6-2.9
				c0.1-0.7,0.4-1.4,0.5-2.1c0.1-1,0.5-2,1.1-2.9c0.1-0.1,0.1-0.3,0.1-0.4c-0.1-0.4,0.4-0.7,0.4-0.9c-0.1-0.5,0.1-0.7,0.4-0.9
				c0.1-0.1,0.1-0.2,0.1-0.4c0.1-0.7,0.3-1.3,0.4-2c0.2-0.6,0.2-0.7-0.4-1c-1.2-0.7-2.1-1.7-2.9-2.8c-0.4-0.5-0.3-1.2-0.3-1.7
				c0-0.4,0.5-0.6,0.9-0.3c0.6,0.4,1,0.9,1.6,1.4c0.5,0.4,1,0.7,1.6,1s1.1,0,1.3-0.6c0.4-1.1,0.7-2.2,1.4-3.2
				c0.2-0.2,0.2-0.6,0.2-0.8c0.4-0.8,0.7-1.6,1.2-2.4c0.7-1.4,1.4-2.7,2.2-4c0.1-0.1,0.1-0.2,0.1-0.2c0.1-0.6,0.1-1.4,0.8-1.7
				c0-0.8,0.6-1.3,0.9-2c0.4-0.9,1-1.9,1.4-2.8c0.4-1,1.2-1.8,1.5-2.9c0.1-0.4,0.3-0.9,1-0.6c0-0.3-0.1-0.5,0-0.6
				c0.6-0.7,0.6-1.6,1.2-2.3c0.7-0.8,1.1-1.7,1.7-2.6c0.4-0.5,0.9-0.9,1.2-1.6c0.5-1.2,1.4-2.2,2.2-3.2c0.7-0.7,1.3-1.5,2-2.2
				s1.5-1.5,2.3-2.2c1-0.8,1.7-1.7,2.2-2.9c0.4-0.9,1.1-1.9,1.7-2.8c0.3-0.4,0.8-0.7,1.2-0.9c0.4-0.2,0.8-0.4,1.2-0.6
				c0.3-0.1,0.6-0.3,0.9-0.3c1.3,0,2.5-0.4,3.7-0.7c1.6-0.4,3.2-0.8,4.9-0.7c1.1,0,2.2,0.2,3.3,0.3c0.4,0.1,0.9,0.1,1.4,0.2
				c0.8,0.1,1.4,0.6,2,1c0.6,0.5,1.2,0.9,1.8,1.4c0.5,0.4,0.9,0.8,1.1,1.3c0.2,0.4,0.4,0.8,0.3,1.2
				C403.5,237.6,403.3,239.3,402.6,240.9z"/>
		</g>
	</g>
</g>
</svg>
