<?xml version="1.0" encoding="UTF-8"?>
<svg id="Layer_1" xmlns="http://www.w3.org/2000/svg" xmlns:xlink="http://www.w3.org/1999/xlink" version="1.1" viewBox="0 0 2000 617.7">
  <!-- Generator: Adobe Illustrator 29.2.1, SVG Export Plug-In . SVG Version: 2.1.0 Build 116)  -->
  <defs>
    <style>
      .st0 {
        fill: #1c1c1c;
      }
    </style>
  </defs>
  <path class="st0" d="M287.6,567.2v-97.9H18.5v-135.8L222.8,50.5h284.5v272.9h76.3l-17,145.7h-59.4v97.9h-219.6v.2ZM287.6,311.2c0-29.3,2.3-97.1,3.9-121.8-20,39.3-50.9,96.4-75.6,134.2h71.7v-12.4h0Z"/>
  <path class="st0" d="M1276,305c0,148.8-73.2,272.9-279.1,272.9s-282.2-125.7-282.2-270.6S793.3,39.8,994.6,39.8c190.4,0,281.4,124.1,281.4,265.2ZM949.9,305c0,91,4.6,144.2,44.7,144.2s44.7-50.9,44.7-144.9,0-135.7-43.2-135.7c-41.6,0-46.2,56.2-46.2,136.4Z"/>
  <path class="st0" d="M1685.4,567.2v-97.9h-269.1v-135.8l204.3-283h284.5v272.9h76.3l-17,145.7h-59.4v97.9h-219.6v.2ZM1685.4,311.2c0-29.3,2.3-97.1,3.9-121.8-20,39.3-50.9,96.4-75.6,134.2h71.7v-12.4Z"/>
</svg>