<?xml version="1.0" encoding="utf-8"?>
<!-- Generator: Adobe Illustrator 26.3.1, SVG Export Plug-In . SVG Version: 6.00 Build 0)  -->
<svg version="1.1" id="Layer_1" xmlns="http://www.w3.org/2000/svg" xmlns:xlink="http://www.w3.org/1999/xlink" x="0px" y="0px"
	 viewBox="0 0 2000 617.7" style="enable-background:new 0 0 2000 617.7;" xml:space="preserve">
<g>
	<path d="M287.6,567.2v-97.9H18.5V333.5l204.3-283h284.5v272.9h76.3l-17,145.7h-59.4v97.9H287.6z M287.6,311.2
		c0-29.3,2.3-97.1,3.9-121.8c-20,39.3-50.9,96.4-75.6,134.2h71.7V311.2z"/>
	<path d="M1276,305c0,148.8-73.2,272.9-279.1,272.9c-212.8,0-282.2-125.7-282.2-270.6c0-151.9,78.6-267.5,279.9-267.5
		C1185,39.8,1276,163.9,1276,305z M949.9,305c0,91,4.6,144.2,44.7,144.2c37.8,0,44.7-50.9,44.7-144.9c0-81,0-135.7-43.2-135.7
		C954.5,168.6,949.9,224.8,949.9,305z"/>
	<path d="M1685.4,567.2v-97.9h-269.1V333.5l204.3-283h284.5v272.9h76.3l-17,145.7h-59.4v97.9H1685.4z M1685.4,311.2
		c0-29.3,2.3-97.1,3.9-121.8c-20,39.3-50.9,96.4-75.6,134.2h71.7V311.2z"/>
</g>
</svg>
