<?xml version="1.0" encoding="utf-8"?>
<!-- Generator: Adobe Illustrator 17.1.0, SVG Export Plug-In . SVG Version: 6.00 Build 0)  -->
<!DOCTYPE svg PUBLIC "-//W3C//DTD SVG 1.1//EN" "http://www.w3.org/Graphics/SVG/1.1/DTD/svg11.dtd">
<svg version="1.1" id="Layer_1" xmlns="http://www.w3.org/2000/svg" xmlns:xlink="http://www.w3.org/1999/xlink" x="0px" y="0px"
	 viewBox="0 0 1500 1500" enable-background="new 0 0 1500 1500" xml:space="preserve">
<g>
	<g>
		<path d="M1435.375,1181.583c0,85.188-68.438,143.083-170.292,143.083H234.896c-101.854,0-170.292-57.896-170.292-143.125
			c0-32.562,10.104-66.938,30.021-101.458l516.042-810.917c34.562-59.938,84.417-93.875,139.417-93.875
			c54.958,0,104.729,33.75,140.188,95.125l514.167,808.188C1425.292,1114.688,1435.375,1149.021,1435.375,1181.583z
			 M147.958,1181.562c0,53.396,60.812,59.792,86.958,59.792h1030.188c26.146,0,86.958-6.417,86.958-59.75
			c0-17.5-6.521-38.396-18.854-59.792L819.062,313.75c-20.562-35.542-45.354-55.125-68.938-55.125
			c-23.646,0-48.479,19.521-68.167,53.625l-516.062,811.083C154.479,1143.188,147.958,1164.042,147.958,1181.562z"/>
	</g>
	<g>
		<g>
			<path d="M814.188,409.333c0,6.938-3.438,13.687-9.75,17.667c-9.729,6.125-22.583,3.188-28.729-6.521l-7.083-11.25
				c-6.104-9.75-3.208-22.604,6.542-28.729c9.729-6.146,22.583-3.208,28.729,6.521l7.083,11.25
				C813.125,401.708,814.188,405.542,814.188,409.333z"/>
		</g>
		<g>
			<path d="M1006.125,714.521c0,6.938-3.438,13.688-9.75,17.667c-9.729,6.125-22.604,3.187-28.729-6.542L820.562,491.833
				c-6.083-9.729-3.208-22.583,6.542-28.729c9.729-6.125,22.604-3.188,28.729,6.542l147.083,233.812
				C1005.083,706.896,1006.125,710.75,1006.125,714.521z"/>
		</g>
	</g>
</g>
<rect x="243.479" y="906.25" fill="none" width="1013.062" height="541.667"/>
<text transform="matrix(1 0 0 1 449.1921 1094.9771)" font-family="'Lato-Light'" font-size="320">TOP</text>
</svg>
