<?xml version="1.0" encoding="utf-8"?>
<!-- Generator: Adobe Illustrator 17.1.0, SVG Export Plug-In . SVG Version: 6.00 Build 0)  -->
<!DOCTYPE svg PUBLIC "-//W3C//DTD SVG 1.1//EN" "http://www.w3.org/Graphics/SVG/1.1/DTD/svg11.dtd">
<svg version="1.1" id="Layer_1" xmlns="http://www.w3.org/2000/svg" xmlns:xlink="http://www.w3.org/1999/xlink" x="0px" y="0px"
	 viewBox="64.751 85.753 1228.229 1228.229" enable-background="new 64.751 85.753 1228.229 1228.229" xml:space="preserve">
<g id="photo_1_" opacity="0.75">
	<path fill="#333333" d="M872.241,502.652H485.488c-10.694,0-19.337,8.644-19.337,19.337v348.079
		c0,10.694,8.644,19.337,19.337,19.337h386.754c10.694,0,19.337-8.644,19.337-19.337V521.989
		C891.579,511.297,882.936,502.652,872.241,502.652z M872.241,521.989v268.194l-62.848-68.262
		c-3.694-4.177-8.953-6.556-14.503-6.556c-5.549,0-10.848,2.378-14.503,6.556l-50.356,57.046L577.341,605.896
		c-3.673-4.175-8.953-6.556-14.503-6.556c-5.549,0-10.829,2.378-14.503,6.556l-62.847,72.477V521.989H872.241z M485.488,707.632
		l77.35-88.954l155.979,176.804l11.216,12.725l53.411,61.862H485.488V707.632L485.488,707.632z M809.202,870.069l-66.289-76.481
		l51.979-58.884l77.35,84.679v50.684h-63.042L809.202,870.069L809.202,870.069z"/>
	<path fill="#333333" d="M756.215,676.692c32.025,0,58.013-25.971,58.013-58.013c0-32.043-25.989-58.013-58.013-58.013
		c-32.062,0-58.013,25.971-58.013,58.013C698.2,650.721,724.153,676.692,756.215,676.692z M756.215,580.003
		c21.31,0,38.675,17.346,38.675,38.675c0,21.329-17.365,38.675-38.675,38.675c-21.349,0-38.675-17.346-38.675-38.675
		C717.539,597.349,734.867,580.003,756.215,580.003z"/>
</g>
<circle opacity="0.75" fill="none" stroke="#333333" stroke-width="27.8269" stroke-miterlimit="10" cx="678.865" cy="699.867" r="402.098"/>
</svg>
