<?xml version="1.0" encoding="utf-8"?>
<!-- Generator: Adobe Illustrator 17.1.0, SVG Export Plug-In . SVG Version: 6.00 Build 0)  -->
<!DOCTYPE svg PUBLIC "-//W3C//DTD SVG 1.1//EN" "http://www.w3.org/Graphics/SVG/1.1/DTD/svg11.dtd">
<svg version="1.1" id="Layer_1" xmlns="http://www.w3.org/2000/svg" xmlns:xlink="http://www.w3.org/1999/xlink" x="0px" y="0px"
	 viewBox="0 0 72 72" enable-background="new 0 0 72 72" xml:space="preserve">
<g>
	<g>
		<path d="M17.985,27.228c-6.444,0-11.685-5.241-11.685-11.685S11.542,3.857,17.985,3.857c6.445,0,11.687,5.242,11.687,11.686
			S24.43,27.228,17.985,27.228z M17.985,7.622c-4.368,0-7.921,3.553-7.921,7.922c0,4.368,3.553,7.921,7.921,7.921
			c4.369,0,7.922-3.553,7.922-7.921S22.354,7.622,17.985,7.622z"/>
	</g>
	<g>
		<path d="M12.803,16.484c-0.52,0-0.941-0.421-0.941-0.941l-0.004-0.188c-0.007-0.198-0.007-0.34,0.053-0.648
			c0.098-0.51,0.595-0.841,1.102-0.747c0.51,0.098,0.844,0.592,0.747,1.102c-0.024,0.123-0.024,0.123-0.02,0.231l0.005,0.251
			C13.744,16.064,13.323,16.484,12.803,16.484z"/>
	</g>
	<g>
		<path d="M13.678,13.602c-0.18,0-0.362-0.052-0.523-0.159c-0.432-0.29-0.547-0.874-0.258-1.306
			c1.141-1.702,3.043-2.717,5.089-2.717c0.52,0,0.941,0.421,0.941,0.941s-0.421,0.941-0.941,0.941c-1.417,0-2.735,0.704-3.525,1.882
			C14.279,13.456,13.981,13.602,13.678,13.602z"/>
	</g>
	<g>
		<path d="M44.337,27.228c-6.444,0-11.685-5.241-11.685-11.685S37.894,3.857,44.337,3.857c6.445,0,11.687,5.242,11.687,11.686
			S50.782,27.228,44.337,27.228z M44.337,7.622c-4.368,0-7.921,3.553-7.921,7.922c0,4.368,3.553,7.921,7.921,7.921
			c4.369,0,7.922-3.553,7.922-7.921S48.706,7.622,44.337,7.622z"/>
	</g>
	<g>
		<path d="M40.029,13.602c-0.18,0-0.362-0.052-0.523-0.159c-0.432-0.29-0.547-0.874-0.258-1.306
			c1.141-1.702,3.043-2.717,5.089-2.717c0.52,0,0.941,0.421,0.941,0.941s-0.421,0.941-0.941,0.941c-1.417,0-2.735,0.704-3.525,1.882
			C40.631,13.456,40.332,13.602,40.029,13.602z"/>
	</g>
	<g>
		<path d="M45.586,66.241H10.635c-3.658,0-6.636-2.378-6.636-5.904V35.739c0-3.665,3.099-7.143,6.636-7.143h34.951
			c3.597,0,6.524,3.171,6.524,6.833c0,0.046-0.002,0.185-0.005,0.231l-0.047,0.706c2.768-1.441,7.001-3.665,9.959-5.248
			c0.998-0.482,1.818-0.686,2.579-0.686c0.937,0,1.705,0.338,2.323,0.968c1.175,1.191,1.079,2.956,1.079,3.706v0.1v25.323
			c0,1.132-0.162,1.969-0.631,2.615c-0.398,0.552-1.221,1.215-2.58,1.215c-0.001,0,0.058,0,0.058,0c-0.761,0-1.549-0.21-2.541-0.515
			c-0.112-0.035-0.206-0.083-0.309-0.137c-3.603-1.897-7.488-3.911-9.988-5.165l0.097,1.566c0.003,0.037,0.006-0.118,0.006-0.081
			C52.107,63.618,49.243,66.241,45.586,66.241z M10.635,32.36c-1.47,0-2.871,1.783-2.871,3.379v24.598
			c0,1.462,1.273,2.139,2.871,2.139h34.951c1.53,0,2.732-0.943,2.759-2.401l-0.278-4.551c-0.031-0.519,0.152-0.978,0.508-1.354
			c0.356-0.378,0.852-0.568,1.37-0.568c0.559,0,0.999,0.011,13.66,6.676c0.196,0.059,0.476,0.147,0.739,0.21l0.002-25.444
			c0.006-0.37-0.009-0.617-0.032-0.786c-0.14,0.041-0.335,0.113-0.593,0.237c-12.997,6.952-13.161,6.954-13.775,6.954
			c-0.522,0-1.021-0.216-1.378-0.6c-0.356-0.382-0.536-0.897-0.5-1.417l0.276-4.065c-0.031-1.533-1.281-3.009-2.758-3.009
			L10.635,32.36L10.635,32.36z"/>
	</g>
	<g>
		<g>
			<path d="M10.587,44.036c-0.52,0-0.941-0.421-0.941-0.941v-4.783c0-1.741,1.523-4.07,3.412-4.07h7.994
				c0.52,0,0.941,0.421,0.941,0.941c0,0.52-0.421,0.941-0.941,0.941h-7.994c-0.688,0-1.529,1.311-1.529,2.187v4.783
				C11.528,43.615,11.107,44.036,10.587,44.036z"/>
		</g>
		<g>
			<path d="M25.757,36.125h-0.941c-0.52,0-0.941-0.421-0.941-0.941c0-0.52,0.421-0.941,0.941-0.941h0.941
				c0.52,0,0.941,0.421,0.941,0.941S26.278,36.125,25.757,36.125z"/>
		</g>
	</g>
</g>
</svg>
