<?xml version="1.0" encoding="utf-8"?>
<!-- Generator: Adobe Illustrator 17.1.0, SVG Export Plug-In . SVG Version: 6.00 Build 0)  -->
<!DOCTYPE svg PUBLIC "-//W3C//DTD SVG 1.1//EN" "http://www.w3.org/Graphics/SVG/1.1/DTD/svg11.dtd">
<svg version="1.1" id="Layer_1" xmlns="http://www.w3.org/2000/svg" xmlns:xlink="http://www.w3.org/1999/xlink" x="0px" y="0px"
	 viewBox="0 0 72 72" enable-background="new 0 0 72 72" xml:space="preserve">
<g>
	<g>
		<path d="M49.691,66.591H23.509c-1.071,0-1.939-0.869-1.939-1.939c0-1.072,0.869-1.939,1.939-1.939h26.182
			c1.071,0,1.939,0.868,1.939,1.939C51.631,65.722,50.763,66.591,49.691,66.591z"/>
	</g>
	<g>
		<path d="M68,48.234c0,3.712-3.01,6.722-6.722,6.722H10.722C7.01,54.955,4,51.946,4,48.234V12.222C4,8.51,7.01,5.5,10.722,5.5
			h50.557C64.99,5.5,68,8.51,68,12.222V48.234z M64.121,12.222c0-1.57-1.272-2.843-2.843-2.843H10.722
			c-1.57,0-2.843,1.273-2.843,2.843v36.012c0,1.57,1.273,2.842,2.843,2.842h50.557c1.57,0,2.843-1.273,2.843-2.843L64.121,12.222
			L64.121,12.222z"/>
	</g>
	<g>
		<path d="M66.176,44.288H6.055c-0.536,0-0.97-0.433-0.97-0.97c0-0.536,0.433-0.97,0.97-0.97h60.121c0.535,0,0.97,0.433,0.97,0.97
			C67.146,43.854,66.711,44.288,66.176,44.288z"/>
	</g>
	<g>
		<path d="M66.176,16.167H6.055c-0.536,0-0.97-0.433-0.97-0.97c0-0.536,0.433-0.97,0.97-0.97h60.121c0.535,0,0.97,0.433,0.97,0.97
			C67.146,15.733,66.711,16.167,66.176,16.167z"/>
	</g>
	<g>
		<g>
			<path d="M32.61,30.31c-0.116,0-0.236-0.02-0.351-0.066c-0.499-0.194-0.747-0.756-0.551-1.256l0.263-0.675
				c0.194-0.499,0.757-0.747,1.256-0.551c0.499,0.194,0.746,0.756,0.551,1.256l-0.263,0.675C33.364,30.076,32.998,30.31,32.61,30.31
				z"/>
		</g>
		<g>
			<path d="M28.912,39.805c-0.116,0-0.236-0.02-0.351-0.066c-0.499-0.193-0.747-0.755-0.551-1.256l2.75-7.062
				c0.194-0.498,0.754-0.748,1.255-0.551c0.499,0.194,0.747,0.756,0.552,1.256l-2.75,7.062
				C29.668,39.57,29.301,39.805,28.912,39.805z"/>
		</g>
		<g>
			<path d="M24.983,33.211c-0.116,0-0.236-0.02-0.351-0.066c-0.499-0.194-0.747-0.755-0.552-1.255l4.02-10.329
				c0.195-0.499,0.755-0.748,1.256-0.552c0.499,0.194,0.747,0.755,0.552,1.255l-4.02,10.329
				C25.738,32.976,25.371,33.211,24.983,33.211z"/>
		</g>
		<g>
			<path d="M23.094,38.058c-0.116,0-0.236-0.02-0.351-0.066c-0.499-0.195-0.747-0.757-0.551-1.256l0.591-1.519
				c0.195-0.499,0.759-0.747,1.256-0.551c0.499,0.194,0.747,0.756,0.551,1.256l-0.591,1.519
				C23.85,37.823,23.483,38.058,23.094,38.058z"/>
		</g>
	</g>
</g>
</svg>
