<?xml version="1.0" encoding="utf-8"?>
<!-- Generator: Adobe Illustrator 17.1.0, SVG Export Plug-In . SVG Version: 6.00 Build 0)  -->
<!DOCTYPE svg PUBLIC "-//W3C//DTD SVG 1.1//EN" "http://www.w3.org/Graphics/SVG/1.1/DTD/svg11.dtd">
<svg version="1.1" id="Layer_1" xmlns="http://www.w3.org/2000/svg" xmlns:xlink="http://www.w3.org/1999/xlink" x="0px" y="0px"
	 viewBox="0 0 1500 1500" enable-background="new 0 0 1500 1500" xml:space="preserve">
<rect y="-0.652" fill="#DEDDDD" width="1500" height="1500"/>
<g id="photo_1_" opacity="0.75">
	<path fill="#333333" d="M902.884,552.662H597.116c-30.701,0-55.594,24.893-55.594,55.594v333.566
		c0,30.701,24.893,55.594,55.594,55.594h305.769c30.701,0,55.594-24.893,55.594-55.594V608.256
		C958.478,577.554,933.586,552.662,902.884,552.662z M930.681,941.822c0,15.316-12.482,27.797-27.797,27.797H597.116
		c-15.33,0-27.797-12.482-27.797-27.797V608.256c0-15.33,12.467-27.797,27.797-27.797h305.769c15.316,0,27.797,12.467,27.797,27.797
		V941.822z"/>
	<path fill="#333333" d="M888.985,608.256H611.014c-7.686,0-13.898,6.213-13.898,13.898v250.175c0,7.686,6.213,13.898,13.898,13.898
		h277.972c7.686,0,13.898-6.213,13.898-13.898V622.154C902.884,614.469,896.672,608.256,888.985,608.256z M888.985,622.154v192.759
		l-45.171-49.062c-2.655-3.002-6.435-4.712-10.424-4.712c-3.988,0-7.797,1.709-10.424,4.712l-36.192,41.001L677.032,682.46
		c-2.64-3.001-6.435-4.712-10.424-4.712c-3.988,0-7.783,1.709-10.424,4.712l-45.17,52.091V622.154H888.985z M611.014,755.581
		l55.594-63.934l112.107,127.074l8.061,9.146l38.388,44.462H611.014V755.581L611.014,755.581z M843.677,872.329l-47.644-54.969
		l37.359-42.322l55.594,60.861v36.428h-45.31L843.677,872.329L843.677,872.329z"/>
	<path fill="#333333" d="M805.594,733.343c23.017,0,41.696-18.666,41.696-41.696c0-23.03-18.679-41.696-41.696-41.696
		c-23.044,0-41.696,18.666-41.696,41.696C763.897,714.677,782.55,733.343,805.594,733.343z M805.594,663.85
		c15.316,0,27.797,12.467,27.797,27.797c0,15.33-12.481,27.797-27.797,27.797c-15.344,0-27.797-12.467-27.797-27.797
		C777.796,676.317,790.25,663.85,805.594,663.85z"/>
</g>
<polygon opacity="0.5" fill="#DEDDDD" enable-background="new    " points="1500.5,1344.873 54.266,-0.652 1500.5,-0.652 "/>
</svg>
