<?xml version="1.0" encoding="utf-8"?>
<!-- Generator: Adobe Illustrator 16.0.0, SVG Export Plug-In . SVG Version: 6.00 Build 0)  -->
<!DOCTYPE svg PUBLIC "-//W3C//DTD SVG 1.1//EN" "http://www.w3.org/Graphics/SVG/1.1/DTD/svg11.dtd">
<svg version="1.1" id="Layer_1" xmlns="http://www.w3.org/2000/svg" xmlns:xlink="http://www.w3.org/1999/xlink" x="0px" y="0px"
	 width="72px" height="72px" viewBox="0 0 72 72" enable-background="new 0 0 72 72" xml:space="preserve">
<g>
	<g>
		<path d="M6.435,67.924c-0.524,0-1.035-0.206-1.414-0.586l-0.435-0.434c-0.494-0.494-0.694-1.209-0.529-1.888
			c0.606-2.49,3.786-15.071,6.883-18.167L51.063,6.728c1.71-1.711,4.009-2.652,6.474-2.652c2.607,0,5.08,1.036,6.961,2.918
			l0.435,0.435c1.79,1.789,2.901,4.265,3.05,6.792c0.158,2.686-0.733,5.143-2.509,6.918L25.349,61.26
			c-3.111,3.111-15.943,6.059-18.484,6.617C6.722,67.91,6.578,67.924,6.435,67.924z M57.536,8.076c-1.396,0-2.69,0.525-3.646,1.48
			L13.768,49.678c-1.455,1.455-3.673,8.178-5.156,13.685c5.608-1.38,12.461-3.483,13.909-4.931L62.645,18.31
			c0.956-0.957,1.434-2.326,1.344-3.854c-0.092-1.563-0.778-3.094-1.885-4.199l-0.435-0.435C60.543,8.696,59.075,8.076,57.536,8.076
			z"/>
	</g>
	<g>
		<path d="M60.956,22.171c-0.256,0-0.512-0.098-0.707-0.293L49.495,11.125c-0.391-0.391-0.391-1.023,0-1.414s1.023-0.391,1.414,0
			l10.754,10.754c0.391,0.391,0.391,1.023,0,1.414C61.468,22.074,61.212,22.171,60.956,22.171z"/>
	</g>
	<g>
		<path d="M24.556,58.573c-0.256,0-0.512-0.098-0.707-0.293L13.094,47.524c-0.391-0.391-0.391-1.023,0-1.414s1.023-0.391,1.414,0
			l10.755,10.756c0.391,0.391,0.391,1.023,0,1.414C25.068,58.475,24.812,58.573,24.556,58.573z"/>
	</g>
	<g>
		<path d="M16.69,63.708c-0.256,0-0.512-0.098-0.707-0.293l-6.889-6.891c-0.391-0.391-0.391-1.023,0-1.414s1.023-0.391,1.414,0
			L17.397,62c0.391,0.391,0.391,1.023,0,1.414C17.202,63.61,16.946,63.708,16.69,63.708z"/>
	</g>
	<g>
		<path d="M17.938,51.954c-0.256,0-0.512-0.098-0.707-0.293c-0.391-0.391-0.391-1.023,0-1.414l29.783-29.782
			c0.391-0.391,1.023-0.391,1.414,0s0.391,1.023,0,1.414L18.645,51.661C18.45,51.856,18.194,51.954,17.938,51.954z"/>
	</g>
	<g>
		<path d="M50.615,19.276c-0.256,0-0.512-0.098-0.707-0.293c-0.391-0.391-0.391-1.023,0-1.414l3.723-3.723
			c0.391-0.391,1.023-0.391,1.414,0s0.391,1.023,0,1.414l-3.723,3.723C51.127,19.178,50.871,19.276,50.615,19.276z"/>
	</g>
	<g>
		<path d="M21.247,55.262c-0.256,0-0.512-0.098-0.707-0.293c-0.391-0.391-0.391-1.023,0-1.414l36.4-36.399
			c0.391-0.391,1.023-0.391,1.414,0s0.391,1.023,0,1.414l-36.4,36.399C21.758,55.165,21.502,55.262,21.247,55.262z"/>
	</g>
</g>
</svg>
