<?xml version="1.0" encoding="UTF-8"?>
<svg id="Layer_1" xmlns="http://www.w3.org/2000/svg" xmlns:xlink="http://www.w3.org/1999/xlink" version="1.1" viewBox="0 0 2160 2160">
  <!-- Generator: Adobe Illustrator 29.2.1, SVG Export Plug-In . SVG Version: 2.1.0 Build 116)  -->
  <defs>
    <style>
      .st0 {
        fill: #121212;
      }

      .st1 {
        fill: #fff;
        stroke: #fff;
        stroke-miterlimit: 10;
      }
    </style>
  </defs>
  <g>
    <path class="st0" d="M1082.3,815.6c43,0,83.8,10.7,120,29.8-36.1-19-76.9-29.7-119.8-29.6-148.8.5-266,115.8-266,262.7s107.2,253.2,241.9,264.1c-134.8-10.8-242-124.4-242-264.3-.1-146.9,117.3-262.4,265.9-262.7Z"/>
    <path class="st0" d="M1202.3,845.4c2.6,1.3,5.1,2.7,7.6,4.2-2.5-1.5-5-2.9-7.6-4.2Z"/>
    <path class="st0" d="M1306.8,944.4c1.8,3,3.6,6.1,5.3,9.3-1.7-3.2-3.4-6.3-5.3-9.3Z"/>
    <path class="st0" d="M1338.8,1025.4c.6,2.8,1.2,5.7,1.7,8.6-.5-2.9-1.1-5.7-1.7-8.6Z"/>
  </g>
  <path class="st1" d="M1081.5,673.4c-223.4-.2-407.5,182.7-407.7,404.8-.2,223.3,182.7,407.1,405.1,407.3,223.2.2,407.5-182.7,407.5-404.8.4-223.2-182.4-406.9-404.9-407.3ZM1344.5,1083.1c-1.9,142.7-121.6,262.7-269.3,260.4-2.2,0-4.4,0-6.7-.2-1.1,0-2.2,0-3.3-.2-2,0-4-.2-6-.4-.3,0-.6,0-.9,0-134.7-10.9-241.9-124.4-241.9-264.1s117.2-262.2,266-262.7c42.9,0,83.7,10.6,119.8,29.6,2.6,1.3,5.1,2.7,7.6,4.2,1.3.7,2.5,1.4,3.8,2.2,1.2.7,2.5,1.5,3.7,2.2,0,0,0,0,.2,0,1.3.8,2.6,1.6,3.9,2.5,1.3.8,2.6,1.7,3.9,2.5,1.8,1.2,3.6,2.4,5.4,3.7.9.6,1.7,1.2,2.6,1.8,1.7,1.2,3.4,2.5,5.1,3.8.8.6,1.7,1.3,2.5,1.9.8.6,1.6,1.2,2.4,1.9.7.5,1.3,1,1.9,1.6,4.7,3.8,9.2,7.7,13.6,11.8.9.8,1.8,1.7,2.7,2.5.8.7,1.5,1.4,2.2,2.2,3.9,3.8,7.7,7.7,11.3,11.7.8.9,1.7,1.9,2.5,2.8.4.5.9,1,1.3,1.5,1,1.1,1.9,2.2,2.8,3.3,1.4,1.6,2.7,3.2,4,4.9,1,1.3,2,2.5,3,3.8q0,0,.2.2c1.9,2.5,3.8,5,5.6,7.6.9,1.2,1.7,2.4,2.6,3.6,0,.2.3.4.4.6.8,1.2,1.7,2.4,2.5,3.7.6.8,1.1,1.7,1.7,2.6.6.9,1.1,1.7,1.7,2.6.5.9,1.1,1.7,1.6,2.6.5.9,1.1,1.7,1.6,2.6,1.8,3,3.6,6.1,5.3,9.3,0,.2.2.3.3.5.8,1.4,1.5,2.9,2.3,4.3.7,1.4,1.4,2.8,2.2,4.2,1,2,2,4.1,3,6.2.8,1.8,1.7,3.6,2.5,5.5.6,1.3,1.2,2.7,1.7,4.1.5,1.2,1,2.4,1.5,3.6.3.8.7,1.7,1,2.5.5,1.4,1.1,2.7,1.6,4.1.4,1.1.8,2.1,1.2,3.2.6,1.6,1.1,3.2,1.7,4.8.5,1.6,1.1,3.2,1.6,4.9,1.5,4.7,2.8,9.4,4,14.2.4,1.6.8,3.2,1.2,4.8.4,1.6.7,3.2,1.1,4.9.6,2.8,1.2,5.7,1.7,8.6.2.8.3,1.7.4,2.5.2,1.2.4,2.5.6,3.8.3,1.8.5,3.5.8,5.3.2,1.3.3,2.7.5,4.1,0,1.1.3,2.2.4,3.3.2,1.9.4,3.9.5,5.8,0,1.3.2,2.5.3,3.8,0,2,.2,4.1.3,6.1,0,.6,0,1.2,0,1.8,0,1.8,0,3.7,0,5.5v3.3c.1,1.1.1,2.4.1,3.7Z"/>
  <path class="st1" d="M1597.2,658.4c-.5,51.5-43.7,93.9-94.9,93.5-52.5-.5-95.2-44.1-94.1-96.2,1.1-51.6,44-92.9,95.8-92.6,51.3.5,93.6,43.5,93.2,95.3Z"/>
  <path class="st1" d="M1869.5,859.6c-1.7-72.2-5-145.2-17-216.3-30.9-182.8-173.3-317.8-358-339.8-83.4-9.9-167.8-13-251.8-14.3-128.8-2-257.6-1.6-386.4,1.4-71.2,1.6-143,5.2-212.9,16.9-181.3,30.6-317.8,174.5-339.2,356.8-9.6,82.1-12.7,165.1-14.5,247.8-2.4,110.5-2.4,221,0,331.3,1.9,84,4.9,168.2,14.8,251.6,11,92.9,50.4,174.8,117.7,241.8,83.3,83,187.4,119,301.8,125.1,117.5,6.3,235.3,6.9,353,10,1.1,0,2-.8,2-1.9s.8-1.9,1.9-1.9c74.5,0,149.1,2.2,223.4-.6,71-2.5,142.8-5.2,212.9-16.9,180.8-30.1,318.1-175,339.3-356.7,9.6-82.7,13-166.4,14.3-249.7,2-127.9,1.5-255.9-1.3-384.6ZM1724.5,1399.4c-1.6,56.2-9.7,111.7-34.4,163.2-44.3,92.1-121,140.3-219.5,152.9-63.3,8-127.6,10.7-191.5,11.3-145.3,1.6-290.6,2-435.9-.6-62.5-1.3-126-5.5-186.9-18-120.2-24.6-200-116.3-213.2-238.9-6.8-63.6-10.4-127.6-11-191.5-1.6-144.5-2-289.2.6-433.8,1.1-63.1,5.3-127.1,18.1-188.6,24.7-119.9,116.4-199.5,239.4-212.5,64.7-6.9,130.1-10.4,195.3-11,143-1.6,285.9-2,428.7.6,63.8,1.3,128.5,5.2,190.6,18.2,117,24.6,187.7,101.7,208,218.1,12.1,69.2,13,140.6,15.6,211.1,2.4,66.4.5,132.9.5,199.5.6,0,1.4,0,1.7-.2-2,106.8-3.1,213.5-6.1,320.2Z"/>
</svg>