<?xml version="1.0" encoding="utf-8"?>
<!-- Generator: Adobe Illustrator 28.2.0, SVG Export Plug-In . SVG Version: 6.00 Build 0)  -->
<svg version="1.1" id="Layer_1" xmlns="http://www.w3.org/2000/svg" xmlns:xlink="http://www.w3.org/1999/xlink" x="0px" y="0px"
	 viewBox="0 0 2160 2160" style="enable-background:new 0 0 2160 2160;" xml:space="preserve">
<style type="text/css">
	.st0{fill:#121212;}
	.st1{fill:#111111;stroke:#000000;stroke-miterlimit:10;}
</style>
<g>
	<path class="st0" d="M1082.3,815.6c43,0,83.8,10.7,120,29.8c-36.1-19-76.9-29.7-119.8-29.6c-148.8,0.5-266,115.8-266,262.7
		c0,139.7,107.2,253.2,241.9,264.1c-134.8-10.8-242-124.4-242-264.3C816.3,931.4,933.7,815.9,1082.3,815.6z"/>
	<path class="st0" d="M1202.3,845.4c2.6,1.3,5.1,2.7,7.6,4.2C1207.4,848.1,1204.9,846.7,1202.3,845.4z"/>
	<path class="st0" d="M1306.8,944.4c1.8,3,3.6,6.1,5.3,9.3C1310.4,950.5,1308.7,947.4,1306.8,944.4z"/>
	<path class="st0" d="M1338.8,1025.4c0.6,2.8,1.2,5.7,1.7,8.6C1340,1031.1,1339.4,1028.3,1338.8,1025.4z"/>
</g>
<path class="st1" d="M1081.5,673.4c-223.4-0.2-407.5,182.7-407.7,404.8c-0.2,223.3,182.7,407.1,405.1,407.3
	c223.2,0.2,407.5-182.7,407.5-404.8C1486.8,857.5,1304,673.8,1081.5,673.4z M1344.5,1083.1c-1.9,142.7-121.6,262.7-269.3,260.4
	c-2.2,0-4.4-0.1-6.7-0.2c-1.1,0-2.2-0.1-3.3-0.2c-2-0.1-4-0.2-6-0.4c-0.3,0-0.6,0-0.9-0.1c-134.7-10.9-241.9-124.4-241.9-264.1
	c0-146.9,117.2-262.2,266-262.7c42.9-0.1,83.7,10.6,119.8,29.6c2.6,1.3,5.1,2.7,7.6,4.2c1.3,0.7,2.5,1.4,3.8,2.2
	c1.2,0.7,2.5,1.5,3.7,2.2c0.1,0,0.1,0.1,0.2,0.1c1.3,0.8,2.6,1.6,3.9,2.5c1.3,0.8,2.6,1.7,3.9,2.5c1.8,1.2,3.6,2.4,5.4,3.7
	c0.9,0.6,1.7,1.2,2.6,1.8c1.7,1.2,3.4,2.5,5.1,3.8c0.8,0.6,1.7,1.3,2.5,1.9c0.8,0.6,1.6,1.2,2.4,1.9c0.7,0.5,1.3,1,1.9,1.6
	c4.7,3.8,9.2,7.7,13.6,11.8c0.9,0.8,1.8,1.7,2.7,2.5c0.8,0.7,1.5,1.4,2.2,2.2c3.9,3.8,7.7,7.7,11.3,11.7c0.8,0.9,1.7,1.9,2.5,2.8
	c0.4,0.5,0.9,1,1.3,1.5c1,1.1,1.9,2.2,2.8,3.3c1.4,1.6,2.7,3.2,4,4.9c1,1.3,2,2.5,3,3.8c0.1,0.1,0.1,0.1,0.2,0.2
	c1.9,2.5,3.8,5,5.6,7.6c0.9,1.2,1.7,2.4,2.6,3.6c0.1,0.2,0.3,0.4,0.4,0.6c0.8,1.2,1.7,2.4,2.5,3.7c0.6,0.8,1.1,1.7,1.7,2.6
	c0.6,0.9,1.1,1.7,1.7,2.6c0.5,0.9,1.1,1.7,1.6,2.6c0.5,0.9,1.1,1.7,1.6,2.6c1.8,3,3.6,6.1,5.3,9.3c0.1,0.2,0.2,0.3,0.3,0.5
	c0.8,1.4,1.5,2.9,2.3,4.3c0.7,1.4,1.4,2.8,2.2,4.2c1,2,2,4.1,3,6.2c0.8,1.8,1.7,3.6,2.5,5.5c0.6,1.3,1.2,2.7,1.7,4.1
	c0.5,1.2,1,2.4,1.5,3.6c0.3,0.8,0.7,1.7,1,2.5c0.5,1.4,1.1,2.7,1.6,4.1c0.4,1.1,0.8,2.1,1.2,3.2c0.6,1.6,1.1,3.2,1.7,4.8
	c0.5,1.6,1.1,3.2,1.6,4.9c1.5,4.7,2.8,9.4,4,14.2c0.4,1.6,0.8,3.2,1.2,4.8c0.4,1.6,0.7,3.2,1.1,4.9c0.6,2.8,1.2,5.7,1.7,8.6
	c0.2,0.8,0.3,1.7,0.4,2.5c0.2,1.2,0.4,2.5,0.6,3.8c0.3,1.8,0.5,3.5,0.8,5.3c0.2,1.3,0.3,2.7,0.5,4.1c0.1,1.1,0.3,2.2,0.4,3.3
	c0.2,1.9,0.4,3.9,0.5,5.8c0.1,1.3,0.2,2.5,0.3,3.8c0.1,2,0.2,4.1,0.3,6.1c0,0.6,0,1.2,0.1,1.8c0.1,1.8,0.1,3.7,0.1,5.5
	c0,1.1,0,2.2,0,3.3C1344.5,1080.5,1344.5,1081.8,1344.5,1083.1z"/>
<path class="st1" d="M1597.2,658.4c-0.5,51.5-43.7,93.9-94.9,93.5c-52.5-0.5-95.2-44.1-94.1-96.2c1.1-51.6,44-92.9,95.8-92.6
	C1555.3,563.6,1597.6,606.6,1597.2,658.4z"/>
<path class="st1" d="M1869.5,859.6c-1.7-72.2-5-145.2-17-216.3c-30.9-182.8-173.3-317.8-358-339.8c-83.4-9.9-167.8-13-251.8-14.3
	c-128.8-2-257.6-1.6-386.4,1.4c-71.2,1.6-143,5.2-212.9,16.9C462.1,338.1,325.6,482,304.2,664.3c-9.6,82.1-12.7,165.1-14.5,247.8
	c-2.4,110.5-2.4,221,0,331.3c1.9,84,4.9,168.2,14.8,251.6c11,92.9,50.4,174.8,117.7,241.8c83.3,83,187.4,119,301.8,125.1
	c117.5,6.3,235.3,6.9,353,10c1.1,0,2-0.8,2-1.9s0.8-1.9,1.9-1.9c74.5,0,149.1,2.2,223.4-0.6c71-2.5,142.8-5.2,212.9-16.9
	c180.8-30.1,318.1-175,339.3-356.7c9.6-82.7,13-166.4,14.3-249.7C1872.8,1116.3,1872.3,988.3,1869.5,859.6z M1724.5,1399.4
	c-1.6,56.2-9.7,111.7-34.4,163.2c-44.3,92.1-121,140.3-219.5,152.9c-63.3,8-127.6,10.7-191.5,11.3c-145.3,1.6-290.6,2-435.9-0.6
	c-62.5-1.3-126-5.5-186.9-18c-120.2-24.6-200-116.3-213.2-238.9c-6.8-63.6-10.4-127.6-11-191.5c-1.6-144.5-2-289.2,0.6-433.8
	c1.1-63.1,5.3-127.1,18.1-188.6c24.7-119.9,116.4-199.5,239.4-212.5c64.7-6.9,130.1-10.4,195.3-11c143-1.6,285.9-2,428.7,0.6
	c63.8,1.3,128.5,5.2,190.6,18.2c117,24.6,187.7,101.7,208,218.1c12.1,69.2,13,140.6,15.6,211.1c2.4,66.4,0.5,132.9,0.5,199.5
	c0.6,0,1.4,0,1.7-0.2C1728.6,1186,1727.5,1292.7,1724.5,1399.4z"/>
</svg>
