<?xml version="1.0" encoding="UTF-8"?>
<svg id="Layer_1" xmlns="http://www.w3.org/2000/svg" xmlns:xlink="http://www.w3.org/1999/xlink" version="1.1" viewBox="0 0 1600 1600">
  <!-- Generator: Adobe Illustrator 29.2.1, SVG Export Plug-In . SVG Version: 2.1.0 Build 116)  -->
  <defs>
    <style>
      .st0 {
        fill: #1c1c1c;
        stroke: #1c1c1c;
        stroke-miterlimit: 10;
      }

      .st1 {
        fill: #121212;
      }
    </style>
  </defs>
  <g>
    <path class="st1" d="M803.2,536.5c43,0,83.8,10.7,120,29.8-36.1-19-76.9-29.7-119.8-29.6-148.8.5-266,115.8-266,262.7s107.2,253.2,241.9,264.1c-134.8-10.8-242-124.4-242-264.3,0-146.9,117.3-262.4,265.9-262.7h0Z"/>
    <path class="st1" d="M923.2,566.3c2.6,1.3,5.1,2.7,7.6,4.2-2.5-1.5-5-2.9-7.6-4.2Z"/>
    <path class="st1" d="M1027.7,665.3c1.8,3,3.6,6.1,5.3,9.3-1.7-3.2-3.4-6.3-5.3-9.3Z"/>
    <path class="st1" d="M1059.7,746.3c.6,2.8,1.2,5.7,1.7,8.6-.5-2.9-1.1-5.7-1.7-8.6Z"/>
  </g>
  <path class="st0" d="M802.4,394.3c-223.4-.2-407.5,182.7-407.7,404.8-.2,223.3,182.7,407.1,405.1,407.3,223.2.2,407.5-182.7,407.5-404.8.4-223.2-182.4-406.9-404.9-407.3h0ZM1065.4,804c-1.9,142.7-121.6,262.7-269.3,260.4-2.2,0-4.4,0-6.7-.2-1.1,0-2.2,0-3.3-.2-2,0-4-.2-6-.4h-.9c-134.7-10.9-241.9-124.4-241.9-264.1s117.2-262.2,266-262.7c42.9,0,83.7,10.6,119.8,29.6,2.6,1.3,5.1,2.7,7.6,4.2,1.3.7,2.5,1.4,3.8,2.2,1.2.7,2.5,1.5,3.7,2.2h.2c1.3.8,2.6,1.6,3.9,2.5,1.3.8,2.6,1.7,3.9,2.5,1.8,1.2,3.6,2.4,5.4,3.7.9.6,1.7,1.2,2.6,1.8,1.7,1.2,3.4,2.5,5.1,3.8.8.6,1.7,1.3,2.5,1.9.8.6,1.6,1.2,2.4,1.9.7.5,1.3,1,1.9,1.6,4.7,3.8,9.2,7.7,13.6,11.8.9.8,1.8,1.7,2.7,2.5.8.7,1.5,1.4,2.2,2.2,3.9,3.8,7.7,7.7,11.3,11.7.8.9,1.7,1.9,2.5,2.8.4.5.9,1,1.3,1.5,1,1.1,1.9,2.2,2.8,3.3,1.4,1.6,2.7,3.2,4,4.9,1,1.3,2,2.5,3,3.8,0,0,0,0,.2.2,1.9,2.5,3.8,5,5.6,7.6.9,1.2,1.7,2.4,2.6,3.6,0,.2.3.4.4.6.8,1.2,1.7,2.4,2.5,3.7.6.8,1.1,1.7,1.7,2.6.6.9,1.1,1.7,1.7,2.6.5.9,1.1,1.7,1.6,2.6.5.9,1.1,1.7,1.6,2.6,1.8,3,3.6,6.1,5.3,9.3,0,.2.2.3.3.5.8,1.4,1.5,2.9,2.3,4.3.7,1.4,1.4,2.8,2.2,4.2,1,2,2,4.1,3,6.2.8,1.8,1.7,3.6,2.5,5.5.6,1.3,1.2,2.7,1.7,4.1.5,1.2,1,2.4,1.5,3.6.3.8.7,1.7,1,2.5.5,1.4,1.1,2.7,1.6,4.1.4,1.1.8,2.1,1.2,3.2.6,1.6,1.1,3.2,1.7,4.8.5,1.6,1.1,3.2,1.6,4.9,1.5,4.7,2.8,9.4,4,14.2.4,1.6.8,3.2,1.2,4.8.4,1.6.7,3.2,1.1,4.9.6,2.8,1.2,5.7,1.7,8.6.2.8.3,1.7.4,2.5.2,1.2.4,2.5.6,3.8.3,1.8.5,3.5.8,5.3.2,1.3.3,2.7.5,4.1,0,1.1.3,2.2.4,3.3.2,1.9.4,3.9.5,5.8,0,1.3.2,2.5.3,3.8,0,2,.2,4.1.3,6.1v10.6c0,1.1,0,2.4,0,3.7h.2Z"/>
  <path class="st0" d="M1318.1,379.3c-.5,51.5-43.7,93.9-94.9,93.5-52.5-.5-95.2-44.1-94.1-96.2,1.1-51.6,44-92.9,95.8-92.6,51.3.5,93.6,43.5,93.2,95.3Z"/>
  <path class="st0" d="M1596.2,576.2c-1.7-72.9-5.1-146.7-17.2-218.5-31.2-184.6-175-321-361.6-343.2C1133.2,4.5,1048,1.4,963.2,0c-130.1-2-260.2-1.6-390.3,1.4-71.9,1.6-144.4,5.3-215,17.1C174.7,49.5,36.9,194.8,15.2,379,5.5,461.9,2.4,545.7.6,629.2c-2.4,111.6-2.4,223.2,0,334.6,1.9,84.8,4.9,169.9,14.9,254.1,11.1,93.8,50.9,176.6,118.9,244.2,84.1,83.8,189.3,120.2,304.8,126.4,118.7,6.4,237.7,7,356.5,10.1,1.1,0,2-.8,2-1.9s.8-1.9,1.9-1.9c75.2,0,150.6,2.2,225.6-.6,71.7-2.5,144.2-5.3,215-17.1,182.6-30.4,321.3-176.8,342.7-360.3,9.7-83.5,13.1-168.1,14.4-252.2,2-129.2,1.5-258.5-1.3-388.5ZM1449.8,1121.4c-1.6,56.8-9.8,112.8-34.7,164.8-44.7,93-122.2,141.7-221.7,154.4-63.9,8.1-128.9,10.8-193.4,11.4-146.8,1.6-293.5,2-440.3-.6-63.1-1.3-127.3-5.6-188.8-18.2-121.4-24.8-202-117.5-215.3-241.3-6.9-64.2-10.5-128.9-11.1-193.4-1.6-145.9-2-292.1.6-438.2,1.1-63.7,5.4-128.4,18.3-190.5,24.9-121.1,117.6-201.5,241.8-214.6,65.3-7,131.4-10.5,197.3-11.1,144.4-1.6,288.8-2,433,.6,64.4,1.3,129.8,5.3,192.5,18.4,118.2,24.8,189.6,102.7,210.1,220.3,12.2,69.9,13.1,142,15.8,213.2,2.4,67.1.5,134.2.5,201.5.6,0,1.4,0,1.7-.2-2,107.9-3.1,215.6-6.2,323.4h0Z"/>
</svg>