<?xml version="1.0" encoding="utf-8"?>
<!-- Generator: Adobe Illustrator 26.3.1, SVG Export Plug-In . SVG Version: 6.00 Build 0)  -->
<svg version="1.1" id="Layer_1" xmlns="http://www.w3.org/2000/svg" xmlns:xlink="http://www.w3.org/1999/xlink" x="0px" y="0px"
	 viewBox="0 0 1243.7 617.7" style="enable-background:new 0 0 1243.7 617.7;" xml:space="preserve">
<g>
	<path d="M251.4,309.3c31.4-53.7,52.1-90.1,82.7-146.4h281.2l-144,160.4C528.4,425,577.2,512.7,626,604.5H331.6
		C320,559.8,302.7,497,291.9,463.1l-40.5,43v98.4H0V0h251.4V309.3z"/>
	<path d="M934.4,468.9c5.8,19.8,23.2,28.1,40.5,28.1c19,0,31.4-5.8,31.4-18.2c0-14.9-18.2-20.7-63.7-26.5
		c-191-24.8-215.8-86.8-215.8-150.5c0-77.7,65.3-150.5,240.6-150.5c196.8,0,255.5,78.6,263.8,145.5h-202.6
		c-2.5-16.5-15.7-28.1-42.2-28.1c-25.6,0-32.2,7.4-32.2,18.2c0,12.4,21.5,16.5,68.6,23.2c177.8,24.8,220.8,79.4,220.8,149.7
		c0,75.2-47.1,156.3-258,156.3c-174.5,0-253.9-65.3-267.9-147.2L934.4,468.9L934.4,468.9z"/>
</g>
</svg>
