<?xml version="1.0" encoding="utf-8"?>
<!-- Generator: Adobe Illustrator 28.2.0, SVG Export Plug-In . SVG Version: 6.00 Build 0)  -->
<svg version="1.1" id="Layer_1" xmlns="http://www.w3.org/2000/svg" xmlns:xlink="http://www.w3.org/1999/xlink" x="0px" y="0px"
	 viewBox="0 0 2000 617.7" style="enable-background:new 0 0 2000 617.7;" xml:space="preserve">
<style type="text/css">
	.st0{fill:#111111;}
</style>
<g>
	<path class="st0" d="M271.8,310.1c30.7-52.5,50.8-88,80.7-142.9H627L486.5,323.8c55.7,99.3,103.3,184.9,151,274.5H350.1
		c-11.3-43.6-28.2-105-38.7-138.1l-39.5,42v96.1H26.4V8.2h245.4V310.1z"/>
	<path class="st0" d="M1267.3,442.5c0,75.1,4,149.4,5.6,155.8h-221.2c-2.4-13.7-4.9-30.7-6.4-41.2c-32.3,36.3-79.2,52.5-149.4,52.5
		c-96.1,0-165.5-49.3-165.5-137.3c0-99.3,83.9-146.9,247.9-146.9c33.1,0,42.7,0,60.6,0.8v-18.6c0-24.2-6.4-38.7-37.1-38.7
		c-26.7,0-33.9,16.2-36.3,33.1H753.8c1.7-54.1,37.1-146.1,251.9-146.1c222,0,261.6,88.8,261.6,160.6L1267.3,442.5L1267.3,442.5z
		 M1038.7,415.8c-5.6,0-14.5-0.8-31.4-0.8c-31.4,0-48.5,12.1-48.5,35.5c0,19.4,12.9,30.7,33.1,30.7c28.2,0,46.8-11.3,46.8-58.1
		V415.8z"/>
	<path class="st0" d="M1654.7,428c0,38,12.9,62.1,43.6,62.1c29.1,0,38-12.9,44.4-27.5h227.6c-21,63-68.6,146.9-274.5,146.9
		c-222.9,0-284.2-115.5-284.2-229.3c0-117,75.8-224.4,283.3-224.4c208.3,0,278.5,120.2,278.5,227.6v44.4L1654.7,428L1654.7,428z
		 M1743.5,328.7c0-37.1-11.3-59.8-43.6-59.8c-30.7,0-45.2,18.6-45.2,59.8H1743.5z"/>
</g>
</svg>
