<?xml version="1.0" encoding="utf-8"?>
<!-- Generator: Adobe Illustrator 19.1.0, SVG Export Plug-In . SVG Version: 6.00 Build 0)  -->
<!DOCTYPE svg PUBLIC "-//W3C//DTD SVG 1.1//EN" "http://www.w3.org/Graphics/SVG/1.1/DTD/svg11.dtd">
<svg version="1.1" id="Layer_1" xmlns="http://www.w3.org/2000/svg" xmlns:xlink="http://www.w3.org/1999/xlink" x="0px" y="0px"
	 viewBox="-282 129 226 103" style="enable-background:new -282 129 226 103;" xml:space="preserve">
<g>
	<g id="wordmark01_2_">
		<g>
			<path d="M-213.4,199.5L-213.4,199.5c0.3,0.1,0.7,0.3,1,0.4C-212.8,199.6-213.1,199.5-213.4,199.5z M-219.9,195.3
				c0,0.1-0.1,0.2-0.1,0.3C-220.1,195.5-219.9,195.4-219.9,195.3L-219.9,195.3z M-221.4,196.2L-221.4,196.2c0.3,0.1,0.6,0.2,0.9,0.3
				C-220.9,196.4-221.1,196.3-221.4,196.2z M-224.4,195.4L-224.4,195.4c0.5,0.1,0.9,0.2,1.3,0.3
				C-223.6,195.5-223.9,195.5-224.4,195.4z M-227.6,194.2h0.1l0,0H-227.6z M-227.6,194.6L-227.6,194.6c0.1,0,0.1,0,0.2,0l0,0
				C-227.6,194.6-227.6,194.6-227.6,194.6z M-227.8,173.4c-0.2,0.2-0.3,0.5-0.5,0.7C-228.2,173.8-228.1,173.5-227.8,173.4
				L-227.8,173.4z M-230.1,192.5h0.2l0,0H-230.1z M-230.8,178L-230.8,178l0.1,0.2l0,0C-230.6,178.2-230.6,178.2-230.8,178z
				 M-231.6,192.5c0,0.1,0,0.1,0,0.2C-231.6,192.5-231.6,192.5-231.6,192.5L-231.6,192.5z M-232.6,194.6
				C-232.4,194.6-232.4,194.6-232.6,194.6L-232.6,194.6C-232.4,194.6-232.4,194.6-232.6,194.6z M-232.8,194.4c0.1,0,0.2,0,0.2,0l0,0
				C-232.6,194.5-232.6,194.4-232.8,194.4z M-232.9,180.3l0.2,0.2l0,0C-232.8,180.4-232.8,180.4-232.9,180.3z M-233.1,194.4
				c0,0.1,0,0.2-0.1,0.3C-233.2,194.5-233.1,194.4-233.1,194.4L-233.1,194.4z M-233.8,181.5L-233.8,181.5c0.2-0.2,0.4-0.3,0.5-0.5
				C-233.3,181.2-233.6,181.4-233.8,181.5z M-235.9,182L-235.9,182c0-0.1,0.1-0.1,0.1-0.2C-235.9,182-235.9,182-235.9,182z
				 M-236.6,192L-236.6,192c0.2-0.1,0.4-0.2,0.6-0.3l0,0C-236.2,192-236.4,192-236.6,192z M-236.8,194.6c0,0.1,0,0.2,0,0.3
				C-236.8,194.9-236.8,194.8-236.8,194.6L-236.8,194.6z M-237.1,194.9C-237.1,194.9-237.1,195-237.1,194.9L-237.1,194.9
				C-237.1,195-237.1,194.9-237.1,194.9z M-238.6,184.6c0.3-0.3,0.6-0.5,0.9-0.8l0,0C-238.1,184.2-238.4,184.4-238.6,184.6z
				 M-240.4,186.8L-240.4,186.8L-240.4,186.8L-240.4,186.8z M-243,189.6L-243,189.6c0.2-0.2,0.5-0.4,0.7-0.7
				C-242.4,189.3-242.6,189.5-243,189.6z M-245.3,181.4L-245.3,181.4c0-0.1,0.1-0.2,0.1-0.3C-245.3,181.2-245.3,181.3-245.3,181.4z
				 M-254,206.2L-254,206.2L-254,206.2L-254,206.2z M-254,202c0.1,0,0.1,0.1,0.2,0.1l0,0C-254,202-254,202-254,202z M-254.4,202.8
				L-254.4,202.8L-254.4,202.8c0.1-0.1,0.2-0.2,0.2-0.4C-254.2,202.5-254.3,202.6-254.4,202.8z M-254.6,202.5L-254.6,202.5
				L-254.6,202.5c0,0,0.1,0.1,0.2,0.1C-254.5,202.6-254.6,202.5-254.6,202.5z M-255.7,212L-255.7,212c0.1-0.5,0.3-1.1,0.4-1.7
				C-255.4,211-255.6,211.5-255.7,212z"/>
			<path d="M-167.3,165.2h-0.5c0-0.2,0-0.4-0.1-0.5h-1.9c0.2-0.4,0.4-0.7,0.7-1c-0.8-0.1-1.5-0.2-2.2-0.3l-0.1,0.2
				c-0.4,0.1-0.8,0.1-1.2,0.2c-1.2,0.4-2.3,0.9-3.5,1.4c-1,0.4-1.9,0.8-2.9,1.2c-1.3,0.5-2.6,0.9-3.9,1.3c-2.2,0.8-4.3,1.6-6.5,2.4
				c-1.6,0.6-3.3,1.1-4.6,2c-1.4,0.9-3,1.7-4.2,3.1c-1,1.1-1.8,2.1-1.4,3.7c0.1,0.3,0,0.6-0.1,0.7c0.4,1,1,1.6,2,1.4
				c0.9-0.2,1.9-0.3,2.4-1.3c0.1-0.3,0.4-0.5,0.7-0.7c1.3-1,2.6-1.9,4-2.6c1-0.4,1.8-1.1,2.8-1.6c0.1-0.1,0.3-0.1,0.5-0.2
				c0.9-0.3,1.7-0.5,2.6-0.9c0.2-0.1,0.4-0.4,0.5-0.5c0.7,0,1.3-0.1,1.9-0.1c0.1,0.1,0.1,0.2,0.1,0.3c-0.8,2.6-1.6,5.1-2.5,7.7
				c-0.1,0.3-0.5,0.6-0.8,0.7c-3.1,0.9-6.4,1.3-9.7,1.3c-0.4,0-0.9-0.3-1.3-0.2c-1.8,0.5-3.3,0-4.5-0.7c-0.5-1.1-0.8-1.9-1.2-2.8
				c0.1-0.3,0.2-0.7,0.2-1.2c-0.1-2.1,0.1-4.1,0.4-6.2c0.1-0.9-0.6-1.6-1.5-1.5c-0.2,0-0.5,0-0.7,0.1c-1.3-0.9-2.3-0.8-2.8,0.2
				c-0.8,1.9-2.3,3.4-3,5.4c-0.1,0.2-0.2,0.3-0.3,0.5c-0.5,0.7-1.1,1.3-1.6,2c-0.9,1.4-1.7,2.9-2.5,4.4c-0.4,0.7-0.9,1.3-1.8,1.4
				c-1.5,0.2-2.9,0.4-4.4,0.5c-1.5,0.2-3.2,0.2-4.3,1.6c0.2,0.9,0.5,1.8,0.7,2.8c-0.1,0.2-0.2,0.6-0.3,1.1c1.4,0.4,2.7,0.7,4.1,1.1
				c-0.1,0.7-0.2,1.4-0.3,2.2c-0.4-0.2-0.8-0.4-1.3-0.6c-0.2,0.2-0.4,0.4-0.7,0.6c-0.6-0.4-1.2-0.9-1.9-1.1
				c-0.8-0.2-1.6-0.2-2.6-0.4c-0.5-0.9-2.1,0.5-2.6-0.9c-0.4,0.1-0.7,0.2-1,0.3c-0.3-0.2-0.5-0.4-0.8-0.6c-1.7,0.6-3.4,0.1-5-0.3
				c-0.3,0.1-0.6,0.3-0.7,0.3c-0.8-0.2-1.4-0.4-2-0.5c-0.2,0-0.4,0.1-0.6,0.1c0-0.1,0-0.1,0-0.2c0.2,0,0.4,0,0.6,0
				c0.4-0.4,0.8-0.8,1.2-1.2c0.7-0.7,1.6-1,2.1-2c0.5-0.9,1.2-1.7,2-2.3c1.2-0.9,2.6-1.6,3.2-3.1c0.1-0.1,0.1-0.2,0.2-0.3
				c1.6-0.9,2.4-2.5,3.6-3.8c1-1.1,2-2.1,3-3.2c1-1.2,1.8-2.4,2.7-3.7c0.2-0.3,0.2-0.7,0.2-0.8c0.5-0.6,1-1,1.3-1.4
				c0.5-0.7,0.9-1.6,1.4-2.3c1-1.5,1.6-3,1.8-4.8c0.1-0.4,0.3-0.7,0.5-1.2c-0.1-0.7-0.3-1.5-0.5-2.1c-1.1-0.6-1.8-1.3-2.8-1.5
				c-1.2,0.2-1.9,0.6-3.4,1.8c0,0.3-0.1,0.6-0.1,1c-0.3-0.1-0.6-0.1-0.8-0.2c0,0-0.1,0.1-0.1,0.2c0.2,0.2,0.4,0.4,0.7,0.6
				c-0.4,0.3-0.6,0.5-0.9,0.7h-1.3c0.4,0.3,0.6,0.5,0.7,0.6c-0.6,0.7-1.1,1.3-1.6,2c-0.3,0.4-0.5,0.9-0.8,1.2
				c-0.8,0.7-0.8,0.7-0.4,1.8l0.1,0.1c1-0.4,2-0.8,3.1-1.2c0.1-0.3,0.2-0.6,0.3-1.1c0.6,0.4,0.4,0.7,0.2,1.1
				c-0.7,1.2-1.3,2.5-2.3,3.6c-2.2,2.5-3.9,5.5-6.5,7.7c-0.1,0.1-0.1,0.2-0.2,0.3c-2,2.3-4.1,4.6-6.1,6.9c-0.6,0.7-1.3,1.1-1.9,1.6
				c-1.2,1.1-2.2,2.5-3.3,3.8c-0.4,0.5-0.9,0.9-1.6,1.1c0-0.5-0.1-0.9-0.2-1.6c0.2-0.5,0.5-1.2,0.8-2c0.3-0.9,0.7-1.9,0.7-2.8
				c0-1,0.2-1.9,0.5-2.9c0.2-0.8,0.4-1.6-0.1-2.2c0.3-1.1,1-2.1,0.9-3.1c0-1.1,0.1-2.1,0.5-2.9c0.4-1,0.3-1.9,0.6-2.8
				c0.3-1.2-0.4-2-1-2.8c-0.3-0.3-0.7-0.5-1.1-0.8c-0.3,0-0.8,0.2-1.3,0.4c-1,0.6-1.9,1.3-2.2,2.5c-0.3,1.4-0.4,2.8-0.6,4.3
				s-0.5,3-0.8,4.4c-0.1,0.5-0.1,1-0.2,1.6s0.1,1.4-0.1,1.9c-0.4,0.8-0.6,1.5-0.7,2.3c0,0.6-0.1,1.3-0.3,1.9
				c-0.1,0.5-0.6,1.1-0.5,1.6c0.1,1.4-0.6,2.5-0.8,3.7c-1.1,0.7-2.4,0.6-3.6,0.8s-2.3,0.6-3.8,1c-0.8,0.8-0.9,0.8-1.8,0.2
				c-0.3,0.3-0.7,0.8-1,0.8c-1.4-0.1-2.4,0.9-3.5,1.4c-0.3,1.1,0.4,1.9,0.7,2.9c0.3,0,0.6,0,0.8-0.1c0.9-0.2,1.7-0.4,2.5-0.5
				c1.6-0.2,3.1-0.3,4.7-0.5c1.2-0.2,2.4-0.5,3.8-0.8c0,0.4,0.1,0.8-0.1,0.9c-0.4,0.6-0.9,1.1-1.4,1.6c-0.8,0.8-1.6,1.5-2.4,2.3
				c0.3,0,0.5,0.1,0.9,0.1c-0.1,0.7-0.6,0.9-1.1,0.9c-0.3,0.4-0.6,0.7-0.9,1.1l0,0l0,0c-0.1-0.1-0.1-0.1-0.2-0.2
				c0.2-0.5,0.6-0.8,1.1-0.9c0.1-0.3,0.2-0.6,0.2-1c-1.1,0.9-2.3,1.7-3.3,2.8c0.3,0.3,0.5,0.6,0.6,0.8c-0.3,0.3-0.7,0.5-1,0.9
				c-0.3,0.5-0.6,1-0.8,1.5h2.7c0.1-0.3,0.3-0.7,0.5-1.1c0.7-0.2,1.5-0.3,2.4-0.5c0,0.3,0.1,0.6,0,0.9c-0.5,1.7-0.9,3.3-1.4,5
				c-0.5,1.8-0.8,3.6-0.8,5.4c1.5,0.7,1.7,0.7,2.7,0c0.2,0.6,0.5,1.2,1.3,1.1c0.2-0.2,0.4-0.3,0.5-0.5c0.5-0.6,1-1.2,1.3-1.9
				c0.4-1.2,0.6-2.4,0.9-3.6c0.4-1.5,1-2.9,1.4-4.1c-0.1-0.7-0.2-1.2-0.3-1.7c0-0.5,0-1-0.1-1.7c0.3-0.3,0.6-0.8,1.1-1.4
				c-0.4,0.1-0.6,0.1-1,0.2c0.7-1.6,2.3-2.8,1.8-4.9c0.5-0.4,1-1,1.6-1.4c0.8-0.5,1.7-0.8,2.5-1.1c0.1-0.1,0.3,0,0.5,0h5.8
				c0.2,0,0.4,0,0.6,0.1c1.1,0.7,2.2,0.2,3.4,0.2c-0.9-0.2-1.7-0.4-2.6-0.6c0-0.1,0-0.2,0-0.2c1.4,0.1,2.8,0.2,4.2,0.3
				c1.1-0.5,2.1-0.5,2.2,0.1c-0.2,0-0.5,0.1-0.8,0.2c0.1,0.4,0.2,0.8,0.3,1.2c0.8,0,1.5,0.6,2.3,0.3c0-0.1,0-0.2,0.1-0.3
				c-0.6-0.2-1.2-0.4-1.8-0.6c0.1,0,0.3-0.1,0.4-0.1c0.6,0,1.1,0.1,1.8,0.2c-0.1-0.2-0.1-0.4-0.2-0.7c0.5,0,0.9,0.1,1.2,0.1
				c0.3,0.5,0.6,1.1,1,1.2c0.5,0.2,0.5,0.7,0.8,0.8c0.4,0.2,0.9,0.3,1.4,0.4c0.2-0.4,0.3-0.6,0.5-1.1c-0.6,0.2-1,0.3-1.3,0.4
				c-0.4-0.3-0.9-0.6-1.4-1c0.1-0.1,0.2-0.2,0.2-0.3c1.3,0.3,2.5,0.6,3.9,0.9v1c0.6,0,1.2-0.1,1.8-0.1c0.1,0.6,0.6,0.6,1.1,0.6l0,0
				c1.4-0.4,1.8-0.3,2.1,0.8c1.4,0.8,3.2,0.7,4.3,2.1c0.3,0,0.6,0,0.9-0.1c0.1,0.2,0.1,0.4,0.2,0.6c0.7-0.2,1,0.1,1.1,0.7
				c0.3,0,0.6-0.1,0.9-0.1c0.2,0.3,0.4,0.6,0.8,1c-0.5,0-0.8-0.1-1.1-0.1c0.7,0.6,1.5,1,2.5,1c-0.2-0.2-0.5-0.4-0.8-0.6
				c1.4-0.3,2.2,0.6,3.3,1.2c-0.6,0-0.9,0-1.2,0.1c1.6,1.1,3.3,1.7,5.2,2.2c0.2-0.4,0.3-0.6,0.4-0.8c0.8,0,1.6,0,2-1.1
				c0.3-0.8,0.7-1.5,0.2-2.5c-0.9-0.4-1.9-0.9-2.9-1.4c-0.4-0.2-0.8-0.6-1.2-0.8c-0.8-0.2-1.6-0.6-2.3-0.9c-0.8-0.3-1.5-0.7-2.2-1.2
				c-0.1-0.1-0.3-0.2-0.4-0.2c-1,0.1-1.7-0.5-2.3-1.1c-0.5,0.1-1,0.1-1.5,0.2c-1.4-1.4-3.3-1.6-4.9-2.3c0.5-0.7,0.8-1.3,1.2-1.9
				c0.5-0.8,1-1.5,1.5-2.3c0.1-0.2,0.3-0.2,0.5-0.3c0.2,0.2,0.4,0.4,0.5,0.7c0.2-0.2,0.3-0.4,0.4-0.5c0.5,0.2,1,0.3,1.4,0.5
				c0.8,0.4,1.5,0.8,2.3,1.2c0.4,0.2,0.8,0.4,1.2,0.7c0.1-0.1,0.1-0.1,0.2-0.2c0.4,0.6,0.7,1.1,1.2,1.8c0.5,0.3,1.2,0.7,1.8,1.1
				c-0.1,0.4-0.1,0.6-0.2,1.1c1.4,0.4,2.3,1.7,3.8,1.7c0.8-0.5,0.1-1.3,0.4-1.9c0.3,0.1,0.6,0.2,0.9,0.2c0.1-0.4,0.3-0.8,0.4-1.2
				c-0.1-0.1-0.2-0.1-0.3-0.2c-0.6-0.4-0.2-1-0.1-1.3c-0.4-1.5-1.3-2.6-1.2-4c0-0.3-0.3-0.7-0.5-1c-0.1-0.2-0.3-0.5-0.4-0.7
				c1.1-0.2,2.1-0.6,3.1-0.5c0.9,0.1,1.7,0,2.5,0c1.4-0.1,2.8-0.1,4-1c0.6-0.5,1.3-0.3,1.9,0.4c0.6-0.3,1.1-0.6,1.6-0.9
				c0,0,0-0.1-0.1-0.1c0.4,0,0.8-0.1,1.3-0.1c-0.1,0.6-0.2,1.1-0.4,1.7c-0.5,1.7-0.8,3.4-1.4,5c-0.5,1.3-0.9,2.7-1.1,4.1
				c-0.2,1.5,0.1,2.7,1.3,3.6c0.5,0.4,1.1,0.6,1.7,0.9c0.6-0.5,1.1-1,1.6-1.4c0.7-0.5,1-1.1,1.2-1.9c0.2-0.7,0-1.4,0-2
				c0.1-1,0.5-1.9,0.8-2.8c0.2-0.6,0.4-1.2,0.5-1.8c0.3-1.3,0.5-2.5,0.8-3.8c0-0.1,0.1-0.3,0.1-0.3c0.6-0.6,0.6-1.4,0.6-2.2
				c0.1-0.6,0.1-1.5,0.5-1.8c0.8-0.6,0.5-1.1,0.3-1.8c0.2-0.3,0.6-0.6,0.6-0.9c0.2-1.7,1-3.1,1.5-4.7c0.5-1.7,1.2-3.4,1.9-5.1
				c0.4-1,1.2-1.4,2.1-1.8c0.8-0.3,1.6-0.6,2.3-1.1c0.8-0.5,1.6-0.9,2.2-1.7c0.4-0.6,1.1-0.9,1.7-1.3
				C-167.2,165.4-167.3,165.3-167.3,165.2z M-234.8,183.3L-234.8,183.3c-0.1,0.1-0.1,0.1-0.1,0.1s0,0-0.1,0s-0.2,0-0.3,0
				c0-0.6,0.3-0.9,0.8-1C-234.4,182.8-234.4,183-234.8,183.3z M-232.6,180.5c-0.2,0.2-0.4,0.4-0.5,0.5c-0.2,0.2-0.3,0.4-0.5,0.5l0,0
				c-0.1-0.1-0.1-0.1-0.2-0.2c0.3-0.4,0.7-0.7,1-1.1l0,0C-232.8,180.4-232.8,180.4-232.6,180.5L-232.6,180.5z M-230.3,178
				c-0.1,0.1-0.1,0.2-0.2,0.3l0,0l-0.2-0.2l0,0c0.1,0,0.1-0.1,0.1-0.1c0.2-0.2,0.4-0.3,0.6-0.5C-230.1,177.6-230.2,177.8-230.3,178z
				 M-229.9,177.5c0.1-0.1,0.2-0.2,0.3-0.4c0,0,0.1,0,0.1,0.1C-229.6,177.3-229.8,177.4-229.9,177.5z M-228.1,177.8
				c-0.3,0-0.6,0.1-1,0.1c0-0.1,0-0.2,0-0.2c0.3,0,0.7-0.1,1-0.1C-228.1,177.5-228.1,177.6-228.1,177.8L-228.1,177.8z M-235.8,181.9
				c0.1-0.2,0.2-0.4,0.3-0.6c1.5-1.7,3-3.3,4.5-5c0.1-0.1,0.2-0.2,0.3-0.2c0.1-0.1,0.3-0.1,0.4-0.2c0.1-0.3,0.3-0.6,0.4-0.8
				c0.2-0.2,0.3-0.5,0.5-0.7c0.4-0.4,0.9-0.8,1.4-1.1l0,0c-0.2,0.2-0.4,0.5-0.5,0.7c-0.2,0.2-0.4,0.5-0.6,0.7
				c-0.4,0.4-0.8,0.9-1.3,1.2c-1.8,2.1-3.7,4.2-5.5,6.3c-0.1,0-0.1-0.1-0.2-0.1l0,0C-235.9,182-235.9,182-235.8,181.9z
				 M-236.6,182.5L-236.6,182.5c0.1,0.1,0.2,0.2,0.2,0.2c0,0.1,0,0.2-0.1,0.3c0,0.1,0,0.2-0.1,0.2c-0.1,0.2-0.4,0.3-0.9,0.2
				C-237.1,183-236.9,182.8-236.6,182.5z M-245.2,181l0.5,0.2c0,0.1,0,0.1-0.1,0.2c-0.2,0-0.4-0.1-0.6-0.1l0,0
				C-245.3,181.3-245.3,181.2-245.2,181z M-255.3,212c-0.1,0-0.2,0-0.4-0.1l0,0c0.1-0.5,0.3-1.1,0.4-1.7c0.1,0,0.2,0,0.2,0
				C-255.2,211-255.2,211.5-255.3,212z M-254.7,209c0,0.1-0.1,0.2-0.1,0.4l0,0c0,0-0.1,0-0.2,0c0-0.2,0.1-0.5,0.1-0.7l0,0h0.1
				c0.1,0,0.1,0,0.1,0l0,0C-254.6,208.6-254.6,208.8-254.7,209z M-254.3,202.8L-254.3,202.8C-254.3,202.8-254.4,202.8-254.3,202.8
				L-254.3,202.8c-0.2-0.1-0.2-0.2-0.3-0.2l0,0c0.2-0.2,0.4-0.4,0.5-0.6l0,0l0,0c0,0,0.1,0.1,0.2,0.1l0,0c-0.1,0.1-0.1,0.2-0.2,0.3
				S-254.3,202.6-254.3,202.8z M-253.8,206.2L-253.8,206.2C-253.8,206.2-254,206.2-253.8,206.2c-0.1-0.1-0.1-0.1-0.2-0.1l0,0
				c0.1-0.3,0.2-0.7,0.4-1c0.1,0.1,0.2,0.1,0.3,0.2C-253.6,205.5-253.7,205.9-253.8,206.2z M-253.1,199c-0.1,0.1-0.2,0.2-0.3,0.4
				c-0.1,0-0.1-0.1-0.2-0.1c0.1-0.1,0.2-0.2,0.3-0.4C-253.2,198.9-253.1,198.9-253.1,199L-253.1,199z M-238.6,184.6
				c0.3-0.3,0.6-0.5,0.9-0.8l0,0c-0.1,0.3-0.2,0.6-0.3,0.8c0,0.1-0.1,0.1-0.1,0.2c-0.2,0.2-0.3,0.4-0.6,0.5h-0.1
				c-0.2,0.1-0.3,0.1-0.6,0.2C-239.1,185.2-238.9,185-238.6,184.6z M-240.7,186.5c0.1-0.1,0.2-0.2,0.4-0.3c0.1-0.1,0.2-0.2,0.4-0.3
				c0,0.1,0,0.2,0,0.4c0,0.1,0,0.1,0,0.2c0,0,0,0,0,0.1s0,0.1-0.1,0.1l-0.1,0.1l0,0h-0.1h-0.1l0,0l0,0h-0.1l0,0
				C-240.5,186.6-240.6,186.6-240.7,186.5L-240.7,186.5z M-243,189.6L-243,189.6c-0.1-0.1-0.2-0.2-0.2-0.2l0,0
				c0.3-0.2,0.5-0.4,0.8-0.6c0,0.1,0.1,0.1,0.2,0.2C-242.4,189.3-242.6,189.5-243,189.6z M-239.4,195L-239.4,195
				c-0.2,0.1-0.3,0.1-0.5,0.1c-0.5-0.1-0.9-0.2-1.5-0.3c0.3-0.3,0.6-0.5,0.7-0.6c0.4,0.1,0.6,0.2,0.9,0.3c0.1,0,0.2,0.1,0.2,0.2
				C-239.5,194.8-239.5,194.9-239.4,195L-239.4,195C-239.4,194.9-239.4,195-239.4,195z M-236.9,195h-0.2v-0.1c0,0,0,0,0-0.1
				c0,0,0-0.1,0-0.2h0.3C-236.8,194.8-236.8,194.9-236.9,195z M-236.3,192.9c-0.1,0-0.1,0.1-0.1,0.1l0,0c-0.1,0-0.1,0.1-0.1,0.1l0,0
				c0,0,0,0-0.1,0c-0.3-0.1-0.6-0.1-0.8-0.4c0.2,0,0.4,0,0.6,0.1C-236.8,192.8-236.6,192.8-236.3,192.9L-236.3,192.9z M-236.1,191.9
				c-0.2,0.1-0.4,0.2-0.6,0.3l0,0c0-0.1-0.1-0.1-0.1-0.2l0,0c0.2-0.1,0.4-0.1,0.6-0.2C-236.1,191.8-236.1,191.8-236.1,191.9
				L-236.1,191.9z M-232.4,194.6L-232.4,194.6c-0.2,0.1-0.2,0.1-0.3,0.2h-0.1c-0.1,0-0.2-0.2-0.4-0.2c0-0.1,0.1-0.2,0.1-0.3l0,0
				c0.1,0,0.3,0,0.4,0.1c0.1,0,0.2,0,0.2,0l0,0C-232.4,194.5-232.4,194.5-232.4,194.6L-232.4,194.6z M-231.6,192.6
				c-0.4-0.1-0.7-0.2-1.1-0.3c0-0.1,0-0.1,0-0.2l0,0c0.2,0,0.4,0.1,0.5,0.1c0.2,0,0.4,0.1,0.5,0.1l0,0
				C-231.6,192.5-231.6,192.5-231.6,192.6z M-229.9,192.5c-0.2,0.1-0.3,0.2-0.5,0.4l-0.2,0.1l0,0c0-0.1,0-0.2,0.1-0.3v-0.1l0.1-0.1
				c0.1,0,0.2-0.1,0.3-0.1C-230.1,192.5-229.9,192.5-229.9,192.5L-229.9,192.5z M-227.4,194.2c0,0.2,0,0.4,0,0.5l0,0l0,0
				c-0.1,0-0.1,0-0.2,0l0,0c0-0.2,0-0.4,0-0.5l0,0H-227.4L-227.4,194.2L-227.4,194.2z M-223.2,195.9L-223.2,195.9
				c-0.4-0.1-0.8-0.2-1.3-0.3l0,0c0-0.1,0-0.1,0-0.2l0,0c0.5,0.1,0.9,0.2,1.3,0.3C-223.1,195.8-223.1,195.8-223.2,195.9z
				 M-220.6,196.5c-0.3-0.1-0.6-0.1-0.9-0.2c0-0.1,0-0.1,0-0.2l0,0C-221.2,196.3-220.9,196.4-220.6,196.5L-220.6,196.5z
				 M-220.1,195.5c-1.4-0.4-2.8-0.9-4.1-1.3c0-0.1,0.1-0.2,0.1-0.3c0.4,0,0.7,0.1,1.1,0.2c0.3,0.1,0.5,0.1,0.8,0.2
				c0.1,0,0.3,0.1,0.4,0.1c0.3,0.1,0.5,0.2,0.8,0.3c0.4,0.1,0.7,0.3,1.1,0.4l0,0C-219.9,195.4-220.1,195.5-220.1,195.5z
				 M-213.4,199.5c0-0.1,0.1-0.2,0.1-0.2l0,0c0.2,0.1,0.3,0.1,0.5,0.2c0.2,0.1,0.3,0.1,0.5,0.2l0,0v0.1c0,0,0,0.1-0.1,0.2
				C-212.8,199.8-213.1,199.5-213.4,199.5L-213.4,199.5z M-207.1,180.8c0,0,0.1,0,0.2,0h0.1l0,0c0.1,0.6,0.2,1.2,0.3,1.8
				c0,0.2,0.1,0.4,0.1,0.6h-2C-207.9,182.4-207.6,181.5-207.1,180.8z M-204.8,193c0,0.1-0.1,0.1-0.1,0.2c-0.2-0.1-0.4-0.1-0.6-0.2
				h-0.1c-0.2,0-0.3-0.1-0.5-0.2c-0.1,0-0.2-0.1-0.3-0.1c-0.1,0-0.2-0.1-0.2-0.1s0,0-0.1,0c-0.2-0.1-0.4-0.2-0.6-0.3
				s-0.4-0.2-0.6-0.4c-0.3-0.2-0.6-0.3-0.8-0.5c-0.5-0.3-1-0.6-1.4-1c-0.2-0.2-0.5-0.3-0.7-0.5l0,0l0,0c0.4,0,0.8-0.1,1.2-0.1
				s0.8-0.1,1.2-0.1c0.8-0.1,1.6-0.2,2.5-0.3c0.5,1.2,1,2.4,1.4,3.5l0,0C-204.6,192.9-204.8,193-204.8,193z"/>
			<path d="M-123.8,200.9L-123.8,200.9c0.1,0,0.1,0,0.2-0.1L-123.8,200.9z M-126.9,197.2c0,0.1,0.1,0.1,0.1,0.2l0,0
				C-126.9,197.3-126.9,197.3-126.9,197.2z M-130.9,196c0.1-0.1,0.2-0.2,0.4-0.3l0,0C-130.8,195.8-130.8,195.9-130.9,196z
				 M-131.2,194.6L-131.2,194.6c0,0,0.1,0,0.2,0.1C-131.1,194.6-131.2,194.6-131.2,194.6z M-131.2,194.5L-131.2,194.5L-131.2,194.5
				L-131.2,194.5z M-134.4,192.5L-134.4,192.5c0,0,0.1,0,0.2-0.1C-134.3,192.4-134.3,192.4-134.4,192.5z M-134.8,193.5
				c0.3,0.1,0.4,0,0.5,0S-134.4,193.5-134.8,193.5z M-135.6,192.2c-0.1,0-0.2,0-0.2,0.1L-135.6,192.2L-135.6,192.2z M-138.2,210.2
				L-138.2,210.2c0.2,0,0.5-0.1,0.7-0.2C-137.8,210-137.9,210.2-138.2,210.2z M-138.6,190.5c0.1,0.2,0.2,0.3,0.3,0.4l0,0
				C-138.3,190.9-138.4,190.8-138.6,190.5z M-138.8,212.2c0-0.1,0-0.2-0.1-0.2C-138.8,212-138.8,212-138.8,212.2c0.1,0,0.2,0,0.3,0
				C-138.6,212-138.8,212-138.8,212.2z M-139.9,187.9C-139.9,187.9-140.1,187.9-139.9,187.9C-140.1,187.9-139.9,187.9-139.9,187.9
				L-139.9,187.9z M-142.9,212.6c0,0.1,0.1,0.2,0.1,0.2l0,0C-142.8,212.8-142.9,212.8-142.9,212.6z M-143.2,212.9L-143.2,212.9
				c0,0.1,0,0.1,0.1,0.1L-143.2,212.9z M-144.9,211.2L-144.9,211.2L-144.9,211.2C-144.9,211.3-144.9,211.3-144.9,211.2z
				 M-144.9,211.2C-144.9,211.2-145.1,211.2-144.9,211.2C-145.1,211.2-144.9,211.2-144.9,211.2L-144.9,211.2z"/>
			<path d="M-76.8,186c0,0,0.1,0,0.2,0l0,0C-76.5,186-76.6,186-76.8,186z M-76.8,186.5L-76.8,186.5c0.1,0,0.2,0,0.3,0
				C-76.5,186.5-76.6,186.5-76.8,186.5z"/>
			<path d="M-120.2,151.3c0.1,0.1,0.1,0.2,0.2,0.3l0,0C-120.1,151.5-120.2,151.3-120.2,151.3z M-120.3,152.8L-120.3,152.8
				c0-0.2,0.1-0.4,0.1-0.6C-120.2,152.5-120.3,152.6-120.3,152.8z M-120.6,151c0.1,0.2,0.1,0.4,0.2,0.6l0,0
				C-120.4,151.5-120.6,151.3-120.6,151z M-123.4,146.5L-123.4,146.5L-123.4,146.5L-123.4,146.5z M-123.3,146L-123.3,146
				C-123.4,146-123.4,146-123.3,146c0,0.1,0,0.2,0,0.3C-123.3,146.3-123.3,146.2-123.3,146z M-123.6,146L-123.6,146
				c0,0.2,0.1,0.3,0.1,0.5C-123.6,146.3-123.6,146.3-123.6,146z M-123.8,160.3c0,0.1-0.1,0.1-0.1,0.2
				C-123.9,160.3-123.9,160.3-123.8,160.3L-123.8,160.3L-123.8,160.3z M-124.2,165L-124.2,165c0-0.1,0-0.2,0.1-0.3
				C-124.1,164.8-124.1,164.9-124.2,165z M-125.2,168.8c0,0.1-0.1,0.2-0.1,0.3l0,0l0,0C-125.3,169-125.2,168.9-125.2,168.8z"/>
			<path d="M-169.9,178.8c-0.6,2.4-1.1,4.7-1.1,7.2c0,0.1,0,0.2-0.1,0.4c-0.4,1.7-0.7,3.4-1.2,5.1c-0.1,0.5-0.5,0.9-0.8,1.5
				c0,0,0.2,0.2,0.3,0.4c-0.2,0.9-0.5,1.7-0.6,2.6c-0.2,1.4-0.2,2.8-0.4,4.2c-0.2,1.5-0.9,2.3-2.4,2.6c-0.4,0.1-0.9,0.4-1.3,0.3
				c-0.7-0.1-1.2-0.5-1.6-1.2c-1-1.9-0.4-3.7,0-5.5c0.6-2.7,1.5-5.3,1.5-8.1c0-0.2,0-0.5,0.1-0.7c0.7-1.7,1-3.5,1.2-5.3
				c0.2-1.9,0.6-3.8,1-5.7c0.2-0.8,0.6-1.6,1-2.4s0.9-1.3,1.9-0.9c0.2,0.1,0.5,0,0.8,0c0.3,0.8,1.1,0.7,1.8,1.1
				C-169.4,175.8-169.6,177.3-169.9,178.8z"/>
			<path d="M-145.1,155.3c-0.1,0.3-0.2,0.6-0.3,0.8c-0.4,0.7-0.8,1.3-1.2,2l0,0c-0.5,0.1-0.4,0.6-0.4,1c-0.1,0.1-0.1,0.3-0.2,0.4
				c0,0.1-0.1,0.3-0.1,0.4c-0.1,0.2-0.1,0.5-0.2,0.7h-0.1c-0.1,0-0.2,0-0.3,0l0,0l0,0c-0.1,0.1-0.2,0.3-0.3,0.5s-0.2,0.3-0.3,0.5
				h-0.4c0.1-0.4,0.3-0.8,0.3-1.2c0-0.2-0.1-0.4-0.2-0.9c0.9-1.3,1.9-2.8,3-4.2C-145.6,155.3-145.4,155.3-145.1,155.3z"/>
			<path d="M-148.4,161c-0.1,0.2-0.2,0.3-0.2,0.5l0,0C-148.6,161.3-148.4,161.3-148.4,161z"/>
			<path d="M-133.1,146.8c0,0.2,0.1,0.4,0.2,0.8c-0.2,0.1-0.3,0.2-0.5,0.3c-0.2-0.6-0.8-1.1-0.4-1.6c1.1-0.2,2.1-0.4,3-0.6
				C-131.3,146.2-131.6,146.3-133.1,146.8z"/>
			<path d="M-259.2,208c-0.7,0-1.2,0.9-2,0.3c0.1-0.5,0.1-1,0.2-1.6c0.1,0,0.2,0,0.3,0C-260.2,207.2-259.8,207.5-259.2,208z"/>
			<path d="M-148.9,158.2c-0.5,0.9-0.9,1.8-1.5,2.8C-150.6,159.6-150.4,159.3-148.9,158.2z"/>
			<path d="M-134.1,148.2c-0.5,0.4-0.9,0.6-1.2,0.9c0,0-0.1-0.1-0.2-0.1c0.1-0.2,0.2-0.4,0.2-0.6c-0.4,0.1-0.7,0.3-1.1,0.4
				c-0.1-0.3-0.2-0.6-0.4-1c0.2-0.1,0.4-0.1,0.6-0.2c0.4,0,0.7,0,1.1-0.1c-0.1-0.2-0.1-0.5-0.2-0.7c0.1-0.2,0.2-0.3,0.4-0.6
				c0.2,0.5,0.4,0.8,0.6,1.2c-0.2,0.1-0.4,0.1-0.6,0.2v0.1C-134.8,147.8-134.6,148-134.1,148.2z"/>
			<path d="M-141.6,152c-0.8,0.7-1.1,0.2-1.6-0.3c0.2-0.2,0.4-0.4,0.6-0.5s0.3-0.3,0.4-0.4l0.2,0.2c-0.2,0.1-0.4,0.2-0.5,0.3
				C-142.1,151.5-141.8,151.8-141.6,152z"/>
			<path d="M-75,177.4c-0.1,0.5-0.1,1.1-0.2,1.7c-0.4,0-0.6,0-0.8,0l0,0c0.3-0.6,0.6-1.1,0.8-1.7C-75.3,177.3-75.1,177.3-75,177.4z"
				/>
			<path d="M-128.3,145c-0.3,0.5-0.4,0.8-0.7,1.3c-0.3-0.4-0.4-0.6-0.6-1C-129.2,145.3-128.9,145.2-128.3,145z"/>
			<path d="M-127.1,144.3c-0.2,0-0.3,0.1-0.6,0.1c-0.1-0.4-0.2-0.7-0.3-1.2C-127.4,143.3-127.2,143.8-127.1,144.3z"/>
			<path d="M-218.4,199.5c-0.4-0.1-0.8-0.2-1.1-0.3C-218.9,198.9-218.8,199.2-218.4,199.5z"/>
			<path d="M-75.8,180.5c-0.1-0.4-0.2-1-0.3-1.6l0,0c-0.4,1.1-1.4,1.9-1.3,3.1c0,0.1-0.1,0.2-0.1,0.3c-0.5,0.6-0.5,1.4-0.5,2.1
				c0,0.5,0,1-0.2,1.5c-0.3,0.8-0.8,1.4-1.2,2.2c-0.8,1.6-1.5,3.1-2.2,4.7c0,0.1,0,0.2,0,0.4c-0.4,1.4-1,2.6-2,3.6
				c-0.4,0.3-0.8,0.6-1.3,0.1c0.1-1.6,0.2-3.2,0.2-4.7c-0.3-0.2-0.5-0.2-0.5-0.2c0-1.4,0.1-2.6,0-3.8c0-0.7-0.1-1.6-0.6-2
				c-0.6-0.6-0.7-1.2-0.8-1.8c0-0.2-0.2-0.3-0.3-0.7c-0.4,0.7-0.8,0.9-1.4,0.5c-0.2-0.5-0.4-0.9-1-0.5c-0.5,0.1-0.8,0.3-1,0.8
				c-0.1,0.2-0.2,0.5-0.3,0.7c-0.8,1.1-1.6,2.1-2.4,3.1c-0.3,0.4-0.7,0.8-1.2,1.4c1.2-3.7,2.2-7.1,3.3-10.5c0.7-0.2,1.3-0.3,1.9-0.5
				c0-0.1-0.1-0.2-0.1-0.2c0.4-0.3,0.7-0.6,1.1-1c0.6-0.4,1.2-0.9,1.8-1.3c0.1-0.1,0.3-0.2,0.4-0.4c0.5-0.4,1-0.8,1.5-1.2
				c0,0,0-0.1,0.1-0.2c-0.2,0-0.4,0-0.6,0v-0.7H-87c0.3-0.4,0.5-0.6,0.7-1c-0.8-0.1-1.5-0.2-2.3-0.4c0,0.1-0.1,0.2-0.1,0.2
				c-0.5,0.1-0.8,0.1-1.1,0.2c-0.8,0.3-1.6,0.7-2.4,1c-0.8,0.3-1.6,0.4-2.4,0.6c-0.9,0.2-1.8,0.6-2.6,0.6c-2.9,0.2-5.7,0.8-8.3,1.5
				c-0.4,0.8-0.8,1.4-1.1,2l-0.1,0.1c0,0.9-0.1,1.8-0.1,2.7c0.5,0.4,1,0.8,1.3,1.1c0.8,0,1.4,0,2,0c0.7,0,1.3,0,2-0.1
				c0.6-0.1,1.2-0.2,1.8-0.4c0.5-0.1,1.1-0.2,1.8-0.4c-0.6,1.7-1.2,3.2-1.7,4.7c-0.3,0.9-0.7,1.9-1.1,2.8c-0.5,1.2-1,2.3-1.5,3.5
				c-0.3,0.7-0.6,1.3-0.9,1.9c-0.2,0.5-0.4,1-0.7,1.5c-0.6,1.3-1.2,2.5-1.9,3.8c-0.6,1.1-0.6,2,0.4,2.8c-0.1,0.5-0.1,0.9-0.2,1.4
				c0.5-0.1,0.9-0.1,1.2-0.2c0.1,0.1,0.2,0.3,0.3,0.5c0.8-0.5,1.5-0.9,2.4-0.8c0.2,0,0.4-0.2,0.5-0.3c1.1-1.2,2.1-2.4,3.2-3.5
				c0.1-0.4,0.1-0.8,0.3-1.1c0.7-1.1,1.5-2.1,1.4-3.6c0-0.1,0.1-0.2,0.1-0.2c0.3-0.9,0.9-1.8,0.9-2.8c0-0.2,0.2-0.5,0.3-0.7
				c1-1.1,2-2.3,3-3.4c0.2-0.2,0.4-0.2,0.9-0.5c-0.3,0.8-0.5,1.4-0.8,2.1c0.4-0.1,0.7-0.1,1.1-0.2c0.1,1,0.4,1.8,0.4,2.7
				c0.1,1.5-0.1,3.1,0.1,4.6c0.1,1.5,0.2,3.1,0.9,4.6c-0.7,1.7,0.9,2.6,1.4,4c0.5,0,1,0.1,1.6,0.1c0.2,0.2,0.4,0.4,0.5,0.6
				c2-0.4,3.3-1.7,4.5-3c0.8-0.8,1.3-1.7,2-2.5c1.1-1.2,1.9-2.6,2.6-4.1c0.7-1.4,0.7-3.1,1.8-4.3c0.2-0.2,0.2-0.6,0.3-0.9
				c0.1-0.7,0.1-1.3,0.1-2c0.3-0.2,0.6-0.4,0.8-0.5c0.2-1,0.3-1.9,0.4-2.8C-72.8,183.4-73.6,181.6-75.8,180.5z M-76.8,186.5v-0.4
				c0,0,0.1,0,0.2,0l0,0c0,0.1,0.1,0.3,0.1,0.4C-76.5,186.5-76.6,186.5-76.8,186.5z"/>
			<path d="M-140.6,149.8c-0.2,0.2-0.3,0.5-0.5,0.7C-141.3,150-141.2,149.8-140.6,149.8z"/>
			<path d="M-220.3,198.6c0,0.1,0,0.2,0,0.3c-0.3-0.1-0.6-0.2-0.9-0.3c0-0.1,0.1-0.2,0.1-0.2C-220.9,198.5-220.6,198.5-220.3,198.6z
				"/>
			<path d="M-106.1,174.3c0.1-0.6-0.1-1.3-0.2-2c-1.1-0.6-1.9-2.2-3.6-1.9c-1.1,1.4-1.8,2.9-2.2,4.5c-0.5,2.2-1,4.4-1.5,6.5
				c-0.6,2.3-1.2,4.7-1.9,7c-0.3,1.2-0.5,2.4-1,3.6c-0.6,1.4-1.1,2.8-1.2,4.4c-0.1,0.7-0.4,1.3-0.6,2c-0.6-0.6-1.2-0.9-1.6-1.5
				c-0.5-0.8-1.4-1.1-2.2-1.6c-0.7-0.4-1.3-1.2-2-1.7c-0.1-0.1-0.4-0.1-0.6-0.1c-0.1,0-0.3,0-0.4,0c-1-0.6-2-1.3-3.1-1.9
				c-0.5-0.3-1-0.5-1.4-0.7l-0.1,0.1c-0.1-0.2-0.2-0.4-0.3-0.6c-0.2,0.1-0.5,0.1-0.7,0.2c-0.6-1-0.6-1-2.4-1.4
				c-0.5-0.5-0.9-1-1.3-1.5c-0.4,0.3-0.6,0.4-0.7,0.5c-0.5-0.6-0.9-1.2-1.3-1.7s-1-0.9-1.7-0.8c-0.4-1.4-0.7-1.4-1.8-1.5
				c-0.2-1-1.7-1.9-2.5-2.4c-0.5-0.7-0.9-1.2-1.3-1.7c-1.3-1.4-2.2-3.1-3-4.8c-0.9-1.8-1.1-3.8-1.2-5.8c0-1.6-0.1-3.2,0.7-4.6
				c0.1-0.2,0.1-0.6,0.1-0.9c0-0.2,0-0.4,0.1-0.6c0.5-0.8,1-1.5,1.5-2.3c0.5-0.9,1-1.8,1.5-2.8c-0.1,0-0.1-0.1-0.2-0.1
				c-0.2,0.2-0.4,0.4-0.6,0.6c-0.1-0.1-0.1-0.1-0.2-0.2c0.5-0.6,1-1.3,1.5-1.9c0.3,0,0.5,0,0.7,0.1c0.7-0.8,1.2-1.7,2-2.2
				c0.5-0.4,0-1,0.8-1.3c0.5-0.2,0.9-0.8,1.4-1.3c-0.1-0.1-0.2-0.3-0.3-0.4c0.6-0.4,1.1-0.7,1.7-1.1c0-0.1-0.1-0.3-0.1-0.5
				c0-0.5,0.9-0.6,0.4-1.3c-1.1,0.4-1.4,1.4-1.9,2.3c-0.1-0.3-0.2-0.4-0.5-0.9c-0.7,0.8-1.2,1.4-1.7,2c-0.7,0.8-1.3,1.8-2.4,2.3
				c-0.1,0.2-0.2,0.4-0.4,0.6c-0.1,0-0.1,0-0.2,0c0-0.2,0.1-0.5,0.1-0.8c0-0.1-0.1-0.1-0.2-0.2c0-0.2,0.1-0.5,0.1-0.7
				c-0.1,0-0.2-0.1-0.3-0.1c-0.1,0.2-0.2,0.5-0.3,0.7h-0.8c0.1,0.3,0.2,0.6,0.3,0.8c0.3,0.3,0.6,0.5,0.9,0.9c-0.8,1-1.5,1.9-2.2,2.8
				c-0.2,0.4-0.3,0.7-0.5,1.1s-0.3,0.7-0.5,1.1c0,0,0,0,0,0.1c0,0,0,0-0.1,0h-0.1c0,0-0.1,0-0.2-0.1c0,0,0,0-0.1-0.1v-0.1h-0.1
				c-0.1,0.2-0.2,0.4-0.3,0.6l-0.1,0.1l-0.1,0.1c0,0-0.1,0.1-0.2,0.1s-0.1,0-0.2,0h-0.1c-0.8-0.1,0.2-0.8-0.4-1.1
				c-0.4,0.9-0.8,1.7-1.3,2.5c-0.4,0.8-0.1,1.8-0.8,2.5c-0.1-0.3,0-0.7,0-1c0-0.2-0.2-0.3-0.4-0.5c0,0.3-0.1,0.7-0.1,1
				c-0.1,0-0.2,0-0.2-0.1c0.1-0.3,0.2-0.7,0.3-1c1.2-0.5,0.9-1.7,1.4-2.8c-0.8,0.5-1.3,0.8-1.6,1.5c-0.9,2.2-1,4.5-1.2,6.8
				c-0.1,2,0,2-1.5,3.1c-0.2,0.1-0.3,0.2-0.5,0.4c-1.9,1.5-3.7,3.1-6,4c-1,0.4-1.8,1-2.8,1.5c-0.3,0.2-0.7,0.3-1,0.3
				c-0.7-0.1-1.1,0.2-1.5,0.7c-0.3,0.5-0.7,1-1,1.6c-1.2,0.2-1.5,0.7-1.5,1.9c0,0.8-0.1,1.6-0.2,2.4c0,0.3-0.1,0.6-0.2,0.8
				c-0.1,0.8-0.2,1.7-0.4,2.5c-0.1,0-0.1,0-0.2,0c0.1,0.3,0.2,0.5,0.2,0.8c-0.3,0.5-0.5,0.9-0.8,1.3c0.4,2.6,0.5,2.1-0.5,5.2
				c-0.2,0.5-0.5,1-0.5,1.5c-0.1,1.3-1,2.8,0.7,3.8c-0.3,1.1-0.2,1.3,0.6,1.8c1.4,0.9,2.7,0.7,4.2,0.1c0.9-0.4,1.8-0.6,2.6-1.1
				c1.6-0.9,3.2-1.8,4.9-2.6c1.1-0.5,2-1.3,3-1.9c1.4-0.7,2.8-1.4,4.2-2c0.1-0.7,0.1-1.2,0.2-1.6c0.4-0.2,0.8-0.3,1.3-0.5
				c-0.4-0.4-0.6-0.7-0.8-0.9c-0.6,0.1-1.1,0.2-1.6,0.3c0.1-0.6,1-0.6,0.4-1.3c-0.5,0.1-1.1,0.1-1.7,0.2c0-0.2,0-0.4,0.1-0.5
				c-0.9,0.3-1.6,0.5-2.3,0.7c-0.4,0.2-0.8,0.4-1.2,0.7c-0.2,0.1-0.3,0.2-0.4,0.4c-0.6,0.8-1.5,1.2-2.4,1.5c-0.5,0.1-1,0.3-1.5,0.5
				c-0.8,0.3-1.4,0.8-2.3,0.7c0-0.3,0-0.5,0-0.8c-0.5,0.5-0.7,1.2-1.7,0.8c0-0.3-0.2-0.7-0.1-1c0.4-1.3,0.9-2.6,1.3-4
				c0.5,0.1,0.9,0.2,1.2,0.3c1,0.3,3.5-0.7,4-1.7c0.1-0.2,0.1-0.4,0.2-0.6c0.3-1.2-0.1-2.3-0.7-3.3c-1.1-0.1-2.2-0.2-3.3-0.3
				c0.5-1.3,4-4.3,5.2-4.7c1.2-1.2,2.3-2.2,3.3-3.1c0.2,0.2,0.4,0.3,0.5,0.4c0.2-0.3,0.3-0.5,0.5-0.8c0.8,0.1,1.2,0.4,1.4,1.1
				c0.5,1.9,1.8,3.3,2.7,5c0.2,0.3,0.6,0.6,0.9,0.8c0.8,0.6,1.7,1.1,2.3,1.9c1.1,1.4,2.5,2.3,3.8,3.4c0.2,0.2,0.5,0.1,0.8,0.2
				c-0.1-0.4-0.3-0.8-0.5-1.2c-0.3-0.2-0.5-0.5-0.8-0.7c0,0,0.1,0,0.2,0s0.1,0,0.2,0h0.1c0,0,0.1,0,0.1,0.1c0,0,0.1,0,0.1,0.1
				c0.1,0.1,0.1,0.2,0.2,0.4c0,0,0,0.1,0.1,0.1c0.5,0.1,1.1,0.2,1.5,0.3c0.3,0.5,0.5,0.8,0.8,1.3h-1.3c0.2,0.7,0.7,1.2,1.4,1.5
				c1.6,0.7,3,1.7,4.3,2.8c0.2,0.2,0.5,0.2,0.8,0.3c0-0.2,0-0.4,0-0.6c0.4,0.3,0.4,0.3,0.1,0.7c0.2,0.2,0.3,0.4,0.5,0.6
				c1.2-0.7,0.1-1.5,0.4-2.5c0.4,0.7,0.7,1.2,1,1.7c-0.1,0.3-0.2,0.6-0.3,0.8c0.2,0.1,0.5,0.2,0.6,0.3c0.5,1,1.4,1.4,2.4,1.7
				c0.6,0.2,1.1,0.6,1.7,0.9c0.8,0.5,1.6,1.4,2.7,1.3c0.2,0.2,0.5,0.3,0.7,0.5c0.1,0.4,0.3,0.7,0.8,0.7c0-0.2,0.1-0.3,0.1-0.6l0,0
				l0.1,0.1c0.1,0.1,0.1,0.1,0.1,0.2c0,0.1,0,0.2-0.1,0.2c0,0,0,0-0.1,0c0,0-0.1,0-0.2,0.1c0.2,0.9-0.7,1-1.1,1.5
				c0.1,0.2,0.1,0.3,0.2,0.5h-0.8c-0.3,0.5-0.7,0.9-1.2,1.2c-1,0.4-2.1,0.8-3.1,1.2c-0.9,0.3-1.8,0.6-2.7,0.9
				c-0.8,0.3-1.6,0.7-2.4,0.8c-0.5,0-0.5,0.6-1,0.6s-1,0.2-1.6,0.3c-0.6,0.2-1.1,0.4-1.7,0.5c-1.1,0.3-2.1,0.8-3,0.4
				c-0.8,0.4-1.5,0.8-2.2,1.2c-0.3-0.2-0.5-0.5-0.7-0.6c-0.3,0.2-0.5,0.5-0.8,0.6c-1.1,0.2-2.2,0.4-3.2,0.6
				c-1.1,0.2-2.1,0.2-3.2,0.5c-0.6,0.1-1.1,0.5-1.7,0.8c-0.4-0.5-0.9-0.9-1.3-1.4c-0.3,0.1-0.7,0.2-1.1,0.3
				c-0.1-0.3-0.2-0.5-0.2-0.7c-0.7,0.4-1.3,0.7-1.9,1c0.1,0.2,0.1,0.4,0.2,0.5c-0.3,0.1-0.5,0.2-1.1,0.3c0.6,0.4,1,0.5,1.3,0.7
				c-0.2,0.9-1.2,0.3-1.7,1c0.8,0.3,1.5,0.6,2.1,0.9c0.2,0.3,0.3,0.6,0.5,0.8c1.1,0.1,2.1,0.2,3.1,0.2c0.1-0.2,0.1-0.4,0.2-0.7h3
				c0,0,0.2,0.2,0.3,0.3c0.4-0.3,0.7-0.6,1-0.6c1.3-0.2,2.7-0.4,4-0.6c1.1-0.2,2.2-0.3,3.2-0.5c1.5-0.2,3-0.5,4.5-0.8
				c0.4-0.1,0.8,0.2,1.4-0.1c0.9-0.5,1.9-0.6,2.9-0.8c0.2,0,0.4,0.2,0.7,0.2c0.4-0.5,0.9-0.9,1.6-0.7c0.1,0,0.3,0,0.3,0
				c0.6-1,1.8-0.1,2.5-0.7c1.1,0.9,1-0.3,1.3-0.9c0.4,0.1,0.9,0.2,1.4,0.3c0.1-0.2,0.1-0.5,0.3-0.8c1.3,1,1.9-0.8,2.9-0.5
				c0-0.3,0.1-0.4,0.1-0.5c2.8-1,4.5-2.9,5.8-5.5c0.2,0.3,0.3,0.5,0.4,0.6c1-0.2,2-0.4,3-0.6c0.8-1.5,0.4-3.3,1.3-4.9
				c-0.4-1.1,0.2-2,0.4-3c0.4-2.4,1.8-4.6,2.1-7.1c0.1-0.8,0.2-1.7,0.8-2.3c0.3-0.3,0.4-0.8,0.5-1.2c0.4-1.5,0.7-3,1.1-4.5
				c0.1-0.3,0.4-0.5,0.5-0.7l0.1-0.1c-0.3-0.5-0.2-0.9,0-1.4C-106.4,176.3-106.3,175.3-106.1,174.3z M-141.1,152.8
				c0.1,0,0.1,0.1,0.2,0.1l0,0c-0.2,0.2-0.4,0.5-0.5,0.7c0,0-0.1,0-0.3-0.1C-141.4,153.3-141.2,153.2-141.1,152.8z M-151.4,167
				c-0.1,0.4-0.1,0.7-0.2,1c-0.1,0-0.2,0-0.2-0.1c0.1-0.3,0.2-0.7,0.2-1l0,0C-151.6,167-151.6,167-151.4,167L-151.4,167z
				 M-149.6,162.8c-0.1,0-0.1-0.1-0.2-0.1l0,0c0.1-0.2,0.2-0.4,0.2-0.6c0.1,0,0.1,0,0.2,0.1C-149.6,162.4-149.6,162.5-149.6,162.8z
				 M-139.6,188.3L-139.6,188.3c-0.2-0.1-0.3-0.1-0.5-0.2c0.1-0.1,0.1-0.1,0.1-0.2c0,0,0,0,0-0.1l0,0c0.1,0.1,0.3,0.2,0.4,0.3
				C-139.6,188.2-139.6,188.3-139.6,188.3z M-137.9,190.9c-0.1,0-0.2,0.1-0.3,0.1l0,0c-0.1-0.1-0.2-0.3-0.3-0.4
				c-0.1-0.2-0.2-0.3-0.4-0.5c0.4,0,0.7-0.1,0.7,0l0,0c0,0.1,0.1,0.1,0.1,0.2C-138,190.4-138,190.6-137.9,190.9
				C-138.1,190.8-138.1,190.9-137.9,190.9L-137.9,190.9z M-135.8,192.3c-0.2,0.1-0.4,0.1-0.6,0.1c-0.1,0-0.2,0-0.2,0l0,0
				c0,0,0,0-0.1,0c-0.2-0.1-0.3-0.3-0.4-0.6c0-0.1-0.1-0.2-0.1-0.4c0.4,0.2,0.8,0.4,1.2,0.7c0.1,0.1,0.3,0.2,0.4,0.2l0,0
				C-135.6,192.2-135.8,192.3-135.8,192.3z M-134.2,193.4c-0.1,0.1-0.2,0.1-0.5,0c-0.1,0-0.3-0.1-0.5-0.1c0.1-0.2,0.2-0.3,0.3-0.6
				c0.3,0.1,0.5,0.3,0.7,0.4C-134.1,193.3-134.1,193.4-134.2,193.4z M-134.6,192c0.1,0,0.1,0,0.2-0.1l0.1,0.3c0,0-0.1,0.1-0.2,0.1
				l0,0C-134.4,192.3-134.6,192.3-134.6,192z M-133.6,189.4L-133.6,189.4c-0.7,0.4-0.7,0.4-1.3-0.2c0.3,0,0.6,0.1,0.9,0.2
				C-133.8,189.3-133.8,189.4-133.6,189.4L-133.6,189.4z M-131.2,194.6C-131.2,194.5-131.2,194.5-131.2,194.6c0-0.1,0-0.1,0-0.2l0,0
				c0.1,0,0.2,0.1,0.3,0.1c0,0.1,0,0.1-0.1,0.2C-131.1,194.8-131.1,194.8-131.2,194.6C-131.1,194.6-131.2,194.6-131.2,194.6
				L-131.2,194.6z M-130.6,195.8c-0.1,0.1-0.2,0.2-0.4,0.3c-0.1-0.1-0.1-0.1-0.1-0.2c0.1-0.1,0.3-0.1,0.4-0.2l0,0
				C-130.6,195.5-130.6,195.6-130.6,195.8L-130.6,195.8z M-128.6,197.3c-0.3-0.3-0.6-0.5-0.9-0.7c0.1-0.1,0.1-0.1,0.2-0.2
				C-128.6,196.5-128.6,196.5-128.6,197.3z M-126.8,197.4c-0.1,0.1-0.2,0.2-0.3,0.2c-0.1-0.1-0.2-0.3-0.3-0.4l0,0
				c0.1,0,0.1-0.1,0.1-0.1l0.1-0.1l0,0c0,0.1,0.1,0.1,0.1,0.2C-126.9,197.3-126.9,197.3-126.8,197.4L-126.8,197.4z M-124.2,200
				c-0.1,0-0.1,0.1-0.2,0.2l0,0c-0.1-0.2-0.2-0.5-0.2-0.8c0-0.1,0.1-0.2,0.2-0.5C-124.3,199.3-123.8,199.5-124.2,200z M-148.2,213.5
				c0.3-0.6,0.3-0.6,1.7-0.1C-147.1,213.5-147.8,213.5-148.2,213.5z M-144.9,211.3c-0.1,0-0.1,0.1-0.2,0.1h-0.1l0,0
				c0,0-0.1-0.1-0.1-0.2c0.1,0,0.2,0,0.2-0.1h0.1l0,0c0,0,0,0,0,0.1C-144.9,211.3-144.9,211.3-144.9,211.3L-144.9,211.3z
				 M-142.8,212.9c-0.1,0-0.2,0.1-0.3,0.1c0,0,0-0.1-0.1-0.1l0,0c0.1-0.1,0.2-0.1,0.3-0.2C-142.9,212.8-142.8,212.8-142.8,212.9
				L-142.8,212.9z M-141.8,211c0-0.1,0-0.2-0.1-0.2c0.8-0.2,1.7-0.4,2.5-0.5c0,0.1,0.1,0.2,0.1,0.3
				C-140.1,210.6-140.9,210.9-141.8,211z M-137.6,209.9c0,0.1,0,0.1,0,0.2c-0.2,0.1-0.5,0.1-0.7,0.2l0,0c0-0.1,0-0.2,0-0.3
				C-138.1,209.9-137.8,209.9-137.6,209.9z M-134.1,210.8c0,0.1-0.1,0.2-0.1,0.2c0,0.1-0.1,0.1-0.1,0.2c-0.1,0.1-0.2,0.1-0.3,0.2
				c-0.2,0.1-0.5,0.1-0.7,0.1c-0.1,0-0.1,0-0.2,0s-0.1,0-0.2,0.1c0,0,0,0-0.1,0.1v0.1l0,0c-0.5,0.1-1,0.1-1.4,0.2
				c-0.2,0-0.3,0-0.5,0.1c-0.3,0-0.6,0.1-0.8,0.1c-0.1,0-0.2,0-0.4,0.1c0-0.1,0-0.2,0-0.3l0,0c0.2-0.1,0.4-0.2,0.5-0.2
				c0.3-0.1,0.6-0.2,0.9-0.3c0.1,0,0.2-0.1,0.4-0.1c0.2-0.1,0.3-0.1,0.5-0.2c0.2-0.1,0.5-0.1,0.7-0.2h0.2c0.2,0,0.5-0.1,0.8-0.1
				c0.2,0,0.4,0,0.6,0C-134.2,210.8-134.1,210.8-134.1,210.8L-134.1,210.8z"/>
			<path d="M-215.8,200.3c0,0.1,0,0.2,0,0.2c-0.2,0-0.4,0-0.6-0.1c0-0.1,0-0.1,0-0.2C-216.1,200.3-216.1,200.3-215.8,200.3z"/>
			<path d="M-119.4,149.2c-0.2,0.2-0.5,0.4-0.7,0.5c-0.5-0.9,0.5-0.9,0.9-1.3c-0.4-0.5-0.8-0.9-1.2-1.4c-0.1-0.3-0.2-0.6-0.3-1v1.2
				c0,0.5-0.1,1-0.2,1.6c-0.2-0.3-0.4-0.6-0.4-0.7c0.2-0.9-0.2-1.6-0.5-2.4c-0.2,0.3-0.5,0.6-0.8,0.9c-1-0.9,0.6-1.8-0.2-2.7
				c-0.7,0.2-1.4-1-2.1,0c0,0.3,0,0.7,0.1,1.1h-1.1c0.2-0.6,0.3-1,0.4-1.5c-0.3-0.2-0.6-0.3-0.7-0.4c-0.3,1-0.6,1.8-0.9,2.8
				c0.8,0.3,1.5,0.5,2.3,0.8c0.1-0.1,0.1-0.2,0.3-0.5c0.2,0.3,0.3,0.5,0.5,0.8c-0.2,0-0.4-0.1-0.5-0.1c-0.2,0.8-0.2,1.6,0.1,2.4
				c0.1,0.2,0.1,0.3,0.1,0.5c-0.3,1.8-0.5,3.6-1,5.4c-0.6,2-0.9,4.1-1.3,6.1c-0.1,0.8-0.4,1.6-0.6,2.3c-0.3,0.7-0.6,1.4-0.9,2.1
				c-0.9,2-1.5,4.1-1.9,6.3c0,0.3-0.3,0.7-0.4,1c-0.4,1-1.2,1.9-1.3,3c-0.1,1.2-0.7,2.1-1,3.1c-0.5,1.6-1.4,3.1-1.4,4.7
				c0.4,1.3,1.2,2,2.5,2.2c1.1-0.4,2.2-0.9,2.7-2.1c0.1-0.2,0.4-0.4,0.6-0.6c0.2-0.2,0.4-0.4,0.5-0.7c0.3-1.3,1.1-2.3,1.3-3.7
				c0.2-1.4,0.9-2.7,1.4-4.1c0.1-0.4,0.4-0.8,0-1.5c-0.1,0.3-0.1,0.4-0.2,0.5c0,0.1-0.1,0.2-0.2,0.3c-0.1,0-0.2,0-0.2-0.1
				c0.1-0.8,0.3-1.6,0.4-2.3c0.1,0,0.2,0,0.3,0c0,0.4,0,0.8-0.1,1.2c0.1,0,0.2,0,0.2,0.1c0.4-1.2,0.7-2.4,1.2-3.8
				c1.1-0.8,0.3-2.3,0.4-3.5c0.1,0,0.2-0.1,0.3-0.1c0.1,0.3,0.2,0.5,0.3,0.8c0.2-0.8,0.5-1.5,0.6-2.1c0.3-0.9,0.5-1.8,0.8-2.7
				c0.3-1,0.6-2.1,0.8-3.2c0.1-0.5,0.3-1,0.3-1.5c0.1-0.8,0.2-1.6,0.2-2.5c0.2-0.1,0.4-0.2,0.4-0.3c-0.1-1.2-0.2-2.3-0.2-3.4
				C-119.2,150.3-119.1,149.3-119.4,149.2z M-126.6,165.4c-0.1,0.3-0.2,0.5-0.3,0.8c-0.1,0-0.1,0-0.2-0.1c0.1-0.3,0.2-0.5,0.3-0.8
				C-126.8,165.3-126.6,165.3-126.6,165.4L-126.6,165.4z M-125.4,164.4c0,0-0.1,0-0.2,0c0-0.1-0.1-0.3-0.1-0.4l0,0
				c0.1,0,0.2,0,0.3,0L-125.4,164.4L-125.4,164.4z M-125.1,168.8c-0.1,0.1-0.1,0.2-0.2,0.3l0,0l0,0
				C-125.2,169-125.1,168.9-125.1,168.8C-125.2,168.8-125.1,168.8-125.1,168.8L-125.1,168.8z M-124.1,165c0,0-0.1,0-0.2-0.1l0,0
				c0-0.1,0-0.2,0.1-0.3c0-0.1,0-0.2,0-0.3c0,0,0,0,0-0.1l0,0c0.1,0,0.1,0,0.2,0l0,0c0,0.1,0.1,0.3,0.1,0.4
				C-123.8,164.9-123.9,165-124.1,165z M-123.8,160.5c-0.1,0.1-0.2,0.3-0.4,0.4l0,0c0,0,0,0-0.1-0.1c0,0-0.1,0-0.1-0.1
				c0.1-0.1,0.2-0.3,0.3-0.4c0-0.1,0.1-0.1,0.1-0.2l0,0l0,0l0.1,0.1l0.1,0.1l0,0C-123.6,160.5-123.8,160.5-123.8,160.5z
				 M-123.3,146.5L-123.3,146.5L-123.3,146.5c-0.1-0.2-0.2-0.3-0.2-0.5l0,0h0.1h0.1c0,0.1,0,0.2,0,0.3l0,0V146.5L-123.3,146.5z
				 M-120.3,152.8L-120.3,152.8c-0.1,0-0.2,0-0.3,0l0,0c0-0.2,0.1-0.4,0.1-0.6c0.1,0,0.2,0,0.2,0.1
				C-120.2,152.5-120.3,152.6-120.3,152.8z M-120.1,151.5c-0.1,0.1-0.2,0.1-0.3,0.2l0,0c-0.1-0.2-0.1-0.4-0.2-0.6
				c0.1,0,0.1-0.1,0.2-0.1l0,0c0.1,0.1,0.1,0.2,0.2,0.3C-120.2,151.3-120.1,151.5-120.1,151.5L-120.1,151.5z"/>
			<path d="M-190.2,187.5c-0.2,0.1-0.4,0.2-0.6,0.3c0-0.1-0.1-0.1-0.2-0.2c0.2-0.1,0.4-0.2,0.6-0.3
				C-190.3,187.5-190.2,187.5-190.2,187.5z"/>
			<path d="M-121.6,145.8h-0.2c0-0.3,0-0.5,0-0.8c0.1,0,0.1,0,0.2,0C-121.6,145.3-121.6,145.5-121.6,145.8z"/>
			<path d="M-209.8,202.9c0,0.2,0,0.3-0.1,0.5c-0.2-0.1-0.3-0.1-0.7-0.3C-210.2,202.9-210.1,202.9-209.8,202.9z"/>
			<path d="M-134.6,144.8c0,0.1-0.1,0.3-0.1,0.4c-0.1,0-0.1,0-0.2-0.1c0-0.1,0.1-0.2,0.1-0.4C-134.6,144.8-134.6,144.8-134.6,144.8z
				"/>
			<path d="M-129.2,144.3c-0.1,0-0.2,0-0.3,0c0-0.1,0-0.3,0.1-0.4h0.2C-129.2,144-129.2,144.3-129.2,144.3z"/>
			<path d="M-228.4,166.3c0,0.1-0.1,0.2-0.1,0.4c-0.1,0-0.1-0.1-0.2-0.1C-228.6,166.4-228.6,166.3-228.4,166.3
				C-228.6,166.2-228.4,166.2-228.4,166.3z"/>
			<path d="M-227.1,166.3c-0.1,0.2-0.2,0.3-0.3,0.5c-0.1,0-0.1-0.1-0.2-0.2L-227.1,166.3L-227.1,166.3z"/>
			<path d="M-73.8,178.5c-0.1,0-0.1,0.1-0.2,0.1c-0.1-0.1-0.1-0.2-0.2-0.3c0,0,0.1,0,0.2-0.1C-73.8,178.3-73.8,178.4-73.8,178.5z"/>
			<path d="M-217.8,198.8c0,0.1-0.1,0.2-0.1,0.2c-0.2-0.1-0.3-0.3-0.5-0.4l0,0C-218.1,198.6-217.9,198.8-217.8,198.8z"/>
			<path d="M-231.3,196.3c-0.1,0-0.2,0.1-0.3,0.1c-0.1,0-0.2-0.1-0.6-0.2c0.5,0,0.7-0.1,0.9-0.1
				C-231.3,196.2-231.3,196.3-231.3,196.3z"/>
			<path d="M-224.2,189.2c0,0.1,0,0.1-0.1,0.2c-0.2-0.1-0.3-0.1-0.5-0.2c0,0,0-0.1,0-0.2C-224.6,189-224.4,189.2-224.2,189.2z"/>
		</g>
	</g>
</g>
</svg>
