<?xml version="1.0" encoding="utf-8"?>
<!-- Generator: Adobe Illustrator 17.1.0, SVG Export Plug-In . SVG Version: 6.00 Build 0)  -->
<!DOCTYPE svg PUBLIC "-//W3C//DTD SVG 1.1//EN" "http://www.w3.org/Graphics/SVG/1.1/DTD/svg11.dtd">
<svg version="1.1" id="Layer_1" xmlns="http://www.w3.org/2000/svg" xmlns:xlink="http://www.w3.org/1999/xlink" x="0px" y="0px"
	 viewBox="0 606 1500 288" enable-background="new 0 606 1500 288" xml:space="preserve">
<rect x="387.121" y="630.492" fill="none" width="726.705" height="222.538"/>
<g enable-background="new    ">
	<path d="M427.273,735.606h-21.212v92.235h-9.091V641.856h9.091v84.659h21.212l43.939-84.659h10.227l-46.212,89.205l50.379,96.78
		h-10.227L427.273,735.606z"/>
	<path d="M576.894,827.841l-12.879-58.333h-53.409l-12.879,58.333h-9.28l41.288-185.985h15.341l41.288,185.985H576.894
		L576.894,827.841z M512.5,760.417h49.432l-24.811-111.174L512.5,760.417z"/>
	<path d="M664.015,650.947h-37.121v176.894h-9.091V650.947h-37.121v-9.091h37.121h9.091h37.121V650.947z"/>
	<path d="M675,827.841V641.856h9.091v185.985H675L675,827.841z"/>
	<path d="M716.667,650.947v70.455h52.083v9.091h-52.083v88.258h63.258v9.091h-63.258h-9.091V641.856h9.091h63.258v9.091H716.667z"/>
</g>
<g enable-background="new    ">
	<path d="M836.742,729.356c4.545,3.598,9.091,7.576,13.636,11.364c4.545,3.977,8.523,8.333,12.121,12.879
		c3.599,4.735,6.439,9.849,8.712,15.72c2.273,5.871,3.22,12.311,3.22,19.697c0,5.492-1.136,10.795-3.22,15.53
		c-2.083,4.924-4.924,9.091-8.523,12.689c-3.599,3.598-7.765,6.439-12.5,8.523c-4.735,2.083-9.848,3.22-15.341,3.22
		s-10.606-1.136-15.53-3.22s-9.091-4.924-12.689-8.523c-3.599-3.599-6.439-7.765-8.523-12.689c-2.083-4.924-3.22-10.038-3.22-15.53
		h9.091c0,4.167,0.758,8.144,2.462,11.932c1.705,3.788,3.788,7.008,6.629,9.849c2.841,2.841,6.061,4.924,9.849,6.629
		c3.788,1.705,7.765,2.462,11.932,2.462c4.167,0,8.144-0.758,11.742-2.462s6.818-3.788,9.659-6.629
		c2.841-2.841,4.924-6.061,6.629-9.849c1.705-3.788,2.462-7.765,2.462-11.932c0-6.25-0.947-11.742-2.841-16.856
		c-1.894-4.924-4.545-9.47-7.765-13.636s-6.818-7.955-10.985-11.553c-4.167-3.598-8.333-7.197-12.879-10.606
		c-4.356-3.409-8.712-7.197-13.068-10.795c-4.356-3.788-8.144-7.765-11.553-12.311c-3.409-4.356-6.061-9.28-8.333-14.583
		c-2.083-5.303-3.22-11.553-3.22-18.371c0-5.492,1.136-10.606,3.22-15.53c2.083-4.924,4.924-9.091,8.523-12.689
		c3.599-3.598,7.765-6.439,12.689-8.523c4.924-2.083,10.038-3.22,15.53-3.22c5.492,0,10.606,0.947,15.341,3.03
		c4.735,2.083,8.902,4.924,12.5,8.333c3.599,3.598,6.439,7.765,8.523,12.689c2.083,4.924,3.22,10.038,3.22,15.53h-9.091
		c0-4.167-0.758-8.144-2.462-11.742s-3.788-6.818-6.629-9.659c-2.841-2.841-5.871-4.924-9.659-6.629
		c-3.599-1.705-7.576-2.462-11.742-2.462s-8.144,0.758-11.932,2.462s-7.008,3.788-9.849,6.629c-2.841,2.841-4.924,6.061-6.629,9.659
		c-1.705,3.598-2.462,7.576-2.462,11.932c0,5.871,0.947,10.985,2.841,15.53c1.894,4.545,4.356,8.712,7.197,12.5
		c3.03,3.788,6.439,7.576,10.417,10.795C828.409,722.727,832.576,726.136,836.742,729.356z"/>
	<path d="M893.75,827.841V641.856h9.091v185.985H893.75L893.75,827.841z"/>
	<path d="M994.318,650.947h-37.121v176.894h-9.091V650.947h-37.121v-9.091h37.121h9.091h37.121V650.947z"/>
	<path d="M1084.848,641.856v79.167v4.735v63.258c0,5.492-1.136,10.606-3.22,15.53c-2.083,4.924-4.924,9.091-8.523,12.689
		c-3.598,3.598-7.765,6.439-12.5,8.523s-9.849,3.22-15.341,3.22c-5.492,0-10.606-1.136-15.53-3.22
		c-4.924-2.083-9.091-4.924-12.689-8.523c-3.598-3.599-6.439-7.765-8.523-12.689c-2.083-4.924-3.22-10.038-3.22-15.53v-63.258
		v-4.735v-79.167h9.091v79.167v4.735v63.258c0,4.167,0.758,8.144,2.462,11.932c1.705,3.788,3.788,7.008,6.629,9.849
		c2.841,2.841,6.061,4.924,9.849,6.629s7.765,2.462,11.932,2.462c4.167,0,8.144-0.758,11.743-2.462
		c3.598-1.705,6.818-3.788,9.659-6.629c2.841-2.841,4.924-6.061,6.629-9.849c1.704-3.788,2.462-7.765,2.462-11.932v-63.258v-4.735
		v-79.167H1084.848z"/>
</g>
<line fill="none" stroke="#000000" stroke-width="6.3247" stroke-miterlimit="10" x1="397.348" y1="859.28" x2="781.25" y2="859.28"/>
</svg>
