<?xml version="1.0" encoding="utf-8"?>
<!-- Generator: Adobe Illustrator 17.1.0, SVG Export Plug-In . SVG Version: 6.00 Build 0)  -->
<!DOCTYPE svg PUBLIC "-//W3C//DTD SVG 1.1//EN" "http://www.w3.org/Graphics/SVG/1.1/DTD/svg11.dtd">
<svg version="1.1" id="Layer_1" xmlns="http://www.w3.org/2000/svg" xmlns:xlink="http://www.w3.org/1999/xlink" x="0px" y="0px"
	 width="226px" height="103px" viewBox="86 37.3 226 103" enable-background="new 86 37.3 226 103" xml:space="preserve">
<g>
	<polygon points="100.5,40 100.5,43.5 92.3,43.5 92.3,51.6 88.9,51.6 88.9,40 	"/>
</g>
<g>
	<polygon points="100.5,134.3 100.5,137.7 88.9,137.7 88.9,126.7 92.3,126.7 92.3,134.3 	"/>
</g>
<g>
	<polygon points="308.8,126.7 308.8,137.7 296,137.7 296,134.3 305.3,134.3 305.3,126.7 	"/>
</g>
<g>
	<polygon points="308.8,40 308.8,51.6 305.3,51.6 305.3,43.5 296,43.5 296,40 	"/>
</g>
<g id="wordmark01_2_">
	<g>
		<path d="M154.6,101.4L154.6,101.4c0.3,0.1,0.7,0.3,1,0.4C155.2,101.6,154.9,101.5,154.6,101.4z M148.1,97.2c0,0.1-0.1,0.2-0.1,0.3
			C147.9,97.4,148.1,97.3,148.1,97.2L148.1,97.2z M146.6,98.1L146.6,98.1c0.3,0.1,0.6,0.2,0.9,0.3C147.1,98.3,146.9,98.2,146.6,98.1
			z M143.6,97.3L143.6,97.3c0.5,0.1,0.9,0.2,1.3,0.3C144.4,97.5,144.1,97.4,143.6,97.3z M140.4,96.1h0.1l0,0H140.4z M140.4,96.6
			L140.4,96.6c0.1,0,0.1,0,0.2,0l0,0C140.4,96.6,140.4,96.6,140.4,96.6z M140.2,75.3c-0.2,0.2-0.3,0.5-0.5,0.7
			C139.8,75.7,139.9,75.5,140.2,75.3L140.2,75.3z M137.9,94.5h0.2l0,0C138.1,94.5,137.9,94.5,137.9,94.5z M137.2,80L137.2,80
			l0.1,0.2l0,0C137.4,80.1,137.4,80.1,137.2,80z M136.4,94.4c0,0.1,0,0.1,0,0.2C136.4,94.5,136.4,94.4,136.4,94.4L136.4,94.4z
			 M135.4,96.6C135.6,96.6,135.6,96.6,135.4,96.6L135.4,96.6C135.6,96.6,135.6,96.6,135.4,96.6z M135.2,96.3c0.1,0,0.2,0,0.2,0l0,0
			C135.4,96.4,135.4,96.3,135.2,96.3z M135.1,82.2l0.2,0.2l0,0C135.2,82.3,135.2,82.3,135.1,82.2z M134.9,96.3c0,0.1,0,0.2-0.1,0.3
			C134.8,96.4,134.9,96.3,134.9,96.3L134.9,96.3z M134.2,83.5L134.2,83.5c0.2-0.2,0.4-0.3,0.5-0.5C134.7,83.1,134.4,83.3,134.2,83.5
			z M132.1,84L132.1,84c0-0.1,0.1-0.1,0.1-0.2C132.1,83.9,132.1,84,132.1,84z M131.4,94L131.4,94c0.2-0.1,0.4-0.2,0.6-0.3l0,0
			C131.8,93.9,131.6,94,131.4,94z M131.2,96.6c0,0.1,0,0.2,0,0.3C131.2,96.8,131.2,96.7,131.2,96.6L131.2,96.6z M130.9,96.8
			C130.9,96.8,130.9,96.9,130.9,96.8L130.9,96.8C130.9,96.9,130.9,96.8,130.9,96.8z M129.4,86.6c0.3-0.3,0.6-0.5,0.9-0.8l0,0
			C129.9,86.1,129.6,86.3,129.4,86.6z M127.6,88.7L127.6,88.7L127.6,88.7L127.6,88.7z M125.1,91.6L125.1,91.6
			c0.2-0.2,0.5-0.4,0.7-0.7C125.6,91.2,125.4,91.4,125.1,91.6z M122.7,83.3L122.7,83.3c0-0.1,0.1-0.2,0.1-0.3
			C122.7,83.1,122.7,83.2,122.7,83.3z M114,108.1C114,108.1,114.1,108.1,114,108.1L114,108.1C114.1,108.1,114.1,108.1,114,108.1z
			 M114,103.9c0.1,0,0.1,0.1,0.2,0.1l0,0C114,104,114,103.9,114,103.9z M113.6,104.7L113.6,104.7L113.6,104.7
			c0.1-0.1,0.2-0.2,0.2-0.4C113.8,104.5,113.7,104.6,113.6,104.7z M113.4,104.5L113.4,104.5L113.4,104.5c0,0,0.1,0.1,0.2,0.1
			C113.5,104.6,113.4,104.5,113.4,104.5z M112.3,114L112.3,114c0.1-0.5,0.3-1.1,0.4-1.7C112.6,112.9,112.4,113.4,112.3,114z"/>
		<path d="M200.7,67.1h-0.5c0-0.2,0-0.4-0.1-0.5h-1.9c0.2-0.4,0.4-0.7,0.7-1c-0.8-0.1-1.5-0.2-2.2-0.3l-0.1,0.2
			c-0.4,0.1-0.8,0.1-1.2,0.2c-1.2,0.4-2.3,0.9-3.5,1.4c-1,0.4-1.9,0.8-2.9,1.2c-1.3,0.5-2.6,0.9-3.9,1.3c-2.2,0.8-4.3,1.6-6.5,2.4
			c-1.6,0.6-3.3,1.1-4.6,2c-1.4,0.9-3,1.7-4.2,3.1c-1,1.1-1.8,2.1-1.4,3.7c0.1,0.3,0,0.6-0.1,0.7c0.4,1,1,1.6,2,1.4
			c0.9-0.2,1.9-0.3,2.4-1.3c0.1-0.3,0.4-0.5,0.7-0.7c1.3-1,2.6-1.9,4-2.6c1-0.4,1.8-1.1,2.8-1.6c0.1-0.1,0.3-0.1,0.5-0.2
			c0.9-0.3,1.7-0.5,2.6-0.9c0.2-0.1,0.4-0.4,0.5-0.5c0.7,0,1.3-0.1,1.9-0.1c0.1,0.1,0.1,0.2,0.1,0.3c-0.8,2.6-1.6,5.1-2.5,7.7
			c-0.1,0.3-0.5,0.6-0.8,0.7c-3.1,0.9-6.4,1.3-9.7,1.3c-0.4,0-0.9-0.3-1.3-0.2c-1.8,0.5-3.3,0-4.5-0.7c-0.5-1.1-0.8-1.9-1.2-2.8
			c0.1-0.3,0.2-0.7,0.2-1.2c-0.1-2.1,0.1-4.1,0.4-6.2c0.1-0.9-0.6-1.6-1.5-1.5c-0.2,0-0.5,0-0.7,0.1c-1.3-0.9-2.3-0.8-2.8,0.2
			c-0.8,1.9-2.3,3.4-3,5.4c-0.1,0.2-0.2,0.3-0.3,0.5c-0.5,0.7-1.1,1.3-1.6,2c-0.9,1.4-1.7,2.9-2.5,4.4c-0.4,0.7-0.9,1.3-1.8,1.4
			c-1.5,0.2-2.9,0.4-4.4,0.5c-1.5,0.2-3.2,0.2-4.3,1.6c0.2,0.9,0.5,1.8,0.7,2.8c-0.1,0.2-0.2,0.6-0.3,1.1c1.4,0.4,2.7,0.7,4.1,1.1
			c-0.1,0.7-0.2,1.4-0.3,2.2c-0.4-0.2-0.8-0.4-1.3-0.6c-0.2,0.2-0.4,0.4-0.7,0.6c-0.6-0.4-1.2-0.9-1.9-1.1c-0.8-0.2-1.6-0.2-2.6-0.4
			c-0.5-0.9-2.1,0.5-2.6-0.9c-0.4,0.1-0.7,0.2-1,0.3c-0.3-0.2-0.5-0.4-0.8-0.6c-1.7,0.6-3.4,0.1-5-0.3c-0.3,0.1-0.6,0.3-0.7,0.3
			c-0.8-0.2-1.4-0.4-2-0.5c-0.2,0-0.4,0.1-0.6,0.1c0-0.1,0-0.1,0-0.2c0.2,0,0.4,0,0.6,0c0.4-0.4,0.8-0.8,1.2-1.2
			c0.7-0.7,1.6-1,2.1-2c0.5-0.9,1.2-1.7,2-2.3c1.2-0.9,2.6-1.6,3.2-3.1c0.1-0.1,0.1-0.2,0.2-0.3c1.6-0.9,2.4-2.5,3.6-3.8
			c1-1.1,2-2.1,3-3.2c1-1.2,1.8-2.4,2.7-3.7c0.2-0.3,0.2-0.7,0.2-0.8c0.5-0.6,1-1,1.3-1.4c0.5-0.7,0.9-1.6,1.4-2.3
			c1-1.5,1.6-3,1.8-4.8c0.1-0.4,0.3-0.7,0.5-1.2c-0.1-0.7-0.3-1.5-0.5-2.1c-1.1-0.6-1.8-1.3-2.8-1.5c-1.2,0.2-1.9,0.6-3.4,1.8
			c0,0.3-0.1,0.6-0.1,1c-0.3-0.1-0.6-0.1-0.8-0.2c0,0-0.1,0.1-0.1,0.2c0.2,0.2,0.4,0.4,0.7,0.6c-0.4,0.3-0.6,0.5-0.9,0.7h-1.3
			c0.4,0.3,0.6,0.5,0.7,0.6c-0.6,0.7-1.1,1.3-1.6,2c-0.3,0.4-0.5,0.9-0.8,1.2c-0.8,0.7-0.8,0.7-0.4,1.8l0.1,0.1c1-0.4,2-0.8,3.1-1.2
			c0.1-0.3,0.2-0.6,0.3-1.1c0.6,0.4,0.4,0.7,0.2,1.1c-0.7,1.2-1.3,2.5-2.3,3.6c-2.2,2.5-3.9,5.5-6.5,7.7c-0.1,0.1-0.1,0.2-0.2,0.3
			c-2,2.3-4.1,4.6-6.1,6.9c-0.6,0.7-1.3,1.1-1.9,1.6c-1.2,1.1-2.2,2.5-3.3,3.8c-0.4,0.5-0.9,0.9-1.6,1.1c0-0.5-0.1-0.9-0.2-1.6
			c0.2-0.5,0.5-1.2,0.8-2c0.3-0.9,0.7-1.9,0.7-2.8c0-1,0.2-1.9,0.5-2.9c0.2-0.8,0.4-1.6-0.1-2.2c0.3-1.1,1-2.1,0.9-3.1
			c0-1.1,0.1-2.1,0.5-2.9c0.4-1,0.3-1.9,0.6-2.8c0.3-1.2-0.4-2-1-2.8c-0.3-0.3-0.7-0.5-1.1-0.8c-0.3,0-0.8,0.2-1.3,0.4
			c-1,0.6-1.9,1.3-2.2,2.5c-0.3,1.4-0.4,2.8-0.6,4.3s-0.5,3-0.8,4.4c-0.1,0.5-0.1,1-0.2,1.6s0.1,1.4-0.1,1.9
			c-0.4,0.8-0.6,1.5-0.7,2.3c0,0.6-0.1,1.3-0.3,1.9c-0.1,0.5-0.6,1.1-0.5,1.6c0.1,1.4-0.6,2.5-0.8,3.7c-1.1,0.7-2.4,0.6-3.6,0.8
			c-1.2,0.2-2.3,0.6-3.8,1c-0.8,0.8-0.9,0.8-1.8,0.2c-0.3,0.3-0.7,0.8-1,0.8c-1.4-0.1-2.4,0.9-3.5,1.4c-0.3,1.1,0.4,1.9,0.7,2.9
			c0.3,0,0.6,0,0.8-0.1c0.9-0.2,1.7-0.4,2.5-0.5c1.6-0.2,3.1-0.3,4.7-0.5c1.2-0.2,2.4-0.5,3.8-0.8c0,0.4,0.1,0.8-0.1,0.9
			c-0.4,0.6-0.9,1.1-1.4,1.6c-0.8,0.8-1.6,1.5-2.4,2.3c0.3,0,0.5,0.1,0.9,0.1c-0.1,0.7-0.6,0.9-1.1,0.9c-0.3,0.4-0.6,0.7-0.9,1.1
			l0,0l0,0c-0.1-0.1-0.1-0.1-0.2-0.2c0.2-0.5,0.6-0.8,1.1-0.9c0.1-0.3,0.2-0.6,0.2-1c-1.1,0.9-2.3,1.7-3.3,2.8
			c0.3,0.3,0.5,0.6,0.6,0.8c-0.3,0.3-0.7,0.5-1,0.9c-0.3,0.5-0.6,1-0.8,1.5h2.7c0.1-0.3,0.3-0.7,0.5-1.1c0.7-0.2,1.5-0.3,2.4-0.5
			c0,0.3,0.1,0.6,0,0.9c-0.5,1.7-0.9,3.3-1.4,5c-0.5,1.8-0.8,3.6-0.8,5.4c1.5,0.7,1.7,0.7,2.7,0c0.2,0.6,0.5,1.2,1.3,1.1
			c0.2-0.2,0.4-0.3,0.5-0.5c0.5-0.6,1-1.2,1.3-1.9c0.4-1.2,0.6-2.4,0.9-3.6c0.4-1.5,1-2.9,1.4-4.1c-0.1-0.7-0.2-1.2-0.3-1.7
			c0-0.5,0-1-0.1-1.7c0.3-0.3,0.6-0.8,1.1-1.4c-0.4,0.1-0.6,0.1-1,0.2c0.7-1.6,2.3-2.8,1.8-4.9c0.5-0.4,1-1,1.6-1.4
			c0.8-0.5,1.7-0.8,2.5-1.1c0.1-0.1,0.3,0,0.5,0h5.8c0.2,0,0.4,0,0.6,0.1c1.1,0.7,2.2,0.2,3.4,0.2c-0.9-0.2-1.7-0.4-2.6-0.6
			c0-0.1,0-0.2,0-0.2c1.4,0.1,2.8,0.2,4.2,0.3c1.1-0.5,2.1-0.5,2.2,0.1c-0.2,0-0.5,0.1-0.8,0.2c0.1,0.4,0.2,0.8,0.3,1.2
			c0.8,0,1.5,0.6,2.3,0.3c0-0.1,0-0.2,0.1-0.3c-0.6-0.2-1.2-0.4-1.8-0.6c0.1,0,0.3-0.1,0.4-0.1c0.6,0,1.1,0.1,1.8,0.2
			c-0.1-0.2-0.1-0.4-0.2-0.7c0.5,0,0.9,0.1,1.2,0.1c0.3,0.5,0.6,1.1,1,1.2c0.5,0.2,0.5,0.7,0.8,0.8c0.4,0.2,0.9,0.3,1.4,0.4
			c0.2-0.4,0.3-0.6,0.5-1.1c-0.6,0.2-1,0.3-1.3,0.4c-0.4-0.3-0.9-0.6-1.4-1c0.1-0.1,0.2-0.2,0.2-0.3c1.3,0.3,2.5,0.6,3.9,0.9v1
			c0.6,0,1.2-0.1,1.8-0.1c0.1,0.6,0.6,0.6,1.1,0.6l0,0c1.4-0.4,1.8-0.3,2.1,0.8c1.4,0.8,3.2,0.7,4.3,2.1c0.3,0,0.6,0,0.9-0.1
			c0.1,0.2,0.1,0.4,0.2,0.6c0.7-0.2,1,0.1,1.1,0.7c0.3,0,0.6-0.1,0.9-0.1c0.2,0.3,0.4,0.6,0.8,1c-0.5,0-0.8-0.1-1.1-0.1
			c0.7,0.6,1.5,1,2.5,1c-0.2-0.2-0.5-0.4-0.8-0.6c1.4-0.3,2.2,0.6,3.3,1.2c-0.6,0-0.9,0-1.2,0.1c1.6,1.1,3.3,1.7,5.2,2.2
			c0.2-0.4,0.3-0.6,0.4-0.8c0.8,0,1.6,0,2-1.1c0.3-0.8,0.7-1.5,0.2-2.5c-0.9-0.4-1.9-0.9-2.9-1.4c-0.4-0.2-0.8-0.6-1.2-0.8
			c-0.8-0.2-1.6-0.6-2.3-0.9c-0.8-0.3-1.5-0.7-2.2-1.2c-0.1-0.1-0.3-0.2-0.4-0.2c-1,0.1-1.7-0.5-2.3-1.1c-0.5,0.1-1,0.1-1.5,0.2
			c-1.4-1.4-3.3-1.6-4.9-2.3c0.5-0.7,0.8-1.3,1.2-1.9c0.5-0.8,1-1.5,1.5-2.3c0.1-0.2,0.3-0.2,0.5-0.3c0.2,0.2,0.4,0.4,0.5,0.7
			c0.2-0.2,0.3-0.4,0.4-0.5c0.5,0.2,1,0.3,1.4,0.5c0.8,0.4,1.5,0.8,2.3,1.2c0.4,0.2,0.8,0.4,1.2,0.7c0.1-0.1,0.1-0.1,0.2-0.2
			c0.4,0.6,0.7,1.1,1.2,1.8c0.5,0.3,1.2,0.7,1.8,1.1c-0.1,0.4-0.1,0.6-0.2,1.1c1.4,0.4,2.3,1.7,3.8,1.7c0.8-0.5,0.1-1.3,0.4-1.9
			c0.3,0.1,0.6,0.2,0.9,0.2c0.1-0.4,0.3-0.8,0.4-1.2c-0.1-0.1-0.2-0.1-0.3-0.2c-0.6-0.4-0.2-1-0.1-1.3c-0.4-1.5-1.3-2.6-1.2-4
			c0-0.3-0.3-0.7-0.5-1c-0.1-0.2-0.3-0.5-0.4-0.7c1.1-0.2,2.1-0.6,3.1-0.5c0.9,0.1,1.7,0,2.5,0c1.4-0.1,2.8-0.1,4-1
			c0.6-0.5,1.3-0.3,1.9,0.4c0.6-0.3,1.1-0.6,1.6-0.9c0,0,0-0.1-0.1-0.1c0.4,0,0.8-0.1,1.3-0.1c-0.1,0.6-0.2,1.1-0.4,1.7
			c-0.5,1.7-0.8,3.4-1.4,5c-0.5,1.3-0.9,2.7-1.1,4.1c-0.2,1.5,0.1,2.7,1.3,3.6c0.5,0.4,1.1,0.6,1.7,0.9c0.6-0.5,1.1-1,1.6-1.4
			c0.7-0.5,1-1.1,1.2-1.9c0.2-0.7,0-1.4,0-2c0.1-1,0.5-1.9,0.8-2.8c0.2-0.6,0.4-1.2,0.5-1.8c0.3-1.3,0.5-2.5,0.8-3.8
			c0-0.1,0.1-0.3,0.1-0.3c0.6-0.6,0.6-1.4,0.6-2.2c0.1-0.6,0.1-1.5,0.5-1.8c0.8-0.6,0.5-1.1,0.3-1.8c0.2-0.3,0.6-0.6,0.6-0.9
			c0.2-1.7,1-3.1,1.5-4.7c0.5-1.7,1.2-3.4,1.9-5.1c0.4-1,1.2-1.4,2.1-1.8c0.8-0.3,1.6-0.6,2.3-1.1c0.8-0.5,1.6-0.9,2.2-1.7
			c0.4-0.6,1.1-0.9,1.7-1.3C200.8,67.3,200.7,67.2,200.7,67.1z M133.2,85.2L133.2,85.2c-0.1,0.1-0.1,0.1-0.1,0.1s0,0-0.1,0
			s-0.2,0-0.3,0c0-0.6,0.3-0.9,0.8-1C133.6,84.7,133.6,85,133.2,85.2z M135.4,82.4c-0.2,0.2-0.4,0.4-0.5,0.5
			c-0.2,0.2-0.3,0.4-0.5,0.5l0,0c-0.1-0.1-0.1-0.1-0.2-0.2c0.3-0.4,0.7-0.7,1-1.1l0,0C135.2,82.3,135.2,82.3,135.4,82.4L135.4,82.4z
			 M137.7,79.9c-0.1,0.1-0.1,0.2-0.2,0.3l0,0l-0.2-0.2l0,0c0.1,0,0.1-0.1,0.1-0.1c0.2-0.2,0.4-0.3,0.6-0.5
			C137.9,79.6,137.8,79.7,137.7,79.9z M138.1,79.4c0.1-0.1,0.2-0.2,0.3-0.4c0,0,0.1,0,0.1,0.1C138.4,79.2,138.2,79.3,138.1,79.4z
			 M139.9,79.7c-0.3,0-0.6,0.1-1,0.1c0-0.1,0-0.2,0-0.2c0.3,0,0.7-0.1,1-0.1C139.9,79.5,139.9,79.6,139.9,79.7L139.9,79.7z
			 M132.2,83.8c0.1-0.2,0.2-0.4,0.3-0.6c1.5-1.7,3-3.3,4.5-5c0.1-0.1,0.2-0.2,0.3-0.2c0.1-0.1,0.3-0.1,0.4-0.2
			c0.1-0.3,0.3-0.6,0.4-0.8c0.2-0.2,0.3-0.5,0.5-0.7c0.4-0.4,0.9-0.8,1.4-1.1l0,0c-0.2,0.2-0.4,0.5-0.5,0.7
			c-0.2,0.2-0.4,0.5-0.6,0.7c-0.4,0.4-0.8,0.9-1.3,1.2c-1.8,2.1-3.7,4.2-5.5,6.3c-0.1,0-0.1-0.1-0.2-0.1l0,0
			C132.1,84,132.1,83.9,132.2,83.8z M131.4,84.5L131.4,84.5c0.1,0.1,0.2,0.2,0.2,0.2c0,0.1,0,0.2-0.1,0.3c0,0.1,0,0.2-0.1,0.2
			c-0.1,0.2-0.4,0.3-0.9,0.2C130.9,85,131.1,84.7,131.4,84.5z M122.8,83l0.5,0.2c0,0.1,0,0.1-0.1,0.2c-0.2,0-0.4-0.1-0.6-0.1l0,0
			C122.7,83.2,122.7,83.1,122.8,83z M112.7,114c-0.1,0-0.2,0-0.4-0.1l0,0c0.1-0.5,0.3-1.1,0.4-1.7c0.1,0,0.2,0,0.2,0
			C112.8,112.9,112.8,113.5,112.7,114z M113.3,110.9c0,0.1-0.1,0.2-0.1,0.4l0,0c0,0-0.1,0-0.2,0c0-0.2,0.1-0.5,0.1-0.7l0,0h0.1
			c0.1,0,0.1,0,0.1,0l0,0C113.4,110.6,113.4,110.7,113.3,110.9z M113.7,104.7L113.7,104.7C113.7,104.7,113.6,104.7,113.7,104.7
			L113.7,104.7c-0.2-0.1-0.2-0.2-0.3-0.2l0,0c0.2-0.2,0.4-0.4,0.5-0.6l0,0l0,0c0,0,0.1,0.1,0.2,0.1l0,0c-0.1,0.1-0.1,0.2-0.2,0.3
			C113.8,104.5,113.7,104.6,113.7,104.7z M114.2,108.1L114.2,108.1C114.2,108.1,114.1,108.1,114.2,108.1c-0.1-0.1-0.1-0.1-0.2-0.1
			l0,0c0.1-0.3,0.2-0.7,0.4-1c0.1,0.1,0.2,0.1,0.3,0.2C114.4,107.5,114.3,107.8,114.2,108.1z M114.9,100.9c-0.1,0.1-0.2,0.2-0.3,0.4
			c-0.1,0-0.1-0.1-0.2-0.1c0.1-0.1,0.2-0.2,0.3-0.4C114.8,100.8,114.9,100.8,114.9,100.9L114.9,100.9z M129.4,86.6
			c0.3-0.3,0.6-0.5,0.9-0.8l0,0c-0.1,0.3-0.2,0.6-0.3,0.8c0,0.1-0.1,0.1-0.1,0.2c-0.2,0.2-0.3,0.4-0.6,0.5h-0.1
			c-0.2,0.1-0.3,0.1-0.6,0.2C128.9,87.1,129.1,86.9,129.4,86.6z M127.3,88.5c0.1-0.1,0.2-0.2,0.4-0.3c0.1-0.1,0.2-0.2,0.4-0.3
			c0,0.1,0,0.2,0,0.4c0,0.1,0,0.1,0,0.2c0,0,0,0,0,0.1s0,0.1-0.1,0.1l-0.1,0.1l0,0h-0.1h-0.1l0,0l0,0h-0.1l0,0
			C127.5,88.6,127.4,88.6,127.3,88.5L127.3,88.5z M125.1,91.6L125.1,91.6c-0.1-0.1-0.2-0.2-0.2-0.2l0,0c0.3-0.2,0.5-0.4,0.8-0.6
			c0,0.1,0.1,0.1,0.2,0.2C125.6,91.2,125.4,91.4,125.1,91.6z M128.6,96.9L128.6,96.9c-0.2,0.1-0.3,0.1-0.5,0.1
			c-0.5-0.1-0.9-0.2-1.5-0.3c0.3-0.3,0.6-0.5,0.7-0.6c0.4,0.1,0.6,0.2,0.9,0.3c0.1,0,0.2,0.1,0.2,0.2c0.1,0.1,0.1,0.2,0.2,0.2l0,0
			C128.6,96.8,128.6,96.9,128.6,96.9z M131.1,96.9h-0.2v-0.1c0,0,0,0,0-0.1c0,0,0-0.1,0-0.2h0.3C131.2,96.7,131.2,96.8,131.1,96.9z
			 M131.7,94.8c-0.1,0-0.1,0.1-0.1,0.1l0,0c-0.1,0-0.1,0.1-0.1,0.1l0,0c0,0,0,0-0.1,0c-0.3-0.1-0.6-0.1-0.8-0.4c0.2,0,0.4,0,0.6,0.1
			C131.2,94.7,131.4,94.7,131.7,94.8L131.7,94.8z M131.9,93.8c-0.2,0.1-0.4,0.2-0.6,0.3l0,0c0-0.1-0.1-0.1-0.1-0.2l0,0
			c0.2-0.1,0.4-0.1,0.6-0.2C131.9,93.7,131.9,93.7,131.9,93.8L131.9,93.8z M135.6,96.6L135.6,96.6c-0.2,0.1-0.2,0.1-0.3,0.2h-0.1
			c-0.1,0-0.2-0.2-0.4-0.2c0-0.1,0.1-0.2,0.1-0.3l0,0c0.1,0,0.3,0,0.4,0.1c0.1,0,0.2,0,0.2,0l0,0C135.6,96.4,135.6,96.5,135.6,96.6
			L135.6,96.6z M136.4,94.6c-0.4-0.1-0.7-0.2-1.1-0.3c0-0.1,0-0.1,0-0.2l0,0c0.2,0,0.4,0.1,0.5,0.1c0.2,0,0.4,0.1,0.5,0.1l0,0
			C136.4,94.4,136.4,94.5,136.4,94.6z M138.1,94.5c-0.2,0.1-0.3,0.2-0.5,0.4l-0.2,0.1l0,0c0-0.1,0-0.2,0.1-0.3v-0.1l0.1-0.1
			c0.1,0,0.2-0.1,0.3-0.1C137.9,94.5,138.1,94.5,138.1,94.5L138.1,94.5z M140.6,96.1c0,0.2,0,0.4,0,0.5l0,0l0,0c-0.1,0-0.1,0-0.2,0
			l0,0c0-0.2,0-0.4,0-0.5l0,0H140.6L140.6,96.1L140.6,96.1z M144.8,97.8L144.8,97.8c-0.4-0.1-0.8-0.2-1.3-0.3l0,0c0-0.1,0-0.1,0-0.2
			l0,0c0.5,0.1,0.9,0.2,1.3,0.3C144.9,97.7,144.9,97.7,144.8,97.8z M147.4,98.5c-0.3-0.1-0.6-0.1-0.9-0.2c0-0.1,0-0.1,0-0.2l0,0
			C146.8,98.2,147.1,98.3,147.4,98.5C147.4,98.4,147.4,98.5,147.4,98.5z M147.9,97.5c-1.4-0.4-2.8-0.9-4.1-1.3
			c0-0.1,0.1-0.2,0.1-0.3c0.4,0,0.7,0.1,1.1,0.2c0.3,0.1,0.5,0.1,0.8,0.2c0.1,0,0.3,0.1,0.4,0.1c0.3,0.1,0.5,0.2,0.8,0.3
			c0.4,0.1,0.7,0.3,1.1,0.4l0,0C148.1,97.3,147.9,97.4,147.9,97.5z M154.6,101.4c0-0.1,0.1-0.2,0.1-0.2l0,0c0.2,0.1,0.3,0.1,0.5,0.2
			s0.3,0.1,0.5,0.2l0,0v0.1c0,0,0,0.1-0.1,0.2C155.2,101.7,154.9,101.5,154.6,101.4L154.6,101.4z M160.9,82.7c0,0,0.1,0,0.2,0h0.1
			l0,0c0.1,0.6,0.2,1.2,0.3,1.8c0,0.2,0.1,0.4,0.1,0.6h-2C160.1,84.3,160.4,83.5,160.9,82.7z M163.2,94.9c0,0.1-0.1,0.1-0.1,0.2
			c-0.2-0.1-0.4-0.1-0.6-0.2h-0.1c-0.2,0-0.3-0.1-0.5-0.2c-0.1,0-0.2-0.1-0.3-0.1s-0.2-0.1-0.2-0.1s0,0-0.1,0
			c-0.2-0.1-0.4-0.2-0.6-0.3c-0.2-0.1-0.4-0.2-0.6-0.4c-0.3-0.2-0.6-0.3-0.8-0.5c-0.5-0.3-1-0.6-1.4-1c-0.2-0.2-0.5-0.3-0.7-0.5l0,0
			l0,0c0.4,0,0.8-0.1,1.2-0.1s0.8-0.1,1.2-0.1c0.8-0.1,1.6-0.2,2.5-0.3c0.5,1.2,1,2.4,1.4,3.5l0,0C163.4,94.8,163.2,94.9,163.2,94.9
			z"/>
		<path d="M244.2,102.8L244.2,102.8c0.1,0,0.1,0,0.2-0.1C244.4,102.7,244.2,102.8,244.2,102.8z M241.1,99.1c0,0.1,0.1,0.1,0.1,0.2
			l0,0C241.1,99.2,241.1,99.2,241.1,99.1z M237.1,97.9c0.1-0.1,0.2-0.2,0.4-0.3l0,0C237.2,97.7,237.2,97.8,237.1,97.9z M236.8,96.6
			L236.8,96.6c0,0,0.1,0,0.2,0.1C236.9,96.6,236.8,96.6,236.8,96.6z M236.8,96.4C236.8,96.4,236.8,96.5,236.8,96.4
			C236.8,96.5,236.8,96.4,236.8,96.4L236.8,96.4z M233.6,94.4L233.6,94.4c0,0,0.1,0,0.2-0.1C233.7,94.3,233.7,94.3,233.6,94.4z
			 M233.2,95.4c0.3,0.1,0.4,0,0.5,0C233.8,95.4,233.6,95.4,233.2,95.4z M232.4,94.1c-0.1,0-0.2,0-0.2,0.1
			C232.2,94.2,232.4,94.1,232.4,94.1L232.4,94.1z M229.8,112.1L229.8,112.1c0.2,0,0.5-0.1,0.7-0.2
			C230.2,112,230.1,112.1,229.8,112.1z M229.4,92.5c0.1,0.2,0.2,0.3,0.3,0.4l0,0C229.7,92.8,229.6,92.7,229.4,92.5z M229.2,114.1
			c0-0.1,0-0.2-0.1-0.2C229.2,113.9,229.2,114,229.2,114.1c0.1,0,0.2,0,0.3,0C229.4,114,229.2,114,229.2,114.1z M228.1,89.8
			C228.1,89.8,227.9,89.8,228.1,89.8C227.9,89.8,228.1,89.8,228.1,89.8L228.1,89.8z M225.1,114.6c0,0.1,0.1,0.2,0.1,0.2l0,0
			C225.2,114.7,225.1,114.7,225.1,114.6z M224.8,114.8L224.8,114.8c0,0.1,0,0.1,0.1,0.1L224.8,114.8z M223.1,113.1L223.1,113.1
			L223.1,113.1C223.1,113.2,223.1,113.2,223.1,113.1z M223.1,113.1C223.1,113.1,222.9,113.1,223.1,113.1
			C222.9,113.1,223.1,113.1,223.1,113.1L223.1,113.1z"/>
		<path d="M291.3,88c0,0,0.1,0,0.2,0l0,0C291.5,88,291.4,88,291.3,88z M291.3,88.4L291.3,88.4c0.1,0,0.2,0,0.3,0
			C291.5,88.4,291.4,88.4,291.3,88.4z"/>
		<path d="M247.8,53.2c0.1,0.1,0.1,0.2,0.2,0.3l0,0C247.9,53.4,247.8,53.3,247.8,53.2z M247.7,54.8L247.7,54.8
			c0-0.2,0.1-0.4,0.1-0.6C247.8,54.4,247.7,54.6,247.7,54.8z M247.4,53c0.1,0.2,0.1,0.4,0.2,0.6l0,0C247.6,53.4,247.4,53.2,247.4,53
			z M244.6,48.5L244.6,48.5h0.1H244.6z M244.7,48h-0.1C244.6,48,244.6,48,244.7,48c0,0.1,0,0.2,0,0.3
			C244.7,48.2,244.7,48.1,244.7,48z M244.4,48L244.4,48c0,0.2,0.1,0.3,0.1,0.5C244.4,48.3,244.4,48.2,244.4,48z M244.2,62.2
			c0,0.1-0.1,0.1-0.1,0.2C244.1,62.3,244.1,62.2,244.2,62.2L244.2,62.2L244.2,62.2z M243.8,66.9L243.8,66.9c0-0.1,0-0.2,0.1-0.3
			C243.9,66.7,243.9,66.8,243.8,66.9z M242.8,70.7c0,0.1-0.1,0.2-0.1,0.3l0,0l0,0C242.7,70.9,242.8,70.8,242.8,70.7z"/>
		<path d="M198.1,80.7c-0.6,2.4-1.1,4.7-1.1,7.2c0,0.1,0,0.2-0.1,0.4c-0.4,1.7-0.7,3.4-1.2,5.1c-0.1,0.5-0.5,0.9-0.8,1.5
			c0,0,0.2,0.2,0.3,0.4c-0.2,0.9-0.5,1.7-0.6,2.6c-0.2,1.4-0.2,2.8-0.4,4.2c-0.2,1.5-0.9,2.3-2.4,2.6c-0.4,0.1-0.9,0.4-1.3,0.3
			c-0.7-0.1-1.2-0.5-1.6-1.2c-1-1.9-0.4-3.7,0-5.5c0.6-2.7,1.5-5.3,1.5-8.1c0-0.2,0-0.5,0.1-0.7c0.7-1.7,1-3.5,1.2-5.3
			c0.2-1.9,0.6-3.8,1-5.7c0.2-0.8,0.6-1.6,1-2.4s0.9-1.3,1.9-0.9c0.2,0.1,0.5,0,0.8,0c0.3,0.8,1.1,0.7,1.8,1.1
			C198.6,77.7,198.4,79.2,198.1,80.7z"/>
		<path d="M222.9,57.3c-0.1,0.3-0.2,0.6-0.3,0.8c-0.4,0.7-0.8,1.3-1.2,2l0,0c-0.5,0.1-0.4,0.6-0.4,1c-0.1,0.1-0.1,0.3-0.2,0.4
			c0,0.1-0.1,0.3-0.1,0.4c-0.1,0.2-0.1,0.5-0.2,0.7h-0.1c-0.1,0-0.2,0-0.3,0l0,0l0,0c-0.1,0.1-0.2,0.3-0.3,0.5s-0.2,0.3-0.3,0.5
			h-0.4c0.1-0.4,0.3-0.8,0.3-1.2c0-0.2-0.1-0.4-0.2-0.9c0.9-1.3,1.9-2.8,3-4.2C222.4,57.2,222.6,57.2,222.9,57.3z"/>
		<path d="M219.6,63c-0.1,0.2-0.2,0.3-0.2,0.5l0,0C219.4,63.3,219.6,63.2,219.6,63z"/>
		<path d="M234.9,48.7c0,0.2,0.1,0.4,0.2,0.8c-0.2,0.1-0.3,0.2-0.5,0.3c-0.2-0.6-0.8-1.1-0.4-1.6c1.1-0.2,2.1-0.4,3-0.6
			C236.7,48.1,236.4,48.2,234.9,48.7z"/>
		<path d="M108.8,110c-0.7,0-1.2,0.9-2,0.3c0.1-0.5,0.1-1,0.2-1.6c0.1,0,0.2,0,0.3,0C107.8,109.1,108.2,109.5,108.8,110z"/>
		<path fill="#FFFFFF" d="M163.6,107.1c-0.6,0-0.9,0-1.2,0.1c-0.4-0.2-0.8-0.4-1.3-0.6c-0.2-0.2-0.5-0.4-0.8-0.6
			C161.7,105.6,162.4,106.5,163.6,107.1z"/>
		<path d="M219.1,60.1c-0.5,0.9-0.9,1.8-1.5,2.8C217.4,61.6,217.6,61.2,219.1,60.1z"/>
		<path d="M233.9,50.1c-0.5,0.4-0.9,0.6-1.2,0.9c0,0-0.1-0.1-0.2-0.1c0.1-0.2,0.2-0.4,0.2-0.6c-0.4,0.1-0.7,0.3-1.1,0.4
			c-0.1-0.3-0.2-0.6-0.4-1c0.2-0.1,0.4-0.1,0.6-0.2c0.4,0,0.7,0,1.1-0.1c-0.1-0.2-0.1-0.5-0.2-0.7c0.1-0.2,0.2-0.3,0.4-0.6
			c0.2,0.5,0.4,0.8,0.6,1.2c-0.2,0.1-0.4,0.1-0.6,0.2v0.1C233.2,49.8,233.4,49.9,233.9,50.1z"/>
		<path fill="#FFFFFF" d="M159.8,105.6c-0.5,0-0.8-0.1-1.1-0.1c-0.2-0.1-0.4-0.2-0.6-0.2c0-0.2,0-0.3,0.1-0.5c0.3,0,0.6-0.1,0.9-0.1
			C159.2,104.9,159.4,105.2,159.8,105.6z"/>
		<path d="M226.4,54c-0.8,0.7-1.1,0.2-1.6-0.3c0.2-0.2,0.4-0.4,0.6-0.5c0.2-0.1,0.3-0.3,0.4-0.4L226,53c-0.2,0.1-0.4,0.2-0.5,0.3
			C225.9,53.5,226.2,53.8,226.4,54z"/>
		<path d="M293,79.3c-0.1,0.5-0.1,1.1-0.2,1.7c-0.4,0-0.6,0-0.8,0l0,0c0.3-0.6,0.6-1.1,0.8-1.7C292.8,79.2,292.9,79.2,293,79.3z"/>
		<path d="M239.7,46.9c-0.3,0.5-0.4,0.8-0.7,1.3c-0.3-0.4-0.4-0.6-0.6-1C238.8,47.2,239.1,47.1,239.7,46.9z"/>
		<path d="M240.9,46.2c-0.2,0-0.3,0.1-0.6,0.1c-0.1-0.4-0.2-0.7-0.3-1.2C240.6,45.3,240.8,45.7,240.9,46.2z"/>
		<path d="M149.6,101.5c-0.4-0.1-0.8-0.2-1.1-0.3C149.1,100.8,149.2,101.1,149.6,101.5z"/>
		<path d="M292.2,82.5c-0.1-0.4-0.2-1-0.3-1.6l0,0c-0.4,1.1-1.4,1.9-1.3,3.1c0,0.1-0.1,0.2-0.1,0.3c-0.5,0.6-0.5,1.4-0.5,2.1
			c0,0.5,0,1-0.2,1.5c-0.3,0.8-0.8,1.4-1.2,2.2c-0.8,1.6-1.5,3.1-2.2,4.7c0,0.1,0,0.2,0,0.4c-0.4,1.4-1,2.6-2,3.6
			c-0.4,0.3-0.8,0.6-1.3,0.1c0.1-1.6,0.2-3.2,0.2-4.7c-0.3-0.2-0.5-0.2-0.5-0.2c0-1.4,0.1-2.6,0-3.8c0-0.7-0.1-1.6-0.6-2
			c-0.6-0.6-0.7-1.2-0.8-1.8c0-0.2-0.2-0.3-0.3-0.7c-0.4,0.7-0.8,0.9-1.4,0.5c-0.2-0.5-0.4-0.9-1-0.5c-0.5,0.1-0.8,0.3-1,0.8
			c-0.1,0.2-0.2,0.5-0.3,0.7c-0.8,1.1-1.6,2.1-2.4,3.1c-0.3,0.4-0.7,0.8-1.2,1.4c1.2-3.7,2.2-7.1,3.3-10.5c0.7-0.2,1.3-0.3,1.9-0.5
			c0-0.1-0.1-0.2-0.1-0.2c0.4-0.3,0.7-0.6,1.1-1c0.6-0.4,1.2-0.9,1.8-1.3c0.1-0.1,0.3-0.2,0.4-0.4c0.5-0.4,1-0.8,1.5-1.2
			c0,0,0-0.1,0.1-0.2c-0.2,0-0.4,0-0.6,0v-0.7H281c0.3-0.4,0.5-0.6,0.7-1c-0.8-0.1-1.5-0.2-2.3-0.4c0,0.1-0.1,0.2-0.1,0.2
			c-0.5,0.1-0.8,0.1-1.1,0.2c-0.8,0.3-1.6,0.7-2.4,1s-1.6,0.4-2.4,0.6c-0.9,0.2-1.8,0.6-2.6,0.6c-2.9,0.2-5.7,0.8-8.3,1.5
			c-0.4,0.8-0.8,1.4-1.1,2l-0.1,0.1c0,0.9-0.1,1.8-0.1,2.7c0.5,0.4,1,0.8,1.3,1.1c0.8,0,1.4,0,2,0c0.7,0,1.3,0,2-0.1
			c0.6-0.1,1.2-0.2,1.8-0.4c0.5-0.1,1.1-0.2,1.8-0.4c-0.6,1.7-1.2,3.2-1.7,4.7c-0.3,0.9-0.7,1.9-1.1,2.8c-0.5,1.2-1,2.3-1.5,3.5
			c-0.3,0.7-0.6,1.3-0.9,1.9c-0.2,0.5-0.4,1-0.7,1.5c-0.6,1.3-1.2,2.5-1.9,3.8c-0.6,1.1-0.6,2,0.4,2.8c-0.1,0.5-0.1,0.9-0.2,1.4
			c0.5-0.1,0.9-0.1,1.2-0.2c0.1,0.1,0.2,0.3,0.3,0.5c0.8-0.5,1.5-0.9,2.4-0.8c0.2,0,0.4-0.2,0.5-0.3c1.1-1.2,2.1-2.4,3.2-3.5
			c0.1-0.4,0.1-0.8,0.3-1.1c0.7-1.1,1.5-2.1,1.4-3.6c0-0.1,0.1-0.2,0.1-0.2c0.3-0.9,0.9-1.8,0.9-2.8c0-0.2,0.2-0.5,0.3-0.7
			c1-1.1,2-2.3,3-3.4c0.2-0.2,0.4-0.2,0.9-0.5c-0.3,0.8-0.5,1.4-0.8,2.1c0.4-0.1,0.7-0.1,1.1-0.2c0.1,1,0.4,1.8,0.4,2.7
			c0.1,1.5-0.1,3.1,0.1,4.6c0.1,1.5,0.2,3.1,0.9,4.6c-0.7,1.7,0.9,2.6,1.4,4c0.5,0,1,0.1,1.6,0.1c0.2,0.2,0.4,0.4,0.5,0.6
			c2-0.4,3.3-1.7,4.5-3c0.8-0.8,1.3-1.7,2-2.5c1.1-1.2,1.9-2.6,2.6-4.1c0.7-1.4,0.7-3.1,1.8-4.3c0.2-0.2,0.2-0.6,0.3-0.9
			c0.1-0.7,0.1-1.3,0.1-2c0.3-0.2,0.6-0.4,0.8-0.5c0.2-1,0.3-1.9,0.4-2.8C295.2,85.3,294.4,83.6,292.2,82.5z M291.3,88.4V88
			c0,0,0.1,0,0.2,0l0,0c0,0.1,0.1,0.3,0.1,0.4C291.5,88.4,291.4,88.4,291.3,88.4z"/>
		<path d="M227.4,51.7c-0.2,0.2-0.3,0.5-0.5,0.7C226.7,51.9,226.8,51.7,227.4,51.7z"/>
		<path d="M147.7,100.6c0,0.1,0,0.2,0,0.3c-0.3-0.1-0.6-0.2-0.9-0.3c0-0.1,0.1-0.2,0.1-0.2C147.1,100.4,147.4,100.5,147.7,100.6z"/>
		<path d="M261.9,76.2c0.1-0.6-0.1-1.3-0.2-2c-1.1-0.6-1.9-2.2-3.6-1.9c-1.1,1.4-1.8,2.9-2.2,4.5c-0.5,2.2-1,4.4-1.5,6.5
			c-0.6,2.3-1.2,4.7-1.9,7c-0.3,1.2-0.5,2.4-1,3.6c-0.6,1.4-1.1,2.8-1.2,4.4c-0.1,0.7-0.4,1.3-0.6,2c-0.6-0.6-1.2-0.9-1.6-1.5
			c-0.5-0.8-1.4-1.1-2.2-1.6c-0.7-0.4-1.3-1.2-2-1.7c-0.1-0.1-0.4-0.1-0.6-0.1c-0.1,0-0.3,0-0.4,0c-1-0.6-2-1.3-3.1-1.9
			c-0.5-0.3-1-0.5-1.4-0.7l-0.1,0.1c-0.1-0.2-0.2-0.4-0.3-0.6c-0.2,0.1-0.5,0.1-0.7,0.2c-0.6-1-0.6-1-2.4-1.4
			c-0.5-0.5-0.9-1-1.3-1.5c-0.4,0.3-0.6,0.4-0.7,0.5c-0.5-0.6-0.9-1.2-1.3-1.7c-0.4-0.5-1-0.9-1.7-0.8c-0.4-1.4-0.7-1.4-1.8-1.5
			c-0.2-1-1.7-1.9-2.5-2.4c-0.5-0.7-0.9-1.2-1.3-1.7c-1.3-1.4-2.2-3.1-3-4.8c-0.9-1.8-1.1-3.8-1.2-5.8c0-1.6-0.1-3.2,0.7-4.6
			c0.1-0.2,0.1-0.6,0.1-0.9c0-0.2,0-0.4,0.1-0.6c0.5-0.8,1-1.5,1.5-2.3c0.5-0.9,1-1.8,1.5-2.8c-0.1,0-0.1-0.1-0.2-0.1
			c-0.2,0.2-0.4,0.4-0.6,0.6c-0.1-0.1-0.1-0.1-0.2-0.2c0.5-0.6,1-1.3,1.5-1.9c0.3,0,0.5,0,0.7,0.1c0.7-0.8,1.2-1.7,2-2.2
			c0.5-0.4,0-1,0.8-1.3c0.5-0.2,0.9-0.8,1.4-1.3c-0.1-0.1-0.2-0.3-0.3-0.4c0.6-0.4,1.1-0.7,1.7-1.1c0-0.1-0.1-0.3-0.1-0.5
			c0-0.5,0.9-0.6,0.4-1.3c-1.1,0.4-1.4,1.4-1.9,2.3c-0.1-0.3-0.2-0.4-0.5-0.9c-0.7,0.8-1.2,1.4-1.7,2c-0.7,0.8-1.3,1.8-2.4,2.3
			c-0.1,0.2-0.2,0.4-0.4,0.6c-0.1,0-0.1,0-0.2,0c0-0.2,0.1-0.5,0.1-0.8c0-0.1-0.1-0.1-0.2-0.2c0-0.2,0.1-0.5,0.1-0.7
			c-0.1,0-0.2-0.1-0.3-0.1c-0.1,0.2-0.2,0.5-0.3,0.7h-0.8c0.1,0.3,0.2,0.6,0.3,0.8c0.3,0.3,0.6,0.5,0.9,0.9c-0.8,1-1.5,1.9-2.2,2.8
			c-0.2,0.4-0.3,0.7-0.5,1.1c-0.2,0.4-0.3,0.7-0.5,1.1c0,0,0,0,0,0.1c0,0,0,0-0.1,0h-0.1c0,0-0.1,0-0.2-0.1c0,0,0,0-0.1-0.1v-0.1
			h-0.1c-0.1,0.2-0.2,0.4-0.3,0.6l-0.1,0.1l-0.1,0.1c0,0-0.1,0.1-0.2,0.1s-0.1,0-0.2,0h-0.1c-0.8-0.1,0.2-0.8-0.4-1.1
			c-0.4,0.9-0.8,1.7-1.3,2.5c-0.4,0.8-0.1,1.8-0.8,2.5c-0.1-0.3,0-0.7,0-1c0-0.2-0.2-0.3-0.4-0.5c0,0.3-0.1,0.7-0.1,1
			c-0.1,0-0.2,0-0.2-0.1c0.1-0.3,0.2-0.7,0.3-1c1.2-0.5,0.9-1.7,1.4-2.8c-0.8,0.5-1.3,0.8-1.6,1.5c-0.9,2.2-1,4.5-1.2,6.8
			c-0.1,2,0,2-1.5,3.1c-0.2,0.1-0.3,0.2-0.5,0.4c-1.9,1.5-3.7,3.1-6,4c-1,0.4-1.8,1-2.8,1.5c-0.3,0.2-0.7,0.3-1,0.3
			c-0.7-0.1-1.1,0.2-1.5,0.7c-0.3,0.5-0.7,1-1,1.6c-1.2,0.2-1.5,0.7-1.5,1.9c0,0.8-0.1,1.6-0.2,2.4c0,0.3-0.1,0.6-0.2,0.8
			c-0.1,0.8-0.2,1.7-0.4,2.5c-0.1,0-0.1,0-0.2,0c0.1,0.3,0.2,0.5,0.2,0.8c-0.3,0.5-0.5,0.9-0.8,1.3c0.4,2.6,0.5,2.1-0.5,5.2
			c-0.2,0.5-0.5,1-0.5,1.5c-0.1,1.3-1,2.8,0.7,3.8c-0.3,1.1-0.2,1.3,0.6,1.8c1.4,0.9,2.7,0.7,4.2,0.1c0.9-0.4,1.8-0.6,2.6-1.1
			c1.6-0.9,3.2-1.8,4.9-2.6c1.1-0.5,2-1.3,3-1.9c1.4-0.7,2.8-1.4,4.2-2c0.1-0.7,0.1-1.2,0.2-1.6c0.4-0.2,0.8-0.3,1.3-0.5
			c-0.4-0.4-0.6-0.7-0.8-0.9c-0.6,0.1-1.1,0.2-1.6,0.3c0.1-0.6,1-0.6,0.4-1.3c-0.5,0.1-1.1,0.1-1.7,0.2c0-0.2,0-0.4,0.1-0.5
			c-0.9,0.3-1.6,0.5-2.3,0.7c-0.4,0.2-0.8,0.4-1.2,0.7c-0.2,0.1-0.3,0.2-0.4,0.4c-0.6,0.8-1.5,1.2-2.4,1.5c-0.5,0.1-1,0.3-1.5,0.5
			c-0.8,0.3-1.4,0.8-2.3,0.7c0-0.3,0-0.5,0-0.8c-0.5,0.5-0.7,1.2-1.7,0.8c0-0.3-0.2-0.7-0.1-1c0.4-1.3,0.9-2.6,1.3-4
			c0.5,0.1,0.9,0.2,1.2,0.3c1,0.3,3.5-0.7,4-1.7c0.1-0.2,0.1-0.4,0.2-0.6c0.3-1.2-0.1-2.3-0.7-3.3c-1.1-0.1-2.2-0.2-3.3-0.3
			c0.5-1.3,4-4.3,5.2-4.7c1.2-1.2,2.3-2.2,3.3-3.1c0.2,0.2,0.4,0.3,0.5,0.4c0.2-0.3,0.3-0.5,0.5-0.8c0.8,0.1,1.2,0.4,1.4,1.1
			c0.5,1.9,1.8,3.3,2.7,5c0.2,0.3,0.6,0.6,0.9,0.8c0.8,0.6,1.7,1.1,2.3,1.9c1.1,1.4,2.5,2.3,3.8,3.4c0.2,0.2,0.5,0.1,0.8,0.2
			c-0.1-0.4-0.3-0.8-0.5-1.2c-0.3-0.2-0.5-0.5-0.8-0.7c0,0,0.1,0,0.2,0c0.1,0,0.1,0,0.2,0h0.1c0,0,0.1,0,0.1,0.1c0,0,0.1,0,0.1,0.1
			c0.1,0.1,0.1,0.2,0.2,0.4c0,0,0,0.1,0.1,0.1c0.5,0.1,1.1,0.2,1.5,0.3c0.3,0.5,0.5,0.8,0.8,1.3h-1.3c0.2,0.7,0.7,1.2,1.4,1.5
			c1.6,0.7,3,1.7,4.3,2.8c0.2,0.2,0.5,0.2,0.8,0.3c0-0.2,0-0.4,0-0.6c0.4,0.3,0.4,0.3,0.1,0.7c0.2,0.2,0.3,0.4,0.5,0.6
			c1.2-0.7,0.1-1.5,0.4-2.5c0.4,0.7,0.7,1.2,1,1.7c-0.1,0.3-0.2,0.6-0.3,0.8c0.2,0.1,0.5,0.2,0.6,0.3c0.5,1,1.4,1.4,2.4,1.7
			c0.6,0.2,1.1,0.6,1.7,0.9c0.8,0.5,1.6,1.4,2.7,1.3c0.2,0.2,0.5,0.3,0.7,0.5c0.1,0.4,0.3,0.7,0.8,0.7c0-0.2,0.1-0.3,0.1-0.6l0,0
			l0.1,0.1c0.1,0.1,0.1,0.1,0.1,0.2s0,0.2-0.1,0.2c0,0,0,0-0.1,0c0,0-0.1,0-0.2,0.1c0.2,0.9-0.7,1-1.1,1.5c0.1,0.2,0.1,0.3,0.2,0.5
			h-0.8c-0.3,0.5-0.7,0.9-1.2,1.2c-1,0.4-2.1,0.8-3.1,1.2c-0.9,0.3-1.8,0.6-2.7,0.9c-0.8,0.3-1.6,0.7-2.4,0.8c-0.5,0-0.5,0.6-1,0.6
			s-1,0.2-1.6,0.3c-0.6,0.2-1.1,0.4-1.7,0.5c-1.1,0.3-2.1,0.8-3,0.4c-0.8,0.4-1.5,0.8-2.2,1.2c-0.3-0.2-0.5-0.5-0.7-0.6
			c-0.3,0.2-0.5,0.5-0.8,0.6c-1.1,0.2-2.2,0.4-3.2,0.6c-1.1,0.2-2.1,0.2-3.2,0.5c-0.6,0.1-1.1,0.5-1.7,0.8c-0.4-0.5-0.9-0.9-1.3-1.4
			c-0.3,0.1-0.7,0.2-1.1,0.3c-0.1-0.3-0.2-0.5-0.2-0.7c-0.7,0.4-1.3,0.7-1.9,1c0.1,0.2,0.1,0.4,0.2,0.5c-0.3,0.1-0.5,0.2-1.1,0.3
			c0.6,0.4,1,0.5,1.3,0.7c-0.2,0.9-1.2,0.3-1.7,1c0.8,0.3,1.5,0.6,2.1,0.9c0.2,0.3,0.3,0.6,0.5,0.8c1.1,0.1,2.1,0.2,3.1,0.2
			c0.1-0.2,0.1-0.4,0.2-0.7h3c0,0,0.2,0.2,0.3,0.3c0.4-0.3,0.7-0.6,1-0.6c1.3-0.2,2.7-0.4,4-0.6c1.1-0.2,2.2-0.3,3.2-0.5
			c1.5-0.2,3-0.5,4.5-0.8c0.4-0.1,0.8,0.2,1.4-0.1c0.9-0.5,1.9-0.6,2.9-0.8c0.2,0,0.4,0.2,0.7,0.2c0.4-0.5,0.9-0.9,1.6-0.7
			c0.1,0,0.3,0,0.3,0c0.6-1,1.8-0.1,2.5-0.7c1.1,0.9,1-0.3,1.3-0.9c0.4,0.1,0.9,0.2,1.4,0.3c0.1-0.2,0.1-0.5,0.3-0.8
			c1.3,1,1.9-0.8,2.9-0.5c0-0.3,0.1-0.4,0.1-0.5c2.8-1,4.5-2.9,5.8-5.5c0.2,0.3,0.3,0.5,0.4,0.6c1-0.2,2-0.4,3-0.6
			c0.8-1.5,0.4-3.3,1.3-4.9c-0.4-1.1,0.2-2,0.4-3c0.4-2.4,1.8-4.6,2.1-7.1c0.1-0.8,0.2-1.7,0.8-2.3c0.3-0.3,0.4-0.8,0.5-1.2
			c0.4-1.5,0.7-3,1.1-4.5c0.1-0.3,0.4-0.5,0.5-0.7l0.1-0.1c-0.3-0.5-0.2-0.9,0-1.4C261.6,78.2,261.8,77.2,261.9,76.2z M226.9,54.8
			c0.1,0,0.1,0.1,0.2,0.1l0,0c-0.2,0.2-0.4,0.5-0.5,0.7c0,0-0.1,0-0.3-0.1C226.6,55.3,226.8,55.1,226.9,54.8z M216.6,69
			c-0.1,0.4-0.1,0.7-0.2,1c-0.1,0-0.2,0-0.2-0.1c0.1-0.3,0.2-0.7,0.2-1l0,0C216.4,69,216.4,69,216.6,69L216.6,69z M218.4,64.7
			c-0.1,0-0.1-0.1-0.2-0.1l0,0c0.1-0.2,0.2-0.4,0.2-0.6c0.1,0,0.1,0,0.2,0.1C218.4,64.3,218.4,64.5,218.4,64.7z M228.4,90.2
			L228.4,90.2c-0.2-0.1-0.3-0.1-0.5-0.2c0.1-0.1,0.1-0.1,0.1-0.2c0,0,0,0,0-0.1l0,0c0.1,0.1,0.3,0.2,0.4,0.3
			C228.4,90.1,228.4,90.2,228.4,90.2z M230.1,92.8c-0.1,0-0.2,0.1-0.3,0.1l0,0c-0.1-0.1-0.2-0.3-0.3-0.4c-0.1-0.2-0.2-0.3-0.4-0.5
			c0.4,0,0.7-0.1,0.7,0l0,0c0,0.1,0.1,0.1,0.1,0.2c0.1,0.1,0.1,0.3,0.2,0.5C229.9,92.7,229.9,92.8,230.1,92.8L230.1,92.8z
			 M232.2,94.2c-0.2,0.1-0.4,0.1-0.6,0.1c-0.1,0-0.2,0-0.2,0l0,0c0,0,0,0-0.1,0c-0.2-0.1-0.3-0.3-0.4-0.6c0-0.1-0.1-0.2-0.1-0.4
			c0.4,0.2,0.8,0.4,1.2,0.7c0.1,0.1,0.3,0.2,0.4,0.2l0,0C232.4,94.1,232.2,94.2,232.2,94.2z M233.8,95.3c-0.1,0.1-0.2,0.1-0.5,0
			c-0.1,0-0.3-0.1-0.5-0.1c0.1-0.2,0.2-0.3,0.3-0.6c0.3,0.1,0.5,0.3,0.7,0.4C233.9,95.2,233.9,95.3,233.8,95.3z M233.4,94
			c0.1,0,0.1,0,0.2-0.1l0.1,0.3c0,0-0.1,0.1-0.2,0.1l0,0C233.6,94.2,233.4,94.2,233.4,94z M234.4,91.3L234.4,91.3
			c-0.7,0.4-0.7,0.4-1.3-0.2c0.3,0,0.6,0.1,0.9,0.2C234.2,91.2,234.2,91.3,234.4,91.3L234.4,91.3z M236.8,96.6
			C236.8,96.5,236.8,96.5,236.8,96.6c0-0.1,0-0.1,0-0.2l0,0c0.1,0,0.2,0.1,0.3,0.1c0,0.1,0,0.1-0.1,0.2
			C236.9,96.7,236.9,96.7,236.8,96.6C236.9,96.6,236.8,96.6,236.8,96.6L236.8,96.6z M237.4,97.7c-0.1,0.1-0.2,0.2-0.4,0.3
			c-0.1-0.1-0.1-0.1-0.1-0.2c0.1-0.1,0.3-0.1,0.4-0.2l0,0C237.4,97.5,237.4,97.6,237.4,97.7L237.4,97.7z M239.4,99.2
			c-0.3-0.3-0.6-0.5-0.9-0.7c0.1-0.1,0.1-0.1,0.2-0.2C239.4,98.4,239.4,98.4,239.4,99.2z M241.2,99.3c-0.1,0.1-0.2,0.2-0.3,0.2
			c-0.1-0.1-0.2-0.3-0.3-0.4l0,0c0.1,0,0.1-0.1,0.1-0.1l0.1-0.1l0,0c0,0.1,0.1,0.1,0.1,0.2C241.1,99.2,241.1,99.2,241.2,99.3
			L241.2,99.3z M243.8,101.9c-0.1,0-0.1,0.1-0.2,0.2l0,0c-0.1-0.2-0.2-0.5-0.2-0.8c0-0.1,0.1-0.2,0.2-0.5
			C243.7,101.2,244.2,101.5,243.8,101.9z M219.8,115.5c0.3-0.6,0.3-0.6,1.7-0.1C220.9,115.4,220.2,115.5,219.8,115.5z M223.1,113.2
			c-0.1,0-0.1,0.1-0.2,0.1h-0.1l0,0c0,0-0.1-0.1-0.1-0.2c0.1,0,0.2,0,0.2-0.1h0.1l0,0c0,0,0,0,0,0.1
			C223.1,113.2,223.1,113.2,223.1,113.2L223.1,113.2z M225.2,114.8c-0.1,0-0.2,0.1-0.3,0.1c0,0,0-0.1-0.1-0.1l0,0
			c0.1-0.1,0.2-0.1,0.3-0.2C225.1,114.7,225.2,114.7,225.2,114.8L225.2,114.8z M226.2,113c0-0.1,0-0.2-0.1-0.2
			c0.8-0.2,1.7-0.4,2.5-0.5c0,0.1,0.1,0.2,0.1,0.3C227.9,112.6,227.1,112.8,226.2,113z M230.4,111.8c0,0.1,0,0.1,0,0.2
			c-0.2,0.1-0.5,0.1-0.7,0.2l0,0c0-0.1,0-0.2,0-0.3C229.9,111.8,230.2,111.8,230.4,111.8z M233.9,112.7c0,0.1-0.1,0.2-0.1,0.2
			c0,0.1-0.1,0.1-0.1,0.2c-0.1,0.1-0.2,0.1-0.3,0.2c-0.2,0.1-0.5,0.1-0.7,0.1c-0.1,0-0.1,0-0.2,0s-0.1,0-0.2,0.1c0,0,0,0-0.1,0.1
			v0.1l0,0c-0.5,0.1-1,0.1-1.4,0.2c-0.2,0-0.3,0-0.5,0.1c-0.3,0-0.6,0.1-0.8,0.1c-0.1,0-0.2,0-0.4,0.1c0-0.1,0-0.2,0-0.3l0,0
			c0.2-0.1,0.4-0.2,0.5-0.2c0.3-0.1,0.6-0.2,0.9-0.3c0.1,0,0.2-0.1,0.4-0.1c0.2-0.1,0.3-0.1,0.5-0.2s0.5-0.1,0.7-0.2h0.2
			c0.2,0,0.5-0.1,0.8-0.1c0.2,0,0.4,0,0.6,0C233.8,112.7,233.9,112.7,233.9,112.7L233.9,112.7z"/>
		<path d="M152.2,102.2c0,0.1,0,0.2,0,0.2c-0.2,0-0.4,0-0.6-0.1c0-0.1,0-0.1,0-0.2C151.9,102.2,151.9,102.2,152.2,102.2z"/>
		<path d="M248.6,51.1c-0.2,0.2-0.5,0.4-0.7,0.5c-0.5-0.9,0.5-0.9,0.9-1.3c-0.4-0.5-0.8-0.9-1.2-1.4c-0.1-0.3-0.2-0.6-0.3-1v1.2
			c0,0.5-0.1,1-0.2,1.6c-0.2-0.3-0.4-0.6-0.4-0.7c0.2-0.9-0.2-1.6-0.5-2.4c-0.2,0.3-0.5,0.6-0.8,0.9c-1-0.9,0.6-1.8-0.2-2.7
			c-0.7,0.2-1.4-1-2.1,0c0,0.3,0,0.7,0.1,1.1h-1.1c0.2-0.6,0.3-1,0.4-1.5c-0.3-0.2-0.6-0.3-0.7-0.4c-0.3,1-0.6,1.8-0.9,2.8
			c0.8,0.3,1.5,0.5,2.3,0.8c0.1-0.1,0.1-0.2,0.3-0.5c0.2,0.3,0.3,0.5,0.5,0.8c-0.2,0-0.4-0.1-0.5-0.1c-0.2,0.8-0.2,1.6,0.1,2.4
			c0.1,0.2,0.1,0.3,0.1,0.5c-0.3,1.8-0.5,3.6-1,5.4c-0.6,2-0.9,4.1-1.3,6.1c-0.1,0.8-0.4,1.6-0.6,2.3c-0.3,0.7-0.6,1.4-0.9,2.1
			c-0.9,2-1.5,4.1-1.9,6.3c0,0.3-0.3,0.7-0.4,1c-0.4,1-1.2,1.9-1.3,3c-0.1,1.2-0.7,2.1-1,3.1c-0.5,1.6-1.4,3.1-1.4,4.7
			c0.4,1.3,1.2,2,2.5,2.2c1.1-0.4,2.2-0.9,2.7-2.1c0.1-0.2,0.4-0.4,0.6-0.6c0.2-0.2,0.4-0.4,0.5-0.7c0.3-1.3,1.1-2.3,1.3-3.7
			c0.2-1.4,0.9-2.7,1.4-4.1c0.1-0.4,0.4-0.8,0-1.5c-0.1,0.3-0.1,0.4-0.2,0.5c0,0.1-0.1,0.2-0.2,0.3c-0.1,0-0.2,0-0.2-0.1
			c0.1-0.8,0.3-1.6,0.4-2.3c0.1,0,0.2,0,0.3,0c0,0.4,0,0.8-0.1,1.2c0.1,0,0.2,0,0.2,0.1c0.4-1.2,0.7-2.4,1.2-3.8
			c1.1-0.8,0.3-2.3,0.4-3.5c0.1,0,0.2-0.1,0.3-0.1c0.1,0.3,0.2,0.5,0.3,0.8c0.2-0.8,0.5-1.5,0.6-2.1c0.3-0.9,0.5-1.8,0.8-2.7
			c0.3-1,0.6-2.1,0.8-3.2c0.1-0.5,0.3-1,0.3-1.5c0.1-0.8,0.2-1.6,0.2-2.5c0.2-0.1,0.4-0.2,0.4-0.3c-0.1-1.2-0.2-2.3-0.2-3.4
			C248.8,52.2,248.9,51.3,248.6,51.1z M241.4,67.3c-0.1,0.3-0.2,0.5-0.3,0.8c-0.1,0-0.1,0-0.2-0.1c0.1-0.3,0.2-0.5,0.3-0.8
			C241.2,67.2,241.4,67.2,241.4,67.3L241.4,67.3z M242.6,66.3c0,0-0.1,0-0.2,0c0-0.1-0.1-0.3-0.1-0.4l0,0c0.1,0,0.2,0,0.3,0V66.3z
			 M242.9,70.7c-0.1,0.1-0.1,0.2-0.2,0.3l0,0l0,0C242.8,70.9,242.9,70.8,242.9,70.7C242.8,70.7,242.9,70.7,242.9,70.7L242.9,70.7z
			 M243.9,67c0,0-0.1,0-0.2-0.1l0,0c0-0.1,0-0.2,0.1-0.3c0-0.1,0-0.2,0-0.3c0,0,0,0,0-0.1l0,0c0.1,0,0.1,0,0.2,0l0,0
			c0,0.1,0.1,0.3,0.1,0.4C244.2,66.8,244.1,66.9,243.9,67z M244.2,62.5c-0.1,0.1-0.2,0.3-0.4,0.4l0,0c0,0,0,0-0.1-0.1
			c0,0-0.1,0-0.1-0.1c0.1-0.1,0.2-0.3,0.3-0.4c0-0.1,0.1-0.1,0.1-0.2l0,0l0,0l0.1,0.1l0.1,0.1l0,0C244.4,62.4,244.2,62.5,244.2,62.5
			z M244.7,48.5h-0.1l0,0c0-0.2-0.1-0.3-0.1-0.5l0,0h0.1h0.1c0,0.1,0,0.2,0,0.3l0,0C244.7,48.3,244.7,48.4,244.7,48.5L244.7,48.5z
			 M247.7,54.8L247.7,54.8c-0.1,0-0.2,0-0.3,0l0,0c0-0.2,0.1-0.4,0.1-0.6c0.1,0,0.2,0,0.2,0.1C247.8,54.4,247.7,54.6,247.7,54.8z
			 M247.9,53.5c-0.1,0.1-0.2,0.1-0.3,0.2l0,0c-0.1-0.2-0.1-0.4-0.2-0.6c0.1,0,0.1-0.1,0.2-0.1l0,0c0.1,0.1,0.1,0.2,0.2,0.3
			C247.8,53.3,247.9,53.4,247.9,53.5L247.9,53.5z"/>
		<path d="M177.8,89.5c-0.2,0.1-0.4,0.2-0.6,0.3c0-0.1-0.1-0.1-0.2-0.2c0.2-0.1,0.4-0.2,0.6-0.3C177.7,89.4,177.8,89.5,177.8,89.5z"
			/>
		<path d="M246.4,47.8h-0.2c0-0.3,0-0.5,0-0.8c0.1,0,0.1,0,0.2,0C246.4,47.2,246.4,47.5,246.4,47.8z"/>
		<path d="M158.2,104.8c0,0.2,0,0.3-0.1,0.5c-0.2-0.1-0.3-0.1-0.7-0.3C157.8,104.8,157.9,104.8,158.2,104.8z"/>
		<path d="M233.4,46.8c0,0.1-0.1,0.3-0.1,0.4c-0.1,0-0.1,0-0.2-0.1c0-0.1,0.1-0.2,0.1-0.4C233.4,46.8,233.4,46.8,233.4,46.8z"/>
		<path d="M238.8,46.3c-0.1,0-0.2,0-0.3,0c0-0.1,0-0.3,0.1-0.4h0.2C238.8,46,238.8,46.2,238.8,46.3z"/>
		<path d="M139.6,68.2c0,0.1-0.1,0.2-0.1,0.4c-0.1,0-0.1-0.1-0.2-0.1C139.4,68.3,139.4,68.2,139.6,68.2
			C139.4,68.1,139.6,68.1,139.6,68.2z"/>
		<path d="M140.9,68.2c-0.1,0.2-0.2,0.3-0.3,0.5c-0.1,0-0.1-0.1-0.2-0.2L140.9,68.2L140.9,68.2z"/>
		<path d="M294.3,80.5c-0.1,0-0.1,0.1-0.2,0.1c-0.1-0.1-0.1-0.2-0.2-0.3c0,0,0.1,0,0.2-0.1C294.2,80.2,294.3,80.3,294.3,80.5z"/>
		<path d="M150.2,100.7c0,0.1-0.1,0.2-0.1,0.2c-0.2-0.1-0.3-0.3-0.5-0.4l0,0C149.9,100.6,150.1,100.7,150.2,100.7z"/>
		<path d="M136.7,98.2c-0.1,0-0.2,0.1-0.3,0.1s-0.2-0.1-0.6-0.2c0.5,0,0.7-0.1,0.9-0.1C136.7,98.1,136.7,98.2,136.7,98.2z"/>
		<path d="M143.8,91.1c0,0.1,0,0.1-0.1,0.2c-0.2-0.1-0.3-0.1-0.5-0.2c0,0,0-0.1,0-0.2C143.4,91,143.6,91.1,143.8,91.1z"/>
		<path fill="#FFFFFF" d="M132.2,83.8c0,0.1-0.1,0.1-0.1,0.2l0,0C132.1,84,132.1,83.9,132.2,83.8z"/>
		<path fill="#FFFFFF" d="M148.1,97.2c0,0.1-0.1,0.2-0.1,0.3C147.9,97.4,148.1,97.3,148.1,97.2L148.1,97.2z"/>
		<path fill="#FFFFFF" d="M140.2,75.3c-0.2,0.2-0.4,0.5-0.5,0.7c-0.2,0.2-0.4,0.5-0.6,0.7c-0.4,0.4-0.8,0.9-1.3,1.2l0,0
			c0.1-0.3,0.3-0.6,0.4-0.8c0.2-0.2,0.3-0.5,0.5-0.7C139.1,75.9,139.6,75.6,140.2,75.3L140.2,75.3z"/>
		<path fill="#FFFFFF" d="M130.2,85.8L130.2,85.8c-0.3,0.3-0.6,0.6-0.9,0.8C129.6,86.3,129.9,86.1,130.2,85.8z"/>
		<path fill="#FFFFFF" d="M112.7,112.3c-0.1,0.5-0.3,1.1-0.4,1.7l0,0C112.4,113.4,112.6,112.9,112.7,112.3z"/>
		<path fill="#FFFFFF" d="M127.7,88.7L127.7,88.7L127.7,88.7C127.6,88.7,127.6,88.7,127.7,88.7z"/>
		<path fill="#FFFFFF" d="M137.4,80.2L137.4,80.2l-0.2-0.1l0,0C137.4,80.1,137.4,80.1,137.4,80.2z"/>
		<path fill="#FFFFFF" d="M138.4,79.1c-0.1,0.1-0.2,0.2-0.4,0.3C138.2,79.3,138.2,79.1,138.4,79.1C138.4,79,138.4,79,138.4,79.1z"/>
		<path fill="#FFFFFF" d="M134.8,82.9c-0.2,0.2-0.3,0.4-0.5,0.5l0,0C134.4,83.3,134.7,83.1,134.8,82.9z"/>
		<path fill="#FFFFFF" d="M135.4,82.4L135.4,82.4l-0.2-0.2C135.2,82.3,135.2,82.3,135.4,82.4z"/>
		<path fill="#FFFFFF" d="M134.9,96.3c0,0.1-0.1,0.2-0.1,0.3C134.9,96.4,134.9,96.3,134.9,96.3L134.9,96.3z"/>
		<path fill="#FFFFFF" d="M135.6,96.4L135.6,96.4c-0.1,0-0.2,0-0.2,0C135.4,96.3,135.4,96.4,135.6,96.4z"/>
		<path fill="#FFFFFF" d="M135.6,96.6L135.6,96.6L135.6,96.6L135.6,96.6z"/>
		<path fill="#FFFFFF" d="M144.9,97.6c-0.4-0.1-0.9-0.2-1.3-0.3l0,0C144.1,97.4,144.4,97.5,144.9,97.6z"/>
		<path fill="#FFFFFF" d="M125.8,90.9c-0.2,0.2-0.5,0.5-0.7,0.7l0,0C125.4,91.4,125.6,91.2,125.8,90.9z"/>
		<path fill="#FFFFFF" d="M155.6,101.8c-0.3-0.1-0.7-0.3-1-0.4l0,0C154.9,101.5,155.2,101.6,155.6,101.8z"/>
		<path fill="#FFFFFF" d="M113.5,104.6c-0.1,0-0.1-0.1-0.2-0.1l0,0l0,0C113.4,104.5,113.5,104.6,113.5,104.6z"/>
		<path fill="#FFFFFF" d="M113.9,104.4c-0.1,0.1-0.2,0.2-0.2,0.4l0,0l0,0C113.7,104.6,113.8,104.5,113.9,104.4z"/>
		<path fill="#FFFFFF" d="M114.1,104L114.1,104c0,0-0.1-0.1-0.2-0.1C114,103.9,114,104,114.1,104z"/>
		<path fill="#FFFFFF" d="M114.2,108.1L114.2,108.1C114.2,108.1,114.1,108.1,114.2,108.1C114.1,108.1,114.1,108.1,114.2,108.1z"/>
		<path fill="#FFFFFF" d="M136.4,94.4c0,0.1,0,0.1,0,0.2C136.4,94.5,136.4,94.4,136.4,94.4L136.4,94.4z"/>
		<path fill="#FFFFFF" d="M147.4,98.4c-0.3-0.1-0.6-0.2-0.9-0.3l0,0C146.9,98.2,147.1,98.3,147.4,98.4z"/>
		<path fill="#FFFFFF" d="M140.6,96.6L140.6,96.6c-0.1,0-0.1,0-0.2,0l0,0C140.4,96.6,140.4,96.6,140.6,96.6z"/>
		<path fill="#FFFFFF" d="M140.6,96.1L140.6,96.1h-0.1H140.6z"/>
		<path fill="#FFFFFF" d="M138.1,94.5L138.1,94.5h-0.2C137.9,94.5,138.1,94.5,138.1,94.5z"/>
		<path fill="#FFFFFF" d="M122.8,83c0,0.1-0.1,0.2-0.1,0.3l0,0C122.7,83.2,122.7,83.1,122.8,83z"/>
		<path fill="#FFFFFF" d="M130.9,96.9L130.9,96.9C130.9,96.9,130.9,96.8,130.9,96.9C130.9,96.8,130.9,96.9,130.9,96.9z"/>
		<path fill="#FFFFFF" d="M131.2,96.6c0,0.1,0,0.2,0,0.3C131.2,96.8,131.2,96.7,131.2,96.6L131.2,96.6z"/>
		<path fill="#FFFFFF" d="M229.6,114c-0.1,0-0.2,0-0.4,0.1c0-0.1,0-0.2,0-0.3c0,0.1,0,0.2,0.1,0.2C229.2,114,229.4,114,229.6,114z"
			/>
		<path fill="#FFFFFF" d="M232.4,94.1c-0.1,0-0.2,0-0.2,0S232.4,94.1,232.4,94.1L232.4,94.1z"/>
		<path fill="#FFFFFF" d="M229.8,92.9L229.8,92.9c-0.1-0.1-0.2-0.3-0.3-0.4C229.6,92.7,229.7,92.8,229.8,92.9z"/>
		<path fill="#FFFFFF" d="M233.8,95.3c-0.1,0.1-0.2,0.1-0.5,0C233.6,95.4,233.8,95.4,233.8,95.3z"/>
		<path fill="#FFFFFF" d="M219.6,63c-0.1,0.2-0.2,0.3-0.2,0.5l0,0C219.4,63.3,219.6,63.2,219.6,63z"/>
		<path fill="#FFFFFF" d="M230.4,112c-0.2,0.1-0.5,0.1-0.7,0.2l0,0C230.1,112.1,230.2,112,230.4,112z"/>
		<path fill="#FFFFFF" d="M228.1,89.8C228.1,89.8,227.9,89.8,228.1,89.8C227.9,89.8,228.1,89.8,228.1,89.8L228.1,89.8z"/>
		<path fill="#FFFFFF" d="M241.2,99.3L241.2,99.3c-0.1-0.1-0.1-0.1-0.1-0.2C241.1,99.2,241.1,99.2,241.2,99.3z"/>
		<path fill="#FFFFFF" d="M223.1,113.1C223.1,113.1,222.9,113.1,223.1,113.1C222.9,113.1,223.1,113.1,223.1,113.1L223.1,113.1z"/>
		<path fill="#FFFFFF" d="M223.2,113.2L223.2,113.2L223.2,113.2C223.1,113.2,223.1,113.2,223.2,113.2z"/>
		<path fill="#FFFFFF" d="M224.9,114.9c0,0,0-0.1-0.1-0.1l0,0L224.9,114.9z"/>
		<path fill="#FFFFFF" d="M225.2,114.8L225.2,114.8c0-0.1-0.1-0.2-0.1-0.2C225.1,114.7,225.2,114.7,225.2,114.8z"/>
		<path fill="#FFFFFF" d="M244.4,102.7c0,0-0.1,0-0.2,0.1l0,0C244.2,102.8,244.4,102.7,244.4,102.7z"/>
		<path fill="#FFFFFF" d="M237.4,97.6L237.4,97.6c-0.1,0.1-0.2,0.2-0.4,0.3C237.2,97.8,237.2,97.7,237.4,97.6z"/>
		<path fill="#FFFFFF" d="M236.8,96.4C236.8,96.4,236.8,96.5,236.8,96.4C236.8,96.5,236.8,96.4,236.8,96.4L236.8,96.4z"/>
		<path fill="#FFFFFF" d="M236.9,96.6c-0.1,0-0.1,0-0.2,0l0,0C236.8,96.6,236.9,96.6,236.9,96.6z"/>
		<path fill="#FFFFFF" d="M233.8,94.3c0,0-0.1,0.1-0.2,0.1l0,0C233.7,94.3,233.7,94.3,233.8,94.3z"/>
		<path fill="#FFFFFF" d="M291.5,88L291.5,88c0,0-0.1,0-0.2,0C291.4,88,291.5,88,291.5,88z"/>
		<path fill="#FFFFFF" d="M291.6,88.4c-0.1,0-0.2,0-0.3,0l0,0C291.4,88.4,291.5,88.4,291.6,88.4z"/>
		<path fill="#FFFFFF" d="M243.9,66.6c0,0.1,0,0.2,0,0.3l0,0C243.9,66.8,243.9,66.7,243.9,66.6z"/>
		<path fill="#FFFFFF" d="M244.2,62.2L244.2,62.2c0,0.1-0.1,0.1-0.1,0.2C244.1,62.3,244.1,62.2,244.2,62.2L244.2,62.2z"/>
		<path fill="#FFFFFF" d="M247.8,54.2c0,0.2-0.1,0.4-0.1,0.6l0,0C247.7,54.6,247.8,54.4,247.8,54.2z"/>
		<path fill="#FFFFFF" d="M247.4,53c0,0.2,0.1,0.4,0.2,0.6l0,0C247.4,53.4,247.4,53.2,247.4,53z"/>
		<path fill="#FFFFFF" d="M247.9,53.5L247.9,53.5c-0.1-0.1-0.1-0.2-0.2-0.3C247.8,53.3,247.9,53.4,247.9,53.5z"/>
		<path fill="#FFFFFF" d="M244.6,48.5c0-0.2-0.1-0.3-0.1-0.5l0,0C244.4,48.2,244.4,48.3,244.6,48.5z"/>
		<path fill="#FFFFFF" d="M244.7,48.2c0-0.1,0-0.2,0-0.3h-0.1h0.1C244.7,48.1,244.7,48.2,244.7,48.2z"/>
		<path fill="#FFFFFF" d="M244.7,48.5h-0.1l0,0H244.7z"/>
		<path fill="#FFFFFF" d="M242.7,71L242.7,71L242.7,71c0-0.1,0-0.2,0.1-0.3C242.8,70.8,242.7,70.9,242.7,71z"/>
	</g>
</g>
</svg>
