<?xml version="1.0" encoding="utf-8"?>
<!-- Generator: Adobe Illustrator 17.1.0, SVG Export Plug-In . SVG Version: 6.00 Build 0)  -->
<!DOCTYPE svg PUBLIC "-//W3C//DTD SVG 1.1//EN" "http://www.w3.org/Graphics/SVG/1.1/DTD/svg11.dtd">
<svg version="1.1" id="Layer_1" xmlns="http://www.w3.org/2000/svg" xmlns:xlink="http://www.w3.org/1999/xlink" x="0px" y="0px"
	 viewBox="0 0 612 792" enable-background="new 0 0 612 792" xml:space="preserve">
<rect x="114.4" y="332.9" fill="none" width="383.7" height="117.5"/>
<g enable-background="new    ">
	<path d="M135.6,388.4h-11.2v48.7h-4.8v-98.2h4.8v44.7h11.2l23.2-44.7h5.4L139.8,386l26.6,51.1H161L135.6,388.4z"/>
	<path d="M214.6,437.1l-6.8-30.8h-28.2l-6.8,30.8h-4.9l21.8-98.2h8.1l21.8,98.2L214.6,437.1L214.6,437.1z M180.6,401.5h26.1
		l-13.1-58.7L180.6,401.5z"/>
	<path d="M260.6,343.7H241v93.4h-4.8v-93.4h-19.6v-4.8h19.6h4.8h19.6V343.7z"/>
	<path d="M266.4,437.1v-98.2h4.8v98.2L266.4,437.1L266.4,437.1z"/>
	<path d="M288.4,343.7v37.2h27.5v4.8h-27.5v46.6h33.4v4.8h-33.4h-4.8v-98.2h4.8h33.4v4.8H288.4z"/>
</g>
<g enable-background="new    ">
	<path d="M351.8,385.1c2.4,1.9,4.8,4,7.2,6c2.4,2.1,4.5,4.4,6.4,6.8c1.9,2.5,3.4,5.2,4.6,8.3s1.7,6.5,1.7,10.4
		c0,2.9-0.6,5.7-1.7,8.2c-1.1,2.6-2.6,4.8-4.5,6.7c-1.9,1.9-4.1,3.4-6.6,4.5s-5.2,1.7-8.1,1.7s-5.6-0.6-8.2-1.7s-4.8-2.6-6.7-4.5
		c-1.9-1.9-3.4-4.1-4.5-6.7s-1.7-5.3-1.7-8.2h4.8c0,2.2,0.4,4.3,1.3,6.3s2,3.7,3.5,5.2s3.2,2.6,5.2,3.5s4.1,1.3,6.3,1.3
		c2.2,0,4.3-0.4,6.2-1.3c1.9-0.9,3.6-2,5.1-3.5s2.6-3.2,3.5-5.2s1.3-4.1,1.3-6.3c0-3.3-0.5-6.2-1.5-8.9c-1-2.6-2.4-5-4.1-7.2
		s-3.6-4.2-5.8-6.1c-2.2-1.9-4.4-3.8-6.8-5.6c-2.3-1.8-4.6-3.8-6.9-5.7c-2.3-2-4.3-4.1-6.1-6.5c-1.8-2.3-3.2-4.9-4.4-7.7
		c-1.1-2.8-1.7-6.1-1.7-9.7c0-2.9,0.6-5.6,1.7-8.2s2.6-4.8,4.5-6.7c1.9-1.9,4.1-3.4,6.7-4.5s5.3-1.7,8.2-1.7c2.9,0,5.6,0.5,8.1,1.6
		s4.7,2.6,6.6,4.4c1.9,1.9,3.4,4.1,4.5,6.7s1.7,5.3,1.7,8.2h-4.8c0-2.2-0.4-4.3-1.3-6.2c-0.9-1.9-2-3.6-3.5-5.1s-3.1-2.6-5.1-3.5
		c-1.9-0.9-4-1.3-6.2-1.3s-4.3,0.4-6.3,1.3s-3.7,2-5.2,3.5s-2.6,3.2-3.5,5.1s-1.3,4-1.3,6.3c0,3.1,0.5,5.8,1.5,8.2
		c1,2.4,2.3,4.6,3.8,6.6c1.6,2,3.4,4,5.5,5.7C347.4,381.6,349.6,383.4,351.8,385.1z"/>
	<path d="M381.9,437.1v-98.2h4.8v98.2L381.9,437.1L381.9,437.1z"/>
	<path d="M435,343.7h-19.6v93.4h-4.8v-93.4H391v-4.8h19.6h4.8H435V343.7z"/>
	<path d="M482.8,338.9v41.8v2.5v33.4c0,2.9-0.6,5.6-1.7,8.2s-2.6,4.8-4.5,6.7c-1.9,1.9-4.1,3.4-6.6,4.5s-5.2,1.7-8.1,1.7
		s-5.6-0.6-8.2-1.7s-4.8-2.6-6.7-4.5c-1.9-1.9-3.4-4.1-4.5-6.7s-1.7-5.3-1.7-8.2v-33.4v-2.5v-41.8h4.8v41.8v2.5v33.4
		c0,2.2,0.4,4.3,1.3,6.3s2,3.7,3.5,5.2s3.2,2.6,5.2,3.5s4.1,1.3,6.3,1.3c2.2,0,4.3-0.4,6.2-1.3c1.9-0.9,3.6-2,5.1-3.5
		s2.6-3.2,3.5-5.2s1.3-4.1,1.3-6.3v-33.4v-2.5v-41.8H482.8z"/>
</g>
<line fill="none" stroke="#000000" stroke-width="6.3247" stroke-miterlimit="10" x1="119.8" y1="453.7" x2="322.5" y2="453.7"/>
</svg>
