<?xml version="1.0" encoding="utf-8"?>
<!-- Generator: Adobe Illustrator 17.1.0, SVG Export Plug-In . SVG Version: 6.00 Build 0)  -->
<!DOCTYPE svg PUBLIC "-//W3C//DTD SVG 1.1//EN" "http://www.w3.org/Graphics/SVG/1.1/DTD/svg11.dtd">
<svg version="1.1" id="Layer_1" xmlns="http://www.w3.org/2000/svg" xmlns:xlink="http://www.w3.org/1999/xlink" x="0px" y="0px"
	 width="720px" height="176px" viewBox="0 0 720 176" enable-background="new 0 0 720 176" xml:space="preserve">
<g>
	<path d="M122.2,86.7l21.8-23.5v-0.3h-11.5l-18.6,20.7V62.9h-9.2v49h9.2V90.2l20.5,21.7h11.4v-0.6L122.2,86.7z"/>
	<path d="M191.6,62.9h-10.1l-22,49h10l4.2-9.2h25.6l4.1,9.2h10.1L191.6,62.9z M177.4,94.1l9.1-20.9l9.1,20.9H177.4z"/>
	<path d="M228.3,62.9v8.4h15.5v40.6h9.2V71.3h15.5v-8.4H228.3z"/>
	<path d="M288.4,62.9v49h9.2v-49H288.4z"/>
	<path d="M356.9,71.9v-9h-36.7v49h36.7v-9.1h-27.5V91.8H356v-8.6h-26.5V71.9H356.9z"/>
	<path d="M440,82c-5.9-0.7-10.9-1.9-10.9-6.2c0-3.6,3.3-6.5,10.1-6.5c5.3,0,9.9,2.7,11.6,5.5l7.4-3.8c-3.7-7.6-11.6-9.7-19.2-9.7
		c-9,0.1-19,4.2-19,14.3c0,11,9.2,13.7,19.2,14.8c6.5,0.7,11.3,2.6,11.3,7.2c0,5.3-5.5,7.4-11.3,7.4c-6,0-11.6-2.4-13.8-7.8l-7.7,4
		c3.6,9,11.3,12,21.3,12c10.9,0,20.6-4.7,20.6-15.6C459.8,85.9,450.2,83.2,440,82z"/>
	<path d="M481.1,62.9v49h9.2v-49H481.1z"/>
	<path d="M510.2,62.9v8.4h15.5v40.6h9.2V71.3h15.5v-8.4H510.2z"/>
	<path d="M604.1,63v28.1c0,8.4-4.3,13.5-12,13.5s-12.7-4.7-12.7-13.5V63h-9.2v28.1c0,14.8,10,21.9,21.8,21.9
		c12.3,0,21.2-7.4,21.2-21.9V63H604.1z"/>
</g>
<g>
	<path d="M52.5,151.5V118h-5v38.5H88v-5H52.5z M668.5,151.5H629v5h44.5V118h-5V151.5z M629,17.5v5h39.5V58h5V17.5H629z M47.5,17.5
		V58h5V22.5H88v-5H47.5z"/>
</g>
</svg>
