<?xml version="1.0" encoding="utf-8"?>
<!-- Generator: Adobe Illustrator 19.1.0, SVG Export Plug-In . SVG Version: 6.00 Build 0)  -->
<!DOCTYPE svg PUBLIC "-//W3C//DTD SVG 1.1//EN" "http://www.w3.org/Graphics/SVG/1.1/DTD/svg11.dtd">
<svg version="1.1" id="Layer_1" xmlns="http://www.w3.org/2000/svg" xmlns:xlink="http://www.w3.org/1999/xlink" x="0px" y="0px"
	 viewBox="-192 345 226 103" style="enable-background:new -192 345 226 103;" xml:space="preserve">
<g>
	<g>
		<polygon points="-87.4,347.6 -87.4,351.1 -165.5,351.1 -165.5,389.2 -168.9,389.2 -168.9,347.6 		"/>
	</g>
	<g>
		<polygon points="-87.4,442 -87.4,445.4 -168.9,445.4 -168.9,404.4 -165.5,404.4 -165.5,442 		"/>
	</g>
	<g>
		<polygon points="10.9,404.4 10.9,445.4 -71.8,445.4 -71.8,442 7.4,442 7.4,404.4 		"/>
	</g>
	<g>
		<polygon points="10.9,347.6 10.9,389.2 7.4,389.2 7.4,351.1 -71.8,351.1 -71.8,347.6 		"/>
	</g>
</g>
<image style="overflow:visible;" width="1603" height="753" xlink:href="../../../new logo/IMG_0919EDIT.jpg"  transform="matrix(9.357455e-02 0 0 9.357455e-02 -154 361.2692)">
</image>
</svg>
