<?xml version="1.0" encoding="utf-8"?>
<!-- Generator: Adobe Illustrator 19.1.0, SVG Export Plug-In . SVG Version: 6.00 Build 0)  -->
<!DOCTYPE svg PUBLIC "-//W3C//DTD SVG 1.1//EN" "http://www.w3.org/Graphics/SVG/1.1/DTD/svg11.dtd">
<svg version="1.1" id="Layer_1" xmlns="http://www.w3.org/2000/svg" xmlns:xlink="http://www.w3.org/1999/xlink" x="0px" y="0px"
	 viewBox="-192 345 226 103" style="enable-background:new -192 345 226 103;" xml:space="preserve">
<g>
	<g id="wordmark01_2_">
		<g>
			<path d="M-123.2,409.1L-123.2,409.1c0.3,0.1,0.7,0.3,1,0.4C-122.6,409.2-122.9,409.1-123.2,409.1z M-129.7,404.9
				c0,0.1-0.1,0.2-0.1,0.3C-129.9,405.1-129.7,405-129.7,404.9L-129.7,404.9z M-131.2,405.8L-131.2,405.8c0.3,0.1,0.6,0.2,0.9,0.3
				C-130.7,406-130.9,405.9-131.2,405.8z M-134.2,405L-134.2,405c0.5,0.1,0.9,0.2,1.3,0.3C-133.4,405.1-133.7,405.1-134.2,405z
				 M-137.4,403.8h0.1l0,0H-137.4z M-137.4,404.2L-137.4,404.2c0.1,0,0.1,0,0.2,0l0,0C-137.4,404.2-137.4,404.2-137.4,404.2z
				 M-137.6,383c-0.2,0.2-0.3,0.5-0.5,0.7C-138,383.4-137.9,383.1-137.6,383L-137.6,383z M-139.9,402.1h0.2l0,0H-139.9z
				 M-140.6,387.6L-140.6,387.6l0.1,0.2l0,0C-140.4,387.8-140.4,387.8-140.6,387.6z M-141.4,402.1c0,0.1,0,0.1,0,0.2
				C-141.4,402.1-141.4,402.1-141.4,402.1L-141.4,402.1z M-142.4,404.2C-142.2,404.2-142.2,404.2-142.4,404.2L-142.4,404.2
				C-142.2,404.2-142.2,404.2-142.4,404.2z M-142.6,404c0.1,0,0.2,0,0.2,0l0,0C-142.4,404.1-142.4,404-142.6,404z M-142.7,389.9
				l0.2,0.2l0,0C-142.6,390-142.6,390-142.7,389.9z M-142.9,404c0,0.1,0,0.2-0.1,0.3C-143,404.1-142.9,404-142.9,404L-142.9,404z
				 M-143.6,391.1L-143.6,391.1c0.2-0.2,0.4-0.3,0.5-0.5C-143.1,390.8-143.4,391-143.6,391.1z M-145.7,391.6L-145.7,391.6
				c0-0.1,0.1-0.1,0.1-0.2C-145.7,391.6-145.7,391.6-145.7,391.6z M-146.4,401.6L-146.4,401.6c0.2-0.1,0.4-0.2,0.6-0.3l0,0
				C-146,401.6-146.2,401.6-146.4,401.6z M-146.6,404.2c0,0.1,0,0.2,0,0.3C-146.6,404.5-146.6,404.4-146.6,404.2L-146.6,404.2z
				 M-146.9,404.5C-146.9,404.5-146.9,404.6-146.9,404.5L-146.9,404.5C-146.9,404.6-146.9,404.5-146.9,404.5z M-148.4,394.2
				c0.3-0.3,0.6-0.5,0.9-0.8l0,0C-147.9,393.8-148.2,394-148.4,394.2z M-150.2,396.4L-150.2,396.4L-150.2,396.4L-150.2,396.4z
				 M-152.8,399.2L-152.8,399.2c0.2-0.2,0.5-0.4,0.7-0.7C-152.2,398.9-152.4,399.1-152.8,399.2z M-155.1,391L-155.1,391
				c0-0.1,0.1-0.2,0.1-0.3C-155.1,390.8-155.1,390.9-155.1,391z M-163.8,415.8L-163.8,415.8L-163.8,415.8L-163.8,415.8z
				 M-163.8,411.6c0.1,0,0.1,0.1,0.2,0.1l0,0C-163.8,411.6-163.8,411.6-163.8,411.6z M-164.2,412.4L-164.2,412.4L-164.2,412.4
				c0.1-0.1,0.2-0.2,0.2-0.4C-164,412.1-164.1,412.2-164.2,412.4z M-164.4,412.1L-164.4,412.1L-164.4,412.1c0,0,0.1,0.1,0.2,0.1
				C-164.3,412.2-164.4,412.1-164.4,412.1z M-165.5,421.6L-165.5,421.6c0.1-0.5,0.3-1.1,0.4-1.7
				C-165.2,420.6-165.4,421.1-165.5,421.6z"/>
			<path d="M-77.1,374.8h-0.5c0-0.2,0-0.4-0.1-0.5h-1.9c0.2-0.4,0.4-0.7,0.7-1c-0.8-0.1-1.5-0.2-2.2-0.3l-0.1,0.2
				c-0.4,0.1-0.8,0.1-1.2,0.2c-1.2,0.4-2.3,0.9-3.5,1.4c-1,0.4-1.9,0.8-2.9,1.2c-1.3,0.5-2.6,0.9-3.9,1.3c-2.2,0.8-4.3,1.6-6.5,2.4
				c-1.6,0.6-3.3,1.1-4.6,2c-1.4,0.9-3,1.7-4.2,3.1c-1,1.1-1.8,2.1-1.4,3.7c0.1,0.3,0,0.6-0.1,0.7c0.4,1,1,1.6,2,1.4
				c0.9-0.2,1.9-0.3,2.4-1.3c0.1-0.3,0.4-0.5,0.7-0.7c1.3-1,2.6-1.9,4-2.6c1-0.4,1.8-1.1,2.8-1.6c0.1-0.1,0.3-0.1,0.5-0.2
				c0.9-0.3,1.7-0.5,2.6-0.9c0.2-0.1,0.4-0.4,0.5-0.5c0.7,0,1.3-0.1,1.9-0.1c0.1,0.1,0.1,0.2,0.1,0.3c-0.8,2.6-1.6,5.1-2.5,7.7
				c-0.1,0.3-0.5,0.6-0.8,0.7c-3.1,0.9-6.4,1.3-9.7,1.3c-0.4,0-0.9-0.3-1.3-0.2c-1.8,0.5-3.3,0-4.5-0.7c-0.5-1.1-0.8-1.9-1.2-2.8
				c0.1-0.3,0.2-0.7,0.2-1.2c-0.1-2.1,0.1-4.1,0.4-6.2c0.1-0.9-0.6-1.6-1.5-1.5c-0.2,0-0.5,0-0.7,0.1c-1.3-0.9-2.3-0.8-2.8,0.2
				c-0.8,1.9-2.3,3.4-3,5.4c-0.1,0.2-0.2,0.3-0.3,0.5c-0.5,0.7-1.1,1.3-1.6,2c-0.9,1.4-1.7,2.9-2.5,4.4c-0.4,0.7-0.9,1.3-1.8,1.4
				c-1.5,0.2-2.9,0.4-4.4,0.5c-1.5,0.2-3.2,0.2-4.3,1.6c0.2,0.9,0.5,1.8,0.7,2.8c-0.1,0.2-0.2,0.6-0.3,1.1c1.4,0.4,2.7,0.7,4.1,1.1
				c-0.1,0.7-0.2,1.4-0.3,2.2c-0.4-0.2-0.8-0.4-1.3-0.6c-0.2,0.2-0.4,0.4-0.7,0.6c-0.6-0.4-1.2-0.9-1.9-1.1
				c-0.8-0.2-1.6-0.2-2.6-0.4c-0.5-0.9-2.1,0.5-2.6-0.9c-0.4,0.1-0.7,0.2-1,0.3c-0.3-0.2-0.5-0.4-0.8-0.6c-1.7,0.6-3.4,0.1-5-0.3
				c-0.3,0.1-0.6,0.3-0.7,0.3c-0.8-0.2-1.4-0.4-2-0.5c-0.2,0-0.4,0.1-0.6,0.1c0-0.1,0-0.1,0-0.2c0.2,0,0.4,0,0.6,0
				c0.4-0.4,0.8-0.8,1.2-1.2c0.7-0.7,1.6-1,2.1-2c0.5-0.9,1.2-1.7,2-2.3c1.2-0.9,2.6-1.6,3.2-3.1c0.1-0.1,0.1-0.2,0.2-0.3
				c1.6-0.9,2.4-2.5,3.6-3.8c1-1.1,2-2.1,3-3.2c1-1.2,1.8-2.4,2.7-3.7c0.2-0.3,0.2-0.7,0.2-0.8c0.5-0.6,1-1,1.3-1.4
				c0.5-0.7,0.9-1.6,1.4-2.3c1-1.5,1.6-3,1.8-4.8c0.1-0.4,0.3-0.7,0.5-1.2c-0.1-0.7-0.3-1.5-0.5-2.1c-1.1-0.6-1.8-1.3-2.8-1.5
				c-1.2,0.2-1.9,0.6-3.4,1.8c0,0.3-0.1,0.6-0.1,1c-0.3-0.1-0.6-0.1-0.8-0.2c0,0-0.1,0.1-0.1,0.2c0.2,0.2,0.4,0.4,0.7,0.6
				c-0.4,0.3-0.6,0.5-0.9,0.7h-1.3c0.4,0.3,0.6,0.5,0.7,0.6c-0.6,0.7-1.1,1.3-1.6,2c-0.3,0.4-0.5,0.9-0.8,1.2
				c-0.8,0.7-0.8,0.7-0.4,1.8l0.1,0.1c1-0.4,2-0.8,3.1-1.2c0.1-0.3,0.2-0.6,0.3-1.1c0.6,0.4,0.4,0.7,0.2,1.1
				c-0.7,1.2-1.3,2.5-2.3,3.6c-2.2,2.5-3.9,5.5-6.5,7.7c-0.1,0.1-0.1,0.2-0.2,0.3c-2,2.3-4.1,4.6-6.1,6.9c-0.6,0.7-1.3,1.1-1.9,1.6
				c-1.2,1.1-2.2,2.5-3.3,3.8c-0.4,0.5-0.9,0.9-1.6,1.1c0-0.5-0.1-0.9-0.2-1.6c0.2-0.5,0.5-1.2,0.8-2c0.3-0.9,0.7-1.9,0.7-2.8
				c0-1,0.2-1.9,0.5-2.9c0.2-0.8,0.4-1.6-0.1-2.2c0.3-1.1,1-2.1,0.9-3.1c0-1.1,0.1-2.1,0.5-2.9c0.4-1,0.3-1.9,0.6-2.8
				c0.3-1.2-0.4-2-1-2.8c-0.3-0.3-0.7-0.5-1.1-0.8c-0.3,0-0.8,0.2-1.3,0.4c-1,0.6-1.9,1.3-2.2,2.5c-0.3,1.4-0.4,2.8-0.6,4.3
				s-0.5,3-0.8,4.4c-0.1,0.5-0.1,1-0.2,1.6c-0.1,0.6,0.1,1.4-0.1,1.9c-0.4,0.8-0.6,1.5-0.7,2.3c0,0.6-0.1,1.3-0.3,1.9
				c-0.1,0.5-0.6,1.1-0.5,1.6c0.1,1.4-0.6,2.5-0.8,3.7c-1.1,0.7-2.4,0.6-3.6,0.8s-2.3,0.6-3.8,1c-0.8,0.8-0.9,0.8-1.8,0.2
				c-0.3,0.3-0.7,0.8-1,0.8c-1.4-0.1-2.4,0.9-3.5,1.4c-0.3,1.1,0.4,1.9,0.7,2.9c0.3,0,0.6,0,0.8-0.1c0.9-0.2,1.7-0.4,2.5-0.5
				c1.6-0.2,3.1-0.3,4.7-0.5c1.2-0.2,2.4-0.5,3.8-0.8c0,0.4,0.1,0.8-0.1,0.9c-0.4,0.6-0.9,1.1-1.4,1.6c-0.8,0.8-1.6,1.5-2.4,2.3
				c0.3,0,0.5,0.1,0.9,0.1c-0.1,0.7-0.6,0.9-1.1,0.9c-0.3,0.4-0.6,0.7-0.9,1.1l0,0l0,0c-0.1-0.1-0.1-0.1-0.2-0.2
				c0.2-0.5,0.6-0.8,1.1-0.9c0.1-0.3,0.2-0.6,0.2-1c-1.1,0.9-2.3,1.7-3.3,2.8c0.3,0.3,0.5,0.6,0.6,0.8c-0.3,0.3-0.7,0.5-1,0.9
				c-0.3,0.5-0.6,1-0.8,1.5h2.7c0.1-0.3,0.3-0.7,0.5-1.1c0.7-0.2,1.5-0.3,2.4-0.5c0,0.3,0.1,0.6,0,0.9c-0.5,1.7-0.9,3.3-1.4,5
				c-0.5,1.8-0.8,3.6-0.8,5.4c1.5,0.7,1.7,0.7,2.7,0c0.2,0.6,0.5,1.2,1.3,1.1c0.2-0.2,0.4-0.3,0.5-0.5c0.5-0.6,1-1.2,1.3-1.9
				c0.4-1.2,0.6-2.4,0.9-3.6c0.4-1.5,1-2.9,1.4-4.1c-0.1-0.7-0.2-1.2-0.3-1.7c0-0.5,0-1-0.1-1.7c0.3-0.3,0.6-0.8,1.1-1.4
				c-0.4,0.1-0.6,0.1-1,0.2c0.7-1.6,2.3-2.8,1.8-4.9c0.5-0.4,1-1,1.6-1.4c0.8-0.5,1.7-0.8,2.5-1.1c0.1-0.1,0.3,0,0.5,0h5.8
				c0.2,0,0.4,0,0.6,0.1c1.1,0.7,2.2,0.2,3.4,0.2c-0.9-0.2-1.7-0.4-2.6-0.6c0-0.1,0-0.2,0-0.2c1.4,0.1,2.8,0.2,4.2,0.3
				c1.1-0.5,2.1-0.5,2.2,0.1c-0.2,0-0.5,0.1-0.8,0.2c0.1,0.4,0.2,0.8,0.3,1.2c0.8,0,1.5,0.6,2.3,0.3c0-0.1,0-0.2,0.1-0.3
				c-0.6-0.2-1.2-0.4-1.8-0.6c0.1,0,0.3-0.1,0.4-0.1c0.6,0,1.1,0.1,1.8,0.2c-0.1-0.2-0.1-0.4-0.2-0.7c0.5,0,0.9,0.1,1.2,0.1
				c0.3,0.5,0.6,1.1,1,1.2c0.5,0.2,0.5,0.7,0.8,0.8c0.4,0.2,0.9,0.3,1.4,0.4c0.2-0.4,0.3-0.6,0.5-1.1c-0.6,0.2-1,0.3-1.3,0.4
				c-0.4-0.3-0.9-0.6-1.4-1c0.1-0.1,0.2-0.2,0.2-0.3c1.3,0.3,2.5,0.6,3.9,0.9v1c0.6,0,1.2-0.1,1.8-0.1c0.1,0.6,0.6,0.6,1.1,0.6l0,0
				c1.4-0.4,1.8-0.3,2.1,0.8c1.4,0.8,3.2,0.7,4.3,2.1c0.3,0,0.6,0,0.9-0.1c0.1,0.2,0.1,0.4,0.2,0.6c0.7-0.2,1,0.1,1.1,0.7
				c0.3,0,0.6-0.1,0.9-0.1c0.2,0.3,0.4,0.6,0.8,1c-0.5,0-0.8-0.1-1.1-0.1c0.7,0.6,1.5,1,2.5,1c-0.2-0.2-0.5-0.4-0.8-0.6
				c1.4-0.3,2.2,0.6,3.3,1.2c-0.6,0-0.9,0-1.2,0.1c1.6,1.1,3.3,1.7,5.2,2.2c0.2-0.4,0.3-0.6,0.4-0.8c0.8,0,1.6,0,2-1.1
				c0.3-0.8,0.7-1.5,0.2-2.5c-0.9-0.4-1.9-0.9-2.9-1.4c-0.4-0.2-0.8-0.6-1.2-0.8c-0.8-0.2-1.6-0.6-2.3-0.9c-0.8-0.3-1.5-0.7-2.2-1.2
				c-0.1-0.1-0.3-0.2-0.4-0.2c-1,0.1-1.7-0.5-2.3-1.1c-0.5,0.1-1,0.1-1.5,0.2c-1.4-1.4-3.3-1.6-4.9-2.3c0.5-0.7,0.8-1.3,1.2-1.9
				c0.5-0.8,1-1.5,1.5-2.3c0.1-0.2,0.3-0.2,0.5-0.3c0.2,0.2,0.4,0.4,0.5,0.7c0.2-0.2,0.3-0.4,0.4-0.5c0.5,0.2,1,0.3,1.4,0.5
				c0.8,0.4,1.5,0.8,2.3,1.2c0.4,0.2,0.8,0.4,1.2,0.7c0.1-0.1,0.1-0.1,0.2-0.2c0.4,0.6,0.7,1.1,1.2,1.8c0.5,0.3,1.2,0.7,1.8,1.1
				c-0.1,0.4-0.1,0.6-0.2,1.1c1.4,0.4,2.3,1.7,3.8,1.7c0.8-0.5,0.1-1.3,0.4-1.9c0.3,0.1,0.6,0.2,0.9,0.2c0.1-0.4,0.3-0.8,0.4-1.2
				c-0.1-0.1-0.2-0.1-0.3-0.2c-0.6-0.4-0.2-1-0.1-1.3c-0.4-1.5-1.3-2.6-1.2-4c0-0.3-0.3-0.7-0.5-1c-0.1-0.2-0.3-0.5-0.4-0.7
				c1.1-0.2,2.1-0.6,3.1-0.5c0.9,0.1,1.7,0,2.5,0c1.4-0.1,2.8-0.1,4-1c0.6-0.5,1.3-0.3,1.9,0.4c0.6-0.3,1.1-0.6,1.6-0.9
				c0,0,0-0.1-0.1-0.1c0.4,0,0.8-0.1,1.3-0.1c-0.1,0.6-0.2,1.1-0.4,1.7c-0.5,1.7-0.8,3.4-1.4,5c-0.5,1.3-0.9,2.7-1.1,4.1
				c-0.2,1.5,0.1,2.7,1.3,3.6c0.5,0.4,1.1,0.6,1.7,0.9c0.6-0.5,1.1-1,1.6-1.4c0.7-0.5,1-1.1,1.2-1.9c0.2-0.7,0-1.4,0-2
				c0.1-1,0.5-1.9,0.8-2.8c0.2-0.6,0.4-1.2,0.5-1.8c0.3-1.3,0.5-2.5,0.8-3.8c0-0.1,0.1-0.3,0.1-0.3c0.6-0.6,0.6-1.4,0.6-2.2
				c0.1-0.6,0.1-1.5,0.5-1.8c0.8-0.6,0.5-1.1,0.3-1.8c0.2-0.3,0.6-0.6,0.6-0.9c0.2-1.7,1-3.1,1.5-4.7c0.5-1.7,1.2-3.4,1.9-5.1
				c0.4-1,1.2-1.4,2.1-1.8c0.8-0.3,1.6-0.6,2.3-1.1c0.8-0.5,1.6-0.9,2.2-1.7c0.4-0.6,1.1-0.9,1.7-1.3C-77,375-77.1,374.9-77.1,374.8
				z M-144.6,392.9L-144.6,392.9c-0.1,0.1-0.1,0.1-0.1,0.1s0,0-0.1,0s-0.2,0-0.3,0c0-0.6,0.3-0.9,0.8-1
				C-144.2,392.4-144.2,392.6-144.6,392.9z M-142.4,390.1c-0.2,0.2-0.4,0.4-0.5,0.5c-0.2,0.2-0.3,0.4-0.5,0.5l0,0
				c-0.1-0.1-0.1-0.1-0.2-0.2c0.3-0.4,0.7-0.7,1-1.1l0,0C-142.6,390-142.6,390-142.4,390.1L-142.4,390.1z M-140.1,387.6
				c-0.1,0.1-0.1,0.2-0.2,0.3l0,0l-0.2-0.2l0,0c0.1,0,0.1-0.1,0.1-0.1c0.2-0.2,0.4-0.3,0.6-0.5C-139.9,387.2-140,387.4-140.1,387.6z
				 M-139.7,387.1c0.1-0.1,0.2-0.2,0.3-0.4c0,0,0.1,0,0.1,0.1C-139.4,386.9-139.6,387-139.7,387.1z M-137.9,387.4
				c-0.3,0-0.6,0.1-1,0.1c0-0.1,0-0.2,0-0.2c0.3,0,0.7-0.1,1-0.1C-137.9,387.1-137.9,387.2-137.9,387.4L-137.9,387.4z M-145.6,391.5
				c0.1-0.2,0.2-0.4,0.3-0.6c1.5-1.7,3-3.3,4.5-5c0.1-0.1,0.2-0.2,0.3-0.2c0.1-0.1,0.3-0.1,0.4-0.2c0.1-0.3,0.3-0.6,0.4-0.8
				c0.2-0.2,0.3-0.5,0.5-0.7c0.4-0.4,0.9-0.8,1.4-1.1l0,0c-0.2,0.2-0.4,0.5-0.5,0.7c-0.2,0.2-0.4,0.5-0.6,0.7
				c-0.4,0.4-0.8,0.9-1.3,1.2c-1.8,2.1-3.7,4.2-5.5,6.3c-0.1,0-0.1-0.1-0.2-0.1l0,0C-145.7,391.6-145.7,391.6-145.6,391.5z
				 M-146.4,392.1L-146.4,392.1c0.1,0.1,0.2,0.2,0.2,0.2c0,0.1,0,0.2-0.1,0.3c0,0.1,0,0.2-0.1,0.2c-0.1,0.2-0.4,0.3-0.9,0.2
				C-146.9,392.6-146.7,392.4-146.4,392.1z M-155,390.6l0.5,0.2c0,0.1,0,0.1-0.1,0.2c-0.2,0-0.4-0.1-0.6-0.1l0,0
				C-155.1,390.9-155.1,390.8-155,390.6z M-165.1,421.6c-0.1,0-0.2,0-0.4-0.1l0,0c0.1-0.5,0.3-1.1,0.4-1.7c0.1,0,0.2,0,0.2,0
				C-165,420.6-165,421.1-165.1,421.6z M-164.5,418.6c0,0.1-0.1,0.2-0.1,0.4l0,0c0,0-0.1,0-0.2,0c0-0.2,0.1-0.5,0.1-0.7l0,0h0.1
				c0.1,0,0.1,0,0.1,0l0,0C-164.4,418.2-164.4,418.4-164.5,418.6z M-164.1,412.4L-164.1,412.4C-164.1,412.4-164.2,412.4-164.1,412.4
				L-164.1,412.4c-0.2-0.1-0.2-0.2-0.3-0.2l0,0c0.2-0.2,0.4-0.4,0.5-0.6l0,0l0,0c0,0,0.1,0.1,0.2,0.1l0,0c-0.1,0.1-0.1,0.2-0.2,0.3
				S-164.1,412.2-164.1,412.4z M-163.6,415.8L-163.6,415.8C-163.6,415.8-163.8,415.8-163.6,415.8c-0.1-0.1-0.1-0.1-0.2-0.1l0,0
				c0.1-0.3,0.2-0.7,0.4-1c0.1,0.1,0.2,0.1,0.3,0.2C-163.4,415.1-163.5,415.5-163.6,415.8z M-162.9,408.6c-0.1,0.1-0.2,0.2-0.3,0.4
				c-0.1,0-0.1-0.1-0.2-0.1c0.1-0.1,0.2-0.2,0.3-0.4C-163,408.5-162.9,408.5-162.9,408.6L-162.9,408.6z M-148.4,394.2
				c0.3-0.3,0.6-0.5,0.9-0.8l0,0c-0.1,0.3-0.2,0.6-0.3,0.8c0,0.1-0.1,0.1-0.1,0.2c-0.2,0.2-0.3,0.4-0.6,0.5h-0.1
				c-0.2,0.1-0.3,0.1-0.6,0.2C-148.9,394.8-148.7,394.6-148.4,394.2z M-150.5,396.1c0.1-0.1,0.2-0.2,0.4-0.3
				c0.1-0.1,0.2-0.2,0.4-0.3c0,0.1,0,0.2,0,0.4c0,0.1,0,0.1,0,0.2c0,0,0,0,0,0.1c0,0.1,0,0.1-0.1,0.1l-0.1,0.1l0,0h-0.1h-0.1l0,0
				l0,0h-0.1l0,0C-150.3,396.2-150.4,396.2-150.5,396.1L-150.5,396.1z M-152.8,399.2L-152.8,399.2c-0.1-0.1-0.2-0.2-0.2-0.2l0,0
				c0.3-0.2,0.5-0.4,0.8-0.6c0,0.1,0.1,0.1,0.2,0.2C-152.2,398.9-152.4,399.1-152.8,399.2z M-149.2,404.6L-149.2,404.6
				c-0.2,0.1-0.3,0.1-0.5,0.1c-0.5-0.1-0.9-0.2-1.5-0.3c0.3-0.3,0.6-0.5,0.7-0.6c0.4,0.1,0.6,0.2,0.9,0.3c0.1,0,0.2,0.1,0.2,0.2
				c0.1,0.1,0.1,0.2,0.2,0.2l0,0C-149.2,404.5-149.2,404.6-149.2,404.6z M-146.7,404.6h-0.2v-0.1c0,0,0,0,0-0.1c0,0,0-0.1,0-0.2h0.3
				C-146.6,404.4-146.6,404.5-146.7,404.6z M-146.1,402.5c-0.1,0-0.1,0.1-0.1,0.1l0,0c-0.1,0-0.1,0.1-0.1,0.1l0,0c0,0,0,0-0.1,0
				c-0.3-0.1-0.6-0.1-0.8-0.4c0.2,0,0.4,0,0.6,0.1C-146.6,402.4-146.4,402.4-146.1,402.5L-146.1,402.5z M-145.9,401.5
				c-0.2,0.1-0.4,0.2-0.6,0.3l0,0c0-0.1-0.1-0.1-0.1-0.2l0,0c0.2-0.1,0.4-0.1,0.6-0.2C-145.9,401.4-145.9,401.4-145.9,401.5
				L-145.9,401.5z M-142.2,404.2L-142.2,404.2c-0.2,0.1-0.2,0.1-0.3,0.2h-0.1c-0.1,0-0.2-0.2-0.4-0.2c0-0.1,0.1-0.2,0.1-0.3l0,0
				c0.1,0,0.3,0,0.4,0.1c0.1,0,0.2,0,0.2,0l0,0C-142.2,404.1-142.2,404.1-142.2,404.2L-142.2,404.2z M-141.4,402.2
				c-0.4-0.1-0.7-0.2-1.1-0.3c0-0.1,0-0.1,0-0.2l0,0c0.2,0,0.4,0.1,0.5,0.1c0.2,0,0.4,0.1,0.5,0.1l0,0
				C-141.4,402.1-141.4,402.1-141.4,402.2z M-139.7,402.1c-0.2,0.1-0.3,0.2-0.5,0.4l-0.2,0.1l0,0c0-0.1,0-0.2,0.1-0.3v-0.1l0.1-0.1
				c0.1,0,0.2-0.1,0.3-0.1C-139.9,402.1-139.7,402.1-139.7,402.1L-139.7,402.1z M-137.2,403.8c0,0.2,0,0.4,0,0.5l0,0l0,0
				c-0.1,0-0.1,0-0.2,0l0,0c0-0.2,0-0.4,0-0.5l0,0H-137.2L-137.2,403.8L-137.2,403.8z M-133,405.5L-133,405.5
				c-0.4-0.1-0.8-0.2-1.3-0.3l0,0c0-0.1,0-0.1,0-0.2l0,0c0.5,0.1,0.9,0.2,1.3,0.3C-132.9,405.4-132.9,405.4-133,405.5z
				 M-130.4,406.1c-0.3-0.1-0.6-0.1-0.9-0.2c0-0.1,0-0.1,0-0.2l0,0C-131,405.9-130.7,406-130.4,406.1L-130.4,406.1z M-129.9,405.1
				c-1.4-0.4-2.8-0.9-4.1-1.3c0-0.1,0.1-0.2,0.1-0.3c0.4,0,0.7,0.1,1.1,0.2c0.3,0.1,0.5,0.1,0.8,0.2c0.1,0,0.3,0.1,0.4,0.1
				c0.3,0.1,0.5,0.2,0.8,0.3c0.4,0.1,0.7,0.3,1.1,0.4l0,0C-129.7,405-129.9,405.1-129.9,405.1z M-123.2,409.1c0-0.1,0.1-0.2,0.1-0.2
				l0,0c0.2,0.1,0.3,0.1,0.5,0.2s0.3,0.1,0.5,0.2l0,0v0.1c0,0,0,0.1-0.1,0.2C-122.6,409.4-122.9,409.1-123.2,409.1L-123.2,409.1z
				 M-116.9,390.4c0,0,0.1,0,0.2,0h0.1l0,0c0.1,0.6,0.2,1.2,0.3,1.8c0,0.2,0.1,0.4,0.1,0.6h-2C-117.7,392-117.4,391.1-116.9,390.4z
				 M-114.6,402.6c0,0.1-0.1,0.1-0.1,0.2c-0.2-0.1-0.4-0.1-0.6-0.2h-0.1c-0.2,0-0.3-0.1-0.5-0.2c-0.1,0-0.2-0.1-0.3-0.1
				s-0.2-0.1-0.2-0.1s0,0-0.1,0c-0.2-0.1-0.4-0.2-0.6-0.3c-0.2-0.1-0.4-0.2-0.6-0.4c-0.3-0.2-0.6-0.3-0.8-0.5c-0.5-0.3-1-0.6-1.4-1
				c-0.2-0.2-0.5-0.3-0.7-0.5l0,0l0,0c0.4,0,0.8-0.1,1.2-0.1s0.8-0.1,1.2-0.1c0.8-0.1,1.6-0.2,2.5-0.3c0.5,1.2,1,2.4,1.4,3.5l0,0
				C-114.4,402.5-114.6,402.6-114.6,402.6z"/>
			<path d="M-33.6,410.5L-33.6,410.5c0.1,0,0.1,0,0.2-0.1L-33.6,410.5z M-36.7,406.8c0,0.1,0.1,0.1,0.1,0.2l0,0
				C-36.7,406.9-36.7,406.9-36.7,406.8z M-40.7,405.6c0.1-0.1,0.2-0.2,0.4-0.3l0,0C-40.6,405.4-40.6,405.5-40.7,405.6z M-41,404.2
				L-41,404.2c0,0,0.1,0,0.2,0.1C-40.9,404.2-41,404.2-41,404.2z M-41,404.1L-41,404.1L-41,404.1L-41,404.1z M-44.2,402.1
				L-44.2,402.1c0,0,0.1,0,0.2-0.1C-44.1,402-44.1,402-44.2,402.1z M-44.6,403.1c0.3,0.1,0.4,0,0.5,0S-44.2,403.1-44.6,403.1z
				 M-45.4,401.8c-0.1,0-0.2,0-0.2,0.1L-45.4,401.8L-45.4,401.8z M-48,419.8L-48,419.8c0.2,0,0.5-0.1,0.7-0.2
				C-47.6,419.6-47.7,419.8-48,419.8z M-48.4,400.1c0.1,0.2,0.2,0.3,0.3,0.4l0,0C-48.1,400.5-48.2,400.4-48.4,400.1z M-48.6,421.8
				c0-0.1,0-0.2-0.1-0.2C-48.6,421.6-48.6,421.6-48.6,421.8c0.1,0,0.2,0,0.3,0C-48.4,421.6-48.6,421.6-48.6,421.8z M-49.7,397.5
				C-49.7,397.5-49.9,397.5-49.7,397.5C-49.9,397.5-49.7,397.5-49.7,397.5L-49.7,397.5z M-52.7,422.2c0,0.1,0.1,0.2,0.1,0.2l0,0
				C-52.6,422.4-52.7,422.4-52.7,422.2z M-53,422.5L-53,422.5c0,0.1,0,0.1,0.1,0.1L-53,422.5z M-54.7,420.8L-54.7,420.8L-54.7,420.8
				C-54.7,420.9-54.7,420.9-54.7,420.8z M-54.7,420.8C-54.7,420.8-54.9,420.8-54.7,420.8C-54.9,420.8-54.7,420.8-54.7,420.8
				L-54.7,420.8z"/>
			<path d="M13.4,395.6c0,0,0.1,0,0.2,0l0,0C13.7,395.6,13.6,395.6,13.4,395.6z M13.4,396.1L13.4,396.1c0.1,0,0.2,0,0.3,0
				C13.7,396.1,13.6,396.1,13.4,396.1z"/>
			<path d="M-30,360.9c0.1,0.1,0.1,0.2,0.2,0.3l0,0C-29.9,361.1-30,360.9-30,360.9z M-30.1,362.4L-30.1,362.4c0-0.2,0.1-0.4,0.1-0.6
				C-30,362.1-30.1,362.2-30.1,362.4z M-30.4,360.6c0.1,0.2,0.1,0.4,0.2,0.6l0,0C-30.2,361.1-30.4,360.9-30.4,360.6z M-33.2,356.1
				L-33.2,356.1L-33.2,356.1L-33.2,356.1z M-33.1,355.6L-33.1,355.6C-33.2,355.6-33.2,355.6-33.1,355.6c0,0.1,0,0.2,0,0.3
				C-33.1,355.9-33.1,355.8-33.1,355.6z M-33.4,355.6L-33.4,355.6c0,0.2,0.1,0.3,0.1,0.5C-33.4,355.9-33.4,355.9-33.4,355.6z
				 M-33.6,369.9c0,0.1-0.1,0.1-0.1,0.2C-33.7,369.9-33.7,369.9-33.6,369.9L-33.6,369.9L-33.6,369.9z M-34,374.6L-34,374.6
				c0-0.1,0-0.2,0.1-0.3C-33.9,374.4-33.9,374.5-34,374.6z M-35,378.4c0,0.1-0.1,0.2-0.1,0.3l0,0l0,0C-35.1,378.6-35,378.5-35,378.4
				z"/>
			<path d="M-79.7,388.4c-0.6,2.4-1.1,4.7-1.1,7.2c0,0.1,0,0.2-0.1,0.4c-0.4,1.7-0.7,3.4-1.2,5.1c-0.1,0.5-0.5,0.9-0.8,1.5
				c0,0,0.2,0.2,0.3,0.4c-0.2,0.9-0.5,1.7-0.6,2.6c-0.2,1.4-0.2,2.8-0.4,4.2c-0.2,1.5-0.9,2.3-2.4,2.6c-0.4,0.1-0.9,0.4-1.3,0.3
				c-0.7-0.1-1.2-0.5-1.6-1.2c-1-1.9-0.4-3.7,0-5.5c0.6-2.7,1.5-5.3,1.5-8.1c0-0.2,0-0.5,0.1-0.7c0.7-1.7,1-3.5,1.2-5.3
				c0.2-1.9,0.6-3.8,1-5.7c0.2-0.8,0.6-1.6,1-2.4s0.9-1.3,1.9-0.9c0.2,0.1,0.5,0,0.8,0c0.3,0.8,1.1,0.7,1.8,1.1
				C-79.2,385.4-79.4,386.9-79.7,388.4z"/>
			<path d="M-54.9,364.9c-0.1,0.3-0.2,0.6-0.3,0.8c-0.4,0.7-0.8,1.3-1.2,2l0,0c-0.5,0.1-0.4,0.6-0.4,1c-0.1,0.1-0.1,0.3-0.2,0.4
				c0,0.1-0.1,0.3-0.1,0.4c-0.1,0.2-0.1,0.5-0.2,0.7h-0.1c-0.1,0-0.2,0-0.3,0l0,0l0,0c-0.1,0.1-0.2,0.3-0.3,0.5s-0.2,0.3-0.3,0.5
				h-0.4c0.1-0.4,0.3-0.8,0.3-1.2c0-0.2-0.1-0.4-0.2-0.9c0.9-1.3,1.9-2.8,3-4.2C-55.4,364.9-55.2,364.9-54.9,364.9z"/>
			<path d="M-58.2,370.6c-0.1,0.2-0.2,0.3-0.2,0.5l0,0C-58.4,370.9-58.2,370.9-58.2,370.6z"/>
			<path d="M-42.9,356.4c0,0.2,0.1,0.4,0.2,0.8c-0.2,0.1-0.3,0.2-0.5,0.3c-0.2-0.6-0.8-1.1-0.4-1.6c1.1-0.2,2.1-0.4,3-0.6
				C-41.1,355.8-41.4,355.9-42.9,356.4z"/>
			<path d="M-169,417.6c-0.7,0-1.2,0.9-2,0.3c0.1-0.5,0.1-1,0.2-1.6c0.1,0,0.2,0,0.3,0C-170,416.8-169.6,417.1-169,417.6z"/>
			<path d="M-58.7,367.8c-0.5,0.9-0.9,1.8-1.5,2.8C-60.4,369.2-60.2,368.9-58.7,367.8z"/>
			<path d="M-43.9,357.8c-0.5,0.4-0.9,0.6-1.2,0.9c0,0-0.1-0.1-0.2-0.1c0.1-0.2,0.2-0.4,0.2-0.6c-0.4,0.1-0.7,0.3-1.1,0.4
				c-0.1-0.3-0.2-0.6-0.4-1c0.2-0.1,0.4-0.1,0.6-0.2c0.4,0,0.7,0,1.1-0.1c-0.1-0.2-0.1-0.5-0.2-0.7c0.1-0.2,0.2-0.3,0.4-0.6
				c0.2,0.5,0.4,0.8,0.6,1.2c-0.2,0.1-0.4,0.1-0.6,0.2v0.1C-44.6,357.4-44.4,357.6-43.9,357.8z"/>
			<path d="M-51.4,361.6c-0.8,0.7-1.1,0.2-1.6-0.3c0.2-0.2,0.4-0.4,0.6-0.5c0.2-0.1,0.3-0.3,0.4-0.4l0.2,0.2
				c-0.2,0.1-0.4,0.2-0.5,0.3C-51.9,361.1-51.6,361.4-51.4,361.6z"/>
			<path d="M15.2,387c-0.1,0.5-0.1,1.1-0.2,1.7c-0.4,0-0.6,0-0.8,0l0,0c0.3-0.6,0.6-1.1,0.8-1.7C14.9,386.9,15.1,386.9,15.2,387z"/>
			<path d="M-38.1,354.6c-0.3,0.5-0.4,0.8-0.7,1.3c-0.3-0.4-0.4-0.6-0.6-1C-39,354.9-38.7,354.8-38.1,354.6z"/>
			<path d="M-36.9,353.9c-0.2,0-0.3,0.1-0.6,0.1c-0.1-0.4-0.2-0.7-0.3-1.2C-37.2,352.9-37,353.4-36.9,353.9z"/>
			<path d="M-128.2,409.1c-0.4-0.1-0.8-0.2-1.1-0.3C-128.7,408.5-128.6,408.8-128.2,409.1z"/>
			<path d="M14.4,390.1c-0.1-0.4-0.2-1-0.3-1.6l0,0c-0.4,1.1-1.4,1.9-1.3,3.1c0,0.1-0.1,0.2-0.1,0.3c-0.5,0.6-0.5,1.4-0.5,2.1
				c0,0.5,0,1-0.2,1.5c-0.3,0.8-0.8,1.4-1.2,2.2c-0.8,1.6-1.5,3.1-2.2,4.7c0,0.1,0,0.2,0,0.4c-0.4,1.4-1,2.6-2,3.6
				c-0.4,0.3-0.8,0.6-1.3,0.1c0.1-1.6,0.2-3.2,0.2-4.7c-0.3-0.2-0.5-0.2-0.5-0.2c0-1.4,0.1-2.6,0-3.8c0-0.7-0.1-1.6-0.6-2
				c-0.6-0.6-0.7-1.2-0.8-1.8c0-0.2-0.2-0.3-0.3-0.7c-0.4,0.7-0.8,0.9-1.4,0.5c-0.2-0.5-0.4-0.9-1-0.5c-0.5,0.1-0.8,0.3-1,0.8
				c-0.1,0.2-0.2,0.5-0.3,0.7c-0.8,1.1-1.6,2.1-2.4,3.1c-0.3,0.4-0.7,0.8-1.2,1.4c1.2-3.7,2.2-7.1,3.3-10.5c0.7-0.2,1.3-0.3,1.9-0.5
				c0-0.1-0.1-0.2-0.1-0.2c0.4-0.3,0.7-0.6,1.1-1c0.6-0.4,1.2-0.9,1.8-1.3c0.1-0.1,0.3-0.2,0.4-0.4c0.5-0.4,1-0.8,1.5-1.2
				c0,0,0-0.1,0.1-0.2c-0.2,0-0.4,0-0.6,0v-0.7H3.2c0.3-0.4,0.5-0.6,0.7-1c-0.8-0.1-1.5-0.2-2.3-0.4c0,0.1-0.1,0.2-0.1,0.2
				c-0.5,0.1-0.8,0.1-1.1,0.2c-0.8,0.3-1.6,0.7-2.4,1c-0.8,0.3-1.6,0.4-2.4,0.6c-0.9,0.2-1.8,0.6-2.6,0.6c-2.9,0.2-5.7,0.8-8.3,1.5
				c-0.4,0.8-0.8,1.4-1.1,2l-0.1,0.1c0,0.9-0.1,1.8-0.1,2.7c0.5,0.4,1,0.8,1.3,1.1c0.8,0,1.4,0,2,0c0.7,0,1.3,0,2-0.1
				c0.6-0.1,1.2-0.2,1.8-0.4c0.5-0.1,1.1-0.2,1.8-0.4c-0.6,1.7-1.2,3.2-1.7,4.7c-0.3,0.9-0.7,1.9-1.1,2.8c-0.5,1.2-1,2.3-1.5,3.5
				c-0.3,0.7-0.6,1.3-0.9,1.9c-0.2,0.5-0.4,1-0.7,1.5c-0.6,1.3-1.2,2.5-1.9,3.8c-0.6,1.1-0.6,2,0.4,2.8c-0.1,0.5-0.1,0.9-0.2,1.4
				c0.5-0.1,0.9-0.1,1.2-0.2c0.1,0.1,0.2,0.3,0.3,0.5c0.8-0.5,1.5-0.9,2.4-0.8c0.2,0,0.4-0.2,0.5-0.3c1.1-1.2,2.1-2.4,3.2-3.5
				c0.1-0.4,0.1-0.8,0.3-1.1c0.7-1.1,1.5-2.1,1.4-3.6c0-0.1,0.1-0.2,0.1-0.2c0.3-0.9,0.9-1.8,0.9-2.8c0-0.2,0.2-0.5,0.3-0.7
				c1-1.1,2-2.3,3-3.4c0.2-0.2,0.4-0.2,0.9-0.5c-0.3,0.8-0.5,1.4-0.8,2.1c0.4-0.1,0.7-0.1,1.1-0.2c0.1,1,0.4,1.8,0.4,2.7
				c0.1,1.5-0.1,3.1,0.1,4.6c0.1,1.5,0.2,3.1,0.9,4.6c-0.7,1.7,0.9,2.6,1.4,4c0.5,0,1,0.1,1.6,0.1c0.2,0.2,0.4,0.4,0.5,0.6
				c2-0.4,3.3-1.7,4.5-3c0.8-0.8,1.3-1.7,2-2.5c1.1-1.2,1.9-2.6,2.6-4.1c0.7-1.4,0.7-3.1,1.8-4.3c0.2-0.2,0.2-0.6,0.3-0.9
				c0.1-0.7,0.1-1.3,0.1-2c0.3-0.2,0.6-0.4,0.8-0.5c0.2-1,0.3-1.9,0.4-2.8C17.4,393,16.6,391.2,14.4,390.1z M13.4,396.1v-0.4
				c0,0,0.1,0,0.2,0l0,0c0,0.1,0.1,0.3,0.1,0.4C13.7,396.1,13.6,396.1,13.4,396.1z"/>
			<path d="M-50.4,359.4c-0.2,0.2-0.3,0.5-0.5,0.7C-51.1,359.6-51,359.4-50.4,359.4z"/>
			<path d="M-130.1,408.2c0,0.1,0,0.2,0,0.3c-0.3-0.1-0.6-0.2-0.9-0.3c0-0.1,0.1-0.2,0.1-0.2C-130.7,408.1-130.4,408.1-130.1,408.2z
				"/>
			<path d="M-15.9,383.9c0.1-0.6-0.1-1.3-0.2-2c-1.1-0.6-1.9-2.2-3.6-1.9c-1.1,1.4-1.8,2.9-2.2,4.5c-0.5,2.2-1,4.4-1.5,6.5
				c-0.6,2.3-1.2,4.7-1.9,7c-0.3,1.2-0.5,2.4-1,3.6c-0.6,1.4-1.1,2.8-1.2,4.4c-0.1,0.7-0.4,1.3-0.6,2c-0.6-0.6-1.2-0.9-1.6-1.5
				c-0.5-0.8-1.4-1.1-2.2-1.6c-0.7-0.4-1.3-1.2-2-1.7c-0.1-0.1-0.4-0.1-0.6-0.1c-0.1,0-0.3,0-0.4,0c-1-0.6-2-1.3-3.1-1.9
				c-0.5-0.3-1-0.5-1.4-0.7l-0.1,0.1c-0.1-0.2-0.2-0.4-0.3-0.6c-0.2,0.1-0.5,0.1-0.7,0.2c-0.6-1-0.6-1-2.4-1.4
				c-0.5-0.5-0.9-1-1.3-1.5c-0.4,0.3-0.6,0.4-0.7,0.5c-0.5-0.6-0.9-1.2-1.3-1.7c-0.4-0.5-1-0.9-1.7-0.8c-0.4-1.4-0.7-1.4-1.8-1.5
				c-0.2-1-1.7-1.9-2.5-2.4c-0.5-0.7-0.9-1.2-1.3-1.7c-1.3-1.4-2.2-3.1-3-4.8c-0.9-1.8-1.1-3.8-1.2-5.8c0-1.6-0.1-3.2,0.7-4.6
				c0.1-0.2,0.1-0.6,0.1-0.9c0-0.2,0-0.4,0.1-0.6c0.5-0.8,1-1.5,1.5-2.3c0.5-0.9,1-1.8,1.5-2.8c-0.1,0-0.1-0.1-0.2-0.1
				c-0.2,0.2-0.4,0.4-0.6,0.6c-0.1-0.1-0.1-0.1-0.2-0.2c0.5-0.6,1-1.3,1.5-1.9c0.3,0,0.5,0,0.7,0.1c0.7-0.8,1.2-1.7,2-2.2
				c0.5-0.4,0-1,0.8-1.3c0.5-0.2,0.9-0.8,1.4-1.3c-0.1-0.1-0.2-0.3-0.3-0.4c0.6-0.4,1.1-0.7,1.7-1.1c0-0.1-0.1-0.3-0.1-0.5
				c0-0.5,0.9-0.6,0.4-1.3c-1.1,0.4-1.4,1.4-1.9,2.3c-0.1-0.3-0.2-0.4-0.5-0.9c-0.7,0.8-1.2,1.4-1.7,2c-0.7,0.8-1.3,1.8-2.4,2.3
				c-0.1,0.2-0.2,0.4-0.4,0.6c-0.1,0-0.1,0-0.2,0c0-0.2,0.1-0.5,0.1-0.8c0-0.1-0.1-0.1-0.2-0.2c0-0.2,0.1-0.5,0.1-0.7
				c-0.1,0-0.2-0.1-0.3-0.1c-0.1,0.2-0.2,0.5-0.3,0.7h-0.8c0.1,0.3,0.2,0.6,0.3,0.8c0.3,0.3,0.6,0.5,0.9,0.9c-0.8,1-1.5,1.9-2.2,2.8
				c-0.2,0.4-0.3,0.7-0.5,1.1c-0.2,0.4-0.3,0.7-0.5,1.1c0,0,0,0,0,0.1c0,0,0,0-0.1,0h-0.1c0,0-0.1,0-0.2-0.1c0,0,0,0-0.1-0.1V370
				h-0.1c-0.1,0.2-0.2,0.4-0.3,0.6l-0.1,0.1l-0.1,0.1c0,0-0.1,0.1-0.2,0.1s-0.1,0-0.2,0h-0.1c-0.8-0.1,0.2-0.8-0.4-1.1
				c-0.4,0.9-0.8,1.7-1.3,2.5c-0.4,0.8-0.1,1.8-0.8,2.5c-0.1-0.3,0-0.7,0-1c0-0.2-0.2-0.3-0.4-0.5c0,0.3-0.1,0.7-0.1,1
				c-0.1,0-0.2,0-0.2-0.1c0.1-0.3,0.2-0.7,0.3-1c1.2-0.5,0.9-1.7,1.4-2.8c-0.8,0.5-1.3,0.8-1.6,1.5c-0.9,2.2-1,4.5-1.2,6.8
				c-0.1,2,0,2-1.5,3.1c-0.2,0.1-0.3,0.2-0.5,0.4c-1.9,1.5-3.7,3.1-6,4c-1,0.4-1.8,1-2.8,1.5c-0.3,0.2-0.7,0.3-1,0.3
				c-0.7-0.1-1.1,0.2-1.5,0.7c-0.3,0.5-0.7,1-1,1.6c-1.2,0.2-1.5,0.7-1.5,1.9c0,0.8-0.1,1.6-0.2,2.4c0,0.3-0.1,0.6-0.2,0.8
				c-0.1,0.8-0.2,1.7-0.4,2.5c-0.1,0-0.1,0-0.2,0c0.1,0.3,0.2,0.5,0.2,0.8c-0.3,0.5-0.5,0.9-0.8,1.3c0.4,2.6,0.5,2.1-0.5,5.2
				c-0.2,0.5-0.5,1-0.5,1.5c-0.1,1.3-1,2.8,0.7,3.8c-0.3,1.1-0.2,1.3,0.6,1.8c1.4,0.9,2.7,0.7,4.2,0.1c0.9-0.4,1.8-0.6,2.6-1.1
				c1.6-0.9,3.2-1.8,4.9-2.6c1.1-0.5,2-1.3,3-1.9c1.4-0.7,2.8-1.4,4.2-2c0.1-0.7,0.1-1.2,0.2-1.6c0.4-0.2,0.8-0.3,1.3-0.5
				c-0.4-0.4-0.6-0.7-0.8-0.9c-0.6,0.1-1.1,0.2-1.6,0.3c0.1-0.6,1-0.6,0.4-1.3c-0.5,0.1-1.1,0.1-1.7,0.2c0-0.2,0-0.4,0.1-0.5
				c-0.9,0.3-1.6,0.5-2.3,0.7c-0.4,0.2-0.8,0.4-1.2,0.7c-0.2,0.1-0.3,0.2-0.4,0.4c-0.6,0.8-1.5,1.2-2.4,1.5c-0.5,0.1-1,0.3-1.5,0.5
				c-0.8,0.3-1.4,0.8-2.3,0.7c0-0.3,0-0.5,0-0.8c-0.5,0.5-0.7,1.2-1.7,0.8c0-0.3-0.2-0.7-0.1-1c0.4-1.3,0.9-2.6,1.3-4
				c0.5,0.1,0.9,0.2,1.2,0.3c1,0.3,3.5-0.7,4-1.7c0.1-0.2,0.1-0.4,0.2-0.6c0.3-1.2-0.1-2.3-0.7-3.3c-1.1-0.1-2.2-0.2-3.3-0.3
				c0.5-1.3,4-4.3,5.2-4.7c1.2-1.2,2.3-2.2,3.3-3.1c0.2,0.2,0.4,0.3,0.5,0.4c0.2-0.3,0.3-0.5,0.5-0.8c0.8,0.1,1.2,0.4,1.4,1.1
				c0.5,1.9,1.8,3.3,2.7,5c0.2,0.3,0.6,0.6,0.9,0.8c0.8,0.6,1.7,1.1,2.3,1.9c1.1,1.4,2.5,2.3,3.8,3.4c0.2,0.2,0.5,0.1,0.8,0.2
				c-0.1-0.4-0.3-0.8-0.5-1.2c-0.3-0.2-0.5-0.5-0.8-0.7c0,0,0.1,0,0.2,0c0.1,0,0.1,0,0.2,0h0.1c0,0,0.1,0,0.1,0.1c0,0,0.1,0,0.1,0.1
				c0.1,0.1,0.1,0.2,0.2,0.4c0,0,0,0.1,0.1,0.1c0.5,0.1,1.1,0.2,1.5,0.3c0.3,0.5,0.5,0.8,0.8,1.3h-1.3c0.2,0.7,0.7,1.2,1.4,1.5
				c1.6,0.7,3,1.7,4.3,2.8c0.2,0.2,0.5,0.2,0.8,0.3c0-0.2,0-0.4,0-0.6c0.4,0.3,0.4,0.3,0.1,0.7c0.2,0.2,0.3,0.4,0.5,0.6
				c1.2-0.7,0.1-1.5,0.4-2.5c0.4,0.7,0.7,1.2,1,1.7c-0.1,0.3-0.2,0.6-0.3,0.8c0.2,0.1,0.5,0.2,0.6,0.3c0.5,1,1.4,1.4,2.4,1.7
				c0.6,0.2,1.1,0.6,1.7,0.9c0.8,0.5,1.6,1.4,2.7,1.3c0.2,0.2,0.5,0.3,0.7,0.5c0.1,0.4,0.3,0.7,0.8,0.7c0-0.2,0.1-0.3,0.1-0.6l0,0
				l0.1,0.1c0.1,0.1,0.1,0.1,0.1,0.2c0,0.1,0,0.2-0.1,0.2c0,0,0,0-0.1,0c0,0-0.1,0-0.2,0.1c0.2,0.9-0.7,1-1.1,1.5
				c0.1,0.2,0.1,0.3,0.2,0.5h-0.8c-0.3,0.5-0.7,0.9-1.2,1.2c-1,0.4-2.1,0.8-3.1,1.2c-0.9,0.3-1.8,0.6-2.7,0.9
				c-0.8,0.3-1.6,0.7-2.4,0.8c-0.5,0-0.5,0.6-1,0.6s-1,0.2-1.6,0.3c-0.6,0.2-1.1,0.4-1.7,0.5c-1.1,0.3-2.1,0.8-3,0.4
				c-0.8,0.4-1.5,0.8-2.2,1.2c-0.3-0.2-0.5-0.5-0.7-0.6c-0.3,0.2-0.5,0.5-0.8,0.6c-1.1,0.2-2.2,0.4-3.2,0.6
				c-1.1,0.2-2.1,0.2-3.2,0.5c-0.6,0.1-1.1,0.5-1.7,0.8c-0.4-0.5-0.9-0.9-1.3-1.4c-0.3,0.1-0.7,0.2-1.1,0.3
				c-0.1-0.3-0.2-0.5-0.2-0.7c-0.7,0.4-1.3,0.7-1.9,1c0.1,0.2,0.1,0.4,0.2,0.5c-0.3,0.1-0.5,0.2-1.1,0.3c0.6,0.4,1,0.5,1.3,0.7
				c-0.2,0.9-1.2,0.3-1.7,1c0.8,0.3,1.5,0.6,2.1,0.9c0.2,0.3,0.3,0.6,0.5,0.8c1.1,0.1,2.1,0.2,3.1,0.2c0.1-0.2,0.1-0.4,0.2-0.7h3
				c0,0,0.2,0.2,0.3,0.3c0.4-0.3,0.7-0.6,1-0.6c1.3-0.2,2.7-0.4,4-0.6c1.1-0.2,2.2-0.3,3.2-0.5c1.5-0.2,3-0.5,4.5-0.8
				c0.4-0.1,0.8,0.2,1.4-0.1c0.9-0.5,1.9-0.6,2.9-0.8c0.2,0,0.4,0.2,0.7,0.2c0.4-0.5,0.9-0.9,1.6-0.7c0.1,0,0.3,0,0.3,0
				c0.6-1,1.8-0.1,2.5-0.7c1.1,0.9,1-0.3,1.3-0.9c0.4,0.1,0.9,0.2,1.4,0.3c0.1-0.2,0.1-0.5,0.3-0.8c1.3,1,1.9-0.8,2.9-0.5
				c0-0.3,0.1-0.4,0.1-0.5c2.8-1,4.5-2.9,5.8-5.5c0.2,0.3,0.3,0.5,0.4,0.6c1-0.2,2-0.4,3-0.6c0.8-1.5,0.4-3.3,1.3-4.9
				c-0.4-1.1,0.2-2,0.4-3c0.4-2.4,1.8-4.6,2.1-7.1c0.1-0.8,0.2-1.7,0.8-2.3c0.3-0.3,0.4-0.8,0.5-1.2c0.4-1.5,0.7-3,1.1-4.5
				c0.1-0.3,0.4-0.5,0.5-0.7l0.1-0.1c-0.3-0.5-0.2-0.9,0-1.4C-16.2,385.9-16.1,384.9-15.9,383.9z M-50.9,362.4
				c0.1,0,0.1,0.1,0.2,0.1l0,0c-0.2,0.2-0.4,0.5-0.5,0.7c0,0-0.1,0-0.3-0.1C-51.2,362.9-51,362.8-50.9,362.4z M-61.2,376.6
				c-0.1,0.4-0.1,0.7-0.2,1c-0.1,0-0.2,0-0.2-0.1c0.1-0.3,0.2-0.7,0.2-1l0,0C-61.4,376.6-61.4,376.6-61.2,376.6L-61.2,376.6z
				 M-59.4,372.4c-0.1,0-0.1-0.1-0.2-0.1l0,0c0.1-0.2,0.2-0.4,0.2-0.6c0.1,0,0.1,0,0.2,0.1C-59.4,372-59.4,372.1-59.4,372.4z
				 M-49.4,397.9L-49.4,397.9c-0.2-0.1-0.3-0.1-0.5-0.2c0.1-0.1,0.1-0.1,0.1-0.2c0,0,0,0,0-0.1l0,0c0.1,0.1,0.3,0.2,0.4,0.3
				C-49.4,397.8-49.4,397.9-49.4,397.9z M-47.7,400.5c-0.1,0-0.2,0.1-0.3,0.1l0,0c-0.1-0.1-0.2-0.3-0.3-0.4
				c-0.1-0.2-0.2-0.3-0.4-0.5c0.4,0,0.7-0.1,0.7,0l0,0c0,0.1,0.1,0.1,0.1,0.2C-47.8,400-47.8,400.2-47.7,400.5
				C-47.9,400.4-47.9,400.5-47.7,400.5L-47.7,400.5z M-45.6,401.9c-0.2,0.1-0.4,0.1-0.6,0.1c-0.1,0-0.2,0-0.2,0l0,0c0,0,0,0-0.1,0
				c-0.2-0.1-0.3-0.3-0.4-0.6c0-0.1-0.1-0.2-0.1-0.4c0.4,0.2,0.8,0.4,1.2,0.7c0.1,0.1,0.3,0.2,0.4,0.2l0,0
				C-45.4,401.8-45.6,401.9-45.6,401.9z M-44,403c-0.1,0.1-0.2,0.1-0.5,0c-0.1,0-0.3-0.1-0.5-0.1c0.1-0.2,0.2-0.3,0.3-0.6
				c0.3,0.1,0.5,0.3,0.7,0.4C-43.9,402.9-43.9,403-44,403z M-44.4,401.6c0.1,0,0.1,0,0.2-0.1l0.1,0.3c0,0-0.1,0.1-0.2,0.1l0,0
				C-44.2,401.9-44.4,401.9-44.4,401.6z M-43.4,399L-43.4,399c-0.7,0.4-0.7,0.4-1.3-0.2c0.3,0,0.6,0.1,0.9,0.2
				C-43.6,398.9-43.6,399-43.4,399L-43.4,399z M-41,404.2C-41,404.1-41,404.1-41,404.2c0-0.1,0-0.1,0-0.2l0,0c0.1,0,0.2,0.1,0.3,0.1
				c0,0.1,0,0.1-0.1,0.2C-40.9,404.4-40.9,404.4-41,404.2C-40.9,404.2-41,404.2-41,404.2L-41,404.2z M-40.4,405.4
				c-0.1,0.1-0.2,0.2-0.4,0.3c-0.1-0.1-0.1-0.1-0.1-0.2c0.1-0.1,0.3-0.1,0.4-0.2l0,0C-40.4,405.1-40.4,405.2-40.4,405.4L-40.4,405.4
				z M-38.4,406.9c-0.3-0.3-0.6-0.5-0.9-0.7c0.1-0.1,0.1-0.1,0.2-0.2C-38.4,406.1-38.4,406.1-38.4,406.9z M-36.6,407
				c-0.1,0.1-0.2,0.2-0.3,0.2c-0.1-0.1-0.2-0.3-0.3-0.4l0,0c0.1,0,0.1-0.1,0.1-0.1l0.1-0.1l0,0c0,0.1,0.1,0.1,0.1,0.2
				C-36.7,406.9-36.7,406.9-36.6,407L-36.6,407z M-34,409.6c-0.1,0-0.1,0.1-0.2,0.2l0,0c-0.1-0.2-0.2-0.5-0.2-0.8
				c0-0.1,0.1-0.2,0.2-0.5C-34.1,408.9-33.6,409.1-34,409.6z M-58,423.1c0.3-0.6,0.3-0.6,1.7-0.1C-56.9,423.1-57.6,423.1-58,423.1z
				 M-54.7,420.9c-0.1,0-0.1,0.1-0.2,0.1H-55l0,0c0,0-0.1-0.1-0.1-0.2c0.1,0,0.2,0,0.2-0.1h0.1l0,0c0,0,0,0,0,0.1
				C-54.7,420.9-54.7,420.9-54.7,420.9L-54.7,420.9z M-52.6,422.5c-0.1,0-0.2,0.1-0.3,0.1c0,0,0-0.1-0.1-0.1l0,0
				c0.1-0.1,0.2-0.1,0.3-0.2C-52.7,422.4-52.6,422.4-52.6,422.5L-52.6,422.5z M-51.6,420.6c0-0.1,0-0.2-0.1-0.2
				c0.8-0.2,1.7-0.4,2.5-0.5c0,0.1,0.1,0.2,0.1,0.3C-49.9,420.2-50.7,420.5-51.6,420.6z M-47.4,419.5c0,0.1,0,0.1,0,0.2
				c-0.2,0.1-0.5,0.1-0.7,0.2l0,0c0-0.1,0-0.2,0-0.3C-47.9,419.5-47.6,419.5-47.4,419.5z M-43.9,420.4c0,0.1-0.1,0.2-0.1,0.2
				c0,0.1-0.1,0.1-0.1,0.2c-0.1,0.1-0.2,0.1-0.3,0.2c-0.2,0.1-0.5,0.1-0.7,0.1c-0.1,0-0.1,0-0.2,0s-0.1,0-0.2,0.1c0,0,0,0-0.1,0.1
				v0.1l0,0c-0.5,0.1-1,0.1-1.4,0.2c-0.2,0-0.3,0-0.5,0.1c-0.3,0-0.6,0.1-0.8,0.1c-0.1,0-0.2,0-0.4,0.1c0-0.1,0-0.2,0-0.3l0,0
				c0.2-0.1,0.4-0.2,0.5-0.2c0.3-0.1,0.6-0.2,0.9-0.3c0.1,0,0.2-0.1,0.4-0.1c0.2-0.1,0.3-0.1,0.5-0.2s0.5-0.1,0.7-0.2h0.2
				c0.2,0,0.5-0.1,0.8-0.1c0.2,0,0.4,0,0.6,0C-44,420.4-43.9,420.4-43.9,420.4L-43.9,420.4z"/>
			<path d="M-125.6,409.9c0,0.1,0,0.2,0,0.2c-0.2,0-0.4,0-0.6-0.1c0-0.1,0-0.1,0-0.2C-125.9,409.9-125.9,409.9-125.6,409.9z"/>
			<path d="M-29.2,358.8c-0.2,0.2-0.5,0.4-0.7,0.5c-0.5-0.9,0.5-0.9,0.9-1.3c-0.4-0.5-0.8-0.9-1.2-1.4c-0.1-0.3-0.2-0.6-0.3-1v1.2
				c0,0.5-0.1,1-0.2,1.6c-0.2-0.3-0.4-0.6-0.4-0.7c0.2-0.9-0.2-1.6-0.5-2.4c-0.2,0.3-0.5,0.6-0.8,0.9c-1-0.9,0.6-1.8-0.2-2.7
				c-0.7,0.2-1.4-1-2.1,0c0,0.3,0,0.7,0.1,1.1h-1.1c0.2-0.6,0.3-1,0.4-1.5c-0.3-0.2-0.6-0.3-0.7-0.4c-0.3,1-0.6,1.8-0.9,2.8
				c0.8,0.3,1.5,0.5,2.3,0.8c0.1-0.1,0.1-0.2,0.3-0.5c0.2,0.3,0.3,0.5,0.5,0.8c-0.2,0-0.4-0.1-0.5-0.1c-0.2,0.8-0.2,1.6,0.1,2.4
				c0.1,0.2,0.1,0.3,0.1,0.5c-0.3,1.8-0.5,3.6-1,5.4c-0.6,2-0.9,4.1-1.3,6.1c-0.1,0.8-0.4,1.6-0.6,2.3c-0.3,0.7-0.6,1.4-0.9,2.1
				c-0.9,2-1.5,4.1-1.9,6.3c0,0.3-0.3,0.7-0.4,1c-0.4,1-1.2,1.9-1.3,3c-0.1,1.2-0.7,2.1-1,3.1c-0.5,1.6-1.4,3.1-1.4,4.7
				c0.4,1.3,1.2,2,2.5,2.2c1.1-0.4,2.2-0.9,2.7-2.1c0.1-0.2,0.4-0.4,0.6-0.6c0.2-0.2,0.4-0.4,0.5-0.7c0.3-1.3,1.1-2.3,1.3-3.7
				c0.2-1.4,0.9-2.7,1.4-4.1c0.1-0.4,0.4-0.8,0-1.5c-0.1,0.3-0.1,0.4-0.2,0.5c0,0.1-0.1,0.2-0.2,0.3c-0.1,0-0.2,0-0.2-0.1
				c0.1-0.8,0.3-1.6,0.4-2.3c0.1,0,0.2,0,0.3,0c0,0.4,0,0.8-0.1,1.2c0.1,0,0.2,0,0.2,0.1c0.4-1.2,0.7-2.4,1.2-3.8
				c1.1-0.8,0.3-2.3,0.4-3.5c0.1,0,0.2-0.1,0.3-0.1c0.1,0.3,0.2,0.5,0.3,0.8c0.2-0.8,0.5-1.5,0.6-2.1c0.3-0.9,0.5-1.8,0.8-2.7
				c0.3-1,0.6-2.1,0.8-3.2c0.1-0.5,0.3-1,0.3-1.5c0.1-0.8,0.2-1.6,0.2-2.5c0.2-0.1,0.4-0.2,0.4-0.3c-0.1-1.2-0.2-2.3-0.2-3.4
				C-29,359.9-28.9,358.9-29.2,358.8z M-36.4,375c-0.1,0.3-0.2,0.5-0.3,0.8c-0.1,0-0.1,0-0.2-0.1c0.1-0.3,0.2-0.5,0.3-0.8
				C-36.6,374.9-36.4,374.9-36.4,375L-36.4,375z M-35.2,374c0,0-0.1,0-0.2,0c0-0.1-0.1-0.3-0.1-0.4l0,0c0.1,0,0.2,0,0.3,0
				C-35.2,373.6-35.2,374-35.2,374z M-34.9,378.4c-0.1,0.1-0.1,0.2-0.2,0.3l0,0l0,0C-35,378.6-34.9,378.5-34.9,378.4
				C-35,378.4-34.9,378.4-34.9,378.4L-34.9,378.4z M-33.9,374.6c0,0-0.1,0-0.2-0.1l0,0c0-0.1,0-0.2,0.1-0.3c0-0.1,0-0.2,0-0.3
				c0,0,0,0,0-0.1l0,0c0.1,0,0.1,0,0.2,0l0,0c0,0.1,0.1,0.3,0.1,0.4C-33.6,374.5-33.7,374.6-33.9,374.6z M-33.6,370.1
				c-0.1,0.1-0.2,0.3-0.4,0.4l0,0c0,0,0,0-0.1-0.1c0,0-0.1,0-0.1-0.1c0.1-0.1,0.2-0.3,0.3-0.4c0-0.1,0.1-0.1,0.1-0.2l0,0l0,0
				l0.1,0.1l0.1,0.1l0,0C-33.4,370.1-33.6,370.1-33.6,370.1z M-33.1,356.1L-33.1,356.1L-33.1,356.1c-0.1-0.2-0.2-0.3-0.2-0.5l0,0
				h0.1h0.1c0,0.1,0,0.2,0,0.3l0,0C-33.1,355.9-33.1,356.1-33.1,356.1L-33.1,356.1z M-30.1,362.4L-30.1,362.4c-0.1,0-0.2,0-0.3,0
				l0,0c0-0.2,0.1-0.4,0.1-0.6c0.1,0,0.2,0,0.2,0.1C-30,362.1-30.1,362.2-30.1,362.4z M-29.9,361.1c-0.1,0.1-0.2,0.1-0.3,0.2l0,0
				c-0.1-0.2-0.1-0.4-0.2-0.6c0.1,0,0.1-0.1,0.2-0.1l0,0c0.1,0.1,0.1,0.2,0.2,0.3C-30,360.9-29.9,361.1-29.9,361.1L-29.9,361.1z"/>
			<path d="M-100,397.1c-0.2,0.1-0.4,0.2-0.6,0.3c0-0.1-0.1-0.1-0.2-0.2c0.2-0.1,0.4-0.2,0.6-0.3C-100.1,397.1-100,397.1-100,397.1z
				"/>
			<path d="M-31.4,355.4h-0.2c0-0.3,0-0.5,0-0.8c0.1,0,0.1,0,0.2,0C-31.4,354.9-31.4,355.1-31.4,355.4z"/>
			<path d="M-119.6,412.5c0,0.2,0,0.3-0.1,0.5c-0.2-0.1-0.3-0.1-0.7-0.3C-120,412.5-119.9,412.5-119.6,412.5z"/>
			<path d="M-44.4,354.4c0,0.1-0.1,0.3-0.1,0.4c-0.1,0-0.1,0-0.2-0.1c0-0.1,0.1-0.2,0.1-0.4C-44.4,354.4-44.4,354.4-44.4,354.4z"/>
			<path d="M-39,353.9c-0.1,0-0.2,0-0.3,0c0-0.1,0-0.3,0.1-0.4h0.2C-39,353.6-39,353.9-39,353.9z"/>
			<path d="M-138.2,375.9c0,0.1-0.1,0.2-0.1,0.4c-0.1,0-0.1-0.1-0.2-0.1C-138.4,376-138.4,375.9-138.2,375.9
				C-138.4,375.8-138.2,375.8-138.2,375.9z"/>
			<path d="M-136.9,375.9c-0.1,0.2-0.2,0.3-0.3,0.5c-0.1,0-0.1-0.1-0.2-0.2L-136.9,375.9L-136.9,375.9z"/>
			<path d="M16.4,388.1c-0.1,0-0.1,0.1-0.2,0.1c-0.1-0.1-0.1-0.2-0.2-0.3c0,0,0.1,0,0.2-0.1C16.4,387.9,16.4,388,16.4,388.1z"/>
			<path d="M-127.6,408.4c0,0.1-0.1,0.2-0.1,0.2c-0.2-0.1-0.3-0.3-0.5-0.4l0,0C-127.9,408.2-127.7,408.4-127.6,408.4z"/>
			<path d="M-141.1,405.9c-0.1,0-0.2,0.1-0.3,0.1s-0.2-0.1-0.6-0.2c0.5,0,0.7-0.1,0.9-0.1C-141.1,405.8-141.1,405.9-141.1,405.9z"/>
			<path d="M-134,398.8c0,0.1,0,0.1-0.1,0.2c-0.2-0.1-0.3-0.1-0.5-0.2c0,0,0-0.1,0-0.2C-134.4,398.6-134.2,398.8-134,398.8z"/>
		</g>
	</g>
</g>
</svg>
