<?xml version="1.0" encoding="utf-8"?>
<!-- Generator: Adobe Illustrator 17.1.0, SVG Export Plug-In . SVG Version: 6.00 Build 0)  -->
<!DOCTYPE svg PUBLIC "-//W3C//DTD SVG 1.1//EN" "http://www.w3.org/Graphics/SVG/1.1/DTD/svg11.dtd">
<svg version="1.1" id="Layer_1" xmlns="http://www.w3.org/2000/svg" xmlns:xlink="http://www.w3.org/1999/xlink" x="0px" y="0px"
	 viewBox="0 0 72 72" enable-background="new 0 0 72 72" xml:space="preserve">
<g>
	<g>
		<g>
			<path d="M36.537,52.91c-7.717,0-13.996-6.279-13.996-13.996c0-7.718,6.279-13.996,13.996-13.996s13.996,6.279,13.996,13.996
				S44.254,52.91,36.537,52.91z M36.537,26.884c-6.634,0-12.031,5.397-12.031,12.031c0,6.633,5.397,12.031,12.031,12.031
				s12.031-5.398,12.031-12.031C48.568,32.281,43.171,26.884,36.537,26.884z"/>
		</g>
		<g>
			<path d="M29.333,36.106c-0.171,0-0.344-0.044-0.501-0.138c-0.467-0.276-0.62-0.88-0.344-1.346
				c1.924-3.239,5.457-5.252,9.221-5.252c0.542,0,0.982,0.439,0.982,0.982c0,0.543-0.44,0.982-0.982,0.982
				c-3.075,0-5.96,1.644-7.532,4.29C29.995,35.934,29.668,36.106,29.333,36.106z"/>
		</g>
		<g>
			<path d="M27.975,40.732c-0.543,0-0.982-0.439-0.982-0.982c0-0.863,0.102-1.341,0.281-2.108c0.123-0.529,0.647-0.855,1.18-0.733
				c0.527,0.123,0.856,0.65,0.733,1.18c-0.159,0.681-0.229,1.009-0.229,1.661C28.957,40.292,28.517,40.732,27.975,40.732z"/>
		</g>
	</g>
	<g>
		<path d="M61.649,63H11.425C7.537,63,4.5,59.843,4.5,56.169V25.588c0-3.643,2.968-6.785,6.925-6.785h4.743l3.393-6.794
			c0.037-0.076,0.081-0.134,0.128-0.203c2.333-3.477,4.732-3.792,6.99-3.792L27.997,8h16.508c3.707,0,6.406,1.236,8.251,3.71
			c0.048,0.064,0.092,0.116,0.132,0.186l3.942,6.908h4.818c3.66,0,6.691,2.89,6.691,6.785v30.581C68.339,60.1,65.249,63,61.649,63z
			 M11.425,22.732c-1.559,0-2.997,1.285-2.997,2.856v30.581c0,1.497,1.294,2.902,2.997,2.902h50.224
			c1.641,0,2.763-1.473,2.763-2.902V25.588c0-1.349-1.002-2.856-2.763-2.856h-5.96c-0.706,0-1.358-0.347-1.707-0.961l-4.443-7.787
			c-1.09-1.406-2.604-1.999-5.033-1.999l-17.825-0.007c-1.528,0-2.396,0.089-3.659,1.928l-3.876,7.767
			c-0.334,0.669-1.016,1.059-1.761,1.059H11.425z"/>
	</g>
	<g>
		<path d="M66.001,33.536H48.323c-0.543,0-0.982-0.439-0.982-0.982c0-0.543,0.439-0.982,0.982-0.982h17.678
			c0.542,0,0.982,0.439,0.982,0.982C66.983,33.097,66.543,33.536,66.001,33.536z"/>
	</g>
	<g>
		<path d="M24.751,33.536H6.09c-0.543,0-0.982-0.439-0.982-0.982c0-0.543,0.439-0.982,0.982-0.982h18.661
			c0.542,0,0.982,0.439,0.982,0.982C25.733,33.097,25.293,33.536,24.751,33.536z"/>
	</g>
	<g>
		<path d="M52.251,47.286H47.34c-0.543,0-0.982-0.439-0.982-0.982c0-0.543,0.439-0.982,0.982-0.982h4.911
			c0.542,0,0.982,0.439,0.982,0.982C53.233,46.847,52.793,47.286,52.251,47.286z"/>
	</g>
	<g>
		<path d="M56.179,47.286h-0.982c-0.543,0-0.982-0.439-0.982-0.982c0-0.543,0.439-0.982,0.982-0.982h0.982
			c0.542,0,0.982,0.439,0.982,0.982C57.162,46.847,56.722,47.286,56.179,47.286z"/>
	</g>
	<g>
		<path d="M65.019,47.286h-5.893c-0.543,0-0.982-0.439-0.982-0.982c0-0.543,0.439-0.982,0.982-0.982h5.893
			c0.542,0,0.982,0.439,0.982,0.982C66.001,46.847,65.561,47.286,65.019,47.286z"/>
	</g>
	<g>
		<path d="M24.751,47.286H6.09c-0.543,0-0.982-0.439-0.982-0.982c0-0.543,0.439-0.982,0.982-0.982h18.661
			c0.542,0,0.982,0.439,0.982,0.982C25.733,46.847,25.293,47.286,24.751,47.286z"/>
	</g>
</g>
</svg>
