<?xml version="1.0" encoding="utf-8"?>
<!-- Generator: Adobe Illustrator 16.0.0, SVG Export Plug-In . SVG Version: 6.00 Build 0)  -->
<!DOCTYPE svg PUBLIC "-//W3C//DTD SVG 1.1//EN" "http://www.w3.org/Graphics/SVG/1.1/DTD/svg11.dtd">
<svg version="1.1" id="Layer_1" xmlns="http://www.w3.org/2000/svg" xmlns:xlink="http://www.w3.org/1999/xlink" x="0px" y="0px"
	 width="72px" height="72px" viewBox="0 0 72 72" enable-background="new 0 0 72 72" xml:space="preserve">
<g>
	<g>
		<g>
			<path d="M36.565,56.977c-11.672,0-21.167-9.494-21.167-21.166c0-11.671,9.495-21.166,21.167-21.166s21.167,9.495,21.167,21.166
				C57.732,47.483,48.237,56.977,36.565,56.977z M36.565,18.646c-9.466,0-17.167,7.7-17.167,17.166
				c0,9.466,7.701,17.166,17.167,17.166s17.167-7.699,17.167-17.166C53.732,26.346,46.031,18.646,36.565,18.646z"/>
		</g>
		<g>
			<path d="M25.597,29.472c-0.174,0-0.35-0.045-0.51-0.14c-0.475-0.282-0.631-0.896-0.35-1.371c2.07-3.488,5.875-5.655,9.929-5.655
				c0.553,0,1,0.447,1,1s-0.447,1-1,1c-3.352,0-6.497,1.792-8.208,4.677C26.271,29.297,25.938,29.472,25.597,29.472z"/>
		</g>
		<g>
			<path d="M24.125,34.479c-0.553,0-1-0.447-1-1c0-0.933,0.109-1.444,0.304-2.27c0.126-0.538,0.673-0.868,1.202-0.745
				c0.538,0.127,0.871,0.665,0.745,1.202c-0.174,0.74-0.251,1.097-0.251,1.813C25.125,34.032,24.678,34.479,24.125,34.479z"/>
		</g>
	</g>
	<g>
		<path d="M37.37,69.5c-1.104,0-2-0.896-2-2v-6c0-1.105,0.896-2,2-2s2,0.895,2,2v6C39.37,68.604,38.475,69.5,37.37,69.5z"/>
	</g>
	<g>
		<path d="M37.37,12.5c-1.104,0-2-0.896-2-2v-6c0-1.104,0.896-2,2-2s2,0.896,2,2v6C39.37,11.604,38.475,12.5,37.37,12.5z"/>
	</g>
	<g>
		<path d="M14.227,60.084c-0.512,0-1.023-0.195-1.414-0.586c-0.781-0.781-0.781-2.047,0-2.828l4.242-4.242
			c0.781-0.781,2.047-0.781,2.828,0s0.781,2.047,0,2.828l-4.242,4.242C15.25,59.889,14.738,60.084,14.227,60.084z"/>
	</g>
	<g>
		<path d="M54.531,19.78c-0.512,0-1.023-0.195-1.414-0.586c-0.781-0.781-0.781-2.047,0-2.828l4.242-4.242
			c0.781-0.781,2.047-0.781,2.828,0s0.781,2.047,0,2.828l-4.242,4.242C55.555,19.585,55.043,19.78,54.531,19.78z"/>
	</g>
	<g>
		<path d="M18.469,19.78c-0.512,0-1.023-0.195-1.414-0.586l-4.242-4.242c-0.781-0.781-0.781-2.047,0-2.828s2.047-0.781,2.828,0
			l4.242,4.242c0.781,0.781,0.781,2.047,0,2.828C19.492,19.585,18.98,19.78,18.469,19.78z"/>
	</g>
	<g>
		<path d="M58.773,60.086c-0.512,0-1.023-0.195-1.414-0.586l-4.242-4.244c-0.781-0.781-0.781-2.047,0-2.828s2.047-0.781,2.828,0
			l4.242,4.244c0.781,0.781,0.781,2.047,0,2.828C59.797,59.891,59.285,60.086,58.773,60.086z"/>
	</g>
	<g>
		<path d="M10.5,38.5h-6c-1.104,0-2-0.896-2-2c0-1.104,0.896-2,2-2h6c1.104,0,2,0.896,2,2C12.5,37.604,11.604,38.5,10.5,38.5z"/>
	</g>
	<g>
		<path d="M67.5,38.5h-6c-1.104,0-2-0.896-2-2c0-1.104,0.896-2,2-2h6c1.104,0,2,0.896,2,2C69.5,37.604,68.604,38.5,67.5,38.5z"/>
	</g>
</g>
</svg>
