<?xml version="1.0" encoding="utf-8"?>
<!-- Generator: Adobe Illustrator 17.1.0, SVG Export Plug-In . SVG Version: 6.00 Build 0)  -->
<!DOCTYPE svg PUBLIC "-//W3C//DTD SVG 1.1//EN" "http://www.w3.org/Graphics/SVG/1.1/DTD/svg11.dtd">
<svg version="1.1" id="Layer_2" xmlns="http://www.w3.org/2000/svg" xmlns:xlink="http://www.w3.org/1999/xlink" x="0px" y="0px"
	 viewBox="0 0 252 144" enable-background="new 0 0 252 144" xml:space="preserve">
<rect x="38" y="34.7" fill="none" width="176" height="112"/>
<g enable-background="new    ">
	<path d="M97.3,36.1v3H79.9v46.5h-3.6V39.2H58.8v-3H97.3z"/>
	<path d="M146.7,60.9c0,3.8-0.6,7.3-1.7,10.4c-1.1,3.1-2.8,5.8-4.8,8c-2.1,2.2-4.6,3.9-7.5,5.1c-2.9,1.2-6.1,1.8-9.6,1.8
		s-6.7-0.6-9.6-1.8c-2.9-1.2-5.4-2.9-7.5-5.1c-2.1-2.2-3.7-4.9-4.8-8c-1.1-3.1-1.7-6.6-1.7-10.4c0-3.8,0.6-7.3,1.7-10.4
		c1.1-3.1,2.8-5.8,4.8-8c2.1-2.2,4.6-3.9,7.5-5.1c2.9-1.2,6.1-1.8,9.6-1.8s6.7,0.6,9.6,1.8c2.9,1.2,5.4,2.9,7.5,5.1
		c2.1,2.2,3.7,4.9,4.8,8C146.2,53.6,146.7,57.1,146.7,60.9z M143,60.9c0-3.5-0.5-6.6-1.4-9.3s-2.3-5.1-4.1-7s-3.9-3.4-6.3-4.4
		c-2.5-1-5.2-1.5-8.1-1.5c-2.9,0-5.6,0.5-8.1,1.5c-2.5,1-4.6,2.5-6.3,4.4c-1.8,1.9-3.1,4.2-4.1,7c-1,2.8-1.5,5.9-1.5,9.3
		c0,3.5,0.5,6.6,1.5,9.3c1,2.7,2.3,5.1,4.1,7c1.8,1.9,3.9,3.4,6.3,4.4c2.4,1,5.1,1.5,8.1,1.5c3,0,5.7-0.5,8.1-1.5
		c2.4-1,4.5-2.5,6.3-4.4s3.1-4.2,4.1-7C142.6,67.5,143,64.4,143,60.9z"/>
	<path d="M161.8,65.7v20h-3.6V36.1H171c5.8,0,10.2,1.3,13.1,3.8c3,2.5,4.4,6.2,4.4,10.9c0,2.2-0.4,4.2-1.2,6s-2,3.4-3.5,4.7
		c-1.5,1.3-3.4,2.3-5.5,3.1c-2.2,0.7-4.6,1.1-7.3,1.1H161.8z M161.8,62.8h9.2c2.2,0,4.1-0.3,5.8-0.9c1.7-0.6,3.2-1.4,4.4-2.5
		c1.2-1.1,2.1-2.3,2.8-3.8c0.6-1.5,1-3,1-4.8c0-3.8-1.2-6.7-3.5-8.8C179.1,40,175.6,39,171,39h-9.2V62.8z"/>
</g>
<line fill="none" stroke="#000000" stroke-width="2" stroke-miterlimit="10" x1="68" y1="104.7" x2="184" y2="104.7"/>
</svg>
