<?xml version="1.0" encoding="utf-8"?>
<!-- Generator: Adobe Illustrator 28.2.0, SVG Export Plug-In . SVG Version: 6.00 Build 0)  -->
<svg version="1.1" id="Layer_1" xmlns="http://www.w3.org/2000/svg" xmlns:xlink="http://www.w3.org/1999/xlink" x="0px" y="0px"
	 viewBox="0 0 2160 2160" style="enable-background:new 0 0 2160 2160;" xml:space="preserve">
<style type="text/css">
	.st0{fill:#111111;stroke:#000000;stroke-miterlimit:10;}
</style>
<path class="st0" d="M1872,596.2c0,3.3-0.2,6.6-0.3,10C1867.9,677,1848,755,1822.9,828c-12.4,36.1-25.9,70.9-39.4,103.1
	c-26.8,64.1-57.3,127.5-90.8,189.3c-36,66.6-75.5,131.5-117.3,193.4c-76.1,112.6-208.2,282.6-354,376.6
	c-64.9,41.9-132.6,68.7-199,68.7c-67.7,0-122.2-26.9-166.3-69.9c-112.4-109.2-157-321.2-177.6-451.7l-2.8-17.5
	c-14.4-91.2-55.7-367.1-178.8-367.1c-9.2,0-18.2,1.5-27,4c-2.7,0.7-5.3,1.6-8,2.5c-31,11-66.5,20.4-99.4,20.4
	c-8.6,0-17.8-0.8-26.5-2.7c-19-4.2-36.4-13.8-44.3-33c-2.5-6.2-3.7-12.6-3.9-19.2c0-0.4,0-0.9,0-1.3c0-0.9,0-1.9,0.1-2.8
	c1.9-35,32.2-72.7,56.8-98.3c4.6-4.9,9.2-9.3,13.2-13.2c53.8-51.8,137.4-126,225.7-182.9c9.6-6.2,19.2-12.1,28.9-17.9
	c64.7-38.4,130.5-65.2,187.2-65.2c31.1,0,59.4,7.7,83.5,25.2c5.9,4.3,11.7,9.2,17.2,14.8c57.3,58,86.8,138.2,101.9,221.1
	c8.3,44.9,12.3,90.8,14.4,134.5c0.5,9,0.8,17.9,1.1,26.7c0.1,1.8,0.1,3.5,0.2,5.2c0,1.8,0.1,3.5,0.1,5.2c0,1.7,0.1,3.5,0.1,5.2
	c0,1.3,0.1,2.6,0.1,3.9c0,1.3,0.1,2.6,0.1,3.9c0,1.1,0.1,2.2,0.1,3.3c0.1,1.9,0.1,3.9,0.2,5.8c0.2,4.3,0.3,8.6,0.6,12.9
	c0.4,8.7,1,17.4,1.6,26.2c0.3,4.4,0.7,8.8,1.1,13.2c0.3,3,0.5,5.9,0.8,8.9c0.3,2.9,0.6,5.9,0.9,8.8c0.3,2.8,0.6,5.5,0.9,8.3
	c0.7,5.8,1.4,11.7,2.2,17.6c7.6,56.6,20.8,113.2,42,162.9c17.6,41.3,54.8,107.5,107.2,107.5c29.2,0,56.9-22.5,75.2-42.9
	c16.1-17.8,30.5-39.5,43.5-62.9c13-23.4,24.5-48.7,34.5-73.9c11.5-28.7,21.3-57.3,29.3-82.9c8.8-28.2,17.9-64.7,18.9-99.9
	c0-1.1,0.1-2.3,0.1-3.4c0-1.8,0-3.7,0-5.5c0-0.8,0-1.7-0.1-2.6c-0.6-26.3-6.2-51.3-20.7-70.9c-21-28.7-55.7-38.7-89.9-38.7
	c-23.6,0-51.4,5.2-72.4,15.7c-6.2,3.1-13.6,2.1-18.8-2.4c-3.2-2.8-5.2-6.6-5.8-10.7c-0.2-2.3,0-4.7,0.7-6.9
	c6.5-20.1,15.6-41.2,26.1-62.2c21.5-42.8,49-85.2,75.5-118.3c39.1-49,83.8-89.9,133.9-121.4c62.9-39.7,134.2-64.6,213.4-72.3
	c3.3-0.3,6.7-0.6,9.9-0.7c7.7-0.5,15.4-0.7,23.1-0.7c62.1,0,127.7,17.6,171.7,63.8c31.3,33,45.7,74.8,47.4,119.4
	c0.1,1.6,0.1,3.2,0.1,4.7C1872,591.3,1872,593.8,1872,596.2z"/>
</svg>
