<?xml version="1.0" encoding="UTF-8"?>
<svg id="Layer_1" xmlns="http://www.w3.org/2000/svg" xmlns:xlink="http://www.w3.org/1999/xlink" version="1.1" viewBox="0 0 1600 1600">
  <!-- Generator: Adobe Illustrator 29.2.1, SVG Export Plug-In . SVG Version: 2.1.0 Build 116)  -->
  <defs>
    <style>
      .st0 {
        fill: #1c1c1c;
        stroke: #1c1c1c;
        stroke-miterlimit: 10;
      }
    </style>
  </defs>
  <path class="st0" d="M1600,311.4c0,3.3-.2,6.7-.3,10.1-3.8,71.5-23.9,150.3-49.3,224-12.5,36.5-26.2,71.6-39.8,104.1-27.1,64.7-57.9,128.8-91.7,191.2-36.4,67.3-76.3,132.8-118.5,195.3-76.9,113.7-210.3,285.4-357.5,380.4-65.5,42.3-133.9,69.4-201,69.4s-123.4-27.2-168-70.6c-113.5-110.3-158.6-324.4-179.4-456.2l-2.8-17.7c-14.5-92.1-56.3-370.8-180.6-370.8s-18.4,1.5-27.3,4c-2.7.7-5.4,1.6-8.1,2.5-31.3,11.1-67.2,20.6-100.4,20.6s-18-.8-26.8-2.7c-19.2-4.2-36.8-13.9-44.7-33.3-2.5-6.3-3.7-12.7-3.9-19.4v-1.3c0-.9,0-1.9.1-2.8,1.9-35.3,32.5-73.4,57.4-99.3,4.6-4.9,9.3-9.4,13.3-13.3,54.3-52.3,138.8-127.3,228-184.7,9.7-6.3,19.4-12.2,29.2-18.1,65.3-38.8,131.8-65.9,189.1-65.9s60,7.8,84.3,25.5c6,4.3,11.8,9.3,17.4,14.9,57.9,58.6,87.7,139.6,102.9,223.3,8.4,45.3,12.4,91.7,14.5,135.8.5,9.1.8,18.1,1.1,27,0,1.8,0,3.5.2,5.3v21.7c0,1.9,0,3.9.2,5.9.2,4.3.3,8.7.6,13,.4,8.8,1,17.6,1.6,26.5.3,4.4.7,8.9,1.1,13.3.3,3,.5,6,.8,9,.3,2.9.6,6,.9,8.9.3,2.8.6,5.6.9,8.4.7,5.9,1.4,11.8,2.2,17.8,7.7,57.2,21,114.3,42.4,164.5,17.8,41.7,55.3,108.6,108.3,108.6s57.5-22.7,75.9-43.3c16.3-18,30.8-39.9,43.9-63.5s24.7-49.2,34.8-74.6c11.6-29,21.5-57.9,29.6-83.7,8.9-28.5,18.1-65.3,19.1-100.9v-11.6c-.6-26.6-6.3-51.8-20.9-71.6-21.2-29-56.3-39.1-90.8-39.1s-51.9,5.3-73.1,15.9c-21.2,10.6-13.7,2.1-19-2.4-3.2-2.8-5.3-6.7-5.9-10.8-.2-2.3,0-4.7.7-7,6.6-20.3,15.8-41.6,26.4-62.8,21.7-43.2,49.5-86,76.3-119.5,39.5-49.5,84.6-90.8,135.2-122.6,63.5-40.1,135.5-65.2,215.5-73,3.3-.3,6.8-.6,10-.7,7.8-.5,15.6-.7,23.3-.7,62.7,0,129,17.8,173.4,64.4,31.6,33.3,46.2,75.5,47.9,120.6v4.7c.4,2.5.4,5,.4,7.5h.6Z"/>
</svg>